<svg width="621" height="487" fill="none" xmlns="http://www.w3.org/2000/svg"><circle cx="155.397" cy="297.02" fill="#C9D2D7" r="155.397"/><circle cx="300.397" cy="158.397" fill="#C9D2D7" r="155.397"/><ellipse cx="261.5" cy="314.5" rx="143.5" ry="155.5" fill="#C9D2D7"/><circle cx="465.397" cy="308.603" fill="#C9D2D7" r="155.397"/><g clip-path="url(#a)"><path d="M348.784 437.699a129.413 129.413 0 0 1-83.752 33.23 129.4 129.4 0 0 1-85.131-29.509 174.214 174.214 0 0 1-8.622-43.681c-.527-7.703-.764-15.826.359-23.483 39.978 6.891 96.16 16.301 135.457 6.83a90.006 90.006 0 0 0 18.956-6.937c3.058 7.825 5.772 15.842 8.6 23.736l13.101 36.858 1.032 2.956Z" fill="#FEFEFE"/><path d="m179.566 145.484.863.513.077.536c-1.712 2.297-15.486 11.722-18.812 14.05a2.004 2.004 0 0 1-.879-.766c.383-1.493 16.244-12.58 18.751-14.333ZM429.021 129.726a5.043 5.043 0 0 1 2.21.49c6.229 2.68 12.306 6.217 18.345 9.288 3.271 1.654 10.35 4.701 12.826 6.669.642.513.505.995.535 1.738-1.995-.322-30.522-14.831-33.228-16.73-.626-.459-.504-.697-.688-1.455ZM442.436 70.188l.765.284.214.505c-.482 1.853-21.648 27.319-24.353 30.029-.574-.429-.765-.337-.841-1.087 2.354-3.935 6.879-8.72 9.937-12.396 4.639-5.743 9.134-12.029 14.278-17.335ZM203.46 149.197c.436.314.39.329.574.766-.765 1.393-4.143 2.121-5.626 2.718a83.877 83.877 0 0 0-15.41 8.261 86.086 86.086 0 0 0-18.437 16.768c-2.171 2.68-3.937 5.728-6.214 8.308l-.169.191a8.66 8.66 0 0 1-.68-.765c.006-.535.14-1.06.39-1.532 1.078-2.082 3.057-4.234 4.472-6.125 10.242-13.162 25.14-23.72 41.1-28.59ZM497.235 100.264a2.231 2.231 0 0 1 1.407.176l-.046.436a5.204 5.204 0 0 1-2.507 1.279c-1.789.436-3.73.605-5.557.949l-14.225 2.749-48.516 9.379c-.303.051-.61.071-.917.062a1.587 1.587 0 0 1-1.246-.766c.963-.766 2.66-.988 3.822-1.248 8.232-1.845 16.671-3.162 24.957-4.786 14.256-2.802 28.504-5.75 42.828-8.23ZM259.252 410.74a8.63 8.63 0 0 1 2.347 1.072c2.928 1.531 5.848 2.971 9.173 3.154a24.9 24.9 0 0 0 7.896-.765c.97-.284 1.987-.934 2.973-1.065a2.99 2.99 0 0 1 1.353.146l.046.398c-.069.084-.122.169-.199.253-2.667 2.787-9.578 2.764-13.162 2.703 3.906 11.99 8.026 23.942 12.184 35.848 1.108 3.262 2.515 6.623 3.363 9.954a1.61 1.61 0 0 1-.214 1.531h-.688c-.887-1.064-15.639-44.118-16.411-47.64-2.408-.765-7.331-2.128-8.722-4.379-.221-.368-.023-.758.061-1.21Z" fill="#022F45"/><path d="M618.008 324.235c-2.867 44.325-6.972 88.595-9.563 132.935-9.341 2.634-18.62 5.727-27.884 8.644l-43.57 13.782c-7.644 2.473-15.288 5.084-23.054 7.366-4.808-1.34-9.776-2.297-14.653-3.415l-26.349-5.888c-20.279-4.594-40.512-9.471-60.928-13.522-1.72-7.717-2.041-15.964-2.691-23.842l-2.935-37.64-3.249-43.689c-.68-8.79-1.789-17.771-1.911-26.584 7.889-.214 15.792-.092 23.696-.275 1.383-11.96.764-24.157 2.163-36.125-16.679-1.454-34.733-3.636-49.058-13.062a1.32 1.32 0 0 1-.153-.092c-1.208 1.432-2.606 2.749-3.921 4.089l-5.473 5.406c-4.472-4.763-8.294-10.72-12.23-15.964-7.575-10.1-15.242-20.168-22.565-30.451-1.529 4.188-2.996 8.422-4.212 12.68-9.669 34.171-6.619 71.972 10.702 103.188-3.47 4.816-7.72 8.307-12.689 11.485 2.102 5.145 3.822 10.474 5.687 15.711l9.998 28.192 6.88 19.341c-.421.398-.849.765-1.277 1.163l-1.032-2.924-13.086-36.829c-2.828-7.924-5.511-15.941-8.599-23.735a90.09 90.09 0 0 1-18.957 6.937c-39.297 9.471-95.479.091-135.456-6.83-1.093 7.656-.887 15.78-.36 23.483a174.171 174.171 0 0 0 8.623 43.681 102.716 102.716 0 0 1-2.416-2.037 166.06 166.06 0 0 1-7.858-41.277 229.53 229.53 0 0 1 .138-24.156c-6.283-1.264-12.612-2.297-18.896-3.568 3.822-5.789 7.705-11.416 11.183-17.419 10.495-18.077 17.887-37.196 24.506-56.966-4.532-.88-9.34-2.35-12.925-5.359-5.641-4.77-7.239-12.013-7.843-19.035a52.632 52.632 0 0 1-11.206-2.702c-3.302-1.141-6.52-2.504-9.585-3.882 5.893-22.763 16.61-65.725 33.06-81.474 10.701-10.253 25.079-15.651 39.747-16.355 4.426-.214 8.921.168 13.362.23 6.94.099 13.881.069 20.822.229-.765-5.918-.589-12.044-.581-18.008a78.22 78.22 0 0 1-26.998-26.079c-1.797-2.947-2.882-6.286-4.678-9.249l-.245-.39c-1.964.834-3.692 2.151-5.771 2.756-3.715 1.072-8.408.077-11.718-1.822-5.014-2.871-8.355-8.422-9.784-13.943-1.376-5.306-1.017-10.352 1.789-15.106-1.888-4.357-3.478-9.579-2.981-14.38.412-3.935 2.392-6.393 5.35-8.743-2.453-.146-4.54-.766-6.321-2.55-3.165-3.178-4.327-9.333-4.25-13.682a23.825 23.825 0 0 1 7.368-17.044 21.762 21.762 0 0 1 7.203-4.562 21.724 21.724 0 0 1 8.398-1.44c6.949.275 11.734 3.506 16.289 8.49-.122-.36-.259-.72-.389-1.087-1.659-4.594-5.435-8.974-5.55-13.958a6.072 6.072 0 0 1 1.636-4.64 6.819 6.819 0 0 1 5.053-1.815c5.641.26 11.091 5.56 14.683 9.449 1.025-1.807 1.995-3.407 3.822-4.48 6.375-3.667 12.49 6.195 17.306 9.058a14.126 14.126 0 0 0 3.822 1.302c-2.668-2.84-4.801-4.15-5.832-8.208a12.962 12.962 0 0 1 1.597-10.1c2.698-4.302 6.994-6.231 11.764-7.28a21.92 21.92 0 0 1 10.625 1.53c8.584 3.561 14.095 11.846 17.52 20.153 3.821 9.272 6.222 25.267 4.655 35.305a49.015 49.015 0 0 1-3.547 11.37c3.654 14.31 4.082 30.489 1.773 45.067-2.216 14.019-8.347 28.888-20.134 37.441 1.009 5.627 2.332 11.554 2.691 17.235l13.606.092c2.637-21.906 13.193-44.164 26.998-61.184 10.64-13.124 25.897-26.684 43.31-28.376a25.568 25.568 0 0 1 7.56.352c4.945.98 19.721 6.455 23.497 9.655 6.589 5.59 8.836 15.084 9.524 23.322 2.293 27.779-13.958 65.357-31.638 86.252 9.975 7.198 20.157 14.15 30.224 21.217-1.116 10.045-2.652 17.281-6.643 26.653 7.644 5.689 16.633 9.348 25.768 11.936.535-4.387.596-8.82.841-13.23.711-12.496.947-25.099 2.14-37.564 20.638-2.603 41.491-4.241 62.19-6.332l24.46-2.473c4.587-.459 9.257-1.171 13.859-1.225.718.414.657.873.886 1.631 1.193 1.202 50.771 20.16 56.266 22.204-.764 5.613-.428 11.745-.55 17.442l-.764 26.798c-.382 20.374-1.529 40.772-1.651 61.154 5.694-.506 11.412-.85 17.114-1.31 4.885-.436 9.677-.987 14.455-1.049Z" fill="#022F45"/><path d="M196.466 67.087c.688.17 1.296.573 1.72 1.141l.306.322c.492.407.871.934 1.101 1.531.145.467 0 .574-.214.988-.818.498-1.904.383-2.836.39l-.52.207v-.39c.191-.253.382-.513.558-.766a2.51 2.51 0 0 0 .65-1.968 2.69 2.69 0 0 0-1.82.368c-.107-.498.757-1.401 1.055-1.823ZM203.077 60.564c.137.212.223.453.253.704a3.599 3.599 0 0 0-.688 1.394l.382.306 1.376-.498.39.215c0 .765-.765.52-1.269 1.125l.283.56c.986.152 1.528-.468 2.476-.414v.482a22.11 22.11 0 0 0-1.903 1.884l-3.593-3.515 2.293-2.243ZM286.464 48.076c.581.26.367.046.627.658-.32.436-.609.894-.864 1.371l.237.452.535.16a2.292 2.292 0 0 1 1.055-.55l.206.52-.535 1.08.153.413.612.069c.265-.36.637-.629 1.062-.766l.405.46c-.688.643-1.437 1.232-2.163 1.83-1.147-1.18-2.247-2.397-3.363-3.6l2.033-2.097ZM242 21.576a8.4 8.4 0 0 1 2.232 1.884c.146.903.505 2.12.176 2.97l-.573.054c-1.101-.934-2.828-2.036-3.188-3.484.283-.842.635-.934 1.353-1.424ZM277.911 56.406c.688.873 1.338 1.761 1.995 2.65 0 .949.527 2.243.046 3.062l-.497-.13a46.793 46.793 0 0 1-3.539-3.315l1.995-2.267ZM214.039 48.91c.634.713.489 1.93.497 2.864.886 1.003 2.392.23 3.5.965-.886.766-2.392.077-3.47.766.122.85.222 1.692.298 2.55-.971-.33-1.987-1.44-2.69-2.183-.52-.559-.918-.85-.879-1.654l.42-.191 1.376.689.436-.2c.122-1.217.29-2.403.512-3.605ZM199.814 63.627c.933.681 1.567 2.389 2.293 3.353.436.084.841.176 1.269.299a6.052 6.052 0 0 1-1.704 1.8l-.566.122a18.133 18.133 0 0 1-3.34-3.339l2.048-2.235ZM300.705 33.766l.382.513c.018.416.066.83.145 1.24.398 1.585 1.804.567 2.859 1.133.069.613.183.605-.199 1.141a2.68 2.68 0 0 0-1.98 0 3.225 3.225 0 0 0-.26 1.976v.352c-.412.337-.152.222-.764.237-.887-.865-2.813-2.389-2.859-3.621l.558-.23a5.482 5.482 0 0 0 1.667.375l.328-.406a4.108 4.108 0 0 1 .123-2.71ZM283.43 51.675a2.363 2.363 0 0 1 1.529.765 2.3 2.3 0 0 1 0 1.815l.252.298a9.709 9.709 0 0 1 1.697.13l-.146.537c-.764.581-1.803.398-2.705.55a1.525 1.525 0 0 0-1.269.95 5.73 5.73 0 0 0 .764 2.098l-.634.36c-1.529-.23-2.89-2.412-3.822-3.583a50.455 50.455 0 0 1 4.334-3.92Z" fill="#022F45"/><path d="m283.735 52.578.337.712c-.268 1.279-1.583 2.297-2.477 3.216-.191-.383-.436-.659-.374-1.103.175-1.263 1.582-2.098 2.514-2.825Z" fill="#022F45"/><path d="M285.792 280.118c4.676.727 9.389 1.189 14.118 1.386-1.911 4.594-3.944 9.088-5.932 13.613-1.261 2.864-2.385 5.995-4.028 8.645a10.202 10.202 0 0 1-2.072 2.296 9.223 9.223 0 0 1-2.56 1.241 8.398 8.398 0 0 1-6.597-.927 8.077 8.077 0 0 1-3.669-5.168 6.656 6.656 0 0 1-.092-2.771c.597-2.856 5.58-14.847 7.201-16.891.902-1.095 2.301-1.172 3.631-1.424ZM311.78 214.279c4.227 3.445 9.8 5.045 14.829 6.944-3.73 7.787-7.04 15.826-10.495 23.736a15.654 15.654 0 0 0-3.936-1.723c-4.877-.107-9.563 1.623-14.294 2.641a658.772 658.772 0 0 1 13.896-31.598ZM442.146 334.105c6.566-.107 13.178-.153 19.736 0 .948 9.241 1.804 18.85 2.056 28.13a255.047 255.047 0 0 0-20.172-4.433c-.183-6.546-2.384-17.855-1.62-23.697ZM252.999 150.56c1.843.85 3.677 1.684 5.58 2.381 8.409 3.063 15.945 2.734 23.971-1.033.36 5.673 3.578 13.383.398 18.467-.321.33-.642.659-.971.973-3.012 2.81-7.384 3.828-11.404 3.606-6.116-.299-12.941-3.645-17.046-8.131-.314-4.372-.895-12.082-.528-16.263ZM574.827 328.814c1.109-.123 2.294-.099 3.379-.138-.696 8.637-1.666 17.281-2.591 25.895l-17.222 5.406c-.596.168-.718.321-1.322.091-.895-9.953-1.46-19.945-2.194-29.906 6.642-.552 13.308-.85 19.95-1.348ZM402.253 247.899c8.469 5.581 17.015 8.989 26.562 12.097-.26 11.485-1.238 22.924-1.758 34.371-6.26-.766-12.498-1.256-18.758-2.213-10.701-1.983-19.713-4.992-29.245-10.39 8.874-10.29 17.993-21.148 23.199-33.865Z" fill="#FEFEFE"/><path d="M378.358 199.792c3.058 1.531 6.001 4.05 8.806 6.026 6.879 4.869 13.759 9.892 20.814 14.547-3.554 30.39-18.888 48.651-39.496 69.507-.688-1.049-1.46-2.052-2.201-3.062l-32.012-42.877c.114-6.401 1.582-13.078 2.537-19.41 1.174.065 2.35.065 3.524 0 15.402-.949 28.42-13.728 38.028-24.731Z" fill="#FEB703"/><path d="M292.672 236.835a4.54 4.54 0 0 1 1.666.444c5.588 2.764.344 8.874 1.261 11.431h.512c2.813-1.944 11.145-3.828 14.745-3.69 1.468 0 3.134.375 4.143 1.531.864.996 1.002 2.764.765 4.005-.077.367-.13.765-.528.895-1.238.307-3.203-.222-4.586-.26-2.102-.054-10.579.827-12.108 1.884l.084.474c1.751 1.34 12.116-1.577 15.869-.459a5.988 5.988 0 0 1 3.738 3.063 5.319 5.319 0 0 1 .229 4.088 4.66 4.66 0 0 1-3.608 2.879c-1.177.107-2.767-.36-3.944-.551-4.143-.674-9.593-1.409-13.515.398v.521l-.359-.199.298-.268c.138.176.191.444.398.536 2.216 1.041 13.652-1.409 16.556 1.975a2.753 2.753 0 0 1 .719 2.052 4.604 4.604 0 0 1-1.705 3.246c-3.18 2.642-7.521 1.034-11.167.766-.971-.077-1.33-.115-2.087.528v.559c1.238.927 3.822.843 5.351 1.141 1.758.329 4.112.812 5.174 2.366a1.467 1.467 0 0 1-.313 1.317c-1.452 2.136-4.311 2.573-6.65 2.619-4.044.076-8.278-.559-12.291-1.049-2.057-.245-4.227-.682-6.291-.49-2.477.222-5.229 1.408-7.644 2.151a364.659 364.659 0 0 1-11.351 3.323 391.637 391.637 0 0 1-33.473 7.718c-14.737 2.603-32.921 5.612-47.697 2.205-5.748-1.325-10.74-3.981-13.927-9.111-4.464-7.198-4.036-17.098-2.125-25.022a41.176 41.176 0 0 1 8.469-3.982c11.466-4.211 22.458-4.18 34.398-2.68 0 2.856-.696 6.233 0 9.028a2.803 2.803 0 0 0 1.467 1.983c10.006 5.757 55.449-5.682 67.266-9.257 2.637-4.717 7.949-15.62 12.261-18.108Z" fill="#FEFEFE"/><path d="M533.253 200.941c18.078 7.373 36.522 13.904 54.531 21.438-.665 9.678-.619 19.486-.833 29.187l-1.407 48.306c-.237 8.958-.16 17.924-.711 26.867-6.826.061-13.697.697-20.508 1.118l-31.515 1.937.443-128.853Z" fill="#022F45"/><path d="M551.354 215.902c5.901.536 11.61 3.637 17.527 4.517-.558 3.828-.444 7.764-.856 11.63a52.581 52.581 0 0 1-5.856-.865c-3.76-.605-7.513-1.186-11.297-1.577-.031-4.54.191-9.18.482-13.705Z" fill="#022F45"/><path d="m553.081 217.831 14.095 3.966c-.359 2.772-.466 5.567-.856 8.346-2.569.168-10.908-1.639-13.92-2.205l.681-10.107ZM240.059 50.725c16.557-1.087 27.9 14.425 43.784 15.313a18.444 18.444 0 0 0 13.759-4.892c3.294 6.608 4.815 14.21 5.48 21.53.398 4.395.375 8.813.367 13.216 0 17.013-2.667 34.286-14.018 47.739-4.533 5.359-10.343 9.188-17.489 9.739-12.093.88-23.268-6.577-32.013-14.127-5.091-4.639-10.701-10.497-14.08-16.538-1.246-2.213-2.109-4.632-3.287-6.891-.512-.957-1.62-2.932-2.728-3.292-2.431-.766-6.322 4.747-13.828 2.297-4.869-1.616-8.248-5.291-10.472-9.793-2.225-4.502-3.486-10.313-1.743-15.198a11.723 11.723 0 0 1 6.115-6.784 8.764 8.764 0 0 1 6.987.138c4.486 1.876 13.2 10.85 15.066 15.313.764 1.86 0 4.203.871 6.125a3.712 3.712 0 0 0 2.293 1.968 3.604 3.604 0 0 0 2.958-.682c2.171-1.531 3.119-4.08 3.585-6.577 1.33-7.197-1.322-14.019-5.305-19.907a8.314 8.314 0 0 0 6.582-1.041c4.586-2.81 7.093-9.824 5.671-15.06-.764-2.772-3.776-6.034-2.744-9.02.597-1.738 2.614-2.925 4.189-3.576Z" fill="#FEFEFE"/><path d="M206.288 95.333c.397.033.783.15 1.131.344.168 1.141-.97 2.136-1.162 3.37.574 1.776 1.43 1.944 2.882 2.87.719.46.619.628.818 1.463a4.72 4.72 0 0 1-3.531-.904 4.287 4.287 0 0 1-1.621-3.123c-.153-1.677.474-2.742 1.483-4.02ZM290.492 73.68c2.079-.215 5.618-.368 7.468.635.566.306.573.452.765 1.019l-.337.513c-2.117.16-4.349-.674-6.573-.636h-.513c-1.949.253-5.297 2.152-7.001 1.593l-.138-.483c.046-.069.084-.153.13-.222 1.108-1.44 4.449-2.036 6.199-2.42ZM289.255 119.359c.137.069.275.123.413.199.359.215.665.376.764.766.29 1.409-.65 2.94-1.46 4.02a15.41 15.41 0 0 1-4.697 4.366 15.373 15.373 0 0 1-6.066 2.073c-.672.046-.359.145-.909-.314v-.674c1.215-1.003 3.485-.972 4.984-1.684 3.791-1.761 5.625-4.992 6.971-8.752ZM258.365 76.482c2.38-.202 4.768.285 6.88 1.401l.076.36c-1.529.766-7.17-.268-10.212.674l-.352.115c-1.528.681-3.523 2.657-5.159 2.557l-.13-.2c.031-.348.152-.683.351-.971 1.82-2.634 5.55-3.469 8.546-3.936ZM271.291 81.689l.895.26c1.33 1.378 2.438 6.646 3.623 8.813 1.957 3.575 5.817 5.995 7.506 9.693a4.872 4.872 0 0 1 .123 4.066c-1.208 2.817-4.35 4.349-7.025 5.451a6.546 6.546 0 0 1-.94-.199l-.253-.421c.765-1.531 4.327-2.94 5.787-4.242.909-.819 1.376-1.462 1.078-2.733-.612-2.596-3.165-4.717-4.824-6.73-2.973-3.622-6.122-9.127-5.97-13.958ZM261.843 92.385a3.592 3.592 0 0 1 2.859 1.003c1.774 1.615 2.4 4.372 2.431 6.676 0 2.451-.505 4.449-2.293 6.195h-.352a3.558 3.558 0 0 1-2.836-1.179c-1.674-1.693-2.132-4.594-2.086-6.891.076-2.404.535-4.066 2.277-5.804ZM293.627 89.077a3.924 3.924 0 0 1 3.317 1.218c1.705 1.753 2.293 4.463 2.293 6.845 0 2.38-.527 4.157-2.232 5.819h-.214a3.555 3.555 0 0 1-2.881-1.118c-1.736-1.807-2.347-4.594-2.294-7.052 0-2.205.436-4.112 2.011-5.712Z" fill="#022F45"/><path d="M215.178 168.905c4.586-.452 9.241-.069 13.835 0 8.141.184 16.274.429 24.415.46 5.541 4.272 12.008 7.503 19.155 7.136a19.166 19.166 0 0 0 14.088-6.593c4.395.199 8.798.199 13.193.245a89.034 89.034 0 0 0-.375 16.332c.627 9.456 3.57 20.121 10.916 26.607-4.059 8.943-7.896 17.985-11.994 26.913-.603-1.723-1.482-3.653-3.195-4.533a3.695 3.695 0 0 0-3.111-.1c-4.166 1.593-10.816 13.936-12.818 18.269-17.841 4.38-48.455 13.66-66.058 9.188 5.725-4.219 11.649-7.657 16.556-12.963-.122-3.2-.092-6.401-.076-9.601.435-6.891 1.429-14.157 3.883-20.673 1.039-2.756 2.645-5.36 3.478-8.177l-.39-.46a1.685 1.685 0 0 0-1.368.881 22.436 22.436 0 0 0-2.393 5.046c-3.761 9.57-5.71 21.568-4.716 31.859a82.084 82.084 0 0 0-25.607-6.73c-21.036-1.922-39.243 6.569-55.035 19.723 1.345-4.54 2.392-9.188 3.669-13.782 4.792-17.273 12.895-44.959 24.078-58.818 9.914-12.251 24.475-18.56 39.87-20.229Z" fill="#FEB703"/><path d="M286.701 182.588a1.322 1.322 0 0 1 1.078.52c0 .092-.046.184-.084.276-.764 1.792-4.754 3.568-6.474 4.357-5.748 2.626-12.398 1.868-18.139-.291l-.099-.085c-.482-.543-.688-.589-.696-1.332 1.72-.559 4.487 1.08 6.268 1.447 6.91 1.44 12.559-1.141 18.146-4.892Z" fill="#022F45"/><path d="M370.447 80.364a25.407 25.407 0 0 1 7.185.33c4.587.895 18.85 6.262 22.313 8.934 5.885 4.594 8.354 12.894 9.172 19.961 3.264 27.671-12.131 64.109-29.046 85.448-9.937 12.511-23.108 26.033-39.672 27.932a21.161 21.161 0 0 1-5.633-.605c-4.785-1.187-18.437-6.439-22.091-9.418-7.422-6.064-10.495-15.665-11.504-24.884-3.012-27.456 10.701-59.362 27.678-80.394 10.266-12.596 24.881-25.55 41.598-27.304Z" fill="#FEFEFE"/><path d="M384.214 86.466c.305 0 .42.146.672.307l.1.681a1.86 1.86 0 0 1-.314.375c-.626.414-3.126.636-3.99.82a40.78 40.78 0 0 0-8.607 2.664c-7.055 3.224-13.346 7.932-19.063 13.131-21.311 19.394-36.53 51.698-38.09 80.471a64.819 64.819 0 0 0 .62 12.818c.328 2.228 1.33 5.106 1.161 7.304 0 .168-.038.329-.053.498a2.072 2.072 0 0 1-.994-.36c-1.674-1.646-1.987-8.292-2.201-10.666-2.469-27.977 11.55-60.296 29.146-81.474 10.304-12.396 24.987-25.06 41.613-26.569Z" fill="#022F45"/><path d="M384.16 101.381a11.933 11.933 0 0 1 7.308 1.823c3.73 2.457 5.412 7.159 6.161 11.378 3.822 21.637-10.06 53.045-22.366 70.517-6.964 9.877-16.442 20.841-28.909 22.97-3.172 0-5.871-.268-8.462-2.297-3.944-3.109-5.312-8.422-5.893-13.208-2.752-22.778 12.169-55.043 25.989-72.569 6.451-8.132 15.364-17.32 26.172-18.614Z" fill="#022F45"/><path d="M383.166 103.028a10.788 10.788 0 0 1 6.444 1.072c3.271 1.738 4.968 5.198 5.916 8.629 4.846 17.518-6.008 44.867-14.63 60.257-7.078 12.626-19.11 29.394-33.496 33.437-2.828.352-5.35.206-7.804-1.44-3.248-2.174-4.785-6.125-5.519-9.808-4.028-20.298 8.638-49.768 19.737-66.613 6.711-10.145 16.915-23.015 29.352-25.534Z" fill="#9AACB5"/><path d="M530.042 199.049a2.514 2.514 0 0 1 1.407.046c.458 3.683.084 7.726.061 11.439l-.222 25.734-.145 93.503c-8.844.766-17.825 1.378-26.692 1.6-5.917.153-11.848 0-17.765.131l-58.23.627c-.765 0-.887.1-1.529-.306-.543-4.035.26-8.682.489-12.74l1.147-22.205 4.586-88.204c3.516-.115 7.086-.628 10.594-.98l19.423-1.96c22.313-2.251 44.579-4.724 66.876-6.685Z" fill="#FEB703"/><path d="M491.969 211.231a6.383 6.383 0 0 1 1.872 0c.895 1.049.405 14.732.398 17.182-7.889.405-15.785 1.141-23.658 1.776-.9.097-1.81.079-2.706-.054-.764-2.029.482-13.781.696-16.683 7.697-.069 15.731-1.402 23.398-2.221Z" fill="#022F45"/><path d="m492.32 212.931.145.061c.696 1.692.191 11.485.183 13.981-7.727.268-15.471 1.087-23.183 1.646-.642-1.431.397-11.086.512-13.59 7.43-.712 14.89-1.631 22.343-2.098Z" fill="#FEFEFE"/><path d="M512.286 269.337c1.001-.122 2.071-.076 3.057-.099.497 15.191 2.217 30.366 2.553 45.557-6.161.107-12.344.612-18.498.98-16.77 1.018-33.633 2.45-50.449 2.986l-5.083.275c-.566-14.739.076-29.661.107-44.408 7.521.069 15.578-1.095 23.122-1.684l45.191-3.607Z" fill="#022F45"/><path d="M513.586 271.075c.687 4.74.657 9.77.955 14.548.566 9.188 1.231 18.315 1.529 27.487-22.725 1.486-45.504 2.458-68.206 4.181l-2.408.26c-.275-13.782.206-27.633.115-41.438 5.503-.16 11.037-.765 16.526-1.186l31.821-2.542c6.543-.498 13.109-1.126 19.668-1.31Z" fill="#FEFEFE"/><path d="M503.549 277.331c.436.025.857.171 1.216.421 1.085 3.3 1.169 8.514.764 11.99a6.257 6.257 0 0 1-1.101-.566c-1.322-3.109-.886-8.438-.879-11.845ZM467.134 280.133l.902.36c1.292 2.297 1.216 10.268 1.338 13.269a4.14 4.14 0 0 1-1.46-.352c-.65-2.956-1.391-10.321-.78-13.277ZM493.092 278.441c.556.017 1.103.15 1.605.391.971 5.566.963 12.12 1.208 17.801-.449.1-.918.063-1.346-.107-1.009-1.991-1.253-14.923-1.467-18.085ZM480.006 278.732c.484.101.948.28 1.376.528.764 3.063.764 6.685.993 9.854.321 3.89.925 7.979.765 11.876a11.448 11.448 0 0 1-1.33-.322c-.627-1.485-2.003-19.517-1.804-21.936ZM453.298 281.726l1.032.268c.887 1.876 1.651 18.889 1.453 22.005a4.358 4.358 0 0 1-1.46-.628c-.558-2.703-1.491-19.233-1.025-21.645ZM403.109 334.105c12.338-.115 24.682-.169 37.027 0 .696 8.376 1.246 16.798 2.293 25.129 7.85 1.141 15.54 3.721 23.383 5.03-.597-10.038-1.621-20.053-2.293-30.098 5.702-.207 11.465-.061 17.152-.054 7.254 0 14.524-.068 21.778.123.687 13.973 1.865 27.939 2.828 41.897l5.404 77.853c.764 10.275 1.903 20.726 2.049 31.024-20.195-4.793-40.513-9.103-60.8-13.636l-23.955-5.36c-4.953-1.102-9.937-2.297-14.913-3.185-2.714-27.617-4.732-55.296-6.826-82.975l-2.209-29.447c-.321-5.429-.879-10.88-.918-16.301Z" fill="#022F45"/><path d="m613.742 326.05 2.385-.222c-.252 9.716-1.338 19.509-2.018 29.218l-4.877 67.064c-.817 11.263-1.956 22.618-2.377 33.904-7.644 2.059-15.219 4.762-22.786 7.128-23.092 7.228-46.1 15.053-69.337 21.783-.543-12.335-1.781-24.723-2.614-37.05l-4.893-69.377c-1.039-14.793-2.407-29.616-3.057-44.409 8.217-.176 16.816-.627 24.965-1.531 2.53-.291 4.983-1.026 7.521-1.279 5.466-.551 11.03-.765 16.511-1.018 1.33 10.673 1.628 21.615 2.515 32.357 7.292-1.899 14.324-4.808 21.632-6.722.634-9.097 1.605-18.246 2.614-27.312 11.221-.375 22.603-1.569 33.816-2.534Z" fill="#FEB703"/><path d="m597.805 425.877.856-.122.313.252c.619 4.64-.764 15.038-.887 20.42-10.365 2.527-20.432 6.463-30.82 8.775-.496-7.327-.97-14.662-1.643-21.982 10.778-2.152 21.433-5.015 32.181-7.343Z" fill="#022F45"/><path d="M596.514 427.814c.397-.107.145-.069.764 0 .642 2.397-.65 13.905-.833 17.343-9.249 2.113-18.46 5.267-27.564 7.932-.596-6.187-1.001-12.389-1.452-18.591 9.669-2.258 19.354-4.647 29.085-6.684Z" fill="#FEFEFE"/><path d="M328.078 221.82c2.384.888 4.739 1.731 7.192 2.404-1.345 6.562-1.528 13.4-2.981 19.908-.764 3.675-2.377 7.304-3.478 10.918-10.701 35.335-8.11 73.994 9.333 106.741a45.21 45.21 0 0 1-9.7 8.89c-36.782 24.891-131.802 6.952-174.715-1.478l1.376-1.953a260.226 260.226 0 0 0 27.702-55.127c1.888-5.199 3.822-10.459 5.205-15.819 30.766 2.894 62.748-6.125 92.07-14.548-2.293 5.567-8.339 15.092-6.337 20.934a9.987 9.987 0 0 0 5.29 5.796 9.604 9.604 0 0 0 11.657-2.864c2.858-3.69 8.584-18.422 10.861-23.644 2.485 0 5.068-.114 7.384-1.14 4.892-2.152 1.483-5.758 2.24-6.815.52-.765 3.654-1.669 4.586-2.971 1.491-2.075.276-5.773.765-6.324 1.116-1.34 2.782-2.029 3.409-3.828 2.4-6.769-1.078-5.153-2.821-9.02.887-1.791.444-3.698.253-5.62 3.653-8.062 7.2-16.27 10.709-24.44Z" fill="#FEB703"/></g><defs><clipPath id="a"><path fill="#fff" transform="translate(145)" d="M0 0h473v487H0z"/></clipPath></defs></svg>