<svg width="600" height="434" fill="none" xmlns="http://www.w3.org/2000/svg"><rect y="31.93" width="286.247" height="350.883" rx="30" transform="rotate(-6.405 0 31.93)" fill="#FEB703"/><rect x="323.506" y="20.314" width="286.247" height="350.883" rx="30" transform="rotate(15 323.506 20.314)" fill="#022F45"/><path d="m264.508 216.525-22.67 46.848-.58-.289-8.493-4.291-8.063-4.083-.514-.272-25.889-13.118-27.297-13.833-29.496 25.21-.387.31-.601.513-3.57 3.052 3.85 11.877a4.68 4.68 0 0 1-.059 3.179 4.672 4.672 0 0 1-2.084 2.4 5.03 5.03 0 0 1-1.904.636 4.624 4.624 0 0 1-2.197-.286 4.612 4.612 0 0 1-1.811-1.284l-34.132-38.051 14.649-10.305.202-.139.85-.58 41.412-29.117c.174-1.207.353-2.414.528-3.615.026-.197.052-.399.088-.596l-38.738 4.357-3.257-28.958-7.954.895 6.017-18.117-.048-.426.201-.022-.004-.029 31.995-3.599c-8.747-5.997-13.014-14.736-14.858-19.76-1.574-4.222-4.815-15.644 1.058-26.55a30.817 30.817 0 0 1 4.517-6.385l-.005-.048.043-.005a26.031 26.031 0 0 1 7.63-5.703 27.54 27.54 0 0 1 8.486-2.49c11.2-1.356 20.562 5.07 24.414 8.222l12.27-8.932a1.215 1.215 0 0 1 .896-.212c.152.024.298.078.43.16a1.167 1.167 0 0 1 .532.73 1.205 1.205 0 0 1-.14.911 1.227 1.227 0 0 1-.31.34l-11.795 8.594a23.257 23.257 0 0 1 6.009 8.64 23.644 23.644 0 0 1 1.656 9.217c2.538-1.633 5.261-2.138 7.452-1.178a5.9 5.9 0 0 1 3.209 3.515c1.272 3.815-1.872 8.931-7.495 12.334.201 1.789.672 7.739-1.228 13.494-.076.227-.159.44-.244.677l26.177-1.932.054.479 9.737 15.003-8.025.902 3.259 28.982-30.024 3.377 2.062 2.19a23.813 23.813 0 0 0 6.478 4.847l43.465 22.212.627.322.514.257 5.014 2.56 9.133-9.228a5.509 5.509 0 0 1 7.104-.611 5.523 5.523 0 0 1 2.153 3.125 5.502 5.502 0 0 1-.375 3.777l.076-.1Z" fill="#fff"/><path d="m242.452 265.189-1.777-.905-8.685-4.401-7.878-3.997-.514-.262-35.35-17.916-17.04-8.635-30.091 25.742-2.576 2.198 3.579 11.021a5.979 5.979 0 0 1-.074 4.078 5.96 5.96 0 0 1-2.676 3.081 6.368 6.368 0 0 1-2.428.797 5.897 5.897 0 0 1-2.826-.365c-.9-.348-1.7-.912-2.33-1.642L96.638 234.82l57.896-40.704.271-1.896-38.355 4.314-3.257-28.957-8.7.978 6.578-19.841-.165-1.474.746-.083-.004-.029 29.446-3.312c-7.316-6.1-11.005-13.925-12.62-18.336l-.468-1.275.029-.003c-1.725-5.222-4.006-15.982 1.586-26.373a32.464 32.464 0 0 1 4.455-6.377l.191-.884.584.065a27.574 27.574 0 0 1 7.561-5.501 29.041 29.041 0 0 1 8.936-2.623l.22-.025c10.962-1.233 20.205 4.65 24.379 7.916l11.433-8.32c.268-.195.572-.335.893-.415a2.521 2.521 0 0 1 1.889.301c.282.174.528.402.724.67.194.267.335.57.415.892.078.324.091.66.039.989-.052.327-.166.64-.337.925-.173.283-.401.529-.669.724L179.836 93.8a24.36 24.36 0 0 1 5.156 7.955 24.944 24.944 0 0 1 1.689 7.518c2.363-.988 4.722-1.073 6.684-.204a7.3 7.3 0 0 1 3.954 4.322c1.419 4.264-1.591 9.708-7.354 13.457a35.95 35.95 0 0 1-1.002 11.981l25.455-1.894.162 1.435 10.771 16.578-8.748.984 3.26 28.981-28.695 3.227.225.237a22.43 22.43 0 0 0 6.103 4.574l44.6 22.787 4.137 2.116 8.46-8.533a6.703 6.703 0 0 1 4.271-2.057 6.705 6.705 0 0 1 4.563 1.286 6.703 6.703 0 0 1 2.226 8.596l-23.301 48.043Zm-71.659-39.329.795.395 17.846 9.038 35.868 18.178 7.889 3.996 8.032 4.072 22.071-45.628a4.168 4.168 0 0 0-1.338-5.227 4.167 4.167 0 0 0-5.371.474l-9.849 9.915-7.018-3.571-43.465-22.212a25.027 25.027 0 0 1-6.844-5.13l-3.908-4.178 31.359-3.527-3.259-28.976 7.116-.8-8.382-12.908-27.234 2.007.764-2.082c.059-.161.122-.333.175-.504 1.828-5.535 1.36-11.295 1.176-12.926l-.097-.866.74-.442c5.066-3.05 7.977-7.573 6.916-10.758a4.553 4.553 0 0 0-2.473-2.701c-1.71-.776-3.963-.358-6.176 1.073l-2.132 1.368.056-2.52a22.287 22.287 0 0 0-1.554-8.691 21.928 21.928 0 0 0-5.676-8.14l-.973-.86-.029.004-.811-.665c-3.405-2.8-12.459-9.16-23.172-7.954l-.196.022a26.127 26.127 0 0 0-8.055 2.36 24.913 24.913 0 0 0-7.248 5.402l-.172.194a29.701 29.701 0 0 0-4.171 5.972c-5.584 10.375-2.544 21.263-.979 25.442l.451 1.209c1.926 4.817 6.021 12.548 13.896 17.931l2.986 2.048-34.74 3.907-5.263 15.77 7.198-.81 3.256 28.953 39.173-4.406-.262 1.754c-.03.163-.05.33-.076.493l-.18 1.236c-.121.818-.247 1.641-.363 2.463l-.08.576-.476.335-42.452 29.854-13.42 9.435 33.124 36.924c.343.411.783.728 1.281.922.498.2 1.039.271 1.573.206a3.551 3.551 0 0 0 1.401-.458 3.29 3.29 0 0 0 1.537-3.99l-4.134-12.732 5.217-4.462 30.132-25.804Z" fill="#fff"/><path d="m243.584 268.486-4.004-2.016-8.694-4.404c-2.625-1.32-5.251-2.65-7.879-3.992l-.514-.267-36.859-18.682-14.092-7.135-29.424 25.168-.764.653 3.074 9.464a8.392 8.392 0 0 1-3.855 10.031 8.753 8.753 0 0 1-3.377 1.111 8.423 8.423 0 0 1-3.972-.522 8.39 8.39 0 0 1-3.279-2.291l-36.99-41.233 55.491-39.023-34.186 3.845-3.256-28.953-10.072 1.133 7.617-22.962-.377-3.349 1.731-.195-.002-.024 25.682-2.888a47.974 47.974 0 0 1-9.446-15.646l-1.323-3.63.168-.058c-1.667-6.202-2.834-16.196 2.442-25.989a34.912 34.912 0 0 1 4.355-6.366l.514-2.407 1.622.17a29.635 29.635 0 0 1 7.394-5.138 31.44 31.44 0 0 1 9.694-2.858l.248-.028c10.57-1.189 19.532 3.617 24.668 7.292l9.983-7.26a4.999 4.999 0 0 1 1.768-.858 5.003 5.003 0 0 1 1.964-.105c.654.095 1.283.32 1.847.665.57.341 1.064.795 1.453 1.333.39.535.667 1.143.816 1.788a4.964 4.964 0 0 1-2.013 5.221l-8.327 6.057a26.925 26.925 0 0 1 5.359 11.993 10.108 10.108 0 0 1 5.601.668 9.788 9.788 0 0 1 5.291 5.795c1.673 5.01-1.174 11.086-7.144 15.453a39.638 39.638 0 0 1-.447 8.078l24.565-1.794.36 3.196 12.591 19.415-10.278 1.156 3.26 28.981-25.443 2.862c.484.299.975.578 1.489.835l44.601 22.796 2.544 1.303 7.202-7.268c3.813-3.82 8.862-3.24 11.99-1.048a9.148 9.148 0 0 1 2.992 11.663l-24.359 50.264Zm-139.293-32.803 31.285 34.869a.81.81 0 0 0 .759.337c.153-.019.3-.067.434-.141a.855.855 0 0 0 .431-.475.847.847 0 0 0-.009-.643l-4.639-14.288 6.469-5.524 31.411-26.873 2.26 1.141 17.822 9.045 35.868 18.173 7.027 3.57 6.676 3.382 20.997-43.376c.178-.365.217-.782.11-1.175a1.693 1.693 0 0 0-.671-.975 1.72 1.72 0 0 0-2.217.186l-11.099 11.199-8.612-4.399-43.466-22.216a27.573 27.573 0 0 1-7.509-5.618l-7.258-7.739 33.784-3.8-3.259-28.976 5.614-.632-5.459-8.411-29.569 2.177 2.077-5.688c.049-.127.098-.249.137-.379 1.675-5.081 1.251-10.401 1.082-11.908l-.273-2.426 2.091-1.257c4.364-2.622 6.439-6.135 5.85-7.886a2.12 2.12 0 0 0-1.127-1.234c-.919-.381-2.428-.057-3.89.893l-5.998 3.857.165-7.15a19.768 19.768 0 0 0-1.387-7.726 19.449 19.449 0 0 0-5.042-7.232l-.306-.271-1.415-1.168c-3.153-2.581-11.554-8.516-21.354-7.413l-.181.02a23.72 23.72 0 0 0-7.268 2.13 22.676 22.676 0 0 0-6.536 4.877l-.172.194a26.96 26.96 0 0 0-3.822 5.463c-5.116 9.499-2.295 19.559-.841 23.436l.431 1.162c1.64 4.079 5.505 11.657 12.999 16.797l8.397 5.77-39.694 4.465-3.546 10.678 5.835-.656 3.259 28.977 39.929-4.491-.772 4.931-.065.453-.185 1.246-.357 2.463-.239 1.621-1.347.941-53.615 37.693Zm73.37-143.616.118.103 11.066-8.051c.009.001.017 0 .024-.003a.04.04 0 0 0-.003-.029.07.07 0 0 0-.003-.028l-.003-.029-.003-.024-.029.003c-.004-.001-.009-.002-.014-.001a.03.03 0 0 0-.014.005c-.005-.002-.01-.003-.015-.002a.033.033 0 0 0-.014.005l-11.11 8.051Z" fill="#fff"/><path d="M171.538 151.476a34.52 34.52 0 0 1-3.977.205 43.733 43.733 0 0 1-19.543-4.836c-11.115-5.862-16.246-16.214-18.314-21.853l1.321-.488c2.004 5.458 6.954 15.457 17.647 21.095 11.023 5.813 27.854 6.9 34.373-.843.484-.576.912-1.197 1.278-1.854a19.46 19.46 0 0 0 1.676-3.745c2.042-6.178 1.216-12.611 1.117-13.326l-.054-.479.39-.233c5.304-3.047 8.341-7.652 7.267-10.913a4.542 4.542 0 0 0-2.44-2.661c-2.944-1.287-7.173.807-10.095 4.972l-1.156-.805c3.284-4.729 8.249-7.007 11.804-5.455a5.947 5.947 0 0 1 3.209 3.515c1.267 3.815-1.872 8.93-7.5 12.334.202 1.79.673 7.744-1.228 13.495a20.471 20.471 0 0 1-1.783 3.998 12.892 12.892 0 0 1-1.448 2.067c-2.668 3.187-7.049 5.192-12.544 5.81Z" fill="#022F45"/><path d="M178.284 133.233a9.845 9.845 0 0 1-7.174 4.295 10.268 10.268 0 0 1-7.096-1.818 9.005 9.005 0 0 1-3.244-4.049c2.748 2.051 5.664 3.476 9.051 3.619 2.957.151 5.788-.768 8.463-2.047Z" fill="#022F45"/><path d="M160.493 137.574c-1.736-1.481-1.823-4.407-.489-6.243 1.334-1.836 4.039-2.843 6.049-1.722-.971.123-1.91.43-2.765.907-2.523 1.383-3.462 4.275-2.795 7.058ZM175.915 109.66c1.486 3.055-.714 6.998-4.01 7.752-3.255.899-7.071-1.506-7.285-4.834 1.778 2.028 4.231 3.172 6.726 2.581 2.496-.591 4.046-2.872 4.569-5.499ZM167.356 107.454c.767-3.899 6.309-5.176 8.628-1.91-.78-.229-1.58-.379-2.39-.448-2.382-.212-4.436.813-6.238 2.358ZM130.31 126.562l-.341-.834c-1.397-3.462-5.481-15.661.772-27.279 2.984-5.548 7.088-9.629 12.195-12.14a27.514 27.514 0 0 1 8.481-2.495c11.553-1.397 21.171 5.486 24.746 8.514l.69.581-46.543 33.653Zm21.498-41.378-.229.026a26.06 26.06 0 0 0-8.036 2.357c-4.847 2.381-8.744 6.269-11.579 11.544-5.557 10.275-2.56 21.119-1.035 25.249l43.618-31.55c-3.85-3.094-12.506-8.796-22.736-7.645l-.003.02Z" fill="#022F45"/><path d="M164.453 101.754a38.987 38.987 0 0 0-22.017-13.743l.329-1.374a40.432 40.432 0 0 1 22.807 14.216l-1.119.901ZM141.521 118.058a41.415 41.415 0 0 1-6.221-26.076l1.399.129a40.027 40.027 0 0 0 6.011 25.193l-1.189.754ZM185.305 112.746l-1.397-.11a21.897 21.897 0 0 0-8.941-19.467l.841-1.136a23.36 23.36 0 0 1 7.457 9.117 23.306 23.306 0 0 1 2.04 11.596ZM143.249 116.565c3.688-.531 6.916 2.289 7.012 5.597.085 3.037-2.483 5.865-5.883 5.99.437.397 2.667 2.486 2.713 5.736.049 3.153-1.965 6.127-5.106 7.526a63.768 63.768 0 0 1-5.128-5.372c-2.589-3.042-2.865-3.951-2.803-4.776.127-1.623 1.484-1.703 3.451-4.409 1.68-2.287 1.359-3.157 3.492-6.846a38.747 38.747 0 0 1 2.252-3.446Z" fill="#022F45"/><path d="m140.056 138.269-9.081-10.852-.516-1.923 10.373-7.373 1.303 3.84-2.079 16.308Z" fill="#022F45"/><path d="m263.937 216.246-22.401 46.269-16.558-8.393 15.66-36.922 5.951 3.046 9.482-9.564c3.888-3.925 10.267.604 7.866 5.564Z" fill="#FEB703"/><path d="m241.834 263.373-.575-.294-8.493-4.286-8.062-4.083-.515-.272 16.167-38.094 6.141 3.142 9.132-9.234a5.538 5.538 0 0 1 3.44-1.617c1.301-.112 2.6.24 3.667.992a5.51 5.51 0 0 1 2.156 3.149 5.508 5.508 0 0 1-.379 3.777l-22.679 46.82Zm-16.034-9.547 7.534 3.818 7.92 4.012 22.121-45.701a4.239 4.239 0 0 0-1.368-5.316 4.262 4.262 0 0 0-2.818-.768 4.284 4.284 0 0 0-2.65 1.238l-9.794 9.894-5.755-2.942-15.19 35.765Z" fill="#022F45"/><path d="M140.196 268.648c1.374 4.205-4.018 7.331-6.977 4.016l-33.66-37.519 14.666-10.316 26.337 27.824-4.352 3.721 3.986 12.274Z" fill="#FEB703"/><path d="M136.75 274.654a4.586 4.586 0 0 1-4.008-1.569l-34.131-38.047 15.708-11.048 27.173 28.709-4.544 3.868 3.854 11.871a4.66 4.66 0 0 1-2.143 5.58 4.907 4.907 0 0 1-1.909.636Zm-36.246-39.402 33.182 36.961a3.495 3.495 0 0 0 2.063 1.125 3.477 3.477 0 0 0 3.807-2.192 3.46 3.46 0 0 0 .058-2.332l-4.123-12.674 4.171-3.565-25.502-26.945-13.656 9.622Z" fill="#022F45"/><path d="m225.287 254.993-.606-.305-26.418-13.388-27.301-13.832-30.457 26.054-27.255-28.792 42.472-29.852c.187-1.209.363-2.414.528-3.615.193-1.339.392-2.674.584-4.019l.071-.492.478-.054 13.254-1.689 13.74-1.759.326-.036 5.677 6.042a23.98 23.98 0 0 0 6.479 4.857l44.6 22.786-16.172 38.094Zm-54.505-29.036.375.191 27.676 14.022 25.798 13.085 15.172-35.758-43.545-22.232a25.011 25.011 0 0 1-6.808-5.11l-5.242-5.568-13.416 1.708-12.782 1.631-.521 3.547-.567 3.876-.037.266-41.707 29.335 25.419 26.852 30.185-25.845Z" fill="#022F45"/><path d="M170.549 227.253c-3.698-2.302-10.376-7.553-13.565-16.83a31.874 31.874 0 0 1-1.298-15.289l1.247.199a30.624 30.624 0 0 0 1.235 14.68c3.065 8.909 9.483 13.952 13.033 16.154l-.652 1.086Z" fill="#022F45"/><path d="m179.793 141.454-66.754 7.508 5.102 45.361 66.754-7.508-5.102-45.361Z" fill="#FEB703"/><path d="m185.594 187.371-68.017 7.65-5.243-46.62 68.017-7.65 5.243 46.62Zm-66.899 6.265 65.521-7.369-4.962-44.113-65.52 7.369 4.961 44.113Z" fill="#022F45"/><path d="m179.803 141.458 32.887-2.425 4.96 44.099-32.746 3.683-5.101-45.357Z" fill="#FEB703"/><path d="m218.345 183.688-34.003 3.825-5.246-46.644 34.151-2.513 5.098 45.332Zm-32.885 2.44 31.478-3.541-4.823-42.879-31.614 2.331 4.959 44.089Z" fill="#022F45"/><path d="m113.041 148.967-5.715 17.225 66.73-7.505 5.744-17.229-66.759 7.509Z" fill="#FEB703"/><path d="m174.547 159.295-68.179 7.668 6.173-18.618 68.203-7.671-6.197 18.621Zm-66.289 6.129 65.281-7.343 5.283-15.854-65.291 7.343-5.273 15.854Z" fill="#022F45"/><path d="m212.69 139.033-32.887 2.425 9.398 15.526 32.746-3.683-9.257-14.268Z" fill="#FEB703"/><path d="m223.035 153.812-34.166 3.843-10.146-16.754 34.294-2.53 10.018 15.441Zm-33.507 2.509 31.33-3.523-8.495-13.094-31.485 2.32 8.65 14.297ZM188.101 83.102 136.536 120.6a1.185 1.185 0 0 0-.433.761c-.04.3.036.603.212.848.18.244.444.411.741.469.297.053.603-.009.857-.174l51.569-37.492c.251-.186.418-.462.466-.77a1.151 1.151 0 0 0-.21-.877 1.18 1.18 0 0 0-.765-.471 1.183 1.183 0 0 0-.877.21h.005Z" fill="#022F45"/><path d="m494.356 291.033-38.211 35.335-.435-.48-6.339-7.097-6.015-6.745-.38-.441-19.311-21.666-20.361-22.845-36.665 12.698-.473.148-.747.258-4.438 1.537-.753 12.463a4.678 4.678 0 0 1-1.216 2.939 4.673 4.673 0 0 1-2.816 1.473c-.669.1-1.35.065-2.005-.104a4.63 4.63 0 0 1-1.941-1.068 4.632 4.632 0 0 1-1.217-1.856l-17.88-47.888 17.4-4.244.239-.055 1.003-.23 49.184-11.985c.603-1.059 1.211-2.118 1.812-3.173.097-.173.194-.351.3-.522l-37.654-10.09 7.541-28.147-7.73-2.071 12.216-14.669.111-.414.195.052.008-.028 31.099 8.334c-5.954-8.778-6.734-18.471-6.616-23.822.076-4.505 1.23-16.322 10.68-24.331a30.84 30.84 0 0 1 6.536-4.294l.013-.047.042.012a26.035 26.035 0 0 1 9.186-2.523 27.542 27.542 0 0 1 8.809.781c10.921 2.826 17.291 12.228 19.725 16.569l14.684-3.836a1.214 1.214 0 0 1 .912.13c.133.079.249.182.342.306a1.147 1.147 0 0 1 .229.874 1.177 1.177 0 0 1-.463.798 1.234 1.234 0 0 1-.413.203l-14.118 3.693a23.246 23.246 0 0 1 2.438 10.237 23.644 23.644 0 0 1-1.823 9.186c2.959-.593 5.678-.069 7.367 1.625a5.89 5.89 0 0 1 1.704 4.444c-.209 4.015-5.004 7.63-11.481 8.745-.466 1.739-2.2 7.45-6.071 12.114-.154.183-.308.351-.474.541l25.075 7.76-.125.465 3.586 17.523-7.8-2.09-7.549 28.17-29.184-7.82 1.12 2.792a23.816 23.816 0 0 0 4.261 6.878l32.353 36.55.466.528.384.427 3.733 4.215 11.872-5.257a5.52 5.52 0 0 1 5.972 9.101l.107-.066Z" fill="#fff"/><path d="m456.049 328.282-1.324-1.492-6.478-7.268-5.875-6.598-.383-.431-26.366-29.587-12.711-14.261-37.412 12.976-3.201 1.106-.693 11.567a5.971 5.971 0 0 1-5.174 5.661 6.387 6.387 0 0 1-2.552-.146 5.89 5.89 0 0 1-2.497-1.372 5.89 5.89 0 0 1-1.57-2.379l-18.42-49.293 68.762-16.752.945-1.666-37.283-9.989 7.542-28.147-8.456-2.266 13.369-16.07.384-1.432.725.194.008-.027 28.621 7.669c-4.583-8.35-5.16-16.983-5.052-21.679l.029-1.357.028.007c.301-5.491 2.107-16.341 11.107-23.972a32.484 32.484 0 0 1 6.476-4.31l.501-.753.52.274a27.549 27.549 0 0 1 9.047-2.361c3.117-.227 6.249.05 9.277.821l.214.058c10.654 2.855 17.111 11.707 19.805 16.271l13.681-3.571c.321-.083.655-.103.983-.06.321.049.63.157.911.319.286.166.537.387.738.651.198.265.344.567.429.887.083.321.104.655.061.984a2.533 2.533 0 0 1-.325.934 2.584 2.584 0 0 1-.651.738c-.265.2-.567.346-.888.43l-12.561 3.273a24.351 24.351 0 0 1 1.896 9.289 24.906 24.906 0 0 1-1.174 7.615c2.561-.056 4.788.725 6.298 2.251a7.302 7.302 0 0 1 2.102 5.468c-.235 4.487-5.026 8.456-11.76 9.841a35.956 35.956 0 0 1-5.307 10.789l24.389 7.532-.374 1.395 3.974 19.366-8.503-2.279-7.548 28.171-27.892-7.474.123.302a22.43 22.43 0 0 0 4.012 6.488l33.199 37.498 3.079 3.482 10.991-4.855a6.697 6.697 0 0 1 8.506 2.508 6.7 6.7 0 0 1-1.067 8.815l-39.235 36.217Zm-52.349-62.78.596.658 13.313 14.93 26.754 30.02 5.884 6.601 5.991 6.724 37.208-34.417a4.168 4.168 0 0 0-1.644-7.065 4.174 4.174 0 0 0-2.866.189l-12.79 5.634-5.229-5.886-32.353-36.55a25.05 25.05 0 0 1-4.498-7.275l-2.113-5.316 30.482 8.167 7.547-28.165 6.917 1.853-3.09-15.077-26.086-8.076 1.471-1.659c.114-.129.235-.266.347-.406 3.723-4.484 5.39-10.018 5.815-11.604l.226-.842.85-.141c5.83-.989 10.191-4.137 10.367-7.489a4.58 4.58 0 0 0-1.317-3.418c-1.308-1.347-3.558-1.781-6.14-1.256l-2.484.495.972-2.326a22.3 22.3 0 0 0 1.727-8.658 21.95 21.95 0 0 0-2.312-9.65l-.593-1.156-.027-.007-.513-.915c-2.147-3.85-8.254-13.077-18.667-15.867l-.191-.051a26.127 26.127 0 0 0-8.36-.745 24.922 24.922 0 0 0-8.72 2.383l-.231.118a29.695 29.695 0 0 0-6.064 4.037c-8.987 7.619-10.132 18.865-10.202 23.327l-.022 1.29c.035 5.188 1.024 13.881 6.39 21.768l2.032 2.996-33.768-9.048-10.658 12.759 6.996 1.875-7.541 28.142 38.077 10.203-.885 1.537c-.087.141-.167.289-.25.431l-.619 1.085c-.412.717-.829 1.438-1.237 2.161l-.285.507-.565.137-50.423 12.292-15.938 3.883 17.354 46.47c.169.507.463.963.855 1.325.391.369.869.632 1.389.766.48.131.981.161 1.472.086a3.29 3.29 0 0 0 2.888-3.154l.8-13.362 6.487-2.249 37.474-13.019Z" fill="#fff"/><path d="m455.902 331.765-2.992-3.338-6.486-7.275c-1.961-2.187-3.92-4.385-5.876-6.594l-.381-.436-27.493-30.851-10.513-11.788-36.582 12.686-.95.328-.594 9.934a8.386 8.386 0 0 1-7.252 7.93 8.726 8.726 0 0 1-3.549-.199 8.42 8.42 0 0 1-3.507-1.936 8.404 8.404 0 0 1-2.217-3.33l-19.378-51.892 65.908-16.067-33.229-8.903 7.541-28.143-9.79-2.623 15.475-18.595.873-3.255 1.682.451.007-.023 24.963 6.689a47.95 47.95 0 0 1-3.08-18.015l.093-3.863.178.008c.713-6.383 3.275-16.113 11.764-23.303a34.849 34.849 0 0 1 6.379-4.336l1.357-2.054 1.448.752a29.636 29.636 0 0 1 8.759-2.084 31.46 31.46 0 0 1 10.068.879l.242.065c10.274 2.753 16.862 10.499 20.301 15.796l11.945-3.114a5.005 5.005 0 0 1 1.959-.153 5 5 0 0 1 1.867.62 4.897 4.897 0 0 1 1.477 1.293c.405.526.7 1.129.866 1.772a4.982 4.982 0 0 1-.554 3.814 5.041 5.041 0 0 1-1.331 1.452 5.002 5.002 0 0 1-1.789.822l-9.964 2.598a26.92 26.92 0 0 1 .61 13.122c1.876.399 3.6 1.324 4.97 2.667a9.754 9.754 0 0 1 2.172 3.368 9.793 9.793 0 0 1 .638 3.959c-.272 5.275-5.142 9.891-12.294 11.777a39.617 39.617 0 0 1-3.366 7.357l23.524 7.3-.832 3.106 4.632 22.672-9.99-2.677-7.548 28.171-24.731-6.627c.341.455.697.894 1.081 1.321l33.197 37.508 1.893 2.142 9.359-4.136c4.944-2.164 9.432.22 11.544 3.403a9.147 9.147 0 0 1-1.473 11.95l-41.031 37.898Zm-117.697-81.401 16.392 43.885a.804.804 0 0 0 .213.376c.102.105.23.179.371.214.149.039.304.048.456.028a.854.854 0 0 0 .575-.285.847.847 0 0 0 .226-.602l.899-14.995 8.039-2.78 39.055-13.548 1.687 1.887 13.289 14.929 26.754 30.016 5.238 5.889 4.981 5.586 35.386-32.713c.299-.275.487-.65.532-1.053a1.723 1.723 0 0 0-2.401-1.79l-14.422 6.373-6.411-7.24-32.352-36.554a27.548 27.548 0 0 1-4.939-7.972l-3.931-9.855 32.838 8.799 7.547-28.166 5.458 1.463-2.012-9.824-28.321-8.771 4.01-4.537c.092-.1.182-.195.266-.302 3.415-4.119 4.963-9.226 5.356-10.691l.631-2.358 2.406-.407c5.021-.848 8.235-3.36 8.326-5.205a2.137 2.137 0 0 0-.598-1.561c-.717-.69-2.24-.939-3.948-.589l-6.992 1.401 2.764-6.596a19.735 19.735 0 0 0 1.529-7.699 19.427 19.427 0 0 0-2.052-8.574l-.186-.364-.891-1.604c-1.992-3.554-7.647-12.147-17.172-14.699l-.176-.047a23.723 23.723 0 0 0-7.544-.671 22.68 22.68 0 0 0-7.866 2.154l-.231.117a26.92 26.92 0 0 0-5.552 3.691c-8.232 6.975-9.279 17.37-9.341 21.51l-.024 1.239c.038 4.396.869 12.862 5.968 20.384l5.711 8.438-38.584-10.339-7.2 8.647 5.672 1.52-7.547 28.165 38.812 10.4-2.52 4.309-.226.398-.627 1.093-1.232 2.162-.814 1.421-1.598.384-63.677 15.513Zm120.746-106.907.073.139 13.242-3.455a.048.048 0 0 0 .023.007.048.048 0 0 0 .008-.028.068.068 0 0 0 .007-.028l.007-.028.007-.023-.028-.008a.054.054 0 0 0-.013-.007.038.038 0 0 0-.015 0c-.004-.003-.008-.006-.013-.007a.038.038 0 0 0-.015-.001l-13.283 3.439Z" fill="#fff"/><path d="M431.559 196.528a34.16 34.16 0 0 1-3.778-1.262 43.733 43.733 0 0 1-16.427-11.638c-8.208-9.516-9.204-21.027-9.07-27.031l1.407.028c-.127 5.812.83 16.929 8.726 26.082 8.139 9.437 23.411 16.594 32.308 11.766.66-.359 1.286-.781 1.866-1.259a19.408 19.408 0 0 0 2.928-2.874c4.157-5.006 5.737-11.296 5.906-11.998l.124-.465.449-.075c6.05-.9 10.559-4.078 10.75-7.506a4.545 4.545 0 0 0-1.3-3.368c-2.27-2.273-6.973-1.868-11.214.942l-.782-1.171c4.785-3.204 10.238-3.512 12.981-.768a5.948 5.948 0 0 1 1.704 4.444c-.214 4.014-5.004 7.63-11.486 8.744-.466 1.739-2.201 7.454-6.071 12.114a20.453 20.453 0 0 1-3.12 3.071c-.654.533-1.358 1-2.102 1.396-3.648 1.993-8.458 2.259-13.799.828Z" fill="#022F45"/><path d="M444.499 182.007a9.843 9.843 0 0 1-8.247 1.379 10.27 10.27 0 0 1-5.942-4.284 9.012 9.012 0 0 1-1.542-4.953c1.81 2.912 4.004 5.304 7.105 6.673 2.697 1.221 5.669 1.399 8.626 1.185Z" fill="#022F45"/><path d="M426.35 179.552c-1.075-2.013-.088-4.768 1.824-5.991 1.912-1.222 4.798-1.171 6.26.606a7.644 7.644 0 0 0-2.905-.165c-2.854.367-4.784 2.715-5.179 5.55ZM450.9 159.197c.269 3.387-3.22 6.255-6.564 5.753-3.358-.352-6.032-3.984-5.016-7.161.914 2.538 2.78 4.498 5.319 4.859 2.539.362 4.815-1.196 6.261-3.451ZM443.739 154.018c2.138-3.349 7.764-2.515 8.73 1.373a12.15 12.15 0 0 0-2.061-1.29c-2.14-1.067-4.427-.863-6.669-.083ZM402.275 158.278l-.013-.9c-.036-3.733.617-16.581 10.681-25.113 4.803-4.076 10.113-6.376 15.786-6.85a27.514 27.514 0 0 1 8.805.775c11.266 2.919 17.706 12.838 19.929 16.962l.43.793-55.618 14.333Zm35.123-30.669-.223-.06a26.038 26.038 0 0 0-8.341-.74c-5.382.447-10.429 2.643-14.995 6.518-8.925 7.537-10.095 18.726-10.183 23.128l52.126-13.444c-2.454-4.286-8.431-12.755-18.374-15.42l-.01.018Z" fill="#022F45"/><path d="M443.117 147.651a38.983 38.983 0 0 0-15.478-20.833l.808-1.159a40.425 40.425 0 0 1 16.041 21.562l-1.371.43ZM415.815 154.455a41.401 41.401 0 0 1 3.73-26.546l1.256.63a40.022 40.022 0 0 0-3.604 25.649l-1.382.267ZM458.518 165.499l-1.261-.612a21.912 21.912 0 0 0-1.214-21.388l1.197-.75a23.356 23.356 0 0 1 3.613 11.21 23.287 23.287 0 0 1-2.335 11.54ZM417.968 153.698c3.628.852 5.603 4.656 4.485 7.77-1.03 2.859-4.454 4.553-7.665 3.429.262.528 1.575 3.288.431 6.33-1.105 2.954-4.066 4.986-7.501 5.142a63.71 63.71 0 0 1-2.812-6.873c-1.3-3.778-1.225-4.725-.866-5.471.711-1.464 2.004-1.043 4.823-2.844 2.399-1.515 2.418-2.442 5.751-5.098a38.788 38.788 0 0 1 3.354-2.385Z" fill="#022F45"/><path d="m407.072 172.737-4.491-13.419.221-1.979 12.349-3.076-.189 4.051-7.89 14.423Z" fill="#022F45"/><path d="m493.923 290.564-37.75 34.895-12.349-13.86 28.061-28.654 4.428 5.009 12.319-5.441c5.053-2.235 9.338 4.311 5.291 8.051Z" fill="#FEB703"/><path d="m456.138 326.366-.428-.483-6.341-7.092-6.015-6.745-.38-.441 28.961-29.56 4.57 5.167 11.873-5.261a5.547 5.547 0 0 1 3.794-.25 5.544 5.544 0 0 1 3.05 2.263 5.51 5.51 0 0 1 .858 3.719 5.506 5.506 0 0 1-1.733 3.378l-38.209 35.305Zm-11.44-14.742 5.62 6.305 5.907 6.627 37.282-34.468a4.235 4.235 0 0 0 .667-5.448 4.262 4.262 0 0 0-2.342-1.744 4.28 4.28 0 0 0-2.92.185l-12.73 5.635-4.283-4.841-27.201 27.749Z" fill="#022F45"/><path d="M359.594 294.163c-.257 4.417-6.418 5.358-7.962 1.191l-17.636-47.219 17.421-4.248 14.358 35.52-5.41 1.875-.771 12.881Z" fill="#FEB703"/><path d="M354.193 298.497a4.586 4.586 0 0 1-3.158-2.925l-17.881-47.882 18.657-4.55 14.813 36.649-5.642 1.942-.747 12.459a4.662 4.662 0 0 1-4.033 4.412 4.916 4.916 0 0 1-2.009-.105Zm-19.355-49.917 17.394 46.526c.28.756.814 1.392 1.51 1.8a3.478 3.478 0 0 0 4.345-.65c.541-.591.861-1.35.905-2.15l.789-13.305 5.185-1.795-13.902-34.397-16.226 3.971Z" fill="#022F45"/><path d="m443.795 312.523-.452-.505-19.705-22.111-20.366-22.845-37.868 13.133-14.859-36.756 50.44-12.282a222.74 222.74 0 0 0 1.812-3.172c.669-1.177 1.341-2.347 2.011-3.528l.246-.433.465.125 12.955 3.267 13.434 3.38.316.085 3.079 7.698a23.935 23.935 0 0 0 4.258 6.887l33.2 37.499-28.966 29.558Zm-40.138-46.933.279.314 20.645 23.16 19.239 21.602L471 282.917l-32.42-36.597a25.043 25.043 0 0 1-4.471-7.244l-2.847-7.097-13.113-3.31-12.495-3.148-1.78 3.111-1.943 3.402-.132.233-49.539 12.08 13.859 34.28 37.538-13.037Z" fill="#022F45"/><path d="M402.965 266.71c-2.602-3.493-6.901-10.82-6.482-20.621a31.865 31.865 0 0 1 4.374-14.707l1.089.641a30.619 30.619 0 0 0-4.212 14.117c-.399 9.412 3.734 16.451 6.235 19.797l-1.004.773Z" fill="#022F45"/><path d="m442.904 190.212-64.886-17.387-11.815 44.093 64.886 17.386 11.815-44.092Z" fill="#FEB703"/><path d="m431.536 235.077-66.114-17.715 12.142-45.315 66.114 17.715-12.142 45.315Zm-64.567-18.597 63.687 17.065 11.489-42.878-63.687-17.065-11.489 42.878Z" fill="#022F45"/><path d="m442.91 190.219 31.502 9.752-11.485 42.864-31.83-8.528 11.813-44.088Z" fill="#FEB703"/><path d="m463.37 243.607-33.052-8.856 12.149-45.338 32.71 10.13-11.807 44.064Zm-31.505-9.737 30.598 8.198 11.167-41.679-30.282-9.375-11.483 42.856Z" fill="#022F45"/><path d="m378.017 172.831-11.61 13.949 64.863 17.38 11.638-13.942-64.891-17.387Z" fill="#FEB703"/><path d="m431.503 204.905-66.271-17.757 12.545-15.079 66.295 17.764-12.569 15.072Zm-63.95-18.5 63.455 17.002 10.707-12.83-63.464-17.005-10.698 12.833Z" fill="#022F45"/><path d="m474.412 199.971-31.502-9.752 3.08 17.886 31.83 8.528-3.408-16.662Z" fill="#FEB703"/><path d="m478.647 217.507-33.21-8.898-3.328-19.303 32.85 10.168 3.688 18.033Zm-32.109-9.899 30.453 8.16-3.127-15.292-30.158-9.336 2.832 16.468ZM471.944 138.924l-61.696 16.078a1.179 1.179 0 0 0-.793 1.417c.078.293.263.545.518.707.257.158.565.212.861.151l61.7-16.072c.3-.081.557-.277.714-.546a1.147 1.147 0 0 0 .125-.894 1.186 1.186 0 0 0-.54-.718 1.185 1.185 0 0 0-.894-.125l.005.002Z" fill="#022F45"/></svg>