<svg width="550" height="313" fill="none" xmlns="http://www.w3.org/2000/svg"><path fill-rule="evenodd" clip-rule="evenodd" d="M45.026 302.361c35.016 20.218 81.514 10.643 122.577-20.44 6.364 8.268 14.102 15.191 23.192 20.44 35.016 20.218 81.515 10.643 122.577-20.44 6.364 8.268 14.103 15.191 23.193 20.44 54.139 31.26 135.727-8.703 182.232-89.259 46.505-80.557 40.316-171.202-13.824-202.463C469.957-9.579 423.459-.004 382.397 31.08c-6.365-8.268-14.103-15.19-23.193-20.44C324.188-9.579 277.689-.004 236.627 31.08c-6.364-8.268-14.102-15.19-23.193-20.44C159.295-20.62 77.707 19.342 31.202 99.9-15.303 180.454-9.114 271.1 45.026 302.36Z" fill="#FEB703"/><mask id="a" fill="#fff"><path fill-rule="evenodd" clip-rule="evenodd" d="M66.778 288.908c31.787 18.354 73.998 9.661 111.274-18.556 5.777 7.507 12.802 13.791 21.055 18.556 31.786 18.354 73.996 9.662 111.271-18.554 5.777 7.506 12.801 13.79 21.053 18.554 49.146 28.378 123.209-7.899 165.425-81.026 42.216-73.127 36.598-155.413-12.548-183.79-31.787-18.354-73.997-9.662-111.272 18.554-5.777-7.506-12.801-13.79-21.053-18.554-31.787-18.354-73.998-9.661-111.273 18.556-5.778-7.507-12.803-13.791-21.055-18.556-49.146-28.378-123.21 7.9-165.425 81.026-42.216 73.127-36.598 155.413 12.548 183.79Z"/></mask><path d="m178.052 270.352.396-.304-.302-.394-.396.3.302.398ZM66.778 288.908l-.25.433.25-.433Zm132.329 0 .25-.433-.25.433Zm111.271-18.554.396-.305-.303-.393-.395.3.302.398Zm21.053 18.554-.25.433.25-.433Zm165.425-81.026.433.25-.433-.25Zm-12.548-183.79.25-.433-.25.433ZM373.036 42.646l-.396.305.303.393.395-.3-.302-.398Zm-21.053-18.554-.25.433.25-.433ZM240.71 42.648l-.396.305.302.393.396-.3-.302-.398Zm-21.055-18.556-.25.433.25-.433ZM54.23 105.118l-.433-.25.433.25Zm123.52 164.836a168.204 168.204 0 0 1-12.258 8.464l.531.848a169.252 169.252 0 0 0 12.331-8.515l-.604-.797Zm-38.908 21.611c-9.76 3.542-19.495 5.684-28.96 6.309l.066.998c9.57-.632 19.397-2.796 29.235-6.367l-.341-.94Zm-58.278 2.914a69.929 69.929 0 0 1-13.536-6.004l-.5.866a70.9 70.9 0 0 0 13.73 6.09l.306-.952Zm-13.536-6.004a69.796 69.796 0 0 1-10.274-7.238l-.646.763a70.798 70.798 0 0 0 10.42 7.341l.5-.866Zm-26.344-26.464c-4.141-6.982-7.393-14.766-9.74-23.173l-.964.269c2.37 8.483 5.653 16.349 9.844 23.414l.86-.51Zm-13.926-48.03c-.567-8.11-.451-16.557.355-25.228l-.995-.092c-.812 8.721-.929 17.223-.358 25.39l.997-.07Zm4.46-50.138a205.216 205.216 0 0 1 7.31-24.196l-.938-.347a206.232 206.232 0 0 0-7.345 24.314l.973.229Zm17.422-47.347a229.849 229.849 0 0 1 6.023-11.128l-.866-.5a230.696 230.696 0 0 0-6.05 11.177l.893.451Zm6.023-11.128c2.13-3.688 4.34-7.283 6.624-10.78l-.837-.547a230.949 230.949 0 0 0-6.653 10.827l.866.5Zm21.614-31.113a205.245 205.245 0 0 1 17.297-18.428l-.684-.729a206.245 206.245 0 0 0-17.382 18.518l.77.64Zm36.816-34.44c7.105-5.033 14.362-9.357 21.668-12.922l-.438-.898c-7.358 3.59-14.662 7.942-21.808 13.005l.578.816ZM158.38 18.09c8.454-2.17 16.82-3.246 24.937-3.15l.012-1c-8.213-.097-16.667.991-25.198 3.181l.249.969Zm49.621 1.156a69.793 69.793 0 0 1 11.404 5.279l.5-.866a70.809 70.809 0 0 0-11.567-5.355l-.337.942Zm11.404 5.279c2.038 1.176 4 2.446 5.886 3.804l.584-.811a70.606 70.606 0 0 0-5.97-3.86l-.5.867ZM235.784 37.6a75.03 75.03 0 0 1 4.53 5.353l.792-.61a76.322 76.322 0 0 0-4.59-5.425l-.732.682Zm5.228 5.446a167.902 167.902 0 0 1 12.258-8.464l-.531-.848a169.124 169.124 0 0 0-12.331 8.515l.604.797Zm38.908-21.61c9.759-3.543 19.494-5.685 28.96-6.31l-.066-.998c-9.57.632-19.397 2.796-29.235 6.367l.341.94Zm58.278-2.915a69.884 69.884 0 0 1 13.535 6.004l.5-.866a70.88 70.88 0 0 0-13.728-6.09l-.307.952Zm13.535 6.004a69.767 69.767 0 0 1 5.886 3.804l.584-.812a70.603 70.603 0 0 0-5.97-3.858l-.5.866Zm16.378 13.073a75.292 75.292 0 0 1 4.529 5.353l.793-.61a76.292 76.292 0 0 0-4.59-5.424l-.732.681Zm5.227 5.446a168.11 168.11 0 0 1 12.258-8.464l-.53-.847a168.9 168.9 0 0 0-12.331 8.514l.603.797Zm38.908-21.61c9.759-3.542 19.494-5.683 28.959-6.308l-.066-.998c-9.569.632-19.397 2.796-29.234 6.367l.341.94Zm58.276-2.913a69.898 69.898 0 0 1 13.536 6.004l.5-.866a70.895 70.895 0 0 0-13.729-6.09l-.307.952Zm13.536 6.004a69.884 69.884 0 0 1 10.274 7.238l.647-.763a70.845 70.845 0 0 0-10.421-7.341l-.5.866Zm26.344 26.464c4.141 6.982 7.393 14.766 9.74 23.173l.964-.27c-2.369-8.482-5.653-16.348-9.844-23.413l-.86.51Zm13.927 48.03c.566 8.11.45 16.558-.356 25.228l.995.093c.812-8.721.929-17.224.358-25.39l-.997.069Zm-4.461 50.139a205.303 205.303 0 0 1-7.31 24.195l.938.347a206.14 206.14 0 0 0 7.345-24.314l-.973-.228Zm-17.422 47.346a229.414 229.414 0 0 1-6.023 11.128l.866.5a230.087 230.087 0 0 0 6.049-11.177l-.892-.451Zm-6.023 11.128a229.991 229.991 0 0 1-6.624 10.78l.837.547a231.154 231.154 0 0 0 6.653-10.827l-.866-.5Zm-21.614 31.113a205.282 205.282 0 0 1-17.298 18.428l.685.729a206.283 206.283 0 0 0 17.382-18.518l-.769-.639Zm-36.816 34.439c-7.105 5.034-14.362 9.358-21.668 12.923l.438.899c7.358-3.59 14.662-7.942 21.808-13.006l-.578-.816Zm-45.287 21.726c-8.454 2.171-16.82 3.246-24.937 3.151l-.012 1c8.213.096 16.667-.992 25.198-3.182l-.249-.969Zm-49.621-1.156a69.734 69.734 0 0 1-11.404-5.279l-.5.866a70.86 70.86 0 0 0 11.567 5.355l.337-.942Zm-11.404-5.279a69.926 69.926 0 0 1-5.886-3.804l-.584.812a70.77 70.77 0 0 0 5.97 3.858l.5-.866Zm-16.378-13.073a75.146 75.146 0 0 1-4.529-5.353l-.793.61a76.14 76.14 0 0 0 4.59 5.424l.732-.681Zm-5.227-5.446a168.204 168.204 0 0 1-12.258 8.464l.531.847a168.905 168.905 0 0 0 12.33-8.514l-.603-.797Zm-38.908 21.609c-9.759 3.543-19.494 5.684-28.959 6.309l.066.998c9.569-.632 19.397-2.796 29.234-6.367l-.341-.94Zm-58.276 2.914a69.89 69.89 0 0 1-13.535-6.004l-.501.866a70.924 70.924 0 0 0 13.729 6.09l.307-.952Zm-13.535-6.004a69.604 69.604 0 0 1-5.886-3.804l-.585.811a70.853 70.853 0 0 0 5.97 3.859l.501-.866ZM182.978 275.4a75.102 75.102 0 0 1-4.53-5.352l-.792.609a75.856 75.856 0 0 0 4.59 5.425l.732-.682Zm-4.926-5.048.792-.609-.605-.787-.791.599.604.797ZM66.778 288.908l-.5.866.5-.866Zm132.329 0 .5-.866-.5.866Zm111.271-18.554.792-.61-.605-.786-.791.599.604.797Zm21.053 18.554-.5.866.5-.866Zm165.425-81.026.866.5-.866-.5Zm-12.548-183.79.5-.866-.5.866ZM373.036 42.646l-.792.61.605.786.791-.599-.604-.797Zm-21.053-18.554-.5.866.5-.866ZM240.71 42.648l-.793.61.605.786.791-.6-.603-.796Zm-21.055-18.556-.5.866.5-.866ZM54.23 105.118l-.866-.5.866.5Zm123.218 164.437a167.416 167.416 0 0 1-12.221 8.439l1.061 1.696c4.169-2.61 8.298-5.46 12.368-8.54l-1.208-1.595Zm-38.777 21.54c-9.72 3.528-19.409 5.659-28.822 6.28l.132 1.996c9.622-.635 19.496-2.811 29.373-6.396l-.683-1.88Zm-57.954 2.908a69.35 69.35 0 0 1-13.439-5.961l-1 1.732a71.416 71.416 0 0 0 13.826 6.133l.613-1.904Zm-13.439-5.961a69.295 69.295 0 0 1-10.2-7.186l-1.294 1.525a71.293 71.293 0 0 0 10.494 7.393l1-1.732Zm-26.164-26.286c-4.117-6.941-7.352-14.683-9.689-23.052l-1.926.538c2.38 8.521 5.68 16.428 9.895 23.534l1.72-1.02Zm-13.858-47.81c-.564-8.081-.45-16.501.355-25.146l-1.991-.186c-.814 8.747-.931 17.276-.359 25.472l1.995-.14Zm4.45-49.989a204.803 204.803 0 0 1 7.29-24.137l-1.875-.693a206.703 206.703 0 0 0-7.363 24.373l1.947.457Zm17.38-47.235a229.2 229.2 0 0 1 6.01-11.104l-1.732-1a231.344 231.344 0 0 0-6.063 11.201l1.785.903Zm6.01-11.104c2.125-3.68 4.33-7.267 6.61-10.756l-1.675-1.094a231.37 231.37 0 0 0-6.667 10.85l1.732 1Zm21.566-31.043A204.726 204.726 0 0 1 93.917 56.19l-1.37-1.457a206.734 206.734 0 0 0-17.423 18.563l1.538 1.278Zm36.72-34.351c7.084-5.02 14.318-9.33 21.599-12.881l-.877-1.798c-7.384 3.602-14.711 7.969-21.878 13.047l1.156 1.632Zm45.122-21.65c8.416-2.16 16.738-3.23 24.807-3.135l.024-2c-8.262-.097-16.759.998-25.328 3.198l.497 1.937Zm49.328 1.142a69.283 69.283 0 0 1 11.323 5.242l1-1.732a71.25 71.25 0 0 0-11.649-5.393l-.674 1.883Zm11.323 5.242a69.283 69.283 0 0 1 5.844 3.777l1.169-1.623a71.27 71.27 0 0 0-6.013-3.886l-1 1.732Zm16.263 12.982a74.37 74.37 0 0 1 4.499 5.318l1.585-1.22a76.66 76.66 0 0 0-4.62-5.46l-1.464 1.362Zm5.895 5.505a167.562 167.562 0 0 1 12.222-8.44l-1.061-1.695a169.758 169.758 0 0 0-12.368 8.54l1.207 1.595Zm38.777-21.54c9.721-3.528 19.41-5.659 28.823-6.28l-.132-1.996c-9.622.635-19.496 2.811-29.373 6.396l.682 1.88Zm57.954-2.908a69.39 69.39 0 0 1 13.439 5.96l1-1.731a71.389 71.389 0 0 0-13.825-6.133l-.614 1.904Zm13.439 5.96a69.102 69.102 0 0 1 5.843 3.778l1.169-1.623a71.274 71.274 0 0 0-6.012-3.886l-1 1.732Zm16.262 12.982a74.646 74.646 0 0 1 4.499 5.317l1.585-1.22a76.65 76.65 0 0 0-4.62-5.46l-1.464 1.363Zm5.895 5.504a167.756 167.756 0 0 1 12.221-8.439L384.8 33.31a169.517 169.517 0 0 0-12.367 8.54l1.207 1.594Zm38.776-21.538c9.721-3.529 19.409-5.659 28.822-6.28l-.132-1.996c-9.621.635-19.495 2.81-29.372 6.396l.682 1.88Zm57.953-2.908a69.39 69.39 0 0 1 13.439 5.96l1-1.731a71.382 71.382 0 0 0-13.825-6.132l-.614 1.903Zm13.439 5.96a69.29 69.29 0 0 1 10.2 7.187l1.294-1.525a71.331 71.331 0 0 0-10.494-7.393l-1 1.732Zm26.164 26.287c4.117 6.94 7.352 14.683 9.689 23.052l1.926-.538c-2.379-8.52-5.68-16.428-9.895-23.534l-1.72 1.02Zm13.858 47.81c.564 8.081.449 16.502-.355 25.147l1.991.185c.814-8.746.931-17.276.359-25.471l-1.995.139Zm-4.449 49.989a204.932 204.932 0 0 1-7.291 24.137l1.875.693a206.693 206.693 0 0 0 7.363-24.372l-1.947-.458ZM502 196.278a229.292 229.292 0 0 1-6.01 11.104l1.732 1a231.076 231.076 0 0 0 6.062-11.201l-1.784-.903Zm-6.01 11.104a228.979 228.979 0 0 1-6.61 10.756l1.675 1.094a231.615 231.615 0 0 0 6.667-10.85l-1.732-1Zm-21.566 31.044a204.831 204.831 0 0 1-17.255 18.383l1.37 1.457a206.869 206.869 0 0 0 17.424-18.563l-1.539-1.277Zm-36.72 34.35c-7.084 5.02-14.318 9.33-21.599 12.881l.877 1.798c7.384-3.602 14.711-7.969 21.878-13.047l-1.156-1.632Zm-45.122 21.65c-8.416 2.161-16.738 3.23-24.807 3.135l-.024 2c8.262.097 16.759-.998 25.328-3.198l-.497-1.937Zm-49.328-1.142a69.286 69.286 0 0 1-11.323-5.242l-1 1.732a71.246 71.246 0 0 0 11.649 5.393l.674-1.883Zm-11.323-5.242a69.004 69.004 0 0 1-5.843-3.777l-1.169 1.623a71.027 71.027 0 0 0 6.012 3.886l1-1.732Zm-16.262-12.981a74.667 74.667 0 0 1-4.499-5.317l-1.585 1.22a76.842 76.842 0 0 0 4.62 5.46l1.464-1.363Zm-5.895-5.504a167.632 167.632 0 0 1-12.221 8.439l1.061 1.695a169.477 169.477 0 0 0 12.367-8.539l-1.207-1.595Zm-38.776 21.538c-9.721 3.529-19.409 5.659-28.822 6.28l.132 1.996c9.622-.635 19.495-2.811 29.372-6.396l-.682-1.88Zm-57.953 2.908a69.395 69.395 0 0 1-13.438-5.961l-1.001 1.732a71.38 71.38 0 0 0 13.826 6.132l.613-1.903Zm-13.438-5.961a69.182 69.182 0 0 1-5.844-3.777l-1.169 1.623a71.027 71.027 0 0 0 6.012 3.886l1.001-1.732Zm-16.263-12.982a74.863 74.863 0 0 1-4.5-5.317l-1.584 1.219c1.46 1.898 3 3.72 4.62 5.46l1.464-1.362Z" fill="#022F45" mask="url(#a)"/><path d="m261.687 198.789-30.09 47.704-.59-.38-8.625-5.651-8.188-5.373-.521-.355-26.289-17.263-27.717-18.202-34.815 23.591-.433.287-.709.48-4.229 2.849 2.711 13.256a5.056 5.056 0 0 1-2.988 5.744 5.322 5.322 0 0 1-2.128.454 4.989 4.989 0 0 1-4.124-2.176l-32.145-45.111 17.026-9.323.23-.125.986-.522 48.139-26.336c.328-1.278.667-2.551 1.001-3.829l.167-.631h-42.241v-31.579h-8.673l8.673-18.781v-.475h.214v-.026h34.893c-8.694-7.518-12.229-17.451-13.606-23.086-1.184-4.737-3.291-17.43 4.354-28.464a33.239 33.239 0 0 1 5.643-6.328.093.093 0 0 1 0-.052h.042a28.24 28.24 0 0 1 8.938-5.217 29.866 29.866 0 0 1 9.439-1.66c12.224-.104 21.527 7.952 25.293 11.812l14.288-8.128a1.29 1.29 0 0 1 .971-.125c.325.093.601.308.771.6a1.289 1.289 0 0 1-.103 1.416 1.27 1.27 0 0 1-.376.326l-13.742 7.826a25.317 25.317 0 0 1 5.445 10.032 25.56 25.56 0 0 1 .662 10.132c2.931-1.45 5.929-1.67 8.172-.37a6.433 6.433 0 0 1 3.03 4.174c.902 4.261-3.093 9.39-9.565 12.374 0 1.95-.219 8.415-2.962 14.383-.104.235-.224.454-.339.705l28.427 1.085v.521l8.662 17.336h-8.672v31.605h-32.745l1.955 2.609a25.826 25.826 0 0 0 6.389 6.01l44.113 29.179.636.422.522.339 5.084 3.365 10.952-8.832a5.965 5.965 0 0 1 7.718.203 5.97 5.97 0 0 1 1.945 3.652 6.013 6.013 0 0 1-.861 4.023l-.015-.094Z" fill="#fff"/><path d="m232.039 248.523-1.809-1.189-8.814-5.791-8.01-5.259-.521-.344-35.895-23.576-17.313-11.363-35.524 24.077-3.041 2.055 2.524 12.302a6.474 6.474 0 0 1-.579 4.382 6.453 6.453 0 0 1-3.254 2.995 6.9 6.9 0 0 1-2.706.563 6.4 6.4 0 0 1-3.004-.735 6.463 6.463 0 0 1-2.31-2.051l-33.1-46.431 67.273-36.822c.177-.668.355-1.356.522-2.009h-41.824v-31.578h-9.528l9.486-20.571v-1.607h.814v-.031h32.098c-7.14-7.455-10.164-16.33-11.369-21.275l-.349-1.43h.031c-1.225-5.832-2.383-17.696 4.897-28.208a35.563 35.563 0 0 1 5.575-6.329l.318-.928.615.14a29.74 29.74 0 0 1 8.808-5.008 31.435 31.435 0 0 1 9.908-1.742h.246c11.952 0 21.193 7.455 25.292 11.477l13.324-7.575a2.7 2.7 0 0 1 2.055-.255c.347.094.671.258.954.48a2.706 2.706 0 0 1 1.029 1.821 2.757 2.757 0 0 1-1.363 2.723l-12.229 6.949a26.488 26.488 0 0 1 4.616 9.229 26.87 26.87 0 0 1 .907 8.3c2.665-.777 5.215-.584 7.223.59a7.83 7.83 0 0 1 2.404 2.175 7.948 7.948 0 0 1 1.33 2.953c1.043 4.768-2.89 10.267-9.549 13.606a38.99 38.99 0 0 1-2.529 12.782l27.639 1.069v1.503l9.569 19.141h-9.538v31.605h-31.289l.208.276a24.316 24.316 0 0 0 6.024 5.666l45.265 29.94 4.172 2.786 10.143-8.17a7.303 7.303 0 0 1 9.606.24 7.305 7.305 0 0 1 1.356 9.532l-30.784 48.92Zm-72.378-51.033.814.522 18.116 11.895 36.427 23.92 7.978 5.269 8.157 5.358 29.297-46.473a4.513 4.513 0 0 0 .657-3.047 4.513 4.513 0 0 0-7.311-2.885l-11.802 9.484-7.123-4.695-44.118-29.184a27.16 27.16 0 0 1-6.743-6.344l-3.708-4.972h34.199v-31.61h7.76l-7.473-14.962-29.563-1.138 1.069-2.144c.083-.172.177-.349.25-.522 2.639-5.738 2.837-11.999 2.832-13.778v-.939l.855-.391c5.82-2.671 9.486-7.19 8.745-10.747a4.89 4.89 0 0 0-.834-1.847 4.926 4.926 0 0 0-1.502-1.362c-1.747-1.017-4.224-.86-6.779.407l-2.462 1.221.371-2.713a24.195 24.195 0 0 0-.631-9.547 23.59 23.59 0 0 0-5.127-9.448l-.938-1.043h-.037l-.782-.814c-3.333-3.428-12.307-11.368-23.989-11.368h-.214a28.34 28.34 0 0 0-8.959 1.565 27.004 27.004 0 0 0-8.459 4.94l-.208.188a32.337 32.337 0 0 0-5.215 5.927c-7.27 10.496-5.314 22.59-4.13 27.28l.333 1.356c1.492 5.42 4.965 14.248 12.793 20.999l2.962 2.566h-37.871l-7.583 16.387h7.854v31.574h42.716l-.522 1.846-.135.522-.345 1.304c-.229.866-.453 1.738-.688 2.609l-.157.61-.552.303-49.334 27.019-15.592 8.535 31.196 43.776c.318.485.754.881 1.267 1.153a3.502 3.502 0 0 0 1.669.407 3.93 3.93 0 0 0 1.564-.318 3.555 3.555 0 0 0 1.825-1.664 3.55 3.55 0 0 0 .308-2.447l-2.905-14.217 6.159-4.173 35.618-24.15Z" fill="#fff"/><path d="m232.852 252.211-4.068-2.655-8.823-5.796-8.016-5.249-.521-.349-37.433-24.583-14.289-9.391-34.732 23.54-.907.61 2.164 10.565a9.081 9.081 0 0 1-5.366 10.335 9.464 9.464 0 0 1-3.77.787 9.089 9.089 0 0 1-4.209-1.043 9.06 9.06 0 0 1-3.254-2.864l-34.84-48.884 64.476-35.304h-37.291v-31.573H91.021l10.977-23.805V102.9h1.893v-.032h28.005a51.874 51.874 0 0 1-8.281-17.993l-.991-4.07.192-.041c-1.042-6.882-1.089-17.785 5.773-27.692a38.059 38.059 0 0 1 5.466-6.329l.845-2.53 1.726.381a32.003 32.003 0 0 1 8.584-4.638 34.043 34.043 0 0 1 10.784-1.904h.271c11.525 0 20.599 6.26 25.679 10.841l11.598-6.605a5.34 5.34 0 0 1 2.002-.683 5.44 5.44 0 0 1 2.112.135 5.38 5.38 0 0 1 1.893.945 5.29 5.29 0 0 1 1.387 1.596 5.346 5.346 0 0 1-.464 5.984 5.38 5.38 0 0 1-1.616 1.372l-9.705 5.515a29.17 29.17 0 0 1 3.342 7.653c.527 1.928.855 3.905.981 5.9a10.947 10.947 0 0 1 5.95 1.399 10.555 10.555 0 0 1 4.991 6.88c1.194 5.599-2.608 11.797-9.564 15.777a42.719 42.719 0 0 1-1.461 8.645l26.649 1.043v3.485l11.207 22.433h-11.171v31.6h-27.738c.48.386.98.746 1.491 1.085l45.271 29.946 2.608 1.716 8.636-6.954c4.568-3.678 9.908-2.415 13.037.324a9.911 9.911 0 0 1 1.804 12.922l-32.332 51.205ZM86.833 200.015l29.465 41.355a.851.851 0 0 0 .777.449c.165.001.328-.033.48-.099a.956.956 0 0 0 .521-.454.953.953 0 0 0 .068-.699l-3.27-15.949 7.635-5.164 37.083-25.131 2.29 1.503 18.122 11.894 36.421 23.921 7.139 4.695 6.779 4.445 27.859-44.162c.234-.375.328-.82.266-1.258a1.857 1.857 0 0 0-.605-1.127 1.84 1.84 0 0 0-1.195-.474 1.863 1.863 0 0 0-1.215.401l-13.313 10.721-8.741-5.785-44.113-29.184a29.922 29.922 0 0 1-7.4-6.96l-6.889-9.229h36.844v-31.6h6.122l-4.86-9.719L181 111.169l2.925-5.875c.068-.13.136-.255.193-.391 2.42-5.27 2.608-11.05 2.608-12.693v-2.645l2.404-1.1c5.017-2.296 7.676-5.828 7.254-7.785a2.3 2.3 0 0 0-1.064-1.466c-.939-.521-2.608-.354-4.297.49l-6.926 3.428 1.043-7.68a21.585 21.585 0 0 0-.552-8.487 21.153 21.153 0 0 0-4.558-8.4l-.298-.328-1.381-1.43c-3.083-3.161-11.411-10.57-22.096-10.57h-.204a25.705 25.705 0 0 0-8.083 1.414 24.51 24.51 0 0 0-7.624 4.46l-.214.189a29.216 29.216 0 0 0-4.777 5.42c-6.654 9.61-4.839 20.785-3.744 25.136l.323 1.304c1.273 4.591 4.516 13.22 11.969 19.663l8.343 7.231H108.96l-5.105 11.07h6.357v31.6h43.54l-1.424 5.217c-.047.157-.089.324-.13.48l-.345 1.32c-.229.866-.453 1.737-.688 2.608l-.448 1.717-1.565.85-62.319 34.099Zm96.43-145.775.115.126 12.896-7.33a.083.083 0 0 0 0-.032.055.055 0 0 0 0-.03v-.032a.058.058 0 0 0 0-.026h-.094l-12.917 7.324Z" fill="#fff"/><path d="M169.447 117.476a36.997 36.997 0 0 1-4.313-.261 47.314 47.314 0 0 1-20.458-7.564c-11.259-7.659-15.525-19.429-17.069-25.752l1.476-.365c1.492 6.12 5.611 17.488 16.448 24.854 11.171 7.596 29.152 10.805 37.115 3.256.59-.563 1.126-1.18 1.601-1.842a21.137 21.137 0 0 0 2.258-3.829c2.941-6.407 2.832-13.434 2.811-14.217v-.522l.453-.203c6.076-2.64 9.935-7.23 9.142-10.872a4.86 4.86 0 0 0-.824-1.816 4.916 4.916 0 0 0-1.475-1.346c-3.015-1.742-7.823 0-11.473 4.132l-1.148-1.007c4.11-4.695 9.731-6.547 13.366-4.445a6.397 6.397 0 0 1 3.03 4.174c.902 4.262-3.092 9.39-9.564 12.375 0 1.951-.219 8.42-2.957 14.383a22.192 22.192 0 0 1-2.409 4.09 14.182 14.182 0 0 1-1.779 2.051c-3.233 3.098-8.203 4.726-14.231 4.726Z" fill="#022F45"/><path d="M178.931 98.647a10.629 10.629 0 0 1-8.239 3.756 11.145 11.145 0 0 1-7.411-2.817 9.69 9.69 0 0 1-3.004-4.752c2.707 2.54 5.674 4.429 9.309 4.992 3.16.522 6.321-.125 9.356-1.179h-.011Z" fill="#022F45"/><path d="M159.273 101.167c-1.689-1.805-1.429-4.966.24-6.782 1.565-1.893 4.694-2.571 6.712-1.121a8.276 8.276 0 0 0-3.087.642c-2.889 1.184-4.256 4.183-3.865 7.261ZM179.245 72.975c1.226 3.47-1.622 7.45-5.262 7.861-3.614.574-7.426-2.477-7.259-6.087 1.674 2.4 4.172 3.928 6.931 3.594 2.758-.334 4.704-2.603 5.59-5.368ZM170.293 69.562c1.304-4.105 7.421-4.81 9.533-1.012a13.31 13.31 0 0 0-2.524-.772c-2.545-.516-4.876.34-7.009 1.784ZM128.092 85.653l-.26-.94c-1.09-3.897-4.005-17.529 4.13-29.283 3.885-5.613 8.798-9.51 14.602-11.597a29.811 29.811 0 0 1 9.439-1.66c12.61-.104 22.132 8.473 25.61 12.167l.673.71-54.194 30.603Zm28.161-41.956h-.224a28.193 28.193 0 0 0-8.939 1.565c-5.507 1.977-10.174 5.692-13.871 11.029-7.223 10.392-5.309 22.433-4.172 27.066l50.783-28.694c-3.776-3.787-12.401-10.976-23.556-10.976l-.021.01Z" fill="#022F45"/><path d="M167.854 63.072a42.178 42.178 0 0 0-22.043-17.466l.521-1.44a43.767 43.767 0 0 1 22.831 18.072l-1.309.834ZM141.145 77.853a44.884 44.884 0 0 1-3.541-28.835l1.497.308a43.308 43.308 0 0 0 3.411 27.859l-1.367.668ZM188.997 77.435l-1.491-.287a23.731 23.731 0 0 0-7.27-22.047l1.043-1.121a25.255 25.255 0 0 1 7.718 23.456ZM143.229 76.455c4.042-.126 7.176 3.302 6.874 6.876-.271 3.281-3.379 6.015-7.056 5.739.417.48 2.571 3 2.227 6.505-.334 3.402-2.858 6.36-6.409 7.487a70.081 70.081 0 0 1-4.876-6.407c-2.42-3.59-2.608-4.601-2.436-5.483.334-1.732 1.805-1.654 4.25-4.33 2.086-2.26 1.841-3.235 4.59-6.95a42.924 42.924 0 0 1 2.836-3.437Z" fill="#022F45"/><path d="m137.164 99.441-8.469-12.787-.318-2.134 12.062-6.683.939 4.294-4.214 17.31Z" fill="#022F45"/><path d="m261.109 198.419-29.725 47.115-16.808-11.045 21.334-37.865 6.039 4.001 11.369-9.15c4.657-3.757 10.972 1.893 7.791 6.944Z" fill="#FEB703"/><path d="m231.603 246.493-.589-.386-8.625-5.645-8.188-5.373-.521-.355 22.017-39.065 6.258 4.126 10.951-8.837a5.998 5.998 0 0 1 3.896-1.325 5.966 5.966 0 0 1 5.773 5.165 5.96 5.96 0 0 1-.866 4.022l-30.106 47.673Zm-16.109-12.223 7.651 5.024 8.041 5.279 29.36-46.536c.58-.922.814-2.02.663-3.099a4.627 4.627 0 0 0-1.492-2.791 4.625 4.625 0 0 0-2.946-1.168 4.614 4.614 0 0 0-2.999 1.012l-11.744 9.469-5.841-3.866-20.693 36.676Z" fill="#022F45"/><path d="M121.522 239.863c.964 4.695-5.215 7.408-8.005 3.48L81.82 198.862l17.043-9.333 24.99 33.154-5.142 3.48 2.811 13.7Z" fill="#FEB703"/><path d="M117.082 245.914a4.893 4.893 0 0 1-2.331-.574 4.942 4.942 0 0 1-1.794-1.601l-32.15-45.107 18.252-9.996 25.793 34.224-5.371 3.616 2.711 13.251a5.07 5.07 0 0 1-.453 3.417 5.049 5.049 0 0 1-2.535 2.332c-.67.29-1.392.439-2.122.438Zm-34.257-46.823 31.253 43.823a3.763 3.763 0 0 0 4.584 1.289 3.78 3.78 0 0 0 2.19-4.231l-2.899-14.149 4.917-3.333-24.181-32.106-15.864 8.707Z" fill="#022F45"/><path d="m214.821 235.465-.616-.402-26.825-17.618-27.707-18.202-35.957 24.374-25.866-34.312 49.328-27.004c.339-1.278.678-2.556 1.006-3.829.376-1.419.751-2.833 1.121-4.257l.131-.522h.521l14.482-.214 15.003-.229h.355l5.382 7.194a25.968 25.968 0 0 0 6.388 6.015l45.261 29.941-22.007 39.065Zm-55.148-37.871.38.251 28.072 18.452 26.195 17.217 20.662-36.671-44.15-29.215a27.115 27.115 0 0 1-6.727-6.323l-4.97-6.631-14.659.214-13.961.208-.985 3.757a575.59 575.59 0 0 0-1.08 4.105l-.078.282-48.463 26.539 24.125 31.996 35.639-24.181Z" fill="#022F45"/><path d="M159.211 198.961c-3.697-2.927-10.252-9.391-12.568-19.767a34.616 34.616 0 0 1 .449-16.622l1.329.365a33.253 33.253 0 0 0-.453 15.959c2.227 9.965 8.526 16.173 12.083 18.975l-.84 1.09Z" fill="#022F45"/><path d="M179.563 107.683h-72.795v49.468h72.795v-49.468Z" fill="#FEB703"/><path d="M180.26 157.835h-74.172v-50.84h74.167l.005 50.84Zm-72.79-1.357h71.444v-48.106H107.47v48.106Z" fill="#022F45"/><path d="m179.564 107.689 35.707 1.372v48.091h-35.707v-49.463Z" fill="#FEB703"/><path d="M215.97 157.836h-37.083v-50.867l37.083 1.43v49.437Zm-35.712-1.357h34.325v-46.76l-34.325-1.32v48.08Z" fill="#022F45"/><path d="m106.772 107.689-8.235 17.858h72.764l8.266-17.858h-72.795Z" fill="#FEB703"/><path d="M171.754 126.262H97.42l8.897-19.304h74.37l-8.933 19.304Zm-72.102-1.43h71.189l7.609-16.434h-71.216l-7.582 16.434Z" fill="#022F45"/><path d="m215.271 109.061-35.707-1.372 8.24 17.858h35.712l-8.245-16.486Z" fill="#FEB703"/><path d="M224.628 126.23h-37.261l-8.865-19.272 37.229 1.43 8.897 17.842Zm-36.379-1.356h34.157l-7.561-15.13-34.184-1.314 7.588 16.444ZM195.574 45.851l-60.045 34.135a1.28 1.28 0 0 0-.428 1.706c.163.285.428.498.741.595.314.093.651.063.944-.084l60.071-34.13c.292-.17.507-.446.6-.772a1.29 1.29 0 0 0-.892-1.57 1.283 1.283 0 0 0-.97.12h-.021Z" fill="#022F45"/><path d="m455.406 198.789-30.085 47.704-.59-.381-8.625-5.65-8.188-5.373-.521-.355-26.289-17.263-27.717-18.202-34.815 23.575-.454.287-.709.48-4.214 2.854 2.707 13.257a5.065 5.065 0 0 1-.449 3.417 5.064 5.064 0 0 1-2.534 2.332 5.452 5.452 0 0 1-2.128.454 5.02 5.02 0 0 1-2.331-.574 5.005 5.005 0 0 1-1.794-1.602l-32.145-45.112 17.022-9.322.235-.126.985-.521 48.118-26.341c.334-1.278.673-2.557 1.007-3.83.052-.208.104-.422.167-.631h-42.241v-31.579h-8.673l8.673-18.781v-.464h.219v-.031h34.888c-8.693-7.518-12.229-17.446-13.606-23.08-1.184-4.738-3.291-17.43 4.355-28.465a33.367 33.367 0 0 1 5.637-6.328v-.052h.047a28.193 28.193 0 0 1 8.907-5.217 29.833 29.833 0 0 1 9.439-1.654c12.224-.104 21.527 7.95 25.292 11.811l14.295-8.133a1.316 1.316 0 0 1 .99-.12c.161.045.312.121.444.224a1.257 1.257 0 0 1 .485.85c.022.175.01.353-.037.523a1.277 1.277 0 0 1-.224.443 1.328 1.328 0 0 1-.376.329l-13.741 7.825A25.2 25.2 0 0 1 382.256 66a25.627 25.627 0 0 1 .667 10.127c2.931-1.45 5.924-1.665 8.167-.365a6.404 6.404 0 0 1 3.03 4.173c.907 4.263-3.098 9.39-9.565 12.375 0 1.951-.213 8.415-2.956 14.383-.11.235-.225.454-.345.699l28.422 1.091v.522l8.667 17.336h-8.751v31.605h-32.739l1.956 2.608a25.801 25.801 0 0 0 6.388 6.005l44.113 29.184.636.423.522.339 5.09 3.365 10.951-8.833a5.972 5.972 0 0 1 7.723.204 5.97 5.97 0 0 1 1.94 3.626 5.968 5.968 0 0 1-.86 4.022l.094-.099Z" fill="#fff"/><path d="m425.761 248.523-1.805-1.189-8.818-5.791-8-5.259-.521-.344-35.895-23.576-17.303-11.363-35.519 24.077-3.04 2.055 2.519 12.302a6.48 6.48 0 0 1-3.828 7.377 6.911 6.911 0 0 1-2.712.563 6.382 6.382 0 0 1-2.999-.735 6.383 6.383 0 0 1-2.31-2.051l-33.104-46.431 67.273-36.822.521-2.009h-41.824v-31.578h-9.486l9.486-20.571v-1.607h.814v-.031h32.108c-7.139-7.455-10.164-16.33-11.368-21.275l-.35-1.43h.031c-1.225-5.832-2.378-17.696 4.902-28.208a35.22 35.22 0 0 1 5.57-6.329l.313-.928.621.14a29.865 29.865 0 0 1 8.808-5.008 31.464 31.464 0 0 1 9.939-1.742h.24c11.953 0 21.194 7.455 25.293 11.477l13.319-7.575a2.791 2.791 0 0 1 1.011-.339 2.74 2.74 0 0 1 1.998.553c.282.222.519.497.698.809.177.312.292.656.339 1.012a2.781 2.781 0 0 1-.552 2.024 2.739 2.739 0 0 1-.809.7l-12.229 6.948a26.395 26.395 0 0 1 4.589 9.193 27.025 27.025 0 0 1 .908 8.3c2.665-.777 5.215-.584 7.222.59a7.918 7.918 0 0 1 3.734 5.134c1.012 4.762-2.889 10.26-9.548 13.6a38.966 38.966 0 0 1-2.53 12.782l27.64 1.043v1.565l9.59 19.157h-9.538v31.605h-31.29l.214.282a24.305 24.305 0 0 0 6.018 5.665l45.266 29.941 4.198 2.781 10.143-8.165a7.258 7.258 0 0 1 9.606.24 7.263 7.263 0 0 1 1.356 9.526l-30.909 48.915Zm-72.399-51.033.808.522 18.122 11.895 36.421 23.92 8.01 5.259 8.156 5.357 29.293-46.462a4.524 4.524 0 0 0-.809-5.791 4.51 4.51 0 0 0-5.84-.141l-11.807 9.484-7.124-4.695-44.113-29.184a27.118 27.118 0 0 1-6.748-6.355l-3.703-4.971h34.195v-31.6h7.76l-7.463-14.915-29.569-1.138 1.075-2.149c.083-.167.172-.344.25-.522 2.639-5.739 2.832-11.999 2.832-13.778v-.944l.85-.386c5.825-2.671 9.507-7.19 8.75-10.748a4.952 4.952 0 0 0-2.336-3.208c-1.747-1.043-4.224-.866-6.779.407l-2.462 1.216.365-2.708a24.157 24.157 0 0 0-.62-9.547 23.772 23.772 0 0 0-5.127-9.454l-.943-1.043h-.032l-.792-.814c-3.328-3.428-12.308-11.373-23.989-11.373h-.214a28.312 28.312 0 0 0-8.959 1.565 27.003 27.003 0 0 0-8.459 4.94l-.208.189a32.152 32.152 0 0 0-5.215 5.926c-7.27 10.497-5.314 22.59-4.136 27.28l.339 1.356c1.492 5.42 4.965 14.243 12.792 20.994l2.968 2.566h-37.882l-7.577 16.345h7.849v31.574h42.715l-.495 1.857c-.052.172-.094.35-.141.522l-.344 1.309c-.23.866-.464 1.738-.689 2.609l-.156.61-.553.303-49.328 27.009-15.593 8.535 31.196 43.776c.319.483.755.878 1.267 1.148a3.47 3.47 0 0 0 1.669.412 3.862 3.862 0 0 0 1.564-.324 3.563 3.563 0 0 0 1.826-1.659c.39-.755.501-1.623.313-2.452l-2.91-14.211 6.159-4.174 35.571-24.139Z" fill="#fff"/><path d="m426.582 252.211-4.067-2.655-8.829-5.796a1461.25 1461.25 0 0 1-8-5.254l-.521-.349-37.428-24.583-14.31-9.391-34.731 23.54-.902.61 2.164 10.564a9.09 9.09 0 0 1-5.366 10.335 9.449 9.449 0 0 1-3.771.788 9.133 9.133 0 0 1-4.213-1.043 9.109 9.109 0 0 1-3.255-2.864l-34.835-48.884 64.477-35.304h-37.276v-31.573h-10.983l10.983-23.806v-3.651h1.888v-.027h28.004a51.958 51.958 0 0 1-8.276-17.993l-.986-4.07.188-.041c-1.043-6.882-1.09-17.785 5.778-27.692a37.788 37.788 0 0 1 5.46-6.329l.845-2.53 1.726.381a32.097 32.097 0 0 1 8.584-4.638 34.066 34.066 0 0 1 10.784-1.904h.271c11.525 0 20.594 6.26 25.679 10.841l11.629-6.61a5.414 5.414 0 0 1 2.008-.71c.71-.099 1.434-.056 2.127.126a5.3 5.3 0 0 1 1.909.939 5.327 5.327 0 0 1 1.403 1.612 5.4 5.4 0 0 1 .49 4.148 5.483 5.483 0 0 1-.985 1.893 5.446 5.446 0 0 1-1.643 1.362l-9.7 5.514a29.173 29.173 0 0 1 4.318 13.564c2.076-.108 4.14.377 5.95 1.399a10.593 10.593 0 0 1 4.996 6.881c1.194 5.598-2.607 11.796-9.564 15.776a43 43 0 0 1-1.46 8.645l26.669 1.043v3.485l11.207 22.433h-11.207v31.605h-27.743c.484.381.98.741 1.501 1.08l45.266 29.951 2.582 1.711 8.636-6.954c4.568-3.652 9.934-2.415 13.037.324a9.913 9.913 0 0 1 1.809 12.922l-32.317 51.179Zm-146.018-52.196 29.465 41.34a.877.877 0 0 0 .777.454c.166-.002.331-.035.485-.1a.923.923 0 0 0 .521-.459.92.92 0 0 0 .068-.694l-3.265-15.948 7.635-5.165 37.078-25.136 2.295 1.503 18.096 11.9 36.421 23.915 7.134 4.695 6.779 4.45 27.864-44.167c.235-.372.327-.817.26-1.252a1.837 1.837 0 0 0-.605-1.132 1.863 1.863 0 0 0-2.409-.068l-13.308 10.716-8.741-5.781-44.113-29.189a29.817 29.817 0 0 1-7.405-6.96l-6.878-9.213h36.838v-31.6h6.122l-4.86-9.719-32.103-1.236 2.925-5.875c.068-.13.136-.255.193-.391 2.42-5.27 2.608-11.05 2.608-12.693v-2.645l2.404-1.1c5.016-2.296 7.676-5.828 7.254-7.785a2.3 2.3 0 0 0-1.064-1.466c-.944-.521-2.608-.354-4.297.49l-6.926 3.428 1.043-7.68a21.4 21.4 0 0 0-.558-8.487 21.068 21.068 0 0 0-4.552-8.4l-.298-.328-1.382-1.43c-3.082-3.161-11.41-10.57-22.095-10.57h-.198a25.706 25.706 0 0 0-8.084 1.414 24.581 24.581 0 0 0-7.629 4.46l-.209.189a29.174 29.174 0 0 0-4.776 5.42c-6.66 9.61-4.84 20.785-3.745 25.136l.323 1.304c1.273 4.591 4.517 13.22 11.964 19.663l8.343 7.231h-43.284l-5.11 11.07h6.362v31.6h43.54l-1.429 5.217-.126.48-.349 1.32-.683 2.608-.454 1.717-1.564.85-62.298 34.099ZM376.962 54.24l.115.126 12.891-7.33a.052.052 0 0 0 .026 0 .043.043 0 0 0 0-.032.055.055 0 0 0 0-.03V46.915h-.031a.036.036 0 0 0-.031 0 .037.037 0 0 0-.016-.004.033.033 0 0 0-.015.004l-12.939 7.324Z" fill="#fff"/><path d="M363.179 117.476a36.908 36.908 0 0 1-4.307-.261 47.372 47.372 0 0 1-20.458-7.575c-11.26-7.658-15.531-19.428-17.074-25.75l1.481-.366c1.497 6.12 5.616 17.487 16.448 24.854 11.165 7.596 29.157 10.804 37.115 3.255a12.867 12.867 0 0 0 1.6-1.841 21.092 21.092 0 0 0 2.259-3.83c2.946-6.406 2.837-13.434 2.816-14.216v-.522l.448-.203c6.081-2.64 9.909-7.231 9.147-10.873a5.034 5.034 0 0 0-.824-1.815 4.92 4.92 0 0 0-1.481-1.346c-3.014-1.743-7.822 0-11.473 4.132l-1.147-1.007c4.109-4.695 9.731-6.547 13.371-4.445a6.437 6.437 0 0 1 3.03 4.174c.902 4.262-3.098 9.39-9.569 12.375 0 1.95-.214 8.42-2.957 14.383a22.235 22.235 0 0 1-2.404 4.09 14.166 14.166 0 0 1-1.81 2.05c-3.259 3.11-8.219 4.737-14.211 4.737Z" fill="#022F45"/><path d="M372.648 98.647a10.658 10.658 0 0 1-8.245 3.756 11.133 11.133 0 0 1-7.421-2.817 9.76 9.76 0 0 1-3.003-4.752c2.711 2.54 5.679 4.429 9.308 4.992 3.166.522 6.326-.125 9.361-1.179Z" fill="#022F45"/><path d="M352.964 101.167c-1.69-1.805-1.429-4.966.229-6.782 1.659-1.815 4.694-2.572 6.722-1.121a8.282 8.282 0 0 0-3.087.641c-2.884 1.184-4.245 4.184-3.864 7.262ZM372.957 72.975c1.231 3.47-1.617 7.45-5.257 7.861-3.614.574-7.431-2.477-7.259-6.087 1.669 2.4 4.172 3.928 6.931 3.594 2.759-.334 4.704-2.603 5.585-5.368ZM364.004 69.562c1.298-4.105 7.421-4.81 9.522-1.012a13.26 13.26 0 0 0-2.518-.772c-2.54-.516-4.876.34-7.004 1.784ZM321.798 85.653l-.266-.94c-1.085-3.897-4.005-17.529 4.136-29.283 3.885-5.613 8.797-9.51 14.602-11.597a29.8 29.8 0 0 1 9.433-1.66c12.61-.104 22.133 8.473 25.616 12.167l.673.71-54.194 30.603Zm28.161-41.956h-.25a28.238 28.238 0 0 0-8.939 1.565c-5.507 1.977-10.174 5.692-13.866 11.029-7.228 10.392-5.314 22.433-4.172 27.066l50.788-28.694c-3.77-3.798-12.401-10.987-23.556-10.987l-.005.021Z" fill="#022F45"/><path d="M361.567 63.072a42.241 42.241 0 0 0-22.044-17.466l.522-1.44a43.806 43.806 0 0 1 22.836 18.072l-1.314.834ZM334.897 77.853a44.884 44.884 0 0 1-3.541-28.835l1.492.308a43.377 43.377 0 0 0 3.421 27.859l-1.372.668ZM382.691 77.435l-1.492-.287a23.74 23.74 0 0 0-7.269-22.047l1.043-1.121a25.313 25.313 0 0 1 6.925 10.72 25.255 25.255 0 0 1 .793 12.735ZM336.943 76.455c4.037-.126 7.171 3.302 6.874 6.876-.277 3.281-3.385 6.015-7.061 5.739.422.48 2.571 3 2.227 6.505-.329 3.402-2.858 6.36-6.41 7.487a69.065 69.065 0 0 1-4.87-6.407c-2.42-3.59-2.608-4.601-2.441-5.483.334-1.732 1.804-1.654 4.25-4.33 2.086-2.26 1.846-3.235 4.589-6.95a42.195 42.195 0 0 1 2.842-3.437Z" fill="#022F45"/><path d="m330.873 99.441-8.464-12.787-.323-2.134 12.062-6.683.939 4.294-4.214 17.31Z" fill="#022F45"/><path d="m454.827 198.419-29.725 47.115-16.813-11.045 21.334-37.865 6.039 4.001 11.369-9.15c4.662-3.757 10.983 1.893 7.796 6.944Z" fill="#FEB703"/><path d="m425.319 246.493-.584-.386-8.626-5.645-8.187-5.373-.522-.355 22.023-39.065 6.232 4.127 10.951-8.838a6.006 6.006 0 0 1 3.901-1.325 5.966 5.966 0 0 1 5.768 5.165 5.965 5.965 0 0 1-.866 4.022l-30.09 47.673ZM409.21 234.27l7.65 5.024 8.042 5.279 29.355-46.536a4.595 4.595 0 0 0 .667-3.099 4.634 4.634 0 0 0-1.497-2.791 4.62 4.62 0 0 0-2.941-1.168 4.637 4.637 0 0 0-3.004 1.012l-11.744 9.469-5.84-3.866-20.688 36.676Z" fill="#022F45"/><path d="M315.235 239.863c.97 4.695-5.215 7.408-8 3.48l-31.702-44.481 17.043-9.333 24.99 33.154-5.137 3.48 2.806 13.7Z" fill="#FEB703"/><path d="M310.795 245.914a4.972 4.972 0 0 1-4.125-2.175l-32.145-45.107 18.253-9.996 25.782 34.209-5.361 3.615 2.712 13.251a5.045 5.045 0 0 1-2.983 5.749 5.295 5.295 0 0 1-2.133.454Zm-34.257-46.823 31.254 43.823a3.776 3.776 0 0 0 2.085 1.461 3.77 3.77 0 0 0 4.71-4.403l-2.905-14.149 4.923-3.333-24.198-32.106-15.869 8.707Z" fill="#022F45"/><path d="m408.515 235.465-.615-.402-26.826-17.618-27.722-18.202-35.952 24.369-25.861-34.307 49.349-27.004c.348-1.28.683-2.556 1.007-3.829.37-1.419.745-2.833 1.116-4.257l.135-.522h.522l14.476-.214 15.009-.229h.355l5.381 7.194a25.955 25.955 0 0 0 6.389 6.015l45.265 29.941-22.028 39.065Zm-55.174-37.871.381.251 28.103 18.452 26.195 17.217 20.667-36.671-44.197-29.215a27.108 27.108 0 0 1-6.711-6.329l-4.97-6.63-14.654.214-13.961.208-.991 3.757-1.079 4.105-.073.282-48.462 26.539 24.119 31.996 35.633-24.176Z" fill="#022F45"/><path d="M352.935 198.961c-3.702-2.927-10.257-9.391-12.568-19.767a34.555 34.555 0 0 1 .454-16.622l1.319.365a33.203 33.203 0 0 0-.448 15.959c2.222 9.965 8.521 16.173 12.078 18.975l-.835 1.09Z" fill="#022F45"/><path d="M373.278 107.683h-72.79v49.468h72.79v-49.468Z" fill="#FEB703"/><path d="M373.966 157.835h-74.167v-50.84h74.167v50.84Zm-72.796-1.357h71.445v-48.106H301.17v48.106Z" fill="#022F45"/><path d="m373.289 107.689 35.707 1.372v48.091h-35.707v-49.463Z" fill="#FEB703"/><path d="M409.676 157.836h-37.078v-50.867l37.078 1.43v49.437Zm-35.707-1.357h34.325v-46.76l-34.325-1.32v48.08Z" fill="#022F45"/><path d="m300.492 107.689-8.24 17.858h72.764l8.271-17.858h-72.795Z" fill="#FEB703"/><path d="M365.471 126.262h-74.344l8.902-19.304h74.37l-8.928 19.304Zm-72.122-1.43h71.183l7.609-16.434h-71.194l-7.598 16.434Z" fill="#022F45"/><path d="m408.996 109.061-35.707-1.372 8.24 17.858h35.706l-8.239-16.486Z" fill="#FEB703"/><path d="M418.344 126.23h-37.256l-8.897-19.272 37.235 1.43 8.918 17.842Zm-36.385-1.356h34.163l-7.562-15.13-34.184-1.314 7.583 16.444ZM389.293 45.851l-60.065 34.135a1.273 1.273 0 0 0-.433 1.706c.164.284.428.496.74.595.314.093.652.063.944-.084l60.071-34.13c.292-.169.506-.446.595-.772a1.248 1.248 0 0 0-.12-.97 1.28 1.28 0 0 0-.767-.6 1.283 1.283 0 0 0-.97.12h.005Z" fill="#022F45"/></svg>