<svg width="80" height="80" viewBox="0 0 80 80" fill="none" xmlns="http://www.w3.org/2000/svg">
<circle cx="40" cy="40" r="39" fill="white" stroke="#022F45" stroke-width="2"/>
<path d="M22 31V50.5H58V32V30L57.5 28.5L57 27.5L56.5 26.5L55 26L54 25.5L52.5 25H27H26L25 25.5L24 26.5L23 27.5L22 29V31Z" fill="#FFDD87"/>
<path d="M51.875 24.1611H28.125C24.1968 24.1611 21 27.3579 21 31.2861V55.0361C21 55.4731 21.3547 55.8278 21.7917 55.8278C22.2287 55.8278 22.5833 55.4731 22.5833 55.0361V51.0778H57.4167V55.0361C57.4167 55.4731 57.7713 55.8278 58.2083 55.8278C58.6453 55.8278 59 55.4731 59 55.0361V31.2861C59 27.3579 55.8032 24.1611 51.875 24.1611ZM28.125 25.7445H51.875C54.9308 25.7445 57.4167 28.2303 57.4167 31.2861V43.1611H54.25V40.7861C54.25 37.7303 51.7642 35.2445 48.7083 35.2445H44.75C42.736 35.2445 40.9706 36.3243 40 37.9346C39.0294 36.3243 37.264 35.2445 35.25 35.2445H31.2917C28.2358 35.2445 25.75 37.7303 25.75 40.7861V43.1611H22.5833V31.2861C22.5833 28.2303 25.0692 25.7445 28.125 25.7445ZM40.7917 43.1611V40.7861C40.7917 38.6043 42.5666 36.8278 44.75 36.8278H48.7083C50.8918 36.8278 52.6667 38.6043 52.6667 40.7861V43.1611H40.7917ZM27.3333 43.1611V40.7861C27.3333 38.6043 29.1098 36.8278 31.2917 36.8278H35.25C37.4318 36.8278 39.2083 38.6043 39.2083 40.7861V43.1611H27.3333ZM22.5833 49.4945V44.7445H57.4167V49.4945H22.5833Z" fill="#022F45"/>
</svg>
