<svg width="469" height="381" fill="none" xmlns="http://www.w3.org/2000/svg"><g clip-path="url(#a)"><path d="M343.571 345.967c-8.841.098-17.706.042-26.528.036-.611 0-1.221-.085-1.832-.134l-11.814.159c-1.618.459-4.054.447-4.658 1.494-.849 1.475-.397 3.734-.397 5.663-.029 24.676-.051 49.353-.067 74.03v3.495l-1.038.111a16.481 16.481 0 0 1-.415-2.535c-.196-16.108-.452-32.215-.507-48.323-.037-10.297.238-20.595.354-30.886.043-3.833 0-3.833 3.858-3.643.507 0 1.014 0 1.521.037-.092-3.674-.269-7.347-.251-10.984.061-14.356.184-28.719.287-43.082 0-4.034 0-4.095-4.029-4.108-13.432-.049-26.864-.036-40.296-.073-.897 0-1.795-.061-2.692-.123-.721-.055-1.447-.116-2.174-.159l-.812-.092-5.495.858-16.967.789v1.592c0 8.534.016 17.073.049 25.615v116.745h115.936c0-.514.043-1.028.043-1.549l.158-74.728c.069-1.079.209-2.153.422-3.214 0-1.426-.043-2.865.122-4.285.256-2.192-.709-2.725-2.778-2.706Zm-78.803 76.619c-3.663-.079-7.326 0-10.99 0v-.073c-3.663 0-7.326-.086-10.989.043-1.588.055-2.192-.343-2.162-2.002.086-4.384.08-8.767 0-13.151 0-1.604.568-2.13 2.143-2.118 7.327.061 14.653.049 21.98 0 1.422 0 2.008.49 1.99 1.947a581.474 581.474 0 0 0 0 13.469c.043 1.438-.543 1.91-1.972 1.885Zm11.429-108.81c-3.449-.061-6.899 0-10.379 0v.104c-3.346 0-6.716-.049-10.037 0-1.6.037-2.442-.331-2.406-2.173.098-3.863.08-7.733 0-11.596-.036-1.628.641-2.1 2.168-2.087 6.899.048 13.796.048 20.691 0 1.569 0 2.161.544 2.131 2.13a281.591 281.591 0 0 0 0 11.589c.067 1.739-.727 2.082-2.168 2.033Zm51.787 49.639h-6.411l-7.168-.539c-.122-3.024-.36-6.055-.269-9.073 0-.563 1.331-1.524 2.082-1.555 3.853-.165 7.718-.073 11.601-.08 1.502 0 2.24.741 2.24 2.247v7.029c.006 1.487-.744 2.014-2.094 1.995l.019-.024ZM431.336 397.442c0 1.923-.36 3.839-.556 5.761v29.252h38.226v-176.84c0-3.967 0-3.967-4.017-3.973H375.85c-1.014 0-2.027.085-3.053.128l-.33 45.176c0 1.224-.109 2.449-.164 3.673.146 5.051.323 10.102.415 15.153a12.064 12.064 0 0 1-.55 2.651l.037.612c-.122 7.396-.242 14.789-.36 22.181v3.343c7.821.061 15.642.134 23.463.177 11.075.057 22.152.106 33.232.147 3.052 0 3.168.086 3.15 3.024-.094 16.518-.212 33.03-.354 49.535Zm-.507-119.108a1215.91 1215.91 0 0 0-20.392 0c-1.758 0-2.607-.508-2.564-2.448.097-4.286.091-8.572 0-12.814-.037-1.782.684-2.284 2.344-2.247 1.508.037 3.016.049 4.531.049h11.716c1.386 0 2.766 0 4.145-.049 1.753-.049 2.626.422 2.577 2.375-.098 4.286-.073 8.571 0 12.82.024 1.745-.69 2.327-2.357 2.314Z" fill="#022F45"/><path d="M430.664 399.034c0-.796-.067-1.592-.097-2.388-.19-2.736-.513-5.51-.532-8.222-.097-12.74-.11-25.474-.152-38.215 0-3.098 0-3.159-3.126-3.159-15.038 0-30.082 0-45.119-.03-7.937 0-15.874-.19-23.811-.313-.922 0-1.832-.183-2.772-.281v-1.004l16.735-.839v-3.343c.118-7.395.238-14.789.36-22.181l-.037-.612v-.055c-.244-2.449-.665-4.843-.702-7.267-.268-17.738-.49-35.472-.665-53.202.048-.498.144-.99.287-1.469 0-1.617 0-3.227-.043-4.843l-14.043 1.224a.385.385 0 0 0-.378.16l-.11.367c-.134.465-.269.924-.409 1.39-.427.526-.891 1.034-1.276 1.591a11.761 11.761 0 0 0-1.441 2.18 1.882 1.882 0 0 0-.11.361v.043c-.354 1.922-1.05 3.386-2.845 4.396a4.455 4.455 0 0 0-1.636 2.259c-1.056 2.896-3.322 4.567-6.295 3.973-1.429-.288-2.21.135-3.23.919-2.686 2.057-5.208 1.836-7.033-.986-1.38-2.155-2.027-4.794-2.949-7.243-.354-.93-.562-1.916-.898-3.061-1.068.612-1.892 1.225-2.771 1.647-2.003 1.004-3.981.924-5.654-.612-1.569-1.445-1.38-3.245-.611-5.057.135-.319.263-.637.385-.955.275-.698.531-1.402.806-2.106-5.495.196-5.495.196-5.495 5.791.033 28.224.061 56.447.086 84.671 0 1.12.042 2.24.067 3.361.61.049 1.221.134 1.831.134 8.841 0 17.706.062 26.528-.036 2.07 0 3.053.514 2.778 2.724-.164 1.408-.091 2.847-.122 4.286.422 7.297 1.136 14.595 1.221 21.893.171 18.807.055 37.621.061 56.428v1.17h83.327v-29.252c-.03-1.458-.061-2.847-.11-4.237Zm-11.399 8.736c1.148 0 1.753.288 1.93 1.188.045.242.065.488.061.735-.055 5.198-.08 10.408 0 15.605 0 1.751-.818 1.972-2.247 1.959-5.696-.049-11.393 0-17.095 0-5.495 0-10.99-.067-16.485.037-1.831.037-2.503-.459-2.442-2.388.122-4.995.085-9.997 0-14.993-.007-.27.009-.541.049-.808.159-.967.733-1.335 2.033-1.322 11.413.045 22.816.04 34.209-.013h-.013Zm-40.198-45.378c.116-2.332.068-4.677 0-7.016-.036-1.555.611-2.191 2.18-2.167 4.884.08 9.769.098 14.61.092 1.368 0 2.094.459 2.07 1.935-.043 2.54-.049 5.087 0 7.628 0 1.481-.678 1.959-2.051 1.935-1.722-.031-3.438 0-5.153 0h-3.963c-1.728 0-3.455-.037-5.177.042-1.722.08-2.595-.532-2.503-2.449h-.013ZM229.735 315.711v116.781l-40.296-.037 2.571-142.311.03-1.794c12.553.166 25.1.123 37.652.153v1.592c.017 8.535.031 17.073.043 25.616Z" fill="#FEB703"/><path d="M347.49 431.286v1.169h-1.911c0-.514.043-1.028.043-1.549l.159-74.727c.068-1.08.209-2.154.421-3.215.421 7.298 1.135 14.596 1.221 21.893.207 18.808.061 37.621.067 56.429ZM302.06 345.477l1.349.551c-1.618.459-4.054.447-4.659 1.494-.848 1.475-.396 3.734-.396 5.663-.029 24.676-.051 49.353-.068 74.03v3.495l-1.037.111a16.605 16.605 0 0 1-.416-2.535c-.195-16.108-.451-32.215-.506-48.323-.037-10.297.238-20.595.354-30.886.042-3.833 0-3.833 3.858-3.643.507.031 1.014.031 1.521.043ZM278.383 300.185c0-1.586-.562-2.143-2.131-2.131-6.919.053-13.816.053-20.691 0-1.526 0-2.204.459-2.167 2.088.073 3.863.091 7.732 0 11.595-.049 1.837.806 2.21 2.405 2.174 3.346-.074 6.716 0 10.037 0v-.135c3.45 0 6.9-.043 10.38 0 1.459 0 2.253-.318 2.21-2.026-.128-3.839-.116-7.702-.043-11.565Zm-3.999 11.632c-2.839-.098-5.684 0-8.548 0-2.741 0-5.494-.08-8.224.03-1.788.068-2.607-.471-2.503-2.406.128-2.54.073-5.087 0-7.634 0-1.414.495-2.008 1.948-1.996 5.885.041 11.771.041 17.657 0 1.514 0 1.905.71 1.874 2.063-.055 2.547-.085 5.094 0 7.635.11 1.683-.446 2.43-2.222 2.332l.018-.024ZM330.034 354.44c0-1.506-.738-2.253-2.24-2.247-3.865 0-7.73-.086-11.601.079-.751 0-2.069.992-2.082 1.555-.091 3.019.147 6.049.269 9.074l7.168.538h6.41c1.356 0 2.101-.508 2.082-1.971-.03-2.345-.006-4.683-.006-7.028Zm-8.047 7.138h-1.52c-4.61 0-5.879-1.732-4.524-6.275a2.038 2.038 0 0 1 1.361-1.255c3.053-.11 6.075-.116 9.11.031.537 0 1.05.899 1.532 1.42.104.11 0 .392.031.612.427 5.492.427 5.492-5.99 5.467ZM253.857 286.397l-.922.551-.812-.091 1.734-.46ZM430.578 396.646c-.189-2.736-.513-5.51-.531-8.222-.098-12.74-.11-25.474-.153-38.215 0-3.098 0-3.159-3.126-3.159-15.037 0-30.081 0-45.119-.03-7.937 0-15.874-.19-23.811-.313-.922 0-1.831-.183-2.772-.281v-1.004l16.735-.839c7.821.061 15.642.135 23.464.178 11.075.057 22.152.106 33.231.146 3.053 0 3.169.086 3.151 3.025-.094 16.501-.21 33.005-.348 49.51 0 1.923-.361 3.839-.556 5.761-.037-1.389-.067-2.779-.104-4.169.025-.771-.03-1.592-.061-2.388ZM433.186 263.212c.049-1.953-.825-2.449-2.577-2.375-1.38.037-2.759.049-4.145.049H414.747c-1.514 0-3.022 0-4.53-.049-1.661-.037-2.381.465-2.344 2.247.091 4.285.097 8.571 0 12.814-.043 1.928.806 2.448 2.564 2.448a1215.91 1215.91 0 0 1 20.392 0c1.679 0 2.381-.569 2.351-2.301-.074-4.286-.074-8.559.006-12.833Zm-2.076 11.253c0 1.31-.501 1.794-1.795 1.788-5.89-.037-11.78-.037-17.669 0-1.411 0-2.033-.472-2.003-1.947.065-3.151.065-6.308 0-9.471-.036-1.61.666-2.155 2.192-2.131 2.845.061 5.69 0 8.548 0 2.857 0 5.69.049 8.547 0 1.453-.03 2.284.251 2.229 1.99-.135 3.251-.092 6.508-.049 9.771ZM372.174 318.374v.055l.036.612-.036-.667ZM282.016 224.006c.073 1.01.152 2.02.226 3.061l-.226-3.061Z" fill="#022F45"/><path d="M397.957 355.236c0-1.476-.702-1.941-2.069-1.935-4.885 0-9.739 0-14.611-.092-1.557 0-2.216.612-2.179 2.168.048 2.338.097 4.683 0 7.016-.092 1.916.738 2.497 2.527 2.448 1.789-.049 3.45-.055 5.178-.042H395.93c1.374 0 2.082-.453 2.052-1.935a167.316 167.316 0 0 1-.025-7.628Zm-1.77 4.285c.03 3.392 0 3.398-3.493 3.429-3.144 0-6.282 0-9.42.098-1.478.049-2.137-.27-2.192-1.972-.195-5.932-.275-5.932 5.592-5.932H391.858c4.939.049 4.292-.667 4.329 4.353v.024Z" fill="#2E3414"/><path d="M265.861 311.817c-2.741 0-5.495-.08-8.224.03-1.789.068-2.607-.471-2.503-2.406.128-2.54.073-5.087 0-7.634 0-1.414.494-2.008 1.947-1.996 5.886.041 11.772.041 17.657 0 1.514 0 1.905.71 1.875 2.063-.055 2.547-.086 5.094 0 7.635.061 1.683-.495 2.4-2.253 2.332-2.815-.098-5.66-.024-8.499-.024ZM321.987 361.578h-1.52c-4.61 0-5.88-1.732-4.524-6.275a2.038 2.038 0 0 1 1.361-1.255c3.053-.11 6.075-.116 9.11.031.537 0 1.05.9 1.532 1.42.104.11 0 .392.031.612.427 5.492.427 5.492-5.99 5.467ZM420.364 262.723c2.845 0 5.69.049 8.547 0 1.454-.031 2.284.251 2.229 1.99-.104 3.257-.061 6.514 0 9.795 0 1.31-.501 1.794-1.795 1.788-5.89-.037-11.779-.037-17.669 0-1.411 0-2.033-.472-2.003-1.947.065-3.151.065-6.308 0-9.471-.036-1.61.666-2.155 2.192-2.131 2.815.019 5.66-.024 8.499-.024Z" fill="#fff"/><path d="M388.805 355.119h3.053c4.952.068 4.304-.649 4.341 4.372.031 3.391 0 3.397-3.492 3.428-3.145 0-6.283 0-9.421.098-1.477.049-2.137-.269-2.192-1.971-.195-5.933-.275-5.933 5.593-5.933l2.118.006Z" fill="#FEB703"/><path d="M356.538 253.343c-.073-.3-.165-.612-.275-.985a20.726 20.726 0 0 0-2.308-4.947 51.372 51.372 0 0 0-4.493-6.196c-2.821-3.287-3.737-7.12-3.81-11.314a10.627 10.627 0 0 0-1.759-6.073 8.853 8.853 0 0 1-1.141-2.449 233.439 233.439 0 0 0-15.38-37.621c-.494-.967-.891-1.989-1.294-2.908 2.173-1.671 4.188-3.061 5.995-4.659 2.168-1.916 2.339-3.018 1.063-5.675-7.119-14.828-16.802-27.709-29.593-38.08-11.778-9.551-25.161-16.12-39.624-20.528-2.516-.765-5.123-1.188-7.15-3.153-.61-.576-1.661-.686-2.534-.937-.873-.251-1.947-.453-3.101-.716.238-2.449.464-4.726.702-7.175 8.505-4.727 15.428-11.124 20.007-19.83 5.105 3.771 11.888 1.77 14.769-2.835.611-.949 1.099-1.959 1.753-2.865a13.035 13.035 0 0 1 2.283-2.73c5.886-4.69 8.071-10.812 7.143-18.159-.751-5.914-3.663-10.744-7.668-14.993-1.221-1.31-2.601-2.498-4.164-3.986 3.401-.128 6.106.839 8.755 2.174.825.416 1.624 1.414 2.699.447-1.007-2.688-2.595-3.362-12.62-5.333.452-.735.843-1.408 1.276-2.063a20.732 20.732 0 0 0 3.285-9.44c.091-.956.165-1.905-1.636-1.935-.916 3.624-1.167 7.702-4.152 10.75-1.172-1.726-2.088-3.422-3.328-4.836-2.485-2.84-5.861-4.322-9.317-5.614-5.049-1.886-10.208-3.471-14.848-6.343a11.409 11.409 0 0 1-4.347-4.567 13.454 13.454 0 0 0-2.888-3.87c-8.205-7.236-21.302-3.722-24.934 5.394a15.115 15.115 0 0 1-2.815 4.286c-3.828 4.285-4.481 10.059-1.539 15.018.452.765.898 1.53 1.307 2.234-4.469 4.947-4.915 9.93-1.508 15.526.28.546.622 1.058 1.02 1.525 1.752 1.781 1.911 3.759 1.349 6.122a68.36 68.36 0 0 0-1.655 19.456c.477 8.302 2.443 16.139 7.718 22.812.94 1.188 1.978 2.296 3.089 3.581-.525 2.241-1.05 4.476-1.484 6.349-2.485.612-4.469 1.065-6.398 1.659-2.216.686-4.39 1.531-6.594 2.265-2.699.9-5.495 1.519-8.102 2.676-16.051 7.181-29.062 18.22-39.899 31.97a3.264 3.264 0 0 0-.543 3.416c.58 1.616 1.074 3.257 1.642 4.996-1.483 1.604-2.796 3.159-4.274 4.567-4.341 4.188-6.184 4.163-10.342-.318-9.219-9.937-18.365-19.946-27.578-29.883a5.286 5.286 0 0 1-1.557-4.108c.165-4.285.238-8.571.25-12.856 0-2.786-1.087-4.402-3.15-5.008a5.394 5.394 0 0 0-3.456.163 5.416 5.416 0 0 0-2.65 2.23c-.494.747-.885 1.562-1.508 2.676-1.691-1.757-3.162-3.41-4.774-4.898-4.274-4.053-7.724-3.735-11.045.943-4.933 1.457-5.971 3.263-4.884 8.92-2.656 2.314-1.942 5.118-.55 7.836-2.234 2.89-2.234 4.543.214 7.023a18.602 18.602 0 0 0 3.89 2.908c2.637 1.536 5.323 2.999 8.07 4.322a10.856 10.856 0 0 1 4.567 4.285c4.274 6.808 8.597 13.628 13.17 20.253 5.635 8.148 11.942 15.764 19.427 22.315a40.508 40.508 0 0 0 11.997 7.273c4.585 1.837 9.085 1.966 13.512-.612 6.807-3.918 13.462-8.044 19.537-13.059 1.001-.826 2.082-1.555 3.175-2.363l5.189 2.48c-.384.808-.61 1.371-.903 1.873-2.906 4.8-5.691 9.673-8.768 14.357-7.064 10.726-14.25 21.379-21.436 32.025a16.177 16.177 0 0 0-2.863 8.271c-.043.704-.171 1.402-.251 2.082-.32.29-.659.56-1.013.808-11.515 6.734-21.418 15.538-30.979 24.728-23.909 22.995-45.613 48.01-66.634 73.631-2.913 3.545-5.886 7.047-8.664 10.696-3.663 4.781-3.462 9.263.336 13.916a108.383 108.383 0 0 0 2.564 3.061c1.343 1.506 2.717 2.981 4.127 4.518l-3.663 5.51c-.69-.171-1.264-.337-1.832-.453-3.993-.802-6.422.245-8.456 3.777a28.347 28.347 0 0 0-1.636 3.613c-.952 2.332-2.222 3.146-4.701 2.797-3.212-.459-5.544-2.167-7.205-5.265h1.466a50.189 50.189 0 0 0 6.105-.238c2.284-.356 3.425-1.904 3.23-3.753-.183-1.708-1.484-2.719-3.749-2.859-.891-.056-1.789 0-3.01 0 .61-.962 1.044-1.617 1.41-2.315.45-.795.828-1.629 1.13-2.491a4.379 4.379 0 0 0-1.477-4.898 3.74 3.74 0 0 0-4.8.392 20.179 20.179 0 0 0-3.223 3.979c-.61.876-.904 1.953-1.52 3.355-.666-2.057-1.148-3.71-1.734-5.326-1.923-5.314-6.24-7.757-11.796-6.735-.983.25-1.983.426-2.991.527-5.453.196-9.195 2.853-11.38 7.8-3.695 8.381-2.938 16.53 1.55 24.341a29.923 29.923 0 0 0 10.416 10.58c4.23 2.626 8.657 4.94 13.004 7.389 6.106 3.459 12.211 6.875 16.961 12.3 3.89 4.426 8.26 4.285 12.48.171.94-.918 1.721-2.008 2.588-3.012.651-.911 1.396-1.75 2.223-2.504 3.938-2.933 5.25-7.096 5.739-11.706.19-1.806.44-3.606.61-5.204 3.944-2.608 6.979-5.381 5.868-10.089 2.204-2.492 4.212-4.751 6.209-6.992 3.895.76 7.876 1.507 11.838 2.327 4.787.986 8.499-.723 11.674-4.286a5326.534 5326.534 0 0 1 27.199-30.225c.66-.729 1.386-1.39 2.412-2.449 0 1.225.043 1.898 0 2.584-.47 6.508-.965 13.022-1.435 19.53-.482 6.734-1.019 13.432-1.398 20.154-.342 6.122 2.516 10.377 8.273 12.446 2.577.931 5.257 1.568 7.882 2.364.837.257 1.649.612 2.375.863 0 1.438-.036 2.553 0 3.673.037 1.12.171 2.192.263 3.331-.751.361-1.295.612-1.832.881-3.504 1.77-4.793 3.98-4.408 7.892.196 1.411.517 2.802.958 4.157.611 2.198.403 3.14-1.379 4.506-2.98 2.283-6.142 2.124-9.769.667.91-.612 1.6-1.016 2.198-1.512 1.404-1.17 2.943-2.229 4.084-3.618 1.386-1.684 1.222-3.619 0-4.721-1.092-.998-2.9-1.01-4.536.049-.745.484-1.416 1.09-2.216 1.721a45.625 45.625 0 0 0-1.221-5.174 4.018 4.018 0 0 0-1.755-2.255 3.999 3.999 0 0 0-2.806-.512 3.994 3.994 0 0 0-2.407 1.228 4.015 4.015 0 0 0-1.079 2.482 12.816 12.816 0 0 0 .067 3.349c.195 1.463.568 2.908.971 4.898-2.027-1.39-3.615-2.449-5.19-3.576a8.974 8.974 0 0 0-7.326-1.273c-4.665 1.004-11.96 8.994-12.211 13.769a21.36 21.36 0 0 0 1.08 7.493c3.23 10.176 13.029 17.32 23.922 17.951 7.1.416 13.987-.931 20.88-2.174 7.327-1.328 14.653-2.35 22.065-.459a6.516 6.516 0 0 0 5.757-1.371 8.28 8.28 0 0 0 3.053-5.81c.281-2.633 0-5.382.666-7.898 1.221-4.573-.196-8.442-2.351-12.244-.952-1.678-1.996-3.306-2.937-4.861 1.649-7.714 1.649-7.714-1.673-12.012.251-3.061.483-5.865.715-8.736 2.619-1.145 5.33-2.278 8.004-3.502 4.176-1.929 6.405-5.272 6.661-9.839.519-9.263.959-18.532 1.41-27.801.245-4.989.44-9.985.69-14.975.562-11.399 1.154-22.799 1.704-34.205.281-5.803.452-11.632.738-17.417.104-2.014.416-4.016.648-6.19h38.629l.744-.049 23.311-1.426c0-.263 0-.533-.043-.796l2.143-.747.708-.251a42.898 42.898 0 0 0 20.197-15.232 43.079 43.079 0 0 0 8.133-23.993c.17-9.076-.189-18.155-1.075-27.189-1.27-14.73-2.137-29.503-3.15-44.257-.202-2.878-.293-5.768-.47-9.398.5 1.145.757 1.58.891 2.051 1.752 6.183 3.517 12.355 5.208 18.55.763 2.798 1.221 3.386 4.194 3.38 2.534 0 5.062-.3 7.589-.515 1.185-.097 2.363-.306 3.487-.459.531.857.928 1.445 1.276 2.064 6.984 12.36 12.693 25.339 18.175 38.416.611 1.476.776 3.153 1.221 4.721.269.967.348 2.314 1.008 2.791 2.204 1.592 2.601 4.01 3.596 6.312-1.6 2.535-3.187 5.021-4.75 7.518-.513.833-1.056 1.647-1.563 2.486-.393.636-.75 1.295-1.068 1.971-.867 1.874-.916 3.821.757 5.351a4.826 4.826 0 0 0 5.665.784c.88-.41 1.716-.918 2.742-1.482.336 1.225.568 2.204.873 3.172.555 1.744.946 3.581 1.776 5.197 2.259 4.408 5.709 5.302 9.342 2.002.227-.178.47-.333.726-.465 5.147.808 6.802-.257 8.823-5.755 2.881-.967 3.877-3.281 3.907-6.061v-.275l.104-.086c.305-.239.507-.416.733-.569 2.326-1.562 2.912-2.333 2.387-4.568ZM230.766 96.223c-4.109-4.384-6.301-9.716-7.442-15.508-1.722-8.749-1.221-17.46.647-26.123.227-.753.53-1.482.903-2.174a24.743 24.743 0 0 1 9.848-14.08c7.724 5.344 16.485 6.734 25.997 5.546-.488.924-.861 1.524-1.141 2.161-1.74 3.949-1.521 7.75 1.013 11.302a34.472 34.472 0 0 0 2.894 3.55 7.785 7.785 0 0 1 2.033 7.347 21.534 21.534 0 0 0-.458 3.63c-.036 1.225.086 2.48 1.832 3.233.733-.74 1.575-1.543 2.357-2.4 2.533-2.78 5.03-5.59 7.57-8.363a7.02 7.02 0 0 1 1.411-1.163c1.831-1.224 3.761-2.149 5.977-.967a6.111 6.111 0 0 1 2.656 2.481 6.135 6.135 0 0 1 .781 3.555c-.293 4.23-1.892 7.96-5.562 10.408a7.312 7.312 0 0 1-8.065.392c-.782-.435-1.612-.778-2.79-1.335-.886 1.225-1.771 2.32-2.442 3.502-4.201 7.127-10.227 12.367-17.23 16.53a20.148 20.148 0 0 1-10.446 2.97 13.516 13.516 0 0 1-10.373-4.494h.03Zm17.852 13.138a2.093 2.093 0 0 1-.69.967c-3.461 3.374-10.379 4.188-14.561 1.708-2.186-1.297-2.583-2.075-2.051-4.499.47-2.161 1.074-4.286 1.618-6.441 6.068 1.616 4.713 2.516 16.203.435.483 2.663-.171 5.24-.549 7.83h.03Zm-25.642.765c1.654-1.01 3.455-1.726 5.495-1.224 2.515 5.363 7.497 7.72 13.554 6.453a16.387 16.387 0 0 0 9.445-5.682c3.052-.208 5.195.686 5.696 2.394.452 1.525-.934 3.478-3.48 4.837-7.217 3.857-14.891 4.481-22.798 3.061a35.654 35.654 0 0 1-6.154-1.684 6.91 6.91 0 0 1-2.876-2.118c-1.721-2.118-1.221-4.647 1.081-6.037h.037Zm-39.441 69.028c-4.396 3.11-9.122 5.761-13.506 8.902-5.873 4.206-11.783 3.392-17.51.196a53.823 53.823 0 0 1-9.518-7.083c-10.093-9.08-17.675-20.204-24.953-31.548-1.978-3.061-3.987-6.159-5.843-9.324a11.298 11.298 0 0 0-5.098-4.629c-2.76-1.31-5.495-2.7-8.132-4.218a14.873 14.873 0 0 1-3.511-2.859c-.574-.612-.678-1.702-1.001-2.577l.812-.747 7.29 2.742c.848-1.408-.049-1.898-.953-2.449a49.072 49.072 0 0 1-4.927-3.018c-1.581-1.224-2.32-2.828-1.111-4.842 1.606-.796 3.004 0 4.274.704 2.21 1.255 4.316 2.687 6.465 4.046.745.472 1.405 1.298 2.503.447.202-1.34-.873-1.959-1.752-2.491-2.863-1.733-5.794-3.368-8.718-4.996-1.88-1.047-2.443-2.137-1.997-3.918.385-1.476 1.35-2.486 2.827-2.211a13.71 13.71 0 0 1 4.756 1.758c1.875 1.224 3.444 2.853 5.202 4.242a29.05 29.05 0 0 0 2.65 1.684c.922-1.488.177-2.143-.525-2.694-2.559-1.996-5.153-3.949-7.742-5.914-.464-.355-.959-.68-1.423-1.004 1.405-2.449 3.004-3.171 4.885-1.586a85.298 85.298 0 0 1 7.937 7.959c.61.661.555 1.916.769 2.908.507 2.4.922 3.153 2.564 4.598 1.081-.404.855-1.182.611-2.002-.476-1.555-1.001-3.104-1.368-4.69-.464-2.001.165-3.814 1.221-5.51a2.919 2.919 0 0 1 1.41-1.349 2.906 2.906 0 0 1 1.942-.157c1.447.319 1.923 1.464 1.917 2.768 0 3.061-.091 6.122-.201 9.183-.287 7.867-1.38 5.681 4.237 11.834a5188.099 5188.099 0 0 0 25.454 27.66 19.604 19.604 0 0 0 4.518 3.521 4.693 4.693 0 0 0 5.708-.564c2.345-2.093 4.543-4.359 6.753-6.605.983-.998 1.831-2.119 2.79-3.208 9.451 3.642 15.727 10.175 19.904 19.297-3.273 2.681-6.307 5.406-9.61 7.744ZM42.97 373.394c.116.759.201 1.304.31 1.99a17.22 17.22 0 0 1-9.768 0c3.431-1.702 6.332-1.996 9.457-1.99Zm-5.099-10.347c1.618 1.745 1.771 2.449.843 4.329-1.252 2.528-3.437 4.108-5.696 5.675-1.46-3.698.793-8.4 4.872-10.004h-.019Zm13.121 58.4c-2.24.521-4.005-.979-5.263-2.522-4.219-5.204-9.768-8.541-15.495-11.681-6.686-3.674-13.512-7.108-19.41-12.079-7.991-6.735-10.94-19.304-6.606-28.683 1.557-3.367 2.68-4.42 6.307-5.51-2.503 3.502-4.316 6.734-5.14 10.53-1.99 9.055.805 16.438 8.12 21.789 3.822 2.792 8.285 4.727 12.528 6.9 1.984 1.016 4.158 1.659 6.221 2.522 4.067 1.69 7.877 3.802 11.07 6.912.81.775 1.662 1.504 2.552 2.186 3.205 2.504 6.343 5.173 11.21 4.549-1.46 2.822-3.444 4.475-6.076 5.087h-.018Zm12.632-12.054c-2.49 5.51-9.695 6.048-12.986 3.44-1.911-1.512-3.907-2.944-5.666-4.622a32.886 32.886 0 0 0-9.872-6.508 1085.81 1085.81 0 0 1-14.531-6.349 24.898 24.898 0 0 1-10.282-8.375c-3.01-4.193-4.182-8.834-3.052-13.873 1-4.402 2.411-8.712 6.16-11.632a11.885 11.885 0 0 1 4.274-2.149c3.254-.796 6.276.423 7.747 3.422 1.38 2.804 2.717 5.841 3.053 8.884.366 3.214-1.001 6.379-2.998 9.085-.61.857-1.22 1.745-1.929 2.774 2.937.428 3.108.214 6.716-7.996 2.784 3.226 3.053 6.734 1.478 10.451-.507 1.224-1.252 2.326-1.832 3.514a22.928 22.928 0 0 0-.77 2.283c2.406-.508 2.406-.508 5.984-9.122 3.45 2.51 7.174 3.778 11.551 2.002 4.555 6.924 10.545 11.736 18.604 13.861.079 3.875-.086 7.475-1.63 10.91h-.019Zm7.027-16.561a23.622 23.622 0 0 1-2.887 2.682 3.328 3.328 0 0 1-1.76.792 3.328 3.328 0 0 1-1.904-.315c-5.891-2.314-10.849-5.798-14.61-10.989-1.099-1.525-1.313-2.89-.537-4.5.398-.93.86-1.832 1.38-2.7 1.831-2.822 3.663-3.275 7.174-1.751-.813 4.108 1.831 6.734 4.371 9.379a10.925 10.925 0 0 0 9.61 3.227c.788 1.836.098 3.091-.818 4.175h-.019Zm-2.234-6.202c-2.656-.067-8.23-4.702-8.578-7.493-.464-3.674 1.728-6.435 3.98-9l13.78 9.759c-2.142 3.483-4.365 6.887-9.182 6.734Zm69.241 34.028c-.213 1.224-.091 2.124-.457 2.448-1.832 1.66-3.572 3.441-6.106 4.047 1.514-2.516 2.845-5.222 6.563-6.471v-.024Zm-12.821-1.653c-.037-1.953.892-3.551 2.088-3.619 1.075-.061 2.131 1.139 2.497 3.061.55 2.866.141 5.627-1.331 8.841a18.402 18.402 0 0 1-3.242-7.959c-.01-.1-.012-.2-.006-.3l-.006-.024Zm48.233 33.366c-.824 1.94-3.004 2.865-5.355 2.577-2.924-.355-5.842-.802-8.779-.961-5.947-.331-11.674 1.365-17.517 2.063-5.037.612-10.08 1.457-15.135 1.518a24.887 24.887 0 0 1-15.149-4.821 25.015 25.015 0 0 1-9.169-13.019c-.891-3.061-1.154-6.171 1.35-9.599.085 1.585.109 2.528.183 3.465.665 8.228 5.635 17.956 16.606 20.203 4.952 1.016 9.903.496 14.794-.747 5.409-1.371 10.806-2.883 16.283-3.894 3.053-.557 6.258-.244 9.396-.275 1.93 0 3.859.165 5.788.098 2.68-.092 5.226-.716 7.595-3.061.519 2.663-.11 4.616-.897 6.477l.006-.024Zm1.905-15.673c1.221 4.763-3.108 10.022-8.304 10.334-1.831.126-3.67.085-5.494-.122a41.585 41.585 0 0 0-15.685 1.31c-4.714 1.224-9.396 2.632-14.171 3.538-4.274.815-8.67.925-12.943-.557-8.927-3.091-13.658-13.009-12.626-21.195.805-6.355 7.1-10.469 13.285-5.749a14.01 14.01 0 0 0 2.204 1.635c4.744 2.29 5.367 6.698 5.855 11.204.122 1.096-.61 2.491 1.649 3.41a16.03 16.03 0 0 0-1.148-10.592c7.406 1.659 8.065 7.629 8.993 13.586 2.07-2.278 1.832-4.359-.727-10.892 4.317-.239 8.359-1.077 10.514-5.638 7.827 2.975 15.471 2.65 23.201-.478 2.375 3.208 4.432 6.477 5.391 10.23l.006-.024Zm-8.737-11.106c-6.008 1.959-11.985 1.598-17.98-.043-1.154-.318-2.027-.863-2.308-2.136a37.597 37.597 0 0 1-.91-3.845c-.33-3.202 1.02-4.898 4.591-5.878 3.419 5.608 13.658 6.698 18.89 1.464 3.34 3.446 2.101 9.03-2.289 10.463l.006-.025Zm-15.111-20.73h16.485c1.221 3.637.219 8.088-2.375 10.139-2.32 1.836-9.158 2.093-11.601-.049-3.01-2.608-2.881-6.374-2.515-10.065l.006-.025Zm36.278-107.708c-.476 10.408-1.044 20.767-1.526 31.15-.928 20.154-1.893 40.315-2.692 60.475-.214 5.345-2.699 8.571-7.443 10.8-9.872 4.622-19.861 4.463-30.032 1.463a68.473 68.473 0 0 1-7.229-2.375c-3.914-1.641-6.191-4.513-5.923-9.012.336-5.51.611-11.02.953-16.475.238-3.674.488-7.347.916-10.965a9.159 9.159 0 0 1 1.343-3.949 14620.513 14620.513 0 0 1 41.84-60.941c1.496-2.173 3.383-4.065 5.013-6.122 1.221-1.549 2.674-2.081 4.799-1.451-.006 2.596.085 5.008-.025 7.427l.006-.025Zm89.952-31.578c-5.874 10.707-14.653 17.644-26.449 20.454a56.65 56.65 0 0 1-12.693 1.408c-20.759.135-41.517.061-62.276.061a17.003 17.003 0 0 0-2.735.092c-.482.08-.903.551-1.868 1.188 3.34 1.463 6.447.171 9.677 1.053-2.21 2.51-4.182 4.787-6.191 7.022l-44.417 49.253c-8.6 9.526-17.207 19.049-25.82 28.567a10.25 10.25 0 0 0-1.221 1.353c-3.413 5.571-8.547 5.754-14.22 4.824-9.768-1.61-17.516-6.826-24.42-13.512-2.443-2.332-4.672-4.836-6.924-7.347-3.108-3.428-4.537-7.554-.672-12.373 4.396-5.51 8.725-11.02 13.34-16.321 13.151-15.073 26.23-30.324 39.814-45.072 12.821-13.965 26.284-27.287 41.04-39.256 9.977-8.13 21.284-12.446 33.904-14.007a344.494 344.494 0 0 1 54.521-2.143c13.432.459 26.815 1.42 40.223 2.173.709.088 1.412.217 2.106.386.226 11.216.837 22.101-4.719 32.197Zm10.177-79.859c-4.548-13.315-6.966-26.974-12.522-39.567l-.879.128a4.386 4.386 0 0 0-.44 1.506c.082.711.289 1.401.611 2.039 2.363 4.898 2.699 10.181 3.053 15.489 1.135 17.908 2.35 35.809 3.535 53.716.256 3.845.543 7.69.836 11.767-.885 0-1.557.062-2.222 0-15.166-1.634-30.314-3.465-45.504-4.897-13.462-1.225-26.962-2.339-40.509-2.009-7.828.19-15.661.558-23.25 2.829-.562.165-1.16.226-2.216.435.61-1.127.989-1.904 1.465-2.608 5.373-8.051 10.813-16.059 16.143-24.14 3.578-5.4 7.046-10.91 10.538-16.42 4.445-7.035 6.661-14.853 7.778-23.001.525-3.827.611-7.714.873-11.577a19.158 19.158 0 0 0-.256-2.768c-1.832.613-1.575 1.837-1.679 2.859-.446 4.157-.708 8.333-1.343 12.459a52.718 52.718 0 0 1-2.925 10.787c-.33-.783-.72-1.542-.989-2.344a42.451 42.451 0 0 0-9.292-15.306c-3.89-4.212-8.878-6.734-14.275-8.485-.775-.251-1.563-.459-2.332-.723-.165-.055-.287-.263-.873-.82 12.949-15.385 27.724-27.795 47.622-33.501.134 1.071.214 1.659.281 2.247.366 3.263 2.131 5.626 5.159 6.6 9.36 3 18.762 3.41 28.085-.3 3.401-1.353 6.337-3.245 7.449-7.163 32.242 8.828 56.23 27.311 71.274 57.732-8.035.429-15.477 2.216-22.761 4.684-7.284 2.467-14.274 5.283-20.435 10.352Zm35.064 44.638c-1.288-2.982-2.595-5.957-3.865-8.951-4.677-10.983-9.616-21.838-15.709-32.13-1.777-3.006-1.484-4.285 1.172-6.538 5.251-4.469 11.167-6.018 17.962-4.2a222.69 222.69 0 0 1 18.86 44.729c-1.612 1.616-3.126 2.626-5.495 1.837-3.444-1.127-6.203.104-8.169 3.061-1.044 1.622-2.314 2.528-4.756 2.192Zm16.008 1.995a5.04 5.04 0 0 1-3.406 4.643 5.003 5.003 0 0 1-2.009.255 5.294 5.294 0 0 1-3.574-1.755 5.322 5.322 0 0 1-1.347-3.755 5.34 5.34 0 0 1 1.785-3.572 5.308 5.308 0 0 1 3.758-1.326 5.082 5.082 0 0 1 3.561 1.737 5.083 5.083 0 0 1 1.232 3.773Zm8.713 18.471c-.764 1.316.152 2.063.665 2.865.769 1.225 1.722 2.29 2.4 3.533 1.263 2.326.75 3.673-1.966 5.265-3.822-2.369-4.848-7.01-7.602-10.2-1.343.349-1.221 1.188-.812 1.935a309.833 309.833 0 0 0 4.634 7.879c.312.514.855.882 1.221 1.378a3.16 3.16 0 0 1-.323 4.175 3.1 3.1 0 0 1-4.17.276 10.504 10.504 0 0 1-2.479-3.062c-1.032-1.983-1.832-4.095-2.686-6.165-.385-.906-.556-1.995-2.32-2.1-.092 2.553.983 4.531 1.831 6.527.849 1.996 1.832 3.814 2.766 5.651-2.375 2.663-4.011 2.675-5.397-.227-1.221-2.547-1.911-5.351-2.784-8.057-.672-2.088-.641-2.1-2.565-3.251-.867.747-1.685 1.715-2.723 2.259a5.037 5.037 0 0 1-3.095.613c-1.49-.319-1.935-1.837-1.05-3.502 1.282-2.449 2.784-4.745 4.194-7.102.29-.538.623-1.052.995-1.537 2.174-2.522 2.681-5.161.715-8.044a7.637 7.637 0 0 1-.519-1.623 26.074 26.074 0 0 1 3.26 0 20.83 20.83 0 0 1 2.314.741c3.48.912 5.898-.104 7.98-3.428.873-1.402 1.685-2.786 3.51-2.964.184.196.422.331.428.484.317 4.769 3.053 8.308 5.843 11.871a71.473 71.473 0 0 1 3.877 5.51 4.854 4.854 0 0 1 .427 4.971c-3.425.166-3.645-4.163-6.569-4.653v-.018ZM397.64 354.281h-18.768c-1.032 3.912-.898 7.646 0 11.993 5.873.178 11.423.178 16.973 0 .61 0 1.221-.527 1.984-.863-.03-3.747.214-7.353-.189-11.13Zm-2.583 9.183h-13.645v-6.202c2.076-.79 9.994-.943 13.645-.22v6.422Z" fill="#022F45"/><path d="M335.639 146.952a17.124 17.124 0 0 1-1.715-1.837c-1.74-2.51-3.303-5.137-5.135-7.573a71.313 71.313 0 0 0-27.554-22.04 17.278 17.278 0 0 1-2.442-1.163 5.87 5.87 0 0 1-1.142-1.457c.11-.196.22-.398.336-.613a8.654 8.654 0 0 1 2.137.362c11.057 4.836 20.704 11.632 28.274 21.103 2.589 3.251 4.885 6.734 7.211 10.187.482.772 1.355 1.641.03 3.031ZM338.6 124.826c-.134.294-.262.612-.391.875-.61-.104-1.355 0-1.782-.349a1774.274 1774.274 0 0 1-17.419-13.793c-.342-.269-.464-.814-.727-1.292 1.325-1.169 2.168-.208 2.98.429a1494.24 1494.24 0 0 1 10.519 8.295c1.667 1.323 3.352 2.633 4.988 3.998.66.551 1.222 1.225 1.832 1.837Z" fill="#022F45"/><path d="M282.101 233.361a18.565 18.565 0 0 0-2.106-.386c-13.432-.753-26.803-1.714-40.223-2.173a344.461 344.461 0 0 0-54.546 2.161c-12.644 1.579-23.951 5.895-33.927 13.995-14.757 11.969-28.232 25.291-41.041 39.256-13.56 14.76-26.638 30.011-39.813 45.102-4.616 5.29-8.945 10.836-13.34 16.322-3.865 4.818-2.443 8.945.67 12.373 2.254 2.492 4.507 4.996 6.924 7.347 6.93 6.685 14.684 11.901 24.422 13.511 5.648.931 10.807.747 14.22-4.824.366-.486.774-.939 1.221-1.353 8.6-9.522 17.207-19.044 25.819-28.566l44.466-49.272c2.009-2.234 3.981-4.512 6.191-7.022-3.23-.882-6.337.41-9.677-1.053.965-.612 1.386-1.108 1.868-1.188a17.011 17.011 0 0 1 2.736-.092c20.758 0 41.516.074 62.275-.061 4.27.011 8.528-.461 12.693-1.408 11.796-2.81 20.575-9.747 26.449-20.454 5.531-10.096 4.921-20.981 4.719-32.215Zm-30.527 8.889c-2.442.533-5.049.827-7.326 1.776-5.037 2.063-8.719 5.51-9.714 11.209-.745 4.286.464 6.692 4.274 8.767.472.293.925.616 1.355.968-.269 1.359-1.081 1.224-1.905 1.016-3.358-.833-6.044-4.531-6.105-8.571a13.967 13.967 0 0 1 3.248-9.324c4.487-5.425 10.477-7.782 17.412-7.91.165 0 .336.202.58.355.269 1.451-.793 1.494-1.813 1.714h-.006Z" fill="#fff"/><path d="M259.462 112.918c-1.112 3.918-4.048 5.81-7.449 7.163-9.323 3.71-18.725 3.3-28.085.3-3.053-.973-4.793-3.336-5.159-6.6-.067-.612-.147-1.175-.281-2.246-19.904 5.705-34.679 18.115-47.622 33.5.61.557.708.766.873.821.769.263 1.557.471 2.332.722 5.397 1.745 10.379 4.286 14.275 8.486a42.433 42.433 0 0 1 9.292 15.305c.269.802.66 1.561.989 2.345a52.766 52.766 0 0 0 2.919-10.769c.61-4.126.897-8.302 1.343-12.459.104-1.016-.165-2.253 1.679-2.859.152.915.238 1.84.256 2.767-.238 3.863-.348 7.751-.873 11.577-1.117 8.149-3.333 15.967-7.778 23.002-3.492 5.51-6.96 11.02-10.55 16.475-5.33 8.081-10.77 16.089-16.143 24.139-.476.705-.843 1.482-1.465 2.609 1.056-.209 1.654-.27 2.216-.435 7.589-2.272 15.422-2.639 23.249-2.829 13.548-.33 27.047.766 40.51 2.008 15.19 1.402 30.338 3.233 45.504 4.898.665.068 1.337 0 2.222 0-.293-4.077-.58-7.922-.837-11.767-1.184-17.907-2.399-35.809-3.535-53.716-.335-5.308-.671-10.585-3.052-15.489a6.074 6.074 0 0 1-.611-2.039 4.386 4.386 0 0 1 .44-1.506l.879-.129c5.556 12.594 7.974 26.253 12.522 39.568 6.16-5.069 13.206-7.959 20.441-10.407 7.235-2.449 14.726-4.286 22.761-4.684-15.031-30.44-39.02-48.923-71.262-57.751Zm-5.715 12.41c-6.966 4.218-14.397 5.981-22.419 3.912a56.554 56.554 0 0 1-7.113-2.602c-.549-.22-.934-.863-1.441-1.359 1.081-1.304 1.954-.527 2.864-.239 2.881.918 5.739 2.002 8.688 2.627 6.172 1.316 11.814-.564 17.229-3.392.946-.49 1.862-1.047 2.937-1.653.91 1.751.012 2.247-.745 2.706Z" fill="#FEB703"/><path d="M187.4 297.178c-.477 10.408-1.044 20.767-1.527 31.15-.928 20.155-1.892 40.315-2.692 60.475-.214 5.345-2.699 8.572-7.443 10.8-9.872 4.622-19.861 4.463-30.032 1.463a68.473 68.473 0 0 1-7.229-2.375c-3.914-1.641-6.191-4.512-5.922-9.012.335-5.51.61-11.02.952-16.475.238-3.673.488-7.347.916-10.965a9.163 9.163 0 0 1 1.343-3.949 14620.184 14620.184 0 0 1 41.84-60.94c1.496-2.174 3.383-4.065 5.013-6.122 1.221-1.549 2.674-2.082 4.799-1.451 0 2.571.091 4.983-.018 7.401ZM193.163 171.428c-3.291 2.663-6.325 5.388-9.628 7.726-4.396 3.111-9.122 5.761-13.505 8.902-5.874 4.206-11.784 3.392-17.511.196a53.823 53.823 0 0 1-9.518-7.083c-10.092-9.08-17.675-20.204-24.953-31.548-1.978-3.061-3.987-6.159-5.843-9.324a11.299 11.299 0 0 0-5.098-4.629c-2.759-1.31-5.495-2.7-8.132-4.218a14.874 14.874 0 0 1-3.51-2.859c-.575-.612-.678-1.702-1.002-2.577l.812-.747 7.29 2.742c.848-1.408-.049-1.897-.953-2.448a49.273 49.273 0 0 1-4.927-3.019c-1.581-1.224-2.32-2.828-1.11-4.842 1.605-.796 3.003 0 4.273.704 2.21 1.255 4.316 2.687 6.466 4.046.744.472 1.404 1.298 2.503.447.201-1.34-.873-1.959-1.753-2.491-2.863-1.733-5.794-3.368-8.718-4.996-1.88-1.047-2.442-2.137-1.996-3.918.384-1.476 1.349-2.486 2.826-2.21 1.681.284 3.293.88 4.756 1.757 1.875 1.224 3.444 2.853 5.202 4.242a29.05 29.05 0 0 0 2.65 1.684c.922-1.488.177-2.143-.525-2.694-2.558-1.996-5.153-3.949-7.742-5.914-.464-.355-.958-.679-1.422-1.004 1.404-2.449 3.004-3.171 4.884-1.586a85.298 85.298 0 0 1 7.937 7.959c.611.662.556 1.917.769 2.908.507 2.4.922 3.153 2.565 4.598 1.08-.404.854-1.181.61-2.002-.476-1.555-1.001-3.104-1.367-4.689-.464-2.002.164-3.815 1.221-5.51a2.914 2.914 0 0 1 1.409-1.35 2.9 2.9 0 0 1 1.942-.156c1.447.318 1.924 1.463 1.918 2.767 0 3.061-.092 6.122-.202 9.183-.287 7.867-1.38 5.682 4.237 11.834a5270.326 5270.326 0 0 0 25.454 27.661 19.627 19.627 0 0 0 4.518 3.52 4.695 4.695 0 0 0 5.708-.563c2.345-2.094 4.543-4.359 6.753-6.606.983-.998 1.832-2.119 2.79-3.208 9.47 3.661 15.746 10.193 19.922 19.315ZM284.183 62.19c-2.216-1.182-4.133-.233-5.977.967a7.02 7.02 0 0 0-1.411 1.163c-2.54 2.773-5.037 5.584-7.57 8.363-.782.857-1.624 1.66-2.357 2.4-1.765-.753-1.887-2.008-1.832-3.233.049-1.22.203-2.435.458-3.63a7.786 7.786 0 0 0-2.033-7.347 34.461 34.461 0 0 1-2.894-3.55c-2.534-3.552-2.753-7.347-1.013-11.302.28-.613.653-1.225 1.141-2.161-9.536 1.224-18.273-.202-25.996-5.547a24.74 24.74 0 0 0-9.849 14.081c-.373.692-.676 1.42-.903 2.173-1.881 8.663-2.369 17.375-.647 26.124 1.141 5.791 3.333 11.124 7.442 15.507a13.54 13.54 0 0 0 10.324 4.464 20.148 20.148 0 0 0 10.447-2.97c7.003-4.163 13.029-9.403 17.229-16.53.696-1.181 1.582-2.253 2.442-3.502 1.179.557 2.009.9 2.791 1.335a7.308 7.308 0 0 0 8.065-.392c3.663-2.449 5.269-6.171 5.562-10.408a6.139 6.139 0 0 0-.783-3.533 6.112 6.112 0 0 0-2.636-2.473Zm-44.441-2.627c.323-.955.683-1.996 2.509-1.47a15.147 15.147 0 0 1-3.334 7.55 9.59 9.59 0 0 1-.854.875c-3.603 3.673-3.597 3.673.116 7.102.311.287.39.826.677 1.469-2.662.557-3.968-1.09-5.202-2.571-1.092-1.304-.964-2.853.049-4.25a14.228 14.228 0 0 1 1.728-2.13 15.72 15.72 0 0 0 4.311-6.575Zm-14.159-6.245a1.727 1.727 0 0 1-.555-.612 2.659 2.659 0 0 1-.141-.294 5.8 5.8 0 0 1 .489-.226l.5-.196.495-.165a8.69 8.69 0 0 1 2.515-.38 7.51 7.51 0 0 1 5.953 2.828c-.788.147-1.508.527-1.935.313a10.204 10.204 0 0 0-5.88-.974 2.24 2.24 0 0 1-1.221-.159.966.966 0 0 1-.22-.135Zm3.48 13.47c-1.386.067-2.442-1.605-2.491-3.931v-.306c.049-2.106 1.056-3.612 2.442-3.674 1.386-.06 2.626 1.666 2.577 3.839-.043 2.082-1.27 4.04-2.528 4.102v-.03Zm8.603 19.241c-2.491.41-5.049.423-6.716-2.026.47-1.225 1.257-1.09 2.051-.722 3.053 1.395 5.678 1.028 7.937-1.556.568-.648 1.301-1.034 2.186-.134-.702 2.798-2.882 3.992-5.458 4.438Zm9.903-15.39c-2.626-1.837-3.218-4.697-1.447-6.833a2.735 2.735 0 0 1 2.015-.986 2.726 2.726 0 0 1 1.678 1.476c1.069 2.265.251 4.493-2.246 6.318v.024Zm7.106-12.588c-2.198-1.837-4.689-2.21-7.418-1.916-.445.043-.94-.423-1.795-.833 4.231-2.192 8.243-1.175 10.758 2.449-.604.116-1.306.471-1.545.275v.025Zm25.851 14.932c-.824.765-1.771 1.292-3.132.184.61-.729 1.129-1.36 1.831-2.18-.036-.557-.085-1.328-.134-2.173 1.221-.717 1.832-.276 2.186.575a3.03 3.03 0 0 1-.751 3.57v.024ZM65.358 398.477c0 3.881-.17 7.481-1.715 10.916-2.492 5.51-9.696 6.049-12.987 3.441-1.91-1.513-3.907-2.945-5.666-4.623a32.885 32.885 0 0 0-9.872-6.508c-4.86-2.081-9.704-4.197-14.53-6.348a24.9 24.9 0 0 1-10.282-8.376c-3.01-4.193-4.183-8.834-3.053-13.873 1.001-4.401 2.412-8.711 6.16-11.632a11.885 11.885 0 0 1 4.274-2.149c3.254-.796 6.276.423 7.748 3.423 1.38 2.804 2.717 5.84 3.053 8.883.366 3.214-1.002 6.379-2.998 9.085-.61.857-1.221 1.745-1.93 2.774 2.937.428 3.108.214 6.716-7.996 2.784 3.227 3.053 6.735 1.478 10.451-.507 1.224-1.252 2.326-1.832 3.514a22.955 22.955 0 0 0-.769 2.283c2.406-.508 2.406-.508 5.983-9.122 3.45 2.51 7.174 3.778 11.552 2.002 4.622 6.906 10.611 11.73 18.67 13.855ZM341.006 223.265c-1.612 1.616-3.126 2.626-5.495 1.837-3.443-1.127-6.203.104-8.169 3.061-1.05 1.592-2.35 2.498-4.774 2.161-1.289-2.982-2.595-5.957-3.865-8.951-4.677-10.983-9.616-21.838-15.709-32.129-1.777-3.006-1.484-4.286 1.172-6.539 5.251-4.469 11.167-6.018 17.962-4.2a222.68 222.68 0 0 1 18.878 44.76ZM353.888 255.535c-3.425.123-3.663-4.23-6.569-4.695-.763 1.316.152 2.063.665 2.865.77 1.224 1.722 2.289 2.4 3.532 1.263 2.327.751 3.674-1.966 5.265-3.822-2.369-4.848-7.01-7.602-10.199-1.343.349-1.221 1.187-.812 1.934a309.89 309.89 0 0 0 4.634 7.88c.312.514.855.881 1.222 1.377a3.157 3.157 0 0 1-.324 4.176 3.1 3.1 0 0 1-4.17.275 10.532 10.532 0 0 1-2.479-3.061c-1.032-1.984-1.831-4.096-2.686-6.165-.385-.906-.556-1.996-2.32-2.1-.092 2.553.983 4.53 1.831 6.526.849 1.996 1.832 3.814 2.766 5.651-2.375 2.663-4.011 2.675-5.397-.227-1.221-2.546-1.911-5.35-2.784-8.056-.672-2.088-.641-2.1-2.564-3.251-.867.747-1.686 1.714-2.723 2.259a5.04 5.04 0 0 1-3.096.612c-1.49-.318-1.935-1.837-1.05-3.502 1.282-2.449 2.784-4.745 4.194-7.102a11.3 11.3 0 0 1 .996-1.536c2.173-2.523 2.68-5.161.714-8.045a7.646 7.646 0 0 1-.519-1.622 26.074 26.074 0 0 1 3.26 0c.785.201 1.558.448 2.314.74 3.48.913 5.898-.104 7.98-3.428.873-1.402 1.685-2.786 3.511-2.963.183.196.421.331.427.484.317 4.769 3.053 8.307 5.843 11.871a71.198 71.198 0 0 1 3.877 5.51 4.853 4.853 0 0 1 .427 4.995Z" fill="#fff"/><path d="M57.104 416.342c-1.477 2.84-3.462 4.493-6.105 5.105-2.241.521-4.006-.979-5.263-2.522-4.22-5.204-9.769-8.54-15.496-11.681-6.685-3.673-13.511-7.108-19.409-12.079-7.992-6.735-10.94-19.304-6.606-28.683 1.557-3.367 2.68-4.42 6.307-5.51-2.503 3.502-4.317 6.735-5.14 10.53-1.991 9.055.805 16.439 8.12 21.789 3.821 2.792 8.284 4.727 12.528 6.9 1.984 1.016 4.157 1.659 6.221 2.522 4.066 1.69 7.876 3.802 11.07 6.912.81.775 1.662 1.504 2.551 2.186 3.193 2.486 6.356 5.155 11.222 4.531ZM253.607 116.879c-7.216 3.857-14.891 4.482-22.797 3.061a35.572 35.572 0 0 1-6.155-1.683 6.907 6.907 0 0 1-2.875-2.118c-1.655-2.1-1.142-4.629 1.148-6.019 1.654-1.01 3.455-1.726 5.495-1.224 2.515 5.363 7.497 7.72 13.554 6.453a16.387 16.387 0 0 0 9.445-5.682c3.052-.208 5.195.686 5.696 2.394.433 1.518-.952 3.459-3.511 4.818ZM70.67 392.832a23.63 23.63 0 0 1-2.888 2.682 3.337 3.337 0 0 1-3.663.477c-5.892-2.314-10.85-5.797-14.61-10.989-1.1-1.525-1.313-2.89-.538-4.5.399-.93.86-1.832 1.38-2.7 1.832-2.822 3.663-3.275 7.174-1.751-.812 4.108 1.831 6.735 4.371 9.379a10.943 10.943 0 0 0 4.41 2.796c1.674.562 3.458.71 5.2.431.77 1.837.08 3.092-.836 4.175Z" fill="#fff"/><path d="M248.588 109.361a2.103 2.103 0 0 1-.69.968c-3.462 3.373-10.379 4.187-14.561 1.708-2.186-1.298-2.583-2.076-2.052-4.5.47-2.161 1.075-4.286 1.618-6.441 6.069 1.616 4.714 2.516 16.204.435.513 2.663-.14 5.24-.519 7.83ZM77.6 379.896c-2.143 3.502-4.366 6.906-9.158 6.777-2.656-.067-8.23-4.702-8.579-7.493-.464-3.674 1.728-6.435 3.981-9l13.756 9.716ZM338.606 232.35a5.061 5.061 0 0 1-1.659 3.615 5.02 5.02 0 0 1-3.756 1.283 5.294 5.294 0 0 1-3.574-1.755 5.327 5.327 0 0 1-1.347-3.755 5.34 5.34 0 0 1 1.785-3.572 5.313 5.313 0 0 1 3.758-1.326 5.082 5.082 0 0 1 3.561 1.737 5.083 5.083 0 0 1 1.232 3.773ZM38.733 367.376c-1.252 2.529-3.438 4.108-5.697 5.676-1.477-3.674.8-8.4 4.884-10.004 1.588 1.745 1.74 2.461.813 4.328ZM43.3 375.384c-3.188.944-6.58.944-9.769 0 3.407-1.733 6.307-2.027 9.451-2.02.123.789.208 1.334.318 2.02ZM395.058 363.482h-13.646v-6.202c2.076-.789 9.995-.942 13.646-.22v6.422Z" fill="#fff"/><path d="M253.326 240.517c.336 1.47-.726 1.513-1.746 1.733-2.442.533-5.049.827-7.326 1.776-5.037 2.063-8.719 5.509-9.714 11.209-.745 4.286.464 6.692 4.274 8.767.472.293.925.616 1.355.968-.268 1.359-1.08 1.224-1.905 1.016-3.358-.833-6.044-4.531-6.105-8.571a13.967 13.967 0 0 1 3.248-9.324c4.488-5.425 10.477-7.782 17.413-7.91.091-.019.262.183.506.336ZM254.492 122.622c.91 1.751 0 2.247-.745 2.706-6.966 4.218-14.396 5.981-22.419 3.912a56.611 56.611 0 0 1-7.113-2.602c-.549-.22-.934-.863-1.441-1.359 1.081-1.304 1.954-.527 2.864-.239 2.882.919 5.739 2.002 8.688 2.627 6.172 1.316 11.814-.564 17.229-3.392.947-.49 1.863-1.047 2.937-1.653ZM242.251 58.094a15.138 15.138 0 0 1-3.334 7.548 9.577 9.577 0 0 1-.854.876c-3.603 3.673-3.596 3.673.116 7.102.311.287.39.826.677 1.469-2.662.557-3.968-1.09-5.201-2.571-1.093-1.304-.965-2.853.048-4.25a14.287 14.287 0 0 1 1.728-2.13 15.72 15.72 0 0 0 4.311-6.575c.323-.955.683-1.996 2.509-1.47ZM247.569 70.614c-2.626-1.837-3.218-4.696-1.447-6.833a2.725 2.725 0 0 1 2.014-.985 2.722 2.722 0 0 1 1.679 1.475c1.069 2.29.251 4.518-2.246 6.343ZM231.591 62.765c-.043 2.026-1.27 3.986-2.528 4.047-1.386.067-2.442-1.604-2.491-3.93v-.307c.049-2.106 1.057-3.612 2.442-3.673 1.386-.061 2.614 1.696 2.577 3.863ZM230.943 83.978c.47-1.224 1.258-1.09 2.052-.722 3.052 1.396 5.678 1.029 7.937-1.555.568-.649 1.3-1.035 2.186-.135-.703 2.823-2.882 4.016-5.459 4.439-2.576.422-5.043.422-6.716-2.026ZM245.462 55.278c4.231-2.192 8.242-1.176 10.758 2.448-.611.135-1.307.496-1.545.3-2.198-1.836-4.689-2.21-7.418-1.916-.446.043-.94-.422-1.795-.832ZM224.869 52.357v.037h-.043l.043-.037ZM234.839 54.261c-.788.147-1.508.527-1.936.312a10.202 10.202 0 0 0-5.879-.973 2.24 2.24 0 0 1-1.221-.16 1.307 1.307 0 0 1-.22-.122 1.728 1.728 0 0 1-.556-.612 2.484 2.484 0 0 1-.14-.294c.165-.085.323-.159.488-.226l.501-.196.494-.166a8.796 8.796 0 0 1 2.516-.38 7.528 7.528 0 0 1 5.953 2.816ZM279.066 68.79c1.222-.717 1.832-.276 2.186.575a3.034 3.034 0 0 1-.726 3.594c-.825.765-1.771 1.291-3.132.183.61-.728 1.129-1.359 1.831-2.18a47.57 47.57 0 0 1-.159-2.173ZM375.257 251.194l-2.9 95.336-1.984-95.36 4.884.024Z" fill="#022F45"/></g><defs><clipPath id="a"><path fill="#fff" d="M0 0h469v381H0z"/></clipPath></defs></svg>