<svg width="158" height="157" fill="none" xmlns="http://www.w3.org/2000/svg"><circle cx="79.062" cy="78.236" r="77.736" fill="#fff" stroke="#022F45"/><path d="M123.642 75.198v.037l.232.029 5.65.709-4.622-.61-1.26-.165ZM88.031 46.324v45.991H25.532V46.324h62.5Zm-.797.797H26.33v44.397h60.905V47.12Z" fill="#022F45"/><path d="M26.329 47.12v44.398h12.436a11.47 11.47 0 0 1 13.085 0h35.384V47.121H26.33Z" fill="#fff"/><path d="m123.786 58.657 6.535 17.23-.848-.08-4.564-.444-1.009-.1-.647-.062-1.101-.11-.812-.077-16.592-1.608v-14.75h19.038Zm-18.539 14.275 15.587 1.51 1.171.113 7.285.705.257.026-4.814-12.675-1.307-3.448h-18.179v13.77Z" fill="#022F45"/><path d="m118.374 71.743.188.206 2.258 2.493.473.52.008.052 2.438 16.526.11.75.782-.114-.092-.632-2.427-16.453-.07-.48-.051-.056-2.365-2.607-.668-.738-.584.533ZM97.42 55.76v29.902h.79v-29.11h16.618l2.599 2.02.11.085.334.26.338.261.283.22.172-.22.202-.26.111-.144-.151-.117-2.471-1.92-1.256-.977H97.42Z" fill="#022F45"/><path d="M117.32 58.917h2.827v13.031h-2.827v-13.03Z" fill="#022F45"/><path d="M91.912 91.595V53.046h30.005c.164.247.309.506.433.775a6063.03 6063.03 0 0 1 8.757 23.925c.214.621.323 1.274.323 1.931.039 4.213.071 8.425.096 12.638h.036l-.029 1.347c0 1.858.01 3.716.029 5.574-.032.57-.095 1.137-.19 1.7H25.532v-9.34h66.38Zm31.187-.062H130.476v-2.427l-1.649-.555c-.099-2.449-.066-4.909 0-7.398l1.634-.367c.441-1.73 0-3.198-.918-4.81l-.059-.165-.198-.547-4.553-12.653-.786-2.185-.642-1.784-.048-.132c-.385-1.04-.752-2.049-1.142-3.062l-.367-1.017-.216-.584H93.05c-.367 1.597-.447 29.531-.055 31.815h4.817l.397-.033.668-.052a19.85 19.85 0 0 1 14.026 5.956h10.196Z" fill="#022F45"/><path d="m122.111 75.095 2.427 16.449h5.937v-2.427l-1.648-.555c-.099-2.449-.066-4.909 0-7.398l1.634-.367c.44-1.73 0-3.198-.918-4.81l-5.651-.709-.646-.062-1.135-.121Z" fill="#fff"/><path d="m119.626 71.948 2.365 2.607 7.284.705-4.541-12.634-1.308-3.448h-3.278v12.77h-.522Z" fill="#9AACB5"/><path d="M105.233 59.178v13.754l15.586 1.51-2.258-2.494h-1.241v-12.77h-12.087Z" fill="#9AACB5"/><path d="M98.21 56.553V85.63l.667-.051a19.854 19.854 0 0 1 14.026 5.955H123.738L121.3 75.011l-16.592-1.608V58.657h12.829l-.11-.084-2.6-2.02H98.209Z" fill="#fff"/><path d="M92.988 85.662h4.431V55.76h17.68l1.255.977 2.479 1.92h4.457l-.048-.129-1.501-4.094-.217-.583H93.043c-.386 1.593-.448 29.527-.055 31.81ZM45.308 96.16a4.773 4.773 0 1 1 0 9.545 4.773 4.773 0 0 1 0-9.546Zm0 8.668a3.884 3.884 0 1 0-3.59-2.396 3.894 3.894 0 0 0 2.102 2.106c.472.196.977.297 1.488.297v-.007Z" fill="#fff"/><path d="M45.308 89.918a11.015 11.015 0 1 1-11.015 11.014 11.037 11.037 0 0 1 11.015-11.014Zm0 21.6a10.587 10.587 0 0 0 10.575-10.574 10.556 10.556 0 0 0-4.469-8.622 10.234 10.234 0 0 0-1.314-.811 10.535 10.535 0 0 0-9.583 0 10.234 10.234 0 0 0-1.314.811 10.556 10.556 0 0 0-4.47 8.622 10.588 10.588 0 0 0 10.575 10.574Z" fill="#fff"/><path d="M37.744 92.315c.29-.253.595-.492.907-.734l.113-.077a11.47 11.47 0 0 1 13.086 0l.114.077a11.506 11.506 0 0 1 4.817 9.355 11.476 11.476 0 0 1-11.472 11.269 11.476 11.476 0 0 1-11.472-11.269 11.457 11.457 0 0 1 3.907-8.62Zm-3.011 8.629a10.575 10.575 0 0 0 21.149 0 10.556 10.556 0 0 0-4.469-8.621 10.243 10.243 0 0 0-1.314-.812 10.534 10.534 0 0 0-9.583 0 10.243 10.243 0 0 0-1.314.811 10.556 10.556 0 0 0-4.47 8.622Z" fill="#022F45"/><path d="M39.202 92.315a10.22 10.22 0 0 1 1.314-.812 10.535 10.535 0 0 1 9.583 0 10.22 10.22 0 0 1 1.314.811 10.555 10.555 0 0 1 4.469 8.622 10.574 10.574 0 0 1-21.149 0 10.558 10.558 0 0 1 4.469-8.621Zm6.105 13.409a4.77 4.77 0 0 0 4.41-2.947 4.774 4.774 0 1 0-4.41 2.947Z" fill="#fff"/><path d="M45.308 96.16a4.773 4.773 0 1 1 0 9.545 4.773 4.773 0 0 1 0-9.546Zm0 8.668a3.884 3.884 0 1 0-3.59-2.396 3.894 3.894 0 0 0 2.102 2.106c.472.196.977.297 1.488.297v-.007Z" fill="#022F45"/><path d="M41.468 101.577a3.884 3.884 0 1 1 7.669-1.244 3.884 3.884 0 0 1-7.669 1.244ZM101.654 96.16a4.77 4.77 0 0 1 4.409 2.946 4.77 4.77 0 0 1-3.478 6.508 4.777 4.777 0 0 1-4.9-2.03 4.775 4.775 0 0 1 3.969-7.425Zm0 8.668a3.884 3.884 0 1 0-2.748-1.135 3.895 3.895 0 0 0 2.748 1.142v-.007Z" fill="#fff"/><path d="M101.653 89.918a11.017 11.017 0 0 1 10.176 6.8 11.012 11.012 0 0 1-2.387 12.003 11.013 11.013 0 0 1-16.948-1.669 11.015 11.015 0 0 1-1.856-6.12 11.033 11.033 0 0 1 11.015-11.014Zm0 21.6a10.576 10.576 0 0 0 10.379-12.641 10.576 10.576 0 0 0-8.313-8.312 10.577 10.577 0 1 0-2.066 20.953Z" fill="#fff"/><path d="M101.653 89.47a11.476 11.476 0 0 1 11.27 13.703 11.475 11.475 0 1 1-11.27-13.704Zm0 22.048a10.585 10.585 0 0 0 9.776-6.529 10.578 10.578 0 1 0-20.35-4.046 10.584 10.584 0 0 0 10.574 10.575Z" fill="#022F45"/><path d="M101.654 90.365a10.576 10.576 0 0 1 9.775 6.528 10.577 10.577 0 0 1-13.819 13.824 10.585 10.585 0 0 1-6.53-9.774 10.589 10.589 0 0 1 10.574-10.578Zm0 15.359a4.77 4.77 0 0 0 4.681-5.705 4.775 4.775 0 0 0-6.508-3.478 4.773 4.773 0 0 0 1.827 9.183Z" fill="#fff"/><path d="M101.654 96.16a4.77 4.77 0 0 1 4.409 2.946 4.77 4.77 0 0 1-3.478 6.508 4.777 4.777 0 0 1-4.9-2.03 4.775 4.775 0 0 1 3.969-7.425Zm0 8.668a3.884 3.884 0 1 0-2.748-1.135 3.895 3.895 0 0 0 2.748 1.142v-.007Z" fill="#022F45"/><path d="M98.905 103.69a3.885 3.885 0 1 1 5.494-5.494 3.885 3.885 0 0 1-5.494 5.494Z" fill="#fff"/></svg>