<svg width="80" height="80" viewBox="0 0 80 80" fill="none" xmlns="http://www.w3.org/2000/svg">
<circle cx="40" cy="40" r="39" fill="white" stroke="#022F45" stroke-width="2"/>
<g clip-path="url(#clip0_118_19597)">
<path d="M59.67 38.3407V46.6043C59.6674 47.7787 59.3078 48.9246 58.6388 49.8899C57.9698 50.8552 57.0231 51.5943 55.9243 52.009C56.2285 52.6835 56.3778 53.4175 56.3613 54.1571C56.3448 54.8968 56.1628 55.6234 55.8289 56.2836C55.4949 56.9438 55.0174 57.5209 54.4313 57.9725C53.8452 58.424 53.1655 58.7386 52.442 58.8932C51.7184 59.0478 50.9695 59.0385 50.25 58.8658C49.5306 58.6932 48.8589 58.3617 48.2843 57.8956C47.7097 57.4295 47.2468 56.8407 46.9294 56.1723C46.6121 55.504 46.4484 54.7731 46.4504 54.0332C46.4523 53.471 46.5512 52.9133 46.7425 52.3846H32.9281C33.1161 52.9139 33.2115 53.4716 33.2099 54.0332C33.2099 55.3476 32.6877 56.6082 31.7583 57.5377C30.8288 58.4671 29.5682 58.9893 28.2538 58.9893C26.9394 58.9893 25.6788 58.4671 24.7493 57.5377C23.8199 56.6082 23.2977 55.3476 23.2977 54.0332C23.2997 53.334 23.4527 52.6435 23.7464 52.009C22.6498 51.5934 21.706 50.8535 21.0405 49.8879C20.375 48.9224 20.0196 47.777 20.0215 46.6043V29.9102C20.0441 28.2591 20.5166 26.6455 21.3882 25.243C22.2598 23.8405 23.4975 22.7024 24.9679 21.9511C26.4383 21.1998 28.0858 20.8638 29.733 20.9793C31.3802 21.0948 32.9646 21.6574 34.3158 22.6065H40.7744C42.722 22.642 44.578 23.44 45.9437 24.8291C47.3093 26.2181 48.0756 28.0874 48.0781 30.0354V30.891H52.2516C54.2228 30.8965 56.1113 31.6841 57.5022 33.0809C58.8931 34.4777 59.6728 36.3695 59.67 38.3407Z" fill="#FFDD87"/>
<path d="M30.1522 32.3207C30.3092 32.4723 30.5183 32.5581 30.7365 32.5607C30.9552 32.5603 31.165 32.4741 31.3208 32.3207C31.3978 32.2441 31.4588 32.153 31.5005 32.0528C31.5422 31.9525 31.5637 31.845 31.5637 31.7364C31.5637 31.6278 31.5422 31.5203 31.5005 31.42C31.4588 31.3197 31.3978 31.2287 31.3208 31.1521L29.9122 29.7435V26.7803C29.9122 26.5617 29.8254 26.3521 29.6708 26.1975C29.5162 26.0429 29.3066 25.9561 29.088 25.9561C28.8693 25.9561 28.6597 26.0429 28.5051 26.1975C28.3505 26.3521 28.2637 26.5617 28.2637 26.7803V30.0878C28.2633 30.1962 28.2843 30.3036 28.3255 30.4039C28.3667 30.5042 28.4272 30.5953 28.5037 30.6721L30.1522 32.3207Z" fill="#022F45"/>
<path d="M52.2203 30.8912H48.0468V30.0669C48.0471 28.1181 47.2816 26.2473 45.9154 24.8576C44.5492 23.468 42.6916 22.6708 40.7431 22.638H34.2741C32.9239 21.6879 31.3399 21.1246 29.6929 21.0087C28.046 20.8928 26.3987 21.2288 24.9287 21.9805C23.4587 22.7321 22.2219 23.8708 21.3516 25.2738C20.4813 26.6768 20.0106 28.2908 19.9902 29.9417V46.6358C19.9937 47.8113 20.3535 48.9582 21.0222 49.925C21.691 50.8918 22.6372 51.6331 23.736 52.051C23.4445 52.6821 23.295 53.3695 23.2978 54.0647C23.2937 54.7887 23.4484 55.5048 23.7508 56.1626C24.0532 56.8205 24.4961 57.404 25.0483 57.8723C25.6006 58.3406 26.2487 58.6822 26.9471 58.8731C27.6455 59.064 28.3772 59.0995 29.0908 58.9772C29.8045 58.8549 30.4826 58.5778 31.0776 58.1652C31.6726 57.7527 32.17 57.2148 32.5348 56.5894C32.8996 55.964 33.1229 55.2662 33.1891 54.5452C33.2552 53.8242 33.1626 53.0975 32.9177 52.4161H46.7113C46.4664 53.0975 46.3738 53.8242 46.4399 54.5452C46.5061 55.2662 46.7294 55.964 47.0942 56.5894C47.459 57.2148 47.9564 57.7527 48.5514 58.1652C49.1464 58.5778 49.8245 58.8549 50.5382 58.9772C51.2518 59.0995 51.9835 59.064 52.6819 58.8731C53.3804 58.6822 54.0285 58.3406 54.5807 57.8723C55.1329 57.404 55.5758 56.8205 55.8782 56.1626C56.1807 55.5048 56.3353 54.7887 56.3313 54.0647C56.3341 53.3695 56.1845 52.6821 55.893 52.051C57.0035 51.6375 57.9607 50.8939 58.636 49.9202C59.3112 48.9465 59.6721 47.7894 59.6701 46.6045V38.3409C59.6715 37.3622 59.4797 36.3929 59.1058 35.4884C58.7319 34.5839 58.1832 33.7621 57.4912 33.0701C56.7991 32.378 55.9773 31.8293 55.0728 31.4554C54.1684 31.0815 53.199 30.8898 52.2203 30.8912ZM29.0885 22.6484C30.5599 22.6484 31.9982 23.0847 33.2216 23.9022C34.445 24.7196 35.3985 25.8815 35.9616 27.2409C36.5246 28.6002 36.672 30.096 36.3849 31.5391C36.0979 32.9822 35.3893 34.3077 34.3489 35.3481C33.3085 36.3886 31.983 37.0971 30.5399 37.3841C29.0968 37.6712 27.601 37.5239 26.2416 36.9608C24.8823 36.3977 23.7204 35.4442 22.903 34.2208C22.0855 32.9974 21.6492 31.5591 21.6492 30.0878C21.6492 28.1147 22.433 26.2225 23.8281 24.8274C25.2233 23.4322 27.1155 22.6484 29.0885 22.6484ZM28.2643 57.3409C27.3871 57.3409 26.5458 56.9924 25.9255 56.3722C25.3052 55.7519 24.9567 54.9106 24.9567 54.0334C24.9549 53.4473 25.1175 52.8725 25.4263 52.3744H31.1127C31.4044 52.8754 31.5588 53.4444 31.5605 54.0241C31.5621 54.6038 31.4108 55.1737 31.122 55.6763C30.8331 56.1789 30.4168 56.5965 29.9151 56.8869C29.4134 57.1773 28.844 57.3303 28.2643 57.3305V57.3409ZM46.4296 50.7154H25.781C24.6741 50.7154 23.6126 50.2757 22.8299 49.493C22.0472 48.7103 21.6075 47.6488 21.6075 46.5419V35.2942C23.0658 37.2147 25.2273 38.4772 27.6165 38.8039C30.0056 39.1307 32.4267 38.495 34.3472 37.0367C36.2676 35.5784 37.5301 33.4169 37.8569 31.0277C38.1837 28.6385 37.5479 26.2174 36.0896 24.297H40.6492C42.1832 24.2997 43.6534 24.9111 44.7372 25.9967C45.8209 27.0824 46.4296 28.5538 46.4296 30.0878V50.7154ZM51.3856 57.32C50.5102 57.3173 49.6716 56.9676 49.0536 56.3476C48.4356 55.7276 48.0885 54.8879 48.0885 54.0125C48.0903 53.4317 48.2489 52.8621 48.5476 52.364H54.234C54.5341 52.8654 54.6928 53.4386 54.6931 54.023C54.6945 54.4582 54.61 54.8894 54.4444 55.2919C54.2788 55.6944 54.0354 56.0602 53.7281 56.3685C53.4208 56.6767 53.0557 56.9213 52.6538 57.0881C52.2518 57.255 51.8208 57.3409 51.3856 57.3409V57.32ZM58.0007 46.5836C58.0007 47.6905 57.561 48.7521 56.7783 49.5348C55.9956 50.3175 54.934 50.7572 53.8271 50.7572H48.0885V42.4727H58.0007V46.5836ZM58.0007 40.8033H48.0885V32.5606H52.2621C53.7943 32.5633 55.2629 33.1732 56.3463 34.2566C57.4298 35.3401 58.0396 36.8087 58.0424 38.3409L58.0007 40.8033Z" fill="#022F45"/>
</g>
<defs>
<clipPath id="clip0_118_19597">
<rect width="39.6485" height="38" fill="white" transform="translate(20 21)"/>
</clipPath>
</defs>
</svg>
