<svg width="25" height="24" fill="none" xmlns="http://www.w3.org/2000/svg"><path d="M10.56 5.328V7.23c0 1.006-.264 1.692-.701 2.129-.437.437-1.123.701-2.129.701h-1.9c-1.006 0-1.692-.264-2.129-.701C3.264 8.922 3 8.236 3 7.23v-1.9c0-1.006.264-1.692.702-2.129C4.14 2.765 4.828 2.5 5.84 2.5h1.9c1.006 0 1.692.265 2.127.7.435.437.698 1.122.693 2.128ZM17.27 2.5h1.9c1.007 0 1.693.264 2.13.701.436.437.7 1.123.7 2.129v1.9c0 1.006-.264 1.692-.7 2.129-.437.437-1.123.701-2.13.701h-1.9c-1.006 0-1.692-.264-2.128-.701-.437-.437-.702-1.123-.702-2.129v-1.9c0-1.006.265-1.692.702-2.129.436-.437 1.122-.701 2.128-.701ZM17.27 13.93h1.9c1.007 0 1.693.265 2.13.701.436.437.7 1.123.7 2.13v1.9c0 1.005-.264 1.691-.7 2.128-.437.437-1.123.701-2.13.701h-1.9c-1.006 0-1.692-.264-2.128-.7-.437-.438-.702-1.124-.702-2.13v-1.9c0-1.006.265-1.692.702-2.129.436-.436 1.122-.7 2.128-.7ZM10.56 16.768v1.902c0 1.006-.264 1.692-.701 2.13-.437.436-1.123.7-2.129.7h-1.9c-1.006 0-1.692-.264-2.129-.702C3.265 20.361 3 19.672 3 18.66v-1.9c0-1.006.264-1.692.702-2.128.438-.437 1.126-.702 2.138-.702h1.9c1.006 0 1.692.265 2.127.702.435.437.698 1.125.693 2.136Z" fill="#fff" stroke="#022F45"/></svg>