<svg width="24" height="24" viewBox="0 0 24 24" fill="none" xmlns="http://www.w3.org/2000/svg">
<path fill-rule="evenodd" clip-rule="evenodd" d="M8 1C8.26522 1 8.51957 1.10536 8.70711 1.29289C8.89464 1.48043 9 1.73478 9 2V3H15V2C15 1.73478 15.1054 1.48043 15.2929 1.29289C15.4804 1.10536 15.7348 1 16 1C16.2652 1 16.5196 1.10536 16.7071 1.29289C16.8946 1.48043 17 1.73478 17 2V3C17.46 3 17.86 3.003 18.195 3.03C18.59 3.063 18.983 3.134 19.361 3.327C19.9257 3.61419 20.385 4.07276 20.673 4.637C20.866 5.016 20.937 5.409 20.97 5.804C21 6.178 21 6.632 21 7.158V16.842C21 17.368 21 17.822 20.97 18.196C20.937 18.591 20.866 18.984 20.673 19.362C20.3851 19.9266 19.9258 20.3855 19.361 20.673C18.983 20.866 18.591 20.937 18.196 20.969C17.822 21 17.368 21 16.842 21H7.158C6.632 21 6.178 21 5.804 20.97C5.409 20.937 5.016 20.866 4.638 20.673C4.07354 20.3854 3.61462 19.9265 3.327 19.362C3.134 18.984 3.063 18.59 3.031 18.195C3 17.821 3 17.365 3 16.84V7.162C3 6.634 3 6.18 3.03 5.805C3.063 5.41 3.134 5.016 3.327 4.638C3.6143 4.07365 4.07287 3.61473 4.637 3.327C5.017 3.134 5.41 3.063 5.805 3.031C6.141 3.003 6.541 3 7 3V2C7 1.73478 7.10536 1.48043 7.29289 1.29289C7.48043 1.10536 7.73478 1 8 1ZM5.968 5.024C5.696 5.046 5.595 5.084 5.546 5.109C5.35785 5.20487 5.20487 5.35785 5.109 5.546C5.084 5.596 5.046 5.696 5.024 5.968C5.004 6.217 5 6.535 5 7H19C19 6.534 18.997 6.216 18.976 5.967C18.954 5.696 18.916 5.595 18.891 5.546C18.7949 5.35769 18.6415 5.2047 18.453 5.109C18.403 5.084 18.303 5.046 18.032 5.024C17.749 5 17.377 5 16.8 5H7.2C6.624 5 6.251 5 5.968 5.024ZM19 9H5V16.8C5 17.377 5 17.749 5.024 18.032C5.046 18.304 5.084 18.404 5.109 18.454C5.20487 18.6422 5.35785 18.7951 5.546 18.891C5.595 18.916 5.696 18.954 5.966 18.976C6.25 18.999 6.621 19 7.196 19H16.803C17.379 19 17.75 19 18.033 18.976C18.303 18.954 18.404 18.916 18.453 18.891C18.643 18.795 18.796 18.641 18.891 18.454C18.916 18.404 18.954 18.304 18.976 18.034C18.999 17.751 19 17.379 19 16.804V9ZM7 12C7 11.7348 7.10536 11.4804 7.29289 11.2929C7.48043 11.1054 7.73478 11 8 11H8.002C8.13528 11 8.26722 11.0266 8.39007 11.0783C8.51292 11.1299 8.6242 11.2057 8.71736 11.301C8.81053 11.3963 8.8837 11.5093 8.93258 11.6333C8.98146 11.7572 9.00507 11.8898 9.002 12.023V12.025C8.99902 12.1564 8.97015 12.286 8.91705 12.4062C8.86396 12.5265 8.78767 12.6351 8.69257 12.7258C8.59746 12.8166 8.48539 12.8877 8.36278 12.935C8.24017 12.9824 8.10941 13.0052 7.978 13.002H7.976C7.71496 12.9957 7.46673 12.8876 7.28436 12.7008C7.10198 12.5139 6.99992 12.2631 7 12.002V12ZM11 12C11 11.7348 11.1054 11.4804 11.2929 11.2929C11.4804 11.1054 11.7348 11 12 11H12.002C12.1353 11 12.2672 11.0266 12.3901 11.0783C12.5129 11.1299 12.6242 11.2057 12.7174 11.301C12.8105 11.3963 12.8837 11.5093 12.9326 11.6333C12.9815 11.7572 13.0051 11.8898 13.002 12.023V12.025C12.999 12.1564 12.9701 12.286 12.9171 12.4062C12.864 12.5265 12.7877 12.6351 12.6926 12.7258C12.5975 12.8166 12.4854 12.8877 12.3628 12.935C12.2402 12.9824 12.1094 13.0052 11.978 13.002H11.976C11.715 12.9957 11.4667 12.8876 11.2844 12.7008C11.102 12.5139 10.9999 12.2631 11 12.002V12ZM15 12C15 11.7348 15.1054 11.4804 15.2929 11.2929C15.4804 11.1054 15.7348 11 16 11H16.002C16.2672 11 16.5216 11.1054 16.7091 11.2929C16.8966 11.4804 17.002 11.7348 17.002 12V12.002C17.002 12.1354 16.9754 12.2674 16.9237 12.3903C16.8719 12.5132 16.7961 12.6246 16.7007 12.7177C16.6053 12.8109 16.4922 12.8841 16.3681 12.9329C16.2439 12.9817 16.1113 13.0052 15.978 13.002H15.976C15.715 12.9957 15.4667 12.8876 15.2844 12.7008C15.102 12.5139 14.9999 12.2631 15 12.002V12ZM7 16C7 15.7348 7.10536 15.4804 7.29289 15.2929C7.48043 15.1054 7.73478 15 8 15H8.002C8.13528 15 8.26722 15.0266 8.39007 15.0783C8.51292 15.1299 8.6242 15.2057 8.71736 15.301C8.81053 15.3963 8.8837 15.5093 8.93258 15.6333C8.98146 15.7572 9.00507 15.8898 9.002 16.023V16.025C8.99902 16.1564 8.97015 16.286 8.91705 16.4062C8.86396 16.5265 8.78767 16.6351 8.69257 16.7258C8.59746 16.8166 8.48539 16.8877 8.36278 16.935C8.24017 16.9824 8.10941 17.0052 7.978 17.002H7.976C7.71496 16.9957 7.46673 16.8876 7.28436 16.7008C7.10198 16.5139 6.99992 16.2631 7 16.002V16ZM11 16C11 15.7348 11.1054 15.4804 11.2929 15.2929C11.4804 15.1054 11.7348 15 12 15H12.002C12.1353 15 12.2672 15.0266 12.3901 15.0783C12.5129 15.1299 12.6242 15.2057 12.7174 15.301C12.8105 15.3963 12.8837 15.5093 12.9326 15.6333C12.9815 15.7572 13.0051 15.8898 13.002 16.023V16.025C12.999 16.1564 12.9701 16.286 12.9171 16.4062C12.864 16.5265 12.7877 16.6351 12.6926 16.7258C12.5975 16.8166 12.4854 16.8877 12.3628 16.935C12.2402 16.9824 12.1094 17.0052 11.978 17.002H11.976C11.715 16.9957 11.4667 16.8876 11.2844 16.7008C11.102 16.5139 10.9999 16.2631 11 16.002V16ZM15 16C15 15.7348 15.1054 15.4804 15.2929 15.2929C15.4804 15.1054 15.7348 15 16 15H16.002C16.1353 15 16.2672 15.0266 16.3901 15.0783C16.5129 15.1299 16.6242 15.2057 16.7174 15.301C16.8105 15.3963 16.8837 15.5093 16.9326 15.6333C16.9815 15.7572 17.0051 15.8898 17.002 16.023V16.025C16.999 16.1564 16.9701 16.286 16.9171 16.4062C16.864 16.5265 16.7877 16.6351 16.6926 16.7258C16.5975 16.8166 16.4854 16.8877 16.3628 16.935C16.2402 16.9824 16.1094 17.0052 15.978 17.002H15.976C15.715 16.9957 15.4667 16.8876 15.2844 16.7008C15.102 16.5139 14.9999 16.2631 15 16.002V16Z" fill="#9AACB5"/>
</svg>
