<svg width="118" height="118" fill="none" xmlns="http://www.w3.org/2000/svg"><circle cx="59.325" cy="59.003" r="58.177" fill="#fff" stroke="#022F45"/><g clip-path="url(#a)"><path d="M87.834 71.624c0 2.019-.224 8.71-3.06 14.876a22.894 22.894 0 0 1-2.49 4.229 14.447 14.447 0 0 1-1.87 2.121c-3.382 3.21-8.521 4.892-14.74 4.892a38.92 38.92 0 0 1-4.457-.267A49.06 49.06 0 0 1 40.05 89.64c-11.643-7.943-16.063-20.09-17.66-26.632-1.225-4.896-3.407-18.025 4.499-29.434a34.705 34.705 0 0 1 5.84-6.542.229.229 0 0 1 0-.056h.047a29.186 29.186 0 0 1 9.218-5.387 31.024 31.024 0 0 1 9.765-1.714c12.643-.108 22.273 8.223 26.165 12.217l14.782-8.41a1.323 1.323 0 0 1 1.8.496 1.322 1.322 0 0 1-.496 1.799L79.798 34.05a26.098 26.098 0 0 1 5.607 10.377c.93 3.41 1.164 6.973.687 10.475 3.032-1.504 6.134-1.729 8.456-.383a6.626 6.626 0 0 1 3.135 4.313c.986 4.405-3.153 9.727-9.849 12.792Z" fill="#fff"/><path d="M100.015 58.336a8.987 8.987 0 0 0-4.247-5.854 9.943 9.943 0 0 0-7.055-.935 28.611 28.611 0 0 0-1.01-7.732 28.136 28.136 0 0 0-4.344-9.078l11.839-6.728a3.668 3.668 0 0 0 1.364-4.985 3.667 3.667 0 0 0-4.98-1.37l-13.246 7.527c-4.523-4.303-14.045-11.647-26.29-11.647h-.262a33.639 33.639 0 0 0-10.531 1.869 31.524 31.524 0 0 0-9.07 5.083l-1.508 1.28a37.731 37.731 0 0 0-5.668 6.5C17.84 42.613 18.391 54.177 19.545 60.7h-.107l.705 2.892c1.678 6.873 6.327 19.624 18.62 28.006a51.502 51.502 0 0 0 22.23 8.2c1.57.183 3.148.277 4.728.28 6.882 0 12.536-1.911 16.353-5.532.787-.742 1.5-1.56 2.13-2.439a25.098 25.098 0 0 0 2.724-4.63c2.51-5.448 3.117-11.167 3.243-14.381 6.929-3.645 10.947-9.564 9.844-14.76ZM86.863 69.49l-1.364.626v1.5c0 1.808-.206 8.157-2.85 13.904a20.563 20.563 0 0 1-2.234 3.799l-.037.051c-.457.64-.975 1.236-1.547 1.775-2.93 2.804-7.475 4.252-13.133 4.252a36.143 36.143 0 0 1-4.205-.252 46.582 46.582 0 0 1-20.124-7.434c-10.227-6.956-14.568-17.436-16.352-23.875l-.35-1.401c-1.192-4.761-3.169-16.974 4.153-27.566a32.556 32.556 0 0 1 5.303-6l.196-.168a26.893 26.893 0 0 1 8.48-4.957 28.541 28.541 0 0 1 8.999-1.58h.22c11.792 0 20.86 8.037 24.23 11.509l1.256 1.298.528.599a23.604 23.604 0 0 1 5.14 9.451 24.02 24.02 0 0 1 .621 9.541l-.593 4.364 3.948-1.958c2.406-1.196 4.672-1.36 6.251-.467a4.308 4.308 0 0 1 2.019 2.775c.72 3.29-2.972 7.667-8.555 10.223v-.01Z" fill="#fff"/><path d="M97.73 58.827a6.645 6.645 0 0 0-3.135-4.317c-2.336-1.341-5.42-1.117-8.457.383a26.287 26.287 0 0 0-.686-10.476 26.109 26.109 0 0 0-5.607-10.372l14.213-8.078a1.318 1.318 0 1 0-1.304-2.29l-14.783 8.41c-3.873-3.994-13.498-12.325-26.164-12.217a30.914 30.914 0 0 0-9.765 1.714 29.182 29.182 0 0 0-9.218 5.387h-.047a.24.24 0 0 0 0 .056 34.676 34.676 0 0 0-5.84 6.542c-7.906 11.418-5.724 24.547-4.5 29.435 1.598 6.54 6.018 18.688 17.666 26.631a48.955 48.955 0 0 0 21.16 7.83c1.48.179 2.968.27 4.458.272 6.219 0 11.358-1.687 14.745-4.892a14.695 14.695 0 0 0 1.841-2.121 22.779 22.779 0 0 0 2.49-4.233c2.837-6.168 3.06-12.853 3.06-14.872 6.673-3.06 10.812-8.386 9.873-12.792ZM34.188 27.864a27.497 27.497 0 0 1 7.237-4.369 43.797 43.797 0 0 1 15.293 9.172 43.553 43.553 0 0 1 6.513 7.583L37.286 54.893a44.94 44.94 0 0 1-3.093-9.681 45.059 45.059 0 0 1 .014-17.348h-.02Zm17.614-6.43h.257c11.54 0 20.465 7.434 24.375 11.364L64.61 39.474a45.002 45.002 0 0 0-6.822-7.942 45.172 45.172 0 0 0-14.063-8.836 29.548 29.548 0 0 1 8.097-1.27l-.019.009ZM28.208 34.462a33.712 33.712 0 0 1 4.088-4.883 46.324 46.324 0 0 0 .35 15.938 46.58 46.58 0 0 0 3.27 10.157L23.9 62.453c-1.168-4.818-3.13-17.227 4.326-27.992h-.018Zm58.5 35.93-.467.214v.533c.024.808.136 8.078-2.91 14.703a21.492 21.492 0 0 1-2.337 3.958 13.195 13.195 0 0 1-1.658 1.906c-8.233 7.803-26.837 4.49-38.392-3.369a38.095 38.095 0 0 1-6.541-5.63c3.471-1.252 5.92-4.205 6.247-7.601.355-3.63-1.87-6.238-2.304-6.728 3.803.261 7.009-2.57 7.303-5.957.233-2.804-1.542-5.472-4.205-6.584L78.397 34.84a24.576 24.576 0 0 1 5.508 9.999c.991 3.611 1.15 7.4.467 11.082a18.731 18.731 0 0 0-3.611 3.187l1.187 1.042c3.737-4.28 8.737-6.074 11.853-4.275a5.14 5.14 0 0 1 2.383 3.27c.813 3.794-3.168 8.536-9.457 11.246h-.019Z" fill="#022F45"/><path d="M65.833 79.492c-3.453-.537-6.317-2.233-8.943-4.546a6.436 6.436 0 0 1 2.275-1.607 8.61 8.61 0 0 1 3.196-.659c-2.102-1.5-5.303-.804-6.947 1.159-1.724 1.892-1.995 5.14-.243 7.04a7.527 7.527 0 0 1 1.378-5.517 10.457 10.457 0 0 0 2.761 3.883 11.546 11.546 0 0 0 7.677 2.91c3.196 0 6.54-1.364 8.526-3.887-3.13 1.093-6.405 1.761-9.68 1.224ZM70.057 57.276c-2.864.34-5.443-1.238-7.167-3.738-.178 3.738 3.775 6.887 7.508 6.298 3.766-.425 6.71-4.546 5.438-8.13-.91 2.893-2.925 5.163-5.78 5.57ZM66.6 48.198c2.205-1.5 4.616-2.383 7.246-1.846.895.18 1.77.447 2.612.8-2.205-3.93-8.536-3.206-9.858 1.046Z" fill="#022F45"/></g><defs><clipPath id="a"><path fill="#fff" transform="translate(18.858 17.524)" d="M0 0h81.343v82.553H0z"/></clipPath></defs></svg>