<svg width="48" height="48" fill="none" xmlns="http://www.w3.org/2000/svg"><circle cx="24" cy="24" r="23.5" fill="#fff" stroke="#022F45"/><g clip-path="url(#a)"><path d="M24.5 39C32.508 39 39 32.508 39 24.5S32.508 10 24.5 10 10 16.492 10 24.5 16.492 39 24.5 39Z" fill="#FEB703"/><path d="M24.5 10C16.505 10 10 16.505 10 24.5S16.505 39 24.5 39 39 32.495 39 24.5 32.495 10 24.5 10Zm0 27.792c-7.329 0-13.292-5.963-13.292-13.292S17.171 11.208 24.5 11.208 37.792 17.174 37.792 24.5 31.829 37.791 24.5 37.791Zm4.833-10.422a3.176 3.176 0 0 1-3.172 3.172h-1.056v1.812a.604.604 0 0 1-1.208 0v-1.813h-1.119A3.33 3.33 0 0 1 19.9 28.88a.604.604 0 1 1 1.045-.603 2.123 2.123 0 0 0 1.833 1.057h3.383a1.965 1.965 0 0 0 .312-3.904l-4.134-.665a3.171 3.171 0 0 1 .503-6.306h1.055v-1.813a.604.604 0 1 1 1.21 0v1.813h1.118a3.333 3.333 0 0 1 2.878 1.661.604.604 0 0 1-1.047.604 2.121 2.121 0 0 0-1.833-1.057H22.84a1.964 1.964 0 0 0-.312 3.904l4.135.665a3.162 3.162 0 0 1 2.67 3.134v.001Z" fill="#022F45"/></g><defs><clipPath id="a"><path fill="#fff" transform="translate(10 10)" d="M0 0h29v29H0z"/></clipPath></defs></svg>