<svg width="80" height="80" viewBox="0 0 80 80" fill="none" xmlns="http://www.w3.org/2000/svg">
<circle cx="40" cy="40" r="39" fill="white" stroke="#022F45" stroke-width="2"/>
<g clip-path="url(#clip0_118_19641)">
<path d="M40.5 60C51.2696 60 60 51.2696 60 40.5C60 29.7304 51.2696 21 40.5 21C29.7304 21 21 29.7304 21 40.5C21 51.2696 29.7304 60 40.5 60Z" fill="#FFDD87"/>
<path d="M40.5 21C29.7476 21 21 29.7476 21 40.5C21 51.2524 29.7476 60 40.5 60C51.2524 60 60 51.2524 60 40.5C60 29.7476 51.2524 21 40.5 21ZM40.5 58.3753C30.6441 58.3753 22.6247 50.3559 22.6247 40.5C22.6247 30.6441 30.6441 22.6247 40.5 22.6247C50.3559 22.6247 58.3752 30.6479 58.3752 40.5C58.3752 50.3521 50.3559 58.3745 40.5 58.3745V58.3753ZM46.9998 44.3596C46.9981 45.4904 46.5482 46.5745 45.7486 47.3741C44.949 48.1737 43.8649 48.6236 42.7341 48.6253H41.3143V51.0628C41.3143 51.2783 41.2287 51.485 41.0762 51.6375C40.9238 51.7899 40.7171 51.8755 40.5015 51.8755C40.286 51.8755 40.0792 51.7899 39.9268 51.6375C39.7744 51.485 39.6888 51.2783 39.6888 51.0628V48.6245H38.1844C37.3999 48.6237 36.6294 48.4169 35.95 48.0247C35.2706 47.6324 34.7062 47.0686 34.3133 46.3896C34.254 46.2971 34.214 46.1935 34.1959 46.0851C34.1777 45.9767 34.1817 45.8657 34.2077 45.7589C34.2337 45.6521 34.281 45.5516 34.3469 45.4637C34.4128 45.3757 34.4958 45.302 34.591 45.247C34.6862 45.192 34.7916 45.1569 34.9007 45.1439C35.0098 45.1308 35.1205 45.14 35.226 45.1709C35.3315 45.2018 35.4296 45.2537 35.5144 45.3237C35.5992 45.3936 35.669 45.48 35.7195 45.5776C35.9701 46.0094 36.3296 46.368 36.7622 46.6174C37.1947 46.8668 37.6851 46.9984 38.1844 46.999H42.7341C43.3983 46.999 44.0382 46.7489 44.5262 46.2984C45.0143 45.8478 45.3147 45.23 45.3676 44.5679C45.4205 43.9058 45.2221 43.248 44.8119 42.7257C44.4016 42.2033 43.8096 41.8547 43.1538 41.7492L37.5933 40.855C36.5292 40.6902 35.5668 40.1292 34.8992 39.2845C34.2316 38.4397 33.9081 37.3737 33.9937 36.3004C34.0793 35.2271 34.5676 34.2259 35.3607 33.4976C36.1538 32.7693 37.193 32.368 38.2697 32.374H39.6895V29.9365C39.6895 29.7209 39.7752 29.5142 39.9276 29.3618C40.08 29.2094 40.2867 29.1237 40.5023 29.1237C40.7178 29.1237 40.9246 29.2094 41.077 29.3618C41.2294 29.5142 41.315 29.7209 41.315 29.9365V32.374H42.8194C43.6036 32.3756 44.3737 32.5828 45.0528 32.9749C45.7319 33.3671 46.2964 33.9305 46.6897 34.6089C46.7915 34.7952 46.8163 35.0139 46.7589 35.2182C46.7014 35.4226 46.5664 35.5963 46.3825 35.7024C46.1986 35.8085 45.9806 35.8384 45.7749 35.7858C45.5693 35.7332 45.3924 35.6022 45.2821 35.4209C45.0314 34.989 44.6719 34.6305 44.2394 34.3811C43.8068 34.1317 43.3164 34.0001 42.8171 33.9995H38.2674C37.6032 33.9994 36.9633 34.2496 36.4753 34.7001C35.9873 35.1507 35.6869 35.7685 35.6339 36.4306C35.581 37.0927 35.7794 37.7504 36.1897 38.2728C36.5999 38.7952 37.1919 39.1438 37.8477 39.2493L43.4082 40.1435C44.4117 40.3013 45.3256 40.8131 45.9844 41.5863C46.6431 42.3595 47.0033 43.3431 46.9998 44.3589V44.3596Z" fill="#022F45"/>
</g>
<defs>
<clipPath id="clip0_118_19641">
<rect width="39" height="39" fill="white" transform="translate(21 21)"/>
</clipPath>
</defs>
</svg>
