<svg width="621" height="467" fill="none" xmlns="http://www.w3.org/2000/svg"><circle cx="155.397" cy="294.02" fill="#C9D2D7" r="155.397"/><circle cx="300.397" cy="155.397" fill="#C9D2D7" r="155.397"/><circle cx="261.397" cy="311.397" fill="#C9D2D7" r="155.397"/><circle cx="465.397" cy="305.603" fill="#C9D2D7" r="155.397"/><path d="M551.539 369c-128.334 35.833-478 99-481.5-33.5-4.267-161.537 344.5 59.5 359.5-81.5s-218-82-219.5-177.5" stroke="#022F45"/><g clip-path="url(#a)"><path d="m454.5 367.453.495.071c.962.24 1.592 1.684 1.939 2.519 2.186 5.264 1.676 12.402-.404 17.603l-.707-.227c-.913-1.273 1.139-6.629 1.111-8.61-.029-3.892-2.576-9.729-2.434-11.356ZM481.187 370.17l.764.311.234 1.486c-.934 6.785-9.042 17.065-14.342 21.225l-.827-.594c.247-1.62 3.495-3.771 4.683-5.059a38.894 38.894 0 0 0 3.043-3.848 48.822 48.822 0 0 0 6.445-13.521ZM464.603 351.315l1.097.12.962 1.903c3.226 12.028 2.285 27.027-4.139 37.888l-.877-.446c-.453-.708.608-2.462.962-3.29a50.663 50.663 0 0 0 3.644-28.753c-.375-2.321-1.359-4.62-1.606-6.927l-.043-.495ZM267.08 423.163a57.84 57.84 0 0 1 12.105 1.061c1.854.382 4.564.976 5.66 2.632l-.382 1.153c-2.193 2.462-9.197 2.462-12.204 2.547-4.613.042-9.375-.12-13.853-1.295-1.415-.375-3.587-.835-4.38-2.179l.446-1.252c2.476-2.703 9.141-2.469 12.608-2.667Z" fill="#022F45"/><path d="M262.035 424.931c6.934-.537 15.311-.665 21.671 2.413l-7.238 1.528c-7.075.602-14.574.347-21.225-2.221a23.952 23.952 0 0 1 6.792-1.72Z" fill="#FEFEFE"/><path d="m233.077 442.846 3.707-.121c1.238 0 4.295-.134 5.172.708l-.531-.319.248.517c-2.441.884-5.122.495-7.669.637-6.757.382-14.759 1.167-20.936 4.025a2.198 2.198 0 0 0-1.415 1.415l.128.276c2.674 4.352 27.515.22 33.656 1.302l.212.418c-1.67 3.799-10.237 4.429-13.782 6.367a2.756 2.756 0 0 0-1.002.712c-.275.31-.477.679-.59 1.078l.566 1.062c1.67 1.676 4.839 2.419 7.118 2.773 4.032.623 8.49.318 12.586.318 7.415 0 14.83-.019 22.244-.056l8.016.169.581.538-.389.481c-1.635.708-35.97.432-40.046.205a29.714 29.714 0 0 1-6.884-.983c-1.627-.481-4.308-1.464-5.009-3.134a3.362 3.362 0 0 1 .071-2.632c1.337-2.873 10.308-4.514 13.329-5.781l.425-.183c-6.559-.085-26.1 2.561-30.975-.545a3.298 3.298 0 0 1-1.585-2.229l.552-1.606c3.099-3.75 17.079-5.023 22.202-5.412ZM479.156 437.928a14.743 14.743 0 0 1 5.845.573c1.415.467 2.978 1.338 3.629 2.746a2.568 2.568 0 0 1 0 2.221c-.778 1.684-2.83 2.526-4.493 3.099l2.937 1.762c.792.644 1.881 1.952 1.86 3.049-.106 5.03-11.744 2.958-13.322 4.472a3.538 3.538 0 0 1 1.097 2.384l-.892 1.755c-2.207 1.959-7.174 2.065-9.983 2.214-9.848.502-19.81-.17-29.645-.446-15.239-.431-30.479-.785-45.719-1.302-3.983-.134-7.967-.254-11.95-.304-2.03 0-4.846.276-6.799-.155l-1.104-.885.312-.417c2.462-.856 11.702.063 14.808.155l72.604 2.01c4.026.049 14.108.269 16.875-2.441.085-1.634-3.538-1.627-4.507-2.83.052-.198.131-.389.233-.566.481-.616 12.537-1.274 15.346-2.675a2.078 2.078 0 0 0 1.281-1.415l-.262-.566c-2.229-2.745-7.287-2.483-10.372-2.907l-1.705-.814.127-.276 1.543-.283c3.014.134 8.115-.658 10.152-3l.396-1.266a4.762 4.762 0 0 0-2.646-1.762c-5.32-1.953-10.067 1.521-12.268.849l-.092-.481c1.139-1.571 4.875-2.123 6.714-2.498Z" fill="#022F45"/><path d="M464.971 419.384c-2.682 3.333-7.669 4.804-10.938 7.677-10.655 9.36-18.395 24.763-33.961 26.595-6.275.708-13.506-.927-18.494-4.896-2.356-1.875-4.401-4.372-4.67-7.478a28.353 28.353 0 0 1 .17-4.089c.212-3.538.078-7.557 2.646-10.394 2.83-3.113 8.865-2.639 12.735-2.83a19.71 19.71 0 0 1-5.539-4.344 5.803 5.803 0 0 1-1.543-4.408 3.332 3.332 0 0 1 1.465-2.391 3.885 3.885 0 0 1 2.83-.467c2.554.509 4.33 2.788 5.66 4.853l.347-2.554a5.93 5.93 0 0 1 2.179-3.912l1.769-.34a3.218 3.218 0 0 1 1.726 1.91c1.203 2.986-.425 7.132-1.656 9.906 2.901-.948 5.483-2.484 7.174-5.102 3.991-6.19-5.886-7.428-6.77-12.607-.39-2.3 1.082-4.705 2.299-6.545a20.245 20.245 0 0 1-4.054-7.139l-6.927 2.894c-4.478 1.755-9.735 3.778-14.433 1.613s-12.572-11.744-16.039-15.89c-17.44-20.865-31.421-44.354-40.187-70.164-1.478-4.352-2.83-8.766-3.962-13.217-.891-3.488-1.577-7.153-2.83-10.534l-.113-.298c-.361 4.309-.877 8.674-.934 12.997-.092 6.792.92 13.733 2.165 20.398 3.24 17.454 8.653 34.498 14.405 51.266a499.307 499.307 0 0 0 4.422 12.148 66.855 66.855 0 0 1 2.597 7.351 12.742 12.742 0 0 1-.149 7.075c-1.351 4.153-4.627 6.233-8.327 8.031a17.9 17.9 0 0 1 .983 8.313c1.316.608 2.554 1.16 3.474 2.342 1.839 2.356 1.606 5.546 1.323 8.341 3.219 2.908 7.408 6.46 8.554 10.783a43.38 43.38 0 0 1 .707 4.676c.517 3.361 2.215 9.099.248 12.141-2.165 3.347-7.549 3.071-11.051 3.538-11.108 1.535-20.695 9.119-31.697 11.539-7.408 1.635-14.624.899-21.063-3.318-4.506-2.95-8.836-7.698-9.862-13.153-.651-3.481.608-5.964 2.483-8.759 1.769-2.957 1.896-5.73 5.427-7.464 4.415-2.165 9.056.439 13.244 1.91l-2.214-4.16c-.835-1.938-1.33-4.245-.453-6.247a3.13 3.13 0 0 1 1.96-1.917l2.589.495c2.639 1.507 3.326 4.521 4.09 7.216l1.415-2.674c.707-.969 2.037-2.123 3.29-2.25l1.747.524a3.177 3.177 0 0 1 .8 2.54c-.206 3.191-3.354 6.183-5.597 8.214 3.085.177 5.965 0 8.646-1.741 6.127-4.032-2.08-9.134-.799-14.362.551-2.25 2.674-3.7 4.542-4.825a24.366 24.366 0 0 1-2.285-7.217c-4.012.198-8.491.708-12.439-.24-3.289-.807-5.589-2.83-7.329-5.661-4.288-7.075-8.292-17.227-11.32-24.996-14.221-36.557-22.054-78.534-14.752-117.638a131.53 131.53 0 0 1 1.655-7.782l1.529.092a109.945 109.945 0 0 0-1.67 7.676h45.366a5.434 5.434 0 0 1 .084-1.153l.333-.248c.474.344.81.846.948 1.415h14.964l-2.788-10.485-.566-2.123-.707-1.492-3.106-11.031c1.571-.077 3.162-.063 4.648-.141 3.375-.163 6.729-.439 10.082-.785 9.679-1.019 19.103-2.83 28.732-4.245l.184.084 1.939-.551c-.092 6.02.587 12.148 1.118 18.14.099 1.076.191 2.179.297 3.304.042.474.085.955.134 1.415 1.274 13.91 3.184 30.968 7.733 43.158 7.373 19.747 20.306 38.206 32.475 55.257 3.297 4.62 7.365 8.971 10.309 13.804a11.46 11.46 0 0 1 1.825 6.431c-.106 3.792-2.08 6.785-4.762 9.275a24.636 24.636 0 0 1 4.373 7.174 6.37 6.37 0 0 1 3.898.637c2.54 1.38 3.792 4.351 4.528 7.005 3.538 1.273 7.74 2.377 10.761 4.74 2.307 1.804 8.972 12.332 9.325 15.374a5.46 5.46 0 0 1-1.365 3.99Z" fill="#022F45"/><path d="m418.629 411.92.792.297.779 1.175c.707 2.229-.856 6.184-2.045 8.129l-.792.227-.347-1.224c-.248-2.724-.241-6.46 1.613-8.604ZM321.282 427.259l1.012.524.375 1.118c-.099 2.469-3.227 5.391-5.017 6.898l-.757.155-.283-.643c.121-2.498 2.873-6.495 4.67-8.052ZM407.804 413.788l2.554.432c2.286 1.351 4.585 4.705 5.257 7.252.212.799.276.891-.134 1.599a13.445 13.445 0 0 1-6.035-3.064c-1.182-1.005-2.512-2.335-2.59-3.976a2.896 2.896 0 0 1 .948-2.243ZM310.21 424.761l1.959.213c1.479.707 2.293 2.936 2.654 4.422.488 1.995.842 4.86-.234 6.672l-.615-.361a11.96 11.96 0 0 1-4.741-7.45c-.254-1.522.071-2.293.977-3.496ZM432.121 381.816l.162.077c2.703 1.776 3.87 5.795 4.557 8.767l-.361 1.068c-1.153 2.83-4.153 5.122-6.948 6.276-1.549.643-2.653.955-4.245.297-2.83-2.172-4.125-4.953-5.66-8.045a61.023 61.023 0 0 0 12.495-8.44ZM346.477 405.22l.156.135c.912 1.224 1.302 5.03 1.203 6.473a7.158 7.158 0 0 1-2.498 5.158c-2.179 1.797-5.858 2.321-8.61 2.023-1.415-.155-2.293-.318-3.184-1.415a28.913 28.913 0 0 1-3.665-8.773 62.313 62.313 0 0 0 16.598-3.601Z" fill="#FEFEFE"/><path d="m438.347 388.997 2.83.58c2.073 1.924 2.986 4.118 3.891 6.721l-2.971 4.529c-2.958 3.615-9.368 8.978-14.151 9.445l-3.537-2.385a6.092 6.092 0 0 1-2.526-4.174 5.99 5.99 0 0 1 1.479-4.195l3.948.707c2.462.12 6.013-2.122 7.782-3.785 2.257-2.193 3.099-4.387 3.255-7.443ZM349.215 414.63l2.278 1.811c1.479 2.229 1.097 5.073.637 7.542-5.08 3.934-12.736 6.828-19.245 5.993-1.337-.177-1.931-.368-2.759-1.415-1.224-1.946-2.724-4.295-2.278-6.693.375-2.017 1.974-3.156 3.537-4.245l2.172 2.122c2.47 1.415 5.937 1.139 8.611.439 3.396-.948 5.327-2.632 7.047-5.554ZM461.087 408.404l.205.191c1.634 1.762 3.538 5.002 3.432 7.436-.149 3.226-4.345 4.952-6.764 6.368-9.198 5.483-14.95 15.147-22.881 22.208-5.745 5.101-12.028 8.13-19.81 7.592a21.774 21.774 0 0 1-15.651-7.868c-1.153-1.967-1.216-3.742-1.337-5.957l1.698 2.498a22.79 22.79 0 0 0 14.929 8.419c15.636 1.712 22.499-14.858 31.18-24.452 2.83-3.148 6.834-5.108 10.103-7.782 3-2.469 4.493-4.733 4.896-8.653ZM361.632 441.643l.927 2.504c.467 2.038.431 4.486-.771 6.283-1.868 2.788-7.783 2.441-10.79 2.957-10.896 1.868-20.518 9.198-31.477 11.455-6.813 1.415-13.245.665-19.103-3.247-4.818-3.227-8.32-7.528-9.452-13.266.041-1.769.528-3.5 1.415-5.031l1.662 6.057c2.123 5.002 6.17 9.537 11.243 11.589 13.648 5.539 24.954-6.219 36.706-10.825 4.853-1.903 10.329-1.719 15.098-3.842a7.833 7.833 0 0 0 4.542-4.634Z" fill="#FEFEFE"/><path d="M446.384 396.992c3.722 1.273 8.49 2.632 11.179 5.66a8.316 8.316 0 0 1 1.896 6.325c-.559 6.743-9.664 9.785-13.881 14.079-5.943 6.05-9.658 14.151-16.153 19.676-4.025 3.439-8.794 5.476-14.15 5.024a20.912 20.912 0 0 1-13.52-7.189c-2.123-2.582-3.304-5.469-2.965-8.829l1.818-3.389c2.958-3.495 8.491-2.682 12.608-3.092 4.585 2.264 5.172 2.122 8.49 6.304.46.587.673.934 1.415 1.047l.446-.432-.085-.934c-.997-2.886-5.066-5.157-7.613-6.488l5.774-1.485c4.011 1.259 5.157 1.754 8.108 4.825.573.601 1.316 1.415 2.122 1.415l-.212-1.847c-1.472-2.653-5.186-4.365-7.938-5.207l3.537-3.148c1.854-2.385 2.066-4.826 1.72-7.712l1.415-.488c6.657-2.583 13.018-7.458 15.989-14.115ZM353.135 425.328c2.752 1.691 7.124 6.247 7.924 9.487a8.658 8.658 0 0 1-.906 6.757c-3.813 5.936-13.379 4.825-19.294 7.309-7.952 3.339-14.9 9.452-23.425 11.32-4.819 1.075-9.863.665-14.073-2.073a21.226 21.226 0 0 1-9.07-13.018 10.15 10.15 0 0 1 1.415-7.988l2.752-2.278c4.047-2.123 9.035 1.096 12.955 2.299 1.033 1.528 2.653 2.922 3.537 4.535.906 1.727 1.274 3.757 2.172 5.498l.764.799.184-.821c.354-3.424-2.059-6.827-4.082-9.381l4.203.764c5.709 1.556 5.787 5.957 8.242 10.174l.354.064.651-1.203c0-2.88-3.184-6.736-5.094-8.66a15.582 15.582 0 0 0 5.603-2.193 8.18 8.18 0 0 0 3.361-5.477c9.006.319 14.256-.933 21.827-5.914Z" fill="#FEFEFE"/><path d="M355.356 394.692a10.992 10.992 0 0 1-5.214 6.998c-7.549 4.747-17.27 5.61-25.966 5.837-2.518.063-5.228.268-7.697-.333-3.142-.757-5.017-2.696-6.608-5.391-4.097-6.955-7.224-14.971-10.217-22.457-11.405-28.526-18.006-58.482-17.921-89.252-.053-9.935.79-19.854 2.519-29.638h45.365c.05 4.316 2.965 14.49 3.347 18.495.29 3.028-.439 6.311-.757 9.325-1.684 12.735.099 25.123 2.83 37.583 3.445 15.565 8.306 30.826 13.492 45.896 2.122 6.141 4.952 12.318 6.707 18.558a8.884 8.884 0 0 1 .12 4.379ZM435.249 375.873c-4.613 8.122-20.787 15.996-29.716 18.303-3.17.828-6.212.828-9.084-.941-4.797-2.95-14.151-14.483-17.971-19.245-19.259-24.055-33.883-52.051-41.177-82.071-2.427-9.962-3.679-20.185-5.986-30.154a14.129 14.129 0 0 0-.339-1.344h14.963l-2.787-10.485-.566-2.123-.708-1.493-3.106-11.03c1.571-.078 3.163-.064 4.649-.141a184.22 184.22 0 0 0 10.082-.786c9.678-1.019 19.102-2.83 28.732-4.245l.184.085c.665 1.146 1.323 15.643 1.535 17.992.085.934.17 1.868.255 2.83l.127 1.415c1.415 15.014 3.134 30.975 8.349 44.941 6.134 16.45 16.322 31.683 26.178 46.102a355.365 355.365 0 0 0 10.032 13.888c2.123 2.83 4.493 5.589 6.368 8.554.397.617.696 1.293.884 2.002a10.538 10.538 0 0 1-.898 7.946Z" fill="#fff"/><path d="M408.787 102.349h.347c1.613.078 9.509 9.141 10.669 10.612.594.765.538 1.048.46 1.953l-1.217-.417c-1.153-.87-9.155-9.601-9.941-10.917a2.686 2.686 0 0 1-.318-1.231ZM393.993 104.712c2.363-.142 5.66 2.653 7.415 4.061 5.922 4.747 15.905 16.103 16.775 23.871l-1.224-.219c-2.406-5.066-4.91-10.478-8.625-14.723a57.118 57.118 0 0 0-8.681-8.137c-1.634-1.216-3.537-2.292-5.051-3.657a2.123 2.123 0 0 1-.609-1.196ZM390.243 207.45c-3.099.212-6.219.707-9.304 1.096-4.952.573-9.848 1.04-14.78 1.458-4.782.396-9.572.813-14.362 1.054-3.828.184-7.74.12-11.533.707a67.993 67.993 0 0 0-7.648 1.804l6.127 21.749 3.106 11.031a362.122 362.122 0 0 0 42.331 4.704l1.563.085c1.054.05 2.123.106 3.156.149 0-5.207-.29-10.408-.269-15.615.063-9.429.601-18.848 1.613-28.222Z" fill="#022F45"/><path d="m261.858 244.983.417 1.571 3.941 13.909-4.358-15.48Zm22.534 7.705a144.723 144.723 0 0 0-1.655 7.782h1.514a115.638 115.638 0 0 1 1.67-7.676l-1.529-.106Zm45.642 6.367-.333.248a5.5 5.5 0 0 0-.085 1.153h1.366a2.47 2.47 0 0 0-.948-1.415v.014Zm94.226-94.226-15.176-26.22c-10.719-16.124-28.605-29.716-47.785-33.657v1.699a9.827 9.827 0 0 1-.878 1.811 7.175 7.175 0 0 1-2.172 2.009l-.375.241-.085.056c-3.48 2.123-7.704 3.205-11.744 2.271a11.506 11.506 0 0 1-1.925-.608 6.3 6.3 0 0 1-2.83-2.123.135.135 0 0 1 0-.049 3.192 3.192 0 0 1-.212-.326c-1.04-1.776-.63-3.318-.198-5.193l.34-1.641h-.46c-18.523 1.415-45.097 14.27-60.507 24.02.757-11.016 2.314-22.379 5.498-32.963l2.122-1.988c1.139-1.613 2.01-3.538 1.642-5.533-.29-1.627-1.465-2.222-2.724-3.078l2.122-.46a3.535 3.535 0 0 0 2.222-1.917 2.519 2.519 0 0 0-.708-2.059c-1.988-2.342-5.278-2.922-8.178-3.113 1.995-2.044 5.122-4.719 5.285-7.782a2.534 2.534 0 0 0-.793-2.123l-2.122-.622c-3.842 0-7.889 3.02-10.535 5.596a28.999 28.999 0 0 0-6.7 10.075c-1.514 3.8-1.847 7.606-2.76 11.532-4.018 17.292-8.44 35.213-8.737 53.064l.318 2.554.481.042c.863-.913.58-2.66.708-3.842l4.117 11.073 32.072.078-2.597-7.252 18.084-.135 1.741-.269 3.268.319 9.807 35.375a11.15 11.15 0 0 0 .912 6.609c-3.035-.092-8.348-.658-10.747 1.549a4.067 4.067 0 0 0-1.196 3.042l.849 3.205c-.502 1.415-1.457 3.722-.905 5.144.495 1.288 2.37 2.059 3.269 3.078.898 1.018.551 2.525 1.584 3.537.906.906 2.406.892 3.262 1.755 1.203 1.203 0 2.929 2.349 3.672 3.007.955 6.559-.708 9.339-1.748a67.725 67.725 0 0 1 7.648-1.804c3.793-.566 7.705-.502 11.533-.707 4.79-.241 9.579-.658 14.362-1.055 4.953-.417 9.863-.884 14.78-1.457 3.085-.354 6.205-.885 9.304-1.097a280.299 280.299 0 0 0-1.613 28.202c0 5.207.24 10.407.269 15.614-1.055-.042-2.123-.099-3.156-.148l-1.564-.085a361.916 361.916 0 0 1-42.33-4.705l.708 1.493c2.992.955 6.367 1.252 9.452 1.719 4.953.708 9.905 1.415 14.943 1.868l17.319 1.061 1.571.092 4.599.283a325.7 325.7 0 0 1 1.288-45.733c6.48-.871 13.138-2.052 19.329-4.196 3.396-1.174 6.495-2.717 8.073-6.169 3.41-7.465-.446-17.158-3.149-24.233 3.495-2.08 6.375-3.976 8.292-7.662v.014Zm-130.465 28.435v.099h.078l-.078-.099Z" fill="#022F45"/><path d="m343.158 249.95-.566-2.123-.707-1.493-3.106-11.03-6.127-21.749c-2.781 1.076-6.368 2.703-9.339 1.748-2.328-.743-1.147-2.469-2.349-3.672-.856-.863-2.356-.849-3.262-1.755-1.033-1.026-.707-2.575-1.585-3.537-.877-.962-2.773-1.79-3.268-3.078-.552-1.415.403-3.764.905-5.143l-.849-3.206a4.05 4.05 0 0 1 1.196-3.042c2.398-2.207 7.712-1.641 10.747-1.549a11.148 11.148 0 0 1-.913-6.608l-9.806-35.376-3.269-.318-1.74.269-18.084.134 2.597 7.252-32.072-.078-4.118-11.072c-.113 1.181.17 2.929-.707 3.841l-.481-.042-.319-2.554-.516 2.391-20.999.212 27.458 96.597 4.359 15.48h16.52a131.538 131.538 0 0 1 1.656-7.782l1.528.092a110.522 110.522 0 0 0-1.67 7.676h45.366a5.434 5.434 0 0 1 .085-1.153l.332-.248c.474.344.81.846.948 1.415h14.964l-2.809-10.499Zm-49.391-56.601v-.099l.049.085-.049.014Z" fill="#022F45"/><path d="m347.623 196.497 2.194.248c.579.175 1.114.47 1.573.864.458.395.828.882 1.087 1.428a4.492 4.492 0 0 1-.057 3.722c-.707 1.457-1.797 2.03-3.226 2.596l-1.932-.247a4.617 4.617 0 0 1-2.752-2.123 4.125 4.125 0 0 1-.24-3.311c.566-1.677 1.839-2.413 3.353-3.177ZM258.42 142.769h28.605l4.429 11.32-28.732.17-4.302-11.49Z" fill="#FEFEFE"/><path d="M327.063 183.154c3.467.82 9.007 8.278 11.377 11.101l6.219-.956c-.163 2.937-1.599 4.727-2.328 7.465.552 2.985 1.373 4.146 3.814 5.851l1.103 3.198c-2.695.078-5.589 0-8.235.559-3.339.707-11.32 4.117-14.15 3.693a2.887 2.887 0 0 1-2.087-1.245c-.114-2.654 4.797-2.363 5.865-4.132l-.163-.382c-2.504-.708-5.575 1.761-8.448 1.415a4.626 4.626 0 0 1-1.952-2.42c.863-4.04 8.688-2.413 10.874-5.2l-.184-.269c-2.886-.311-7.931 1.012-10.372 2.434l-1.818.488a3.356 3.356 0 0 1-2.045-1.967 2.892 2.892 0 0 1-.071-2.54c1.691-2.936 7.783-2.646 10.613-3.226l1.55-.807-.227-.382-2.964-.099c-2.604.163-5.844 1.67-8.328 1.047l-.707-.785a3.251 3.251 0 0 1 .403-2.653c1.712-2.413 9.742-1.224 12.657-1.564l.354-.042c-.997-1.748-3.162-4.019-2.724-6.17.276-1.146 1.125-1.74 1.974-2.412ZM284.506 66.973l1.238.439c2.173 2.745-6.657 7.783-6.629 10.945l.863.41 1.62-1.266a12.533 12.533 0 0 1 6.036 1.295 3.302 3.302 0 0 1 1.789 1.896c-1.209 2.922-9.332.75-11.426 2.193v.269c1.026 1.288 5.038 1.083 6.835 1.656 1.118.36 3.007.976 3.537 2.066l-.155.474c-2.646 1.775-6.729.396-9.198 1.535l-.495.842.262.325 8.391-.12.155.255c-.502 2.49-4.457 2.377-5.462 4.344l.206.389 1.676.39c-.516 3.324-1.556 6.692-2.2 10.01a178.415 178.415 0 0 0-2.972 22.747l.156 13.266h-21.02c.163-11.766 3.615-28.011 6.297-39.522.537-2.306.962-5.327 2.002-7.45l.884-.163c.623-.743-.353-4.358-.113-5.702a31.316 31.316 0 0 1 4.953-12.113c2.936-4.309 7.549-8.433 12.77-9.41ZM409.148 168.763l3.255-.05c2.667 5.816 5.497 11.759 6.254 18.183.382 3.241.474 8.236-1.719 10.889-6.792 8.214-48.917 10.613-60.139 11.419l-2.462.085-1.549-4.245a6.917 6.917 0 0 0 1.585-5.052c-.269-2.073-1.642-3.339-3.248-4.499l-.205-3.453 35.559-6.417c.878-.283 1.592-.382 1.939-1.33.651-1.776-1.203-4.486-1.974-6.049 7.712-5.448 13.209-8.512 22.704-9.481Z" fill="#FEFEFE"/><path d="M388.63 235.651c0 5.207.24 10.407.269 15.615-1.054-.043-2.123-.099-3.156-.149l-1.563-.085a361.91 361.91 0 0 1-42.331-4.705l-3.106-11.03-6.127-21.749a67.993 67.993 0 0 1 7.648-1.804c3.793-.566 7.705-.502 11.533-.707 4.79-.241 9.58-.658 14.362-1.055 4.953-.417 9.863-.884 14.78-1.457 3.085-.354 6.205-.884 9.304-1.097a280.42 280.42 0 0 0-1.613 28.223ZM386.543 183.974c-3.538 1.472-13.287 2.597-17.575 3.34-9.997 1.726-20.015 3.757-30.048 5.207-2.023-2.83-7.825-10.04-11.193-10.613a3.403 3.403 0 0 0-2.575.637l-1.252 1.153-9.806-35.375-3.269-.318-1.74.268-18.084.135-2.83-7.132h-7.649l-.544-12.028c15.013-10.145 42.012-22.958 60.456-24.508h.382c-.431 1.875-.842 3.417.199 5.193.064.113.135.222.212.326a.135.135 0 0 0 0 .049 6.295 6.295 0 0 0 2.83 2.123c.622.259 1.266.462 1.924.608 4.04.934 8.264-.134 11.745-2.271l.085-.056.375-.241a7.198 7.198 0 0 0 2.172-2.009 9.887 9.887 0 0 0 .877-1.811.423.423 0 0 1 .142 0c2.83-.439 16.272 5.978 18.657 7.308 16.867 9.46 24.883 20.348 34.257 36.621 2.123 3.743 4.486 7.464 6.467 11.32-13.761.234-37.18 7.585-47.219 17.348-.863-11.32-3.665-22.916-7.174-33.67-.545-1.67-1.281-4.953-2.675-6.028l-.651-.078c-.488 1.931 2.554 8.61 3.241 10.853a163.519 163.519 0 0 1 5.058 22.973c.361 2.363.46 8.002 1.543 9.778a3.571 3.571 0 0 0 2.441 1.592c2.398.46 10.259-1.168 11.221-.694Z" fill="#FEB703"/><path d="m310.825 148.033-1.74.269c.934-3.977 0-13.825 1.21-16.379l.637-.467.382.346c.41 5.37-.163 10.875-.489 16.231ZM334.435 110.839a3.981 3.981 0 0 1 1.132.057 14.076 14.076 0 0 1 2.327 1.896 20.814 20.814 0 0 0 9.75 4.733c6.58 1.16 12.424-2.922 13.98-2.66l.418.962-4.634 2.193a21.81 21.81 0 0 1-16.74-1.224c-2.307-1.217-5.399-3.431-6.233-5.957Z" fill="#022F45"/><path d="m293.845 193.335-.077.014.028-.099.049.085ZM266.217 260.463l-3.941-13.909-.418-1.571 4.359 15.48ZM285.921 252.78a110.774 110.774 0 0 0-1.67 7.676h-1.514a131.538 131.538 0 0 1 1.656-7.782l1.528.106ZM330.982 260.442h-1.373a5.5 5.5 0 0 1 .085-1.153l.333-.248c.473.34.812.836.955 1.401Z" fill="#4B60DD"/><path d="m293.845 193.335-.077.014.028-.099.049.085Z" fill="#5D6EE6"/><path d="M401.861 51.642c-1.118-5.448-4.245-9.736-8.32-13.443-1.267-1.132-2.646-2.123-4.245-3.417a16.69 16.69 0 0 1 8.49 1.415c.814.325 1.641 1.195 2.596.226-1.139-2.434-2.695-2.943-12.367-4.082.375-.708.708-1.366 1.069-2.01a18.953 18.953 0 0 0 2.483-9.006c0-.892 0-1.776-1.684-1.684-.63 3.438-.587 7.245-3.219 10.287a46.848 46.848 0 0 0-3.538-4.245c-2.554-2.47-5.872-3.608-9.247-4.57-4.953-1.416-9.948-2.52-14.56-4.861a10.772 10.772 0 0 1-4.451-3.948 12.559 12.559 0 0 0-3.014-3.396c-8.299-6.155-20.518-1.974-23.348 6.757a14.083 14.083 0 0 1-2.384 4.181 11.396 11.396 0 0 0-.446 14.072c.489.708.963 1.359 1.415 1.981-3.919 4.918-4.004 9.58-.382 14.547.305.488.666.94 1.076 1.344 1.79 1.535 2.073 3.36 1.705 5.66a62.343 62.343 0 0 0-.255 18.212c1.019 7.683 3.417 14.857 8.901 20.673.976 1.04 2.037 1.995 3.183 3.113-.346 2.123-.707 4.245-.976 6.007l-.771 2.554c2.759 4.811 7.662 6.651 13.344 5.052a15.728 15.728 0 0 0 8.603-5.944l-.425-2.37c.064-2.271.121-4.429.184-6.721 7.783-4.988 13.924-11.42 17.688-19.81a10.011 10.011 0 0 0 13.867-3.665c.496-.927.913-1.896 1.472-2.788a11.963 11.963 0 0 1 1.988-2.696c5.285-4.818 6.948-10.662 5.568-17.425Zm-43.038 55.383a1.932 1.932 0 0 1-.587.949c-3.064 3.381-9.622 4.62-13.747 2.603-2.165-1.054-2.597-1.747-2.257-4.04.304-2.044.708-4.068 1.104-6.098 5.886 1.075 4.655 2.009 15.452-.708.665 2.42.219 4.861.035 7.294Zm34.35-40.964c0 3.955-1.259 7.535-4.585 10.053a7.073 7.073 0 0 1-7.648.927c-.778-.346-1.592-.608-2.752-1.04-.757 1.217-1.521 2.278-2.123 3.424-3.537 6.92-8.886 12.212-15.268 16.57a19.54 19.54 0 0 1-9.742 3.488 13.055 13.055 0 0 1-10.125-3.431c-4.245-3.785-6.657-8.59-8.136-13.896-2.236-8.016-2.363-16.152-1.16-24.338a11.07 11.07 0 0 1 .707-2.08 23.09 23.09 0 0 1 8.412-13.797c7.712 4.437 16.125 5.144 25.117 3.347-.403.899-.707 1.479-.941 2.123-1.415 3.792-.92 7.308 1.733 10.435a32.742 32.742 0 0 0 3 3.1 7.126 7.126 0 0 1 2.434 6.678 20.363 20.363 0 0 0-.191 3.41c.05 1.14.255 2.3 1.981 2.873.651-.708 1.415-1.542 2.08-2.391 2.222-2.767 4.408-5.555 6.637-8.307a6.708 6.708 0 0 1 1.266-1.181c1.67-1.245 3.432-2.257 5.618-1.316a5.697 5.697 0 0 1 3.686 5.349Z" fill="#022F45"/><path d="M389.486 60.684c-2.186-.941-3.948.07-5.617 1.316a6.683 6.683 0 0 0-1.267 1.181c-2.228 2.752-4.415 5.54-6.636 8.306a79.968 79.968 0 0 1-2.08 2.392c-1.727-.574-1.932-1.734-1.981-2.873-.032-1.14.032-2.28.191-3.41a7.141 7.141 0 0 0-2.434-6.679 32.73 32.73 0 0 1-3-3.099c-2.653-3.127-3.12-6.643-1.733-10.436.226-.615.537-1.195.941-2.122-8.993 1.797-17.405 1.09-25.117-3.347a23.08 23.08 0 0 0-8.412 13.797 11.146 11.146 0 0 0-.708 2.08c-1.203 8.186-1.075 16.322 1.16 24.338 1.479 5.306 3.927 10.11 8.137 13.896a13.051 13.051 0 0 0 10.131 3.431 19.544 19.544 0 0 0 9.75-3.474c6.367-4.358 11.759-9.65 15.268-16.57.587-1.146 1.351-2.207 2.122-3.424 1.161.432 1.974.708 2.753 1.04a7.074 7.074 0 0 0 7.648-.927c3.325-2.518 4.592-6.099 4.585-10.053a5.7 5.7 0 0 0-3.701-5.363Zm-42.45.658c.24-.913.516-1.904 2.285-1.543a13.996 13.996 0 0 1-2.653 7.252c-.234.304-.503.587-.757.87-3.177 3.68-3.17 3.672.594 6.601.318.241.432.708.743 1.316-2.491.708-3.849-.707-5.123-2.03-1.132-1.132-1.11-2.583-.24-3.955.43-.753.929-1.464 1.493-2.123a14.577 14.577 0 0 0 3.636-6.417l.022.029Zm-13.903-4.819a1.65 1.65 0 0 1-.566-.544 2.248 2.248 0 0 1-.156-.262c.149-.092.297-.17.446-.248l.467-.22.46-.183a8.409 8.409 0 0 1 2.37-.53 7.235 7.235 0 0 1 5.851 2.214c-.707.19-1.415.594-1.818.424a9.905 9.905 0 0 0-5.66-.495c-.39.09-.797.068-1.175-.064a1.875 1.875 0 0 1-.205-.092h-.014Zm4.245 12.304c-1.309.163-2.434-1.316-2.639-3.481v-.283c-.099-1.96.757-3.431 2.073-3.538 1.316-.106 2.611 1.366 2.71 3.39.049 1.86-.984 3.77-2.179 3.912h.035Zm9.495 17.242c-2.342.559-4.776.75-6.538-1.415.368-1.146 1.125-1.097 1.904-.814 2.978 1.09 5.476.56 7.457-2.002.495-.637 1.167-1.047 2.073-.276-.517 2.675-2.505 3.934-4.932 4.514l.036-.007Zm8.377-15c-2.625-1.556-3.382-4.138-1.84-6.254a2.635 2.635 0 0 1 1.847-1.054 2.579 2.579 0 0 1 1.698 1.252c1.139 2.06.516 4.189-1.741 6.057h.036Zm5.907-12.197c-2.214-1.542-4.612-1.733-7.188-1.266-.424.07-.927-.326-1.769-.651 3.878-2.335 7.783-1.663 10.408 1.528-.601.17-1.245.552-1.486.39h.035Zm25.62 12.085c-.708.764-1.6 1.323-2.972.389l1.578-2.123a86.064 86.064 0 0 1-.276-2.01c1.125-.75 1.733-.381 2.122.383a2.79 2.79 0 0 1-.488 3.36h.036ZM358.823 107.025a1.94 1.94 0 0 1-.588.949c-3.063 3.381-9.622 4.62-13.747 2.603-2.164-1.054-2.596-1.747-2.257-4.04.305-2.044.708-4.068 1.104-6.098 5.887 1.075 4.656 2.009 15.452-.708.665 2.42.22 4.861.036 7.294Z" fill="#fff"/><path d="M349.3 59.8a13.968 13.968 0 0 1-2.653 7.251c-.234.311-.502.58-.757.87-3.177 3.68-3.17 3.672.594 6.594.319.248.432.75.743 1.323-2.49.708-3.849-.707-5.122-2.023-1.132-1.146-1.118-2.59-.248-3.955a13.98 13.98 0 0 1 1.5-2.123 14.574 14.574 0 0 0 3.658-6.41c.24-.898.516-1.889 2.285-1.528ZM355.215 71.07c-2.625-1.55-3.382-4.146-1.84-6.255a2.623 2.623 0 0 1 1.847-1.054 2.553 2.553 0 0 1 1.698 1.252c1.174 2.06.544 4.189-1.705 6.057ZM339.515 64.893c.092 1.882-.941 3.793-2.122 3.934-1.323.163-2.441-1.323-2.639-3.48v-.277c-.092-1.967.764-3.438 2.08-3.537 1.316-.1 2.54 1.33 2.681 3.36ZM340.308 84.661c.36-1.146 1.118-1.104 1.896-.814 2.978 1.09 5.483.56 7.457-2.002.495-.637 1.167-1.047 2.073-.276-.481 2.675-2.469 3.941-4.896 4.507-2.427.566-4.776.708-6.53-1.415ZM352.165 56.955c3.877-2.335 7.783-1.67 10.407 1.528-.566.163-1.209.552-1.415.39-2.214-1.543-4.612-1.727-7.195-1.267-.453.07-.955-.326-1.797-.651ZM332.369 55.653v.035h-.043l.043-.035ZM341.984 56.75c-.707.19-1.415.594-1.818.424a9.904 9.904 0 0 0-5.66-.495 2.121 2.121 0 0 1-1.394-.156 1.658 1.658 0 0 1-.566-.544 2.389 2.389 0 0 1-.155-.262c.148-.092.297-.17.445-.248l.467-.22.46-.183a8.409 8.409 0 0 1 2.37-.53 7.243 7.243 0 0 1 5.851 2.214ZM385.064 67.178c1.132-.757 1.741-.382 2.123.383a2.787 2.787 0 0 1-.446 3.396c-.707.77-1.599 1.316-2.971.382l1.577-2.123c-.07-.545-.17-1.26-.283-2.037Z" fill="#022F45"/><path d="M285.921 252.78a110.774 110.774 0 0 0-1.67 7.676h-1.514a131.538 131.538 0 0 1 1.656-7.782l1.528.106ZM330.982 260.442h-1.373a5.5 5.5 0 0 1 .085-1.153l.333-.248c.473.34.812.836.955 1.401Z" fill="#4B60DD"/><path d="M107.451 134.611 201.55 119.4l21.933 27.522-3.021 40.47 12.806 6.77-15.148 79.044-.226.559-.368.127-.595-1.415-.261.41-15.276-7.075-1.337-.523c-2.122.827-12.487.382-15.233.169l-1.04.297-16.64-.275-1.727.162-16.98-.063-.29-.538-.262.573-1.415.106c-2.879 0-15.339.708-17.235-.191l-1.478.248-16.917.078-1.033-.559-.276.573-1.365.049-10.62-88.934 7.004-.233 2.901-42.14Z" fill="#fff"/><path d="m146.506 265.713 1.245-24.989.644-.113-.495-.114.191-.155.382.127c1.118 2.399-.184 20.391-.304 24.565l-.262.573-1.401.106ZM127.792 265.784c.057-3.297.375-24.19 1.231-25.308h.708c.294.292.462.689.467 1.104.148 1.691-.262 3.686-.305 5.419-.162 6.184-.361 12.361-.629 18.544l-1.472.241ZM165.425 265.635c.099-4.613.424-9.197.566-13.824.106-3.248-.099-6.764.354-9.976a2.293 2.293 0 0 1 .601-1.536l.382.198c.421.705.648 1.508.658 2.328 0 2.208-.297 4.521-.396 6.75a523.464 523.464 0 0 0-.439 15.898l-1.726.162Z" fill="#022F45"/><path d="m194.355 174.062 6.07-50.318 1.026-.078c.785 2.703-4.953 43.363-5.434 50.814l24.452 12.912 12.806 6.771-15.148 79.043-.226.559-.368.127-.595-1.415 14.582-77.416-35.835-18.876c-2.83 21.713-5.208 43.519-7.783 65.268-.594 4.952-1.139 9.905-1.698 14.857-.332 2.979-.446 6.368-1.351 9.198l-1.04.297c-.198-3.46.545-7.195.962-10.613.651-5.344 1.292-10.683 1.924-16.018 2.498-21.112 5.059-42.224 7.479-63.35l-27.77.707.205 14.384-35.17 3.021.049-16.273-32.1.927 10.472 86.769-.276.573-1.366.05-10.676-88.998 7.004-.233 89.805-2.689Z" fill="#022F45"/><path d="m159.892 176.638 4.776-.092.488 12.933-26.794 2.313-5.66.566.481-14.928 26.709-.792Z" fill="#FEFEFE"/><path d="m195.685 176.149 35.836 18.877-14.582 77.416-.262.41-15.275-7.075-1.337-.524c-2.123.828-12.488.382-15.233.17.906-2.83 1.019-6.233 1.351-9.198.559-4.952 1.104-9.905 1.698-14.857 2.597-21.7 4.953-43.505 7.804-65.219Z" fill="#FEB703"/><path d="m200.552 204.938 13.867 6.368-2.83 8.362-14.546-5.391 3.509-9.339Z" fill="#022F45"/><path d="m201.493 206.947 11.094 5.137-2.024 5.66-11.468-4.387 2.398-6.41Z" fill="#FEFEFE"/><path d="M107.451 134.611 201.55 119.4l21.933 27.522-3.021 40.47-24.452-12.913c.474-7.45 6.219-48.11 5.434-50.813l-1.026.078-6.07 50.318-89.812 2.689 2.915-42.14Z" fill="#FEB703"/><path d="m162.178 133.96.82.899c-.24 1.365-20.341 27.43-22.364 29.8l-.708-.467-.106-.573 22.358-29.659ZM160.429 153.82l2.972.609a5.67 5.67 0 0 1 2.986 3.325 5.927 5.927 0 0 1-.361 4.514c-1.047 2.038-2.576 2.738-4.649 3.361a6.746 6.746 0 0 1-3.863-1.033 5.856 5.856 0 0 1-2.526-3.849 5.857 5.857 0 0 1 .956-4.401c1.146-1.641 2.596-2.179 4.485-2.526Z" fill="#022F45"/><path d="m159.85 155.292 1.719.106a4.821 4.821 0 0 1 3.148 2.335 4.126 4.126 0 0 1 .17 3.382c-.587 1.578-1.804 2.327-3.255 3.007l-1.712-.121a4.64 4.64 0 0 1-2.83-2.073 4.368 4.368 0 0 1-.325-3.587c.502-1.57 1.627-2.363 3.085-3.049Z" fill="#FEB703"/><path d="m142.226 133.593 3.587.516a6.031 6.031 0 0 1 3.176 3.424 5.855 5.855 0 0 1-.198 4.429c-.849 1.805-2.292 2.731-4.117 3.354l-3.262-.311a5.919 5.919 0 0 1-3.361-3.128 5.98 5.98 0 0 1-.085-4.542c.814-2.066 2.3-2.936 4.26-3.742Z" fill="#022F45"/><path d="m142.685 135.142 2.243.318a4.5 4.5 0 0 1 2.49 2.264 4.081 4.081 0 0 1 .043 3.354c-.658 1.507-1.882 2.229-3.368 2.766l-2.384-.403a4.493 4.493 0 0 1-2.392-2.554 4.182 4.182 0 0 1 .22-3.361 4.942 4.942 0 0 1 3.148-2.384Z" fill="#FEB703"/><path d="m244.992 333.641-1.415-.12-1.854.134h-47.63l7.288-67.829-1.337-.523c-2.123.828-12.488.382-15.233.17l-1.04.297-16.641-.276-1.726.163-16.98-.064-.29-.538-.262.573-1.415.106c-2.88 0-15.339.708-17.235-.191l-1.479.248-16.917.078-1.032-.559-.276.573-1.366.049h-8.738l6.828 67.568-7.585.078 6.856 118.755c6.304 1.196 12.891 1.776 19.258 2.654l39.515 5.469 21.6 2.985c2.752.375 7.019 1.415 9.651 1.125 3.636-.417 9.728-3.014 13.442-4.245 12.028-3.919 24.013-8.122 36.14-11.702V408.461c-.361-1.805-.064-5.243 0-6.892v-14.857l-.127-53.071ZM232.2 451.194l-36.083 11.752-2.052-127.904h49.618l.113 112.402-11.596 3.75Z" fill="#022F45"/><path d="M241.744 333.655h-47.63l7.288-67.829 15.275 7.076.262-.411.594 1.415.368-.127.226-.559c.052.223.135.437.248.637.828 1.04 17.362 8.49 19.647 9.551l.899.382-5.802 49.738 8.625.127ZM243.718 335.056l.114 112.403-11.632 3.735-36.048 11.752-2.051-127.904 49.617.014Z" fill="#022F45"/><path d="M132.546 335.049h12.403l-.092 13.4h-12.353l.042-13.4Z" fill="#FEFEFE"/><path d="M241.744 333.655h-47.63l7.288-67.829 15.275 7.076.262-.411.594 1.415.368-.127.226-.559c.052.223.135.437.248.637.828 1.04 17.362 8.49 19.647 9.551l.899.382-5.802 49.738 8.625.127Z" fill="#FEB703"/><path d="M213.366 308.319a7.076 7.076 0 0 1 1.804 3.998l-.226 1.372-.623-.127-3.176-3.177 2.221-2.066ZM220.879 300.884c1.67.594 1.161 2.221 3.319 2.787l.17.297-1.698 1.769-3.715-2.83 1.924-2.023ZM218.41 303.742l.799.927 1.84 2.943-3.679.707-.071.354.785 1.783.064.403h-.566c-1.167-.148-2.667-2.504-3.382-3.424l4.21-3.693ZM243.832 447.459l-11.632 3.735-36.048 11.752-2.051-127.904 49.617.014.114 112.403Z" fill="#FEB703"/><path d="M203.673 341.233h14.596v15.48H203.56l.113-15.48Z" fill="#022F45"/><path d="M205.088 342.74h11.794l-.127 12.417h-11.66l-.007-12.417Z" fill="#FEFEFE"/><path d="m146.505 265.713 1.415-.106.262-.573.29.538 16.981.063 1.726-.162 16.641.276 1.04-.298c2.745.213 13.11.658 15.232-.169l-7.499 68.289H98.734l7.585-.078-6.828-67.568h8.738l1.366-.049.276-.573 1.033.559 16.916-.078 1.479-.248c1.868.871 14.327.248 17.206.177Z" fill="#fff"/><path d="m180.403 275.378 1.839 4.952-.304.276-.608-.283-3.135-2.639 2.208-2.306ZM180.94 274.663c1.076-1.033 3.255-3.636 4.663-3.785l2.313 2.66.361.51-1.252.948-2.193-.305.559-1.662-.184-.396-2.385 1.684 1.642 1.415.163.233.382 1.769-.482.07-3.587-3.141ZM138.278 317.821l2.617 3.885-2.299.495-1.111.863-.262 2.703-3.664-3.807 4.719-4.139Z" fill="#fff"/><path d="M128.585 278.752h34.901l.1 17.688-34.973.142-.028-17.83Z" fill="#022F45"/><path d="M130.092 280.373h31.838v14.511h-31.789l-.049-14.511Z" fill="#fff"/><path d="M146.591 335.042h45.839l2.003 112.997.155 15.183-87.441-12.226-6.948-115.968h30.6v14.737h15.749l.043-14.723Z" fill="#022F45"/><path d="m149.28 431.271 33.472 1.627.913 16.138-34.399-3.077.014-14.688Z" fill="#fff"/></g><defs><clipPath id="a"><path fill="#fff" transform="translate(97.54 6)" d="M0 0h391.416v461H0z"/></clipPath></defs></svg>