<svg width="80" height="80" viewBox="0 0 80 80" fill="none" xmlns="http://www.w3.org/2000/svg">
<circle cx="40" cy="40" r="39" fill="white" stroke="#022F45" stroke-width="2"/>
<path d="M26.0827 40.6536H41.4971H44.58L46.8922 41.8097L47.6629 44.8926L55.7555 36.0293H56.9116L58.453 36.4147L59.6091 37.1854L59.9945 39.8829L44.1947 57.9949H25.6973L24.1559 56.8388L23.7705 54.912V43.7365L24.5412 42.1951L26.0827 40.6536Z" fill="#FFDD87"/>
<path d="M28.7803 36.0289V25.2388V22.9266L30.3217 21.7705H44.1947C44.503 21.7705 44.837 22.2843 44.9655 22.5412L45.7362 24.0827V36.0289H28.7803Z" fill="#FFDD87"/>
<path d="M59.7032 36.2855C58.9163 35.5714 57.8935 35.1978 56.839 35.2548C55.7782 35.3038 54.7997 35.763 54.0856 36.5483L48.1766 43.0448C47.6794 41.2904 46.0628 40 44.1517 40H26.9583C24.7765 40 23 41.7749 23 43.9583V55.0417C23 57.2251 24.7765 59 26.9583 59H44.7297L59.9914 41.8731C61.4338 40.2533 61.304 37.7485 59.7017 36.2871L59.7032 36.2855ZM58.8102 40.817L44.0219 57.4151H26.9583C25.6489 57.4151 24.5833 56.3495 24.5833 55.0401V43.9568C24.5833 42.6473 25.6489 41.5817 26.9583 41.5817H44.1502C45.5831 41.5817 46.75 42.7487 46.75 44.1832C46.75 45.4688 45.7905 46.5756 44.527 46.7545L35.5637 47.9214L35.768 49.4921L44.7407 48.3236C46.3589 48.0924 47.662 46.9334 48.1386 45.4372L55.2557 37.6155C55.6863 37.1421 56.2753 36.865 56.9134 36.8365C57.5436 36.8033 58.1642 37.0281 58.6361 37.4572C59.6003 38.3375 59.6779 39.8448 58.8087 40.8186L58.8102 40.817ZM34.0833 25.75H40.4167V27.3333H34.0833V25.75ZM46.75 24.1667C46.75 22.4202 45.3297 21 43.5833 21H30.9167C29.1702 21 27.75 22.4202 27.75 24.1667V36.8333H46.75V24.1667ZM45.1667 35.25H29.3333V24.1667C29.3333 23.2927 30.0442 22.5833 30.9167 22.5833H43.5833C44.4557 22.5833 45.1667 23.2927 45.1667 24.1667V35.25Z" fill="#022F45"/>
</svg>
