<svg width="48" height="48" fill="none" xmlns="http://www.w3.org/2000/svg"><circle cx="24" cy="24" r="23.5" fill="#fff" stroke="#022F45"/><g clip-path="url(#a)"><path d="M12.26 25.087v-5.218l.783-2.087c.783-.608 2.4-1.878 2.609-2.086a781.14 781.14 0 0 0 3.913-4.174c.782-.783 2.4-2.348 2.608-2.348h2.348l10.174 8.087c.087.348.365 1.252.783 2.087.522 1.043 0 1.565 0 2.087v4.174c0 .208.348 1.652.522 2.347-.348 1.826-1.044 5.635-1.044 6.261 0 .783-.26.783-.26 1.305v.521c-.523.348-1.67.992-2.088.783-.521-.26-1.304 0-2.087-.26-.782-.262-.782 0-1.304 0h-.783c-.26 0-.26-.523-.26-1.305 0-.783-.261-.261-.261-1.044V31.348c0-.522 0-.522-.261-1.044-.261-.521-.261-.782-.522-1.304-.26-.522-.522 0-.783 0-.26 0-.26-.261-1.565-.783-.521 0-.521-.26-1.043-.26h-.783c-.26 0-1.043.26-1.304.26-.261 0-.261.522-.783 1.566-.26.782-.782 2.086-.782 2.87 0 .782-.261 1.043-.522 1.564-.261.522-.261 1.305-.261 1.566 0 .208-.348.608-.522.782h-2.348c-.521 0-1.304-.26-1.826-.522l-1.565-.782c-.522-.261-.782-1.305-.782-1.565 0-.261-.261-1.566 0-2.087.26-.522 0-2.087 0-2.61v-3.912Z" fill="#FEB703"/><path d="M31.806 37.608h-2.465a2.41 2.41 0 0 1-2.41-2.41v-3.451a2.93 2.93 0 1 0-5.862 0v3.442a2.41 2.41 0 0 1-2.41 2.42h-2.466a4.885 4.885 0 0 1-4.884-4.885V19.777a4.866 4.866 0 0 1 1.734-3.744l7.807-6.51a4.885 4.885 0 0 1 6.254 0l7.852 6.51a4.868 4.868 0 0 1 1.753 3.753v12.938a4.883 4.883 0 0 1-4.903 4.885ZM24 26.871a4.885 4.885 0 0 1 4.885 4.885v3.442a.456.456 0 0 0 .456.457h2.475a2.93 2.93 0 0 0 2.93-2.931V19.777a2.922 2.922 0 0 0-1.059-2.255l-7.815-6.501a2.931 2.931 0 0 0-3.753 0l-7.806 6.5a2.921 2.921 0 0 0-1.05 2.247v12.956a2.932 2.932 0 0 0 2.93 2.93h2.466a.466.466 0 0 0 .456-.456v-3.451A4.885 4.885 0 0 1 24 26.87Z" fill="#022F45"/></g><defs><clipPath id="a"><path fill="#fff" transform="translate(9.392 8.391)" d="M0 0h29.217v29.217H0z"/></clipPath></defs></svg>