<svg width="48" height="48" fill="none" xmlns="http://www.w3.org/2000/svg"><circle cx="24" cy="24" r="23.5" fill="#fff" stroke="#022F45"/><g clip-path="url(#a)"><path d="M36.386 21.066v11.497a5.42 5.42 0 0 1-1.609 3.843 5.52 5.52 0 0 1-3.878 1.595H17.487a5.519 5.519 0 0 1-3.878-1.594A5.42 5.42 0 0 1 12 32.564V14.437a5.42 5.42 0 0 1 1.609-3.843 5.519 5.519 0 0 1 3.878-1.594h6.724c1.04-.002 2.072.2 3.033.595a7.88 7.88 0 0 1 2.568 1.706l4.25 4.211a7.798 7.798 0 0 1 1.723 2.545c.4.954.604 1.976.601 3.008Z" fill="#FEB703"/><path d="M29.07 24.708h-9.754c-.647 0-1.267.256-1.724.709a2.409 2.409 0 0 0-.715 1.708v2.417c0 .64.258 1.255.715 1.708a2.452 2.452 0 0 0 1.724.708h9.755c.646 0 1.266-.255 1.723-.708a2.408 2.408 0 0 0 .715-1.708v-2.417c0-.64-.258-1.255-.715-1.708a2.453 2.453 0 0 0-1.724-.709Zm1.22 4.834c-.001.32-.13.627-.358.853a1.227 1.227 0 0 1-.861.355h-9.755c-.323 0-.633-.128-.861-.355a1.205 1.205 0 0 1-.358-.853v-2.417c0-.32.129-.627.357-.854.229-.226.539-.354.862-.354h9.755c.323 0 .632.128.86.354.23.227.358.534.359.854v2.417Zm-13.413-9.063c0-.16.064-.314.179-.427a.613.613 0 0 1 .43-.177h4.878a.614.614 0 0 1 .58.369.6.6 0 0 1-.341.799.615.615 0 0 1-.24.04h-4.876a.612.612 0 0 1-.431-.177.602.602 0 0 1-.179-.427Zm0-4.833c0-.16.065-.314.179-.427a.612.612 0 0 1 .43-.177h4.878a.615.615 0 0 1 .58.368.6.6 0 0 1-.341.8.615.615 0 0 1-.24.04h-4.876a.612.612 0 0 1-.431-.177.601.601 0 0 1-.179-.427Zm17.188-.134-4.25-4.211a7.877 7.877 0 0 0-2.568-1.706A7.935 7.935 0 0 0 24.214 9h-6.727a5.519 5.519 0 0 0-3.878 1.594A5.42 5.42 0 0 0 12 14.438v18.124a5.42 5.42 0 0 0 1.609 3.844A5.518 5.518 0 0 0 17.487 38H30.9a5.518 5.518 0 0 0 3.878-1.594 5.42 5.42 0 0 0 1.608-3.843V21.063a7.739 7.739 0 0 0-.6-3.005 7.795 7.795 0 0 0-1.721-2.545v-.002Zm-.864.854a6.594 6.594 0 0 1 1.501 2.3h-6.245c-.485 0-.95-.19-1.293-.53-.343-.34-.536-.8-.536-1.282v-6.188c.87.33 1.66.837 2.322 1.488l4.251 4.211v.001Zm1.965 16.2a4.215 4.215 0 0 1-1.252 2.988 4.293 4.293 0 0 1-3.016 1.24H17.487a4.293 4.293 0 0 1-3.016-1.24 4.216 4.216 0 0 1-1.252-2.989V14.44a4.216 4.216 0 0 1 1.252-2.989 4.293 4.293 0 0 1 3.016-1.24h6.724c.403.002.805.04 1.2.113v6.53c.002.801.323 1.569.894 2.135a3.066 3.066 0 0 0 2.154.886h6.591c.074.392.112.79.114 1.19l.002 11.5Z" fill="#022F45"/></g><defs><clipPath id="a"><path fill="#fff" transform="translate(12 9)" d="M0 0h24.386v29H0z"/></clipPath></defs></svg>