<svg width="50" height="51" fill="none" xmlns="http://www.w3.org/2000/svg"><g clip-path="url(#a)"><path d="M42.398 33.422c0 1.247-.138 5.38-1.88 9.19-.417.919-.93 1.79-1.532 2.598-.339.474-.724.913-1.148 1.31-2.08 1.983-5.239 3.023-9.061 3.023a23.827 23.827 0 0 1-2.74-.165 30.063 30.063 0 0 1-13.01-4.84C5.871 39.63 3.154 32.126 2.172 28.085 1.418 25.06.078 16.949 4.937 9.901a21.405 21.405 0 0 1 3.59-4.041.144.144 0 0 1 0-.035h.029a17.918 17.918 0 0 1 5.666-3.328 18.984 18.984 0 0 1 6.002-1.06c7.772-.066 13.69 5.08 16.083 7.549l9.087-5.196a.81.81 0 0 1 1.105.306.82.82 0 0 1-.304 1.111l-8.736 4.988a16.15 16.15 0 0 1 3.446 6.41 16.32 16.32 0 0 1 .422 6.472c1.864-.93 3.771-1.068 5.198-.237a4.08 4.08 0 0 1 1.927 2.665c.604 2.736-1.938 6.024-6.054 7.917Z" fill="#fff"/><path d="M49.887 25.221a5.564 5.564 0 0 0-.928-2.084 5.533 5.533 0 0 0-1.685-1.532 6.079 6.079 0 0 0-4.337-.578 17.776 17.776 0 0 0-.617-4.78 17.514 17.514 0 0 0-2.674-5.608l7.277-4.153a2.275 2.275 0 0 0 .842-3.08A2.244 2.244 0 0 0 44.7 2.56l-8.14 4.63C33.782 4.532 27.929-.01 20.399-.01h-.16c-2.205.034-4.39.424-6.47 1.155-.604.216-1.104.43-1.489.606a19.396 19.396 0 0 0-5.014 3.325A23.057 23.057 0 0 0 3.78 9.092C-.624 15.482-.285 22.63.424 26.656H.358l.434 1.787c1.03 4.245 3.888 12.14 11.441 17.318a31.553 31.553 0 0 0 13.654 5.08c.963.114 1.933.171 2.903.173 4.23 0 7.705-1.18 10.052-3.414a10.17 10.17 0 0 0 1.306-1.51c.66-.89 1.222-1.85 1.678-2.86 1.539-3.366 1.915-6.899 1.993-8.885 4.276-2.266 6.746-5.923 6.068-9.124Zm-8.087 6.89-.839.384v.927c0 1.12-.126 5.04-1.749 8.59-.372.829-.833 1.616-1.373 2.346l-.023.032c-.281.397-.6.765-.953 1.1-1.8 1.717-4.595 2.623-8.073 2.623a22.714 22.714 0 0 1-2.585-.152 28.584 28.584 0 0 1-12.369-4.602C7.549 39.063 4.881 32.587 3.784 28.61l-.212-.866c-.733-2.941-1.947-10.483 2.553-17.03a20.05 20.05 0 0 1 3.257-3.703l.12-.104a16.566 16.566 0 0 1 5.216-3.065c1.78-.62 3.647-.949 5.531-.976h.135c7.246 0 12.823 4.965 14.89 7.11l.776.802.322.366a14.623 14.623 0 0 1 3.159 5.84c.52 1.918.65 3.923.385 5.893l-.365 2.697 2.427-1.21c1.479-.736 2.872-.84 3.843-.289a2.65 2.65 0 0 1 1.237 1.712c.446 2.038-1.823 4.745-5.258 6.324Z" fill="#fff"/><path d="M48.481 25.516a4.108 4.108 0 0 0-1.927-2.664c-1.436-.832-3.332-.693-5.195.236a16.373 16.373 0 0 0-.422-6.471 16.188 16.188 0 0 0-3.447-6.41l8.737-4.988a.811.811 0 0 0 .404-.81.819.819 0 0 0-.589-.684.806.806 0 0 0-.614.076l-9.087 5.196c-2.383-2.468-8.3-7.615-16.082-7.548a18.967 18.967 0 0 0-6.003 1.06 17.961 17.961 0 0 0-5.669 3.327h-.026v.035a21.39 21.39 0 0 0-3.587 4.04C.112 16.964 1.454 25.075 2.21 28.097c.982 4.041 3.699 11.546 10.856 16.453a30.062 30.062 0 0 0 13.01 4.84c.909.108 1.823.163 2.74.165 3.822 0 6.98-1.04 9.06-3.022a9.077 9.077 0 0 0 1.149-1.31c.599-.81 1.111-1.68 1.528-2.599 1.743-3.81 1.884-7.943 1.884-9.19 4.078-1.905 6.62-5.192 6.045-7.917ZM9.423 6.388a17.132 17.132 0 0 1 4.449-2.7 26.968 26.968 0 0 1 9.402 5.67 26.993 26.993 0 0 1 4.004 4.684L11.33 23.088a27.728 27.728 0 0 1-1.901-5.983 27.917 27.917 0 0 1-.006-10.717Zm10.83-3.97h.155c7.094 0 12.582 4.593 14.986 7.023l-7.272 4.125a27.886 27.886 0 0 0-4.19-4.921 27.812 27.812 0 0 0-8.644-5.458 18.071 18.071 0 0 1 4.977-.768h-.012ZM5.747 10.467a21.177 21.177 0 0 1 2.513-3.02 28.851 28.851 0 0 0 .218 9.85 28.69 28.69 0 0 0 2.01 6.271l-7.383 4.189c-.721-2.976-1.927-10.643 2.653-17.29h-.011Zm35.96 22.197-.288.13v.328c0 .5.083 4.991-1.79 9.084-.389.865-.87 1.684-1.435 2.445-.3.425-.64.82-1.017 1.177-5.06 4.824-16.499 2.774-23.598-2.08a23.24 23.24 0 0 1-4.021-3.464c2.134-.774 3.639-2.598 3.843-4.697.215-2.242-1.15-3.85-1.42-4.153 2.339.159 4.309-1.588 4.49-3.683.143-1.715-.948-3.38-2.585-4.067l22.711-12.969a15.189 15.189 0 0 1 3.386 6.174c.61 2.232.708 4.574.287 6.85a11.326 11.326 0 0 0-2.217 1.968l.727.641c2.297-2.641 5.373-3.752 7.286-2.638a3.145 3.145 0 0 1 1.464 2.02c.5 2.327-1.947 5.248-5.812 6.934h-.012Z" fill="#022F45"/><path d="M28.875 38.282c-2.12-.331-3.88-1.38-5.494-2.805a3.938 3.938 0 0 1 1.398-.996 5.2 5.2 0 0 1 1.962-.404c-1.29-.93-3.257-.496-4.27.713-1.06 1.172-1.224 3.175-.147 4.35a4.682 4.682 0 0 1 .844-3.41c.377.92.957 1.74 1.698 2.4a7.065 7.065 0 0 0 4.721 1.798c1.965 0 4.003-.843 5.241-2.399-1.927.673-3.937 1.085-5.953.753ZM31.474 24.558c-1.76.213-3.346-.762-4.406-2.295-.11 2.309 2.318 4.254 4.615 3.888 2.315-.263 4.121-2.806 3.343-5.023-.56 1.77-1.8 3.181-3.553 3.43ZM29.334 18.95c1.355-.924 2.835-1.473 4.451-1.155.55.11 1.089.275 1.606.493-1.341-2.413-5.233-1.963-6.057.661Z" fill="#022F45"/></g><defs><clipPath id="a"><path fill="#fff" d="M0 0h50v51H0z"/></clipPath></defs></svg>