<svg width="200" height="43" fill="none" xmlns="http://www.w3.org/2000/svg"><path d="m36.996 31.813-5.956 9.442-.117-.075-1.707-1.118-1.62-1.064-.104-.07-5.204-3.417-5.486-3.603-6.891 4.67-.086.056-.14.095-.837.564.536 2.624a1 1 0 0 1-.591 1.137c-.133.058-.276.089-.421.09a.984.984 0 0 1-.817-.431l-6.363-8.929 3.37-1.845.046-.024.195-.104 9.529-5.212c.065-.253.132-.505.198-.758l.033-.125H6.202v-6.25H4.485l1.717-3.717v-.094h.042v-.005h6.907c-1.72-1.488-2.42-3.455-2.693-4.57-.234-.937-.651-3.45.862-5.633a6.578 6.578 0 0 1 1.117-1.253.018.018 0 0 1 0-.01h.008c.521-.45 1.12-.8 1.77-1.033a5.912 5.912 0 0 1 1.868-.328c2.42-.02 4.26 1.574 5.006 2.338l2.828-1.609a.255.255 0 0 1 .192-.025c.065.019.12.061.153.119a.255.255 0 0 1-.095.345l-2.72 1.549c.506.57.875 1.25 1.078 1.985.177.653.222 1.335.131 2.005.58-.287 1.174-.33 1.617-.073a1.278 1.278 0 0 1 .6.826c.179.844-.612 1.859-1.893 2.45 0 .386-.043 1.665-.586 2.846-.02.047-.045.09-.067.14l5.626.214v.104l1.715 3.43h-1.716v6.256H21.47l.387.517c.35.465.778.868 1.265 1.189l8.731 5.775.126.084.104.067 1.006.666 2.168-1.748a1.18 1.18 0 0 1 1.527.04A1.19 1.19 0 0 1 37 31.832l-.003-.019Z" fill="#fff"/><path d="m31.128 41.657-.358-.235-1.745-1.146-1.585-1.041-.104-.069-7.105-4.666-3.427-2.249-7.031 4.766-.602.406.5 2.435a1.283 1.283 0 0 1-.76 1.46 1.37 1.37 0 0 1-.535.112 1.27 1.27 0 0 1-1.052-.551l-6.552-9.19L14.088 24.4c.036-.132.07-.269.104-.398H5.913v-6.25H4.027l1.878-4.071v-.318h.16v-.007h6.354c-1.413-1.475-2.011-3.231-2.25-4.21l-.07-.283h.007c-.242-1.155-.472-3.503.97-5.583.316-.46.687-.88 1.103-1.253l.063-.184.122.028a5.888 5.888 0 0 1 1.743-.991 6.222 6.222 0 0 1 1.961-.345h.049c2.366 0 4.195 1.476 5.006 2.272l2.638-1.5a.534.534 0 0 1 .595.045.535.535 0 0 1 .204.36.543.543 0 0 1-.27.54l-2.42 1.375a5.242 5.242 0 0 1 1.093 3.47c.527-.155 1.032-.117 1.43.116a1.57 1.57 0 0 1 .74 1.015c.205.944-.573 2.032-1.892 2.693a7.714 7.714 0 0 1-.5 2.53l5.47.211v.297l1.895 3.789h-1.888v6.255h-6.194l.042.055c.33.44.733.819 1.192 1.121l8.96 5.926.826.552 2.008-1.617a1.445 1.445 0 0 1 1.9.047 1.446 1.446 0 0 1 .27 1.887l-6.094 9.682ZM16.8 31.557l.161.103 3.586 2.354 7.21 4.734 1.58 1.043 1.614 1.06 5.8-9.197a.893.893 0 0 0-1.318-1.174l-2.336 1.877-1.41-.93-8.732-5.776a5.38 5.38 0 0 1-1.335-1.255l-.734-.984h6.77v-6.257h1.535l-1.479-2.961-5.852-.225.212-.425c.017-.034.035-.069.05-.103.522-1.136.561-2.375.56-2.727v-.186l.17-.077c1.151-.529 1.877-1.423 1.73-2.127a.975.975 0 0 0-.463-.635c-.345-.202-.835-.17-1.341.08l-.487.242.073-.537a4.784 4.784 0 0 0-.125-1.89 4.669 4.669 0 0 0-1.014-1.87l-.186-.206h-.008l-.154-.161c-.66-.679-2.436-2.25-4.749-2.25h-.042a5.61 5.61 0 0 0-1.774.31 5.344 5.344 0 0 0-1.674.977l-.041.038a6.4 6.4 0 0 0-1.032 1.173c-1.44 2.077-1.052 4.47-.818 5.399l.066.268c.295 1.073.983 2.82 2.532 4.156l.587.508H6.436l-1.5 3.244H6.49v6.249h8.455l-.103.365-.027.104-.068.258-.136.516-.031.12-.11.06-9.765 5.348-3.086 1.69 6.175 8.664a.682.682 0 0 0 .581.309.78.78 0 0 0 .31-.063.703.703 0 0 0 .422-.814l-.575-2.814 1.219-.826 7.05-4.78Z" fill="#fff"/><path d="m31.288 42.387-.806-.526-1.746-1.147-1.587-1.039-.103-.069-7.41-4.865-2.828-1.859-6.875 4.659-.18.12.43 2.092a1.798 1.798 0 0 1-1.063 2.045c-.236.103-.49.156-.746.156a1.8 1.8 0 0 1-1.478-.773L0 31.506l12.763-6.988H5.38V18.27H3.213l2.173-4.711v-.723h.375v-.006h5.543a10.27 10.27 0 0 1-1.639-3.562l-.196-.805.038-.008c-.206-1.362-.216-3.52 1.143-5.481a7.538 7.538 0 0 1 1.082-1.253l.167-.5.341.075a6.34 6.34 0 0 1 1.7-.918A6.74 6.74 0 0 1 16.073 0h.054c2.281 0 4.077 1.24 5.083 2.146L23.506.838a1.058 1.058 0 0 1 .815-.108 1.065 1.065 0 0 1 .237 1.959l-1.92 1.091a5.773 5.773 0 0 1 .855 2.683c.41-.022.82.074 1.178.277a2.089 2.089 0 0 1 .988 1.362c.236 1.107-.517 2.334-1.893 3.122a8.446 8.446 0 0 1-.29 1.711l5.275.207v.69l2.219 4.44h-2.211v6.254h-5.491c.095.076.194.147.295.214l8.961 5.927.516.34 1.71-1.377c.904-.727 1.961-.478 2.58.065a1.961 1.961 0 0 1 .358 2.557l-6.4 10.135ZM2.384 32.056l5.833 8.185a.17.17 0 0 0 .154.089.232.232 0 0 0 .094-.02.19.19 0 0 0 .104-.09.19.19 0 0 0 .013-.138l-.647-3.156 1.511-1.023 7.34-4.973.454.297 3.587 2.354 7.209 4.734 1.413.93 1.342.88 5.514-8.741a.37.37 0 0 0-.544-.486l-2.635 2.121-1.73-1.145-8.732-5.776a5.918 5.918 0 0 1-1.465-1.377l-1.363-1.827h7.293V16.64h1.211l-.962-1.924-6.354-.245.579-1.162c.013-.026.027-.05.038-.078.48-1.043.516-2.187.516-2.512v-.523l.476-.218c.993-.455 1.52-1.154 1.436-1.54a.45.45 0 0 0-.21-.291c-.186-.103-.517-.07-.851.097l-1.371.678.206-1.52a4.27 4.27 0 0 0-.109-1.68 4.186 4.186 0 0 0-.902-1.662l-.059-.065-.273-.283c-.61-.626-2.26-2.092-4.374-2.092h-.04a5.086 5.086 0 0 0-1.6.28c-.553.2-1.064.5-1.51.883l-.042.037a5.778 5.778 0 0 0-.945 1.073c-1.318 1.902-.958 4.114-.742 4.975l.064.258c.252.909.894 2.616 2.37 3.892l1.651 1.43H6.764l-1.01 2.192h1.258v6.254h8.618l-.282 1.033c-.009.03-.017.064-.025.095l-.068.26c-.046.172-.09.345-.137.517l-.088.34-.31.168-12.336 6.749ZM21.472 3.204l.023.025 2.552-1.45V1.76a.01.01 0 0 0 0-.006h-.018l-2.557 1.45Z" fill="#fff"/><path d="M18.737 15.72a7.38 7.38 0 0 1-.854-.052 9.367 9.367 0 0 1-4.05-1.497c-2.228-1.516-3.072-3.845-3.378-5.097l.292-.072c.295 1.21 1.11 3.46 3.256 4.919 2.211 1.503 5.77 2.138 7.346.644a2.6 2.6 0 0 0 .317-.364 4.18 4.18 0 0 0 .447-.758c.582-1.268.56-2.66.557-2.814v-.103l.09-.04c1.202-.523 1.966-1.432 1.81-2.152a.974.974 0 0 0-.455-.626c-.598-.345-1.55 0-2.272.818l-.227-.2c.813-.929 1.926-1.295 2.646-.88a1.267 1.267 0 0 1 .6.827c.178.843-.613 1.858-1.894 2.449 0 .386-.043 1.667-.585 2.847-.13.286-.29.557-.477.81a2.803 2.803 0 0 1-.352.405c-.64.613-1.624.936-2.817.936Z" fill="#022F45"/><path d="M20.614 11.993a2.105 2.105 0 0 1-1.63.743c-.542 0-1.063-.198-1.468-.557a1.917 1.917 0 0 1-.594-.94c.536.502 1.123.876 1.843.987.625.104 1.25-.024 1.851-.233h-.002Z" fill="#022F45"/><path d="M16.723 12.492c-.334-.357-.283-.983.047-1.342.31-.375.93-.51 1.329-.222a1.64 1.64 0 0 0-.611.127c-.572.234-.842.828-.765 1.437ZM20.677 6.912c.242.687-.321 1.475-1.042 1.556-.715.114-1.47-.49-1.437-1.205.332.475.826.778 1.372.712.546-.066.931-.516 1.107-1.063ZM18.903 6.237c.258-.813 1.47-.952 1.887-.2a2.637 2.637 0 0 0-.5-.154c-.503-.102-.964.068-1.387.354ZM10.551 9.421l-.051-.186c-.216-.771-.793-3.47.817-5.796.77-1.11 1.742-1.882 2.89-2.295a5.902 5.902 0 0 1 1.869-.328c2.496-.021 4.38 1.677 5.07 2.408l.133.14L10.55 9.421Zm5.574-8.304h-.044c-.602.007-1.2.112-1.77.31-1.09.391-2.013 1.126-2.745 2.183-1.43 2.057-1.05 4.44-.826 5.357l10.052-5.68c-.747-.749-2.454-2.172-4.662-2.172l-.005.002Z" fill="#022F45"/><path d="M18.422 4.952a8.348 8.348 0 0 0-4.363-3.457l.103-.285a8.663 8.663 0 0 1 4.519 3.577l-.26.165ZM13.135 7.877a8.882 8.882 0 0 1-.7-5.707l.296.061a8.572 8.572 0 0 0 .675 5.514l-.27.132ZM22.607 7.795l-.295-.057a4.7 4.7 0 0 0-1.439-4.364l.206-.222a5.01 5.01 0 0 1 1.528 4.643ZM13.546 7.6c.8-.024 1.42.654 1.36 1.362-.053.65-.668 1.19-1.396 1.136.083.095.509.593.44 1.287-.065.673-.565 1.259-1.268 1.482a13.856 13.856 0 0 1-.965-1.268c-.479-.71-.516-.91-.482-1.085.066-.343.357-.328.841-.857.413-.448.365-.64.909-1.376.175-.236.362-.463.561-.68Z" fill="#022F45"/><path d="M12.347 12.15 10.67 9.62l-.063-.423 2.388-1.322.186.85-.834 3.425Z" fill="#022F45"/><path d="m36.882 31.74-5.884 9.325-3.327-2.186 4.223-7.494 1.195.792 2.25-1.811c.922-.744 2.172.375 1.543 1.374Z" fill="#FEB703"/><path d="m31.04 41.255-.117-.076-1.707-1.117-1.62-1.064-.104-.07 4.358-7.732 1.24.817 2.167-1.75c.218-.175.491-.268.77-.262a1.18 1.18 0 0 1 1.143 1.022c.04.278-.021.56-.17.797l-5.96 9.435Zm-3.189-2.42 1.515.995 1.591 1.045 5.812-9.21a.914.914 0 0 0-.164-1.166.915.915 0 0 0-1.177-.031l-2.325 1.874-1.156-.765-4.096 7.259Z" fill="#022F45"/><path d="M9.251 39.943c.191.929-1.032 1.466-1.584.688l-6.274-8.803 3.373-1.848 4.947 6.562-1.018.69.556 2.71Z" fill="#FEB703"/><path d="M8.373 41.14a.98.98 0 0 1-.817-.43l-6.364-8.927 3.613-1.979 5.106 6.774-1.063.715.536 2.623a1.004 1.004 0 0 1-.591 1.138 1.054 1.054 0 0 1-.42.087Zm-6.781-9.267 6.186 8.674a.746.746 0 0 0 1.341-.582l-.574-2.8.974-.66-4.787-6.355-3.14 1.724Z" fill="#022F45"/><path d="m27.717 39.072-.122-.079-5.31-3.487-5.484-3.603-7.118 4.825-5.12-6.792 9.765-5.344c.067-.253.134-.506.199-.758l.222-.843.025-.103h.104l2.866-.042 2.97-.046h.07l1.066 1.424c.35.466.778.869 1.264 1.19l8.959 5.927-4.356 7.731ZM16.8 31.577l.075.05 5.557 3.652 5.185 3.407 4.09-7.258-8.74-5.782a5.367 5.367 0 0 1-1.331-1.251l-.984-1.313-2.901.043-2.764.04-.195.744-.214.813-.015.056L4.97 30.03l4.775 6.333 7.055-4.786Z" fill="#022F45"/><path d="M16.71 31.848c-.731-.58-2.029-1.859-2.487-3.913a6.848 6.848 0 0 1 .089-3.29l.263.073a6.579 6.579 0 0 0-.09 3.158c.441 1.973 1.688 3.201 2.392 3.756l-.166.216Z" fill="#022F45"/><path d="M20.74 13.782H6.331v9.79h14.41v-9.79Z" fill="#FEB703"/><path d="M20.876 23.708H6.194V13.646h14.681l.001 10.062Zm-14.408-.269H20.61v-9.52H6.468v9.52Z" fill="#022F45"/><path d="m20.74 13.783 7.068.271v9.519H20.74v-9.79Z" fill="#FEB703"/><path d="M27.945 23.708h-7.34V13.64l7.34.283v9.785Zm-7.069-.269h6.794v-9.255l-6.794-.26v9.515Z" fill="#022F45"/><path d="m6.331 13.783-1.63 3.534h14.403l1.636-3.534H6.331Z" fill="#FEB703"/><path d="M19.194 17.459H4.48l1.761-3.82h14.721l-1.768 3.82Zm-14.272-.283h14.091l1.507-3.253H6.423l-1.5 3.253Z" fill="#022F45"/><path d="m27.808 14.054-7.068-.271 1.631 3.534h7.07l-1.633-3.263Z" fill="#FEB703"/><path d="M29.66 17.453h-7.376l-1.755-3.815 7.37.283 1.76 3.532Zm-7.201-.269h6.76l-1.496-2.994-6.766-.26 1.502 3.254ZM23.909 1.544 12.023 8.3a.252.252 0 0 0 .25.438l11.89-6.755a.26.26 0 0 0 .118-.152.255.255 0 0 0-.176-.311.254.254 0 0 0-.192.024h-.004Z" fill="#022F45"/><path d="m75.34 31.813-5.955 9.442-.117-.075-1.707-1.119-1.62-1.063-.104-.07-5.204-3.417-5.486-3.603-6.891 4.666-.09.057-.14.095-.835.565.536 2.624a1.003 1.003 0 0 1-.59 1.138 1.077 1.077 0 0 1-.422.09.994.994 0 0 1-.816-.431l-6.363-8.929 3.37-1.845.046-.025.195-.103 9.525-5.213.199-.758c.01-.041.02-.084.033-.125h-8.361v-6.25h-1.717l1.717-3.717v-.092h.043v-.007h6.906c-1.721-1.487-2.421-3.453-2.694-4.568-.234-.937-.65-3.45.862-5.633a6.607 6.607 0 0 1 1.116-1.253v-.01h.01c.519-.45 1.117-.8 1.763-1.033a5.906 5.906 0 0 1 1.868-.327c2.42-.02 4.261 1.574 5.006 2.338l2.83-1.61a.26.26 0 0 1 .284.02.25.25 0 0 1 .096.169.26.26 0 0 1-.052.19.264.264 0 0 1-.074.066l-2.72 1.549a4.987 4.987 0 0 1 1.206 3.99c.58-.287 1.172-.33 1.616-.073a1.267 1.267 0 0 1 .6.826c.18.844-.613 1.859-1.893 2.45 0 .386-.043 1.665-.586 2.846-.021.047-.044.09-.068.139l5.626.216v.103l1.716 3.431H66.27v6.255h-6.48l.387.517c.35.465.778.867 1.265 1.188l8.731 5.776.126.084.104.067 1.007.666 2.168-1.748a1.182 1.182 0 0 1 1.913.758c.039.277-.021.56-.17.796l.018-.02Z" fill="#fff"/><path d="m69.471 41.657-.357-.235-1.745-1.146-1.584-1.041-.103-.069-7.105-4.666-3.425-2.249-7.03 4.766-.602.406.498 2.435a1.281 1.281 0 0 1-.758 1.46 1.37 1.37 0 0 1-.536.112 1.265 1.265 0 0 1-1.051-.551l-6.553-9.19L52.436 24.4l.103-.398h-8.278v-6.25h-1.878l1.878-4.071v-.318h.16v-.007h6.356c-1.413-1.475-2.011-3.231-2.25-4.21l-.07-.283h.007c-.242-1.155-.47-3.503.97-5.583a6.96 6.96 0 0 1 1.103-1.253l.062-.184.123.028a5.915 5.915 0 0 1 1.743-.991 6.229 6.229 0 0 1 1.968-.345h.047c2.366 0 4.195 1.476 5.007 2.272l2.636-1.5a.555.555 0 0 1 .2-.067.54.54 0 0 1 .491.87.542.542 0 0 1-.16.14l-2.42 1.375a5.224 5.224 0 0 1 1.088 3.462c.527-.154 1.032-.116 1.43.116a1.565 1.565 0 0 1 .74 1.016c.199.943-.573 2.032-1.892 2.692a7.714 7.714 0 0 1-.5 2.53l5.47.207v.31l1.9 3.791H66.58v6.255h-6.193l.042.056c.33.44.733.819 1.191 1.121l8.96 5.926.831.55 2.008-1.615a1.437 1.437 0 0 1 1.901.047 1.438 1.438 0 0 1 .269 1.886l-6.119 9.681Zm-14.33-10.1.16.103 3.587 2.354 7.209 4.734 1.586 1.041 1.614 1.06 5.798-9.195a.893.893 0 0 0-1.316-1.174l-2.337 1.877-1.41-.93-8.732-5.776a5.366 5.366 0 0 1-1.336-1.257l-.733-.984H66v-6.255h1.536l-1.477-2.952-5.853-.225.213-.425.05-.104c.521-1.135.56-2.374.56-2.727v-.186l.168-.077c1.153-.529 1.882-1.423 1.732-2.127a.983.983 0 0 0-.462-.635c-.346-.207-.837-.171-1.342.08l-.488.241.073-.536a4.782 4.782 0 0 0-.123-1.89 4.705 4.705 0 0 0-1.015-1.87l-.187-.207h-.006l-.157-.161c-.658-.678-2.436-2.251-4.748-2.251h-.042a5.606 5.606 0 0 0-1.774.31 5.344 5.344 0 0 0-1.674.978l-.041.037c-.391.347-.738.74-1.033 1.173-1.439 2.077-1.052 4.47-.818 5.4l.067.268c.295 1.072.983 2.819 2.532 4.155l.587.508H44.78l-1.5 3.235h1.554v6.249h8.455l-.098.367-.028.104-.068.259c-.046.171-.092.344-.136.516l-.032.12-.109.06-9.764 5.346-3.086 1.69 6.174 8.664a.68.68 0 0 0 .251.227.682.682 0 0 0 .33.082.761.761 0 0 0 .31-.064.705.705 0 0 0 .424-.814l-.576-2.813 1.219-.826 7.04-4.778Z" fill="#fff"/><path d="m69.635 42.387-.805-.526-1.748-1.147c-.527-.344-1.055-.69-1.583-1.04l-.103-.069-7.409-4.865-2.832-1.859-6.875 4.659-.179.12.429 2.092a1.8 1.8 0 0 1-1.062 2.045c-.236.103-.49.156-.747.156a1.808 1.808 0 0 1-1.478-.773l-6.895-9.675 12.762-6.988h-7.378v-6.249h-2.174l2.174-4.711v-.723h.374v-.005h5.543a10.285 10.285 0 0 1-1.638-3.562l-.196-.805.038-.008c-.207-1.362-.216-3.52 1.143-5.481a7.477 7.477 0 0 1 1.081-1.253l.167-.5.342.075c.516-.39 1.09-.7 1.7-.918A6.745 6.745 0 0 1 54.42 0h.053c2.282 0 4.077 1.24 5.083 2.146L61.858.837a1.072 1.072 0 0 1 .819-.115 1.055 1.055 0 0 1 .787.906 1.067 1.067 0 0 1-.555 1.064l-1.92 1.091c.502.81.796 1.733.855 2.685.41-.021.82.075 1.178.277a2.09 2.09 0 0 1 .988 1.362c.237 1.108-.516 2.334-1.893 3.122a8.502 8.502 0 0 1-.289 1.711l5.28.207v.69l2.218 4.44h-2.219v6.255h-5.491c.096.075.194.146.297.213l8.96 5.928.51.34 1.71-1.377c.904-.723 1.967-.478 2.58.064a1.962 1.962 0 0 1 .36 2.557l-6.398 10.13ZM40.732 32.056l5.832 8.182a.174.174 0 0 0 .154.09.253.253 0 0 0 .096-.02.183.183 0 0 0 .103-.09.181.181 0 0 0 .014-.138l-.646-3.157 1.51-1.022 7.34-4.975.454.298 3.582 2.355 7.21 4.733 1.412.93 1.342.88 5.515-8.741a.362.362 0 0 0 .051-.248.37.37 0 0 0-.597-.238l-2.633 2.121-1.73-1.144-8.732-5.777a5.903 5.903 0 0 1-1.466-1.377l-1.362-1.824h7.292V16.64h1.212l-.962-1.924-6.355-.245.58-1.162c.013-.026.026-.05.038-.078.479-1.043.516-2.187.516-2.512v-.523l.476-.218c.993-.455 1.52-1.154 1.436-1.54a.45.45 0 0 0-.211-.291c-.187-.103-.516-.07-.85.097l-1.371.678.206-1.52a4.168 4.168 0 0 0-1.012-3.342l-.058-.065-.274-.283c-.61-.626-2.258-2.092-4.374-2.092h-.039a5.086 5.086 0 0 0-1.6.28c-.552.2-1.064.5-1.51.883l-.041.037a5.774 5.774 0 0 0-.946 1.073c-1.318 1.902-.958 4.114-.741 4.975l.064.258c.252.909.894 2.616 2.368 3.892l1.652 1.43h-8.568l-1.012 2.192h1.26v6.254h8.618l-.283 1.033-.025.095-.069.26-.135.517-.09.34-.31.168-12.33 6.749ZM59.813 3.204l.023.025 2.552-1.45a.01.01 0 0 0 .005 0 .01.01 0 0 0 0-.007V1.754h-.019l-2.56 1.45Z" fill="#fff"/><path d="M57.084 15.72a7.36 7.36 0 0 1-.852-.052 9.38 9.38 0 0 1-4.05-1.5c-2.228-1.515-3.074-3.845-3.38-5.096L49.097 9c.296 1.211 1.112 3.46 3.256 4.919 2.21 1.503 5.77 2.138 7.346.644a2.54 2.54 0 0 0 .317-.364 4.17 4.17 0 0 0 .447-.758c.583-1.268.562-2.659.557-2.814v-.103l.09-.04c1.203-.523 1.96-1.432 1.81-2.152a.977.977 0 0 0-.456-.626c-.597-.345-1.549 0-2.271.818l-.227-.2c.813-.929 1.926-1.295 2.646-.88a1.275 1.275 0 0 1 .6.827c.178.843-.613 1.858-1.894 2.449 0 .386-.043 1.667-.586 2.847-.129.286-.288.557-.475.81a2.786 2.786 0 0 1-.359.405c-.645.616-1.626.938-2.813.938Z" fill="#022F45"/><path d="M58.96 11.993a2.11 2.11 0 0 1-1.633.743 2.202 2.202 0 0 1-1.469-.557 1.932 1.932 0 0 1-.594-.94c.536.502 1.124.876 1.842.987.627.104 1.252-.024 1.853-.233Z" fill="#022F45"/><path d="M55.062 12.492c-.334-.357-.283-.983.046-1.342.328-.36.928-.51 1.33-.222-.21.002-.417.046-.611.127-.57.234-.84.828-.765 1.437ZM59.02 6.912c.244.687-.32 1.475-1.04 1.556-.715.114-1.471-.49-1.437-1.205.33.475.826.778 1.372.712.546-.066.931-.516 1.105-1.063ZM57.249 6.237c.257-.813 1.469-.952 1.885-.2a2.624 2.624 0 0 0-.499-.154c-.502-.102-.965.068-1.386.354ZM48.895 9.421l-.053-.186c-.215-.771-.793-3.47.819-5.796.769-1.11 1.741-1.882 2.89-2.295.6-.21 1.231-.32 1.867-.328 2.496-.021 4.381 1.677 5.07 2.408l.134.14-10.727 6.057Zm5.574-8.304h-.05a5.59 5.59 0 0 0-1.769.31c-1.09.391-2.014 1.126-2.745 2.183-1.43 2.057-1.052 4.44-.826 5.357l10.054-5.68c-.747-.751-2.455-2.174-4.663-2.174l-.001.004Z" fill="#022F45"/><path d="M56.766 4.952a8.362 8.362 0 0 0-4.364-3.457l.104-.285a8.671 8.671 0 0 1 4.52 3.577l-.26.165ZM51.487 7.877a8.882 8.882 0 0 1-.7-5.707l.294.061a8.586 8.586 0 0 0 .677 5.514l-.271.132ZM60.946 7.795l-.295-.057a4.7 4.7 0 0 0-1.44-4.364l.207-.222a4.998 4.998 0 0 1 1.528 4.642ZM51.892 7.6c.798-.024 1.419.654 1.36 1.362-.055.65-.67 1.19-1.398 1.136.084.095.51.593.441 1.287-.065.673-.566 1.259-1.269 1.482a13.654 13.654 0 0 1-.964-1.268c-.479-.71-.516-.91-.483-1.085.066-.343.357-.328.841-.857.413-.448.366-.64.909-1.376.175-.236.363-.464.563-.68Z" fill="#022F45"/><path d="m50.69 12.15-1.675-2.53-.064-.423 2.388-1.322.186.85-.834 3.425Z" fill="#022F45"/><path d="m75.225 31.74-5.883 9.325-3.328-2.186 4.223-7.494 1.195.792 2.25-1.811c.923-.744 2.174.375 1.543 1.374Z" fill="#FEB703"/><path d="m69.384 41.255-.116-.076-1.707-1.117-1.62-1.064-.104-.07 4.36-7.732 1.233.817 2.167-1.75a1.189 1.189 0 0 1 1.53.037c.21.188.346.444.384.723.04.278-.021.56-.171.797l-5.956 9.435Zm-3.189-2.42 1.514.995 1.592 1.045 5.81-9.21a.909.909 0 0 0-.746-1.397.918.918 0 0 0-.594.2l-2.325 1.874-1.156-.765-4.095 7.259Z" fill="#022F45"/><path d="M47.595 39.943c.192.929-1.032 1.466-1.584.688l-6.275-8.803 3.374-1.848 4.946 6.562-1.017.69.556 2.71Z" fill="#FEB703"/><path d="M46.716 41.14a.985.985 0 0 1-.816-.43l-6.363-8.927 3.613-1.979 5.103 6.77-1.06.716.536 2.623a1 1 0 0 1-.59 1.138c-.133.059-.277.09-.423.09Zm-6.78-9.267 6.186 8.674a.749.749 0 0 0 1.345-.582l-.575-2.8.974-.66-4.79-6.355-3.14 1.724Z" fill="#022F45"/><path d="m66.059 39.072-.122-.079-5.31-3.487-5.487-3.603-7.117 4.824-5.119-6.79 9.768-5.345c.07-.253.136-.506.2-.758l.22-.843.028-.103h.103l2.865-.042 2.971-.046h.07l1.066 1.424c.35.466.778.869 1.264 1.19l8.96 5.927-4.36 7.731Zm-10.921-7.495.075.05 5.563 3.652 5.185 3.407 4.09-7.258-8.748-5.782a5.366 5.366 0 0 1-1.328-1.253l-.984-1.312-2.9.043-2.764.04-.196.744-.214.813-.014.056-9.593 5.252 4.774 6.333 7.053-4.785Z" fill="#022F45"/><path d="M55.057 31.848c-.733-.58-2.03-1.859-2.487-3.913a6.836 6.836 0 0 1 .09-3.29l.26.073a6.569 6.569 0 0 0-.088 3.158c.44 1.973 1.687 3.201 2.39 3.756l-.165.216Z" fill="#022F45"/><path d="M59.084 13.782H44.676v9.79h14.408v-9.79Z" fill="#FEB703"/><path d="M59.22 23.708H44.54V13.646h14.68v10.062Zm-14.408-.269h14.141v-9.52H44.811v9.52Z" fill="#022F45"/><path d="m59.085 13.783 7.068.271v9.519h-7.068v-9.79Z" fill="#FEB703"/><path d="M66.288 23.708H58.95V13.64l7.34.283v9.785Zm-7.067-.269h6.794v-9.255l-6.794-.26v9.515Z" fill="#022F45"/><path d="m44.676 13.783-1.631 3.534h14.403l1.637-3.534h-14.41Z" fill="#FEB703"/><path d="M57.539 17.459H42.823l1.762-3.82h14.721l-1.767 3.82Zm-14.276-.283h14.09l1.506-3.253H44.767l-1.504 3.253Z" fill="#022F45"/><path d="m66.153 14.054-7.068-.271 1.63 3.534h7.069l-1.631-3.263Z" fill="#FEB703"/><path d="M68.004 17.453h-7.375l-1.76-3.815 7.37.283 1.765 3.532Zm-7.202-.269h6.762l-1.497-2.994-6.766-.26 1.5 3.254ZM62.254 1.544 50.364 8.3a.253.253 0 0 0 .061.455.255.255 0 0 0 .187-.017l11.89-6.755a.254.254 0 0 0-.057-.463.254.254 0 0 0-.192.024Z" fill="#022F45"/><path d="M94.737 16.196c-.069-.098-.14-.154-.191-.154a.52.52 0 0 0-.29.14 6.018 6.018 0 0 1-1.487.846 4.664 4.664 0 0 1-1.693.304 3.75 3.75 0 0 1-1.92-.494 3.49 3.49 0 0 1-1.324-1.382 4.14 4.14 0 0 1-.478-2.007 4.213 4.213 0 0 1 .478-2.03 3.498 3.498 0 0 1 1.324-1.38 3.762 3.762 0 0 1 1.92-.494c1.07 0 2.126.372 3.139 1.108.08.063.174.106.273.124.076 0 .153-.06.231-.175l1.233-1.8a.505.505 0 0 0 .1-.242c0-.092-.09-.186-.163-.249a7.737 7.737 0 0 0-2.215-1.338 6.971 6.971 0 0 0-2.581-.475 7.389 7.389 0 0 0-3.657.91 6.58 6.58 0 0 0-2.528 2.504 7.182 7.182 0 0 0-.914 3.601 6.98 6.98 0 0 0 .892 3.513 6.37 6.37 0 0 0 2.48 2.454c.947.503 1.984.8 3.048.87a7.515 7.515 0 0 0 3.132-.46 7.863 7.863 0 0 0 2.242-1.314c.156-.132.236-.247.236-.342a.429.429 0 0 0-.083-.227l-1.204-1.811ZM109.152 6.77h-2.56c-.255 0-.351.092-.351.341v4.186a.45.45 0 0 1-.118.377.419.419 0 0 1-.366.124h-3.943a.482.482 0 0 1-.385-.135.557.557 0 0 1-.101-.366V7.111a.414.414 0 0 0-.07-.262.404.404 0 0 0-.279-.074h-2.56a.388.388 0 0 0-.255.074.416.416 0 0 0-.07.262v12.634a.419.419 0 0 0 .07.263c.075.054.165.08.255.071h2.56a.411.411 0 0 0 .279-.07.414.414 0 0 0 .07-.264v-4.438a.56.56 0 0 1 .101-.367.497.497 0 0 1 .178-.11.463.463 0 0 1 .207-.024h3.943a.421.421 0 0 1 .198.016.431.431 0 0 1 .271.281.44.44 0 0 1 .015.204v4.438c0 .25.096.342.351.342h2.56c.254 0 .349-.09.349-.342V7.111c-.007-.25-.095-.341-.349-.341ZM115.586 6.843a.407.407 0 0 0-.279-.073h-2.56a.356.356 0 0 0-.255.073.407.407 0 0 0-.071.263V19.74a.407.407 0 0 0 .071.263c.074.055.165.08.255.071h2.56a.413.413 0 0 0 .279-.071.414.414 0 0 0 .07-.263V7.106a.414.414 0 0 0-.07-.263ZM127.888 7.96c-.954-.788-2.421-1.19-4.352-1.19h-4.627a.365.365 0 0 0-.255.073.42.42 0 0 0-.07.263V19.74a.427.427 0 0 0 .07.263c.074.055.165.08.255.07h2.56a.413.413 0 0 0 .279-.07.414.414 0 0 0 .07-.263v-2.815a.492.492 0 0 1 .13-.379.52.52 0 0 1 .356-.103h1.137c1.921 0 3.396-.42 4.389-1.252.992-.832 1.478-2.049 1.478-3.65 0-1.6-.478-2.8-1.42-3.58Zm-5.584 5.636a.503.503 0 0 1-.207-.024.516.516 0 0 1-.178-.109.561.561 0 0 1-.101-.366v-2.973a.565.565 0 0 1 .101-.368.492.492 0 0 1 .385-.133h.986c.892 0 1.538.14 1.986.43.228.146.41.357.525.607.125.286.185.597.177.91-.007 1.344-.908 2.026-2.683 2.026h-.991ZM146.377 19.95a.992.992 0 0 0-.12-.176l-2.199-2.31.15-.132c.355-.317.68-.67.971-1.051.308-.384.578-.8.805-1.24a.818.818 0 0 0 .111-.363c0-.102-.079-.205-.238-.313l-1.723-1.091a.533.533 0 0 0-.284-.114c-.11 0-.212.148-.275.272a8.73 8.73 0 0 1-.631.993c-.214.296-.454.571-.717.82l-.128.113-1.562-1.612.246-.115c.855-.377 1.529-.866 2.011-1.453a3.25 3.25 0 0 0 .704-2.103 3.33 3.33 0 0 0-.501-1.878 3.167 3.167 0 0 0-1.45-1.246 5.432 5.432 0 0 0-2.322-.463c-.928 0-1.74.177-2.412.526a3.739 3.739 0 0 0-1.52 1.379 3.578 3.578 0 0 0-.51 1.857c-.006.433.072.864.231 1.265.169.399.396.768.672 1.097l.166.198-.235.099a4.333 4.333 0 0 0-1.874 1.411 3.526 3.526 0 0 0-.656 2.125c-.015.72.161 1.432.51 2.057a3.553 3.553 0 0 0 1.544 1.404c.373.182.766.314 1.171.394.47.09.947.134 1.424.131a6.4 6.4 0 0 0 3.896-1.274l.127-.095.716.74a.967.967 0 0 0 .291.227.952.952 0 0 0 .359.046h3.016c.094 0 .255-.012.255-.085a.523.523 0 0 0-.019-.04Zm-6.724-2.79c-.229.173-.481.31-.748.406a2.64 2.64 0 0 1-.874.138 1.747 1.747 0 0 1-.883-.22 1.552 1.552 0 0 1-.593-.588 1.648 1.648 0 0 1-.202-.808 1.453 1.453 0 0 1 .284-.895c.198-.26.457-.461.753-.588l.111-.05 2.317 2.478-.165.127Zm.474-5.805a2.531 2.531 0 0 1-1.09.682l-.099.036-.08-.071c-.607-.543-.915-1.104-.915-1.667a1.295 1.295 0 0 1 .088-.493c.061-.156.152-.299.269-.418a1.295 1.295 0 0 1 .962-.368c.405 0 .721.121.939.363.218.245.335.568.323.9a1.53 1.53 0 0 1-.397 1.036ZM163.456 9.827a5.568 5.568 0 0 0-2.421-2.253c-1.063-.534-2.365-.804-3.873-.804h-4.855a.374.374 0 0 0-.255.073.427.427 0 0 0-.069.263V19.74a.427.427 0 0 0 .069.263c.073.055.164.08.255.07h4.513c1.57 0 2.93-.283 4.043-.84a5.903 5.903 0 0 0 2.538-2.366c.583-1.015.876-2.234.876-3.61.007-1.303-.272-2.46-.821-3.43Zm-3.58 6.308c-.695.657-1.721.987-3.058.987h-1.117a.484.484 0 0 1-.385-.134.568.568 0 0 1-.102-.367v-6.375a.561.561 0 0 1 .101-.367.489.489 0 0 1 .386-.134h1.194c.857 0 1.595.147 2.191.44a3.09 3.09 0 0 1 1.379 1.267c.317.587.477 1.25.461 1.922.007 1.167-.35 2.095-1.05 2.756v.005ZM178.7 19.726l-.008-.013-6.01-12.34a3.028 3.028 0 0 0-.475-.743.526.526 0 0 0-.792-.002 3.03 3.03 0 0 0-.476.742l-6.009 12.34a.552.552 0 0 0-.077.263c0 .03 0 .104.255.104h2.598a.83.83 0 0 0 .411-.071.678.678 0 0 0 .221-.324l.646-1.433a.737.737 0 0 1 .202-.28.54.54 0 0 1 .322-.083h4.499a.552.552 0 0 1 .325.084.753.753 0 0 1 .199.274l.661 1.43c.041.13.118.246.22.333.137.06.287.084.435.07h2.692c.255 0 .255-.074.255-.104a.575.575 0 0 0-.094-.247Zm-5.678-4.44a.472.472 0 0 1-.255.057h-2.047c-.374 0-.39-.271-.39-.325a.44.44 0 0 1 .08-.254l1.337-2.924 1.355 2.93c.042.075.062.16.06.247a.31.31 0 0 1-.034.152.303.303 0 0 1-.105.113l-.001.004ZM188.977 17.15a.395.395 0 0 0-.255-.071h-4.701a.488.488 0 0 1-.385-.134.571.571 0 0 1-.101-.368V7.114a.401.401 0 0 0-.07-.263.407.407 0 0 0-.279-.073h-2.56a.39.39 0 0 0-.261.073.442.442 0 0 0-.069.263v12.634a.442.442 0 0 0 .069.263c.077.054.169.079.261.07h8.096a.27.27 0 0 0 .262-.071.274.274 0 0 0 .07-.132.273.273 0 0 0 0-.144v-2.328a.431.431 0 0 0-.077-.256ZM199.809 17.303c-.025-.027-.099-.07-.285-.07h-4.721a.486.486 0 0 1-.385-.132.554.554 0 0 1-.099-.367v-1.427a.554.554 0 0 1 .099-.367.48.48 0 0 1 .385-.134h4.077a.281.281 0 0 0 .268-.072.297.297 0 0 0 .07-.131.273.273 0 0 0 0-.145v-2.133a.428.428 0 0 0-.075-.282.347.347 0 0 0-.255-.077h-4.078a.485.485 0 0 1-.374-.114.507.507 0 0 1-.11-.367v-1.367a.549.549 0 0 1 .1-.366.492.492 0 0 1 .384-.134h4.703a.4.4 0 0 0 .283-.069.396.396 0 0 0 .065-.272v-2.17c0-.25-.094-.341-.348-.341h-8.097a.253.253 0 0 0-.14 0 .28.28 0 0 0-.121.072.285.285 0 0 0-.07.131.273.273 0 0 0 0 .145v12.634a.284.284 0 0 0 .07.27.28.28 0 0 0 .121.072.279.279 0 0 0 .14 0h8.115c.255 0 .349-.091.349-.342v-2.171a.401.401 0 0 0-.071-.274ZM95.008 29.04c0-1.108-.207-1.944-.618-2.485-.41-.542-.986-.798-1.784-.798-.842 0-1.583.374-2.206 1.116l-.183.216-.138-.25a2.107 2.107 0 0 0-.765-.809c-.33-.17-.69-.264-1.059-.276a2.48 2.48 0 0 0-1.079.214 2.037 2.037 0 0 0-.738.57l-.35.445v-.913a.217.217 0 0 0-.03-.132.248.248 0 0 0-.142-.027H84.03c-.102 0-.127.023-.127.026a.211.211 0 0 0-.03.131v6.585a.26.26 0 0 0 .008.083c.02.002.042.002.062 0h2.073c.021 0 .042-.003.063-.007a.29.29 0 0 0 .009-.081v-3.264c0-.541.08-.942.247-1.225a.975.975 0 0 1 .378-.362.937.937 0 0 1 .505-.11.906.906 0 0 1 .499.11c.153.084.28.21.367.365.161.281.24.683.24 1.222v3.264a.148.148 0 0 0 .014.074s.014.014.073.014h2.056a.162.162 0 0 0 .065-.01.418.418 0 0 0 .008-.078v-3.264c0-.541.081-.942.248-1.225a.971.971 0 0 1 .377-.363.934.934 0 0 1 .505-.108.905.905 0 0 1 .499.109c.153.083.28.21.367.364.162.284.24.683.24 1.223v3.264a.15.15 0 0 0 .013.074s.015.014.074.014h2.056a.205.205 0 0 0 .08-.012v-.076l.01-3.608ZM103.566 27.463a3.304 3.304 0 0 0-.569-.731 3.49 3.49 0 0 0-.758-.556 4.42 4.42 0 0 0-3.943 0 3.46 3.46 0 0 0-.755.555c-.221.214-.412.46-.565.73a3.97 3.97 0 0 0-.008 3.738c.312.541.766.981 1.311 1.267.613.314 1.29.47 1.974.455a4.168 4.168 0 0 0 1.98-.455 3.33 3.33 0 0 0 1.333-1.27 3.91 3.91 0 0 0 0-3.733Zm-2.001 2.7c-.131.242-.325.44-.559.575a1.478 1.478 0 0 1-1.495-.003 1.474 1.474 0 0 1-.525-.569 1.753 1.753 0 0 1-.196-.83c-.004-.291.063-.578.195-.835.124-.242.307-.446.533-.59a1.37 1.37 0 0 1 .735-.213c.269-.001.533.072.764.213.232.14.422.341.551.583.136.257.205.545.201.838.005.291-.066.577-.204.831ZM112.452 25.903h-2.166a.236.236 0 0 0-.143.03.509.509 0 0 0-.119.186l-1.411 2.816-1.426-2.805a.657.657 0 0 0-.128-.205.304.304 0 0 0-.149-.022h-2.275c.006.015.013.03.021.044l3.532 6.645c.067.129.149.248.246.354.096.093.158.093.255 0 .099-.107.185-.227.255-.356l3.557-6.661.014-.021a.175.175 0 0 0-.063-.005ZM115.786 25.936a.246.246 0 0 0-.156-.033h-1.859a.221.221 0 0 0-.143.034.233.233 0 0 0-.028.142v6.477c0 .093.021.13.034.139.04.029.088.042.137.037h1.859a.258.258 0 0 0 .158-.036.253.253 0 0 0 .026-.14v-6.477a.254.254 0 0 0-.028-.143Zm.016-3.302c-.1-.191-.25-.349-.434-.455a1.274 1.274 0 0 0-.662-.168 1.261 1.261 0 0 0-.662.168 1.118 1.118 0 0 0-.429.455 1.436 1.436 0 0 0-.154.673c-.003.229.05.455.153.657.097.188.245.343.425.446a1.441 1.441 0 0 0 1.333 0c.186-.104.336-.263.432-.456a1.41 1.41 0 0 0 .153-.657c0-.23-.054-.455-.157-.658l.002-.005ZM123.951 26.55a1.947 1.947 0 0 0-.786-.595 2.796 2.796 0 0 0-1.096-.2 2.32 2.32 0 0 0-.992.217 2.002 2.002 0 0 0-.744.57l-.352.445v-.92a.24.24 0 0 0-.028-.131.25.25 0 0 0-.142-.027h-1.887a.22.22 0 0 0-.127.028.23.23 0 0 0-.027.131v6.585a.28.28 0 0 0 .008.081.339.339 0 0 0 .064.007h2.07a.375.375 0 0 0 .064-.007.28.28 0 0 0 .007-.081v-3.264c0-.534.091-.933.276-1.217.198-.308.509-.465.93-.465.42 0 .729.154.924.456.179.28.266.682.266 1.224v3.263a.067.067 0 0 0 0 .04.079.079 0 0 0 .018.035c.009.01.021.015.034.017a.055.055 0 0 0 .038 0h2.058a.135.135 0 0 0 .061-.01.254.254 0 0 0 .009-.077V29.04c-.002-1.115-.219-1.948-.646-2.49ZM132.965 25.929a.21.21 0 0 0-.128-.025h-2.639a5.414 5.414 0 0 0-2.218.415 3.06 3.06 0 0 0-1.389 1.174 3.488 3.488 0 0 0-.478 1.864c0 1.146.355 2.001 1.055 2.544.701.543 1.733.836 3.016.836h.285a.28.28 0 0 1 .127.02c.039.015.074.04.103.07.03.029.053.065.068.106a.326.326 0 0 1 .019.131c.004.173-.032.344-.107.498a1.031 1.031 0 0 1-.32.395c-.311.22-.685.33-1.063.311a3.619 3.619 0 0 1-.662-.053 5.95 5.95 0 0 1-.586-.144l-.128-.037a.313.313 0 0 0-.092-.013.613.613 0 0 0-.044.109l-.41 1.314c-.023.07-.039.143-.049.217 0 .04.006.072.078.103.283.133.583.225.892.272.385.064.775.095 1.166.093 1.146 0 2.038-.309 2.635-.92.596-.611.892-1.517.892-2.693v-6.44a.227.227 0 0 0-.023-.147Zm-2.187 4.538a.428.428 0 0 1-.101.305.374.374 0 0 1-.295.104h-.171c-.572 0-1.019-.132-1.324-.38a1.417 1.417 0 0 1-.485-1.138 1.49 1.49 0 0 1 .488-1.183c.325-.284.764-.414 1.34-.414h.157a.373.373 0 0 1 .306.122.449.449 0 0 1 .09.301l-.005 2.283ZM143.929 30.383c-.05-.076-.085-.076-.101-.076a.25.25 0 0 0-.127.052 2.976 2.976 0 0 1-.749.417c-.276.106-.568.16-.863.159-.474 0-.847-.156-1.103-.465a1.724 1.724 0 0 1-.383-1.138c-.011-.42.124-.83.383-1.156a1.36 1.36 0 0 1 .494-.371c.19-.084.396-.122.603-.11.488 0 1.036.197 1.624.588a.267.267 0 0 0 .148.054c.013 0 .042 0 .083-.074l.838-1.41a.144.144 0 0 0 .03-.096.163.163 0 0 0-.021-.075.13.13 0 0 0-.055-.052 4.789 4.789 0 0 0-1.232-.684 4.419 4.419 0 0 0-1.502-.227 3.892 3.892 0 0 0-1.911.456c-.541.29-.991.733-1.299 1.276a3.783 3.783 0 0 0-.471 1.894 3.687 3.687 0 0 0 .477 1.884c.313.537.768.97 1.311 1.252a4.059 4.059 0 0 0 1.917.447 4.366 4.366 0 0 0 1.48-.228c.437-.166.85-.394 1.227-.677l.015-.01a.108.108 0 0 0 .034-.045.1.1 0 0 0 .01-.056.253.253 0 0 0-.04-.132l-.817-1.397ZM152.758 27.463a3.28 3.28 0 0 0-.569-.732 3.424 3.424 0 0 0-.756-.555 4.42 4.42 0 0 0-3.945 0 3.4 3.4 0 0 0-.755.555c-.22.214-.411.46-.564.73a3.967 3.967 0 0 0-.469 1.868 3.965 3.965 0 0 0 .463 1.869c.31.542.765.982 1.309 1.268a4.5 4.5 0 0 0 1.977.46c.683 0 1.358-.157 1.976-.46a3.326 3.326 0 0 0 1.333-1.27c.312-.57.476-1.213.476-1.867 0-.654-.164-1.297-.476-1.866Zm-1.998 2.7a1.481 1.481 0 0 1-1.315.777 1.386 1.386 0 0 1-.739-.205 1.453 1.453 0 0 1-.525-.569 1.745 1.745 0 0 1-.196-.83c-.003-.29.063-.577.193-.834.123-.243.307-.447.533-.591a1.37 1.37 0 0 1 .734-.213c.269-.001.533.072.764.213.232.14.423.341.552.583.136.257.206.545.203.838.003.29-.067.577-.204.831ZM165.944 29.04c0-1.108-.209-1.944-.618-2.485-.409-.542-.987-.798-1.784-.798-.842 0-1.583.374-2.207 1.116l-.183.226-.14-.25a2.094 2.094 0 0 0-.765-.81 2.492 2.492 0 0 0-2.144-.058 2.022 2.022 0 0 0-.739.57l-.351.445v-.92a.209.209 0 0 0-.029-.131s-.029-.028-.143-.028h-1.883c-.1 0-.127.024-.127.026a.216.216 0 0 0-.031.132v6.584a.29.29 0 0 0 .009.083.371.371 0 0 0 .065 0h2.071a.318.318 0 0 0 .062-.006.28.28 0 0 0 .01-.082v-3.263c0-.54.081-.943.246-1.225a.976.976 0 0 1 .378-.363.94.94 0 0 1 .505-.109.903.903 0 0 1 .499.11c.153.083.28.21.366.365.162.28.241.683.241 1.222v3.263a.138.138 0 0 0 .013.075s.015.013.073.013h2.057a.15.15 0 0 0 .064-.01.404.404 0 0 0 .008-.077v-3.263c0-.54.081-.942.255-1.225a.973.973 0 0 1 .377-.363.94.94 0 0 1 .506-.109.91.91 0 0 1 .498.11c.154.083.281.21.369.364.16.283.238.683.238 1.223v3.263c0 .049.009.071.015.074.005.003.014.014.071.014h2.056a.218.218 0 0 0 .082-.011c.004-.025.006-.05.008-.075l.002-3.617ZM173.685 26.757a3.495 3.495 0 0 0-1.274-.64 6.313 6.313 0 0 0-1.731-.214h-2.695a.212.212 0 0 0-.127.026.24.24 0 0 0-.026.131v9.874c0 .106.023.132.026.132a.211.211 0 0 0 .127.027h1.886a.22.22 0 0 0 .143-.034.196.196 0 0 0 .029-.131v-2.794a.391.391 0 0 1 .019-.163.425.425 0 0 1 .082-.142.404.404 0 0 1 .137-.083.403.403 0 0 1 .157-.021h.157a5.696 5.696 0 0 0 2.223-.394 3.027 3.027 0 0 0 1.402-1.154c.331-.51.492-1.15.492-1.906-.003-1.108-.347-1.951-1.027-2.514Zm-1.757 3.705c-.32.276-.773.414-1.333.414h-.156a.336.336 0 0 1-.294-.104.374.374 0 0 1-.101-.305v-2.276a.458.458 0 0 1 .09-.3.369.369 0 0 1 .305-.124h.157c.584 0 1.036.132 1.343.38.307.249.487.658.487 1.156.008.22-.033.438-.119.638a1.43 1.43 0 0 1-.379.52ZM181.467 26.6c-.551-.588-1.417-.888-2.575-.888a7.093 7.093 0 0 0-1.394.114.326.326 0 0 0-.164.062.34.34 0 0 0-.015.176l.154 1.351c.004.056.018.11.041.162a.288.288 0 0 0 .089.01l.331-.014c.236-.02.429-.03.576-.03.397-.02.789.095 1.115.33.141.114.256.26.338.424.08.164.126.343.135.526l.033.411-.332-.227c-.382-.251-.875-.377-1.467-.377a3.047 3.047 0 0 0-1.324.263c-.341.156-.632.41-.839.73a2.04 2.04 0 0 0-.295 1.11c-.01.401.09.796.29 1.139.202.326.493.582.836.736.418.184.869.274 1.324.263.281.001.562-.037.833-.113.224-.061.434-.168.617-.314l.322-.263v.482a.243.243 0 0 0 0 .054.247.247 0 0 0 .053 0h2.14a.532.532 0 0 0 0-.056v-3.483c.009-1.112-.27-1.978-.822-2.578Zm-1.623 4.916c-.196.189-.457.29-.725.282a.957.957 0 0 1-.714-.294 1.047 1.047 0 0 1-.285-.758 1.003 1.003 0 0 1 .289-.748c.198-.18.453-.28.716-.28.265 0 .52.1.718.28a1.023 1.023 0 0 1 .306.771c.004.14-.019.278-.071.407-.054.129-.134.245-.234.34ZM190.364 26.55a1.95 1.95 0 0 0-.787-.595 2.794 2.794 0 0 0-1.095-.2 2.324 2.324 0 0 0-.993.217c-.286.129-.54.324-.74.57l-.352.446v-.92a.24.24 0 0 0-.027-.131s-.03-.028-.142-.028h-1.887a.229.229 0 0 0-.128.028.248.248 0 0 0-.025.131v6.585a.28.28 0 0 0 .007.081.273.273 0 0 0 .064.007h2.071a.337.337 0 0 0 .063-.007.28.28 0 0 0 .008-.081v-3.264c0-.534.09-.933.274-1.217.2-.308.509-.465.931-.465.422 0 .729.154.924.456.18.28.268.682.268 1.224v3.263a.148.148 0 0 0 .012.075c.023.01.048.015.073.012h2.058c.021.002.042 0 .062-.01a.337.337 0 0 0 .009-.077v-3.61c-.004-1.113-.222-1.948-.648-2.49ZM199.972 25.903h-2.114a.429.429 0 0 0-.211.034c-.01 0-.038.026-.069.113l-1.507 3.694-1.515-3.68c-.036-.103-.063-.131-.074-.131a.452.452 0 0 0-.212-.035h-2.181a.297.297 0 0 0 .015.072l2.766 6.427-1.641 3.653a.266.266 0 0 0-.019.047h2.306a.084.084 0 0 0 .068-.022.633.633 0 0 0 .106-.188l4.285-9.882A.352.352 0 0 0 200 25.9l-.028.004Z" fill="#fff"/></svg>