<svg width="120" height="28" fill="none" xmlns="http://www.w3.org/2000/svg"><path d="M34.422 19.906V8.372h3.843v8.338h8.312v3.2l-12.155-.004ZM61.862 8.372v6.496c0 1.358-.268 2.438-.804 3.24-.536.803-1.303 1.371-2.302 1.706-.998.333-2.246.5-3.743.5-1.497 0-2.744-.167-3.742-.5-.998-.334-1.766-.9-2.302-1.697-.537-.798-.805-1.88-.805-3.249V8.372h3.843v6.383c0 .83.259 1.427.776 1.794.516.366 1.26.55 2.233.55.964 0 1.707-.184 2.228-.55.522-.367.781-.965.78-1.793V8.371h3.838ZM80.795 19.906H76.95v-7.853h-.09l-3.04 7.853h-2.899l-3.084-7.95h-.104v7.95H64.1V8.372h5.898l2.34 6.48h.103l2.294-6.48H80.8l-.004 11.534ZM83.03 19.906V8.372h3.843V19.91l-3.844-.004ZM102.282 9.484c1.296 1.011 1.944 2.563 1.944 4.654 0 2.09-.648 3.642-1.944 4.654-1.295 1.011-3.219 1.517-5.77 1.517-2.543 0-4.462-.506-5.757-1.517-1.296-1.012-1.944-2.563-1.946-4.654 0-2.09.648-3.641 1.944-4.654 1.295-1.013 3.215-1.519 5.757-1.517 2.552-.002 4.477.504 5.772 1.517Zm-3.15 6.908c.585-.523.878-1.274.878-2.254.001-.98-.292-1.732-.878-2.255-.586-.522-1.46-.783-2.622-.783s-2.034.26-2.614.783c-.582.523-.872 1.275-.872 2.255s.29 1.731.872 2.254c.58.523 1.452.784 2.614.784s2.036-.261 2.622-.784ZM114.424 10.858c-.423-.202-1.031-.303-1.825-.303-.814 0-1.395.083-1.743.25-.348.167-.522.412-.522.735a.6.6 0 0 0 .312.566c.208.118.566.205 1.072.259l4.335.387c1.311.119 2.297.458 2.957 1.018.661.56.991 1.406.991 2.538 0 1.066-.266 1.89-.797 2.472-.531.581-1.311.983-2.339 1.204-1.029.22-2.387.331-4.075.331-1.619 0-2.93-.118-3.933-.356-1.002-.237-1.774-.662-2.316-1.276-.541-.614-.832-1.48-.871-2.602h4.474c.109.614.385 1.037.827 1.269.441.232 1.1.347 1.974.347.893 0 1.536-.089 1.929-.267.392-.178.588-.456.588-.834 0-.313-.114-.54-.342-.683-.229-.142-.571-.234-1.028-.274l-4.172-.436c-1.321-.14-2.313-.469-2.978-.987s-.998-1.342-.998-2.473c0-.96.265-1.717.797-2.27.531-.553 1.29-.943 2.279-1.172.987-.226 2.226-.34 3.716-.34 1.48 0 2.711.117 3.694.348.983.232 1.751.633 2.302 1.204.552.571.842 1.352.871 2.343h-4.424a1.274 1.274 0 0 0-.247-.592 1.333 1.333 0 0 0-.508-.406Z" fill="#022F45"/><path fill-rule="evenodd" clip-rule="evenodd" d="M15.55 23.694a11.61 11.61 0 0 1-2.885-.001c-.224 1.235-.873 2.148-1.798 2.459-.77.26-1.505.026-1.586 0H9.28c-1.733-.58-2.226-3.079-2.354-4.909a11.042 11.042 0 0 1-2.313-2.586c-.05.207-.089.396-.124.57-.146.71-.237 1.15-.77 1.474-.797.484-1.8.241-1.852.228C.84 20.665.39 19.786.279 19.563c-1.092-2.14 1.355-4.757 1.588-5a7.45 7.45 0 0 1 1.076-.925 10.753 10.753 0 0 1-.025-.746C2.918 6.876 7.93 2 14.113 2 20.296 2 25.31 6.876 25.31 12.892c0 .255-.01.508-.027.76.348.248.707.547 1.056.91.243.244 2.69 2.86 1.598 5.001-.111.221-.561 1.1-1.587 1.366-.053.013-1.056.256-1.852-.228-.53-.323-.621-.761-.767-1.47a18.308 18.308 0 0 0-.123-.564c-.63.976-1.413 1.85-2.319 2.585-.128 1.83-.622 4.32-2.352 4.9h-.002c-.08.026-.816.26-1.586 0-.924-.31-1.573-1.224-1.797-2.458Z" fill="#022F45"/><path d="M14.113 18.619c4.118 0 7.457-2.565 7.457-5.728s-3.339-5.727-7.457-5.727-7.457 2.564-7.457 5.727c0 3.163 3.339 5.728 7.457 5.728Z" fill="#fff"/><path d="M10.918 14.343c.891 0 1.613-.94 1.613-2.1 0-1.16-.722-2.1-1.613-2.1s-1.613.94-1.613 2.1c0 1.16.722 2.1 1.613 2.1ZM17.035 14.343c.891 0 1.613-.94 1.613-2.1 0-1.16-.722-2.1-1.613-2.1-.89 0-1.613.94-1.613 2.1 0 1.16.722 2.1 1.613 2.1Z" fill="#022F45"/></svg>