<svg width="601" height="570" fill="none" xmlns="http://www.w3.org/2000/svg"><circle cx="196.782" cy="357.308" fill="#C9D2D7" r="196.782"/><circle cx="364.294" cy="215.958" fill="#C9D2D7" r="196.782"/><circle cx="403.218" cy="371.977" fill="#C9D2D7" r="196.782"/><path d="M599.774 306.842H342.303v255.122h257.471V306.842Z" fill="#FEB703" stroke="#022F45" stroke-width="1.13" stroke-miterlimit="10"/><path d="M362.775 495.093V325.944h127.31M582.798 388.928v156.004h-142.44M362.384 522.865l194.46-196.194M387.387 545.016l194.404-197.425M389.568 343.256v119.143M422.99 340.096v95.734M455.992 337.831v67.15M486.477 337.131v42.679M558.326 403.387v107.592M524.961 431.187v98.894M490.253 530.081v-77.695M457.083 493.975v37.588" stroke="#022F45" stroke-width="1.13" stroke-miterlimit="10"/><path d="m566.597 471.583-71.948-25.888-17.451 48.5 71.948 25.889 17.451-48.501Z" fill="#F9F9F6" stroke="#022F45" stroke-width="1.01" stroke-miterlimit="10"/><path d="M513.214 138.079H342.303v169.345h170.911V138.079Z" fill="#FEB703" stroke="#022F45" stroke-width="1.13" stroke-miterlimit="10"/><path d="M355.896 263.039V150.776h84.518M501.943 192.56v103.565h-94.559M355.644 281.469l129.071-130.218M372.229 296.18l129.043-131.057M373.683 162.271v79.065M395.861 160.145v63.571M417.788 158.663v44.553M438.009 158.187v28.332M485.693 202.181v71.401M463.543 220.612v65.668M440.498 286.28v-51.601M418.515 262.311v24.948" stroke="#022F45" stroke-width=".75" stroke-miterlimit="10"/><path d="m487.896 247.612-47.715-17.259-11.639 32.178 47.715 17.259 11.639-32.178Z" fill="#F9F9F6" stroke="#022F45" stroke-width=".67" stroke-miterlimit="10"/><path d="M436.464 505.988c-.776-6.429-3.636-11.351-10.198-13.524a19.687 19.687 0 0 1-3.924-2.106c-6.872-4.301-13.878-2.882-18.445 3.747-1.153 1.663-2.217 3.37-3.747 5.653-.709-3.259-1.064-5.742-1.795-8.114a6.383 6.383 0 0 0-7.383-5.032c-2.926.864-4.434 3.835-3.791 7.693.244 1.551.621 3.059.976 4.766a42.302 42.302 0 0 0-4.301-1.131 4.217 4.217 0 0 0-5.091 2.422 4.215 4.215 0 0 0 1.876 5.316 10.888 10.888 0 0 0 3.17 1.573c2.217.776 4.434 1.397 7.183 2.217-1.285.976-2.216 1.752-3.125 2.351a11.083 11.083 0 0 1-9.955.798c-3.214-1.264-2.682-4.301-3.037-6.917-1.042-7.981-3.48-10.198-11.617-10.775a4.44 4.44 0 0 1-.953-.354 1576.827 1576.827 0 0 1-4.678-8.292c2.084-3.015 4.08-5.83 5.986-8.69 4.855-7.25 4.434-13.901-.177-21.66-25.473-42.964-50.458-86.217-75.532-129.426a13.303 13.303 0 0 1-1.574-5.897c-.199-5.409 0-10.819 0-16.206v-91.405c0-2.217-.355-4.434 1.973-6.274.843.466 1.774.909 2.638 1.441a264.402 264.402 0 0 0 53.939 26.604 15.65 15.65 0 0 1 4.833 3.104c3.724 3.236 7.161 6.85 11.085 9.954 4.566 3.702 7.825 3.303 11.794-.998a8.381 8.381 0 0 0 8.868-4.257c6.783-1.529 7.692-2.638 8.601-10.198 4.745-5.298 4.434-9.377-1.153-12.924a38.818 38.818 0 0 0-4.832-2.35c-1.486-.665-2.993-1.242-4.767-1.996a266.97 266.97 0 0 1 2.217-3.103 6.497 6.497 0 0 0 0-7.228c-1.33-1.995-3.835-2.571-6.917-1.618-1.29.414-2.549.918-3.769 1.507l-12.392 5.587c-17.736-8.868-53.207-31.037-59.082-36.846v-9.244a276.68 276.68 0 0 0-40.726-31.215 114.185 114.185 0 0 0-36.202-15.519c-2.617-.554-5.21-1.175-8.004-1.818.156-3.414.288-6.495.377-8.468L234.5 90.11h4.855a15.273 15.273 0 0 0 14.587-8.735c2.217-4.279 4.723-8.447 4.146-13.457a25.822 25.822 0 0 0 7.715-13.169 58.525 58.525 0 0 0 1.352-21.86c-1.928-13.3-8.646-23.277-21.415-28.287A61.885 61.885 0 0 0 230.975.899c-19.953-2.55-34.873 6.651-42.122 25.362-.444 1.109-.954 2.217-1.508 3.437l-4.434.798a49.474 49.474 0 0 0-18.91 6.872 7.581 7.581 0 0 0-4.213 5.83c3.902 5.853 11.795 4.08 16.938 8.004a28.008 28.008 0 0 1-.222 3.17 101.29 101.29 0 0 0-.665 28.71c.909 9.067 3.902 16.959 12.526 21.571.244.133.355.443.754.975-.355 2.528-.754 5.299-1.175 8.203-2.505.399-4.7.798-6.895 1.086a68.583 68.583 0 0 0-32.877 13.302 428.188 428.188 0 0 0-37.822 33.254c-4.7 4.545-5.054 7.383-1.729 13.08 1.131 1.929 2.394 3.747 3.658 5.742-1.884 2.949-3.636 5.698-5.542 8.646H32.469v140.2l54.736.732h33.809l69.124-.51h4.612c1.13 1.463 1.818 2.217 2.394 3.104 4.678 7.161 9.333 14.321 14.033 21.482l93.955 143.415c4.013 6.141 7.87 7.671 14.92 5.853 4.633-1.197 9.2-2.572 13.922-3.88l4.434 7.116c-3.702 6.097-.177 10.797 3.259 15.519a94.566 94.566 0 0 0-1.374 9.799 23.993 23.993 0 0 0 .82 9.289 114.797 114.797 0 0 0 7.715 15.164 8.867 8.867 0 0 0 11.705 3.769c1.663-.643 3.171-1.707 4.789-2.483a75.795 75.795 0 0 1 9.777-4.434 146.166 146.166 0 0 1 14.831-3.636c9.578-1.951 19.155-3.724 27.934-8.313a35.117 35.117 0 0 0 18.6-35.139Zm-44.339-16.716c4.434 1.929 5.964 7.471 3.769 14.854a18.294 18.294 0 0 1-5.986-10.154 3.543 3.543 0 0 1 2.106-4.7h.111Zm-10.309 12.238c4.434-.887 7.56 1.33 10.331 4.278-4.123-.044-8.092-.155-10.442-4.278h.111Zm-53.428-305.474c9.887 5.963 19.952 11.705 29.707 17.447 6.939-2.682 12.88-6.983 19.952-8.025 1.841 3.591 1.619 4.788-.753 7.027-1.929 1.818-3.68 3.88-5.742 5.543a38.93 38.93 0 0 1-5.72 3.392 32.994 32.994 0 0 1-3.902 1.441c4.124 2.682 7.117 1.419 14.588-5.809a121.65 121.65 0 0 1 11.439 5.432c3.326 1.995 3.126 4.434 0 7.138-4.057-1.906-7.271-5.897-12.126-6.207l-.666 1.064c.909.754 1.774 1.552 2.749 2.217 2.217 1.53 4.434 2.904 6.651 4.567a4.433 4.433 0 0 1 1.862 5.52 4.263 4.263 0 0 1-2.33 2.305 4.294 4.294 0 0 1-1.641.316 4.299 4.299 0 0 1-1.637-.337c-3.171-3.636-6.651-7.272-11.928-8.558 2.217 4.434 7.627 6.075 9.4 10.797-2.217 2.749-3.635 3.325-6.03 1.995a33.323 33.323 0 0 1-4.212-3.303 216.049 216.049 0 0 0-4.279-3.237c-.532 5.01 5.144 5.786 4.656 9.954-2.417 1.641-4.434.333-6.296-1.197-3.414-2.949-6.518-6.252-9.954-9.112a25.188 25.188 0 0 0-7.117-4.434 267.913 267.913 0 0 1-51.544-25.472c-1.264-.799-2.439-1.685-3.547-2.461 3.081-8.868 6.074-17.603 9.089-26.36 9.777 6.185 19.487 12.371 29.331 18.357ZM262.5 55.281c-1.907-.62-3.836-1.241-5.742-1.929-1.907-.687-3.636-1.352-5.942-2.216 5.499-12.26 7.715-24.697 2.749-38.443 11.041 8.957 14.034 27.269 8.935 42.588ZM217.873 3.76a50.459 50.459 0 0 1 28.133 3.835 8.864 8.864 0 0 1 4.81 5.61c4.434 11.55 3.503 22.856-1.729 34.562a133.018 133.018 0 0 0-57.796-18.312c1.885-12.238 13.701-23.522 26.582-25.695Zm-49.438 37.09c-1.508.576-3.082.975-4.612 1.463l-.51-.82a33.918 33.918 0 0 1 3.614-2.616 48.995 48.995 0 0 1 30.372-6.075 125.52 125.52 0 0 1 43.962 13.723c1.464.776 2.838 1.707 4.257 2.55.488.31 1.02.576 2.217 1.263a45.269 45.269 0 0 1-22.546 3.015 67.484 67.484 0 0 1-20.951-6.473c-3.281-1.53-6.651-2.993-9.754-4.633a31.042 31.042 0 0 0-26.049-1.397Zm11.084 47.044a104.043 104.043 0 0 1-.354-32.257l10.597-1.353c-2.018-2.505-2.018-2.505-9.555-2.105a3.547 3.547 0 0 1 2.859-3.77c3.459-.82 6.851-2.017 10.221-3.059l29.241 11.373c1.153 1.375 2.727 3.503 4.434 5.41a6.648 6.648 0 0 1 1.463 6.65c-.487 1.885-1.33 3.68-1.818 5.543a37.582 37.582 0 0 0-.753 4.434 3.565 3.565 0 0 0 4.305.973c.48-.229.902-.561 1.237-.973a36.615 36.615 0 0 0 3.259-4.257c2.971-3.702 5.808-7.582 9.112-11.085a6.427 6.427 0 0 1 7.848-1.53c2.882 1.486 3.48 4.435 3.502 7.317a13.54 13.54 0 0 1-5.586 11.24c-3.836 2.97-7.893 2.217-12.194 0-1.529 1.906-3.037 3.724-4.434 5.542a73.734 73.734 0 0 1-19.354 17.226c-11.173 6.983-31.724-.444-34.074-15.32h.044Zm32.523 19.952c-.266 3.015-.377 5.942-.798 8.868a6.253 6.253 0 0 1-5.786 4.944c-3.381.55-6.825.602-10.221.155-3.525-.466-4.611-2.372-4.433-6.03 0-.754 0-1.508.177-2.217l1.02-6.651a67.58 67.58 0 0 0 9.688 1.862 82.757 82.757 0 0 0 10.309-.842l.044-.089Zm-93.511 49.859a303.636 303.636 0 0 1 35.006-29.662 65.307 65.307 0 0 1 30.638-10.908 25.721 25.721 0 0 1 3.214 0 8.87 8.87 0 0 0 7.56 7.538c5.942.931 11.684.754 16.672-3.215.9-.856 1.73-1.782 2.483-2.771a95.368 95.368 0 0 1 25.096 7.072 184.623 184.623 0 0 1 37.688 23.433c6.651 5.121 13.013 10.553 19.753 16.051a75.707 75.707 0 0 1-10.486 36.602v-12.415c-2.217-.155-3.813-.355-5.432-.355h-23.677c-5.431 0-6.961-1.707-5.83-6.85 2.349-10.73 5.143-21.283 12.06-30.239a11.26 11.26 0 0 0 1.153-2.794l-1.153-.753a41.593 41.593 0 0 0-3.725 3.946c-6.917 9.488-10.02 20.374-11.639 31.813-.133 1.02-.244 2.084-.443 3.104a9.21 9.21 0 0 1-.71 1.507h-86.017c.776-1.729 1.352-3.17 2.039-4.544 3.392-6.873 6.851-13.701 10.198-20.574.643-1.308 1.996-2.705.133-5.077a48.839 48.839 0 0 0-2.926 4.434 2200.31 2200.31 0 0 0-11.417 22.99c-1.02 2.217-2.217 3.569-4.723 2.616-3.17-2.527-3.414-5.609-2.704-9.333a156.506 156.506 0 0 0 2.505-31.348c0-2.35 0-2.35-1.995-4.633-1.419 6.54-.51 12.769-1.153 18.888-.643 6.119-1.397 12.127-2.217 19.243-10.464-9.111-20.529-17.093-34.496-19.42 1.707-1.597 3.126-2.993 4.545-4.346Zm-2.372 21.882a6.12 6.12 0 0 1 5.21-2.904c8.291-.666 14.343 3.391 19.597 9.133a4.438 4.438 0 0 1 1.442 2.945 4.438 4.438 0 0 1-.976 3.13 477.318 477.318 0 0 0-29.308 47.93c-.283.408-.586.8-.909 1.175a4.917 4.917 0 0 1-4.811-2.549c-2.638-5.587-7.05-6.984-12.814-5.454l-4.168-2.971c.488-1.463.82-2.749 1.33-3.946a292.895 292.895 0 0 1 25.407-46.489Zm-23.145 92.136c-1.153 1.574-2.018 2.616-2.727 3.747-1.463 2.439-2.705 5.01-4.257 7.382a9.776 9.776 0 0 1-3.236 3.016 3.737 3.737 0 0 1-2.85.413 3.732 3.732 0 0 1-2.294-1.744 3.88 3.88 0 0 1 .599-5.254c2.616-2.86 4.988-5.941 7.36-9.023.519-.987.906-2.038 1.153-3.126-4.168.133-4.301 3.791-6.163 5.521-1.862 1.729-3.614 3.835-5.32 5.675-3.748-2.616-4.213-3.902-2.373-6.873 1.108-1.751 2.705-3.192 3.968-4.855.754-.953 2.217-1.884.333-3.769l-7.471 6.274a3.673 3.673 0 0 1-1.505-2.743 3.676 3.676 0 0 1 1.15-2.91 82.154 82.154 0 0 1 6.185-7.671c3.924-4.145 8.07-8.069 8.868-14.099a4.585 4.585 0 0 1 4.212 3.192c2.705 5.476 6.12 6.917 12.083 5.609a29.335 29.335 0 0 1 5.099 0c-1.419 2.749-2.417 4.722-3.592 7.028 2.04 4.301 4.168 8.734 6.252 13.301a13.293 13.293 0 0 1 1.53 3.703c.177 1.197 0 3.192-.577 3.569a4.814 4.814 0 0 1-4.057 0 40.195 40.195 0 0 1-5.609-4.434c-.443.887-1.219 2.372-1.884 3.88a103.336 103.336 0 0 1-4.633 10.176c-1.974 3.325-4.213 3.059-6.873-.266 7.493-11.905 7.493-11.906 6.629-15.719Zm-2.217-29.84a7.14 7.14 0 0 1 6.495-6.651 6.654 6.654 0 0 1 5.949 6.469 6.646 6.646 0 0 1-5.66 6.722 6.895 6.895 0 0 1-6.718-6.54h-.066Zm98.942 84.244c-1.33.533-31.547.909-64.956 1.065h-10.442c-37.533 0-75.687 0-79.234-.732-.2-44.605 0-89.343-.111-134.303h58.66c.156 1.264.422 2.527.466 3.813.488 15.674.155 17.226-7.028 31.392-.731 1.441-2.216 2.55-2.77 4.013a36.889 36.889 0 0 0-1.885 6.895 21.107 21.107 0 0 1-5.498 12.038c-2.483 2.394-4.7 5.054-6.984 7.626a24.781 24.781 0 0 0-2.704 3.569c-2.86 4.789-2.395 7.227 2.106 11.085a7.738 7.738 0 0 0 4.168 8.868c1.662 6.784 3.015 7.87 9.932 8.114 6.65 5.387 10.84 4.301 14.365-3.813.976-2.217 1.885-4.656 2.927-7.205 1.33.909 2.217 1.618 3.303 2.217a6.436 6.436 0 0 0 7.205 0 5.32 5.32 0 0 0 1.486-6.917c-1.863-4.567-4.124-9.001-6.186-13.479a33.19 33.19 0 0 1-.886-2.217 13.306 13.306 0 0 1 4.433-6.984 9.209 9.209 0 0 0 2.217-3.724 78.072 78.072 0 0 1 3.658-8.624c8.491-14.122 17.137-28.178 25.784-42.122.864-1.397 1.995-2.616 3.148-4.146h44.339c.598 2.04 1.019 48.618 1.019 86.461v-.044c.067 23.344-.088 43.341-.554 47.044l.022.11Zm3.658.688a11.824 11.824 0 0 1-.177-1.73c-.288-5.099-.51-20.617-.621-39.328v-8.558c-.177-37.156 0-82.027.621-84.976h33.609v19.953h22.569c.155-6.651.31-13.124.465-19.953h33.077c.998 3.171 1.219 129.249.178 134.525l-89.721.067Zm125.458 173.853c-5.144 1.463-7.782.444-10.752-4.057-8.114-12.237-16.14-24.542-24.187-36.823-27.328-41.768-54.67-83.565-82.028-125.391-.798-1.22-1.529-2.506-2.771-4.434a128.873 128.873 0 0 1 23.3.842 6048.146 6048.146 0 0 0 65.511 8.735 8.429 8.429 0 0 1 7.006 4.633 34065.92 34065.92 0 0 0 67.949 116.546 10.928 10.928 0 0 1 .732 10.619c-4.744 11.439-13.435 18.6-24.652 22.901-6.54 2.549-13.347 4.478-20.108 6.429Zm18.578-2.217 17.735-9.732s.422.133.577.355c2.461 3.458 5.542 7.293 3.37 11.461-2.173 4.168-7.117 6.274-12.038 6.873a6.868 6.868 0 0 1-4.434-1.375 13.7 13.7 0 0 1-5.21-7.582Zm3.214 10.398a15.74 15.74 0 0 0 13.657-.688c4.146-2.216 8.158-4.566 8.624-9.843 7.005-1.219 9.621 2.217 9.156 11.95a35.721 35.721 0 0 1-24.697 10.353c-5.188 0-8.934-6.429-6.74-11.684v-.088Zm2.217 27.556a29.36 29.36 0 0 1 2.328-12.902 42.366 42.366 0 0 0 28.067-10.376 15.512 15.512 0 0 0 15.807 1.508c0 2.017-.288 3.614-.2 5.21a25.73 25.73 0 0 0 .798 4.877c.422 1.485.732 3.259 3.614 3.481-1.596-7.228-4.013-14.61 3.857-20.086 1.198 4.434.643 9.223 4.279 12.371 1.995-.798 1.242-1.929.909-3.082a47.223 47.223 0 0 1-1.818-7.338c-.887-7.56 3.813-12.77 8.535-17.403 4.723-4.633 11.839-1.929 15.519 4.234 5.299 8.868 5.299 25.784-8.136 34.164a39.911 39.911 0 0 1-16.561 5.409c-6.85.887-13.745 1.375-20.529 2.616a80.748 80.748 0 0 0-12.326 4.013c-3.082 1.13-6.008 2.749-9.156 3.724a11.46 11.46 0 0 1-15.031-10.331l.044-.089Zm82.582-4.699c-5.609 6.65-13.302 9.643-21.372 11.727-7.094 1.84-14.343 3.104-21.504 4.678a59.851 59.851 0 0 0-19.265 7.227c-7.205 4.545-10.22 3.547-14.122-4.123-.266-.532-.51-1.064-1.042-2.217 6.806 3.126 12.57.332 17.891-2.417 7.958-4.079 16.405-5.32 25.073-6.318a112.658 112.658 0 0 0 19.953-3.569 25.679 25.679 0 0 0 18.822-20.396 32.39 32.39 0 0 0-.577-15.519c-.288-.953-.532-1.951-.776-2.926a6.65 6.65 0 0 1 4.7 5.697c2.572 10.73-.775 20.041-7.781 28.156Z" fill="#022F45"/><path d="M392.036 505.788c-4.013 0-7.981-.155-10.331-4.278 4.456-.843 7.538 1.374 10.331 4.278ZM395.894 504.126a18.294 18.294 0 0 1-5.986-10.154 3.538 3.538 0 0 1 .956-3.989 3.55 3.55 0 0 1 1.261-.711c4.345 1.929 5.853 7.471 3.769 14.854ZM359.181 500.667c-2.217 4.434-7.116 6.274-12.038 6.873a6.872 6.872 0 0 1-4.434-1.375 13.696 13.696 0 0 1-5.165-7.582l17.736-9.732s.421.133.576.354c2.35 3.415 5.498 7.25 3.325 11.462Z" fill="#fff"/><path d="M372.084 510.355a35.717 35.717 0 0 1-24.697 10.265c-5.188 0-8.868-6.319-6.651-11.573a15.737 15.737 0 0 0 13.656-.687c4.146-2.217 8.159-4.567 8.624-9.843 6.917-1.33 9.533 2.15 9.068 11.838ZM425.446 531.704c-5.609 6.651-13.302 9.644-21.372 11.728-7.094 1.84-14.343 3.104-21.504 4.678a59.851 59.851 0 0 0-19.265 7.227c-7.206 4.545-10.221 3.547-14.122-4.123-.267-.532-.51-1.064-1.042-2.217 6.806 3.126 12.57.332 17.89-2.417 7.959-4.079 16.406-5.32 25.074-6.318a112.749 112.749 0 0 0 19.953-3.569 25.676 25.676 0 0 0 18.822-20.396 32.39 32.39 0 0 0-.577-15.519c-.288-.953-.532-1.951-.776-2.926a6.647 6.647 0 0 1 4.7 5.697c2.572 10.73-.776 20.041-7.781 28.155Z" fill="#fff"/><path d="M416.401 531.15a39.913 39.913 0 0 1-16.561 5.41c-6.85.886-13.745 1.374-20.529 2.616a80.855 80.855 0 0 0-12.326 4.012c-3.082 1.131-6.008 2.749-9.156 3.725a11.465 11.465 0 0 1-15.009-10.42 29.345 29.345 0 0 1 2.328-12.902 42.371 42.371 0 0 0 28.067-10.376 15.523 15.523 0 0 0 15.807 1.508c0 2.017-.289 3.613-.2 5.209a25.74 25.74 0 0 0 .798 4.878c.421 1.485.732 3.259 3.614 3.48-1.597-7.227-4.013-14.609 3.857-20.085 1.197 4.434.643 9.222 4.279 12.37 1.995-.798 1.241-1.928.909-3.081a47.279 47.279 0 0 1-1.818-7.338c-.887-7.56 3.813-12.77 8.535-17.403 4.722-4.634 11.839-1.929 15.519 4.234 5.321 8.801 5.321 25.85-8.114 34.163ZM103.965 241.572a6.522 6.522 0 0 1-6.318 6.651 6.896 6.896 0 0 1-6.784-6.43 7.139 7.139 0 0 1 6.496-6.65 6.484 6.484 0 0 1 4.641 1.839 6.496 6.496 0 0 1 1.965 4.59Z" fill="#fff"/><path d="M109.53 277.93a4.816 4.816 0 0 1-4.057 0 40.092 40.092 0 0 1-5.609-4.434c-.443.887-1.22 2.372-1.884 3.88a103.214 103.214 0 0 1-4.634 10.175c-1.973 3.326-4.212 3.06-6.872-.266 7.404-11.816 7.404-11.816 6.54-15.518-1.153 1.574-2.018 2.616-2.727 3.746-1.463 2.439-2.705 5.011-4.257 7.383a9.782 9.782 0 0 1-3.236 3.015 3.737 3.737 0 0 1-2.85.413 3.734 3.734 0 0 1-2.294-1.743 3.88 3.88 0 0 1 .599-5.255c2.616-2.859 4.988-5.941 7.36-9.022.519-.988.906-2.039 1.153-3.126-4.168.133-4.3 3.791-6.163 5.52-1.862 1.729-3.614 3.835-5.32 5.675-3.748-2.616-4.213-3.902-2.373-6.872 1.108-1.752 2.705-3.193 3.968-4.856.754-.953 2.217-1.884.333-3.768l-7.471 6.274a3.686 3.686 0 0 1-1.505-2.744 3.68 3.68 0 0 1 1.15-2.91 82.01 82.01 0 0 1 6.185-7.67c3.924-4.146 8.07-8.07 8.868-14.1a4.585 4.585 0 0 1 4.212 3.192c2.705 5.476 6.12 6.917 12.083 5.609a29.335 29.335 0 0 1 5.099 0c-1.419 2.749-2.417 4.722-3.592 7.028 2.04 4.301 4.168 8.735 6.252 13.302a13.3 13.3 0 0 1 1.53 3.702c.266.998.177 2.993-.488 3.37ZM262.5 55.281c-1.907-.62-3.836-1.241-5.742-1.929-1.907-.687-3.636-1.352-5.942-2.216 5.498-12.26 7.715-24.697 2.749-38.443 11.041 8.957 14.034 27.269 8.935 42.588ZM247.802 50.337a45.27 45.27 0 0 1-22.613 3.015 67.473 67.473 0 0 1-20.95-6.473c-3.282-1.53-6.651-2.993-9.755-4.633a31.038 31.038 0 0 0-26.116-1.397c-1.507.576-3.081.975-4.611 1.463l-.51-.82a33.918 33.918 0 0 1 3.614-2.616 48.994 48.994 0 0 1 30.372-6.075 125.52 125.52 0 0 1 43.962 13.723c1.463.776 2.838 1.707 4.257 2.55.554.31 1.086.576 2.35 1.263Z" fill="#fff"/><path d="M250.817 13.203a8.878 8.878 0 0 0-4.811-5.609 50.458 50.458 0 0 0-28.133-3.835c-12.881 2.217-24.697 13.457-26.603 25.695a133.016 133.016 0 0 1 57.796 18.312c5.254-11.706 6.185-23.012 1.751-34.563Zm-27.845 16.561a8.272 8.272 0 0 1-8.314-8.69 10.176 10.176 0 0 1 9.688-10.353 8.093 8.093 0 0 1 7.804 8.69 10.087 10.087 0 0 1-9.178 10.353ZM211.998 107.934c-.266 3.015-.377 5.941-.798 8.868a6.247 6.247 0 0 1-5.786 4.943 35.084 35.084 0 0 1-10.221.156c-3.525-.466-4.611-2.373-4.434-6.031 0-.753.001-1.507.178-2.216l1.02-6.651a67.69 67.69 0 0 0 9.688 1.862 82.737 82.737 0 0 0 10.353-.931ZM251.792 61.998a6.43 6.43 0 0 0-7.848 1.53c-3.303 3.414-6.141 7.294-9.112 11.085a36.605 36.605 0 0 1-3.258 4.257 3.577 3.577 0 0 1-2.772 1.32 3.565 3.565 0 0 1-2.771-1.32 37.38 37.38 0 0 1 .754-4.434c.488-1.863 1.33-3.658 1.818-5.543a6.648 6.648 0 0 0-1.463-6.65c-1.796-1.907-3.37-4.035-4.434-5.41L193.464 45.46c-3.37 1.042-6.651 2.217-10.22 3.06a3.55 3.55 0 0 0-2.971 3.746c7.538-.399 7.538-.399 9.555 2.106l-10.597 1.352a104.044 104.044 0 0 0 .355 32.257c2.35 14.876 22.901 22.303 34.163 15.519a73.73 73.73 0 0 0 19.354-17.226c1.463-1.818 2.971-3.636 4.434-5.542 4.301 2.04 8.358 2.882 12.193 0a13.547 13.547 0 0 0 5.587-11.24c-.066-3.148-.665-6.008-3.525-7.494Zm-64.469 4.634c0 1.596-.909 2.926-2.771 2.926-1.862 0-2.461-1.374-2.705-2.97 0-.599-.177-1.175-.266-1.84-.088-.666 0-1.885.621-2.528a4.59 4.59 0 0 1 2.66-1.818c.665 0 1.885 1.02 2.217 1.818.34 1.445.415 2.94.222 4.412h.022Zm16.672-.266c.332-1.042 1.64-2.439 2.549-2.46.909-.023 1.929 1.418 2.66 2.393.377.532.2 1.441.266 2.217.067.776 0 1.685-.332 2.217-.754.931-1.774 2.084-2.816 2.217-.665.111-2.017-1.241-2.217-2.217a7.583 7.583 0 0 1-.133-4.367h.023ZM191.934 76.43c-1.529-2.084-.753-4.102.355-6.252 1.53-3.037 2.66-6.274 3.991-9.422.421-.953.909-1.907 1.729-3.636 1.995 3.99.133 6.651-.754 9.178-.887 2.528-2.217 5.121-3.658 8.07l5.653 4.057a5.563 5.563 0 0 1-7.316-1.995Zm9.134 16.206c-.488-3.303 2.949-2.75 4.168-4.235a56.468 56.468 0 0 1 4.767-4.61c.975 4.344-2.816 8.025-8.935 8.956v-.111Zm10.309-33.742c-2.217-.665-4.589-.976-6.85-1.42-.311-2.526 1.33-2.216 2.593-2.105 5.255 0 9.666 2.217 11.617 6.429-2.926-1.175-5.076-2.306-7.36-2.904Zm36.934 13.59c0 2.217-1.396 2.97-4.3 2.594a496.442 496.442 0 0 1 1.884-5.92c2.527-.399 2.483 1.619 2.416 3.326ZM141.433 191.89a477.142 477.142 0 0 0-29.309 47.93c-.282.408-.585.8-.909 1.175a4.915 4.915 0 0 1-4.81-2.549c-2.638-5.587-7.05-6.984-12.814-5.454l-4.168-2.971c.488-1.463.82-2.749 1.33-3.946a292.962 292.962 0 0 1 25.473-46.556 6.122 6.122 0 0 1 5.21-2.904c8.291-.665 14.343 3.392 19.597 9.134a4.435 4.435 0 0 1 .4 6.141ZM387.891 229.622c-4.057-1.906-7.272-5.897-12.127-6.207l-.665 1.064c.909.754 1.773 1.552 2.749 2.217 2.217 1.53 4.434 2.904 6.651 4.567a4.433 4.433 0 0 1 1.862 5.52 4.28 4.28 0 0 1-5.542 2.284c-3.171-3.636-6.651-7.272-11.928-8.558 2.217 4.434 7.627 6.075 9.4 10.797-2.217 2.749-3.635 3.325-6.03 1.995a33.323 33.323 0 0 1-4.212-3.303 216.049 216.049 0 0 0-4.279-3.237c-.532 5.01 5.144 5.786 4.656 9.954-2.417 1.641-4.434.333-6.296-1.197-3.414-2.949-6.518-6.252-9.954-9.112a25.188 25.188 0 0 0-7.117-4.434 267.913 267.913 0 0 1-51.544-25.472c-1.264-.799-2.439-1.685-3.547-2.461 3.081-8.868 6.074-17.603 9.089-26.36 9.777 6.097 19.487 12.282 29.331 18.268 9.843 5.986 19.952 11.705 29.707 17.447 6.939-2.682 12.88-6.983 19.952-8.025 1.841 3.591 1.619 4.788-.753 7.028-1.929 1.817-3.68 3.879-5.742 5.542a38.842 38.842 0 0 1-5.72 3.392 32.994 32.994 0 0 1-3.902 1.441c4.124 2.683 7.117 1.419 14.588-5.808a121.393 121.393 0 0 1 11.439 5.431c3.326 2.084 3.126 4.478-.066 7.227Z" fill="#fff"/><path d="M296.818 165.242c-6.651-5.498-13.124-10.93-19.753-16.051a184.623 184.623 0 0 0-37.688-23.433 95.337 95.337 0 0 0-25.274-7.072 23.244 23.244 0 0 1-2.571 2.816c-4.988 3.968-10.73 4.145-16.672 3.214a8.867 8.867 0 0 1-7.36-7.582 25.737 25.737 0 0 0-3.215 0 65.312 65.312 0 0 0-30.638 10.841 303.744 303.744 0 0 0-35.006 29.663 367.14 367.14 0 0 0-4.544 4.434c13.966 2.217 24.031 10.309 34.495 19.42.821-7.116 1.575-13.168 2.217-19.243.643-6.074-.266-12.348 1.153-18.888 1.951 2.217 1.973 2.217 1.995 4.633a156.433 156.433 0 0 1-2.505 31.348c-.709 3.724-.465 6.806 2.705 9.333 2.483.954 3.702-.487 4.722-2.616 3.754-7.7 7.56-15.363 11.417-22.99a49.046 49.046 0 0 1 2.927-4.433c1.862 2.372.51 3.768-.133 5.076-3.348 6.873-6.806 13.701-10.198 20.574-.687 1.374-1.264 2.815-2.04 4.544h86.018c.282-.48.519-.984.709-1.507.2-1.02.311-2.084.444-3.104 1.618-11.439 4.722-22.325 11.639-31.813a41.576 41.576 0 0 1 3.724-3.946l1.153.753a11.184 11.184 0 0 1-1.153 2.794c-6.917 8.868-9.71 19.509-12.06 30.239-1.131 5.143.399 6.828 5.831 6.851h23.854c1.618 0 3.215.199 5.432.354v12.415a75.711 75.711 0 0 0 10.375-36.624Zm-83.38-36.181a25.362 25.362 0 0 1-24.386 2.217 23.174 23.174 0 0 1-6.141-4.966c-.554-.532-.399-1.773-.266-3.103 10.619 10.929 21.815 8.867 33.254 1.175.2.62.399 1.241.577 1.862a21.711 21.711 0 0 1-3.038 2.815Z" fill="#FEB703"/><path d="M190.338 278.484v.488c0 23.455-.155 43.452-.532 47.154-1.33.532-31.547.909-64.957 1.064h-10.508c-37.533 0-75.687 0-79.234-.731-.2-44.605 0-89.343-.11-134.303h58.66c.155 1.264.42 2.527.465 3.813.488 15.674.155 17.226-7.028 31.392-.731 1.441-2.216 2.55-2.77 4.013a36.907 36.907 0 0 0-1.885 6.894 21.108 21.108 0 0 1-5.498 12.039c-2.483 2.394-4.7 5.054-6.984 7.626a24.727 24.727 0 0 0-2.704 3.569c-2.86 4.789-2.394 7.227 2.106 11.085a7.738 7.738 0 0 0 4.168 8.868c1.662 6.784 3.015 7.87 9.932 8.114 6.65 5.387 10.84 4.301 14.365-3.813.976-2.217 1.885-4.656 2.927-7.206 1.33.909 2.217 1.619 3.303 2.217a6.43 6.43 0 0 0 7.205 0 5.316 5.316 0 0 0 1.486-6.916c-1.863-4.567-4.124-9.001-6.186-13.48a32.763 32.763 0 0 1-.886-2.217 13.307 13.307 0 0 1 4.433-6.983 9.209 9.209 0 0 0 2.217-3.724 77.99 77.99 0 0 1 3.658-8.624c8.491-14.122 17.137-28.178 25.784-42.122.864-1.397 1.995-2.616 3.148-4.146h44.339c.665 1.574 1.086 48.152 1.086 85.929ZM282.963 192.178h-33.077c-.155 6.784-.311 13.302-.466 19.953h-22.568v-19.953h-33.609c-.621 2.926-.799 47.82-.621 84.976v8.557c0 18.711.332 34.23.621 39.329.016.58.075 1.158.177 1.729h89.676c1.086-5.343.864-131.421-.133-134.591Zm-6.784 122.908c-3.569 1.264-28.821 1.397-33.255.177v-18.755c11.085-.222 21.971-.178 33.255 0v18.578Z" fill="#fff"/><path d="M363.615 471.381c-4.744 11.44-13.435 18.6-24.652 22.901-6.651 2.505-13.302 4.434-20.108 6.385-5.143 1.463-7.782.443-10.752-4.057-8.114-12.238-16.14-24.542-24.187-36.824-27.328-41.767-54.67-83.564-82.028-125.39-.798-1.22-1.529-2.506-2.771-4.434a128.873 128.873 0 0 1 23.3.842 6048.146 6048.146 0 0 0 65.511 8.735 8.425 8.425 0 0 1 7.006 4.633 34066.196 34066.196 0 0 0 67.95 116.546 10.935 10.935 0 0 1 .731 10.663Z" fill="#FEB703"/><path d="M242.747 296.508v18.755c4.589 1.22 29.774 1.087 33.254-.177v-18.578c-11.284-.177-22.125-.222-33.254 0Zm30.616 16.472H245.54v-13.435h27.823v13.435Z" fill="#022F45"/><path d="M273.363 299.545H245.54v13.435h27.823v-13.435Z" fill="#fff"/><path d="M216.498 126.224a21.683 21.683 0 0 1-3.059 2.837 25.36 25.36 0 0 1-24.387 2.217 23.174 23.174 0 0 1-6.141-4.966c-.554-.532-.399-1.773-.266-3.103 10.619 10.929 21.815 8.867 33.254 1.175.222.598.422 1.219.599 1.84ZM199.25 78.426a5.563 5.563 0 0 1-7.316-1.995c-1.529-2.084-.753-4.102.355-6.252 1.53-3.037 2.66-6.274 3.991-9.422.421-.953.908-1.907 1.729-3.636 1.995 3.99.133 6.651-.754 9.178-.887 2.528-2.217 5.121-3.658 8.07l5.653 4.057ZM187.301 66.632c0 1.596-.909 2.926-2.771 2.926-1.862 0-2.461-1.374-2.705-2.97 0-.599-.177-1.175-.266-1.84-.088-.666 0-1.885.621-2.528a4.59 4.59 0 0 1 2.66-1.818c.666 0 1.885 1.02 2.217 1.818.348 1.444.43 2.939.244 4.412ZM209.448 68.494c0 .754 0 1.685-.332 2.217-.754.931-1.774 2.084-2.816 2.217-.665.11-2.017-1.241-2.217-2.217a7.595 7.595 0 0 1 0-4.434c.333-1.042 1.641-2.438 2.55-2.46.909-.023 1.929 1.418 2.66 2.394.377.62.089 1.53.155 2.283ZM218.737 61.71c-2.926-1.175-5.077-2.217-7.36-2.904-2.283-.687-4.589-.975-6.85-1.419-.311-2.527 1.33-2.217 2.593-2.106 5.255.111 9.666 2.284 11.617 6.43ZM201.069 92.748c-.488-3.304 2.948-2.75 4.167-4.235a56.603 56.603 0 0 1 4.767-4.611c.975 4.234-2.816 7.915-8.934 8.846ZM248.312 72.485c0 2.217-1.397 2.97-4.301 2.594a496.442 496.442 0 0 1 1.884-5.92c2.528-.399 2.483 1.619 2.417 3.326ZM232.084 19.41a10.089 10.089 0 0 1-9.179 10.354 8.267 8.267 0 0 1-8.313-8.69 10.176 10.176 0 0 1 9.688-10.354 8.092 8.092 0 0 1 7.804 8.69ZM190.338 278.484v.488c.732-.422 1.508-.821 2.217-1.242v-.532l-2.217 1.286Zm2.328 7.161-2.461 43.785-5.786 102.778c-.843 14.676-1.641 29.33-2.55 44.006-.332 5.365-2.217 7.582-7.271 8.868-6.828 1.685-13.701 3.436-20.618 4.434-11.861 1.862-22.968 0-32.789-7.538a10.932 10.932 0 0 1-4.677-9.555c.266-44.974.458-89.942.576-134.902a8.473 8.473 0 0 1 3.769-7.515l.222-.177 3.768-2.86h-10.508v2.904c0 46.201-.155 92.425-.709 138.648-.111 9.001 2.837 14.987 10.663 18.822 3.104 1.53 6.23 2.971 9.533 4.545v9.4a4.044 4.044 0 0 1-.665.754l-.288.199a22.656 22.656 0 0 0-3.658 2.993c-3.06 3.17-3.06 6.341-.732 11.949 1.02 2.461 2.993 4.833.82 7.516a10.909 10.909 0 0 1-9 4.279c-1.153 0-2.217-.266-3.902-.466 1.951-2.084 3.591-3.747 5.121-5.52a10.582 10.582 0 0 0 1.973-2.949 4.238 4.238 0 0 0-1.12-5.426 4.234 4.234 0 0 0-5.531.327c-1.042.843-1.906 1.885-3.17 3.148-.554-1.662-.976-3.17-1.53-4.633-1.374-3.658-4.168-5.476-7.138-4.744a6.386 6.386 0 0 0-3.88 8.047c.576 2.417 1.485 4.722 2.505 7.915-2.439-1.22-4.234-2.217-6.074-3.038-7.272-3.458-14.034-1.175-17.847 5.986a20.069 20.069 0 0 1-2.35 3.791 15.238 15.238 0 0 0-1.84 2.483 13.31 13.31 0 0 0-1.241 2.616 16.119 16.119 0 0 0 1.02 11.706 35.094 35.094 0 0 0 33.675 21.149c9.888-.399 19.088-3.658 28.355-6.65a147.589 147.589 0 0 1 14.676-4.279 73.906 73.906 0 0 1 10.686-1.02c1.795-.155 3.613 0 5.387-.244a8.868 8.868 0 0 0 8.247-9.134c0-2.948 0-5.941-.155-8.867 0-.909 0-1.796-.178-2.683a72.721 72.721 0 0 0-.576-5.387 13.934 13.934 0 0 0-1.64-4.589c-.466-.931-1.02-1.84-1.552-2.705l-.732-1.153a91.196 91.196 0 0 0-6.074-7.803c.598-5.831 1.308-11.662-4.966-15.076 0-2.815.155-5.498.243-8.358 4.745-1.219 9.4-2.217 13.989-3.591 7.006-1.973 9.6-5.21 9.999-12.548 2.778-48.67 5.535-97.339 8.269-146.009 0-1.485.178-2.948.244-4.434-.199-4.965-.421-20.484-.532-39.217v.022Zm-55.978 209.457.133-1.485c.048-.228.163-.437.332-.598h3.858l16.428-.377c.832 3.032.59 6.26-.688 9.134a6.778 6.778 0 0 1-3.259 3.458c-4.434 1.951-9.666 2.727-13.856 0a6.092 6.092 0 0 1-.82-.621 6.212 6.212 0 0 1-1.751-2.505 15.92 15.92 0 0 1-.377-7.006Zm-16.117 22.17c0 4.744-3.348 6.85-6.806 8.868.931-3.969 2.505-7.427 6.806-8.912v.044Zm-15.098-5.52a3.57 3.57 0 0 1 4.279 2.948 18.378 18.378 0 0 1-.111 11.795c-5.542-5.255-7.006-10.819-4.168-14.743Zm68.083 32.256c.465 8.602-1.663 10.974-10.176 10.642a60.014 60.014 0 0 0-20.285 3.37c-7.006 2.217-13.9 4.766-20.972 6.651-8.026 2.216-16.251 3.391-24.387.532-10.154-3.57-17.736-9.955-20.817-20.662a7.209 7.209 0 0 1 .244-6.008c.283-.458.618-.882.997-1.264l.599 2.217c0 .244 0 .488.177.732a32.658 32.658 0 0 0 7.294 13.789 25.715 25.715 0 0 0 26.603 8.269 110.934 110.934 0 0 0 18.978-6.85c8.003-3.459 15.939-6.651 24.896-7.05 5.986-.288 12.348-.732 16.694-6.85.111 1.374.177 1.95.199 2.527l-.044-.045Zm-4.19-19.753c.64.877 1.232 1.787 1.773 2.727.2.355.377.71.555 1.064a12.134 12.134 0 0 1 .931 8.137 11.365 11.365 0 0 1-.954 2.549 11.494 11.494 0 0 1-7.781 5.853c-3.193.709-6.651.798-9.777 1.352a97.017 97.017 0 0 0-11.395 2.217c-.443 0-.865.266-1.308.421-1.84.665-3.68 1.375-5.498 2.217-4.434 1.863-9.023 3.947-13.568 5.853a40.334 40.334 0 0 1-17.048 3.592 25.34 25.34 0 0 1-23.19-18.955 22.825 22.825 0 0 1-.753-3.481 21.035 21.035 0 0 1-.178-3.082c.111-7.205 5.321-12.991 11.329-11.439 6.407 1.641 13.08 3.813 16.095 10.797a47.186 47.186 0 0 1 2.084 7.271c.31 1.153.222 2.527 2.35 2.217 1.574-4.545-1.33-8.424-2.505-12.858 9.577.798 11.085 8.402 13.412 15.518a3.679 3.679 0 0 0 1.375-4.833 25.258 25.258 0 0 0-1.752-4.611c-.709-1.419-1.707-2.727-2.771-4.434a15.521 15.521 0 0 0 12.947-9.222 42.345 42.345 0 0 0 29.486-5.033 28.147 28.147 0 0 1 6.185 6.208l-.044-.045Zm-9.6-7.759a35.821 35.821 0 0 1-26.603 3.547c-5.299-8.247-4.7-12.481 1.951-14.92 3.037 4.434 7.693 4.434 12.415 4.212a15.805 15.805 0 0 0 12.149-6.229c4.7 3.502 4.611 10.863.133 13.434l-.045-.044Z" fill="#022F45"/><path d="M120.571 517.228c0 4.744-3.348 6.85-6.806 8.868.931-3.924 2.505-7.383 6.806-8.868ZM109.685 526.539c-5.587-5.299-7.05-10.863-4.168-14.743a3.57 3.57 0 0 1 4.279 2.949 18.375 18.375 0 0 1-.111 11.794ZM156.751 501.687a6.782 6.782 0 0 1-3.259 3.458c-4.434 1.951-9.666 2.727-13.856 0a6.105 6.105 0 0 1-.82-.62 6.215 6.215 0 0 1-1.751-2.506 15.907 15.907 0 0 1-.377-6.983l.133-1.485c.047-.229.163-.438.332-.599h3.858l16.427-.377a13.611 13.611 0 0 1-.687 9.112Z" fill="#fff"/><path d="M159.81 516.54a35.826 35.826 0 0 1-26.603 3.548c-5.299-8.247-4.7-12.482 1.951-14.92 3.037 4.434 7.693 4.433 12.415 4.212a15.812 15.812 0 0 0 12.149-6.23c4.655 3.459 4.567 10.819.088 13.39ZM163.425 554.694a60.064 60.064 0 0 0-20.285 3.37c-7.006 2.217-13.901 4.767-20.973 6.651-8.025 2.217-16.25 3.392-24.386.532-10.154-3.569-17.736-9.954-20.818-20.662a7.207 7.207 0 0 1 .244-6.008 7.08 7.08 0 0 1 .998-1.263l.599 2.216c0 .244 0 .488.177.732a32.66 32.66 0 0 0 7.294 13.79 25.721 25.721 0 0 0 26.603 8.269 110.812 110.812 0 0 0 18.977-6.851c8.004-3.458 15.94-6.651 24.897-7.05 5.985-.288 12.348-.731 16.693-6.85.133 1.308.2 1.884.222 2.461.399 8.624-1.685 10.996-10.242 10.663Z" fill="#fff"/><path d="M172.669 536.138a11.437 11.437 0 0 1-.953 2.55 11.509 11.509 0 0 1-7.782 5.853c-3.192.709-6.651.798-9.777 1.352a96.812 96.812 0 0 0-11.395 2.217c-.443 0-.865.266-1.308.421-1.84.665-3.68 1.375-5.498 2.217-4.434 1.862-9.023 3.946-13.568 5.853a40.315 40.315 0 0 1-17.048 3.591 25.34 25.34 0 0 1-23.19-18.955 22.774 22.774 0 0 1-.753-3.48 21.05 21.05 0 0 1-.178-3.082c.111-7.205 5.321-12.991 11.33-11.439 6.406 1.64 13.079 3.813 16.094 10.796a47.198 47.198 0 0 1 2.084 7.272c.31 1.153.222 2.527 2.35 2.217 1.574-4.545-1.33-8.424-2.505-12.858 9.577.798 11.085 8.402 13.412 15.518a3.679 3.679 0 0 0 1.375-4.833 25.328 25.328 0 0 0-1.751-4.611c-.71-1.419-1.707-2.727-2.772-4.434a15.513 15.513 0 0 0 12.947-9.222 42.345 42.345 0 0 0 29.486-5.033 28.165 28.165 0 0 1 6.141 6.208c.64.876 1.232 1.786 1.773 2.726.2.355.377.71.555 1.065a12.123 12.123 0 0 1 .931 8.091Z" fill="#fff"/><path d="m190.205 329.43-5.786 102.778c-.843 14.676-1.641 29.33-2.55 44.006-.332 5.365-2.217 7.582-7.271 8.868-6.829 1.685-13.701 3.436-20.618 4.434-11.861 1.862-22.968 0-32.789-7.538a10.932 10.932 0 0 1-4.678-9.555c.266-44.974.459-89.942.577-134.901a8.464 8.464 0 0 1 3.769-7.516l.221-.177 69.125-.399Z" fill="#FEB703"/><circle cx="379.062" cy="78.236" r="77.736" fill="#fff" stroke="#022F45"/><path d="M423.642 75.198v.037l.232.03 5.65.708-4.622-.61-1.26-.165ZM388.031 46.324v45.991h-62.499V46.324h62.499Zm-.797.797h-60.905v44.398h60.905V47.12Z" fill="#022F45"/><path d="M326.329 47.12V91.52h12.436a11.47 11.47 0 0 1 13.086 0h35.383V47.12h-60.905Z" fill="#fff"/><path d="m423.786 58.657 6.535 17.231-.848-.08-4.564-.445-1.009-.099-.647-.062-1.101-.11-.812-.078-16.592-1.608V58.657h19.038Zm-18.539 14.276 15.587 1.509 1.171.113 7.285.705.257.026-4.814-12.675-1.307-3.447h-18.179v13.769Z" fill="#022F45"/><path d="m418.374 71.743.188.206 2.258 2.493.473.521.008.051 2.438 16.526.11.75.782-.114-.092-.632-2.427-16.453-.07-.48-.051-.056-2.365-2.607-.668-.737-.584.532ZM397.42 55.76v29.902h.79V56.553h16.618l2.599 2.02.11.084.334.26.338.261.283.22.172-.22.202-.26.111-.143-.151-.118-2.471-1.92-1.256-.977H397.42Z" fill="#022F45"/><path d="M417.32 58.918h2.827v13.03h-2.827v-13.03Z" fill="#022F45"/><path d="M391.912 91.596V53.047h30.005c.164.246.309.505.433.775a6063.03 6063.03 0 0 1 8.757 23.924c.214.622.323 1.274.323 1.931.039 4.213.071 8.426.096 12.638h.036l-.029 1.348c0 1.858.01 3.716.029 5.573-.032.57-.095 1.138-.19 1.7h-105.84v-9.34h66.38Zm31.187-.063H430.476v-2.427l-1.649-.554c-.099-2.45-.066-4.91 0-7.399l1.634-.367c.441-1.73 0-3.198-.918-4.81l-.059-.165-.198-.547-4.553-12.652-.786-2.185-.642-1.785-.048-.132c-.385-1.039-.752-2.049-1.142-3.062l-.367-1.017-.216-.584H393.05c-.367 1.597-.448 29.531-.055 31.815h4.818l.396-.033.668-.051a19.846 19.846 0 0 1 14.026 5.955h10.196Z" fill="#022F45"/><path d="m422.111 75.095 2.427 16.45h5.937v-2.428l-1.648-.554c-.099-2.45-.066-4.91 0-7.399l1.634-.367c.44-1.73 0-3.198-.918-4.81l-5.651-.708-.646-.063-1.135-.12Z" fill="#fff"/><path d="m419.626 71.948 2.365 2.607 7.284.705-4.541-12.634-1.308-3.447h-3.278v12.77h-.522Z" fill="#9AACB5"/><path d="M405.233 59.178v13.755l15.586 1.509-2.258-2.493h-1.241v-12.77h-12.087Z" fill="#9AACB5"/><path d="M398.209 56.553V85.63l.668-.051a19.851 19.851 0 0 1 14.026 5.955H423.738L421.3 75.011l-16.592-1.608V58.657h12.829l-.11-.084-2.6-2.02h-16.618Z" fill="#fff"/><path d="M392.988 85.662h4.431V55.76h17.68l1.255.977 2.479 1.92h4.457l-.048-.128-1.501-4.094-.217-.584h-28.481c-.386 1.593-.448 29.527-.055 31.811ZM345.308 96.16a4.774 4.774 0 1 1 0 9.547 4.774 4.774 0 0 1 0-9.547Zm0 8.668a3.885 3.885 0 1 0-2.748-1.134 3.877 3.877 0 0 0 2.748 1.142v-.008Z" fill="#fff"/><path d="M345.308 89.918a11.017 11.017 0 0 1 10.804 13.164 11.017 11.017 0 0 1-15.019 8.027 11.009 11.009 0 0 1-4.943-4.057 11.009 11.009 0 0 1-1.857-6.119 11.036 11.036 0 0 1 11.015-11.015Zm0 21.6a10.586 10.586 0 0 0 10.575-10.574 10.556 10.556 0 0 0-4.469-8.621 10.221 10.221 0 0 0-1.314-.812 10.536 10.536 0 0 0-9.583 0 1.141 1.141 0 0 0-.151.077c-.404.219-.793.464-1.164.735a10.553 10.553 0 0 0-1.368 16.095 10.59 10.59 0 0 0 7.474 3.1Z" fill="#fff"/><path d="M337.744 92.315c.29-.253.594-.492.907-.734l.113-.077a11.47 11.47 0 0 1 13.086 0l.114.077a11.51 11.51 0 0 1 4.817 9.355 11.48 11.48 0 0 1-3.431 7.981 11.477 11.477 0 0 1-16.081 0 11.476 11.476 0 0 1-3.432-7.981 11.462 11.462 0 0 1 3.907-8.62Zm-3.011 8.629a10.575 10.575 0 0 0 21.149 0 10.556 10.556 0 0 0-4.469-8.621 10.236 10.236 0 0 0-1.314-.812 10.536 10.536 0 0 0-9.583 0 1.153 1.153 0 0 0-.151.077c-.404.219-.793.464-1.164.735a10.563 10.563 0 0 0-4.468 8.621Z" fill="#022F45"/><path d="M339.201 92.315c.372-.27.76-.516 1.164-.734a1.22 1.22 0 0 1 .151-.077 10.533 10.533 0 0 1 9.583 0c.052.022.102.048.151.077.404.218.792.464 1.163.734a10.556 10.556 0 0 1 4.469 8.621 10.577 10.577 0 0 1-10.575 10.575 10.575 10.575 0 0 1-10.574-10.575 10.557 10.557 0 0 1 4.468-8.62Zm6.106 13.409a4.777 4.777 0 0 0 4.41-2.946 4.77 4.77 0 0 0-1.034-5.202 4.774 4.774 0 1 0-3.376 8.148Z" fill="#fff"/><path d="M345.308 96.16a4.774 4.774 0 1 1 0 9.547 4.774 4.774 0 0 1 0-9.547Zm0 8.668a3.885 3.885 0 1 0-2.748-1.134 3.877 3.877 0 0 0 2.748 1.142v-.008Z" fill="#022F45"/><path d="M341.468 101.578a3.886 3.886 0 0 1 7.669-1.245 3.885 3.885 0 0 1-7.669 1.245ZM401.654 96.16a4.77 4.77 0 0 1 4.409 2.946 4.769 4.769 0 0 1-1.034 5.202 4.777 4.777 0 0 1-5.202 1.034 4.77 4.77 0 0 1-2.947-4.409 4.774 4.774 0 0 1 4.774-4.774Zm0 8.668c.768 0 1.519-.228 2.158-.654a3.892 3.892 0 0 0 1.652-3.988 3.882 3.882 0 0 0-3.053-3.052 3.884 3.884 0 0 0-4.642 3.81 3.892 3.892 0 0 0 3.885 3.892v-.008Z" fill="#fff"/><path d="M401.653 89.918a11.017 11.017 0 0 1 10.803 13.164 11.016 11.016 0 0 1-21.818-2.149 11.033 11.033 0 0 1 11.015-11.015Zm0 21.6a10.576 10.576 0 0 0 7.483-18.058 10.573 10.573 0 0 0-11.529-2.292 10.578 10.578 0 0 0 4.046 20.35Z" fill="#fff"/><path d="M401.653 89.47a11.476 11.476 0 0 1 11.27 13.703 11.474 11.474 0 1 1-11.27-13.703Zm0 22.048a10.576 10.576 0 0 0 7.483-18.058 10.573 10.573 0 0 0-11.529-2.292 10.577 10.577 0 0 0 4.046 20.35Z" fill="#022F45"/><path d="M401.654 90.366a10.577 10.577 0 0 1 2.068 20.952 10.577 10.577 0 0 1-12.643-10.374 10.59 10.59 0 0 1 10.575-10.578Zm0 15.358a4.774 4.774 0 1 0-.001-9.548 4.774 4.774 0 0 0 .001 9.548Z" fill="#fff"/><path d="M401.654 96.16a4.77 4.77 0 0 1 4.409 2.946 4.769 4.769 0 0 1-1.034 5.202 4.777 4.777 0 0 1-5.202 1.034 4.77 4.77 0 0 1-2.947-4.409 4.774 4.774 0 0 1 4.774-4.774Zm0 8.668c.768 0 1.519-.228 2.158-.654a3.892 3.892 0 0 0 1.652-3.988 3.882 3.882 0 0 0-3.053-3.052 3.884 3.884 0 0 0-4.642 3.81 3.892 3.892 0 0 0 3.885 3.892v-.008Z" fill="#022F45"/><path d="M398.905 103.69a3.885 3.885 0 1 1 5.494-5.494 3.885 3.885 0 0 1-5.494 5.494Z" fill="#fff"/><circle cx="498.325" cy="166.003" r="58.177" fill="#fff" stroke="#022F45"/><g clip-path="url(#a)"><path d="M526.834 178.624c0 2.019-.224 8.709-3.06 14.877a22.903 22.903 0 0 1-2.49 4.228 14.439 14.439 0 0 1-1.869 2.121c-3.383 3.21-8.522 4.892-14.741 4.892a38.813 38.813 0 0 1-4.457-.266 49.055 49.055 0 0 1-21.165-7.836c-11.644-7.942-16.064-20.09-17.662-26.631-1.224-4.897-3.406-18.026 4.5-29.435a34.673 34.673 0 0 1 5.84-6.541.262.262 0 0 1 0-.056h.047a29.175 29.175 0 0 1 9.218-5.388 31.02 31.02 0 0 1 9.765-1.714c12.643-.108 22.273 8.223 26.165 12.218l14.782-8.41a1.323 1.323 0 0 1 1.799.495 1.32 1.32 0 0 1-.495 1.799l-14.213 8.073a26.113 26.113 0 0 1 5.607 10.377 26.297 26.297 0 0 1 .687 10.475c3.032-1.504 6.134-1.728 8.456-.383a6.618 6.618 0 0 1 3.135 4.313c.986 4.406-3.153 9.727-9.849 12.792Z" fill="#fff"/><path d="M539.015 165.336a8.999 8.999 0 0 0-4.247-5.854 9.942 9.942 0 0 0-7.055-.934 28.602 28.602 0 0 0-1.009-7.733 28.133 28.133 0 0 0-4.345-9.078l11.839-6.728a3.667 3.667 0 0 0 1.364-4.985 3.665 3.665 0 0 0-4.98-1.369l-13.246 7.527c-4.523-4.303-14.045-11.648-26.291-11.648h-.261a33.614 33.614 0 0 0-10.531 1.869 31.502 31.502 0 0 0-9.069 5.083l-1.509 1.28a37.728 37.728 0 0 0-5.668 6.499c-7.167 10.349-6.616 21.913-5.462 28.435h-.107l.705 2.893c1.678 6.872 6.327 19.623 18.619 28.005a51.51 51.51 0 0 0 22.231 8.2c1.569.183 3.148.277 4.728.28 6.882 0 12.536-1.911 16.353-5.532a16.7 16.7 0 0 0 2.13-2.439 25.11 25.11 0 0 0 2.724-4.63c2.509-5.448 3.117-11.167 3.243-14.381 6.929-3.644 10.947-9.564 9.844-14.76Zm-13.152 11.153-1.365.626v1.5c0 1.808-.205 8.157-2.85 13.904a20.515 20.515 0 0 1-2.233 3.799l-.037.051a12.11 12.11 0 0 1-1.547 1.776c-2.929 2.803-7.475 4.251-13.133 4.251a36.019 36.019 0 0 1-4.205-.252 46.585 46.585 0 0 1-20.124-7.433c-10.227-6.957-14.568-17.437-16.352-23.875l-.351-1.402c-1.191-4.761-3.168-16.974 4.154-27.566a32.524 32.524 0 0 1 5.303-5.999l.196-.169a26.892 26.892 0 0 1 8.48-4.957 28.552 28.552 0 0 1 8.999-1.579h.219c11.793 0 20.862 8.036 24.23 11.508l1.257 1.299.528.598a23.606 23.606 0 0 1 5.14 9.451 24.034 24.034 0 0 1 .621 9.541l-.593 4.364 3.948-1.958c2.406-1.196 4.672-1.359 6.251-.467.509.3.95.701 1.298 1.178.347.478.592 1.021.721 1.597.719 3.29-2.972 7.668-8.555 10.223v-.009Z" fill="#fff"/><path d="M536.73 165.827a6.64 6.64 0 0 0-3.135-4.317c-2.336-1.341-5.42-1.117-8.457.383a26.279 26.279 0 0 0-.686-10.475 26.112 26.112 0 0 0-5.607-10.372l14.213-8.079a1.317 1.317 0 1 0-1.304-2.289l-14.783 8.41c-3.873-3.995-13.498-12.325-26.164-12.218a30.937 30.937 0 0 0-9.765 1.715 29.172 29.172 0 0 0-9.218 5.387h-.047a.262.262 0 0 0 0 .056 34.638 34.638 0 0 0-5.84 6.541c-7.906 11.419-5.724 24.548-4.5 29.435 1.598 6.541 6.018 18.689 17.666 26.632a48.961 48.961 0 0 0 21.161 7.83c1.479.178 2.967.269 4.457.271 6.219 0 11.358-1.686 14.745-4.891a14.644 14.644 0 0 0 1.841-2.122 22.712 22.712 0 0 0 2.49-4.233c2.837-6.167 3.061-12.853 3.061-14.871 6.672-3.061 10.811-8.387 9.872-12.793Zm-63.542-30.963a27.502 27.502 0 0 1 7.237-4.368 43.803 43.803 0 0 1 15.293 9.171 43.633 43.633 0 0 1 6.513 7.583l-25.945 14.643a44.89 44.89 0 0 1-3.093-9.681 45.047 45.047 0 0 1 .014-17.348h-.019Zm17.614-6.429h.257c11.541 0 20.465 7.434 24.375 11.363l-11.825 6.677a45.003 45.003 0 0 0-6.822-7.943 45.148 45.148 0 0 0-14.063-8.835 29.522 29.522 0 0 1 8.097-1.271l-.019.009Zm-23.594 13.026a33.703 33.703 0 0 1 4.088-4.882 46.319 46.319 0 0 0 .35 15.937 46.582 46.582 0 0 0 3.271 10.157l-12.017 6.78c-1.168-4.817-3.131-17.227 4.326-27.992h-.018Zm58.5 35.93-.467.215v.532c.024.809.136 8.079-2.911 14.704a21.48 21.48 0 0 1-2.336 3.957 13.14 13.14 0 0 1-1.658 1.906c-8.233 7.803-26.838 4.491-38.392-3.368a38.1 38.1 0 0 1-6.541-5.63c3.471-1.252 5.92-4.205 6.247-7.602.355-3.63-1.869-6.237-2.304-6.728 3.803.262 7.009-2.57 7.303-5.957.234-2.803-1.542-5.471-4.205-6.583l36.953-20.997a24.578 24.578 0 0 1 5.508 9.998 24.78 24.78 0 0 1 .467 11.083 18.698 18.698 0 0 0-3.611 3.186l1.187 1.042c3.737-4.279 8.736-6.074 11.853-4.275a5.152 5.152 0 0 1 2.383 3.271c.813 3.794-3.168 8.536-9.457 11.246h-.019Z" fill="#022F45"/><path d="M504.833 186.492c-3.453-.537-6.317-2.233-8.943-4.546a6.443 6.443 0 0 1 2.275-1.607 8.623 8.623 0 0 1 3.196-.659c-2.102-1.5-5.303-.803-6.947 1.159-1.724 1.892-1.995 5.139-.243 7.041a7.523 7.523 0 0 1 1.378-5.518 10.46 10.46 0 0 0 2.761 3.883 11.546 11.546 0 0 0 7.677 2.91c3.195 0 6.541-1.364 8.526-3.887-3.13 1.093-6.405 1.762-9.68 1.224ZM509.057 164.276c-2.864.341-5.443-1.238-7.167-3.738-.178 3.738 3.775 6.887 7.508 6.298 3.766-.425 6.709-4.546 5.438-8.129-.911 2.892-2.925 5.162-5.779 5.569ZM505.6 155.198c2.205-1.5 4.616-2.383 7.246-1.846.895.179 1.77.447 2.612.799-2.205-3.929-8.536-3.205-9.858 1.047Z" fill="#022F45"/></g><defs><clipPath id="a"><path fill="#fff" transform="translate(457.858 124.525)" d="M0 0h81.343v82.553H0z"/></clipPath></defs></svg>