<svg width="64" height="64" fill="none" xmlns="http://www.w3.org/2000/svg"><path d="M11.058 32.86h24.339l3.042 1.521 1.014 4.057 10.648-11.663h1.521l2.029.507 1.52 1.015.508 3.549-20.79 23.832H10.551l-2.028-1.522-.507-2.535V36.916l1.014-2.028 2.028-2.028ZM14.606 26.775V9.535l2.029-1.52h18.254c.405 0 .845.675 1.014 1.013l1.014 2.028v15.72h-22.31Z" fill="#fff"/><path d="M55.294 27.113a5.18 5.18 0 0 0-3.769-1.357 5.188 5.188 0 0 0-3.623 1.702l-7.775 8.548A5.515 5.515 0 0 0 34.831 32H12.208A5.214 5.214 0 0 0 7 37.208v14.584A5.214 5.214 0 0 0 12.208 57h23.384l20.08-22.535c1.899-2.132 1.728-5.428-.38-7.35l.002-.002Zm-1.175 5.962L34.66 54.915H12.208a3.129 3.129 0 0 1-3.125-3.125V37.206a3.129 3.129 0 0 1 3.125-3.125H34.83a3.426 3.426 0 0 1 3.421 3.423c0 1.692-1.263 3.148-2.925 3.384l-11.794 1.535.269 2.067 11.806-1.538c2.13-.304 3.844-1.83 4.471-3.798l9.365-10.292a3.118 3.118 0 0 1 2.18-1.024 3.13 3.13 0 0 1 2.268.816 3.16 3.16 0 0 1 .227 4.423l.002-.002ZM21.583 13.25h8.334v2.083h-8.334V13.25Zm16.667-2.083A4.17 4.17 0 0 0 34.083 7H17.417a4.17 4.17 0 0 0-4.167 4.167v16.666h25V11.167ZM36.167 25.75H15.333V11.167c0-1.15.936-2.084 2.084-2.084h16.666c1.148 0 2.084.934 2.084 2.084V25.75Z" fill="#022F45"/><path fill-rule="evenodd" clip-rule="evenodd" d="M55.632 27.455a5.378 5.378 0 0 0-.34-.34l.002-.002a4.848 4.848 0 0 0-.387-.32 5.16 5.16 0 0 0-3.382-1.037 5.188 5.188 0 0 0-3.623 1.702l-7.775 8.548A5.514 5.514 0 0 0 34.831 32H12.208A5.214 5.214 0 0 0 7 37.208v14.584A5.214 5.214 0 0 0 12.208 57h23.384l20.08-22.535c1.791-2.01 1.74-5.057-.04-7.01Zm-15.319 7.604 7.22-7.937a5.689 5.689 0 0 1 3.967-1.865 5.68 5.68 0 0 1 4.13 1.485l.388.353-.02.02c1.955 2.14 2.011 5.478.048 7.682L35.816 57.5H12.208A5.714 5.714 0 0 1 6.5 51.792V37.208a5.714 5.714 0 0 1 5.708-5.708h22.623a6.013 6.013 0 0 1 5.482 3.559Zm-4.988 5.829c1.662-.236 2.925-1.692 2.925-3.384a3.426 3.426 0 0 0-3.42-3.423H12.207a3.129 3.129 0 0 0-3.125 3.125V51.79a3.129 3.129 0 0 0 3.125 3.125H34.66l19.459-21.84.01-.011a3.16 3.16 0 0 0-.24-4.41 3.13 3.13 0 0 0-2.266-.817 3.118 3.118 0 0 0-2.181 1.026l-9.365 10.291c-.627 1.969-2.342 3.494-4.47 3.798L23.8 44.49l-.268-2.067 11.793-1.535Zm5.194-1.476c-.71 2.094-2.555 3.708-4.842 4.035h-.006L23.369 45.05l-.398-3.058 12.284-1.6h.003c1.413-.201 2.492-1.445 2.492-2.888a2.926 2.926 0 0 0-2.92-2.923H12.207a2.629 2.629 0 0 0-2.625 2.625V51.79a2.629 2.629 0 0 0 2.625 2.625h22.228l19.308-21.67a2.66 2.66 0 0 0-.19-3.721 2.63 2.63 0 0 0-1.905-.687h-.004a2.619 2.619 0 0 0-1.834.862L40.52 39.412ZM21.083 12.75h9.334v3.083h-9.334V12.75ZM12.75 28.333V11.167A4.67 4.67 0 0 1 17.417 6.5h16.666a4.67 4.67 0 0 1 4.667 4.667v17.166h-26Zm25.5-17.166A4.17 4.17 0 0 0 34.083 7H17.417a4.17 4.17 0 0 0-4.167 4.167v16.666h25V11.167ZM15.833 25.25h19.834V11.167c0-.874-.712-1.584-1.584-1.584H17.417c-.872 0-1.584.71-1.584 1.584V25.25Zm5.75-12v2.083h8.334V13.25h-8.334Zm14.584 12.5V11.167c0-1.15-.936-2.084-2.084-2.084H17.417a2.085 2.085 0 0 0-2.084 2.084V25.75h20.834Z" fill="#022F45"/></svg>