<svg width="64" height="64" fill="none" xmlns="http://www.w3.org/2000/svg"><path d="M48.724 54.322h-8.81l8.446-8.181a23.455 23.455 0 0 0 0-32.706 22.023 22.023 0 0 0-32.033-.066 23.477 23.477 0 0 0 0 32.772l8.358 8.181h-7.378a1.597 1.597 0 0 0 0 3.183h30.117a1.574 1.574 0 0 0 1.553-1.586 1.62 1.62 0 0 0-.595-1.255l.342-.342Zm-.848.672a.45.45 0 0 1 .12.077.376.376 0 0 1 .1.088 1.098 1.098 0 0 0-.22-.209v.044Z" fill="#fff"/><path d="M48.724 54.322h-8.81l8.446-8.181a23.455 23.455 0 0 0 0-32.706 22.023 22.023 0 0 0-32.033-.066 23.477 23.477 0 0 0 0 32.772l8.358 8.181h-7.378a1.597 1.597 0 0 0 0 3.183h30.117a1.585 1.585 0 0 0 1.553-1.597 1.608 1.608 0 0 0-.595-1.244l.342-.342Zm-23.158 0-.43-.473c.346.35.714.677 1.102.98l-.672-.507Zm12.256-2.312a7.785 7.785 0 0 1-10.924 0l-8.369-8.215a20.24 20.24 0 0 1 0-28.19 19.018 19.018 0 0 1 27.585 0 20.218 20.218 0 0 1 0 28.201l-8.358 8.204h.066Zm1.343 2.312a10.976 10.976 0 0 1 .44-.418l-.44.418Zm8.81.738.099.1a1.106 1.106 0 0 0-.22-.166l.12.066Zm-.573 1.894a1.013 1.013 0 0 0 .022 0h-.022Z" fill="#022F45"/><path d="m39.606 19.712-4.56-2.334a5.946 5.946 0 0 0-5.45 0l-4.46 2.334a6.277 6.277 0 0 0-3.303 5.605v6.949a6.255 6.255 0 0 0 3.303 5.594l4.515 2.345a5.97 5.97 0 0 0 2.72.66 5.97 5.97 0 0 0 2.72-.66l4.515-2.345a6.253 6.253 0 0 0 3.303-5.594v-6.949a6.278 6.278 0 0 0-3.303-5.605ZM38.14 22.52l-4.713 2.445a2.291 2.291 0 0 1-2.07 0l-4.724-2.445 4.316-2.202h.121a2.82 2.82 0 0 1 1.322-.32c.456-.004.907.106 1.31.32l4.438 2.202Zm-5.748-3.171a3.446 3.446 0 0 0-.022 0h.022Zm-8.072 5.528c.02-.179.054-.355.1-.529-.031.175-.05.351-.056.529h-.044Zm6.431 12.972a3.467 3.467 0 0 0 1.575.385 3.468 3.468 0 0 1-1.53-.385h-.045Zm9.052-5.583a3.094 3.094 0 0 1-1.652 2.764l-4.47 2.301a2.853 2.853 0 0 1-2.633 0l-4.514-2.334a3.094 3.094 0 0 1-1.652-2.764v-7.048l5.032 2.61a5.296 5.296 0 0 0 4.878 0l5.055-2.577v7.048h-.044Zm2.555-6.949a6.247 6.247 0 0 0-.21-1.575c.152.512.237 1.042.254 1.575h-.044Z" fill="#022F45"/></svg>