<svg width="64" height="64" fill="none" xmlns="http://www.w3.org/2000/svg"><g clip-path="url(#a)"><path d="M51.69 30h-4.82V13.1a5.72 5.72 0 0 0-5.81-5.6H21.94a5.72 5.72 0 0 0-5.81 5.6V30h-4.82a5.72 5.72 0 0 0-5.81 5.6v21.9h52V35.56A5.72 5.72 0 0 0 51.69 30Z" fill="#fff"/><path d="M38.94 38.38h-.25v2.54h9v-2.54h-8.75ZM57 57.25h.25V35.56a5.46 5.46 0 0 0-5.56-5.35h-5.07V13.1a5.46 5.46 0 0 0-5.56-5.35H21.94a5.46 5.46 0 0 0-5.56 5.35v17.11h-5.07a5.46 5.46 0 0 0-5.56 5.35v21.69H57ZM15.56 38.38h-.25v2.54h9v-2.54h-8.75ZM27 18.21v.25h9v-2.54h-9v2.29Zm17 12H19V13.1a2.88 2.88 0 0 1 2.94-2.81h19.12A2.88 2.88 0 0 1 44 13.1v17.11Zm-13.81 2.54v22H8.38V35.56a2.87 2.87 0 0 1 2.93-2.81h18.88Zm21.5 0a2.87 2.87 0 0 1 2.93 2.81v19.15H32.81v-22l18.88.04Z" fill="#022F45" stroke="#022F45" stroke-width=".5"/></g><defs><clipPath id="a"><path fill="#fff" d="M0 0h64v64H0z"/></clipPath></defs></svg>