<svg width="64" height="64" fill="none" xmlns="http://www.w3.org/2000/svg"><path d="m53.6 34.38-1.84-7.83a3.84 3.84 0 0 0-4.61-2.85l-7.79 1.85a3.84 3.84 0 0 0-2.67 4.55l1.84 7.83a3.8 3.8 0 0 0 1.73 2.4l2 .5h.53l.33-.05L50.76 39a3.84 3.84 0 0 0 2.84-4.62Zm-3.54 1.68-7.48 1.78-.92-.19a.8.8 0 0 1-.22-.39l-1.84-7.83a.84.84 0 0 1 .62-1l7.62-1.81a.81.81 0 0 1 .63.1.82.82 0 0 1 .37.52l1.84 7.83a.82.82 0 0 1-.62.99Z" fill="#022F45"/><path d="m50.06 36.06-7.48 1.78-.92-.19a.8.8 0 0 1-.22-.39l-1.84-7.83a.84.84 0 0 1 .62-1l7.62-1.81a.809.809 0 0 1 .63.1.82.82 0 0 1 .37.52l1.84 7.83a.82.82 0 0 1-.62.99Z" fill="#fff"/><path d="M9.41 55.61h2.96v-11.4l-2.96-1.77v13.17ZM14.82 7.44a5.42 5.42 0 1 0 0 10.84 5.42 5.42 0 0 0 0-10.84Zm0 7.86a2.45 2.45 0 1 1 0-4.9 2.45 2.45 0 0 1 0 4.9Z" fill="#022F45"/><path d="M17.27 12.86a2.45 2.45 0 1 1-4.9 0 2.45 2.45 0 0 1 4.9 0Z" fill="#fff"/><path d="M29.61 50.2c.001-.336.035-.671.1-1a4.428 4.428 0 0 0-.1 1Zm0 0c.001-.336.035-.671.1-1a4.428 4.428 0 0 0-.1 1Z" fill="#022F45"/><path d="m55.64 43.65-.7-3-17.82 4.11L30.91 18l-2.91.63 2.42 10.43H23.6l-2.88-5.74a7.32 7.32 0 0 0-6.6-4.08h-2.25a4.43 4.43 0 0 0-4.43 4.43v12.11a4.41 4.41 0 0 0 2.12 3.78l7.71 4.6v11.45h3V42.48l-2-1.17V25l3.5 7h9.35l3 12.77a5.41 5.41 0 1 0 5.86 5.4 5.33 5.33 0 0 0-.82-2.85l16-3.7.48.03ZM15.3 39.53 11.11 37a1.441 1.441 0 0 1-.7-1.24V23.67a1.47 1.47 0 0 1 1.46-1.47h2.25a4.54 4.54 0 0 1 1.18.16v17.17ZM29.61 50.2a4.434 4.434 0 0 1 .1-1c-.065.33-.099.664-.1 1Zm4.59-4.9h.32-.37.05ZM32 51.73c.132.213.29.408.47.58a2.22 2.22 0 0 1-.47-.58Zm2.52.92a2.45 2.45 0 1 1 .01 0h-.01Zm4-5.28c.027.03.05.064.07.1a.82.82 0 0 1 .09.16l-.16-.26Z" fill="#022F45"/><path d="M37 50.2a2.45 2.45 0 1 1-4.9 0 2.45 2.45 0 0 1 4.9 0ZM15.3 22.36v17.17L11.11 37a1.44 1.44 0 0 1-.7-1.24V23.67a1.47 1.47 0 0 1 1.46-1.47h2.25a4.54 4.54 0 0 1 1.18.16Z" fill="#fff"/></svg>