<svg width="64" height="64" fill="none" xmlns="http://www.w3.org/2000/svg"><g clip-path="url(#a)" stroke="#022F45" stroke-width=".5"><path d="M56.75 12.21v45H7.25v-45a5.41 5.41 0 0 1 5.36-5.46H51.4a5.41 5.41 0 0 1 5.35 5.46Z" fill="#fff"/><path d="M6.75 57v.25h49.5v-45a5.41 5.41 0 0 0-5.35-5.5H12.1a5.41 5.41 0 0 0-5.35 5.46V57Zm31.13-29.17v-8.08h15.83v34.92H9.29V19.75h15.83v8.33h12.76v-.25Zm-.26 18.5h-.24v2.59h10.7v-2.59H37.62Zm16.09-34.12v5H37.88V9.33h13a2.85 2.85 0 0 1 2.83 2.88Zm-26-2.88h7.66V25.5h-7.7l.04-16.17Zm-15.57 0h13v7.84H9.29v-5a2.85 2.85 0 0 1 2.81-2.84h.04Z" fill="#022F45"/></g><defs><clipPath id="a"><path fill="#fff" d="M0 0h64v64H0z"/></clipPath></defs></svg>