<svg width="56" height="52" fill="none" xmlns="http://www.w3.org/2000/svg"><g clip-path="url(#a)"><path d="M55.996 26.032v14.233a4.051 4.051 0 0 1-1.17 2.85 3.996 3.996 0 0 1-2.83 1.179h-1.369a7.408 7.408 0 0 1-2.358 4.779 7.308 7.308 0 0 1-4.939 1.933 7.3 7.3 0 0 1-4.943-1.93 7.4 7.4 0 0 1-2.358-4.782h-6.733a7.412 7.412 0 0 1-2.359 4.778A7.312 7.312 0 0 1 22 51.006a7.3 7.3 0 0 1-4.943-1.93 7.4 7.4 0 0 1-2.358-4.782h-4.032a3.973 3.973 0 0 1-2.83-1.179 4.028 4.028 0 0 1-1.171-2.85V28.182H1.332a1.325 1.325 0 0 1-1.232-.83 1.35 1.35 0 0 1 .722-1.755c.162-.067.335-.102.51-.102h5.333v-2.667H1.332a1.323 1.323 0 0 1-.943-.395 1.342 1.342 0 0 1-.389-.95c0-.357.14-.698.39-.95.25-.251.589-.392.942-.392h5.333v-2.684H1.332a1.332 1.332 0 0 1-.942-.395 1.35 1.35 0 0 1 0-1.899c.25-.252.589-.393.942-.393h5.333v-2.687H1.332c-.353 0-.692-.142-.942-.393a1.347 1.347 0 0 1 0-1.898c.25-.251.589-.393.942-.393h5.333V4.03a4.05 4.05 0 0 1 1.17-2.85A3.994 3.994 0 0 1 10.666 0h25.332c1.061 0 2.079.424 2.829 1.18a4.043 4.043 0 0 1 1.172 2.849v4.029h6.223a3.957 3.957 0 0 1 2.218.672 4 4 0 0 1 1.469 1.803l5.786 13.965c.197.487.3 1.008.302 1.534Z" fill="#fff"/><path d="M38.666 29.54H7.997c-.353 0-.692-.141-.942-.393a1.347 1.347 0 0 1-.39-.949V4.028a4.05 4.05 0 0 1 1.17-2.85A3.994 3.994 0 0 1 10.666 0h25.332a3.972 3.972 0 0 1 2.83 1.179 4.026 4.026 0 0 1 1.17 2.85v24.17a1.35 1.35 0 0 1-.39.948 1.331 1.331 0 0 1-.941.393ZM9.333 26.853H37.33V4.025c0-.356-.14-.698-.39-.95a1.332 1.332 0 0 0-.942-.396H10.666a1.332 1.332 0 0 0-.943.396 1.35 1.35 0 0 0-.39.95v22.828ZM37.37 44.31h-9.413c-.353 0-.692-.141-.942-.393a1.347 1.347 0 0 1 .942-2.294h9.413a1.328 1.328 0 0 1 .945.394 1.346 1.346 0 0 1 .29 1.466 1.34 1.34 0 0 1-.724.726 1.323 1.323 0 0 1-.51.101Z" fill="#022F45"/><path d="M51.996 44.31H49.29c-.353 0-.692-.141-.943-.393a1.35 1.35 0 0 1-.393-.948c.001-.357.142-.699.393-.95.25-.253.59-.395.944-.396h2.704c.353 0 .693-.141.943-.393a1.35 1.35 0 0 0 .393-.949v-14.25c0-.176-.033-.352-.1-.516l-5.786-13.96a1.338 1.338 0 0 0-1.22-.829h-6.228v17.457a1.35 1.35 0 0 1-.39.948 1.331 1.331 0 0 1-.942.393H9.326v10.741a1.35 1.35 0 0 0 .39.949 1.331 1.331 0 0 0 .942.393h5.372c.354.001.693.143.943.395a1.35 1.35 0 0 1 0 1.9c-.25.25-.59.392-.943.392h-5.372a3.973 3.973 0 0 1-2.83-1.179 4.026 4.026 0 0 1-1.17-2.85V28.183a1.35 1.35 0 0 1 .388-.952 1.332 1.332 0 0 1 .943-.394h29.333V9.384a1.35 1.35 0 0 1 .391-.95 1.332 1.332 0 0 1 .945-.392h7.556a3.957 3.957 0 0 1 2.214.674 4 4 0 0 1 1.468 1.801l5.786 13.965c.2.492.302 1.018.302 1.55v14.233a4.052 4.052 0 0 1-1.16 2.856 3.994 3.994 0 0 1-2.828 1.19Z" fill="#022F45"/><path d="M22 51.022a7.303 7.303 0 0 1-5.182-2.156 7.407 7.407 0 0 1-.004-10.435 7.307 7.307 0 0 1 5.185-2.163 7.311 7.311 0 0 1 5.184 2.165 7.415 7.415 0 0 1 2.15 5.22 7.42 7.42 0 0 1-2.156 5.21 7.315 7.315 0 0 1-5.178 2.16Zm0-12.082a4.64 4.64 0 0 0-3.306 1.381 4.706 4.706 0 0 0-1.364 3.332 4.72 4.72 0 0 0 1.368 3.325 4.653 4.653 0 0 0 3.301 1.377 4.652 4.652 0 0 0 3.299-1.378 4.719 4.719 0 0 0 1.366-3.324 4.728 4.728 0 0 0-1.36-3.332 4.664 4.664 0 0 0-3.305-1.381Zm21.33 12.082a7.307 7.307 0 0 1-5.18-2.157 7.411 7.411 0 0 1-2.153-5.212 7.415 7.415 0 0 1 2.15-5.22 7.311 7.311 0 0 1 10.38-.008 7.396 7.396 0 0 1 1.595 2.398c.37.897.56 1.86.561 2.83a7.42 7.42 0 0 1-2.163 5.217 7.315 7.315 0 0 1-5.19 2.152Zm0-12.082a4.635 4.635 0 0 0-3.304 1.381 4.701 4.701 0 0 0-1.36 3.332c0 1.247.49 2.442 1.366 3.324a4.652 4.652 0 0 0 3.298 1.378 4.653 4.653 0 0 0 3.302-1.377 4.719 4.719 0 0 0 1.367-3.325 4.73 4.73 0 0 0-1.363-3.332 4.668 4.668 0 0 0-3.306-1.381ZM27.996 16.112c-.206 0-.409-.048-.592-.14l-4.74-2.403-4.737 2.403a1.331 1.331 0 0 1-1.017.07 1.343 1.343 0 0 1-.773-.671 1.394 1.394 0 0 1-.139-.609V1.334c0-.356.14-.697.39-.949.25-.251.59-.393.942-.393h10.686a1.324 1.324 0 0 1 .945.392 1.343 1.343 0 0 1 .391.95v13.428a1.35 1.35 0 0 1-.389.955 1.33 1.33 0 0 1-.947.395h-.02Zm-5.333-5.37c.207-.001.411.047.597.14l3.404 1.714V2.683h-8.001v9.913l3.404-1.714c.185-.093.39-.14.596-.14Zm-14.666 1.34H1.332c-.353 0-.692-.14-.942-.392a1.347 1.347 0 0 1 0-1.897C.64 9.54.98 9.4 1.332 9.4h6.665c.354 0 .693.14.944.392.25.252.391.593.392.95a1.35 1.35 0 0 1-.392.948c-.25.252-.59.393-.944.393Zm0 5.371H1.332c-.353 0-.692-.14-.942-.392a1.346 1.346 0 0 1 0-1.898c.25-.251.589-.393.942-.393h6.665c.354 0 .693.141.944.393.25.251.391.593.392.949a1.35 1.35 0 0 1-.392.949c-.25.251-.59.392-.944.392Zm0 5.375H1.332a1.331 1.331 0 0 1-.942-.395 1.35 1.35 0 0 1 0-1.9c.25-.25.589-.392.942-.392h6.665c.354 0 .693.141.944.393.25.251.391.592.392.948a1.354 1.354 0 0 1-.392.95c-.25.253-.59.395-.944.396Zm0 5.37H1.332a1.323 1.323 0 0 1-.943-.394A1.341 1.341 0 0 1 0 26.853a1.35 1.35 0 0 1 .39-.949 1.33 1.33 0 0 1 .942-.393h6.665c.354 0 .693.142.944.393a1.35 1.35 0 0 1 .001 1.9c-.25.253-.59.395-.945.395Z" fill="#022F45"/></g><defs><clipPath id="a"><path fill="#fff" d="M0 0h56v51.022H0z"/></clipPath></defs></svg>