<svg width="80" height="80" viewBox="0 0 80 80" fill="none" xmlns="http://www.w3.org/2000/svg">
<circle cx="40" cy="40" r="39" fill="white" stroke="#022F45" stroke-width="2"/>
<g clip-path="url(#clip0_118_19607)">
<path d="M60.113 58.4529C60.11 58.5984 60.0496 58.7367 59.9449 58.8378C59.8402 58.9388 59.6999 58.9944 59.5544 58.9923H19.5471C19.402 58.9923 19.2628 58.9347 19.1602 58.8321C19.0576 58.7295 19 58.5903 19 58.4452C19 58.3001 19.0576 58.1609 19.1602 58.0583C19.2628 57.9557 19.402 57.8981 19.5471 57.8981H21.8588V46.725C21.8586 46.6222 21.8874 46.5213 21.9419 46.4341C21.9964 46.3469 22.0744 46.2768 22.167 46.2319L30.4351 42.1903V29.0754C30.4361 28.4868 30.6701 27.9226 31.0859 27.506C31.5018 27.0894 32.0657 26.8544 32.6543 26.8524H32.9432V23.2192C32.9442 22.6309 33.1784 22.0671 33.5943 21.6511C34.0103 21.2352 34.5742 21.001 35.1624 21H42.7254C43.3137 21.001 43.8776 21.2352 44.2935 21.6511C44.7095 22.0671 44.9436 22.6309 44.9446 23.2192V26.8524H45.2336C45.8222 26.8544 46.3861 27.0894 46.8019 27.506C47.2178 27.9226 47.4518 28.4868 47.4528 29.0754V30.6165L56.5377 34.9933C56.6321 35.038 56.7121 35.1082 56.7687 35.1961C56.8252 35.2839 56.8559 35.3859 56.8574 35.4903V57.9097H59.5544C59.6267 57.9086 59.6986 57.9219 59.7658 57.9486C59.8331 57.9754 59.8944 58.0151 59.9462 58.0656C59.9981 58.116 60.0396 58.1762 60.0682 58.2426C60.0968 58.3091 60.112 58.3806 60.113 58.4529Z" fill="#FFDD87"/>
<path d="M59.5546 57.9059H56.8577V35.4904C56.8565 35.3878 56.8272 35.2875 56.7728 35.2005C56.7184 35.1135 56.6411 35.0432 56.5494 34.9972L47.4646 30.6205V29.0793C47.4636 28.4907 47.2296 27.9265 46.8137 27.5099C46.3978 27.0933 45.834 26.8583 45.2454 26.8563H44.9564V23.2231C44.9554 22.6349 44.7213 22.071 44.3053 21.655C43.8893 21.2391 43.3255 21.0049 42.7372 21.0039H35.1626C34.5744 21.0049 34.0105 21.2391 33.5946 21.655C33.1786 22.071 32.9445 22.6349 32.9434 23.2231V26.8563H32.6545C32.0659 26.8583 31.502 27.0933 31.0862 27.5099C30.6703 27.9265 30.4363 28.4907 30.4353 29.0793V42.2019L22.1826 46.2396C22.0901 46.2845 22.0121 46.3546 21.9575 46.4419C21.903 46.5291 21.8742 46.6299 21.8744 46.7328V57.9059H19.5627C19.4176 57.9059 19.2785 57.9635 19.1759 58.0661C19.0733 58.1687 19.0156 58.3079 19.0156 58.453C19.0156 58.5981 19.0733 58.7372 19.1759 58.8398C19.2785 58.9424 19.4176 59.0001 19.5627 59.0001H59.5546C59.6997 59.0001 59.8389 58.9424 59.9415 58.8398C60.0441 58.7372 60.1017 58.5981 60.1017 58.453C60.1017 58.3079 60.0441 58.1687 59.9415 58.0661C59.8389 57.9635 59.6997 57.9059 59.5546 57.9059ZM30.4237 57.9059H22.9532V47.0718L30.4353 43.4156L30.4237 57.9059ZM34.0261 23.2308C34.0281 22.9331 34.1473 22.6481 34.3578 22.4375C34.5684 22.227 34.8533 22.1078 35.1511 22.1058H42.7141C43.0125 22.1058 43.2986 22.2243 43.5096 22.4353C43.7206 22.6463 43.8391 22.9324 43.8391 23.2308V26.864H34.0376L34.0261 23.2308ZM46.355 57.9059H31.5295V29.0755C31.5305 28.7771 31.6492 28.4911 31.8599 28.2797C32.0705 28.0684 32.3561 27.9486 32.6545 27.9466H45.2338C45.5316 27.9486 45.8165 28.0678 46.0271 28.2784C46.2376 28.4889 46.3568 28.7739 46.3588 29.0716L46.355 57.9059ZM55.7481 57.9059H47.453V31.8341L55.7519 35.8333L55.7481 57.9059Z" fill="#022F45"/>
<path d="M43.2306 48.9018H35.0665C34.994 48.9008 34.9221 48.9142 34.8548 48.9412C34.7875 48.9683 34.7263 49.0084 34.6747 49.0593C34.6231 49.1102 34.5821 49.1709 34.5541 49.2378C34.5261 49.3046 34.5117 49.3764 34.5117 49.4489V53.5753C34.5117 53.7204 34.5694 53.8595 34.672 53.9621C34.7746 54.0647 34.9137 54.1223 35.0588 54.1223H43.2229C43.368 54.1223 43.5071 54.0647 43.6097 53.9621C43.7123 53.8595 43.77 53.7204 43.77 53.5753V49.4489C43.77 49.3051 43.7134 49.1671 43.6125 49.0648C43.5115 48.9624 43.3743 48.9039 43.2306 48.9018ZM42.6835 53.0243H35.6136V49.9999H42.6835V53.0243ZM43.2306 40.7378H35.0665C34.9952 40.7362 34.9242 40.7488 34.8577 40.7747C34.7912 40.8006 34.7305 40.8393 34.679 40.8887C34.6275 40.9381 34.5862 40.9971 34.5575 41.0624C34.5288 41.1278 34.5132 41.1981 34.5117 41.2695V45.3919C34.5117 45.537 34.5694 45.6762 34.672 45.7788C34.7746 45.8814 34.9137 45.939 35.0588 45.939H43.2229C43.368 45.939 43.5071 45.8814 43.6097 45.7788C43.7123 45.6762 43.77 45.537 43.77 45.3919V41.2695C43.767 41.1281 43.7089 40.9934 43.6082 40.8941C43.5075 40.7948 43.372 40.7387 43.2306 40.7378ZM42.6835 44.8603H35.6136V41.832H42.6835V44.8603ZM43.2306 32.5699H35.0665C34.994 32.5689 34.9221 32.5823 34.8548 32.6093C34.7875 32.6363 34.7263 32.6765 34.6747 32.7274C34.6231 32.7783 34.5821 32.8389 34.5541 32.9058C34.5261 32.9727 34.5117 33.0445 34.5117 33.117V37.2394C34.5112 37.3114 34.525 37.3828 34.5523 37.4494C34.5796 37.516 34.6199 37.5765 34.6708 37.6274C34.7217 37.6784 34.7823 37.7186 34.8489 37.7459C34.9155 37.7733 34.9868 37.7871 35.0588 37.7866H43.2229C43.2949 37.7871 43.3662 37.7733 43.4328 37.7459C43.4995 37.7186 43.56 37.6784 43.6109 37.6274C43.6618 37.5765 43.7021 37.516 43.7294 37.4494C43.7567 37.3828 43.7705 37.3114 43.77 37.2394V33.117C43.77 32.9732 43.7134 32.8352 43.6125 32.7328C43.5115 32.6304 43.3743 32.5719 43.2306 32.5699ZM42.6835 36.6924H35.6136V33.6641H42.6835V36.6924Z" fill="#022F45"/>
</g>
<defs>
<clipPath id="clip0_118_19607">
<rect width="41.113" height="38" fill="white" transform="translate(19 21)"/>
</clipPath>
</defs>
</svg>
