<svg width="660" height="552" fill="none" xmlns="http://www.w3.org/2000/svg"><ellipse cx="215.368" cy="342.212" rx="215.368" ry="194.455" fill="#ECF1F5"/><ellipse cx="401.404" cy="194.455" rx="215.368" ry="194.455" fill="#ECF1F5"/><ellipse cx="444.631" cy="357.545" rx="215.368" ry="194.455" fill="#ECF1F5"/><g clip-path="url(#a)"><path d="M137.669 237.778c.901-.19 1.814-.326 2.732-.407h93.114c0 1.651.194 2.874.194 4.117v34.698c0 1.244 0 2.466.172 4.032h20.391l.559.6s.194.172.194.258c0 22.331.057 44.648.172 66.951 0 .686 0 1.372-.172 2.144a21.35 21.35 0 0 1-6.883.429h-14.197c-.107 1.566-.236 2.81-.236 4.032v46.922l-4.302.793v67.745c-2.753.75-32.049.943-36.717.279-.43-3.796-.129-7.699-.193-11.559-.065-3.86 0-7.635 0-11.452v-34.891l-.387-.236a1.092 1.092 0 0 0-.194.279c-.022.35-.022.701 0 1.051v55.864a1.16 1.16 0 0 1 0 .343s0 .215-.172.579c-.704.194-1.424.323-2.151.386h-8.604c-1.678 0-3.442-.407-4.904 1.072-.43.429-1.549.279-2.345.279h-40.029c-1.14 0-2.624.45-3.033-1.501 1.829-1.565 4.152-.15 6.13-1.201v-67.166a82.047 82.047 0 0 0-9.184-.193h-8.841c-.731-2.916-.946-47.35-.365-52.347 1.032-1.029 2.387-.622 3.613-.622h43.277v-66.972c-.989 0-1.871-.193-2.753-.193H141.67a35.872 35.872 0 0 1-3.786-.408l-.215-43.705Zm93.545 2.874c-.388-.215-.581-.407-.775-.407-.925 0-1.85-.108-2.775-.108l-86.597.15s-.193.108-.279.172a1.68 1.68 0 0 0-.28.279v38.129h56.914v-34.076a3.147 3.147 0 0 1 1.42-3.153c1.914.837 1.376 2.402 1.376 3.71v33.455a252.34 252.34 0 0 0 30.845-.258l.151-37.893ZM120.59 352.016c-.623 4.739-.451 44.519.151 46.943 5.549.557 66.873.321 69.433-.279.121-.302.201-.62.236-.944v-43.34a15.872 15.872 0 0 0-.15-1.715.425.425 0 0 0-.173-.279 2.369 2.369 0 0 0-.408-.386H120.59Zm72.982 0c-.71 6.562-.43 44.691.28 47.029 7.592.643 34.931.343 37.362-.408v-46.686l-37.642.065Zm11.938-65.343a45.309 45.309 0 0 0-15.401.236 23.01 23.01 0 0 0 .366 9.843 53.08 53.08 0 0 0 15.056-.257l-.021-9.822Zm-29.92 129.013v-9.822a93.85 93.85 0 0 0-19.896.193 55.919 55.919 0 0 0 .301 9.629h19.595Zm54.01-81.062h.323v-49.538h-.323v49.538Zm-22.133 80.654c3.558.718 7.232.637 10.755-.235a59.077 59.077 0 0 0-.323-9.672 64.954 64.954 0 0 0-10.453.364l.021 9.543Z" fill="#022F45"/><path d="M407.742 283.799c-1.613 6.434-3.291 12.867-4.861 19.43a13278.45 13278.45 0 0 0-10.217 42.675 9920.01 9920.01 0 0 0-11.099 46.622c-1.011 4.289-1.936 8.578-3.033 12.867a12.853 12.853 0 0 1-3.662 6.391 12.916 12.916 0 0 1-6.576 3.345c-2.323.579-4.775.75-7.313 1.136a26.793 26.793 0 0 0-1.055 3.946 4.777 4.777 0 0 0 .452 2.959 18.205 18.205 0 0 1 2.151 8.3 7.314 7.314 0 0 0 1.205 3.495 26.323 26.323 0 0 1 4.861 11.731 5.714 5.714 0 0 1 0 2.702c-1.269 2.723-1.57 5.747-2.603 8.578a9.752 9.752 0 0 1-2.924 3.837 9.798 9.798 0 0 1-4.411 1.974 27.3 27.3 0 0 1-15.723-.708 94.66 94.66 0 0 0-9.98-2.873 61.767 61.767 0 0 0-7.873-.643v10.979a4.453 4.453 0 0 1-4.151 1.566h-75.047c-2.301 0-5.011-.45-7.894-.729 0-22.603 0-45.035.581-67.316.068-.089.147-.168.237-.236a.852.852 0 0 1 .301-.172 4.344 4.344 0 0 1 1.011-.193h82.145c.465-.032.932-.032 1.397 0 .259.1.504.23.732.386 1.183 1.695.473 3.71.602 5.619.129 1.909 0 3.689 0 5.726a5.203 5.203 0 0 1 2.916 2.281 5.174 5.174 0 0 1 .655 3.638c-.129 3.216.258 6.433-1.248 9.714a12.544 12.544 0 0 0 5.743-2.144c.925-5.061.732-10.551 6.926-12.717l.215-2.573a8.507 8.507 0 0 0-.903-.815 23.642 23.642 0 0 1-8.604-7.313 14.055 14.055 0 0 1-2.387-10.079c2.301-14.883 4.99-29.702 8.388-44.391 3.592-15.612 7.163-31.224 10.97-46.772 4.668-19.022 9.529-38 14.411-56.979 2.259-8.685 4.776-17.306 7.206-26.163l-2.603-1.93 1.42-4.804a16.351 16.351 0 0 0-2.344-.3c-10.196.243-20.384.508-30.565.793-5.442.172-10.884.408-16.305.644-1.613 0-3.226.236-4.818.472a5.477 5.477 0 0 1-4.818-1.373 70.138 70.138 0 0 1-15.444-19c-5-9.508-8.814-19.591-11.357-30.023a5.257 5.257 0 0 0-.473-1.072 21.465 21.465 0 0 0-3.205-.987 9.73 9.73 0 0 1-5.033-2.852 4.736 4.736 0 0 1-1.613-4.675 4.72 4.72 0 0 0 0-1.973 6.282 6.282 0 0 1 .43-5.876c-2.689-4.889-2.603-6.026.839-10.358a8.41 8.41 0 0 1-.237-2.252c.172-1.222.194-2.916.99-3.538 2.71-2.144 2.344-4.954 1.935-7.613a168.487 168.487 0 0 1-.645-18.335v-4.718c1.442-.15 2.538-.386 3.657-.386h77.972c2.344.128 2.861.772 2.452 3.045a87.358 87.358 0 0 0-1.699 19.922c.215 5.169.946 10.315 1.484 15.484 0 .278.365.536.645.9 2.151-2.552 4.302-4.954 6.195-7.463a60.808 60.808 0 0 1 15.723-13.446 49.923 49.923 0 0 1 18.133-6.605 7.158 7.158 0 0 0 3.119-1.286 9.221 9.221 0 0 1 3.398-1.544c3.42-.772 3.786-1.094 3.979-4.504v-2.037c-5.872-3.946-7.829-9.565-7.765-16.191 0-7.377-.215-14.776 2.453-22.174-1.377-.644-2.474-1.18-3.592-1.652-2.022-.879-4.13-1.565-6.045-2.594-3.205-1.694-3.269-3.624-.365-5.726a29.418 29.418 0 0 1 14.626-4.868 30.638 30.638 0 0 1 3.442 0c.774-1.501 1.419-2.702 2.022-3.946a26.15 26.15 0 0 1 8.133-10.205 26.258 26.258 0 0 1 12.064-5.02 32.678 32.678 0 0 1 18.004 2.508 41.138 41.138 0 0 1 8.108 4.654 21.866 21.866 0 0 1 6.202 7.145 21.797 21.797 0 0 1 2.596 9.089 43.228 43.228 0 0 1-1.269 15.804 21.43 21.43 0 0 1-5.335 9.115 6.006 6.006 0 0 0-1.57 2.895 19.521 19.521 0 0 1-6.969 11.237 7.894 7.894 0 0 1-5.786 2.144 30.206 30.206 0 0 0-4.173 0 4.44 4.44 0 0 0-2.495.815 53.783 53.783 0 0 1-13.228 9.479v4.461a7.218 7.218 0 0 1 6.109 4.46c3.785.493 7.571.922 11.314 1.501a72.42 72.42 0 0 1 35.146 15.398c12.217 9.907 20.864 22.453 27.962 36.306a5.198 5.198 0 0 1-.946 6.627c-1.527 1.544-3.226 2.916-4.99 4.482.387.814.774 1.629 1.183 2.444a218.091 218.091 0 0 1 13.83 33.24 21.609 21.609 0 0 0 1.291 3.195 15.406 15.406 0 0 1 1.656 6.284 14.418 14.418 0 0 0 2.84 9.049c3.979-1.844 6.861-5.361 11.184-7.141.474 2.316.925 3.968 1.119 5.64.581 4.804 1.011 9.629 1.592 14.433.58 4.803 1.247 9.114 1.828 13.66.581 4.547 1.054 8.921 1.592 13.382.387 3.195.753 6.433 1.269 9.586a5.451 5.451 0 0 1-1.011 4.289 46.961 46.961 0 0 1-10.411 10.615 94.287 94.287 0 0 1-33.684 15.012c-7.163 1.801-14.411 3.238-21.638 4.717-2.474.515-5.055.579-7.572.923-1.333.193-2.645.514-4.151.814v7.463c.129 3.453.473 6.906.516 10.358 0 7.292-.258 14.604.237 21.853.774 11.087.279 22.174.624 33.261.15 4.846.473 9.672.537 14.518a11.72 11.72 0 0 1-1.455 6.519 11.763 11.763 0 0 1-4.782 4.675c-1.893 1.073-3.894 1.995-6.023 3.067v7.999a11.39 11.39 0 0 1 5.055 7.077 12.112 12.112 0 0 0 3.635 5.34 22.873 22.873 0 0 1 6.28 8.578 9.83 9.83 0 0 1 .818 4.289 27.258 27.258 0 0 0 0 5.768 8.128 8.128 0 0 1-.681 4.413 8.15 8.15 0 0 1-2.911 3.393 22.281 22.281 0 0 1-12.906 4.611c-3.699 0-7.399-.45-11.099-.429a25.242 25.242 0 0 0-6.818.901c-4.668 1.308-9.271 2.895-13.852 4.46a41.23 41.23 0 0 1-12.906 2.681 20.575 20.575 0 0 1-13.594-5.34 10.474 10.474 0 0 1-3.312-6.326 7.32 7.32 0 0 0-.56-2.316c-4.904-7.527.774-18.207 11.099-17.971 2.151 0 4.13.407 6.195.579a4.308 4.308 0 0 0 2.344-.408c-1.118-.557-2.28-1.05-3.355-1.694a14.513 14.513 0 0 1-2.818-1.994 3.983 3.983 0 0 1-.71-4.761 3.969 3.969 0 0 1 4.496-1.63c3.893.729 6.818 3.303 10.26 5.426a546.776 546.776 0 0 1-1.57-6.691 9.302 9.302 0 0 1-.323-2.037 3.061 3.061 0 0 1 2.151-3.453 3.726 3.726 0 0 1 3.958 2.145c.86 2.852 1.527 5.79 2.151 8.685a19.6 19.6 0 0 1 .215 2.873 9.099 9.099 0 0 0 4.99-3.281 29.414 29.414 0 0 1-.581-7.055c.28-2.874.947-5.147 3.7-6.433l-.882-4.354a42.497 42.497 0 0 1-17.702-7.87 10.514 10.514 0 0 1-4.302-7.892c-.531-7.463-1.026-14.94-1.485-22.431-.279-4.289-.537-8.75-.666-13.125-.301-8.771-.28-17.563-.796-26.313-.989-16.405-.323-32.81-.43-49.323 0-4.289.43-8.75.667-13.124l-.732.042Zm-76.251 109.155c-.731 2.938-1.613 5.683-.215 8.578a18.318 18.318 0 0 0 8.41 8.45 40.704 40.704 0 0 0 29.081 2.273 9.045 9.045 0 0 0 4.352-2.422 8.99 8.99 0 0 0 2.402-4.355c.903-3.324 1.613-6.712 2.43-10.057a20029.94 20029.94 0 0 1 10.755-43.963c3.076-12.652 6.087-25.348 9.206-37.979 2.926-11.859 5.98-23.589 8.948-35.534a38.453 38.453 0 0 0 1.42-7.077c.387-6.905.516-13.832.753-20.759a4.96 4.96 0 0 1 .215-1.694c.259-.428.595-.806.989-1.115 1.57.386 1.657 1.458 1.571 2.509 0 1.844-.452 3.667-.495 5.512-.28 9.221-.559 18.464-.732 27.706-.129 7.742-.172 15.505 0 23.247.173 18.249-.494 36.456.624 54.77.452 7.377.495 14.776.818 22.153.172 4.611.451 9.221.774 13.832.165 1.147.417 2.279.753 3.388a29.98 29.98 0 0 0 12.131 2.917c5.894.214 11.809.364 17.466-1.887.968-.386 2.151-.429 2.581.879 0 1.565-1.355 1.758-2.452 2.144a46.68 46.68 0 0 1-21.617 1.18c-2.689-.472-5.334-1.115-8.26-1.759.272 1.418.466 2.85.581 4.289a7.408 7.408 0 0 0 2.495 5.147 27.727 27.727 0 0 0 12.196 7.056 30.727 30.727 0 0 0 15.057 1.308 60.993 60.993 0 0 0 14.54-5.49 9.675 9.675 0 0 0 4.519-3.907 9.633 9.633 0 0 0 1.353-5.808c-.172-6.433-.452-12.674-.602-19.021-.258-11.431-.452-22.882-.71-34.312-.258-11.431.43-22.41-.796-33.562-2.645-1.501-2.602-1.522-2.753-4.503-.215-3.925-.452-7.828-.817-11.731-.581-6.433-1.334-12.867-1.915-19.3-.365-4.032-.495-8.064-.839-12.074s-.903-7.548-1.204-11.323a5.841 5.841 0 0 1 .688-4.825l5.313-.45V239.88c-4.302.365-8.475.858-12.605 1.008-2.882 0-5.764-.364-8.603-.386a96.1 96.1 0 0 1-14.476-1.372 187.979 187.979 0 0 1-43.428-12.996c-3.054-1.265-6.087-2.638-9.271-4.01-.412.8-.779 1.624-1.097 2.466-.817 3.002-1.57 6.026-2.366 9.028-4.947 18.486-10.044 36.928-14.777 55.457-3.656 14.282-6.754 28.693-10.26 43.019-4.302 17.156-7.592 34.612-10.754 52.025-.345 1.887-.495 3.817-.775 5.962 2.99 1.351 5.786 2.68 8.604 3.86a36.509 36.509 0 0 0 11.787 2.573c1.119 0 2.151.215 2.302 1.544-.774 1.823-2.409 1.437-3.635 1.201a110.694 110.694 0 0 1-11.422-2.723 75.24 75.24 0 0 1-8.238-3.582Zm126.713-237.91c2.602 2.252 2.624 4.782 3.355 7.034.731 2.251 1.613 4.696 2.452 7.162a54.964 54.964 0 0 1 19.853-10.508 36.68 36.68 0 0 1 12.024-1.158c1.42 0 2.474.515 2.151 2.402-4.001.365-8.002.601-11.959 1.158a34.803 34.803 0 0 0-11.314 4.289 32.831 32.831 0 0 0-9.787 6.927c.409 1.608.774 3.067 1.161 4.503.388 1.437.839 2.767 1.291 4.289 11.83-8.578 24.413-13.81 39.212-14.046-.731-1.415-1.226-2.573-1.85-3.646-1.721-2.873-3.484-5.726-5.227-8.578a83.116 83.116 0 0 0-19.81-22.088 66.278 66.278 0 0 0-24.994-12.352c-3.485-.858-6.969-1.652-10.518-2.145-3.054-.472-6.173-.557-9.185-.793a15.76 15.76 0 0 1-7.743 4.825 37.362 37.362 0 0 1-19.853.236 8.361 8.361 0 0 1-4.48-2.138 8.315 8.315 0 0 1-2.468-4.296c0-.279-.409-.472-.602-.707-1.097.235-2.151.407-3.119.664a49.566 49.566 0 0 0-16.154 6.97 80.222 80.222 0 0 0-15.68 14.583 36.25 36.25 0 0 0-3.635 5.061 4.74 4.74 0 0 0-.839 2.873c.301 2.145.968 4.289 1.463 6.434a61.293 61.293 0 0 1 20.971 13.96c2.151-7.891 2.624-15.826 4.904-23.696l2.28.986c-3.226 17.049-5.678 34.012-10.754 50.096 3.205 6.647 7.593 12.202 10.346 18.378-1.054 1.801-2.409 1.523-3.657 1.544h-11.83a3.427 3.427 0 0 0-3.571 2.144c-.322.751-.666 1.459-1.14 2.488l11.121 5.061a171.427 171.427 0 0 0 35.039 11.945 118.81 118.81 0 0 0 28.285 3.217c5.313-.129 10.754-.301 15.917-.858 2.184.144 4.36-.38 6.238-1.501-.237-.772-.409-1.459-.624-2.145a176.339 176.339 0 0 1-9.615-48.637 122.78 122.78 0 0 1 .645-22.131c.172-1.48.366-2.96.667-4.439.283-1.14.627-2.264 1.033-3.367Zm-72.337 54.899c-.409-.815-.731-1.651-1.183-2.423-2.323-4.011-4.689-7.978-7.012-11.967a183.49 183.49 0 0 1-14.562-31.76 131.97 131.97 0 0 1-7.12-31.953 106.484 106.484 0 0 1 .753-26.549 6.41 6.41 0 0 0-.15-1.651H278.32a21.286 21.286 0 0 0-.667 3.882c0 3.688.28 7.355.516 11.044.237 3.688.581 6.841.86 10.165 6.905 3.431 6.453 6.905 3.248 11.773.644 1.274.924 2.7.811 4.122a7.773 7.773 0 0 1-1.456 3.941c1.441 2.145 2.517 4.011 1.484 6.434a4.75 4.75 0 0 0 .129 2.723 174.208 174.208 0 0 0 7.443 25.177 74.106 74.106 0 0 0 17.702 27.428 7.228 7.228 0 0 0 3.413 2.252 7.256 7.256 0 0 0 4.094.043 9.818 9.818 0 0 1 2.409-.279c6.452-.236 12.712-.493 19.079-.686 9.378-.279 18.756-.472 28.134-.772 6.453-.193 12.906-.472 19.359-.73.34-.008.676-.081.989-.214Zm76.165 105.831c1.433.09 2.87.09 4.302 0 3.893-.472 7.808-.858 11.637-1.673 7.463-1.587 14.906-3.259 22.262-5.211a88.293 88.293 0 0 0 31.554-14.733 79.425 79.425 0 0 0 8.023-8.106 3.783 3.783 0 0 0 .99-3.195c-.323-3.195-.559-6.434-.968-9.629-.796-6.433-1.742-12.867-2.538-19.15-.796-6.284-1.463-12.867-2.151-19.301-.194-1.63-.624-3.238-1.011-5.147l-7.27 5.469c.774.922 1.376 1.608 1.936 2.316a17.756 17.756 0 0 1 3.377 5.983 4.961 4.961 0 0 1 .18 3.237 4.978 4.978 0 0 1-1.858 2.661 4.824 4.824 0 0 0-1.549 2.509 8.867 8.867 0 0 1-2.151 3.388 7.659 7.659 0 0 0-2.151 2.938 5.008 5.008 0 0 1-2.052 2.78 5.04 5.04 0 0 1-3.368.801 6.64 6.64 0 0 0-3.872 1.137 4.85 4.85 0 0 1-6.453-.472 7.917 7.917 0 0 1-3.097-5.597c-.172-1.458-.516-2.917-.817-4.697-3.162 2.488-6.088 3.024-8.604.258-6.647 1.758-12.906 3.924-19.359 4.975-6.453 1.051-13.077.986-19.788 1.415a5.226 5.226 0 0 0-.194 1.223c.301 4.289.609 8.656.925 13.103.172 2.53.344 5.061.602 7.57.603 6.069 1.269 12.137 1.893 18.206.258 2.402.495 4.804.688 7.227.344 3.067.538 6.155.796 9.715h.086ZM240.743 468.87c.389.143.793.244 1.204.3h50.827a9.945 9.945 0 0 0 1.377-.129s.172-.128.258-.214l.258-.236c.645-9.5.344-59.66-.387-62.191-5.378-.557-50.935-.343-53.537.301v62.169Zm222.838-213.592c8.152 1.394 26.457-3.131 31.748-6.091l7.614-12.674a21.418 21.418 0 0 0-3.42-5.94 23.325 23.325 0 0 1-1.85-6.541 1.91 1.91 0 0 0-.15-.3c-2.151-4.632-4.065-9.328-6.238-13.918-3.011-6.433-6.13-12.695-9.271-19a24.704 24.704 0 0 0-1.871-2.702c-1.73.087-3.453.273-5.162.558-2.161.35-4.375.174-6.453-.515a4.134 4.134 0 0 1-1.946-1.098 4.115 4.115 0 0 1-1.087-1.947c-.688-2.681-1.355-5.362-2.151-8.021-1.376-4.696-2.839-9.393-4.302-14.089-.236 5.726-1.505 11.259-.731 16.984.645 4.761.839 9.629 1.484 14.433a242.42 242.42 0 0 0 6.109 30.816c1.097 4.096 2.28 8.149 3.527 12.653l-5.872 1.522.022 15.87ZM321.876 406.572a141.058 141.058 0 0 0-24.047.172v62.19c8.006.63 16.052.566 24.047-.193v-62.169Zm93.717 45.034c-3.076-.321-5.829-.707-8.604-.879a20.787 20.787 0 0 0-8.604.686c-4.301 1.544-8.152 7.935-4.301 13.125a18.076 18.076 0 0 0 7.205 5.804 18.139 18.139 0 0 0 9.142 1.487 50.95 50.95 0 0 0 13.121-3.045 155.292 155.292 0 0 1 15.981-4.525 121.415 121.415 0 0 1 13.422-1.244 19.387 19.387 0 0 0 12.906-5.34 5.907 5.907 0 0 0 1.463-6.669 18.583 18.583 0 0 0-6.625-8.707c-9.163 3.474-18.069 5.04-27.361 1.48l-7.528 5.254 3.248 2.359c-3.42 2.488-4.667-.429-6.582-1.351l-3.678 1.115c.504.591.978 1.206 1.42 1.844.322.558.537 1.18.817 1.78-2.904.88-2.904.794-5.442-3.259v.085Zm31.275-363.213c.743.392 1.521.715 2.323.965 2.99.686 5.937.536 7.808-2.145a19.5 19.5 0 0 0 2.624-5.961 4.574 4.574 0 0 0-.105-2.581 4.59 4.59 0 0 0-1.486-2.116 4.314 4.314 0 0 0-4.905-.107 14.238 14.238 0 0 0-3.162 2.145 42.336 42.336 0 0 0-3.441 3.881c-1.269 1.501-2.366 3.131-3.721 4.546a2.865 2.865 0 0 1-3.549.43c-1.334-.751-.925-1.93-.474-3.046.689-1.715 1.377-3.431 1.958-5.19a3.895 3.895 0 0 0-.99-4.417 40.796 40.796 0 0 1-3.248-4.29c-6.818-1.693-13.056-5.532-18.906-8.727l-8.303 1.694c-.882.171-1.527.536-1.162 1.994h4.302c1.42 0 1.764.365 1.7 2.788h-7.765c-.366 2.81-.839 5.297-.968 7.784-.237 4.482-.409 8.986-.344 13.468.15 1.72.549 3.41 1.182 5.018 1.313 4.096 4.582 6.219 8.174 7.999a16.405 16.405 0 0 0 16.864-.793 50.454 50.454 0 0 0 10.754-8.578c1.549-1.78 3.098-3.174 4.84-4.847v.086Zm33.964 95.108c7.743 12.76 13.335 26.421 19.358 39.888h3.076c3.162-4.975 4.689-5.576 10.97-4.289l2.753-1.566a222.227 222.227 0 0 0-17.208-41.431c-9.356-1.373-15.788 1.179-18.949 7.313v.085ZM324.931 451.564c.399.167.818.282 1.247.343a77.66 77.66 0 0 1 21.897 2.702 19.418 19.418 0 0 0 14.734-1.823 5.348 5.348 0 0 0 2.455-2.375 5.316 5.316 0 0 0 .513-3.372 22.092 22.092 0 0 0-4.302-10.122c-2.688.15-5.076.407-7.485.386a33.695 33.695 0 0 1-5.463-.687 24.52 24.52 0 0 1-12.433-4.782 2.394 2.394 0 0 0-1.85-.708c-2.688.88-5.334 1.952-8.173 3.024l2.15 3.431-3.419.301.129 13.682ZM456.397 65.168c4.302-8.278 5.657-16.62 2.151-25.327a5.007 5.007 0 0 0-2.345-2.358 57.614 57.614 0 0 0-7.356-3.024 28.668 28.668 0 0 0-14.777-.815c-8.324 1.651-13.68 7.27-17.208 14.797-.067.376-.067.76 0 1.136a95.411 95.411 0 0 1 39.535 15.57v.02Zm67.518 188.18c2.388-2.145 2.56-2.853 1.269-5.083-1.011-1.737-2.71-3.088-3.033-5.125.947-1.008 1.699-1.115 2.474-.172l2.861 3.539c2.021-.515 2.15-1.523 1.376-2.702-1.527-2.445-3.033-4.911-4.753-7.206a18.72 18.72 0 0 1-4.56-9.114c0-.3-.366-.536-.839-1.158-.71.901-1.355 1.63-1.915 2.402-2.753 3.838-5.484 4.718-9.872 3.024-.99-.386-1.915-.794-3.012 0l1.872 5.061a97.37 97.37 0 0 0-7.464 12.502c3.097 2.595 4.947-.493 7.614-1.373a15.23 15.23 0 0 1 1.377 2.531c.58 1.737.946 3.538 1.462 5.318a14.708 14.708 0 0 0 1.162 3.217c.946 1.63 2.409 2.252 3.398 1.566 1.592-1.051.495-2.145 0-3.303-1.032-2.316-2.151-4.632-3.054-6.97-.559-1.329 0-2.144 1.721-2.509.516 1.137 1.075 2.145 1.57 3.346.731 1.694 1.312 3.452 2.151 5.082a3.525 3.525 0 0 0 3.807 1.845 2.486 2.486 0 0 0 2.151-2.788c-.456-.479-.88-.988-1.269-1.523-1.527-2.445-3.055-4.868-4.517-7.334-.731-1.222-.387-2.145 1.291-2.852 2.581 3.002 3.269 7.248 6.732 9.757v.022ZM453.88 67.484l.129-.793c-2.645-1.609-5.248-3.346-7.98-4.804a99.126 99.126 0 0 0-24.736-8.878 36.666 36.666 0 0 0-22.348 2.444 6.094 6.094 0 0 0-1.355 1.03 2.76 2.76 0 0 0 1.871 0 21.785 21.785 0 0 1 16.218 1.008c1.979.922 3.894 1.994 5.808 3.088 6.453 3.753 13.207 7.162 20.864 7.999a31.17 31.17 0 0 0 11.529-1.115v.021Zm13.357 392.765c-.86.514-1.57.858-2.151 1.308a19.816 19.816 0 0 1-8.969 3.495c-2.818.472-5.721.558-8.604.751a34.297 34.297 0 0 0-5.184.279c-4.732 1.093-9.378 2.445-14.067 3.688-4.689 1.244-9.959 2.895-15.056 4.011a19.983 19.983 0 0 1-15.595-2.788c-.452-.279-.925-.472-1.807-.901.139.469.326.921.56 1.351a15.694 15.694 0 0 0 5.038 3.878 15.756 15.756 0 0 0 6.168 1.569 28.468 28.468 0 0 0 11.594-1.608c4.818-1.63 9.614-3.281 14.476-4.783a30.039 30.039 0 0 1 11.314-1.179c2.624.193 5.291.579 7.915.515a20.845 20.845 0 0 0 12.239-4.289 4.725 4.725 0 0 0 1.967-2.301 4.704 4.704 0 0 0 .162-3.018v.022Zm-127.701-41.175c-2.388 1.137-2.151 3.239-2.883 4.826-1.484 3.495-.602 4.696 2.452 6.926a9.82 9.82 0 0 0 3.442 1.566 92.071 92.071 0 0 0 10.131 2.144c2.283.488 4.657.34 6.861-.429 0-3.259.517-6.433-1.462-9.607-3.076 2.788-6.453 2.445-10.067 1.587a12.558 12.558 0 0 1-5.054-2.538 12.504 12.504 0 0 1-3.42-4.496v.021Zm94.297 11.795a42.706 42.706 0 0 0-.903 5.833 4.796 4.796 0 0 0 .743 3.141 4.819 4.819 0 0 0 2.569 1.963c1.371.559 2.824.892 4.302.987 4.13 0 8.26-.365 12.368-.815a27.024 27.024 0 0 0 4.947-1.609 15.113 15.113 0 0 0-3.118-8.342 32.158 32.158 0 0 1-6.905 3.024 17.266 17.266 0 0 1-7.485-.493 34.134 34.134 0 0 1-6.518-3.71v.021Zm-70.078-275.268-.623.472c1.419 3.989 2.796 7.978 4.302 11.924a7.49 7.49 0 0 0 1.935 2.359 730.69 730.69 0 0 0 8.604 7.934c.559.515 1.183.965 2.151 1.759l2.151-10.423a51.616 51.616 0 0 0-18.52-14.046v.021Zm94.255-87.924c2.538 1.222 4.711 2.98 7.528 3.067 3.27-6.841 3.033-22.99-3.011-27.664 1.914 9.007-.237 17.048-4.517 24.597ZM325.017 455.252c.473 1.523.473 1.501 1.936 1.544a37.93 37.93 0 0 1 14.82 3.11c1.177.492 2.392.887 3.635 1.179a22.795 22.795 0 0 0 13.594-.322 6.455 6.455 0 0 0 3.079-1.874 6.424 6.424 0 0 0 1.588-3.229 26.593 26.593 0 0 1-3.893 1.351c-2.438.616-4.95.891-7.464.815-5.592-.687-11.142-1.888-16.691-2.896a38.84 38.84 0 0 0-10.604.322Zm127.099-33.711a37.867 37.867 0 0 1-15.874 2.723c.323 1.63.495 2.874.839 4.053a4.43 4.43 0 0 0 1.278 2.429 4.455 4.455 0 0 0 2.465 1.217c2.612.31 5.246.396 7.872.257 2.151-.193 3.291-1.801 3.399-4.139.107-2.337.021-4.117.021-6.54Zm-25.381-315.027a21.867 21.867 0 0 1-13.25-1.416 14.72 14.72 0 0 0-1.269 8.578 11.164 11.164 0 0 0 13.358-.128l1.161-7.034Zm2.28 6.734a10.922 10.922 0 0 1-6.732 4.996c-2.725.48-5.521.363-8.196-.343-3.204-.6-4.452-3.281-5.506-6.197a30.181 30.181 0 0 0-4.302 1.865 2.411 2.411 0 0 0-1.319 1.958 2.404 2.404 0 0 0 .997 2.138 9.68 9.68 0 0 0 4.947 2.359 43.306 43.306 0 0 0 12.776.665 19.152 19.152 0 0 0 9.099-3.045c1.118-.708 2.151-1.63 1.807-3.045-.517-1.78-2.087-1.48-3.55-1.351h-.021Zm-70.981 303.467-15.057-2.144a6.18 6.18 0 0 0 1.57 7.055 12.634 12.634 0 0 0 9.185 2.338 3.329 3.329 0 0 0 3.162-2.745c.365-1.544.839-2.959 1.226-4.504h-.086Zm147.705-191.074a4.989 4.989 0 0 0 4.647 4.61 5.146 5.146 0 0 0 2.951-1.577 5.116 5.116 0 0 0 1.35-3.055 5.008 5.008 0 0 0-1.425-3.223 5.044 5.044 0 0 0-3.199-1.495 4.322 4.322 0 0 0-3.171 1.435 4.273 4.273 0 0 0-1.066 3.305h-.087Zm-230.323-86.166c-2.388 2.423-2.667 4.117-1.097 6.004 1.57 1.888 3.205 1.845 5.7.279.452-4.139.129-4.568-4.603-6.283ZM406.28 441.849a12.876 12.876 0 0 0 2.15 1.737c2.367 1.158 4.776 2.273 7.228 3.217 1.309.43 2.656.739 4.022.922a31.669 31.669 0 0 0-10.303-6.991c-1.14-.601-2.173-.858-3.097 1.115Zm-125.121-304.24c.731-3.302.43-4.589-1.162-5.34a3.196 3.196 0 0 0-3.527.536 3.079 3.079 0 0 0-.603 3.517c.861 1.566 2.044 1.909 5.292 1.201v.086Zm96.212 51.918c2.151-6.304 3.119-6.026-2.323-9.972-1.635 1.973-1.657 1.973-.796 3.796.86 1.823 1.957 3.775 3.119 6.091v.085Zm-101.654-40.574c-1.979 1.952-2.151 3.282-.645 4.418a6.925 6.925 0 0 0 3.441 1.265c.774 0 1.613-.879 2.388-1.329-1.226-2.767-1.226-2.767-5.184-4.439v.085Zm4.667 8.578-5.57-.514c1.376 2.788 1.677 2.981 6.13 3.817l-.56-3.303Zm140.092 275.997c-.538 4.011 1.312 6.67 2.151 9.543a15.386 15.386 0 0 0-2.151-9.607v.064Z" fill="#022F45"/><path d="m455.644 110.181.279-2.681a77.457 77.457 0 0 1 45.644 29.637 2.801 2.801 0 0 1-.345.987c-.343.32-.726.594-1.14.815a78.27 78.27 0 0 0-44.438-28.758ZM274.017 224.268a19.508 19.508 0 0 1-.258 3.174c-2.387 8.878-4.84 17.735-7.27 26.613-1.183 4.289-2.323 8.578-3.528 12.867-.344 1.179-.839 2.295-1.29 3.581-1.85-.664-1.743-1.758-1.463-2.895a920.63 920.63 0 0 1 2.818-11.022c2.689-9.972 5.42-19.944 8.109-30.023.28-1.051.344-2.359 2.882-2.295ZM380.919 470.285a17.25 17.25 0 0 1-2.731.622c-1.743 0-3.464 0-5.206-.193a26.581 26.581 0 0 0-12.239 1.758 8.924 8.924 0 0 1-10.002-1.758 19.82 19.82 0 0 1-13.185 1.029c-1.592-.45-3.463-.643-4.431-2.616l1.226-1.308c5.808 3.217 11.594 2.552 17.466-.279 2.151 3.903 5.399 3.667 8.733 2.338a24.768 24.768 0 0 1 10.217-1.48c2.323 0 4.624 0 6.947.129 1.14.042 1.14.085 3.205 1.758ZM296.753 269.646c-.667 1.008-.925 1.823-1.462 2.144a5.71 5.71 0 0 1-2.366.343 77.401 77.401 0 0 0-26.651 5.662c-1.032.386-2.151 1.222-3.291 0 0-1.33 1.14-1.78 2.151-2.145a76.308 76.308 0 0 1 16.95-4.889c3.742-.601 7.55-.944 11.335-1.33 1.116-.042 2.233.03 3.334.215ZM264.338 288.045c.581-1.865 2.151-1.544 3.398-1.308a71.562 71.562 0 0 1 6.991 1.909 60.245 60.245 0 0 1 16.67 9.243 5.284 5.284 0 0 1-.366 1.179c-.15.279-.516.429-.817.665a4.374 4.374 0 0 1-.968-.343 70.038 70.038 0 0 0-15.508-8.299 49.89 49.89 0 0 0-6.346-1.609 4.97 4.97 0 0 1-3.054-1.437ZM496.813 118.03l-1.205 1.286c-.451-.214-.839-.278-1.032-.514-1.054-1.223-2.001-2.509-3.076-3.71a38.526 38.526 0 0 0-12.26-9.372c-1.162-.557-2.367-1.093-1.678-2.745 5.442.258 14.131 7.034 19.251 15.055Z" fill="#022F45"/><path d="M231.213 240.652v37.915a252.124 252.124 0 0 1-30.844.257V245.37c0-1.308.537-2.874-1.377-3.71a3.144 3.144 0 0 0-1.42 3.152v34.076h-56.914v-38.15a1.68 1.68 0 0 1 .28-.279s.172-.172.279-.172l86.598-.15c.925 0 1.85 0 2.775.107.043.022.236.193.623.408Zm-83.564 33.111a65.77 65.77 0 0 0 16.949 0v-9.05c-.473-.3-.774-.643-1.054-.643-4.861 0-9.722-.15-14.562 0a1.962 1.962 0 0 0-1.505 1.158c-.43 2.834-.372 5.72.172 8.535Zm75.606-22.474c.727-2.911.858-5.938.387-8.9-4.302-1.544-8.496-.558-12.691-.729-1.08.136-2.133.439-3.119.901v6.583a1.957 1.957 0 0 0 .563 1.584 1.966 1.966 0 0 0 1.588.561h13.272ZM120.59 352.016h69.132c.15.112.287.242.408.386a.427.427 0 0 1 .172.279c.081.568.132 1.141.151 1.715v43.341a3.576 3.576 0 0 1-.237.943c-2.559.601-63.883.836-69.432.279-.646-2.423-.818-42.204-.194-46.943Zm29.812 29.079h-18.778c-1.269 0-1.807.922-1.807 2.145v7.291c.077.841.229 1.673.452 2.488h18.219c1.183 0 2.151-.472 2.151-1.737a51.16 51.16 0 0 0-.237-10.187ZM193.572 351.951h37.641v46.622c-2.43.75-29.769 1.051-37.361.407-.71-2.337-.99-40.466-.28-47.029Zm26.091 12.653c.275-3.572.21-7.162-.194-10.723-4.925 0-9.507-.171-14.325.151a51.523 51.523 0 0 0-.215 8.578c0 1.951.516 2.444 2.517 2.487h10.066c.73-.079 1.45-.23 2.151-.45v-.043Z" fill="#FEB703"/><path d="M205.51 286.609v9.821a53.086 53.086 0 0 1-15.057.258 22.998 22.998 0 0 1-.365-9.844 45.304 45.304 0 0 1 15.422-.235Zm-1.205.686h-11.486c-.667.066-1.328.181-1.979.343-.18.986-.309 1.981-.387 2.981 0 6.047-.408 5.833 5.485 5.726 2.794.218 5.604.096 8.367-.365v-8.685ZM175.59 415.686h-19.595a55.919 55.919 0 0 1-.301-9.629 93.85 93.85 0 0 1 19.896-.193v9.822Zm-.753-9.007c-5.6-.598-11.238-.756-16.863-.472-.581.193-1.441.772-1.463 1.223 0 2.466-.71 4.996.624 7.677 5.807 0 11.637.279 17.509-.236.642-2.686.708-5.478.193-8.192ZM229.773 344.982c.131 0 .237-15.708.237-35.084 0-19.376-.106-35.084-.237-35.084s-.237 15.708-.237 35.084c0 19.376.106 35.084.237 35.084ZM207.467 415.364v-9.543a64.954 64.954 0 0 1 10.453-.364c.372 3.209.48 6.444.323 9.671-3.53.876-7.211.957-10.776.236Zm9.786-.429c.411-2.38.483-4.805.216-7.205 0-.536-.753-1.416-1.205-1.437a15.1 15.1 0 0 0-7.55.45 21.874 21.874 0 0 0 .172 8.192h8.367ZM331.491 392.954a75.172 75.172 0 0 0 8.044 3.41 110.179 110.179 0 0 0 11.422 2.723c1.226.236 2.861.622 3.635-1.201-.194-1.329-1.183-1.479-2.301-1.544a36.515 36.515 0 0 1-11.788-2.573c-2.882-1.179-5.678-2.509-8.603-3.86.279-2.145.43-4.075.774-5.962 3.248-17.413 6.646-34.805 10.755-52.025 3.506-14.326 6.603-28.737 10.26-43.019 4.732-18.528 9.829-36.971 14.777-55.457.796-3.002 1.548-6.026 2.366-9.028.318-.842.684-1.666 1.097-2.466 3.183 1.372 6.216 2.745 9.27 4.01a187.979 187.979 0 0 0 43.428 12.996 96.113 96.113 0 0 0 14.476 1.372c2.882 0 5.764.493 8.604.386 4.129-.15 8.238-.643 12.604-1.008v15.569l-5.313.451a5.84 5.84 0 0 0-.688 4.825c.301 3.774.86 7.527 1.205 11.323.344 3.796.473 8.042.838 12.073.581 6.434 1.334 12.867 1.915 19.301.365 3.903.602 7.806.817 11.73.151 2.981 0 3.003 2.753 4.504 1.226 11.151.538 22.367.796 33.561.258 11.194.452 22.882.71 34.312.151 6.433.43 12.674.602 19.022a9.619 9.619 0 0 1-1.353 5.808 9.673 9.673 0 0 1-4.519 3.906 60.993 60.993 0 0 1-14.54 5.49 30.716 30.716 0 0 1-15.057-1.308 27.73 27.73 0 0 1-12.196-7.055 7.424 7.424 0 0 1-2.495-5.147 39.452 39.452 0 0 0-.581-4.289c2.926.643 5.571 1.287 8.26 1.758a46.68 46.68 0 0 0 21.617-1.179c1.097-.322 2.345-.515 2.452-2.145-.473-1.308-1.613-1.265-2.581-.879-5.657 2.252-11.572 2.145-17.466 1.887a29.996 29.996 0 0 1-12.131-2.916 22.967 22.967 0 0 1-.753-3.389c-.322-4.61-.602-9.221-.774-13.832-.323-7.377-.366-14.775-.818-22.152-1.118-18.25-.451-36.457-.623-54.771V282.92c.172-9.243.451-18.486.731-27.707 0-1.844.387-3.667.495-5.511 0-1.051 0-2.145-1.571-2.509a4.15 4.15 0 0 0-.989 1.115 4.956 4.956 0 0 0-.215 1.694c-.237 6.927-.366 13.853-.753 20.759a38.507 38.507 0 0 1-1.419 7.076c-2.969 11.86-6.023 23.59-8.948 35.535-3.119 12.631-6.131 25.326-9.207 37.979-3.57 14.654-7.155 29.308-10.754 43.962-.818 3.346-1.528 6.734-2.431 10.058a8.998 8.998 0 0 1-2.401 4.354 9.037 9.037 0 0 1-4.353 2.422 40.694 40.694 0 0 1-29.081-2.273 18.32 18.32 0 0 1-8.41-8.449c-1.14-2.788-.323-5.533.409-8.471Z" fill="#fff"/><path d="M458.203 155.044a32.312 32.312 0 0 0-1.097 3.324c-.301 1.479-.494 2.959-.666 4.439a122.867 122.867 0 0 0-.646 22.131 176.339 176.339 0 0 0 9.615 48.637c.215.643.387 1.33.624 2.145a10.787 10.787 0 0 1-6.238 1.501c-5.27.557-10.604.729-15.917.858a118.863 118.863 0 0 1-28.178-3.217 171.447 171.447 0 0 1-35.039-11.945l-11.12-5.061c.473-1.029.817-1.737 1.14-2.488a3.416 3.416 0 0 1 3.571-2.144h11.83c1.247 0 2.603.257 3.657-1.544-2.754-6.176-7.142-11.731-10.347-18.379 5.055-16.083 7.507-33.046 10.755-50.095l-2.28-.987c-2.28 7.871-2.774 15.805-4.904 23.697a61.273 61.273 0 0 0-20.972-13.96c-.494-2.145-1.161-4.289-1.462-6.434a4.748 4.748 0 0 1 .838-2.874 36.458 36.458 0 0 1 3.636-5.061 80.22 80.22 0 0 1 15.68-14.582 49.556 49.556 0 0 1 16.154-6.97c.989-.257 2.022-.429 3.119-.665.193.236.537.429.602.708a8.308 8.308 0 0 0 2.468 4.296 8.358 8.358 0 0 0 4.48 2.138 37.372 37.372 0 0 0 19.853-.236 15.76 15.76 0 0 0 7.743-4.825c3.011.235 6.13.321 9.185.793 3.549.536 7.033 1.33 10.518 2.145a66.263 66.263 0 0 1 24.994 12.352 83.133 83.133 0 0 1 19.81 22.088c1.742 2.852 3.506 5.705 5.227 8.578.624 1.072 1.118 2.145 1.85 3.646-14.799.236-27.382 5.511-39.212 14.046-.452-1.479-.904-2.852-1.291-4.289-.387-1.437-.752-2.895-1.161-4.503a32.819 32.819 0 0 1 9.787-6.927 34.803 34.803 0 0 1 11.314-4.289c3.957-.557 7.958-.793 11.959-1.158.301-1.887-.753-2.359-2.151-2.402a36.677 36.677 0 0 0-12.024 1.158 54.956 54.956 0 0 0-19.853 10.508c-.839-2.466-1.678-4.803-2.452-7.162-.775-2.359-.796-4.74-3.399-6.991Zm-27.166-29.53-3.399 1.608a24.068 24.068 0 0 1-23.531-.686c-.387-.236-.796-.686-1.162-.665a9.083 9.083 0 0 0-2.151.644 11.851 11.851 0 0 0 5.679 3.988 28.326 28.326 0 0 0 13.185 1.716 28.75 28.75 0 0 0 11.637-4.032c.366-.214.559-.686 1.183-1.479l-1.441-1.094Z" fill="#FEB703"/><path d="M385.866 209.943a2.69 2.69 0 0 1-.796.3c-6.452.257-12.905.536-19.358.729-9.378.3-18.756.493-28.134.772-6.453.193-12.734.451-19.079.686a9.915 9.915 0 0 0-2.409.279 7.247 7.247 0 0 1-7.507-2.294 74.125 74.125 0 0 1-17.703-27.429 174.355 174.355 0 0 1-7.442-25.176 4.751 4.751 0 0 1-.129-2.723c1.032-2.51 0-4.461-1.484-6.434a7.773 7.773 0 0 0 1.456-3.941 7.772 7.772 0 0 0-.811-4.122c3.248-4.868 3.657-8.342-3.248-11.774-.279-3.324-.623-6.733-.86-10.164-.237-3.432-.452-7.356-.516-11.045.102-1.311.325-2.61.666-3.881h78.145c.121.541.171 1.097.15 1.651a106.484 106.484 0 0 0-.753 26.549 131.97 131.97 0 0 0 7.12 31.953 183.558 183.558 0 0 0 14.562 31.76c2.323 3.989 4.689 7.956 7.012 11.966.301.687.624 1.523 1.118 2.338ZM461.946 315.774c-.258-3.56-.452-6.648-.71-9.736a263.03 263.03 0 0 0-.688-7.227c-.624-6.069-1.291-12.138-1.893-18.207-.258-2.509-.43-5.04-.602-7.57-.316-4.375-.624-8.743-.925-13.103.016-.414.08-.824.193-1.222 6.711-.429 13.358-.365 19.789-1.416 6.432-1.051 12.734-3.216 19.359-4.975 2.452 2.766 5.377 2.145 8.604-.257.301 1.78.645 3.238.817 4.696a7.917 7.917 0 0 0 3.097 5.597 4.85 4.85 0 0 0 6.453.472 6.64 6.64 0 0 1 3.872-1.136 5.046 5.046 0 0 0 3.138-.882 5.017 5.017 0 0 0 1.938-2.614 7.666 7.666 0 0 1 2.151-2.938 8.867 8.867 0 0 0 2.151-3.388 4.821 4.821 0 0 1 1.549-2.509 4.961 4.961 0 0 0 1.677-5.898 17.722 17.722 0 0 0-3.377-5.983c-.559-.708-1.161-1.394-1.935-2.316l7.27-5.468c.387 1.908.817 3.517 1.011 5.146.796 6.434 1.462 12.867 2.151 19.301.688 6.433 1.742 12.76 2.538 19.15.408 3.217.645 6.434.968 9.629a3.788 3.788 0 0 1-.99 3.195 79.435 79.435 0 0 1-8.023 8.107 88.322 88.322 0 0 1-31.447 14.668c-7.356 1.951-14.798 3.624-22.262 5.211-3.829.815-7.743 1.201-11.637 1.673a34.424 34.424 0 0 1-4.237 0Z" fill="#fff"/><path d="M240.742 468.87v-62.191c2.603-.643 48.16-.858 53.537-.3.732 2.638 1.033 52.797.387 62.19l-.258.236s-.172.193-.258.215a10.07 10.07 0 0 1-1.376.128h-50.827a5.652 5.652 0 0 1-1.205-.278Zm19.165-60.776a18.583 18.583 0 0 0 0 9.093h14.347a1.704 1.704 0 0 0 1.635-1.095c.083-.218.119-.452.107-.685v-5.189a1.918 1.918 0 0 0-.553-1.593 1.945 1.945 0 0 0-1.598-.552c-4.495 0-8.991.021-13.938.021ZM321.876 406.486v62.19c-7.995.759-16.042.824-24.048.193v-62.19a141.071 141.071 0 0 1 24.048-.193Zm-4.001 10.722v-7.591a1.918 1.918 0 0 0-.553-1.593 1.948 1.948 0 0 0-1.598-.552h-11.83c-1.011 0-1.958.429-2.001 1.523a34.633 34.633 0 0 0 .173 8.171l15.809.042Z" fill="#FEB703"/><path d="M415.593 451.521c2.473 4.053 2.603 4.138 5.334 3.173-.279-.6-.494-1.222-.817-1.78a22.99 22.99 0 0 0-1.42-1.844l3.678-1.115c1.915.922 3.162 3.839 6.582 1.351l-3.247-2.359 7.528-5.254c9.292 3.56 18.197 1.994 27.36-1.48a18.583 18.583 0 0 1 6.625 8.707 5.9 5.9 0 0 1-1.463 6.669 19.387 19.387 0 0 1-12.906 5.34 121.42 121.42 0 0 0-13.421 1.244 155.238 155.238 0 0 0-15.982 4.525 50.95 50.95 0 0 1-13.121 3.045 18.139 18.139 0 0 1-9.142-1.487 18.09 18.09 0 0 1-7.205-5.804c-3.786-5.19.129-11.58 4.302-13.125a20.785 20.785 0 0 1 8.604-.686c2.882.172 5.635.558 8.711.88ZM446.868 88.307c-1.742 1.672-3.291 3.066-4.71 4.589a50.451 50.451 0 0 1-10.755 8.578 16.406 16.406 0 0 1-16.864.793c-3.592-1.78-6.861-3.902-8.173-7.998a17.92 17.92 0 0 1-1.183-5.019c0-4.482 0-8.985.344-13.467.129-2.488.602-4.975.968-7.785h7.765c0-2.423 0-2.637-1.7-2.788-1.699-.15-2.968 0-4.301 0-.366-1.458.279-1.822 1.161-1.994l8.303-1.694c5.85 3.195 12.088 7.034 18.906 8.728a40.806 40.806 0 0 0 3.248 4.29 3.899 3.899 0 0 1 .99 4.417c-.581 1.758-1.269 3.474-1.957 5.19-.452 1.115-.861 2.294.473 3.045a2.867 2.867 0 0 0 3.549-.43c1.355-1.415 2.452-3.044 3.721-4.546a42.323 42.323 0 0 1 3.441-3.881 14.235 14.235 0 0 1 3.162-2.145 4.312 4.312 0 0 1 4.905.108 4.59 4.59 0 0 1 1.486 2.115c.282.833.319 1.728.105 2.581a19.5 19.5 0 0 1-2.624 5.962c-1.871 2.745-4.818 2.895-7.808 2.144a13.778 13.778 0 0 1-2.452-.793ZM420.82 70.529l-.839-.6c-.581.45-1.484.771-1.656 1.329a29.21 29.21 0 0 1-3.979 7.978 3.507 3.507 0 0 0 0 4.288 5.089 5.089 0 0 0 1.99 1.841 5.11 5.11 0 0 0 2.656.561 8.788 8.788 0 0 0 1.635-.536l-4.517-3.624c2.022-3.774 4.753-6.991 4.71-11.237Zm14.519 2.466a12.909 12.909 0 0 0-9.636-4.46c-.925 0-1.893 0-1.85 1.33 0 .17 0 .342.172.385 2.947 1.437 6.453 1.651 9.141 3.71.194.257 1.033-.364 2.173-.965Zm-11.723 10.1c3.076.13 3.506-.192 3.657-2.701.075-.806.075-1.618 0-2.424a1.844 1.844 0 0 0-1.871-1.694 1.856 1.856 0 0 0-1.346.249c-.4.251-.688.646-.805 1.102a5.32 5.32 0 0 0 .322 5.554l.043-.085Zm-11.615-7.226a7.635 7.635 0 0 0-.387-1.973 1.975 1.975 0 0 0-1.604-1.174 1.983 1.983 0 0 0-1.816.81 5.37 5.37 0 0 0-.667 4.588c.409 1.094 1.14 1.952 2.302 1.587a3.799 3.799 0 0 0 1.806-1.78 5.48 5.48 0 0 0 .323-1.973l.043-.085Zm7.464 18.12c1.635 1.845 2.28 1.802 5.033 0 3.27-2.144 3.7-2.894 2.689-5.189-2.151-.236-2.151 2.145-3.635 2.788a34.426 34.426 0 0 0-4.13 2.488l.043-.086Zm31.447-9.392c.753.322 1.333.793 1.699.686a4.3 4.3 0 0 0 1.957-1.222c1.14-1.394.71-2.767-1.075-4.14-1.076.451-1.011 1.159-.925 2.145-.021.794-.925 1.523-1.699 2.617l.043-.086ZM480.831 183.415c3.162-6.133 9.593-8.685 18.821-7.398a222.205 222.205 0 0 1 17.207 41.432l-2.753 1.565c-6.281-1.287-7.808-.686-10.97 4.289h-3.076c-5.893-13.467-11.486-27.128-19.229-39.888ZM324.931 451.542v-13.596l3.42-.3-2.151-3.432c2.839-1.072 5.485-2.144 8.173-3.023a2.383 2.383 0 0 1 1.872.622 24.525 24.525 0 0 0 12.432 4.782c1.799.377 3.627.607 5.463.686 2.41 0 4.797-.236 7.486-.386a22.107 22.107 0 0 1 4.302 10.122 5.328 5.328 0 0 1-.513 3.372 5.345 5.345 0 0 1-2.456 2.375 19.41 19.41 0 0 1-14.734 1.823 77.657 77.657 0 0 0-21.896-2.702 5.057 5.057 0 0 1-1.398-.343ZM456.396 65.146a95.407 95.407 0 0 0-39.513-15.59 3.239 3.239 0 0 1 0-1.137c3.463-7.527 8.819-13.146 17.208-14.797a28.669 28.669 0 0 1 14.777.815 57.6 57.6 0 0 1 7.356 3.024 5.003 5.003 0 0 1 2.345 2.359c3.484 8.706 2.194 17.048-2.173 25.326ZM446.05 44.237a5.693 5.693 0 0 0-1.592-4.448 5.733 5.733 0 0 0-4.409-1.727 7.753 7.753 0 0 0-5.072 2.356 7.707 7.707 0 0 0-2.155 5.149c.107 3.174 3.226 6.584 6.173 6.434a7.734 7.734 0 0 0 5.084-2.488 7.686 7.686 0 0 0 2.014-5.276h-.043ZM523.915 253.326c-3.463-2.509-4.152-6.755-6.647-9.715-1.678.687-2.022 1.63-1.29 2.853 1.462 2.466 2.989 4.889 4.517 7.334.388.535.812 1.043 1.269 1.522a2.486 2.486 0 0 1-2.151 2.788 3.525 3.525 0 0 1-3.807-1.844c-.861-1.63-1.441-3.388-2.151-5.083-.495-1.115-1.054-2.144-1.57-3.345-1.829.322-2.281 1.18-1.721 2.509.989 2.338 2.022 4.654 3.054 6.97.495 1.093 1.592 2.251 0 3.302-.989.687-2.452 0-3.399-1.565a14.724 14.724 0 0 1-1.161-3.217c-.516-1.78-.882-3.581-1.463-5.318a15.112 15.112 0 0 0-1.376-2.531c-2.667.879-4.517 3.967-7.615 1.373a97.45 97.45 0 0 1 7.464-12.503l-1.871-5.061c1.097-.858 2.022-.45 3.011 0 4.302 1.694 7.12.815 9.873-3.024.559-.772 1.205-1.501 1.915-2.401.473.622.795.857.838 1.158a18.728 18.728 0 0 0 4.56 9.114c1.721 2.294 3.227 4.761 4.754 7.205.753 1.18.645 2.145-1.377 2.702l-2.86-3.538c-.775-.944-1.528-.836-2.474.171.323 2.038 2.022 3.389 3.033 5.126 1.204 2.166 1.032 2.916-1.355 5.018Z" fill="#fff"/><path d="M453.879 67.462a31.168 31.168 0 0 1-11.529 1.073c-7.657-.837-14.325-4.29-20.864-8-1.914-1.093-3.829-2.144-5.808-3.087a21.784 21.784 0 0 0-16.218-1.008 2.76 2.76 0 0 1-1.871 0 6.094 6.094 0 0 1 1.355-1.03 36.665 36.665 0 0 1 22.348-2.444 99.126 99.126 0 0 1 24.736 8.878c2.732 1.458 5.335 3.195 7.98 4.803l-.129.815ZM467.237 460.227a4.706 4.706 0 0 1-.187 2.998 4.724 4.724 0 0 1-1.964 2.278 20.852 20.852 0 0 1-12.239 4.289c-2.624 0-5.291-.322-7.916-.515a30.04 30.04 0 0 0-11.314 1.179c-4.861 1.501-9.657 3.153-14.475 4.783a28.468 28.468 0 0 1-11.594 1.608 15.752 15.752 0 0 1-11.207-5.447 7.047 7.047 0 0 1-.559-1.351c.882.429 1.355.622 1.807.901a19.971 19.971 0 0 0 15.594 2.787c5.077-1.115 10.045-2.659 15.057-4.01 5.012-1.351 9.335-2.595 14.067-3.688a34.297 34.297 0 0 1 5.184-.279c2.882-.193 5.786-.279 8.604-.751a19.816 19.816 0 0 0 8.969-3.495c.602-.365 1.312-.772 2.173-1.287ZM339.536 419.053a12.502 12.502 0 0 0 3.442 4.423 12.545 12.545 0 0 0 5.033 2.482c3.527.858 6.99 1.201 10.066-1.587 1.979 3.131 1.527 6.434 1.463 9.607a12.748 12.748 0 0 1-6.862.429 92.071 92.071 0 0 1-10.131-2.144 9.806 9.806 0 0 1-3.441-1.566c-3.055-2.144-3.937-3.431-2.452-6.926.666-1.48.494-3.582 2.882-4.718ZM433.833 430.848a34.12 34.12 0 0 0 6.452 3.688c2.429.711 4.985.88 7.486.493a32.098 32.098 0 0 0 6.904-3.023 15.111 15.111 0 0 1 3.119 8.342 27.098 27.098 0 0 1-4.947 1.608 148.63 148.63 0 0 1-12.368.815 13.725 13.725 0 0 1-4.302-.986 4.82 4.82 0 0 1-2.569-1.963 4.791 4.791 0 0 1-.743-3.141 42.6 42.6 0 0 1 .968-5.833ZM363.755 155.58a51.614 51.614 0 0 1 18.541 14.025l-2.151 10.422c-.968-.793-1.592-1.244-2.151-1.758a1109.273 1109.273 0 0 1-8.604-7.935 7.493 7.493 0 0 1-1.936-2.359c-1.505-3.946-2.882-7.935-4.302-11.923l.603-.472ZM458.01 67.677c4.302-7.656 6.453-15.59 4.517-24.598 6.044 4.675 6.281 20.823 3.011 27.664-2.818-.085-4.99-1.844-7.528-3.066ZM325.017 455.252a38.84 38.84 0 0 1 10.604-.322c5.549 1.008 11.099 2.145 16.691 2.895a27.086 27.086 0 0 0 7.464-.815c1.331-.349 2.633-.8 3.893-1.351a6.423 6.423 0 0 1-1.588 3.23 6.455 6.455 0 0 1-3.079 1.874 22.795 22.795 0 0 1-13.594.322 23.257 23.257 0 0 1-3.635-1.179 37.93 37.93 0 0 0-14.82-3.11c-1.463.064-1.463.064-1.936-1.544Z" fill="#fff"/><path d="M452.116 421.541v6.433c0 1.952-1.205 3.946-3.399 4.139-2.626.139-5.26.053-7.872-.257a4.455 4.455 0 0 1-2.465-1.217 4.437 4.437 0 0 1-1.278-2.429c-.344-1.18-.516-2.423-.838-4.053a37.89 37.89 0 0 0 15.852-2.616ZM426.735 106.514l-1.162 7.034a11.165 11.165 0 0 1-13.357.128 14.719 14.719 0 0 1 1.269-8.578 21.865 21.865 0 0 0 13.25 1.416Z" fill="#fff"/><path d="M429.036 113.247c1.463-.128 3.033-.429 3.506 1.351.366 1.416-.688 2.338-1.806 3.046a19.178 19.178 0 0 1-9.099 3.045 43.315 43.315 0 0 1-12.777-.665 9.695 9.695 0 0 1-4.947-2.359 2.396 2.396 0 0 1-.594-3.29c.231-.343.547-.62.917-.806a30.3 30.3 0 0 1 4.302-1.866c1.054 2.917 2.301 5.598 5.506 6.198 2.675.706 5.471.823 8.196.343a10.95 10.95 0 0 0 3.902-1.817 10.893 10.893 0 0 0 2.894-3.18ZM358.119 416.715c-.387 1.437-.86 2.96-1.204 4.525a3.326 3.326 0 0 1-3.162 2.745 12.634 12.634 0 0 1-9.185-2.337 6.182 6.182 0 0 1-1.57-7.056l15.121 2.123ZM505.826 225.641a4.273 4.273 0 0 1 1.088-3.329 4.3 4.3 0 0 1 3.213-1.411 5.047 5.047 0 0 1 3.2 1.495 5.01 5.01 0 0 1 1.425 3.223 5.12 5.12 0 0 1-1.351 3.055 5.14 5.14 0 0 1-2.951 1.577 4.997 4.997 0 0 1-3.175-1.445 4.966 4.966 0 0 1-1.449-3.165ZM275.416 139.475c4.732 1.629 5.054 2.144 4.603 6.283-2.495 1.565-4.302 1.48-5.7-.279-1.399-1.758-1.291-3.495 1.097-6.004ZM406.279 441.849c.925-1.887 1.958-1.63 3.119-1.115a31.653 31.653 0 0 1 10.303 6.991 22.437 22.437 0 0 1-4.022-.922c-2.452-.944-4.861-2.145-7.227-3.217a12.902 12.902 0 0 1-2.173-1.737ZM281.159 137.523c-3.248.708-4.431.365-5.291-1.287a3.078 3.078 0 0 1 .602-3.517 3.192 3.192 0 0 1 3.528-.536c1.591.858 1.892 2.038 1.161 5.34ZM377.371 189.441c-1.162-2.316-2.151-4.289-3.119-6.176-.968-1.887-.839-1.823.796-3.796 5.442 3.946 4.366 3.668 2.323 9.972ZM275.716 148.867c3.958 1.673 3.958 1.673 5.184 4.289-.774.451-1.613 1.373-2.387 1.33a6.944 6.944 0 0 1-3.442-1.265c-1.613-1.072-1.333-2.402.645-4.354ZM280.47 157.467l.56 3.302c-4.453-.836-4.754-1.029-6.131-3.817l5.571.515ZM420.475 433.464a15.378 15.378 0 0 1 2.151 9.543c-.839-2.874-2.688-5.447-2.151-9.543Z" fill="#fff"/><path d="M147.649 273.763a25.165 25.165 0 0 1-.172-8.707 1.959 1.959 0 0 1 1.506-1.158h14.562c.28 0 .581.344 1.054.644v9.05a65.826 65.826 0 0 1-16.95.171Zm14.691-1.973c0-.943.151-1.715.151-2.487s0-1.566-.129-2.295a38.8 38.8 0 0 0-12.045 0v4.696l12.023.086ZM223.255 251.289h-13.271a1.97 1.97 0 0 1-1.588-.561 1.942 1.942 0 0 1-.563-1.584v-6.583a10.448 10.448 0 0 1 3.119-.901c4.302.171 8.475-.815 12.69.729.472 2.962.34 5.989-.387 8.9Zm-2.344-6.713a72.318 72.318 0 0 0-10.325 0l.215 3.775c3.366.246 6.745.246 10.11 0v-3.775ZM150.402 381.095c.43 3.364.523 6.762.28 10.144 0 1.265-1.011 1.737-2.151 1.737h-18.219a14.306 14.306 0 0 1-.452-2.488v-7.291c0-1.18.538-2.145 1.807-2.145 6.066.022 12.175.043 18.735.043Zm-2.646 2.852H132.85v6.434c4.956.514 9.951.514 14.906 0v-6.434ZM219.663 364.647c-.699.235-1.419.4-2.151.493h-10.066c-2 0-2.495-.536-2.517-2.488a51.528 51.528 0 0 1 .215-8.578c4.818-.321 9.4 0 14.326-.15.403 3.56.468 7.151.193 10.723Zm-12.325-2.316c3.293.113 6.59.027 9.873-.258v-5.254c-3.398 0-6.453-.193-9.873 0v5.512ZM204.305 287.295v8.728a34.535 34.535 0 0 1-8.368.365c-5.893 0-5.527.321-5.484-5.726.077-1 .206-1.995.387-2.981.65-.162 1.311-.277 1.979-.343 3.764-.065 7.377-.043 11.486-.043ZM174.837 406.679a19.54 19.54 0 0 1-.194 8.192c-5.872.515-11.701.172-17.509.236-1.333-2.681-.71-5.211-.624-7.677 0-.451.882-1.03 1.463-1.223a107.687 107.687 0 0 1 16.864.472ZM217.253 414.936h-8.367a21.875 21.875 0 0 1-.172-8.192 15.088 15.088 0 0 1 7.55-.451c.452 0 1.161.901 1.204 1.437a25.63 25.63 0 0 1-.215 7.206ZM431.036 125.514l1.355 1.094c-.623.793-.817 1.265-1.183 1.479a28.745 28.745 0 0 1-11.636 4.032c-4.47.483-8.99-.106-13.185-1.716a11.851 11.851 0 0 1-5.679-3.988 9.083 9.083 0 0 1 2.151-.644c.366 0 .774.429 1.161.665a24.064 24.064 0 0 0 23.532.686l3.484-1.608ZM259.907 408.095h13.917a1.939 1.939 0 0 1 2.058 1.284c.096.276.128.57.093.86v5.19a1.693 1.693 0 0 1-1.058 1.656c-.217.088-.45.13-.684.124h-14.347a18.584 18.584 0 0 1 .021-9.114Zm2.388 6.176h10.755v-3.667h-10.755v3.667ZM317.875 417.187H301.98a34.625 34.625 0 0 1-.172-8.17c0-1.094.989-1.502 2-1.523h11.83a1.93 1.93 0 0 1 1.598.552 1.927 1.927 0 0 1 .553 1.592c.108 2.359.086 4.761.086 7.549Zm-13.701-2.144c3.829 0 7.27.193 10.755-.151v-4.417h-10.755v4.568ZM420.819 70.53c0 4.288-2.775 7.462-4.624 11.172l4.517 3.624a8.78 8.78 0 0 1-1.635.536 5.111 5.111 0 0 1-2.656-.56 5.09 5.09 0 0 1-1.99-1.842 3.513 3.513 0 0 1 0-4.289 29.154 29.154 0 0 0 3.979-7.977c.172-.558 1.076-.88 1.656-1.33l.753.665ZM435.338 72.995c-1.096.515-1.935 1.137-2.15.965-2.732-2.144-6.195-2.273-9.142-3.71 0 0 0-.214-.172-.386 0-1.287.925-1.308 1.85-1.33 1.828.023 3.63.432 5.288 1.2a12.902 12.902 0 0 1 4.326 3.261ZM423.573 83.181a5.33 5.33 0 0 1-.452-5.468 1.854 1.854 0 0 1 2.151-1.351c.469-.007.924.164 1.271.479.348.314.562.749.6 1.215.076.806.076 1.617 0 2.423-.064 2.51-.408 2.831-3.57 2.703ZM411.958 75.955a5.512 5.512 0 0 1-.366 2.144 3.801 3.801 0 0 1-1.807 1.78c-1.161.365-1.893-.493-2.301-1.587a5.372 5.372 0 0 1 .666-4.589 1.983 1.983 0 0 1 3.42.364 7.61 7.61 0 0 1 .388 1.888ZM419.422 94.076a34.448 34.448 0 0 1 4.087-2.338c1.484-.622 1.548-3.024 3.635-2.788 1.011 2.295.58 3.11-2.689 5.19-2.753 1.737-3.398 1.78-5.033-.064ZM450.868 84.683c.775-1.094 1.721-1.823 1.656-2.467 0-1.05-.15-1.758.925-2.144 1.786 1.373 2.151 2.745 1.076 4.139-.529.578-1.205 1-1.958 1.222-.365.043-.946-.429-1.699-.75ZM446.094 44.237a7.687 7.687 0 0 1-2.021 5.222 7.732 7.732 0 0 1-5.035 2.477c-2.946.215-6.065-3.195-6.173-6.433a7.711 7.711 0 0 1 2.155-5.15 7.753 7.753 0 0 1 5.072-2.356 5.743 5.743 0 0 1 4.436 1.748 5.697 5.697 0 0 1 1.566 4.492Z" fill="#022F45"/><path d="M162.34 271.79h-12.024v-4.696a38.807 38.807 0 0 1 12.046 0c0 .729.129 1.501.129 2.294 0 .794-.086 1.459-.151 2.402ZM220.911 244.555v3.774a69.342 69.342 0 0 1-10.11 0l-.215-3.774a72.318 72.318 0 0 1 10.325 0ZM147.757 383.947v6.434a72.238 72.238 0 0 1-14.906 0v-6.434c4.904-.214 9.7 0 14.906 0ZM207.338 362.331v-5.426c3.312-.279 6.453 0 9.873 0v5.254a81.729 81.729 0 0 1-9.873.172ZM262.295 414.271v-3.667h10.755v3.667h-10.755ZM304.131 415.021v-4.568h10.755v4.418c-3.442.343-6.883.086-10.755.15Z" fill="#fff"/></g><defs><clipPath id="a"><path fill="#fff" transform="translate(117.88 30.363)" d="M0 0h425.565v449.337H0z"/></clipPath></defs></svg>