<svg width="343" height="350" viewBox="0 0 343 350" fill="none" xmlns="http://www.w3.org/2000/svg">
<g clip-path="url(#clip0_189_16303)">
<path d="M290.255 229.365C290.255 237.922 289.311 266.288 277.377 292.436C274.531 298.772 271.018 304.782 266.898 310.362C264.575 313.612 261.941 316.624 259.034 319.355C244.799 332.964 223.172 340.095 197.003 340.095C190.734 340.081 184.472 339.704 178.246 338.966C146.399 335.017 115.904 323.643 89.1818 305.747C40.1865 272.072 21.5871 220.57 14.863 192.837C9.71185 172.078 0.530406 116.415 33.7968 68.0425C40.7922 57.7887 49.0502 48.4703 58.3731 40.3103C58.3636 40.2314 58.3636 40.1516 58.3731 40.0726H58.5699C69.9962 30.1208 83.1466 22.378 97.3611 17.2331C110.583 12.6062 124.457 10.1516 138.452 9.96335C191.655 9.50775 232.176 44.8267 248.554 61.7632L310.761 26.1075C312.042 25.378 313.558 25.1894 314.977 25.5829C316.395 25.9764 317.601 26.92 318.331 28.2072C319.055 29.4977 319.242 31.0246 318.852 32.4538C318.461 33.883 317.524 35.0983 316.247 35.8335L256.556 70.0234C267.65 82.6824 275.72 97.7318 280.149 114.019C284.067 128.476 285.05 143.581 283.04 158.43C295.8 152.051 308.854 151.1 318.626 156.805C321.962 158.766 324.857 161.404 327.128 164.551C329.399 167.698 330.997 171.287 331.819 175.089C335.849 193.808 318.429 216.37 290.255 229.365Z" fill="white"/>
<path d="M341.513 173.031C340.402 167.873 338.24 163.003 335.164 158.73C332.088 154.458 328.164 150.876 323.641 148.211C314.569 143.245 303.995 141.834 293.953 144.249C294.029 133.177 292.6 122.147 289.706 111.466C285.957 97.6335 279.763 84.5955 271.422 72.9775L321.242 44.4531C324.775 42.4069 327.361 39.0365 328.436 35.0771C329.512 31.1176 328.989 26.8902 326.983 23.3171C324.956 19.7603 321.616 17.1546 317.69 16.0675C313.765 14.9805 309.572 15.5001 306.025 17.5132L250.286 49.425C231.254 31.1811 191.185 0.0419922 139.654 0.0419922L138.552 0.0419922C123.456 0.285119 108.494 2.95996 94.2364 7.96535C80.4195 12.9719 67.5237 20.2549 56.0746 29.5172L49.7241 34.9448C40.7761 43.1461 32.7876 52.3509 25.9144 62.3799C-4.24562 106.256 -1.9255 155.283 2.93077 182.936H2.4786L5.44743 195.197C12.5057 224.336 32.0682 278.394 83.7963 313.931C111.851 332.723 143.868 344.666 177.304 348.814C183.909 349.592 190.552 349.989 197.201 350.002C226.162 350.002 249.952 341.901 266.015 326.549C269.328 323.402 272.33 319.939 274.98 316.209C279.487 310.097 283.33 303.516 286.443 296.578C297 273.481 299.556 249.235 300.087 235.607C329.244 220.156 346.153 195.059 341.513 173.031ZM286.167 220.315L280.426 222.969V229.328C280.426 236.994 279.561 263.914 268.433 288.278C265.882 293.97 262.731 299.369 259.035 304.383L258.878 304.601C256.957 307.317 254.777 309.839 252.37 312.128C240.042 324.013 220.912 330.154 197.103 330.154C191.189 330.144 185.281 329.787 179.408 329.084C149.132 325.36 120.137 314.568 94.7279 297.569C51.69 268.073 33.4249 223.643 25.9144 196.346L24.4398 190.404C19.4262 170.219 11.1094 118.439 41.9182 73.6313C48.2896 64.2603 55.7849 55.7176 64.2337 48.1968L65.0593 47.4837C75.5727 38.3303 87.6696 31.2058 100.744 26.4667C112.928 22.2006 125.714 19.9398 138.611 19.7714H139.535C189.16 19.7714 227.322 53.8424 241.497 68.5602L246.786 74.067L249.008 76.6026C259.183 88.1048 266.584 101.819 270.635 116.676C274.188 129.846 275.078 143.601 273.25 157.125L270.753 175.626L287.367 167.326C297.492 162.255 307.028 161.562 313.673 165.346C315.814 166.616 317.672 168.316 319.133 170.34C320.594 172.364 321.626 174.669 322.166 177.112C325.194 190.958 309.662 209.519 286.167 220.354V220.315Z" fill="white"/>
<path d="M331.897 175.109C331.073 171.305 329.476 167.715 327.205 164.564C324.934 161.414 322.04 158.772 318.705 156.806C308.874 151.12 295.898 152.071 283.119 158.43C285.129 143.581 284.146 128.476 280.229 114.019C275.795 97.7396 267.725 82.6976 256.635 70.0435L316.444 35.7942C317.72 35.0627 318.656 33.8511 319.047 32.4251C319.438 30.9991 319.251 29.4752 318.528 28.1877C318.169 27.5484 317.688 26.9867 317.112 26.5351C316.537 26.0834 315.879 25.7504 315.176 25.5554C314.473 25.3603 313.738 25.3071 313.014 25.3985C312.291 25.4898 311.592 25.7241 310.959 26.088L248.751 61.7436C232.452 44.8072 191.951 9.48822 138.65 9.94382C124.654 10.1242 110.778 12.5791 97.5578 17.2137C83.3434 22.3586 70.193 30.1013 58.7667 40.0531H58.5704C58.5609 40.132 58.5609 40.2118 58.5704 40.2908C49.2464 48.4497 40.9883 57.7682 33.9941 68.023C0.727671 116.435 9.90912 172.098 15.0603 192.818C21.7844 220.55 40.3838 272.053 89.3987 305.727C116.11 323.628 146.601 334.997 178.444 338.927C184.668 339.681 190.931 340.064 197.2 340.076C223.369 340.076 244.996 332.925 259.25 319.336C262.111 316.594 264.706 313.583 266.997 310.343C271.122 304.759 274.635 298.741 277.476 292.396C289.41 266.249 290.354 237.902 290.354 229.345C318.43 216.37 335.849 193.788 331.897 175.109ZM64.5076 43.8366C73.6507 36.1179 83.9243 29.8703 94.9629 25.3154C118.833 33.6938 140.737 46.9296 159.313 64.1999C169.644 73.8211 178.84 84.6086 186.721 96.3494L77.5431 158.43C71.678 145.289 67.3114 131.519 64.5272 117.386C59.8182 93.0972 59.8383 68.1179 64.5863 43.8366H64.5076ZM138.63 16.5798H139.711C188.274 16.5798 225.827 48.0955 242.283 64.7546L192.521 93.0612C184.285 80.7493 174.652 69.4479 163.815 59.3864C146.556 43.3225 126.491 30.6217 104.636 21.9281C115.69 18.5458 127.158 16.7324 138.709 16.5402L138.63 16.5798ZM39.3418 71.8065C44.4151 64.375 50.1753 57.444 56.5452 51.1064C53.158 73.5455 53.6569 96.4064 58.0198 118.674C60.9549 133.512 65.5728 147.962 71.7825 161.738L21.2144 190.48C16.2992 170.058 8.04159 117.446 39.4206 71.8065H39.3418ZM285.517 224.135L283.551 225.047V227.305C283.65 230.732 284.121 261.554 271.302 289.643C268.63 295.573 265.335 301.198 261.472 306.421C259.407 309.334 257.07 312.04 254.492 314.503C219.849 347.583 141.559 333.539 92.9378 300.221C82.8949 293.34 73.6605 285.332 65.4124 276.351C80.0205 271.042 90.3226 258.523 91.6989 244.122C93.1931 228.731 83.8346 217.678 82.0062 215.598C98.0102 216.707 111.497 204.703 112.736 190.342C113.719 178.456 106.248 167.146 95.0412 162.431L250.54 73.411C261.462 85.5122 269.404 100.034 273.721 115.802C277.891 131.113 278.563 147.177 275.687 162.788C270.065 166.613 264.957 171.154 260.489 176.297L265.483 180.715C281.212 162.57 302.249 154.963 315.363 162.59C317.878 164.097 320.064 166.103 321.788 168.487C323.512 170.87 324.737 173.581 325.39 176.456C328.811 192.54 312.06 212.646 285.596 224.135H285.517Z" fill="#022F45"/>
<path d="M197.671 262.723C183.142 260.445 171.089 253.254 160.04 243.449C162.7 240.501 165.968 238.175 169.615 236.635C173.88 234.849 178.445 233.901 183.063 233.842C174.215 227.483 160.748 230.435 153.827 238.754C146.572 246.777 145.432 260.544 152.805 268.606C151.627 260.344 153.709 251.946 158.605 245.212C161.169 251.527 165.145 257.16 170.224 261.673C179.128 269.635 190.623 274.027 202.528 274.014C215.976 274.014 230.053 268.23 238.409 257.533C225.236 262.168 211.454 265.001 197.671 262.723Z" fill="#022F45"/>
<path d="M215.446 168.533C203.393 169.979 192.541 163.284 185.286 152.686C184.539 168.533 201.172 181.884 216.881 179.388C232.728 177.586 245.114 160.114 239.767 144.921C235.933 157.182 227.459 166.809 215.446 168.533Z" fill="#022F45"/>
<path d="M200.896 130.044C210.176 123.685 220.322 119.942 231.391 122.22C235.157 122.979 238.839 124.113 242.381 125.607C233.101 108.948 206.461 112.018 200.896 130.044Z" fill="#022F45"/>
</g>
<defs>
<clipPath id="clip0_189_16303">
<rect width="342.298" height="350" fill="white"/>
</clipPath>
</defs>
</svg>
