<svg width="80" height="80" viewBox="0 0 80 80" fill="none" xmlns="http://www.w3.org/2000/svg">
<circle cx="40" cy="40" r="39" fill="white" stroke="#022F45" stroke-width="2"/>
<g clip-path="url(#clip0_118_19618)">
<path d="M55.04 30.4998H48.35C48.657 30.2888 48.9447 30.0512 49.21 29.7898C51.35 27.7898 51.7 25.0798 50.12 22.9698C49.338 21.928 48.1754 21.238 46.8863 21.0506C45.5972 20.8633 44.2863 21.1937 43.24 21.9698C43.03 22.1298 42.84 22.2898 42.65 22.4598C42.46 22.6298 42.29 22.8098 42.12 22.9898C41.95 23.1698 41.79 23.3698 41.64 23.5598C41.3525 23.9377 41.0918 24.3354 40.86 24.7498C40.529 25.3281 40.2479 25.9336 40.02 26.5598C39.7921 25.9336 39.5111 25.3281 39.18 24.7498C38.9435 24.3382 38.6831 23.9409 38.4 23.5598C38.0986 23.1654 37.7641 22.7974 37.4 22.4598C37.2159 22.2858 37.0223 22.1223 36.82 21.9698C35.7722 21.1932 34.4597 20.8624 33.1689 21.0498C31.8782 21.2371 30.7139 21.9273 29.93 22.9698C28.35 25.0798 28.71 27.7498 30.83 29.7798C31.0999 30.0471 31.3946 30.2882 31.71 30.4998H24.96C23.9107 30.5042 22.9051 30.9208 22.16 31.6598C21.8912 31.9293 21.6623 32.2357 21.48 32.5698C21.1626 33.149 20.9974 33.7993 21 34.4598V58.9998H59V34.4598C58.9896 33.4128 58.5691 32.4116 57.8287 31.6712C57.0883 30.9308 56.0871 30.5102 55.04 30.4998ZM40.75 29.8498C40.975 28.3002 41.4835 26.8052 42.25 25.4398C42.5294 24.9399 42.8649 24.4736 43.25 24.0498L43.75 23.6598C43.9 23.5298 44.05 23.3998 44.21 23.2798C44.9169 22.751 45.8049 22.5245 46.6787 22.6501C47.5526 22.7757 48.3408 23.2432 48.87 23.9498C49.98 25.4198 49.7 27.1798 48.12 28.6898C46.69 30.1198 44.24 30.4598 42.8 30.5298H40.75V29.8498ZM31.15 27.7898C30.9565 27.5141 30.7986 27.2151 30.68 26.8998C30.4905 26.4021 30.4342 25.8636 30.5166 25.3374C30.5991 24.8113 30.8174 24.3157 31.15 23.8998C31.6811 23.1926 32.471 22.7249 33.3465 22.5993C34.222 22.4737 35.1115 22.7004 35.82 23.2298C35.9752 23.3427 36.1222 23.4663 36.26 23.5998L36.66 23.9998C36.8834 24.2391 37.0905 24.493 37.28 24.7598L37.55 25.1698C37.7973 25.568 38.0178 25.9823 38.21 26.4098C38.3354 26.6767 38.4456 26.9505 38.54 27.2298C38.8282 28.0415 39.0391 28.8785 39.17 29.7298V30.4798H37.17C35.74 30.4098 33.36 30.0698 31.92 28.6198C31.6499 28.3679 31.4054 28.0899 31.19 27.7898H31.15Z" fill="#FFDD87"/>
<path d="M55.04 30.4998H48.35C48.657 30.2888 48.9447 30.0512 49.21 29.7898C51.35 27.7898 51.7 25.0798 50.12 22.9698C49.338 21.928 48.1754 21.238 46.8863 21.0506C45.5972 20.8633 44.2863 21.1937 43.24 21.9698C43.03 22.1298 42.84 22.2898 42.65 22.4598C42.46 22.6298 42.29 22.8098 42.12 22.9898C41.95 23.1698 41.79 23.3698 41.64 23.5598C41.3525 23.9377 41.0918 24.3354 40.86 24.7498C40.529 25.3281 40.2479 25.9336 40.02 26.5598C39.7921 25.9336 39.5111 25.3281 39.18 24.7498C38.9518 24.3332 38.691 23.9353 38.4 23.5598C38.0986 23.1654 37.7641 22.7974 37.4 22.4598C37.2159 22.2858 37.0223 22.1223 36.82 21.9698C35.7722 21.1932 34.4597 20.8624 33.1689 21.0498C31.8782 21.2371 30.7139 21.9273 29.93 22.9698C28.35 25.0798 28.71 27.7498 30.83 29.7798C31.0999 30.0471 31.3946 30.2882 31.71 30.4998H24.96C23.9107 30.5042 22.9051 30.9208 22.16 31.6598C21.8912 31.9293 21.6623 32.2357 21.48 32.5698C21.1626 33.149 20.9974 33.7993 21 34.4598V58.9998H59V34.4598C58.9896 33.4128 58.5691 32.4116 57.8287 31.6712C57.0883 30.9308 56.0871 30.5102 55.04 30.4998ZM40.75 29.8498C40.975 28.3002 41.4835 26.8052 42.25 25.4398C42.536 24.9442 42.871 24.4785 43.25 24.0498L43.75 23.6598C43.9 23.5298 44.05 23.3998 44.21 23.2798C44.9169 22.751 45.8049 22.5245 46.6787 22.6501C47.5526 22.7757 48.3408 23.2432 48.87 23.9498C49.98 25.4198 49.7 27.1798 48.12 28.6898C46.69 30.1198 44.24 30.4598 42.8 30.5298H40.75V29.8498ZM30.75 26.8998C30.5605 26.4021 30.5042 25.8636 30.5866 25.3374C30.6691 24.8113 30.8874 24.3157 31.22 23.8998C31.7511 23.1926 32.541 22.7249 33.4165 22.5993C34.292 22.4737 35.1815 22.7004 35.89 23.2298C36.0452 23.3427 36.1922 23.4663 36.33 23.5998L36.73 23.9998C36.9534 24.2391 37.1605 24.493 37.35 24.7598L37.62 25.1698C37.8747 25.5637 38.0955 25.9786 38.28 26.4098C38.4054 26.6767 38.5156 26.9505 38.61 27.2298C38.8982 28.0415 39.1091 28.8785 39.24 29.7298V30.4798H37.24C35.81 30.4098 33.43 30.0698 31.99 28.6198C31.7158 28.3617 31.468 28.0769 31.25 27.7698C31.0475 27.502 30.8795 27.2097 30.75 26.8998ZM57.45 57.4198H22.58V51.0798H57.42L57.45 57.4198ZM57.45 49.4998H22.58V34.4998C22.5827 33.8694 22.8343 33.2656 23.28 32.8198C23.7258 32.374 24.3296 32.1225 24.96 32.1198H39.13C38.33 36.7898 30.58 36.8698 30.5 36.8698V38.4598C33.32 38.4598 38.13 37.4598 40 34.3198C41.88 37.5098 46.68 38.4598 49.5 38.4598V36.8298C49.42 36.8298 41.67 36.7498 40.87 32.0798H55.04C55.6704 32.0825 56.2743 32.334 56.72 32.7798C57.1658 33.2256 57.4174 33.8294 57.42 34.4598L57.45 49.4998Z" fill="#022F45"/>
<path d="M48.1 28.6598C46.67 30.0898 44.22 30.4298 42.78 30.4998H40.75V29.8498C40.975 28.3002 41.4834 26.8052 42.25 25.4398C42.536 24.9442 42.871 24.4785 43.25 24.0498L43.75 23.6598C43.9 23.5298 44.05 23.3998 44.21 23.2798C44.9169 22.751 45.8049 22.5245 46.6787 22.6501C47.5525 22.7758 48.3407 23.2432 48.87 23.9498C49.96 25.3898 49.68 27.1498 48.1 28.6598Z" fill="#FFDD87"/>
<path d="M39.2091 29.7498V30.4998H37.2091C35.7791 30.4298 33.3991 30.0898 31.9591 28.6398C31.4306 28.1577 31.0171 27.5631 30.7491 26.8998C30.5596 26.4021 30.5033 25.8636 30.5857 25.3374C30.6681 24.8113 30.8865 24.3158 31.2191 23.8998C31.7502 23.1926 32.5401 22.7249 33.4156 22.5993C34.291 22.4737 35.1806 22.7005 35.8891 23.2298C36.1922 23.4601 36.4734 23.7179 36.7291 23.9998C37.5622 24.9423 38.201 26.04 38.6091 27.2298C38.8883 28.049 39.0892 28.8928 39.2091 29.7498Z" fill="#FFDD87"/>
</g>
<defs>
<clipPath id="clip0_118_19618">
<rect width="38" height="38" fill="white" transform="translate(21 21)"/>
</clipPath>
</defs>
</svg>
