<svg width="511" height="385" fill="none" xmlns="http://www.w3.org/2000/svg"><circle cx="127.913" cy="242.019" fill="#C9D2D7" r="127.913"/><circle cx="247.269" cy="127.913" fill="#C9D2D7" r="127.913"/><ellipse cx="215.251" cy="256.408" rx="118.121" ry="127.998" fill="#C9D2D7"/><circle cx="383.086" cy="251.554" fill="#C9D2D7" r="127.913"/><path d="M489.775 63.747v249.451l-163.616 12.73V43.858l163.616 19.89Z" fill="#fff"/><path d="M489.797 133.403H489.756L326.159 122.83a.06.06 0 0 1-.039-.018.065.065 0 0 1-.016-.04V77.215c.001-.008.002-.016.006-.024a.046.046 0 0 1 .015-.02.058.058 0 0 1 .045-.016h.001l163.611 16.22h.004a.058.058 0 0 1 .052.058v39.914a.055.055 0 0 1-.017.041.055.055 0 0 1-.024.015Zm-163.576-11.156v.469l.467.03 162.5 10.503.532.034V93.485l-.451-.044L326.77 77.33l-.549-.055v44.971Z" stroke="#022F45"/><path d="M326.163 326.487a.566.566 0 0 1-.559-.559V43.858a.555.555 0 0 1 .625-.554l163.615 19.89a.555.555 0 0 1 .489.553v249.451a.553.553 0 0 1-.507.556l-163.6 12.73-.063.003Zm.558-281.998v280.837l162.499-12.651V64.242L326.721 44.49Z" fill="#022F45"/><path d="M59.58 52.302v258.87l266.635 14.756V43.858l-4.903.003L59.58 52.302Z" fill="#FEB703"/><path d="M59.58 82.485v44.267l266.635-3.578V76.007l-4.903.003L59.58 82.485Z" fill="#022F45"/><path d="M326.216 326.487h-.018L59.563 311.728a.56.56 0 0 1-.528-.556V52.302a.558.558 0 0 1 .54-.556l261.735-8.44h4.919a.558.558 0 0 1 .558.558v282.064a.566.566 0 0 1-.176.407.567.567 0 0 1-.395.152ZM60.144 310.644l265.519 14.695V44.418h-4.343L60.144 52.84v257.803Z" fill="#022F45"/><path d="M160.577 316.622v.475l.475.024 68.425 3.418.525.026V162.016l-.506.006-68.435.762-.495.005v.495l.011 153.338Zm69.486 4.07h-.011l-69.537-3.473a.062.062 0 0 1-.04-.018.063.063 0 0 1-.017-.042V162.742c0-.016.007-.031.018-.043a.062.062 0 0 1 .041-.018l69.539-.782h.003a.085.085 0 0 1 .052.021.059.059 0 0 1 .015.037v158.674a.07.07 0 0 1-.019.043.076.076 0 0 1-.014.011.073.073 0 0 1-.029.007h-.001Z" stroke="#022F45"/><path fill="#fff" d="M240 162h72v100h-72zM161 163l68.5-.5v158L161 316V163Z"/><path d="M167.983 215.671a.56.56 0 0 1-.558-.559v-45.864a.557.557 0 0 1 .55-.556l22.399-.254a.54.54 0 0 1 .399.163.556.556 0 0 1 .165.396v46.095a.56.56 0 0 1-.556.559l-22.399.02Zm.555-45.874v44.757l21.286-.016v-44.97l-21.286.229ZM198.196 215.651a.559.559 0 0 1-.555-.559v-45.978a.556.556 0 0 1 .55-.559l22.399-.211a.56.56 0 0 1 .558.559v46.171a.543.543 0 0 1-.161.395.553.553 0 0 1-.394.164l-22.397.018Zm.558-45.986v44.868l21.286-.015v-45.064l-21.286.211Z" fill="#022F45"/><path d="m189.88 270.778-21.4-.869v-48.022h21.4v48.891ZM220.097 271.989l-21.4-.868v-49.234h21.4v50.102Z" stroke="#022F45"/><path d="M313.023 277.213h-.015l-72.907-2.821a.56.56 0 0 1-.536-.559V161.836a.56.56 0 0 1 .551-.559l72.907-.761a.545.545 0 0 1 .215.041.56.56 0 0 1 .348.517v115.583a.543.543 0 0 1-.161.395.543.543 0 0 1-.394.163l-.008-.002Zm-72.352-3.916 71.794 2.778v-114.44l-71.794.762v110.9Z" fill="#022F45"/><path d="M245.241 251.403a.556.556 0 0 1-.454-.879l39.479-56.24a.552.552 0 0 1 .363-.253.556.556 0 0 1 .65.694.567.567 0 0 1-.102.202l-39.48 56.239a.559.559 0 0 1-.456.237Z" fill="#fff"/><path d="M94.114 264.681a.556.556 0 0 1-.556-.595.562.562 0 0 1 .1-.284l47.357-67.735a.565.565 0 0 1 .359-.23.566.566 0 0 1 .416.092.544.544 0 0 1 .229.359.547.547 0 0 1-.091.416L94.57 264.442a.561.561 0 0 1-.456.239ZM83.278 192.867a.553.553 0 0 1-.47-.258.559.559 0 0 1 .013-.62l17.542-25.092a.566.566 0 0 1 .587-.25.557.557 0 0 1 .326.89l-17.542 25.092a.567.567 0 0 1-.456.238Z" fill="#022F45"/><path d="M77.627 251.291a.559.559 0 0 1-.558-.556v-87.06a.557.557 0 0 1 .55-.557l72.911-.822c.148 0 .291.057.398.16a.546.546 0 0 1 .165.396v77.517a.574.574 0 0 1-.149.419.562.562 0 0 1-.816 0 .569.569 0 0 1-.149-.419v-76.943l-71.794.81v86.506a.56.56 0 0 1-.558.549Z" fill="#022F45"/><path d="M246.653 5 100.716 63.128l35.359 88.979 145.937-58.128L246.653 5Z" fill="#fff"/><path d="m111.839 62.018-11.579 4.558 4.446 11.326 7.133-15.884ZM114.293 102.321l22.511-50.128-12.398 4.878-14.874 33.121 4.761 12.129ZM124.422 126.526l37.887-84.371-12.398 4.88-30.25 67.365 4.761 12.126ZM133.469 151.158l53.268-118.617-12.398 4.88-45.631 101.609 4.761 12.128ZM199.305 27.597l-56.076 124.871 12.399-4.88 56.075-124.872-12.398 4.88ZM224.271 17.77l-56.078 124.873 12.398-4.88L236.67 12.891l-12.399 4.878ZM247.429 11.97l-54.27 120.846 12.398-4.878L252.19 24.095l-4.761-12.126ZM256.889 36.667l-38.764 86.324 12.398-4.878L261.739 48.6l-4.85-11.933ZM266.463 61.124l-23.371 52.042 12.398-4.88 15.69-34.937-4.717-12.225ZM276.022 85.601l-7.964 17.74 12.857-5.06-4.893-12.68Z" fill="#022F45"/><path d="M239.182 20.095 112.954 69.774l29.387 74.842 126.228-49.679-29.387-74.842Z" fill="#fff"/><path d="M142.341 145.178a.562.562 0 0 1-.507-.356l-29.387-74.84a.56.56 0 0 1 .314-.724L238.979 19.58a.562.562 0 0 1 .426.002.544.544 0 0 1 .3.303l29.387 74.84a.57.57 0 0 1 0 .43.563.563 0 0 1-.307.294l-126.226 49.688a.542.542 0 0 1-.218.041Zm-28.662-75.085 28.979 73.802 125.191-49.264-28.979-73.81-125.191 49.272Z" fill="#022F45"/><path d="M106.05 81.879a.556.556 0 0 1-.507-.353l-5.79-14.747a.56.56 0 0 1 .314-.723L246.11 8.579a.562.562 0 0 1 .426 0 .554.554 0 0 1 .297.308l26.962 68.667a.558.558 0 0 1-1.037.409l-26.76-68.147-145.005 57.067 5.58 14.221a.563.563 0 0 1-.315.724.585.585 0 0 1-.208.05Z" fill="#022F45"/><path d="M123.552 126.452a.553.553 0 0 1-.507-.355l-17.501-44.572a.552.552 0 0 1 .117-.625.563.563 0 0 1 .626-.11.56.56 0 0 1 .294.327l17.502 44.573a.566.566 0 0 1-.06.519.564.564 0 0 1-.46.243h-.011Z" fill="#fff"/><path d="M135.224 156.178a.556.556 0 0 1-.507-.355l-11.668-29.726a.562.562 0 0 1 .328-.692.556.556 0 0 1 .71.285l11.467 29.203 79.421-31.257a.558.558 0 0 1 .408 1.039l-79.941 31.46a.509.509 0 0 1-.218.043Z" fill="#022F45"/><path d="M215.166 124.715a.555.555 0 0 1-.545-.453.562.562 0 0 1 .339-.623l65.583-25.81-7.795-19.859a.55.55 0 0 1-.007-.439.56.56 0 0 1 .533-.347.563.563 0 0 1 .512.378l7.999 20.376a.56.56 0 0 1-.314.723l-66.102 26.016a.567.567 0 0 1-.203.038Z" fill="#fff"/><path d="M21.909 348.471c1.77 2.2 5.063 3.171 7.222 5.068 7.034 6.18 12.144 16.349 22.42 17.559 4.144.467 8.918-.612 12.211-3.233 1.556-1.238 2.906-2.887 3.083-4.937.028-.902-.01-1.804-.112-2.7-.14-2.336-.052-4.989-1.747-6.862-1.869-2.055-5.853-1.742-8.408-1.868a13.028 13.028 0 0 0 3.657-2.868 3.838 3.838 0 0 0 1.019-2.911 2.202 2.202 0 0 0-.967-1.578 2.563 2.563 0 0 0-1.869-.309c-1.686.337-2.858 1.841-3.737 3.205l-.228-1.687a3.923 3.923 0 0 0-1.44-2.583l-1.167-.224a2.117 2.117 0 0 0-1.14 1.261c-.794 1.972.28 4.709 1.093 6.54-1.915-.626-3.62-1.64-4.736-3.368-2.635-4.087 3.886-4.905 4.47-8.324.257-1.518-.715-3.106-1.518-4.321a13.353 13.353 0 0 0 2.676-4.713l4.574 1.911c2.956 1.158 6.427 2.494 9.529 1.065 3.101-1.43 8.3-7.754 10.589-10.492 11.514-13.775 20.744-29.283 26.532-46.323.976-2.873 1.868-5.787 2.616-8.726.588-2.302 1.041-4.722 1.868-6.955l.075-.196c.238 2.845.579 5.727.616 8.581.061 4.484-.607 9.066-1.429 13.467-2.139 11.523-5.713 22.776-9.51 33.846a329.371 329.371 0 0 1-2.92 8.021 44.01 44.01 0 0 0-1.714 4.853 8.406 8.406 0 0 0 .098 4.671c.892 2.742 3.055 4.115 5.498 5.302a11.814 11.814 0 0 0-.65 5.488c-.868.402-1.686.766-2.293 1.546-1.214 1.556-1.06 3.663-.873 5.508-2.126 1.92-4.891 4.264-5.648 7.118a28.622 28.622 0 0 0-.467 3.088c-.34 2.219-1.462 6.007-.163 8.016 1.43 2.209 4.984 2.027 7.296 2.335 7.334 1.014 13.663 6.021 20.927 7.619 4.89 1.079 9.655.593 13.905-2.191 2.976-1.948 5.835-5.082 6.512-8.684.43-2.298-.402-3.937-1.64-5.782-1.167-1.953-1.251-3.784-3.582-4.928-2.915-1.43-5.979.289-8.745 1.261l1.462-2.747c.552-1.28.879-2.802.299-4.124a2.075 2.075 0 0 0-1.294-1.266l-1.709.327c-1.742.995-2.196 2.985-2.7 4.764l-.934-1.765c-.467-.64-1.346-1.402-2.172-1.486l-1.154.346a2.101 2.101 0 0 0-.528 1.677c.136 2.106 2.214 4.082 3.695 5.423-2.037.117-3.938 0-5.708-1.149-4.045-2.663 1.373-6.031.528-9.483-.365-1.485-1.766-2.443-2.999-3.185a16.104 16.104 0 0 0 1.509-4.765c2.648.131 5.605.467 8.211-.159 2.172-.532 3.691-1.868 4.84-3.736 2.83-4.672 5.474-11.375 7.473-16.503 9.389-24.136 14.56-51.85 9.74-77.667a87.28 87.28 0 0 0-1.093-5.138l-1.009.061a73.073 73.073 0 0 1 1.102 5.068H111.3a3.671 3.671 0 0 0-.056-.762l-.22-.163a1.631 1.631 0 0 0-.626.934h-9.879l1.84-6.922.374-1.402.467-.985 2.051-7.283c-1.037-.051-2.088-.042-3.069-.093-2.228-.108-4.442-.29-6.656-.519-6.39-.672-12.612-1.868-18.97-2.802l-.121.056-1.28-.365c.06 3.976-.388 8.021-.738 11.977-.066.71-.126 1.439-.196 2.182-.028.313-.056.63-.09.934-.84 9.183-2.101 20.445-5.105 28.494-4.867 13.037-13.406 25.223-21.44 36.481-2.177 3.05-4.863 5.923-6.806 9.113a7.568 7.568 0 0 0-1.205 4.246c.07 2.504 1.373 4.48 3.144 6.124a16.264 16.264 0 0 0-2.887 4.737 4.194 4.194 0 0 0-2.574.42c-1.677.911-2.504 2.873-2.99 4.624-2.335.841-5.11 1.57-7.104 3.13-1.523 1.191-5.923 8.142-6.157 10.15a3.618 3.618 0 0 0 .902 2.635Z" fill="#022F45"/><path d="m52.503 343.543-.523.196-.514.775c-.468 1.472.565 4.083 1.35 5.367l.523.15.229-.808c.163-1.799.158-4.265-1.065-5.68ZM116.773 353.67l-.668.345-.248.738c.065 1.63 2.13 3.56 3.312 4.555l.5.102.186-.425c-.079-1.649-1.896-4.288-3.082-5.315ZM59.648 344.776l-1.686.285c-1.509.892-3.027 3.106-3.47 4.787-.14.528-.183.589.088 1.056a8.872 8.872 0 0 0 3.985-2.023c.78-.663 1.658-1.541 1.71-2.625a1.911 1.911 0 0 0-.627-1.48ZM124.082 352.02l-1.294.141c-.976.467-1.513 1.938-1.751 2.919-.323 1.317-.556 3.209.154 4.405l.406-.238a7.898 7.898 0 0 0 3.13-4.919c.168-1.004-.047-1.513-.645-2.308ZM43.596 323.667l-.107.051c-1.784 1.173-2.555 3.826-3.008 5.788l.238.705c.761 1.868 2.742 3.382 4.587 4.143 1.023.425 1.752.631 2.803.197 1.868-1.435 2.723-3.27 3.737-5.312a40.295 40.295 0 0 1-8.25-5.572ZM100.139 339.119l-.103.089c-.602.808-.859 3.321-.794 4.274a4.725 4.725 0 0 0 1.649 3.405c1.439 1.186 3.868 1.532 5.685 1.336.934-.103 1.513-.21 2.102-.934a19.12 19.12 0 0 0 2.42-5.792 41.157 41.157 0 0 1-10.959-2.378Z" fill="#FEFEFE"/><path d="m39.485 328.408-1.868.383c-1.369 1.271-1.971 2.719-2.57 4.438l1.963 2.989c1.952 2.387 6.184 5.928 9.342 6.236l2.335-1.574a4.03 4.03 0 0 0 1.668-2.756 3.956 3.956 0 0 0-.976-2.77l-2.607.467c-1.625.079-3.97-1.401-5.138-2.499-1.49-1.448-2.046-2.896-2.149-4.914ZM98.332 345.331l-1.505 1.196c-.976 1.471-.724 3.349-.42 4.979 3.354 2.598 8.408 4.508 12.705 3.957.883-.117 1.276-.243 1.822-.934.808-1.285 1.798-2.836 1.504-4.419-.247-1.331-1.303-2.084-2.335-2.803l-1.434 1.401c-1.631.935-3.919.752-5.685.29-2.242-.626-3.517-1.738-4.652-3.667ZM24.471 341.221l-.135.126c-1.08 1.163-2.336 3.302-2.266 4.909.098 2.13 2.868 3.27 4.466 4.204 6.072 3.62 9.87 10.001 15.106 14.663 3.793 3.368 7.941 5.367 13.08 5.012a14.376 14.376 0 0 0 10.332-5.194c.761-1.299.803-2.471.882-3.933l-1.12 1.649a15.049 15.049 0 0 1-9.857 5.558c-10.323 1.131-14.854-9.809-20.585-16.143-1.869-2.079-4.512-3.373-6.67-5.138-1.981-1.631-2.967-3.125-3.233-5.713ZM90.135 363.166l-.612 1.653c-.308 1.346-.285 2.962.51 4.148 1.233 1.841 5.138 1.612 7.123 1.953 7.193 1.233 13.546 6.072 20.781 7.562 4.499.935 8.745.439 12.612-2.144 3.181-2.13 5.494-4.97 6.241-8.758a6.941 6.941 0 0 0-.934-3.321l-1.098 3.998c-1.401 3.303-4.073 6.297-7.422 7.652-9.011 3.657-16.475-4.106-24.234-7.147-3.204-1.257-6.82-1.135-9.968-2.537a5.152 5.152 0 0 1-2.999-3.059Z" fill="#FEFEFE"/><path d="M34.178 333.686c-2.457.841-5.605 1.738-7.38 3.737a5.492 5.492 0 0 0-1.252 4.176c.369 4.452 6.38 6.46 9.165 9.296 3.923 3.993 6.376 9.342 10.664 12.99 2.658 2.27 5.806 3.615 9.342 3.316a13.806 13.806 0 0 0 8.926-4.745c1.402-1.705 2.182-3.611 1.958-5.83l-1.2-2.237c-1.953-2.308-5.606-1.771-8.325-2.042-3.027 1.495-3.414 1.402-5.605 4.162-.304.388-.444.617-.934.692l-.295-.285.056-.617c.659-1.906 3.345-3.405 5.026-4.283l-3.811-.981c-2.649.831-3.405 1.158-5.353 3.185-.378.397-.869.935-1.401.935l.14-1.219c.971-1.752 3.423-2.883 5.24-3.438l-2.335-2.079c-1.224-1.574-1.364-3.186-1.135-5.092l-.934-.322c-4.396-1.705-8.595-4.923-10.557-9.319ZM95.745 352.394c-1.817 1.117-4.704 4.125-5.232 6.264a5.713 5.713 0 0 0 .598 4.461c2.518 3.919 8.833 3.186 12.738 4.825 5.25 2.205 9.838 6.241 15.466 7.474 3.181.71 6.512.439 9.291-1.369a14.012 14.012 0 0 0 5.988-8.594 6.705 6.705 0 0 0-.934-5.274l-1.817-1.504c-2.672-1.402-5.965.724-8.553 1.518-.682 1.009-1.751 1.929-2.335 2.994-.598 1.14-.841 2.48-1.434 3.63l-.505.527-.121-.541c-.234-2.261 1.359-4.508 2.695-6.194l-2.775.504c-3.769 1.028-3.821 3.933-5.441 6.717l-.234.042-.43-.794c0-1.901 2.102-4.447 3.363-5.717a10.3 10.3 0 0 1-3.699-1.448 5.392 5.392 0 0 1-2.219-3.616c-5.946.21-9.412-.616-14.41-3.905Z" fill="#FEFEFE"/><path d="M94.278 332.169a7.264 7.264 0 0 0 3.442 4.619c4.984 3.135 11.402 3.704 17.143 3.854 1.663.042 3.452.177 5.082-.22 2.074-.499 3.312-1.779 4.363-3.559 2.705-4.592 4.769-9.884 6.745-14.826 7.53-18.834 11.888-38.611 11.832-58.926a109.135 109.135 0 0 0-1.663-19.567h-29.951c-.033 2.849-1.957 9.566-2.209 12.21-.192 1.999.289 4.167.499 6.157 1.112 8.408-.065 16.587-1.868 24.812-2.275 10.277-5.484 20.352-8.908 30.302-1.401 4.054-3.27 8.132-4.428 12.252a5.87 5.87 0 0 0-.08 2.892ZM41.53 319.743c3.046 5.363 13.724 10.562 19.619 12.084 2.093.547 4.101.547 5.998-.621 3.167-1.948 9.342-9.562 11.864-12.705 12.715-15.882 22.37-34.366 27.186-54.185 1.602-6.577 2.429-13.327 3.952-19.908.06-.3.135-.596.224-.888h-9.879l1.84-6.922.374-1.402.467-.985 2.051-7.283c-1.037-.051-2.088-.042-3.069-.093-2.228-.107-4.443-.29-6.657-.518-6.39-.673-12.612-1.869-18.97-2.803l-.12.056c-.44.757-.874 10.328-1.014 11.879-.056.616-.112 1.233-.168 1.868l-.084.934c-.935 9.912-2.07 20.45-5.512 29.671-4.05 10.86-10.777 20.917-17.283 30.437a235.11 235.11 0 0 1-6.624 9.169c-1.401 1.869-2.966 3.691-4.204 5.648-.262.407-.46.853-.584 1.322a6.954 6.954 0 0 0 .593 5.245Z" fill="#fff"/><path d="M71.244 208.548c2.046.14 4.106.467 6.142.724 3.27.378 6.503.686 9.758.962 3.158.261 6.32.537 9.483.696 2.527.121 5.11.079 7.614.467 1.704.299 3.39.697 5.049 1.191l-4.045 14.359-2.051 7.282a238.988 238.988 0 0 1-27.947 3.107l-1.032.056c-.696.032-1.402.07-2.084.098 0-3.438.192-6.872.178-10.309a185.11 185.11 0 0 0-1.065-18.633Z" fill="#022F45"/><path d="m156.006 233.328-.276 1.037-2.602 9.183 2.878-10.22Zm-14.878 5.087a94.7 94.7 0 0 1 1.093 5.138h-.999a76.741 76.741 0 0 0-1.103-5.068l1.009-.07Zm-30.133 4.204.22.163c.045.251.064.506.056.762h-.902c.091-.376.313-.707.626-.935v.01Zm-62.21-62.21 10.02-17.311c7.077-10.646 18.885-19.619 31.548-22.221v1.121c.152.418.346.818.58 1.196.38.537.869.989 1.434 1.327l.247.159.056.037c2.299 1.401 5.087 2.116 7.754 1.499.435-.096.86-.23 1.271-.401a4.157 4.157 0 0 0 1.868-1.402.086.086 0 0 0 0-.032c.051-.069.098-.141.141-.215.686-1.173.415-2.191.13-3.429l-.224-1.083h.304c12.229.934 29.773 9.421 39.947 15.858-.5-7.273-1.527-14.775-3.629-21.763l-1.402-1.312c-.752-1.065-1.326-2.336-1.083-3.653.191-1.075.966-1.467 1.798-2.032l-1.401-.304a2.328 2.328 0 0 1-1.467-1.266 1.654 1.654 0 0 1 .467-1.359c1.313-1.546 3.485-1.929 5.4-2.055-1.318-1.35-3.382-3.116-3.49-5.138a1.664 1.664 0 0 1 .524-1.402l1.401-.411c2.536 0 5.208 1.995 6.955 3.695a19.154 19.154 0 0 1 4.424 6.652c.999 2.508 1.219 5.021 1.821 7.614 2.654 11.416 5.573 23.248 5.769 35.033l-.21 1.686-.318.028c-.569-.602-.383-1.756-.467-2.536l-2.718 7.31-21.174.051 1.714-4.787-11.939-.089-1.15-.178-2.158.211-6.474 23.355a7.365 7.365 0 0 1-.602 4.363c2.004-.061 5.512-.435 7.095 1.023a2.675 2.675 0 0 1 .79 2.008l-.561 2.116c.332.935.962 2.457.598 3.396-.327.85-1.565 1.36-2.158 2.032-.593.673-.364 1.668-1.046 2.336-.598.598-1.589.588-2.154 1.158-.794.794 0 1.934-1.551 2.425-1.985.63-4.33-.468-6.166-1.154a44.543 44.543 0 0 0-5.049-1.191c-2.504-.374-5.087-.332-7.614-.467-3.162-.159-6.325-.435-9.482-.696-3.27-.276-6.512-.584-9.758-.963-2.037-.233-4.097-.584-6.143-.724a185.086 185.086 0 0 1 1.065 18.619c0 3.438-.159 6.872-.177 10.309.696-.028 1.401-.065 2.083-.098l1.032-.056c9.37-.486 18.701-1.523 27.948-3.106l-.467.986c-1.976.63-4.204.826-6.241 1.135-3.27.467-6.54.934-9.865 1.233l-11.435.701-1.037.06-3.036.187c.424-10.072.14-20.162-.85-30.194-4.28-.574-8.675-1.355-12.762-2.77-2.242-.775-4.288-1.794-5.33-4.073-2.251-4.928.294-11.328 2.079-15.999-2.308-1.373-4.209-2.625-5.475-5.058v.009Zm86.135 18.773v.065h-.051l.051-.065Z" fill="#022F45"/><path d="m102.33 236.607.374-1.402.467-.985 2.05-7.282 4.045-14.359c1.836.71 4.204 1.784 6.166 1.153 1.537-.49.757-1.63 1.551-2.424.565-.57 1.556-.56 2.153-1.158.682-.678.468-1.701 1.047-2.336.579-.635 1.831-1.182 2.158-2.032.364-.934-.266-2.485-.598-3.396l.561-2.116a2.676 2.676 0 0 0-.79-2.008c-1.583-1.458-5.091-1.084-7.095-1.023a7.365 7.365 0 0 0 .602-4.363l6.474-23.356 2.158-.21 1.15.178 11.939.088-1.714 4.788 21.174-.051 2.718-7.31c.075.78-.112 1.933.467 2.536l.318-.028.21-1.686.341 1.579 13.864.14-18.128 63.774-2.878 10.221h-10.907a86.68 86.68 0 0 0-1.093-5.139l-1.009.061a72.62 72.62 0 0 1 1.102 5.068h-29.951a3.53 3.53 0 0 0-.056-.761l-.219-.164a1.632 1.632 0 0 0-.626.935h-9.88l1.855-6.932Zm32.609-37.369v-.065l-.033.056.033.009Z" fill="#022F45"/><path d="m99.382 201.317-1.448.163a2.86 2.86 0 0 0-1.756 1.514 2.96 2.96 0 0 0 .037 2.457c.468.962 1.187 1.34 2.13 1.714l1.276-.164a3.045 3.045 0 0 0 1.817-1.401 2.737 2.737 0 0 0 .159-2.186c-.374-1.107-1.215-1.593-2.215-2.097ZM158.275 165.844H139.39l-2.924 7.474 18.969.112 2.84-7.586Z" fill="#FEFEFE"/><path d="M112.956 192.507c-2.289.542-5.946 5.465-7.511 7.329l-4.106-.631c.108 1.939 1.056 3.121 1.537 4.928-.364 1.972-.906 2.738-2.518 3.863l-.729 2.112c1.78.051 3.691 0 5.438.369 2.204.467 7.473 2.718 9.342 2.438a1.895 1.895 0 0 0 1.378-.822c.075-1.752-3.167-1.56-3.872-2.728l.107-.252c1.654-.467 3.681 1.163 5.577.934a3.06 3.06 0 0 0 1.29-1.597c-.57-2.668-5.737-1.593-7.18-3.434l.121-.177c1.906-.206 5.237.668 6.848 1.607l1.201.322a2.22 2.22 0 0 0 1.35-1.299 1.907 1.907 0 0 0 .046-1.677c-1.116-1.938-5.138-1.747-7.006-2.13l-1.023-.532.149-.252 1.957-.066c1.719.108 3.859 1.103 5.498.692l.467-.519a2.14 2.14 0 0 0-.266-1.752c-1.13-1.592-6.432-.808-8.356-1.032l-.234-.028c.659-1.154 2.088-2.653 1.798-4.073-.182-.757-.742-1.149-1.303-1.593ZM141.054 115.803l-.818.289c-1.434 1.813 4.396 5.139 4.377 7.227l-.57.271-1.069-.837a8.291 8.291 0 0 0-3.985.855 2.185 2.185 0 0 0-1.182 1.252c.799 1.929 6.161.495 7.544 1.448v.178c-.677.85-3.326.714-4.512 1.093-.738.238-1.985.644-2.336 1.364l.103.313c1.747 1.172 4.442.261 6.072 1.013l.327.556-.172.215-5.54-.079-.103.168c.332 1.644 2.943 1.569 3.606 2.868l-.135.257-1.108.257c.341 2.195 1.028 4.418 1.453 6.609a117.677 117.677 0 0 1 1.962 15.018l-.103 8.758h13.878c-.107-7.768-2.387-18.493-4.157-26.093-.355-1.522-.635-3.517-1.322-4.918l-.584-.108c-.411-.49.234-2.877.075-3.765a20.684 20.684 0 0 0-3.27-7.997c-1.938-2.844-4.984-5.568-8.431-6.212ZM58.762 183.006l-2.149-.033c-1.76 3.84-3.63 7.764-4.13 12.005-.251 2.14-.312 5.437 1.136 7.189 4.484 5.423 32.296 7.007 39.704 7.539l1.626.056 1.023-2.802a4.57 4.57 0 0 1-1.046-3.336c.177-1.368 1.083-2.204 2.144-2.97l.135-2.28-23.477-4.237c-.58-.187-1.05-.252-1.28-.878-.43-1.172.794-2.961 1.303-3.994-5.091-3.596-8.72-5.619-14.99-6.259Z" fill="#FEFEFE"/><path d="M72.309 227.167c0 3.438-.159 6.871-.178 10.309.696-.028 1.402-.066 2.084-.098l1.032-.056c9.369-.486 18.7-1.524 27.947-3.107l2.051-7.282 4.045-14.359a44.862 44.862 0 0 0-5.049-1.191c-2.504-.374-5.087-.332-7.614-.467-3.163-.159-6.325-.435-9.483-.696a308.75 308.75 0 0 1-9.758-.962c-2.036-.234-4.096-.584-6.142-.724a185.11 185.11 0 0 1 1.065 18.633ZM73.687 193.049c2.335.971 8.772 1.714 11.603 2.205 6.6 1.139 13.214 2.48 19.838 3.437 1.336-1.868 5.166-6.628 7.39-7.006a2.24 2.24 0 0 1 1.7.42l.827.762 6.474-23.356 2.158-.21 1.149.177 11.939.089 1.869-4.708h5.049l.36-7.941c-9.912-6.699-27.737-15.158-39.915-16.181h-.252c.285 1.238.556 2.256-.131 3.429a2.138 2.138 0 0 1-.14.215.086.086 0 0 1 0 .032 4.157 4.157 0 0 1-1.868 1.402 7.534 7.534 0 0 1-1.271.401c-2.667.617-5.456-.088-7.754-1.499l-.056-.037-.247-.159a4.744 4.744 0 0 1-1.434-1.327 6.495 6.495 0 0 1-.58-1.196.293.293 0 0 0-.093 0c-1.869-.289-10.744 3.947-12.318 4.826-11.136 6.245-16.428 13.434-22.617 24.177-1.402 2.471-2.962 4.928-4.27 7.474 9.086.154 24.547 5.007 31.175 11.453.57-7.473 2.42-15.129 4.737-22.229.36-1.103.845-3.27 1.765-3.98l.43-.051c.323 1.275-1.686 5.684-2.14 7.165A107.945 107.945 0 0 0 83.726 186c-.238 1.56-.304 5.283-1.018 6.456a2.365 2.365 0 0 1-1.612 1.051c-1.583.303-6.773-.771-7.408-.458Z" fill="#FEB703"/><path d="m123.677 169.32 1.149.177c-.616-2.625 0-9.127-.799-10.814l-.42-.308-.252.229c-.271 3.545.107 7.18.322 10.716ZM108.092 144.764a2.606 2.606 0 0 0-.748.037 9.277 9.277 0 0 0-1.536 1.252 13.74 13.74 0 0 1-6.437 3.125c-4.344.766-8.203-1.929-9.23-1.757l-.276.636 3.06 1.448c1.804.602 3.71.84 5.606.701a14.391 14.391 0 0 0 5.446-1.509c1.522-.804 3.564-2.266 4.115-3.933Z" fill="#022F45"/><path d="m134.889 199.227.05.009-.018-.064-.032.055ZM153.127 243.548l2.602-9.183.276-1.037-2.878 10.22ZM140.122 238.475a73.327 73.327 0 0 1 1.102 5.068h1a87.453 87.453 0 0 0-1.093-5.138l-1.009.07ZM110.37 243.534h.906a3.53 3.53 0 0 0-.056-.761l-.219-.164a1.632 1.632 0 0 0-.631.925Z" fill="#4B60DD"/><path d="m134.889 199.227.05.009-.018-.064-.032.055Z" fill="#5D6EE6"/><path d="M63.574 105.68c.738-3.596 2.802-6.427 5.493-8.875.836-.747 1.747-1.401 2.803-2.256a11.02 11.02 0 0 0-5.606.934c-.537.215-1.083.79-1.714.15.752-1.607 1.78-1.943 8.165-2.695-.247-.468-.467-.902-.705-1.327a12.506 12.506 0 0 1-1.64-5.946c0-.589 0-1.173 1.112-1.112.416 2.27.388 4.783 2.125 6.792a30.93 30.93 0 0 1 2.336-2.803c1.686-1.63 3.877-2.382 6.105-3.017 3.27-.935 6.568-1.663 9.613-3.21A7.109 7.109 0 0 0 94.6 79.71a8.304 8.304 0 0 1 1.99-2.242c5.479-4.064 13.546-1.303 15.415 4.46a9.295 9.295 0 0 0 1.574 2.761 7.525 7.525 0 0 1 .294 9.291c-.322.467-.635.897-.934 1.308 2.588 3.247 2.644 6.325.252 9.604-.201.322-.439.62-.71.888-1.182 1.013-1.368 2.218-1.125 3.736a41.17 41.17 0 0 1 .168 12.024c-.673 5.073-2.256 9.809-5.877 13.649-.644.686-1.345 1.317-2.102 2.055.229 1.401.468 2.803.645 3.966l.509 1.686c-1.821 3.176-5.058 4.391-8.81 3.335a10.38 10.38 0 0 1-5.68-3.923l.28-1.565-.12-4.438c-5.139-3.293-9.193-7.539-11.678-13.079a6.61 6.61 0 0 1-9.156-2.42c-.327-.611-.602-1.251-.971-1.84a7.903 7.903 0 0 0-1.313-1.78c-3.49-3.181-4.587-7.039-3.676-11.505Zm28.414 36.566c.065.242.2.46.388.626 2.022 2.233 6.353 3.05 9.076 1.719 1.429-.696 1.714-1.154 1.49-2.667-.201-1.35-.467-2.686-.729-4.027-3.886.71-3.073 1.327-10.201-.467-.44 1.597-.145 3.209-.024 4.816ZM69.31 115.2c0 2.611.831 4.975 3.027 6.638a4.674 4.674 0 0 0 5.05.612c.513-.229 1.05-.402 1.816-.687.5.803 1.005 1.504 1.402 2.261 2.335 4.568 5.867 8.062 10.08 10.94a12.9 12.9 0 0 0 6.432 2.302 8.603 8.603 0 0 0 6.684-2.265c2.803-2.499 4.396-5.671 5.372-9.174 1.476-5.292 1.56-10.664.766-16.069a7.31 7.31 0 0 0-.467-1.373 15.24 15.24 0 0 0-5.554-9.109c-5.091 2.929-10.645 3.396-16.582 2.21.266.593.467.976.621 1.401.934 2.504.607 4.825-1.144 6.89a21.592 21.592 0 0 1-1.981 2.046 4.704 4.704 0 0 0-1.607 4.409c.105.746.147 1.499.126 2.252-.032.752-.168 1.518-1.308 1.896a27.021 27.021 0 0 1-1.373-1.578c-1.467-1.827-2.91-3.667-4.381-5.484a4.405 4.405 0 0 0-.837-.78c-1.102-.823-2.265-1.49-3.708-.869a3.759 3.759 0 0 0-2.434 3.531Z" fill="#022F45"/><path d="M71.743 111.65c1.444-.621 2.607.047 3.71.869.31.223.591.485.835.78 1.472 1.817 2.915 3.658 4.382 5.484.467.561.934 1.093 1.373 1.579 1.14-.378 1.275-1.144 1.308-1.897a13.466 13.466 0 0 0-.126-2.251 4.707 4.707 0 0 1 1.607-4.41 21.592 21.592 0 0 0 1.98-2.045c1.752-2.065 2.06-4.387 1.145-6.89-.15-.407-.355-.79-.621-1.402 5.936 1.187 11.49.72 16.582-2.21a15.243 15.243 0 0 1 5.554 9.11c.201.441.357.901.467 1.373.794 5.404.71 10.776-.766 16.068-.976 3.504-2.593 6.675-5.372 9.175a8.627 8.627 0 0 1-6.689 2.265 12.893 12.893 0 0 1-6.437-2.294c-4.204-2.877-7.763-6.371-10.08-10.939-.388-.757-.892-1.458-1.401-2.261-.766.285-1.303.467-1.817.687a4.674 4.674 0 0 1-5.05-.612c-2.195-1.663-3.031-4.027-3.027-6.638a3.76 3.76 0 0 1 2.443-3.541Zm28.027.435c-.159-.603-.341-1.257-1.509-1.019a9.233 9.233 0 0 0 1.752 4.788c.154.201.331.388.5.575 2.097 2.429 2.092 2.424-.393 4.358-.21.159-.285.467-.49.869 1.644.467 2.541-.467 3.382-1.341.747-.747.733-1.705.159-2.611a9.108 9.108 0 0 0-.986-1.401 9.627 9.627 0 0 1-2.401-4.237l-.014.019Zm9.179-3.181c.151-.088.279-.212.373-.36.038-.055.073-.113.103-.173a4.787 4.787 0 0 0-.294-.163l-.308-.145-.304-.122a5.645 5.645 0 0 0-1.004-.28 5.117 5.117 0 0 0-.561-.07 4.779 4.779 0 0 0-3.863 1.462c.467.126.934.393 1.201.28a6.544 6.544 0 0 1 3.736-.327c.258.06.526.045.776-.042.046-.017.091-.037.135-.06h.01Zm-2.803 8.123c.864.107 1.607-.869 1.742-2.298v-.187c.066-1.294-.5-2.266-1.368-2.336-.869-.07-1.724.902-1.789 2.238-.033 1.228.649 2.489 1.438 2.583h-.023Zm-6.269 11.383c1.546.369 3.153.495 4.316-.934-.242-.757-.742-.724-1.256-.537-1.967.719-3.615.369-4.923-1.322-.327-.42-.771-.691-1.369-.182.341 1.765 1.654 2.597 3.256 2.98l-.024-.005Zm-5.53-9.902c1.733-1.028 2.233-2.733 1.214-4.13a1.744 1.744 0 0 0-1.219-.696 1.696 1.696 0 0 0-1.121.827c-.752 1.359-.34 2.765 1.15 3.999h-.024Zm-3.9-8.053c1.462-1.019 3.045-1.145 4.745-.837.28.047.612-.214 1.168-.429-2.56-1.542-5.138-1.098-6.871 1.009.397.112.822.364.98.257h-.023Zm-16.915 7.978c.467.504 1.056.873 1.962.257l-1.041-1.402c.051-.341.116-.808.182-1.326-.743-.495-1.145-.252-1.402.252a1.84 1.84 0 0 0 .323 2.219h-.024ZM91.989 142.246c.064.242.2.46.387.626 2.023 2.233 6.353 3.05 9.076 1.719 1.43-.696 1.715-1.154 1.49-2.668-.2-1.349-.467-2.685-.728-4.026-3.887.71-3.074 1.327-10.202-.467-.44 1.597-.145 3.209-.023 4.816Z" fill="#fff"/><path d="M98.275 111.066a9.219 9.219 0 0 0 1.752 4.788c.154.206.331.383.499.575 2.098 2.429 2.093 2.424-.392 4.353-.21.164-.285.495-.49.874 1.644.467 2.541-.468 3.381-1.336.748-.757.738-1.71.164-2.612a9.375 9.375 0 0 0-.99-1.401 9.616 9.616 0 0 1-2.415-4.232c-.16-.593-.341-1.247-1.51-1.009ZM94.37 118.507c1.733-1.023 2.233-2.737 1.215-4.129a1.742 1.742 0 0 0-1.22-.696 1.694 1.694 0 0 0-1.12.827c-.776 1.359-.36 2.765 1.125 3.998ZM104.736 114.429c-.061 1.243.621 2.504 1.401 2.597.874.108 1.612-.873 1.742-2.298v-.182c.061-1.298-.504-2.27-1.373-2.335-.869-.066-1.677.878-1.77 2.218ZM104.212 127.481c-.238-.757-.738-.729-1.252-.538-1.967.72-3.62.369-4.923-1.322-.327-.42-.771-.691-1.369-.182.318 1.766 1.63 2.602 3.232 2.976 1.603.373 3.153.467 4.312-.934ZM96.384 109.188c-2.56-1.541-5.138-1.102-6.871 1.009.373.108.798.365.934.257 1.462-1.018 3.045-1.14 4.75-.836.3.047.63-.215 1.187-.43ZM109.458 108.329v.022h.025l-.025-.022ZM103.105 109.053c.468.126.935.392 1.201.28a6.547 6.547 0 0 1 3.737-.327 1.392 1.392 0 0 0 .92-.102c.152-.089.28-.212.374-.36.038-.055.072-.113.102-.173-.098-.061-.196-.112-.294-.163l-.308-.145-.304-.122a5.622 5.622 0 0 0-1.004-.28 4.884 4.884 0 0 0-.561-.07 4.772 4.772 0 0 0-3.863 1.462ZM74.663 115.938c-.748-.5-1.15-.252-1.401.253a1.838 1.838 0 0 0 .294 2.242c.467.509 1.055.868 1.962.252l-1.042-1.401c.047-.36.112-.832.187-1.346Z" fill="#022F45"/><path d="M140.122 238.475a73.327 73.327 0 0 1 1.102 5.068h1a87.453 87.453 0 0 0-1.093-5.138l-1.009.07ZM110.37 243.534h.906a3.53 3.53 0 0 0-.056-.761l-.219-.164a1.632 1.632 0 0 0-.631.925Z" fill="#4B60DD"/><path d="M170.815 102.647c.017-.214.11-.361.279-.441.168-.08.359-.052.57.084a.958.958 0 0 1 .491.476.927.927 0 0 1 .037.735c-.485.908-1.039 1.671-1.661 2.289-.622.619-1.451 1.173-2.488 1.663-1.543.729-3.275.589-5.197-.419-1.91-1.044-3.725-2.826-5.447-5.345-1.832-2.379-3.54-5.244-5.124-8.595-.342-.723-.308-1.182.102-1.375.072-.035.36-.082.862-.142.956-.099 1.615-.233 1.977-.404.916-.433 1.737-1.13 2.462-2.093a9.528 9.528 0 0 0 1.576-3.31c.617-2.564.328-5.111-.869-7.642-.615-1.302-1.396-2.393-2.343-3.273-.947-.88-1.966-1.445-3.058-1.696a4.72 4.72 0 0 0-3.157.342c-1.181.558-2.076 1.1-2.684 1.623l8.764 35.764c.049.479-.191.843-.722 1.094-.554.262-.923.2-1.105-.186-.656-2.698-1.956-8.101-3.9-16.208-1.955-8.13-3.427-14.395-4.416-18.795-.328.303-.568.607-.718.914a7.661 7.661 0 0 0-.417 1.083 3.16 3.16 0 0 1-.286.798c-.123.177-.311.31-.564.4-.381.003-.652-.164-.812-.501-.307-.651-.219-1.43.267-2.339.474-.931 1.233-1.821 2.277-2.669-.07-.586-.054-1.05.049-1.394.092-.368.234-.598.427-.689.072-.034.167-.02.285.042a.651.651 0 0 1 .28.31c.102.218.15.475.144.773a13.257 13.257 0 0 1 1.576-.878c2.338-1.105 4.548-1.235 6.629-.39 2.069.821 3.753 2.606 5.052 5.355.992 2.097 1.459 4.177 1.401 6.24a10.092 10.092 0 0 1-1.77 5.614c-1.147 1.693-2.793 3.046-4.939 4.06 1.322 2.797 2.748 5.22 4.277 7.27 1.553 2.038 3.101 3.504 4.644 4.397 1.532.869 2.924 1.007 4.178.414.748-.353 1.329-.746 1.744-1.178.404-.456.846-1.049 1.327-1.778Zm5.766-.424c-.772.365-1.432.529-1.98.493-.559-.06-1.097-.293-1.612-.698-.951-.701-1.74-1.714-2.367-3.04-1.094-2.315-1.781-4.674-2.062-7.078-.292-2.428-.172-4.638.361-6.63.52-1.897 1.466-3.17 2.84-3.82.724-.342 1.433-.308 2.127.1.708.374 1.261.983 1.66 1.827.695 1.47.913 2.93.655 4.38-.235 1.438-.82 2.821-1.756 4.148-.802 1.175-1.844 2.465-3.128 3.868l1.159 2.638c.957 2.025 2.051 2.747 3.28 2.166.506-.24.943-.564 1.31-.974.391-.42.784-.93 1.179-1.53.468-.694.835-1.103 1.101-1.228.409-.194.717-.074.922.36.148.314.023.83-.374 1.549-.374.707-.884 1.405-1.532 2.095-.658.665-1.253 1.123-1.783 1.374Zm-5.793-8.323c1.308-1.415 2.264-2.574 2.869-3.48.604-.904.941-1.845 1.01-2.822.094-.988-.156-2.109-.748-3.363-.445-.94-1.065-1.222-1.86-.846-.7.33-1.217 1.357-1.554 3.08-.384 1.744-.388 3.796-.011 6.154.105.658.203 1.084.294 1.277Zm17.217 2.613c-.603.285-1.06.192-1.372-.28a187.097 187.097 0 0 1-4.892-7.731 777.7 777.7 0 0 0-5.378-8.475c-.03-.251.012-.507.125-.767.126-.295.273-.483.442-.562.337-.16.663-.063.977.29a370.11 370.11 0 0 0 4.372 7.003c1.258 1.912 2.884 4.477 4.876 7.694.506-3.984.677-7.398.513-10.24-.164-2.844-.81-5.458-1.938-7.845-1.197-2.532-2.679-3.733-4.447-3.605-.514.036-.945.122-1.294.257-.385.123-.666.182-.845.178-.166-.04-.295-.155-.386-.348-.24-.506-.044-.967.585-1.383 3.465-1.343 6.115-.073 7.95 3.808 1.834 3.882 2.554 8.836 2.158 14.863a40.896 40.896 0 0 1-.811 5.959c-.134.653-.346 1.048-.635 1.184Zm10.202-4.512c-.82.387-1.543-.082-2.17-1.408a2.402 2.402 0 0 1-.246-.99 15.247 15.247 0 0 0-.341-1.564l-.603-2.68-.781-3.523a185.766 185.766 0 0 1-1.012-4.389 5.162 5.162 0 0 0-.198-.791c-.249-1.15-.413-1.81-.493-1.98l-.171-.361c-.091-.193-.363-.55-.817-1.074a1.38 1.38 0 0 1-.087-.932c.103-.344.3-.584.589-.72.265-.126.58-.053.943.217.364.27.649.623.854 1.057.228.482.904 3.348 2.028 8.597 1.125 5.25 1.756 8.02 1.892 8.309.126.265.309.34.55.227.121-.057.263-.317.429-.778.152-.426.325-.685.518-.776.386-.182.692-.032.92.45.137.289.105.658-.096 1.107-.2.449-.478.86-.832 1.234-.343.398-.635.654-.876.768Zm-6.672-23.57c-.386.183-.698.271-.936.266l-.145.069c-.699.33-1.242.085-1.63-.734-.193-.41-.201-.864-.023-1.36.202-.51.508-.86.918-1.054.41-.194.864-.231 1.362-.113.604.216.997.517 1.179.903.171.361.18.755.027 1.181-.139.39-.39.672-.752.843ZM208.4 87.184c-.771.365-1.431.529-1.979.493-.559-.06-1.097-.293-1.613-.698-.95-.7-1.739-1.714-2.366-3.04-1.094-2.315-1.781-4.674-2.062-7.078-.292-2.428-.172-4.638.361-6.63.519-1.897 1.466-3.17 2.84-3.82.724-.342 1.433-.308 2.127.1.708.374 1.261.983 1.66 1.827.695 1.47.913 2.93.654 4.38-.234 1.438-.819 2.82-1.755 4.148-.802 1.175-1.844 2.464-3.128 3.868l1.159 2.638c.957 2.025 2.05 2.747 3.28 2.166.506-.24.943-.564 1.31-.974.391-.42.784-.93 1.179-1.53.468-.694.835-1.103 1.1-1.228.41-.194.718-.074.923.36.148.313.023.83-.374 1.548-.374.708-.884 1.406-1.532 2.096-.659.665-1.253 1.123-1.784 1.374Zm-5.792-8.323c1.308-1.415 2.264-2.574 2.868-3.48.605-.905.942-1.846 1.011-2.822.094-.988-.156-2.109-.749-3.363-.444-.94-1.064-1.222-1.86-.846-.699.33-1.217 1.357-1.553 3.08-.384 1.744-.388 3.796-.011 6.154.105.658.203 1.084.294 1.277Zm25.603-1.174c-.555.262-1.06-.089-1.516-1.053l-.41-.868c-.148-.313-.263-.525-.344-.634-2.905-4.024-5.02-7.095-6.345-9.212.021 1.23.156 3.2.406 5.914.375 4.1.555 7.008.541 8.726-.093.427-.296.715-.61.863-.506.24-.993-.135-1.46-1.124-1.161-1.457-2.848-3.904-5.062-7.34a226.633 226.633 0 0 0-3.082-4.65 152.348 152.348 0 0 0-1.838-2.67c-.08-.169-.075-.407.016-.716.09-.308.244-.513.461-.615.506-.24 1.026-.014 1.559.678.151.194.681 1.035 1.591 2.522a370.337 370.337 0 0 0 4.357 6.878c1.189 1.768 1.984 2.764 2.385 2.987l-.315-3.567c-.492-6.345-.995-10.561-1.509-12.648-.121-.504.048-.864.506-1.08.266-.126.481-.139.646-.04.177.064.358.229.543.495 3.233 5.404 6.146 9.882 8.739 13.434.553-2.886.873-5.485.96-7.798.075-2.336-.223-4.216-.895-5.638-.49-1.037-1.154-1.755-1.993-2.155-.117-.063-.456-.124-1.015-.184-.883.005-1.399-.15-1.547-.464-.102-.216-.103-.467-.001-.751.126-.295.316-.518.569-.667 1-.443 2.017-.32 3.052.371 1.023.667 1.882 1.736 2.577 3.206 1.47 3.11 1.52 7.585.151 13.423-.046.465-.071.756-.073.876-.057.94-.146 1.72-.267 2.338-.132.593-.391.981-.777 1.163ZM326.151 122.643V77.521L490.043 93.6v39.936l-163.892-10.892Z" fill="#022F45"/><path d="M339.117 276.681V162.06l136.923 5.187v105.285l-136.923 4.149Z" fill="#fff"/><path d="M371.912 255.143a.546.546 0 0 1-.319-.102.559.559 0 0 1-.137-.777l44.786-63.807a.564.564 0 0 1 .589-.253.563.563 0 0 1 .362.255.579.579 0 0 1 .062.439.553.553 0 0 1-.103.202l-44.791 63.804a.553.553 0 0 1-.449.239ZM346.526 260.166a.55.55 0 0 1-.497-.301.558.558 0 0 1 .043-.58l57.143-80.499a.556.556 0 0 1 .993.234.561.561 0 0 1-.082.411l-57.144 80.499a.561.561 0 0 1-.456.236Z" fill="#022F45"/><path d="M338.08 162.619v114.229a.56.56 0 0 0 .558.556l-.558-114.785Zm0 0a.562.562 0 0 1 .17-.401l-.17.401Zm137.794 110.662-137.045 3.631-.01-.008h-.181a.062.062 0 0 1-.041-.016.063.063 0 0 1-.017-.041V162.618c0-.008.002-.015.004-.022a.052.052 0 0 1 .013-.017v-.001a.057.057 0 0 1 .021-.013.069.069 0 0 1 .024-.005h.001l137.233 5.221h.001a.06.06 0 0 1 .039.018c.01.011.016.025.017.041v105.38a.07.07 0 0 1-.018.043.06.06 0 0 1-.041.018ZM339.215 162.699l-.519-.02v114.109l.513-.014 136.121-3.608.487-.013V167.895l-.481-.018-136.121-5.178Z" stroke="#022F45"/><path d="m279.95 281.677 50.133 8.773 49.653-8.707a.083.083 0 0 0 .043-.028.08.08 0 0 0-.043-.125l-50.221-8.804-49.565 8.891Z" fill="#fff"/><path d="M330.083 291.243a.75.75 0 0 1-.134 0l-50.133-8.774a.787.787 0 0 1-.655-.778.79.79 0 0 1 .655-.778l49.565-8.888a.8.8 0 0 1 .276 0l50.222 8.804a.869.869 0 0 1 0 1.709l-49.656 8.71a.936.936 0 0 1-.14-.005Zm-45.6-9.579 45.6 7.979 45.509-7.979-46.077-8.078-45.032 8.078Z" fill="#022F45"/><path d="M330.072 364.816v-74.437l-50.328-8.732v74.231l50.328 8.938Z" fill="#FEB703"/><path d="M330.072 365.606a.784.784 0 0 1-.137 0l-50.328-8.936a.794.794 0 0 1-.469-.27.792.792 0 0 1-.183-.51v-74.244a.78.78 0 0 1 .282-.604.792.792 0 0 1 .641-.175l50.331 8.733c.183.031.35.127.469.27.12.142.186.323.185.509v74.435a.8.8 0 0 1-.281.607.807.807 0 0 1-.51.185Zm-49.537-10.391 48.748 8.657v-72.827l-48.748-8.459v72.629Z" fill="#022F45"/><path d="M330.072 364.816v-74.437l49.892-8.743v74.285l-49.892 8.895Z" fill="#022F45"/><path d="M330.072 365.606a.779.779 0 0 1-.559-.232.79.79 0 0 1-.23-.56v-74.435a.792.792 0 0 1 .655-.779l49.891-8.743a.785.785 0 0 1 .644.172.8.8 0 0 1 .282.605v74.287a.79.79 0 0 1-.652.779l-49.891 8.888a.825.825 0 0 1-.14.018Zm.791-74.564v72.83l48.312-8.611v-72.685l-48.312 8.466Z" fill="#022F45"/><path d="M251.517 374.789v-91.728l-62.018-10.759v91.473l62.018 11.014Z" fill="#FEB703"/><path d="m189.755 272.34 61.777 10.813 61.281-10.75a.078.078 0 0 0 .064-.077.08.08 0 0 0-.018-.051.084.084 0 0 0-.046-.027l-61.983-10.866-61.075 10.958Z" fill="#fff"/><path d="M251.531 283.942a.784.784 0 0 1-.137 0l-61.777-10.812a.794.794 0 0 1-.466-1.288.8.8 0 0 1 .466-.272l61.075-10.954a.753.753 0 0 1 .276 0l61.981 10.855a.875.875 0 0 1 .715.857.871.871 0 0 1-.715.858l-61.286 10.749a.822.822 0 0 1-.132.007Zm-57.244-11.612 57.244 10.02 57.146-10.023-57.848-10.142-56.542 10.145Z" fill="#022F45"/><path d="M251.52 375.586a.784.784 0 0 1-.137 0l-62.021-11.013a.794.794 0 0 1-.652-.78v-91.491a.783.783 0 0 1 .282-.605.785.785 0 0 1 .644-.175l62.018 10.759a.795.795 0 0 1 .655.78v91.728a.793.793 0 0 1-.487.731.784.784 0 0 1-.302.058v.008Zm-61.23-12.466 60.441 10.732v-90.126l-60.441-10.477v89.871Z" fill="#022F45"/><path d="M251.517 374.789v-91.728L313 272.286v91.543l-61.483 10.96Z" fill="#022F45"/><path d="M251.519 375.586a.767.767 0 0 1-.302-.059.797.797 0 0 1-.487-.731v-91.735a.797.797 0 0 1 .652-.78l61.481-10.772a.801.801 0 0 1 .644.173.778.778 0 0 1 .282.604v91.543a.79.79 0 0 1-.65.779l-61.483 10.96a.79.79 0 0 1-.137.018Zm.789-91.852v90.117l59.903-10.665v-89.958l-59.903 10.506ZM227.264 296.302a.808.808 0 0 1-.139-.013l-13.504-2.397a.785.785 0 0 1-.652-.779v-10.14a.782.782 0 0 1 .281-.604.787.787 0 0 1 .642-.173l13.507 2.341a.785.785 0 0 1 .468.271c.12.142.186.322.186.509v10.195a.805.805 0 0 1-.074.334.8.8 0 0 1-.715.456Zm-12.705-3.845 11.921 2.118v-8.585l-11.921-2.067v8.534Z" fill="#022F45"/><path d="M282.407 277.843V221.74l37.603-6.589v55.99l-37.603 6.702Z" fill="#022F45"/><path d="M282.408 277.843V221.74l-37.932-6.582v55.95l37.932 6.735Z" fill="#FEB703"/><path d="m244.633 215.184 37.793 6.602 37.354-6.544a.068.068 0 0 0 .068-.069.067.067 0 0 0-.02-.048.067.067 0 0 0-.048-.02l-37.793-6.623-37.354 6.702Z" fill="#fff"/><path d="M282.415 222.586a.75.75 0 0 1-.134 0l-37.793-6.615a.788.788 0 0 1 0-1.557l37.357-6.701a.8.8 0 0 1 .276 0l37.793 6.625a.857.857 0 0 1 .509 1.398.852.852 0 0 1-.509.293l-37.367 6.557a.97.97 0 0 1-.132 0Zm-33.252-7.413 33.252 5.821 33.175-5.818-33.601-5.891-32.826 5.888Z" fill="#022F45"/><path d="M267.643 227.352a.784.784 0 0 1-.137 0l-9.588-1.704a.787.787 0 0 1-.651-.777v-7.199a.782.782 0 0 1 .281-.604.8.8 0 0 1 .644-.175l9.588 1.665a.79.79 0 0 1 .655.777v7.238a.774.774 0 0 1-.488.731.776.776 0 0 1-.304.058v-.01Zm-8.796-3.154 8.007 1.42v-5.627l-8.007-1.389v5.596Z" fill="#022F45"/><path d="M282.41 278.635a.807.807 0 0 1-.139 0l-37.933-6.737a.788.788 0 0 1-.651-.777v-55.963a.785.785 0 0 1 .583-.761.78.78 0 0 1 .34-.016l37.925 6.58a.788.788 0 0 1 .654.779v56.103c0 .104-.02.207-.059.303a.808.808 0 0 1-.427.429.787.787 0 0 1-.303.06h.01Zm-37.146-8.189 36.355 6.455v-54.495l-36.355-6.306v54.346Z" fill="#022F45"/><path d="M282.41 278.635a.792.792 0 0 1-.792-.792V221.74a.798.798 0 0 1 .655-.779l37.602-6.603a.817.817 0 0 1 .645.175.8.8 0 0 1 .281.605v55.991a.79.79 0 0 1-.652.777l-37.602 6.704a.916.916 0 0 1-.137.025Zm.788-56.229v54.495l36.018-6.422v-54.386l-36.018 6.313Z" fill="#022F45"/></svg>