<svg width="608" height="559" fill="none" xmlns="http://www.w3.org/2000/svg"><circle cx="196.782" cy="347.308" fill="#C9D2D7" r="196.782"/><circle cx="364.294" cy="205.958" fill="#C9D2D7" r="196.782"/><circle cx="403.218" cy="361.977" fill="#C9D2D7" r="196.782"/><path d="M600 420.88C440.895 465.336 7.387 543.701 3.048 379.32c-5.29-200.406 427.103 73.816 445.699-101.111C467.344 103.282 178.476 176.479 176.617 58" stroke="#022F45"/><path fill="#fff" d="M346.904 208.042h244.051v221.865H346.904z"/><path d="M209.704 176.793c14.743 10.993 28.843 23.029 43.264 34.533 12.968 10.383 26.546 20.467 38.993 31.449.288 7.666.111 15.409.111 23.085v43.264c0 30.828.432 61.734-.1 92.551 3.827.1 7.654.067 11.481.089-.399 8.253-.199 16.562-.188 24.815l-14.133-.066c.373 3.091.459 6.211.255 9.318a28.036 28.036 0 0 1-10.361 19.258 28.537 28.537 0 0 1-21.077 6.112 28.192 28.192 0 0 1-18.958-10.549c-5.858-7.322-6.523-15.287-5.48-24.294-12.259.454-24.639.144-36.919.144h-79.45c.555 5.935.522 11.581-1.741 17.194a28.31 28.31 0 0 1-54.58-10.305c0-2.041.988-5.159.312-6.911h-.622l-54.113.055c0-11.759.555-23.484.577-35.232 0-7.377-.82-21.255.377-27.667 1.376-7.354 5.347-15.53 7.954-22.574l17.75-48.378c12.901-.555 25.947-.189 38.826-.189 14.887 0 29.852-.31 44.739.145l-.089 109.046c3.716.067 7.444 0 11.16-.1V301.459c0-19.602-.288-39.248.133-58.794 7.599-7.056 17.572-14.155 25.77-20.723l56.109-45.149Z" fill="#022F45"/><path d="M127.813 422.142c.493.473.939.993 1.331 1.553l-.954 1.753a3.784 3.784 0 0 1-2.419-.832c.3-1.154 1.187-1.675 2.042-2.474ZM144.686 404.693a11.183 11.183 0 0 1 1.109 4.437h1.021l-.377.166c1.201.218 2.387.514 3.549.888l.056.51a10.107 10.107 0 0 1-4.16.078l-.388.776a5.892 5.892 0 0 1 .133 3.184l-.677.299a29.172 29.172 0 0 1-4.382-5.125l.355-.809.477-.067a4.63 4.63 0 0 0 2.041 1.642c.943-1.587.511-4.06 1.243-5.979ZM130.131 419.735c1.486-1.387 3.428-3.661 5.424-4.227a2.706 2.706 0 0 1 2.485.189c.355.769.411 1.644.156 2.452a3.33 3.33 0 0 1-2.042 1.464c-.809 1.797-.443 4.049-1.497 5.669-1.875-.244-3.739-3.328-5.048-4.737l.522-.81Z" fill="#022F45"/><path d="M134.19 417.782a4.973 4.973 0 0 1 2.54-1.464 2.485 2.485 0 0 1 0 2.03c-.161.401-.343.794-.543 1.176a.592.592 0 0 0 0 .133 6.078 6.078 0 0 1-3.705 1.043l-.189-.532a9.73 9.73 0 0 1 1.897-2.386Z" fill="#022F45"/><path d="M28.074 310.156c3.24.092 6.484.018 9.717-.222 0 7.71.877 16.484-.732 24.006-1.33 6.245-4.437 12.768-6.755 18.758l-10.062 1.11c-2.85.466-5.824.643-8.697.954l10.084-27.733c2.052-5.602 3.96-11.426 6.445-16.873Z" fill="#FEB703"/><path d="m28.873 354.218.267.122c.277 1.22-.555 3.106-.921 4.349-1.875 6.301-.866 33.579-.854 42.376H8.318l-.078-5.868a6.832 6.832 0 0 1 .222-2.374c1.43-.832 3.04-.533 4.67-.511l-.078-21.387-4.792.288a34.389 34.389 0 0 1 2.729-15.098c5.902-.943 11.936-1.375 17.882-1.897Z" fill="#FEFEFE"/><path d="M47.465 310.256c11.304 0 22.63-.233 33.923 0-.111 12.202-.41 24.405 0 36.607l-33.912 3.927-.067-8.797c-3.025 0-6.053-.037-9.085-.111-1.276 1.653-.6 7.855-.588 10.084a47.362 47.362 0 0 0-6.002.599c1.531-4.337 3.14-8.641 4.737-12.968l.211.433c.133-.466.266-.943.377-1.42l.089-.366.333.133c.077.421.184.837.321 1.242.136.198.288.383.455.555l9.174.067c-.01-10.006-.177-20.013.034-29.985ZM209.692 178.512c15.886 11.892 31.117 24.816 46.592 37.24 11.437 9.186 23.551 17.927 34.455 27.733 0 3.561.056 7.133 0 10.705-3.239-.843-71.718-56.908-80.881-64.141-7.221 5.325-14.121 11.271-21.077 16.884l-41.866 33.502c-5.136 4.082-12.058 11.093-17.815 13.911l.055-11.282c11.737-9.019 23.174-18.459 34.733-27.733l45.804-36.819Z" fill="#FEB703"/><path d="M33.866 293.771c14.2-.211 28.41 0 42.61 0 12.945 0 25.913-.2 38.826.1.443 10.339.088 20.833.088 31.183v59.072H99.594v-81.347h-51.03l-1.53 4.759c-6.246 0-12.358 1.298-18.626 1.298l5.458-15.065ZM87.777 405.891a27.27 27.27 0 0 1 25.171 14.354 27.265 27.265 0 0 1-1.964 28.909c-5.058 6.812-11.492 9.796-19.69 11.093-6.723.167-12.802-1.297-18.282-5.324a27.01 27.01 0 0 1-10.106-28.71 27.005 27.005 0 0 1 4.748-9.595c5.147-6.689 11.98-9.674 20.123-10.727ZM259.522 405.868a27.734 27.734 0 0 1 16.884 4.77 27.182 27.182 0 0 1 11.459 17.633 27.17 27.17 0 0 1-4.559 20.528c-5.058 6.978-11.681 10.117-19.967 11.393-6.412.166-12.303-1.109-17.583-4.925a27.446 27.446 0 0 1-11.304-18.105 27.034 27.034 0 0 1 4.87-20.034c5.069-6.911 11.881-10.073 20.2-11.26Z" fill="#FEFEFE"/><path d="M49.749 303.877h48.5c-.411 26.624-.223 53.436 0 80.116-16.496 1.242-28.011 5.224-39.992 17.039h-29.63V376.46c0-5.203-.377-10.705.466-15.852a40.224 40.224 0 0 1 2.163-6.911c5.27-.533 10.639.255 15.941.066.143-.385.322-.756.533-1.109.262-.281.556-.531.876-.743 1.786-.832 29.275-3.461 34.223-4.049l-.156-39.06c-11.57-.499-23.362-.055-34.954-.066l2.03-4.859ZM209.87 190.027c9.163 7.233 77.653 63.298 80.881 64.141.61 20.922.078 41.988.089 62.921 0 27.955.377 55.954-.089 83.898-24.582-.499-49.254-.066-73.848-.066-29.33 0-58.716-.377-88.036.111-.266-11.626 0-23.296 0-34.944v-65.45l-.055-30.418c0-5.081-.555-10.86.277-15.852 5.758-2.818 12.68-9.829 17.816-13.911l41.866-33.502c6.978-5.657 13.878-11.603 21.099-16.928ZM261.199 446.891c7.658 0 13.866-6.208 13.866-13.866 0-7.659-6.208-13.867-13.866-13.867-7.659 0-13.867 6.208-13.867 13.867 0 7.658 6.208 13.866 13.867 13.866Z" fill="#FEFEFE"/><path fill-rule="evenodd" clip-rule="evenodd" d="M261.198 419.724c-7.346 0-13.301 5.955-13.301 13.301 0 7.345 5.955 13.3 13.301 13.3s13.301-5.955 13.301-13.3c0-7.346-5.955-13.301-13.301-13.301Zm-14.432 13.301c0-7.971 6.461-14.433 14.432-14.433s14.432 6.462 14.432 14.433c0 7.97-6.461 14.432-14.432 14.432s-14.432-6.462-14.432-14.432Z" fill="#022F45"/><path d="M89.066 446.891c7.658 0 13.866-6.208 13.866-13.866 0-7.659-6.208-13.867-13.866-13.867-7.659 0-13.867 6.208-13.867 13.867 0 7.658 6.209 13.866 13.867 13.866Z" fill="#FEFEFE"/><path fill-rule="evenodd" clip-rule="evenodd" d="M89.065 419.724c-7.346 0-13.3 5.955-13.3 13.301 0 7.345 5.954 13.3 13.3 13.3 7.346 0 13.301-5.955 13.301-13.3 0-7.346-5.955-13.301-13.3-13.301Zm-14.432 13.301c0-7.971 6.461-14.433 14.432-14.433 7.97 0 14.432 6.462 14.432 14.433 0 7.97-6.461 14.432-14.432 14.432-7.97 0-14.432-6.462-14.432-14.432Z" fill="#022F45"/><path d="m352.24 157.313 144.068-.066c32.958 0 66.027-.555 98.974 0 3.128 24.15 8.708 48.022 11.858 72.161h-15.53v137.556c0 20.7-.411 41.489.055 62.189l-137.911.067c-30.518.088-61.146 1.109-91.675.41a2.64 2.64 0 0 1-1.109-1.453 10.733 10.733 0 0 1-3.128-3.384l-1.276-.643c-.089-2.318 0-4.659 0-6.978l.987.089h4.759l-.066-7.943h6.212l.078-6.378h9.573c.089-25.149-.266-50.33.111-75.434h43.652c.599 25.126 0 50.385 0 75.523h10.616v6.3h5.824l.1 8.01 6.057-.056c-.111 3.761-.067 7.544-.089 11.304h146.764c-.71-66.371 0-132.808-.1-199.19H386.152c-9.374 0-18.859.288-28.21-.133a5.04 5.04 0 0 0-1.775 0c-5.27.2-10.55.144-15.819.144l7.843-46.869c1.386-8.309 3.161-16.839 4.049-25.226Z" fill="#022F45"/><path d="M369.656 404.393c7.322.322 14.765 0 22.087 0h39.27v4.825c-20.434.289-40.912.067-61.357 0v-4.825ZM363.678 410.572h73.415v6.844h-73.382l-.033-6.844ZM357.787 418.725c16.352.444 32.747.222 49.11.222 11.992 0 24.172.411 36.142-.366l-.089 9.673h-82.012a10.732 10.732 0 0 1-3.129-3.383l-.022-6.146Z" fill="#FEFEFE"/><path d="M379.363 328.837c13.645.677 27.545.144 41.212 0l-.056 74.047-41.045.067-.111-74.114Z" fill="#FEB703"/><path d="m407.974 339.952-16.052-.088c.044 9.458.092 18.925.144 28.398l15.974.144-.066-28.454Z" fill="#FEB703"/><path d="M353.427 158.456h240.724c3.782 23.295 7.41 46.591 11.648 69.732H342.09c1.02-8.875 2.673-17.616 4.149-26.391l7.188-43.341Z" fill="#fff"/><path d="M410.016 183.116c2.795.898 4.892 1.387 7.099 3.561 2.663 2.618 2.862 6.134 2.885 9.64h-9.984v-13.201ZM406.342 183.449c.655 0 1.298.055 1.941.1.788 2.806.156 9.595.156 12.779h-8.198l-1.587-.532a5.972 5.972 0 0 1-.509-2.517c.016-.866.22-1.719.598-2.498a13.18 13.18 0 0 1 7.599-7.332ZM536.51 183.449l2.54.066c-.643 3.994-.066 8.686 0 12.769h-6.412c-.887 0-1.752 0-2.64-.067a2.395 2.395 0 0 1-1.109-1.353 5.83 5.83 0 0 1 .532-4.615 12.901 12.901 0 0 1 7.089-6.8ZM540.236 183.449a9.154 9.154 0 0 1 6.923 2.673c2.917 2.851 3.172 6.368 3.15 10.173h-10.073v-12.846ZM529.001 197.515h9.607c.333 3.994.943 8.875-.122 12.802v.188c-2.219.921-6.978.255-9.496.244l.011-13.234ZM409.926 197.515h9.984v13.234h-9.984v-13.234ZM398.344 197.515h10.084v13.234h-10.04l-.044-13.234ZM540.238 197.515h10.061v13.234h-10.072l.011-13.234Z" fill="#022F45"/><path d="M453.479 238.793c11.093.898 22.53.155 33.656.211v59.792c-11.193-.144-22.474-.155-33.656.056v-60.059ZM541.225 238.97h33.723c.178 14.011.089 28.022.1 42.022 0 4.969.732 13.478-.244 18.071-4.941-.33-9.895-.393-14.843-.189-6.234 0-12.469 0-18.703-.089l-.033-59.815ZM497.43 238.815c11.093.766 22.608.222 33.745.167.233 12.712.078 25.459.067 38.171 0 7.133.422 14.488-.089 21.599-11.248-.078-22.497.122-33.757 0l.034-59.937ZM383.534 238.915h33.845v43.131c0 5.369.644 11.647-.199 16.883-11.093-.61-22.464-.088-33.602-.221-.554-19.857-.155-39.825-.044-59.793ZM544.975 346.919c10.539 2.219 21.255 4.082 31.849 6.046v48.056c0 7.255.344 14.621 0 21.864-10.55-.51-21.354 0-31.948-.155l.099-49.354c-.088-8.808-.321-17.66 0-26.457ZM482.033 347.396c.499-.056.199-.078.876.255.91 5.025.178 15.076.189 20.722l.099 54.557c-10.139-.4-20.444 0-30.617-.1l-1.165-.244c-.987-1.831-.355-62.377-.277-69.588 10.294-2.041 20.556-4.26 30.895-5.602ZM500.891 346.941c10.661-.177 21.377 0 32.037 0 .378 25.282.067 50.607 0 75.9-10.56.599-21.354 0-31.948.067-.599-25.293-.022-50.674-.089-75.967Z" fill="#FEB703"/><path d="M453.944 303.822c39.935.732 80.093.066 120.073 0 1.187 11.736 3.772 23.473 5.547 35.154H448.131l5.813-35.154ZM467.733 349.792h-1.131v73.315h1.131v-73.315Z" fill="#022F45"/><path d="M483.185 388.94h-32.259v1.132h32.259v-1.132ZM517.553 349.792h-1.131v73.315h1.131v-73.315Z" fill="#022F45"/><path d="M533.005 388.94h-32.259v1.132h32.259v-1.132ZM561.549 349.559h-1.131v73.315h1.131v-73.315Z" fill="#022F45"/><path d="M577.001 388.707h-32.259v1.132h32.259v-1.132ZM558.919 238.959h-1.054v59.904h1.054v-59.904Z" fill="#022F45"/><path d="M575.313 270.875h-34.067v1.053h34.067v-1.053ZM515.044 238.86h-1.054v59.903h1.054V238.86Z" fill="#022F45"/><path d="M531.431 270.775h-34.068v1.054h34.068v-1.054ZM470.962 238.793h-1.054v59.903h1.054v-59.903Z" fill="#022F45"/><path d="M487.347 270.719h-34.068v1.054h34.068v-1.054ZM401.128 239.004h-1.054v59.903h1.054v-59.903Z" fill="#022F45"/><path d="M417.513 270.919h-34.068v1.054h34.068v-1.054ZM408.04 354.107h-16.118v1.11h16.118v-1.11Z" fill="#022F45"/><path d="M591.621 430.529H346.826V228.931h244.795v201.598Zm-243.686-1.11h242.577V230.04H347.935v199.379Z" fill="#022F45"/><circle cx="400.598" cy="59.598" r="53.098" fill="#fff" stroke="#022F45"/><path d="M431.136 57.516v.026l.159.02 3.871.485-3.167-.417-.863-.114ZM406.742 37.736v31.507h-42.816V37.736h42.816Zm-.546.545h-41.725v30.416h41.725V38.281Z" fill="#022F45"/><path d="M364.472 38.281v30.416h8.52a7.857 7.857 0 0 1 8.965 0h24.24V38.281h-41.725Z" fill="#fff"/><path d="m431.237 46.185 4.478 11.804-.581-.055-3.127-.304-.692-.068-.442-.043-.755-.076-.556-.052-11.367-1.102V46.185h13.042Zm-12.7 9.78 10.678 1.033.803.078 4.99.483.176.018-3.298-8.683-.895-2.362h-12.454v9.432Z" fill="#022F45"/><path d="m427.528 55.15.129.14 1.546 1.708.325.357.005.036 1.67 11.321.076.513.535-.078-.062-.432-1.663-11.272-.048-.33-.035-.037-1.62-1.786-.458-.505-.4.364ZM413.176 44.2v20.485h.54V44.743h11.385l1.781 1.384.075.058.229.178.232.179.193.15.119-.15.138-.179.075-.098-.103-.08-1.693-1.316-.86-.669h-12.111Z" fill="#022F45"/><path d="M426.807 46.363h1.937v8.927h-1.937v-8.927Z" fill="#022F45"/><path d="M409.401 68.75V42.341h20.556c.112.169.211.346.296.53a4325.46 4325.46 0 0 1 6 16.391c.146.426.221.873.221 1.323.027 2.886.049 5.772.065 8.658h.025l-.02.923c0 1.273.007 2.546.02 3.819-.022.39-.065.779-.13 1.164h-72.508V68.75h45.475Zm21.366-.043h5.053v-1.662l-1.129-.38c-.068-1.678-.046-3.363 0-5.069l1.119-.251c.302-1.185 0-2.191-.629-3.295l-.04-.114-.136-.374-3.119-8.668-.538-1.497-.441-1.222-.032-.091c-.264-.712-.516-1.404-.783-2.098l-.251-.697-.149-.4h-19.511c-.252 1.095-.307 20.232-.038 21.796h3.3l.272-.023.458-.035a13.597 13.597 0 0 1 9.608 4.08h6.986Z" fill="#022F45"/><path d="m430.09 57.446 1.663 11.269h4.067v-1.663l-1.13-.38c-.067-1.677-.045-3.363 0-5.068l1.12-.252c.302-1.184 0-2.19-.629-3.295l-3.871-.485-.443-.043-.777-.083Z" fill="#fff"/><path d="m428.388 55.29 1.62 1.786 4.99.483-3.111-8.655-.896-2.362h-2.246v8.748h-.357Z" fill="#9AACB5"/><path d="M418.527 46.542v9.422l10.678 1.034-1.547-1.708h-.85v-8.748h-8.281Z" fill="#9AACB5"/><path d="M413.716 44.743v19.92l.457-.036a13.598 13.598 0 0 1 9.609 4.08h7.423l-1.67-11.319-11.367-1.102V46.185h8.789l-.076-.058-1.781-1.384h-11.384Z" fill="#fff"/><path d="M410.137 64.685h3.036V44.2h12.112l.86.669 1.698 1.316h3.053l-.032-.089-1.029-2.804-.148-.4h-19.512c-.264 1.092-.307 20.229-.038 21.793ZM377.472 71.877a3.271 3.271 0 1 1 0 6.542 3.271 3.271 0 0 1 0-6.542Zm0 5.938a2.662 2.662 0 1 0-1.883-.777 2.665 2.665 0 0 0 1.883.782v-.005Z" fill="#fff"/><path d="M377.473 67.6a7.547 7.547 0 1 1-7.546 7.547 7.563 7.563 0 0 1 7.546-7.547Zm0 14.798a7.253 7.253 0 0 0 7.245-7.244 7.237 7.237 0 0 0-3.062-5.906 6.967 6.967 0 0 0-.9-.556 7.215 7.215 0 0 0-6.565 0 7.068 7.068 0 0 0-.901.556 7.241 7.241 0 0 0-3.061 5.906 7.253 7.253 0 0 0 7.244 7.244Z" fill="#fff"/><path d="M372.292 69.243c.198-.174.407-.337.621-.503l.078-.053a7.857 7.857 0 0 1 8.965 0l.078.053a7.883 7.883 0 0 1 3.3 6.41 7.86 7.86 0 0 1-15.719 0 7.856 7.856 0 0 1 2.677-5.906Zm-2.063 5.911a7.243 7.243 0 0 0 12.367 5.123 7.247 7.247 0 0 0 2.122-5.123 7.241 7.241 0 0 0-3.061-5.906 7.068 7.068 0 0 0-.901-.556 7.215 7.215 0 0 0-6.565 0 7.068 7.068 0 0 0-.901.556 7.241 7.241 0 0 0-3.061 5.906Z" fill="#022F45"/><path d="M373.291 69.243a7.068 7.068 0 0 1 .901-.556 7.214 7.214 0 0 1 6.565 0 7.068 7.068 0 0 1 .901.556 7.241 7.241 0 0 1 3.061 5.906 7.243 7.243 0 0 1-12.367 5.123 7.243 7.243 0 0 1-1.311-8.449 7.241 7.241 0 0 1 2.25-2.58Zm4.183 9.186a3.27 3.27 0 1 0 0-6.542 3.27 3.27 0 0 0 0 6.542Z" fill="#fff"/><path d="M377.472 71.877a3.271 3.271 0 1 1 0 6.542 3.271 3.271 0 0 1 0-6.542Zm0 5.938a2.662 2.662 0 1 0-1.883-.777 2.665 2.665 0 0 0 1.883.782v-.005Z" fill="#022F45"/><path d="M374.843 75.588a2.662 2.662 0 1 1 5.255-.851 2.662 2.662 0 0 1-5.255.851ZM416.074 71.877a3.265 3.265 0 0 1 3.021 2.018 3.275 3.275 0 0 1-.709 3.564 3.27 3.27 0 1 1-2.312-5.582Zm0 5.938a2.66 2.66 0 0 0 2.61-3.18 2.665 2.665 0 0 0-2.091-2.091 2.663 2.663 0 0 0-2.732 1.132 2.664 2.664 0 0 0 2.213 4.144v-.005Z" fill="#fff"/><path d="M416.075 67.6a7.546 7.546 0 1 1-7.546 7.547 7.555 7.555 0 0 1 7.546-7.547Zm0 14.798a7.248 7.248 0 1 0-7.244-7.244 7.253 7.253 0 0 0 7.244 7.244Z" fill="#fff"/><path d="M416.073 67.294a7.861 7.861 0 1 1 .02 15.722 7.861 7.861 0 0 1-.02-15.722Zm0 15.104a7.248 7.248 0 1 0 .004-14.495 7.248 7.248 0 0 0-.004 14.495Z" fill="#022F45"/><path d="M416.073 67.907a7.249 7.249 0 0 1 7.11 8.66 7.246 7.246 0 1 1-7.11-8.66Zm0 10.522a3.27 3.27 0 1 0 0-6.542 3.27 3.27 0 0 0 0 6.542Z" fill="#fff"/><path d="M416.074 71.877a3.265 3.265 0 0 1 3.021 2.018 3.275 3.275 0 0 1-.709 3.564 3.27 3.27 0 1 1-2.312-5.582Zm0 5.938a2.66 2.66 0 0 0 2.61-3.18 2.665 2.665 0 0 0-2.091-2.091 2.663 2.663 0 0 0-2.732 1.132 2.664 2.664 0 0 0 2.213 4.144v-.005Z" fill="#022F45"/><path d="M414.193 77.036a2.66 2.66 0 1 1 3.762-3.765 2.66 2.66 0 0 1-3.762 3.765Z" fill="#fff"/><circle cx="474.677" cy="160.677" r="58.177" fill="#fff" stroke="#022F45"/><g clip-path="url(#a)"><path d="M503.188 173.298c0 2.019-.224 8.709-3.06 14.876a22.939 22.939 0 0 1-2.491 4.229 14.439 14.439 0 0 1-1.869 2.121c-3.382 3.21-8.522 4.892-14.74 4.892a39.071 39.071 0 0 1-4.458-.266 49.067 49.067 0 0 1-21.165-7.836c-11.643-7.943-16.063-20.09-17.661-26.631-1.224-4.897-3.406-18.026 4.499-29.435a34.715 34.715 0 0 1 5.841-6.542.175.175 0 0 1 0-.056h.046a29.207 29.207 0 0 1 9.219-5.387 31.02 31.02 0 0 1 9.765-1.714c12.643-.108 22.272 8.223 26.164 12.217l14.783-8.41a1.322 1.322 0 0 1 1.799.496 1.325 1.325 0 0 1-.495 1.798l-14.213 8.074a26.098 26.098 0 0 1 5.606 10.377 26.28 26.28 0 0 1 .687 10.475c3.032-1.504 6.135-1.728 8.457-.383a6.625 6.625 0 0 1 3.135 4.313c.986 4.405-3.154 9.727-9.849 12.792Z" fill="#fff"/><path d="M515.367 160.01a8.992 8.992 0 0 0-4.247-5.854 9.948 9.948 0 0 0-7.055-.935 28.601 28.601 0 0 0-1.01-7.732 28.133 28.133 0 0 0-4.345-9.078l11.84-6.728a3.668 3.668 0 0 0 1.364-4.985 3.667 3.667 0 0 0-4.981-1.369l-13.245 7.526c-4.523-4.303-14.045-11.647-26.291-11.647h-.262a33.62 33.62 0 0 0-10.531 1.869 31.505 31.505 0 0 0-9.069 5.083l-1.509 1.28a37.723 37.723 0 0 0-5.667 6.499c-7.167 10.349-6.616 21.913-5.462 28.435h-.107l.705 2.892c1.677 6.873 6.326 19.624 18.619 28.006a51.496 51.496 0 0 0 22.23 8.199c1.57.184 3.148.278 4.729.281 6.882 0 12.535-1.911 16.352-5.532a16.707 16.707 0 0 0 2.131-2.439 25.144 25.144 0 0 0 2.724-4.63c2.509-5.448 3.116-11.167 3.242-14.381 6.929-3.645 10.947-9.564 9.845-14.76Zm-13.153 11.153-1.364.626v1.5c0 1.808-.205 8.157-2.85 13.904a20.571 20.571 0 0 1-2.233 3.799l-.038.051a12.037 12.037 0 0 1-1.546 1.775c-2.93 2.804-7.476 4.252-13.134 4.252a36.045 36.045 0 0 1-4.205-.252 46.582 46.582 0 0 1-20.123-7.434c-10.228-6.957-14.568-17.436-16.353-23.875l-.35-1.401c-1.192-4.761-3.168-16.974 4.153-27.566a32.567 32.567 0 0 1 5.303-6l.197-.168a26.892 26.892 0 0 1 8.48-4.957 28.546 28.546 0 0 1 8.998-1.579h.22c11.793 0 20.861 8.036 24.23 11.507l1.257 1.299.528.598a23.596 23.596 0 0 1 5.139 9.452 24.016 24.016 0 0 1 .622 9.541l-.594 4.364 3.948-1.958c2.407-1.196 4.673-1.359 6.252-.467a4.322 4.322 0 0 1 2.018 2.775c.72 3.29-2.971 7.667-8.555 10.223v-.009Z" fill="#fff"/><path d="M513.084 160.501a6.656 6.656 0 0 0-3.135-4.317c-2.336-1.341-5.42-1.117-8.457.383a26.108 26.108 0 0 0-6.293-20.848l14.212-8.078a1.315 1.315 0 1 0-1.303-2.289l-14.783 8.41c-3.873-3.995-13.498-12.326-26.164-12.218a30.882 30.882 0 0 0-9.766 1.715 29.176 29.176 0 0 0-9.218 5.387h-.047a.262.262 0 0 0 0 .056 34.673 34.673 0 0 0-5.84 6.541c-7.905 11.419-5.723 24.548-4.499 29.435 1.598 6.541 6.018 18.689 17.666 26.632a48.952 48.952 0 0 0 21.16 7.83c1.479.178 2.968.268 4.457.271 6.219 0 11.358-1.687 14.746-4.892a14.698 14.698 0 0 0 1.841-2.121 22.767 22.767 0 0 0 2.49-4.233c2.836-6.167 3.06-12.853 3.06-14.872 6.672-3.06 10.812-8.386 9.873-12.792Zm-63.543-30.963a27.48 27.48 0 0 1 7.238-4.368 43.808 43.808 0 0 1 15.292 9.171 43.553 43.553 0 0 1 6.513 7.583l-25.945 14.643a44.945 44.945 0 0 1-3.093-9.681 45.066 45.066 0 0 1 .014-17.348h-.019Zm17.615-6.429h.257c11.54 0 20.464 7.434 24.375 11.363l-11.826 6.677a44.998 44.998 0 0 0-6.821-7.943 45.171 45.171 0 0 0-14.063-8.835 29.516 29.516 0 0 1 8.097-1.271l-.019.009Zm-23.595 13.026a33.778 33.778 0 0 1 4.088-4.882A46.32 46.32 0 0 0 448 147.19a46.58 46.58 0 0 0 3.27 10.157l-12.017 6.78c-1.168-4.818-3.13-17.227 4.327-27.992h-.019Zm58.501 35.93-.467.215v.532c.023.809.135 8.078-2.911 14.704a21.48 21.48 0 0 1-2.336 3.957 13.2 13.2 0 0 1-1.659 1.906c-8.232 7.803-26.837 4.49-38.391-3.368a38.107 38.107 0 0 1-6.542-5.63c3.472-1.253 5.92-4.205 6.247-7.602.355-3.63-1.869-6.238-2.303-6.728 3.803.262 7.008-2.57 7.302-5.957.234-2.804-1.541-5.471-4.205-6.583l36.953-20.997a24.568 24.568 0 0 1 5.509 9.998 24.795 24.795 0 0 1 .467 11.083 18.733 18.733 0 0 0-3.612 3.186l1.187 1.042c3.738-4.28 8.737-6.074 11.853-4.275a5.14 5.14 0 0 1 2.383 3.271c.813 3.793-3.167 8.536-9.456 11.246h-.019Z" fill="#022F45"/><path d="M481.185 181.166c-3.453-.537-6.317-2.233-8.943-4.546a6.447 6.447 0 0 1 2.276-1.607 8.615 8.615 0 0 1 3.196-.659c-2.103-1.5-5.303-.804-6.948 1.159-1.724 1.892-1.995 5.139-.243 7.041a7.528 7.528 0 0 1 1.378-5.518 10.462 10.462 0 0 0 2.762 3.882 11.538 11.538 0 0 0 7.676 2.911c3.196 0 6.541-1.364 8.527-3.887-3.13 1.093-6.406 1.761-9.681 1.224ZM485.409 158.95c-2.864.341-5.443-1.238-7.167-3.738-.177 3.738 3.775 6.887 7.508 6.298 3.766-.425 6.71-4.546 5.439-8.13-.911 2.893-2.925 5.163-5.78 5.57ZM481.953 149.872c2.205-1.5 4.616-2.383 7.247-1.846.895.179 1.77.447 2.612.799-2.206-3.929-8.537-3.205-9.859 1.047Z" fill="#022F45"/></g><g clip-path="url(#b)"><path d="M239.587 161.15c0 .093 0 .19.028.284l1.227-.111-1.255-.173Zm202.808 334.945c-.435-3.709-8.586-16.546-11.41-18.748-3.693-2.881-8.801-4.229-13.162-5.782-.9-3.235-2.434-6.858-5.539-8.543a7.803 7.803 0 0 0-4.771-.776c-1.391-3.297-2.942-6.064-5.349-8.75 3.283-3.037 5.696-6.684 5.825-11.309.087-2.857-.751-5.422-2.232-7.845-3.6-5.894-8.576-11.201-12.61-16.835-14.887-20.839-30.709-43.307-39.726-67.387-6.214-16.616-8.405-40.627-9.991-58.429-.647-7.308-1.478-14.779-1.366-22.122l9.945-2.263c-1.739-4.66-3.411-9.257-4.475-14.124-3.558-16.249-1.071-33.735 4.301-49.363 2.226-6.445 5.324-12.082 6.708-18.863 4.994-24.34-3.063-47.474-26.494-58.183-5.244-2.389-10.721-3.848-16.383-4.853l.251 1.958-.449 1.078a4.447 4.447 0 0 1-2.121 3.03c-2.302 1.491-5.661 1.82-8.294 1.165a61.563 61.563 0 0 1-4.048-1.158h-.027c-3.384-1.102-6.656-2.586-9.487-4.683l-.942-1.973c-15.433 2.451-32.396 6.913-45.44 16.204a59.488 59.488 0 0 0-4.948 3.903l-.063 2.132 1.575 18.829 44.164 4.728-47.22 36.297-14.185 10.862-12.015-1.387-47.022-5.377-52.422-6.271c2.525-1.53 5.052-3.055 7.581-4.573l-.744-.631-.64-.551-10.005 6.108L94 249.455l40.366 6.74 22.548 40.741 62.897.718c-12.196 50.355-2.536 105.39 16.02 152.94 3.697 9.475 8.596 21.9 13.84 30.487 2.129 3.467 4.942 5.935 8.965 6.933 4.806 1.172 10.311.534 15.218.292.424 3.186 1.446 5.893 2.781 8.802-2.284 1.386-4.868 3.141-5.563 5.893-1.569 6.376 8.474 12.595.977 17.514-3.28 2.157-6.802 2.34-10.575 2.122 2.744-2.475 6.607-6.126 6.843-10.015.07-1.096-.146-2.313-.977-3.1l-2.138-.638c-1.53.129-3.165 1.56-4.024 2.743l-1.714 3.262c-.936-3.287-1.774-6.961-5.001-8.799l-3.168-.607c-1.161.302-1.94 1.287-2.399 2.341-1.071 2.457-.466 5.255.556 7.626l2.709 5.072c-5.126-1.795-10.804-4.971-16.205-2.329-4.319 2.114-4.472 5.494-6.638 9.103-2.292 3.408-3.825 6.438-3.036 10.682 1.255 6.652 6.552 12.442 12.063 16.04 7.877 5.142 16.692 6.039 25.768 4.046 13.458-2.95 25.187-12.2 38.774-14.072 4.284-.585 10.87-.249 13.52-4.333 2.406-3.71.348-10.706-.303-14.807-.285-1.889-.372-3.848-.865-5.703-1.391-5.269-6.528-9.603-10.464-13.149.348-3.408.633-7.28-1.621-10.172-1.123-1.442-2.639-2.114-4.249-2.856.511-3.581-.104-6.729-1.203-10.14 4.521-2.191 8.533-4.729 10.189-9.794a15.49 15.49 0 0 0 .181-8.608c-.752-3.047-2.07-6.032-3.175-8.965-1.861-4.93-3.707-9.846-5.411-14.817-7.035-20.454-13.656-41.255-17.62-62.523-1.524-8.127-2.762-16.592-2.65-24.875.069-5.273.695-10.597 1.144-15.85l.135.347c1.489 4.125 2.33 8.594 3.422 12.848 1.391 5.429 3.036 10.813 4.844 16.117 10.725 31.478 27.82 60.124 49.161 85.57 4.242 5.058 13.91 16.766 19.623 19.38 5.714 2.614 12.171.173 17.655-1.966l8.475-3.529a24.626 24.626 0 0 0 4.959 8.705c-1.489 2.243-3.29 5.176-2.814 7.973 1.082 6.317 13.166 7.828 8.284 15.379-2.069 3.193-5.217 5.065-8.777 6.219 1.505-3.383 3.498-8.438 2.027-12.078-.39-.96-1.092-1.986-2.114-2.329l-2.163.412c-1.513 1.04-2.389 3.03-2.664 4.77l-.424 3.12c-1.621-2.52-3.794-5.297-6.917-5.917a4.75 4.75 0 0 0-3.477.568 4.086 4.086 0 0 0-1.218 1.262 4.05 4.05 0 0 0-.573 1.654c-.285 1.986.65 3.883 1.888 5.377 1.798 2.18 4.326 3.917 6.777 5.297-4.718.208-12.125-.371-15.561 3.425-3.13 3.467-2.98 8.32-3.238 12.675-.104 1.65-.347 3.338-.208 4.988.347 3.786 2.83 6.833 5.713 9.121 6.1 4.854 14.953 6.858 22.624 5.97 19.033-2.191 28.484-21.019 41.518-32.435 3.999-3.501 10.102-5.297 13.381-9.36 1.116-1.383 1.895-3.093 1.697-4.868Z" fill="#022F45"/><path d="m427.901 437.597.609.09c1.179.291 1.951 2.053 2.375 3.075 2.671 6.414 2.052 15.119-.497 21.46l-.842-.274c-1.116-1.557 1.391-8.085 1.363-10.498-.059-4.749-3.178-11.863-3.008-13.853ZM460.548 440.918l.939.375.285 1.809c-1.137 8.275-11.062 20.801-17.544 25.876l-1.015-.731c.302-1.973 4.281-4.594 5.738-6.168a47.679 47.679 0 0 0 3.721-4.697c3.616-5.069 5.96-10.584 7.876-16.464ZM440.26 417.92l1.346.145 1.176 2.32c3.953 14.664 2.782 32.965-5.057 46.208l-1.078-.548c-.549-.891.745-3.002 1.183-4.007a61.747 61.747 0 0 0 4.454-35.074c-.459-2.825-1.665-5.63-1.964-8.445l-.06-.599ZM349.533 116.137c3.874.582 10.78 8.889 13.117 11.891 6.493 8.386 14.414 25.443 13.023 36.221-.389-.094-1.154-.278-1.433-.555-.566-.565-.695-4.978-.789-5.973-.386-3.592-1.391-7.156-2.584-10.556a64.329 64.329 0 0 0-15.102-24.067c-1.739-1.733-3.825-3.085-5.526-4.801-.841-.829-.681-1.078-.706-2.16ZM198.633 505.539a71.42 71.42 0 0 1 14.807 1.296c2.264.465 5.584 1.19 6.902 3.207l-.459 1.411c-2.684 3.002-11.256 2.999-14.928 3.12-5.648.049-11.476-.145-16.949-1.577-1.763-.458-4.382-1.016-5.356-2.659l.55-1.525c3.039-3.311 11.19-3.01 15.433-3.273Z" fill="#022F45"/><path d="M192.457 507.699c8.485-.656 18.733-.812 26.512 2.939l-8.85 1.866c-8.62.735-17.832.419-25.976-2.711 2.747-1.2 5.351-1.703 8.314-2.094Z" fill="#FEFEFE"/><path d="m157.035 529.543 4.521-.146c1.509 0 5.248-.163 6.329.888l-.65-.389.302.631c-2.99 1.082-6.259.604-9.389.78-8.266.468-18.055 1.418-25.611 4.909-.925.427-1.391.739-1.739 1.703l.163.346c3.273 5.311 33.659.267 41.173 1.591l.258.507c-2.045 4.631-12.519 5.404-16.862 7.727-1.044.565-1.583 1.04-1.948 2.181l.696 1.293c2.044 2.045 5.911 2.95 8.711 3.38 4.931.763 10.404.392 15.391.392 9.074 0 18.145-.024 27.214-.07l9.81.201.696.662-.473.586c-2 .895-44.007.52-48.983.25-2.848-.153-5.683-.388-8.426-1.2-1.989-.589-5.272-1.785-6.124-3.813a4.091 4.091 0 0 1-.289-1.611c.014-.552.14-1.094.369-1.596 1.638-3.505 12.616-5.512 16.313-7.055l.518-.218c-8.026-.111-31.934 3.12-37.904-.666-.939-.596-1.812-1.577-1.941-2.721l.675-1.955c3.832-4.552 20.931-6.109 27.2-6.587ZM458.088 523.552c2.459-.163 4.775-.1 7.143.694 1.718.575 3.651 1.632 4.441 3.352a3.114 3.114 0 0 1 .028 2.704c-.95 2.059-3.478 3.082-5.498 3.779l3.592 2.149c.974.784 2.305 2.382 2.278 3.72-.126 6.14-14.366 3.612-16.292 5.457.74.866 1.346 1.709 1.339 2.908l-1.089 2.132c-2.702 2.393-8.78 2.528-12.22 2.705-12.045.613-24.217-.202-36.259-.545-18.646-.527-37.292-.95-55.931-1.581-4.869-.166-9.737-.315-14.605-.371-2.483-.031-5.933.347-8.322-.19l-1.349-1.082.375-.513c3.019-1.04 14.324.083 18.121.191l88.814 2.454c4.931.059 17.266.323 20.642-2.974.108-1.997-4.315-1.983-5.508-3.436.061-.243.156-.476.282-.693.594-.749 15.342-1.553 18.778-3.259.859-.426 1.273-.787 1.568-1.695l-.32-.694c-2.722-3.345-8.912-3.03-12.689-3.546l-2.086-.988.156-.347 1.888-.346c3.68.166 9.922-.798 12.418-3.661l.48-1.536c-.744-1.175-1.961-1.692-3.23-2.153-6.517-2.378-12.321 1.851-15.012 1.04l-.115-.582c1.342-1.97 5.912-2.639 8.182-3.093Z" fill="#022F45"/><path d="m241.594 261.606 3.262 1.9 1.234.936-.591.766-1.141.915-1.043.087-1.721-4.604ZM250.484 288.054c3.325-.045 4.667 3.97 8.652 1.619l.696.226-6.955 5.487-2.393-7.332Z" fill="#FEFEFE"/><path d="m252.37 283.437 1.656.052c-.074 1.223.146 2.225 1.008 3.154l2.744 1.609.114.939 1.228.482c-3.985 2.351-5.327-1.664-8.652-1.619l-.393-.346-.765.79-.289-.25.891-1.761.097-.346c1.412-.552 1.728-1.422 2.361-2.704Z" fill="#022F45"/><path d="m384.019 491.828.97.346.949 1.436c.88 2.718-1.043 7.54-2.496 9.908l-.974.277-.421-1.494c-.302-3.304-.295-7.859 1.972-10.473ZM264.935 510.534l1.241.645.459 1.359c-.118 3.009-3.95 6.587-6.131 8.418l-.932.183-.347-.783c.149-3.041 3.515-7.925 5.71-9.822ZM370.776 494.112l3.13.527c2.799 1.647 5.609 5.738 6.43 8.844.261.974.347 1.085-.167 1.945-2.782-.558-5.216-1.914-7.383-3.741-1.439-1.217-3.067-2.842-3.168-4.853-.059-1.21.418-1.858 1.158-2.722ZM251.39 507.491l2.403.26c1.805.908 2.803 3.584 3.248 5.394.591 2.427 1.022 5.921-.285 8.137l-.759-.441c-2.862-1.844-5.251-5.765-5.8-9.086-.309-1.851.09-2.798 1.193-4.264ZM276.403 249.483l3.259.232a6.192 6.192 0 0 1 3.692 3.231 6.16 6.16 0 0 1 .168 4.895c-.814 2.119-2.459 3.252-4.479 4.115l-3.241-.235a6.757 6.757 0 0 1-2.325-1.316 6.72 6.72 0 0 1-1.629-2.113 5.905 5.905 0 0 1-.153-4.614c.873-2.288 2.549-3.273 4.708-4.195ZM400.53 455.125l.199.09c3.307 2.17 4.732 7.072 5.563 10.699l-.448 1.3c-1.391 3.491-5.077 6.24-8.495 7.654-1.899.78-3.245 1.162-5.217.347-3.477-2.649-5.042-6.015-6.909-9.814 5.584-2.933 10.62-6.074 15.307-10.276ZM295.762 483.66l.191.167c1.116 1.487 1.593 6.132 1.464 7.89-.174 2.451-1.123 4.715-3.05 6.292-2.67 2.195-7.163 2.832-10.533 2.465-1.707-.187-2.806-.381-3.898-1.751-2.25-3.421-3.411-6.763-4.479-10.695 6.983-.419 13.712-2.108 20.305-4.368ZM316.904 234.728l4.072 8.903-42.72 32.397-2.584 1.733a25.709 25.709 0 0 1 9.368-10.296c1.614-1.04 3.446-2.08 4.802-3.467 1.423-1.428 2.299-3.366 3.735-4.822 2.841-2.881 6.002-5.457 8.882-8.299a212.36 212.36 0 0 0 14.445-16.149ZM227.729 220.608c1.766.86 25.712 29.312 28.313 32.865l-2.236.042c-3.13-.076-7.108-1.064-10.126-.146-2.111.645-2.748 2.004-3.718 3.793l-12.233-36.554Z" fill="#FEFEFE"/><path d="m408.149 463.854 3.477.694c2.539 2.347 3.648 5.023 4.757 8.199l-3.63 5.519c-3.617 4.413-11.476 10.955-17.349 11.52l-4.354-2.902c-1.585-1.279-2.945-2.995-3.088-5.096-.111-1.64.619-3.962 1.812-5.11l4.827.811c3.008.156 7.355-2.614 9.514-4.617 2.813-2.594 3.839-5.267 4.034-9.018ZM299.11 495.132l2.781 2.215c1.805 2.714 1.339 6.185.776 9.197-6.214 4.791-15.6 8.321-23.539 7.301-1.638-.208-2.368-.44-3.377-1.754-1.491-2.371-3.334-5.242-2.781-8.164.462-2.462 2.434-3.852 4.346-5.2l2.661 2.551c3.018 1.734 7.264 1.387 10.533.534 4.138-1.061 6.499-3.113 8.6-6.68ZM435.965 487.546l.25.226c1.996 2.153 4.33 6.105 4.194 9.072-.177 3.935-5.314 6.022-8.269 7.773-11.264 6.687-18.295 18.478-27.997 27.086-7.021 6.24-14.717 9.911-24.245 9.263-7.821-.534-14.056-3.737-19.15-9.6-1.391-2.399-1.489-4.565-1.635-7.28l2.087 3.051c4.395 5.519 11.194 9.489 18.263 10.262 19.126 2.08 27.521-18.118 38.141-29.815 3.477-3.837 8.363-6.24 12.359-9.495 3.682-3.006 5.522-5.769 6.002-10.543ZM314.3 528.08l1.133 3.054c.567 2.482.529 5.471-.942 7.658-2.285 3.405-9.483 2.978-13.197 3.613-13.329 2.281-25.093 11.183-38.513 13.971-8.345 1.733-16.204.807-23.354-3.966-5.894-3.935-10.186-9.177-11.57-16.18.032-2.378.658-4.056 1.715-6.129l2.034 7.384c2.556 6.095 7.546 11.628 13.753 14.138 16.692 6.746 30.529-7.593 44.905-13.205 5.936-2.32 12.633-2.101 18.468-4.691 2.817-1.251 4.417-2.804 5.568-5.647ZM267.379 250.897l2.167 3.103c-.021 2.638.041 5.453 2.086 7.423 2.782 2.676 7.032 1.899 10.193 3.893l.441.27.265.167c-1.663 2.194-4.156 3.598-5.71 5.792-2.456 3.467-6.928 16.939-11.507 17.099l-1.777-.694c-.494-1.386-.132-2.426.469-3.706l1.913-4.229-.313-.666-.602-.152c-3.415 2.159-2.782 7.259-7.229 9.058l-2.744-1.608c-.863-.929-1.082-1.931-1.009-3.155l-1.655-.052c-.633 1.283-.949 2.153-2.361 2.687-1.777.118-3.825.329-5.216-1.04l-.65-2.174c.389-3.98 4.43-7.866 7.003-10.681.445-.485 1.36-1.231 1.645-1.785.32-.621.094-.881-.233-1.387l-1.315.218c-3.334 2.527-6.495 10.092-10.686 10.449l-1.85-1.432-.323-2.589c1.2-4.067 11.055-9.569 10.304-12.682-2.205-1.276-5.564-1.615-6.215-4.469l.279-2.312c.556-.912 1.46-1.12 2.451-1.227l17.481 1.55 4.698-5.669Z" fill="#FEFEFE"/><path d="M252.369 283.436c1.346-3.154 4.031-8.833 7.303-10.324l.469.233c-.017 1.775-4.701 8.497-6.11 10.143l-1.662-.052Z" fill="#022F45"/><path d="m309.949 197.79 5.873.031c7.143.908 14.88 4.684 19.345 10.4-4.413 6.587-10.554 15.122-16.076 20.753-3.085 3.151-6.802 5.546-9.737 8.888-1.701 1.924-2.692 4.4-4.173 6.476-2.883 3.973-6.861 7.426-10.533 10.65l-4.973 4.084-3.613-2.493c-.275-2.315-.546-4.361-2.087-6.24-2.041-2.503-5.216-2.794-8.213-3.12l-2.629-3.338a398.02 398.02 0 0 0 26.216-32.241c2.299-3.131 7.598-12.463 10.6-13.85Z" fill="#FEFEFE"/><path d="M348.17 207.916c.11.218.185.452.222.694-.052 2.035-1.186 4.916-1.655 6.964a125.58 125.58 0 0 0-2.361 13.122c-1.433 12.227.25 26.108 5.216 37.407-21.334 4.614-43.326 8.212-65.195 8.687l-.411-.135.028-.416 39.295-30.133-4.903-11.094 14.842-18.765c1.998.638 4.11.838 6.193.586 4.006-.586 6.42-3.96 8.729-6.917Z" fill="#FEB703"/><path d="M417.979 473.624c4.556 1.549 10.405 3.206 13.677 6.933 1.885 2.16 2.556 4.892 2.319 7.71-.695 8.224-11.823 11.936-16.98 17.171-7.271 7.381-11.823 17.248-19.766 24.001-4.927 4.188-10.752 6.68-17.304 6.126-6.04-.514-12.727-4.102-16.538-8.768-2.57-3.148-4.041-6.673-3.62-10.771l2.225-4.133c3.61-4.26 10.398-3.269 15.419-3.768 5.609 2.773 6.329 2.635 10.349 7.686.57.717.821 1.137 1.739 1.276l.542-.52-.104-1.144c-1.224-3.519-6.2-6.289-9.316-7.912l7.07-1.813c4.906 1.54 6.304 2.139 9.91 5.894.696.735 1.61 1.702 2.647 1.733l-.261-2.257c-1.798-3.231-6.35-5.321-9.709-6.351l4.305-3.838c2.274-2.912 2.528-5.893 2.107-9.401l1.715-.604c8.158-3.182 15.933-9.131 19.574-17.25ZM303.905 508.181c3.369 2.08 8.714 7.626 9.691 11.575.696 2.774.466 5.8-1.109 8.241-4.667 7.235-16.368 5.893-23.601 8.909-9.737 4.074-18.233 11.524-28.655 13.847-5.911 1.317-12.066.811-17.22-2.528-5.428-3.519-9.799-9.516-11.096-15.874-.727-3.557-.268-6.691 1.721-9.738l3.366-2.774c4.949-2.565 11.051 1.335 15.84 2.808 1.269 1.859 3.255 3.561 4.288 5.547 1.105 2.108 1.557 4.583 2.653 6.698l.942.981.219-1.002c.435-4.16-2.517-8.32-4.99-11.44l5.143.926c6.98 1.903 7.077 7.28 10.085 12.414l.435.076.796-1.473c.024-3.512-3.898-8.216-6.232-10.556 2.435-.579 4.758-1.21 6.847-2.673 2.369-1.661 3.586-3.911 4.118-6.688 11.072.33 17.502-1.203 26.759-7.276ZM287.843 168l16.542 16.016-3.081 2.881c-1.52 1.387-3.982 3.245-3.978 5.512 0 3.193 4.732 6.743 6.972 8.768-6.607 10.331-14.498 19.972-22.336 29.384-2.879 3.467-5.654 7.114-8.693 10.435-1.864 2.046-4.458 3.36-6.291 5.415-1.777 1.987-1.881 4.958-4.003 6.962-.667.631-1.568 1.137-2.521.963-1.902-.346-3.721-3.258-4.927-4.69l-29.086-34.359L287.843 168ZM224.883 219.419c1.697 1.713 14.745 42.534 16.709 48.188l-4.099 5.769c-.825 1.733-1.454 3.921-.738 5.786.95 2.465 2.841 2.285 4.917 3.28l.724 2.874c1.923 2.121 3.439 3.068 6.301 3.515l2.385 7.138c-9.26 0-91.888-.631-92.771-1.078-.191-.097-.309-.302-.462-.454l-21.154-38.031 77.645 12.789 10.543-49.776Z" fill="#FEFEFE"/><path d="m110.601 203.021 113.211 12.959-10.957 50.878-2.758-.19-113.712-18.631 14.216-45.016Z" fill="#FEFEFE"/><path d="m339.469 270.135.222.107c.814 1.387 1.621 19.067 1.882 21.945 1.787 19.76 3.696 41.337 10.675 59.975 7.501 20.055 19.968 38.637 32.031 56.217 3.94 5.741 8.064 11.399 12.272 16.946 2.608 3.435 5.498 6.815 7.835 10.431a8.395 8.395 0 0 1 1.081 2.427 12.79 12.79 0 0 1-1.109 9.655c-5.648 9.908-25.434 19.507-36.346 22.329-3.881 1.002-7.606 1.006-11.128-1.151-5.867-3.598-17.304-17.68-21.978-23.477-23.559-29.315-41.451-63.473-50.377-100.061-2.967-12.134-4.497-24.614-7.303-36.769-.271-1.185-.504-2.68-1.575-3.349l-.407.302c-.828 3.969 3.477 18.554 3.992 23.959.348 3.695-.539 7.693-.929 11.374-2.055 15.545.122 30.64 3.478 45.831 4.211 18.991 10.161 37.594 16.5 55.975 2.584 7.495 6.103 15.025 8.207 22.631.491 1.749.532 3.594.118 5.363-.82 3.737-3.178 6.528-6.381 8.535-9.225 5.783-21.125 6.833-31.759 7.11-3.081.084-6.399.347-9.417-.398-3.843-.929-6.141-3.29-8.085-6.587-5.015-8.48-8.83-18.253-12.491-27.388-13.955-34.792-22.037-71.322-21.929-108.856.042-15.254 1.36-30.692 5.119-45.509l31.352.045c3.022-2.392 7.449-7.089 11.452-7.003h1.717c3.37-.457 5.717-5.976 7.609-8.4 1.892-2.423 4.521-4.534 7.498-5.297 3.338-.853 7.243-.651 10.686-.821 4.124-.201 8.224-.531 12.331-.961 11.851-1.21 23.403-3.47 35.157-5.13Z" fill="#FEB703"/><path d="M365.24 55.087c-1.353-6.587-5.115-11.749-10.085-16.183-1.537-1.366-3.202-2.583-5.125-4.122 3.905-.43 7.108.427 10.265 1.702.984.399 1.989 1.453 3.13.278-1.391-2.933-3.269-3.557-14.981-4.923.459-.863.855-1.654 1.301-2.427a22.932 22.932 0 0 0 3.004-10.872c.028-1.078.035-2.15-2.045-2.035-.754 4.16-.695 8.744-3.894 12.415-1.496-1.838-2.688-3.665-4.232-5.148-3.071-2.971-7.074-4.358-11.16-5.512-5.974-1.692-12.049-3.037-17.63-5.87a12.992 12.992 0 0 1-5.387-4.763 15.176 15.176 0 0 0-3.644-4.098c-10.053-7.433-24.85-2.385-28.286 8.15a16.914 16.914 0 0 1-2.889 5.045c-4.055 5.151-4.333 11.665-.536 16.987a409.22 409.22 0 0 1 1.69 2.399c-4.74 5.925-4.844 11.555-.459 17.549.37.59.807 1.135 1.301 1.626 2.166 1.85 2.514 4.056 2.062 6.791a75.02 75.02 0 0 0-.303 21.973c1.235 9.277 4.131 17.905 10.78 24.96 1.183 1.255 2.469 2.41 3.853 3.762-.417 2.558-.838 5.11-1.186 7.249l-.925 3.078c3.339 5.807 9.275 8.033 16.15 6.102a19.008 19.008 0 0 0 10.404-7.17l-.507-2.863c.076-2.742.146-5.346.219-8.112 9.41-6.022 16.858-13.78 21.417-23.938 6.19 3.813 13.84.988 16.782-4.424.605-1.113 1.106-2.288 1.784-3.363.696-1.14 1.416-2.368 2.403-3.255 6.381-5.769 8.409-12.824 6.729-20.988Zm-52.092 66.846c-.028.396-.414.805-.716 1.144-3.711 4.077-11.646 5.575-16.637 3.141-2.625-1.272-3.129-2.111-2.733-4.877.348-2.465.883-4.913 1.332-7.364 7.125 1.304 5.64 2.427 18.705-.877.81 2.947.271 5.894.049 8.833Zm41.58-49.446c0 4.773-1.523 9.097-5.564 12.134-2.782 2.11-5.94 2.617-9.261 1.12-.935-.424-1.923-.74-3.324-1.266-.918 1.477-1.85 2.753-2.553 4.14-4.252 8.347-10.78 14.736-18.489 19.999a23.75 23.75 0 0 1-11.792 4.209c-4.74.346-8.795-1.016-12.262-4.14-5.098-4.572-8.06-10.372-9.855-16.775-2.705-9.676-2.858-19.494-1.408-29.374.122-.857.556-1.675.862-2.514.988-6.094 4.987-12.699 10.186-16.64 9.34 5.349 19.522 6.202 30.41 4.038-.487 1.079-.866 1.782-1.137 2.52-1.68 4.58-1.113 8.827 2.086 12.6a38.094 38.094 0 0 0 3.627 3.74c2.473 2.198 3.363 4.853 2.946 8.06a23.7 23.7 0 0 0-.23 4.115c.059 1.387.303 2.773 2.4 3.467.782-.891 1.686-1.865 2.517-2.891 2.688-3.332 5.335-6.695 8.033-10.023a8.193 8.193 0 0 1 1.53-1.425c2.024-1.5 4.173-2.725 6.806-1.588 2.872 1.262 4.461 3.564 4.472 6.494Z" fill="#022F45"/><path d="M350.287 66c-2.649-1.137-4.781.087-6.805 1.588a8.193 8.193 0 0 0-1.53 1.425c-2.699 3.328-5.345 6.69-8.033 10.022-.831 1.04-1.739 2-2.518 2.892-2.086-.694-2.34-2.08-2.399-3.467a23.698 23.698 0 0 1 .229-4.115c.418-3.193-.473-5.862-2.945-8.06a38.055 38.055 0 0 1-3.644-3.744c-3.214-3.772-3.78-8.019-2.087-12.599.271-.738.65-1.442 1.137-2.52-10.888 2.163-21.07 1.31-30.41-4.039-5.199 3.952-9.198 10.556-10.185 16.64-.306.84-.741 1.658-.863 2.514-1.45 9.88-1.297 19.698 1.409 29.374 1.794 6.403 4.757 12.203 9.855 16.776 3.477 3.12 7.521 4.479 12.261 4.139a23.74 23.74 0 0 0 11.792-4.209c7.724-5.262 14.237-11.651 18.49-20 .695-1.386 1.634-2.662 2.552-4.139 1.391.527 2.389.843 3.325 1.266 3.321 1.497 6.464.991 9.26-1.12 4.027-3.044 5.564-7.367 5.564-12.134-.024-2.933-1.614-5.235-4.455-6.49Zm-51.421.79c.296-1.098.626-2.294 2.782-1.857-.327 3.345-1.311 6.202-3.22 8.75-.275.374-.605.693-.911 1.04-3.846 4.44-3.825 4.427.72 7.973.382.295.518.895.901 1.592-3.022.849-4.664-.891-6.204-2.448-1.367-1.387-1.349-3.12-.296-4.774a16.26 16.26 0 0 1 1.815-2.537 17.6 17.6 0 0 0 4.396-7.738h.017Zm-16.827-5.816a1.997 1.997 0 0 1-.696-.652 3.513 3.513 0 0 1-.184-.32c.184-.11.348-.204.543-.294.194-.09.368-.18.563-.263.195-.083.369-.156.556-.226.597-.23 1.214-.4 1.843-.51.348-.058.696-.103 1.023-.128a8.788 8.788 0 0 1 7.09 2.673c-.893.233-1.693.718-2.201.514a12.086 12.086 0 0 0-6.857-.597 2.665 2.665 0 0 1-1.419-.076 1.573 1.573 0 0 1-.278-.121h.017Zm5.122 14.858c-1.589.19-2.952-1.594-3.192-4.201 0-.118-.024-.226-.024-.347-.119-2.368.918-4.143 2.51-4.303 1.701-.176 3.165 1.65 3.287 4.095.1 2.28-1.152 4.583-2.598 4.756h.017Zm11.493 20.8c-2.834.67-5.779.899-7.911-1.708.445-1.387 1.36-1.328 2.306-.981 3.602 1.31 6.607.676 9.024-2.427.598-.777 1.411-1.272 2.507-.347-.595 3.259-3.008 4.78-5.943 5.47l.017-.006Zm10.144-18.103c-3.178-1.875-4.096-4.999-2.233-7.547.484-.648 1.51-1.317 2.24-1.276.73.042 1.659.819 2.059 1.515 1.401 2.486.643 5.048-2.083 7.315l.017-.007Zm7.15-14.723c-2.685-1.865-5.585-2.08-8.694-1.529-.511.087-1.12-.395-2.139-.783 4.695-2.815 9.389-2.011 12.599 1.844-.713.208-1.506.672-1.784.475l.018-.007Zm31.015 14.581c-.887.93-1.934 1.598-3.596.472.63-.87 1.19-1.623 1.902-2.6-.087-.62-.205-1.484-.347-2.427 1.37-.908 2.104-.465 2.566.461.713 1.46.612 2.898-.542 4.101l.017-.007ZM313.149 121.933c-.028.396-.414.805-.716 1.144-3.711 4.077-11.646 5.575-16.636 3.141-2.626-1.272-3.13-2.111-2.734-4.877.348-2.465.884-4.913 1.332-7.364 7.126 1.304 5.641 2.427 18.706-.877.81 2.947.271 5.894.048 8.833Z" fill="#fff"/><path d="M301.603 64.933c-.326 3.349-1.311 6.202-3.213 8.753-.278.371-.608.694-.911 1.04-3.853 4.438-3.825 4.424.713 7.957.383.298.522.897.904 1.594-3.022.846-4.66-.894-6.204-2.447-1.366-1.387-1.349-3.12-.295-4.77a16.295 16.295 0 0 1 1.815-2.542 17.64 17.64 0 0 0 4.427-7.737c.302-1.09.636-2.299 2.764-1.848ZM308.777 78.536c-3.175-1.875-4.093-5.002-2.225-7.547.48-.652 1.505-1.317 2.236-1.28.73.039 1.658.82 2.058 1.52 1.416 2.478.658 5.04-2.069 7.307ZM289.725 71.069c.118 2.274-1.13 4.58-2.577 4.75-1.596.19-2.952-1.595-3.196-4.199 0-.114-.02-.225-.027-.347-.115-2.367.921-4.16 2.514-4.305 1.697-.156 3.161 1.674 3.286 4.1ZM290.73 94.93c.439-1.386 1.353-1.33 2.299-.984 3.606 1.314 6.632.694 9.041-2.427.599-.773 1.409-1.265 2.508-.346-.578 3.224-2.994 4.75-5.912 5.44-2.862.696-5.807.925-7.936-1.682ZM305.08 61.5c4.695-2.814 9.389-2.014 12.602 1.848-.695.194-1.471.666-1.763.465-2.677-1.862-5.585-2.08-8.693-1.532-.512.09-1.124-.389-2.146-.78ZM281.122 59.975l.025.039-.049.024.024-.063ZM292.764 61.254c-.893.233-1.693.718-2.201.514a12.09 12.09 0 0 0-6.858-.597 2.662 2.662 0 0 1-1.418-.076 1.986 1.986 0 0 1-.96-.773 3.292 3.292 0 0 1-.184-.32c.184-.11.347-.204.542-.294.195-.09.369-.18.563-.263.195-.083.369-.156.557-.226.596-.23 1.213-.4 1.843-.51.348-.058.695-.103 1.022-.127a8.788 8.788 0 0 1 7.094 2.672ZM344.918 73.842c1.37-.904 2.086-.46 2.566.465.727 1.449.616 2.891-.539 4.094-.89.933-1.937 1.595-3.595.468l1.905-2.6c-.087-.628-.208-1.49-.337-2.427ZM316.136 123.875l-2.062-.094 1.043-1.636s.303-.624.48-.572c.053 0 .073.08.08.097.07.184.515.537 1.871 1.248l-1.412.957Z" fill="#022F45"/><path d="M240.94 161.312h-.098" stroke="#022F45" stroke-width="7.47" stroke-miterlimit="10"/><path d="m241.534 161.416-.139-.946" stroke="#022F45" stroke-width="4.98" stroke-miterlimit="10"/><path d="M241.141 162.054c1.152 0 2.087-.698 2.087-1.56 0-.861-.935-1.56-2.087-1.56-1.152 0-2.086.699-2.086 1.56 0 .862.934 1.56 2.086 1.56Z" fill="#FEFEFE"/><path d="m285.822 167.147-47.206 36.283-14.185 10.862-12.014-1.387-47.022-5.377-53.852-6.091 8.266-5.384 36.663-22.409 11.736-7.18a413.842 413.842 0 0 1 117.614.693v-.01Z" fill="#fff"/><path fill-rule="evenodd" clip-rule="evenodd" d="m168.507 167.295-11.582 7.085-36.652 22.402-6.244 4.067 51.465 5.821 47.022 5.377 11.667 1.347 13.906-10.648 45.579-35.033a412.94 412.94 0 0 0-115.161-.418Zm117.068-1.047a414.653 414.653 0 0 0-117.484-.639l-.18.025-11.891 7.274-36.673 22.416-10.288 6.701 56.238 6.361h.001l47.02 5.377 12.363 1.426 14.464-11.075 46.903-36.05.641.096v-2.768l-1.114.856Z" fill="#022F45"/><path d="M351.979 199.929c-2.174 3.813-4.917 7.28-7.651 10.747l-2.691-3.928c-8.346-9.423-26.008-17.091-38.489-17.937a148.409 148.409 0 0 0 17.04-19.986l.205-.274c2.104-2.874 9.278-13.565 8.836-16.498l-.407-.243c-1.39.718-7.191 11.527-8.888 14.023-4.11 6.057-8.791 11.562-13.621 17.057l-17.147-16.953-28.561-3.099c.105-2.649 1.391-8.636.094-10.889l-.605-.163a28.495 28.495 0 0 0-1.923 11.295c-7.65-.254-13.082-.385-15.996-.347-1.972.028-3.937-.323-5.912-.347-1.439 0-2.01.028-2.434-.423-.727-.78.063-2 0-5.817 0-.881-.028-1.005 0-1.387.056-.693.244-2.08 1.739-4.853a34.06 34.06 0 0 1 2.434-3.814 50.15 50.15 0 0 1 2.434-3.12 92.366 92.366 0 0 1 11.476-7.627c15.002-8.414 29.579-11.017 39.771-11.787h.494c.696.694 4.312 4.067 9.487 4.687.003.004.008.006.014.006.005 0 .01-.002.013-.006.602.077 1.209.112 1.816.104.219 0 3.783-.086 6.923-1.733a15.71 15.71 0 0 0 2.598-1.733 14.171 14.171 0 0 0 1.739-1.734l1.843.961c8.631.766 18.555 5.349 25.315 10.646 9.463 7.402 14.661 17.351 16.091 29.149 1.484 12.31.167 25.082-6.037 36.023Z" fill="#FEB703"/><path fill-rule="evenodd" clip-rule="evenodd" d="M242.724 139.276a124.172 124.172 0 0 1 3.526-2.43l1.356 2.082c-.603.392-2.029 1.365-3.44 2.371-1.445 1.03-2.752 2.01-3.205 2.448-6.385 6.226-7.003 14.462-7.098 18.183l-2.484-.064c.099-3.842.724-12.953 7.85-19.9l.003-.003c.615-.596 2.1-1.695 3.492-2.687Z" fill="#022F45"/></g><defs><clipPath id="a"><path fill="#fff" transform="translate(434.211 119.198)" d="M0 0h81.343v82.553H0z"/></clipPath><clipPath id="b"><path fill="#fff" transform="translate(94)" d="M0 0h376.055v559H0z"/></clipPath></defs></svg>