<svg width="21" height="20" viewBox="0 0 21 20" fill="none" xmlns="http://www.w3.org/2000/svg">
<path d="M9.79503 2.92705C10.0944 2.00574 11.3978 2.00574 11.6971 2.92705L12.7667 6.21884C12.9006 6.63087 13.2845 6.90983 13.7178 6.90983H17.179C18.1477 6.90983 18.5505 8.14944 17.7668 8.71884L14.9666 10.7533C14.6161 11.0079 14.4694 11.4593 14.6033 11.8713L15.6729 15.1631C15.9722 16.0844 14.9178 16.8505 14.134 16.2811L11.3339 14.2467C10.9834 13.9921 10.5088 13.9921 10.1583 14.2467L7.35814 16.2811C6.57442 16.8505 5.51994 16.0844 5.8193 15.1631L6.88886 11.8713C7.02274 11.4593 6.87608 11.0079 6.52559 10.7533L3.72543 8.71884C2.94171 8.14944 3.34449 6.90983 4.31321 6.90983H7.77441C8.20763 6.90983 8.59159 6.63087 8.72546 6.21884L9.79503 2.92705Z" fill="#FEB703"/>
</svg>
