<svg width="1370" height="133" fill="none" xmlns="http://www.w3.org/2000/svg"><path d="m40.86 108.22 2.801-44.26-2.685 44.26-.35 4.827.234-4.827ZM4.086 10.977a8.697 8.697 0 0 1 .642-2.966 9.796 9.796 0 0 0-.467 2.908l-1.11 102.302h34.907-35.14L4.086 10.977Zm0-7.153c-.849.96-1.52 2.063-1.985 3.256a8.893 8.893 0 0 1 1.985-3.256ZM6.012 5.51a9.065 9.065 0 0 0-1.46 2.501c.26-.91.697-1.76 1.285-2.5h.175Zm3.094-2.268.992-.407h1.05a8.785 8.785 0 0 1 4.554.64l-1.343-.35h-3.094a8.133 8.133 0 0 0-3.152 1.106l.993-.99Zm-2.51 1.687.525-.35-1.109.931c.161-.225.358-.421.584-.581Zm14.126 3.49 8.814 26.927H42.61 29.419l-8.872-26.87a8.31 8.31 0 0 0-2.277-3.78 7.5 7.5 0 0 1 2.452 3.722Zm24.224 31.638.35-5.002-.292 5.002-1.518 23.903 1.46-23.903Z" fill="#fff"/><path d="M3.911 11.093a8.697 8.697 0 0 1 .642-2.966 9.796 9.796 0 0 0-.467 2.908L2.977 113.337h34.906H2.744L3.91 11.093Zm0-7.154c-.849.961-1.52 2.064-1.984 3.257a8.894 8.894 0 0 1 2.16-3.373l-.176.116Zm1.927 1.687a9.066 9.066 0 0 0-1.46 2.501 7.205 7.205 0 0 1 1.46-2.617v.116ZM8.93 3.358l.992-.407h1.051a8.785 8.785 0 0 1 4.553.64l-1.342-.35H11.09a8.133 8.133 0 0 0-3.152 1.106l.992-.99Zm-2.51 1.686.526-.348-1.11.93c.202-.282.46-.52.76-.698l-.176.116ZM10.682.16h1.693a8.964 8.964 0 0 0-1.751 0h-.759.817Zm7.53 1.512c.163.081.303.201.409.35l-.409-.292-1.342-.697a7.022 7.022 0 0 1 1.517.523l-.175.116Zm2.335 6.863 8.99 26.812H42.61 29.42l-8.872-26.87a8.311 8.311 0 0 0-2.277-3.78 7.5 7.5 0 0 1 2.452 3.722l-.175.116Zm10.682 24.078h11.324H31.17L22.998 7.72l8.23 24.892Z" fill="#fff"/><path d="M4.085 11.035a8.698 8.698 0 0 1 .642-2.966 9.796 9.796 0 0 0-.467 2.908L3.151 113.279h34.906H2.918L4.085 11.035Zm0-7.154c-.848.961-1.52 2.064-1.984 3.257a8.892 8.892 0 0 1 1.984-3.315v.058Zm1.927 1.687a9.065 9.065 0 0 0-1.46 2.5c.253-.93.69-1.8 1.284-2.558l.176.058ZM9.105 3.3l.993-.407h1.05a8.784 8.784 0 0 1 4.553.64l-1.342-.35H11.265a8.133 8.133 0 0 0-3.152 1.105l.992-.988Zm-2.51 1.686.526-.349-1.11.931c.156-.245.354-.462.584-.64v.058ZM10.856.101h1.693a8.964 8.964 0 0 0-1.751 0h-.759.817Zm7.53 1.512c.163.081.303.201.409.349l-.409-.29-1.342-.699c.466.147.916.342 1.342.582v.058Zm2.335 6.863 8.814 26.87H42.61 29.418l-8.872-26.87a8.311 8.311 0 0 0-2.276-3.78 7.5 7.5 0 0 1 2.451 3.722v.058Zm10.682 24.078h11.324-11.382L23.173 7.662l8.23 24.892Z" fill="#fff"/><path d="M3.911 10.977a8.697 8.697 0 0 1 .642-2.966 9.796 9.796 0 0 0-.467 2.908L2.977 113.221h34.906H2.744L3.91 10.977ZM6.013 5.51a9.066 9.066 0 0 0-1.46 2.501c.26-.91.696-1.76 1.285-2.5h.175Zm.583-.581.526-.35-1.11.931c.162-.225.359-.421.584-.581Zm2.51-1.687.993-.407h1.05a8.785 8.785 0 0 1 4.553.64l-1.342-.35H11.266a8.133 8.133 0 0 0-3.152 1.106l.992-.99Zm11.616 5.176 8.814 26.928h13.075H29.42l-8.872-26.87a8.311 8.311 0 0 0-2.277-3.78 7.5 7.5 0 0 1 2.452 3.722Z" fill="#FAB615"/><path d="M10.798.043h1.693a8.963 8.963 0 0 0-1.751 0H9.98h.817Zm7.53 1.512c.163.081.303.201.409.349l-.409-.29-1.342-.699c.489.162.959.376 1.4.64h-.058Zm13.017 30.766h11.324-11.382L23.114 7.43l8.23 24.892Zm9.28 75.608 2.803-44.26-2.685 44.26-.35 4.827.233-4.827Z" fill="#083044"/><path d="M3 118h35.49l.296-5.04L43 41.799v-5.161H29.587l-9.02-28.052a8.723 8.723 0 0 0-2.315-3.947 6.488 6.488 0 0 0-1.009-.789h-.534L15.7 3.364 14.335 3H11.19a8.129 8.129 0 0 0-3.205 1.154l-.95.668-1.127.971a9.526 9.526 0 0 0-1.484 2.61 10.479 10.479 0 0 0-.474 3.037L3 118Z" fill="#FAB615"/><path d="m44.946 40.056.35-5.001-.292 5.001-1.518 23.904 1.46-23.904Z" fill="#083044"/><path d="M1.4 14.438a8.465 8.465 0 0 1 0-2.043c.094-.618.25-1.224.467-1.81a10.92 10.92 0 0 1 1.984-3.27c.467-.467.875-.934 1.342-1.343a10.559 10.559 0 0 1 1.692-1.109c.56-.32 1.146-.594 1.75-.817h1.926a9.622 9.622 0 0 1 4.785.292 4.9 4.9 0 0 1 1.459.525l1.342.7.408.293c.439.22.834.516 1.167.876a10.621 10.621 0 0 1 1.576 1.693c.345.484.657.991.933 1.518.151.235.27.49.35.759.023.135.023.273 0 .408v.526l8.17 24.99H44.813L1370 35.924v2.452l-1325.304.7-.35 5.021-1.459 23.997-2.8 44.432v4.846l1315.213-.351h14.93v2.569h-14.93L38.744 120H0L1.4 14.438Zm19.372 102.76H37.87l.292-4.846 4.143-68.429v-4.962h-13.07l-8.812-26.8a7.533 7.533 0 0 0-2.45-3.736 6.356 6.356 0 0 0-.992-.76l-.992-.466a8.747 8.747 0 0 0-4.551-.643h-1.05a2.1 2.1 0 0 0-.993.409 6.594 6.594 0 0 0-2.509 1.693 2.51 2.51 0 0 0-.583.526 7.24 7.24 0 0 0-1.46 2.51 8.762 8.762 0 0 0-.64 2.978L3.033 117.548l17.739-.35Z" fill="#083044"/><path stroke="#022F45" stroke-width="2" stroke-dasharray="25 25" d="M45 76h1325"/><circle cx="685" cy="78" r="54" fill="#fff" stroke="#022F45" stroke-width="2"/><path d="M716.341 75.864v.026l.162.02 3.973.499-3.25-.429-.885-.116ZM691.306 55.566v32.332h-43.937V55.566h43.937Zm-.56.56h-42.817v31.212h42.817V56.126Z" fill="#022F45"/><path d="M647.929 56.126v31.212h8.743a8.061 8.061 0 0 1 9.199 0h24.875V56.126h-42.817Z" fill="#fff"/><path d="m716.442 64.236 4.594 12.114-.596-.057-3.209-.312-.709-.07-.455-.044-.774-.077-.57-.055-11.665-1.13V64.236h13.384Zm-13.033 10.036 10.957 1.06.824.08 5.121.496.181.019-3.384-8.91-.919-2.424h-12.78v9.679Z" fill="#022F45"/><path d="m712.637 73.435.131.145 1.588 1.752.333.367.005.036 1.714 11.618.077.527.55-.08-.064-.444-1.707-11.567-.049-.338-.036-.038-1.662-1.833-.47-.519-.41.374ZM697.905 62.2v21.02h.555V62.758h11.683l1.827 1.42.078.06.235.183.237.183.199.155.121-.155.142-.183.078-.101-.106-.083-1.737-1.35-.883-.686h-12.429Z" fill="#022F45"/><path d="M711.896 64.42h1.988v9.16h-1.988v-9.16Z" fill="#022F45"/><path d="M694.034 87.392v-27.1h21.093c.116.173.218.355.305.545a4385.493 4385.493 0 0 1 6.156 16.819c.15.436.227.895.227 1.357.028 2.962.05 5.923.067 8.885h.026l-.02.947c0 1.306.006 2.612.02 3.918-.022.4-.067.8-.134 1.195h-74.405v-6.566h46.665Zm21.925-.044h5.185v-1.706l-1.159-.39c-.069-1.722-.046-3.451 0-5.201l1.149-.258c.31-1.216 0-2.248-.645-3.382l-.042-.116-.139-.384-3.201-8.895-.552-1.536-.452-1.254-.033-.093c-.271-.73-.53-1.44-.803-2.153l-.258-.715-.153-.41h-20.022c-.258 1.123-.315 20.76-.039 22.366h3.387l.279-.024.47-.036a13.95 13.95 0 0 1 9.86 4.187h7.168Z" fill="#022F45"/><path d="m715.264 75.792 1.706 11.564h4.174V85.65l-1.159-.39c-.069-1.722-.046-3.451 0-5.201l1.149-.258c.31-1.216 0-2.249-.645-3.382l-3.973-.498-.454-.044-.798-.085Z" fill="#fff"/><path d="m713.516 73.58 1.663 1.832 5.121.496-3.193-8.882-.919-2.423h-2.305v8.977h-.367Z" fill="#9AACB5"/><path d="M703.398 64.603v9.669l10.957 1.06-1.587-1.752h-.872v-8.977h-8.498Z" fill="#9AACB5"/><path d="M698.46 62.757v20.44l.47-.035a13.954 13.954 0 0 1 9.86 4.186h7.617l-1.714-11.615-11.664-1.13V64.235h9.019l-.078-.059-1.827-1.42H698.46Z" fill="#fff"/><path d="M694.79 83.22h3.116V62.2h12.428l.883.686 1.742 1.35h3.134l-.034-.09-1.055-2.878-.153-.41h-20.022c-.271 1.12-.315 20.757-.039 22.363ZM661.271 90.6a3.358 3.358 0 0 1 3.101 2.072 3.36 3.36 0 0 1-2.446 4.575 3.356 3.356 0 1 1-.655-6.646Zm0 6.095a2.731 2.731 0 1 0-2.523-1.685 2.74 2.74 0 0 0 1.478 1.48c.331.139.686.21 1.045.21v-.005Z" fill="#fff"/><path d="M661.271 86.212a7.742 7.742 0 0 1 7.595 9.255 7.744 7.744 0 0 1-15.338-1.511 7.76 7.76 0 0 1 7.743-7.744Zm0 15.186a7.442 7.442 0 0 0 7.434-7.434 7.416 7.416 0 0 0-3.141-6.06 7.222 7.222 0 0 0-.924-.571 7.41 7.41 0 0 0-6.843.054 7.122 7.122 0 0 0-.818.516 7.426 7.426 0 0 0-3.142 6.06 7.44 7.44 0 0 0 7.434 7.435Z" fill="#fff"/><path d="M655.953 87.898c.204-.178.419-.346.638-.516l.08-.055a8.064 8.064 0 0 1 9.199 0l.08.055a8.093 8.093 0 0 1 3.387 6.577 8.065 8.065 0 0 1-13.717 5.61 8.065 8.065 0 0 1-2.413-5.61 8.055 8.055 0 0 1 2.746-6.061Zm-2.116 6.066a7.434 7.434 0 1 0 14.868 0 7.426 7.426 0 0 0-3.142-6.061 7.21 7.21 0 0 0-.924-.57 7.405 7.405 0 0 0-6.843.054 7.21 7.21 0 0 0-.818.516 7.429 7.429 0 0 0-3.141 6.06Z" fill="#022F45"/><path d="M656.979 87.898a7.195 7.195 0 0 1 .924-.57 7.404 7.404 0 0 1 6.737 0 7.195 7.195 0 0 1 .924.57 7.429 7.429 0 0 1 3.141 6.06 7.434 7.434 0 1 1-14.868 0 7.426 7.426 0 0 1 3.142-6.06Zm4.292 9.426a3.357 3.357 0 0 0 2.373-5.728 3.354 3.354 0 0 0-5.728 2.373 3.353 3.353 0 0 0 3.355 3.355Z" fill="#fff"/><path d="M661.271 90.6a3.358 3.358 0 0 1 3.101 2.072 3.36 3.36 0 0 1-2.446 4.575 3.356 3.356 0 1 1-.655-6.646Zm0 6.095a2.731 2.731 0 1 0-2.523-1.685 2.74 2.74 0 0 0 1.478 1.48c.331.139.686.21 1.045.21v-.005Z" fill="#022F45"/><path d="M658.573 94.41a2.73 2.73 0 1 1 5.39-.876 2.73 2.73 0 0 1-5.39.875ZM700.882 90.6a3.357 3.357 0 0 1 2.372 5.729 3.354 3.354 0 0 1-5.728-2.373 3.357 3.357 0 0 1 3.356-3.355Zm0 6.095a2.73 2.73 0 1 0-1.932-.798 2.737 2.737 0 0 0 1.932.803v-.005Z" fill="#fff"/><path d="M700.882 86.212a7.747 7.747 0 0 1 7.155 4.78 7.742 7.742 0 0 1-5.644 10.559 7.743 7.743 0 0 1-9.254-7.595 7.753 7.753 0 0 1 7.743-7.744Zm0 15.186a7.442 7.442 0 0 0 6.873-4.59 7.44 7.44 0 0 0-9.717-9.717 7.436 7.436 0 0 0 2.844 14.307Z" fill="#fff"/><path d="M700.882 85.897a8.069 8.069 0 0 1 7.46 4.973 8.068 8.068 0 0 1-10.534 10.547 8.062 8.062 0 0 1-4.981-7.453 8.068 8.068 0 0 1 8.055-8.067Zm0 15.5a7.433 7.433 0 0 0 6.873-4.589 7.437 7.437 0 1 0-14.306-2.844 7.444 7.444 0 0 0 7.433 7.433Z" fill="#022F45"/><path d="M700.882 86.527a7.435 7.435 0 1 1-7.433 7.437 7.442 7.442 0 0 1 7.433-7.437Zm0 10.797a3.358 3.358 0 0 0 3.1-2.071 3.35 3.35 0 0 0-.727-3.657 3.354 3.354 0 0 0-5.728 2.373 3.353 3.353 0 0 0 3.355 3.355Z" fill="#fff"/><path d="M700.882 90.6a3.357 3.357 0 0 1 2.372 5.729 3.354 3.354 0 0 1-5.728-2.373 3.357 3.357 0 0 1 3.356-3.355Zm0 6.095a2.73 2.73 0 1 0-1.932-.798 2.737 2.737 0 0 0 1.932.803v-.005Z" fill="#022F45"/><path d="M698.95 95.894a2.732 2.732 0 1 1 3.865-3.862 2.732 2.732 0 0 1-3.865 3.862Z" fill="#fff"/><circle cx="175" cy="78" r="54" fill="#fff" stroke="#022F45" stroke-width="2"/><g clip-path="url(#a)"><path d="M201.723 89.83c0 1.892-.21 8.164-2.868 13.944a21.471 21.471 0 0 1-2.334 3.964 13.628 13.628 0 0 1-1.752 1.988c-3.171 3.009-7.988 4.585-13.817 4.585a36.468 36.468 0 0 1-4.178-.249 45.978 45.978 0 0 1-19.839-7.345c-10.914-7.445-15.057-18.831-16.554-24.962-1.148-4.59-3.193-16.896 4.217-27.59a32.543 32.543 0 0 1 5.474-6.132.231.231 0 0 1 0-.053h.044a27.357 27.357 0 0 1 8.641-5.05 29.077 29.077 0 0 1 9.153-1.606c11.851-.101 20.877 7.708 24.525 11.452l13.856-7.883a1.24 1.24 0 0 1 1.686.464 1.236 1.236 0 0 1-.464 1.686l-13.322 7.568a24.456 24.456 0 0 1 5.255 9.727 24.627 24.627 0 0 1 .644 9.818c2.842-1.41 5.75-1.62 7.927-.359a6.213 6.213 0 0 1 2.938 4.042c.924 4.13-2.956 9.118-9.232 11.991Z" fill="#fff"/><path d="M213.14 77.375a8.424 8.424 0 0 0-3.981-5.487 9.32 9.32 0 0 0-6.613-.876 26.801 26.801 0 0 0-.946-7.248 26.348 26.348 0 0 0-4.073-8.51l11.098-6.306a3.44 3.44 0 0 0 1.279-4.673 3.44 3.44 0 0 0-4.669-1.283l-12.415 7.055c-4.24-4.033-13.165-10.918-24.643-10.918h-.246a31.526 31.526 0 0 0-9.871 1.752 29.554 29.554 0 0 0-8.501 4.765l-1.414 1.2a35.348 35.348 0 0 0-5.312 6.092c-6.718 9.7-6.202 20.54-5.12 26.653h-.101l.662 2.71c1.572 6.443 5.929 18.394 17.452 26.251a48.272 48.272 0 0 0 20.837 7.686c1.471.172 2.951.26 4.432.263 6.451 0 11.75-1.791 15.328-5.185a15.733 15.733 0 0 0 1.997-2.286 23.554 23.554 0 0 0 2.553-4.34c2.352-5.107 2.921-10.467 3.04-13.48 6.494-3.416 10.261-8.965 9.227-13.835Zm-12.328 10.454-1.279.587v1.405c0 1.695-.192 7.647-2.671 13.034a19.22 19.22 0 0 1-2.094 3.56l-.035.048a11.25 11.25 0 0 1-1.449 1.664c-2.746 2.628-7.007 3.986-12.311 3.986a33.711 33.711 0 0 1-3.941-.237 43.665 43.665 0 0 1-18.863-6.967c-9.586-6.522-13.655-16.345-15.328-22.38l-.328-1.313c-1.117-4.463-2.969-15.91 3.893-25.839a30.544 30.544 0 0 1 4.971-5.623l.184-.158a25.205 25.205 0 0 1 7.949-4.646 26.743 26.743 0 0 1 8.434-1.48h.206c11.054 0 19.554 7.532 22.712 10.786l1.178 1.217.495.561a22.124 22.124 0 0 1 4.817 8.86c.792 2.911.99 5.953.583 8.942l-.556 4.09 3.7-1.834c2.256-1.121 4.38-1.275 5.86-.438a4.028 4.028 0 0 1 1.892 2.601c.674 3.083-2.786 7.187-8.019 9.583v-.01Z" fill="#fff"/><path d="M210.998 77.835a6.215 6.215 0 0 0-2.938-4.047c-2.19-1.257-5.081-1.046-7.927.36a24.468 24.468 0 0 0-5.899-19.541l13.322-7.572a1.236 1.236 0 0 0 .149-2.048 1.234 1.234 0 0 0-1.371-.099l-13.856 7.884c-3.631-3.745-12.653-11.553-24.525-11.453-3.118.04-6.209.583-9.153 1.607a27.346 27.346 0 0 0-8.641 5.05h-.044a.231.231 0 0 0 0 .053 32.496 32.496 0 0 0-5.474 6.13c-7.41 10.704-5.365 23.01-4.217 27.591 1.497 6.132 5.64 17.518 16.558 24.963a45.886 45.886 0 0 0 19.835 7.34c1.386.167 2.781.251 4.178.254 5.829 0 10.646-1.581 13.821-4.585a13.799 13.799 0 0 0 1.726-1.989 21.32 21.32 0 0 0 2.334-3.967c2.658-5.781 2.868-12.048 2.868-13.94 6.254-2.869 10.134-7.861 9.254-11.991Zm-59.56-29.022a25.757 25.757 0 0 1 6.784-4.095 41.053 41.053 0 0 1 14.334 8.597 40.801 40.801 0 0 1 6.104 7.107l-24.319 13.725a42.133 42.133 0 0 1-2.899-9.074 42.246 42.246 0 0 1 .013-16.26h-.017Zm16.51-6.027h.241c10.817 0 19.182 6.968 22.848 10.651l-11.085 6.258a42.153 42.153 0 0 0-6.394-7.445 42.336 42.336 0 0 0-13.182-8.281 27.698 27.698 0 0 1 7.59-1.191l-.018.008Zm-22.116 12.21a31.589 31.589 0 0 1 3.832-4.576 43.43 43.43 0 0 0 .329 14.938 43.683 43.683 0 0 0 3.065 9.52l-11.264 6.356c-1.095-4.516-2.934-16.147 4.056-26.238h-.018Zm54.835 33.678-.438.202v.499c.022.757.127 7.572-2.728 13.782a20.135 20.135 0 0 1-2.19 3.709c-.46.644-.98 1.243-1.555 1.787-7.716 7.314-25.155 4.209-35.985-3.157a35.77 35.77 0 0 1-6.132-5.278c3.254-1.173 5.549-3.941 5.856-7.125.332-3.403-1.752-5.847-2.16-6.306 3.565.245 6.57-2.41 6.846-5.584.219-2.628-1.446-5.129-3.942-6.17l34.637-19.682a23.026 23.026 0 0 1 5.163 9.372 23.226 23.226 0 0 1 .438 10.388 17.56 17.56 0 0 0-3.385 2.987l1.113.976c3.503-4.011 8.189-5.693 11.11-4.007a4.822 4.822 0 0 1 2.234 3.066c.762 3.556-2.97 8.001-8.864 10.541h-.018Z" fill="#022F45"/><path d="M181.1 97.205c-3.237-.504-5.921-2.093-8.383-4.261a6.043 6.043 0 0 1 2.133-1.507 8.071 8.071 0 0 1 2.996-.617c-1.971-1.406-4.971-.753-6.512 1.086-1.616 1.773-1.87 4.817-.228 6.6a7.054 7.054 0 0 1 1.292-5.172 9.802 9.802 0 0 0 2.588 3.639 10.822 10.822 0 0 0 7.195 2.728c2.996 0 6.132-1.278 7.993-3.643-2.934 1.024-6.004 1.65-9.074 1.147ZM185.059 76.38c-2.684.32-5.102-1.16-6.718-3.503-.166 3.504 3.539 6.456 7.038 5.904 3.53-.399 6.289-4.261 5.098-7.62-.854 2.71-2.742 4.839-5.418 5.22ZM181.818 67.872c2.067-1.406 4.327-2.234 6.793-1.73.839.168 1.659.419 2.448.749-2.067-3.683-8.001-3.005-9.241.98Z" fill="#022F45"/></g><circle cx="1195" cy="78" r="54" fill="#fff" stroke="#022F45" stroke-width="2"/><path d="M1222.72 50h-55.63v55.122h55.63V50Z" fill="#ECF1F5" stroke="#022F45" stroke-width="1.13" stroke-miterlimit="10"/><path d="M1171.52 90.674V54.127h27.5M1219.05 67.735v33.707h-30.77M1171.43 96.674l42.02-42.39M1176.83 101.46l42.01-42.656M1177.3 57.868V83.61M1184.53 57.185V77.87M1191.66 56.695v14.509M1198.24 56.544v9.222M1213.77 70.86v23.246M1206.56 76.866v21.368M1199.06 98.234V81.447M1191.89 90.432v8.122" stroke="#022F45" stroke-width="1.13" stroke-miterlimit="10"/><path d="m1215.55 85.594-15.54-5.593-3.77 10.479 15.54 5.593 3.77-10.479Z" fill="#F9F9F6" stroke="#022F45" stroke-width="1.01" stroke-miterlimit="10"/><defs><clipPath id="a"><path fill="#fff" transform="translate(137.069 39.12)" d="M0 0h76.246v77.38H0z"/></clipPath></defs></svg>