<svg width="661" height="539" fill="none" xmlns="http://www.w3.org/2000/svg"><ellipse cx="215.588" cy="343.7" rx="215.588" ry="195.3" fill="#ECF1F5"/><ellipse cx="290.588" cy="195.3" rx="215.588" ry="195.3" fill="#ECF1F5"/><ellipse cx="445" cy="281.806" rx="216" ry="229.657" fill="#ECF1F5"/><g clip-path="url(#a)"><path d="M521.853 385.169a.858.858 0 0 0-.197-.376c-.094-.111-.214-.188-.805-.718l-24.38-1.411c.788-11.644 3.845-22.724 4.727-34.471-1.713-.103-3.083-.257-4.461-.274-5.712-.051-11.424-.06-17.127-.077-2.132 0-4.239-.051-5.798-1.376.163-2.779.352-5.309.454-7.849.334-8.087.617-16.184.976-24.271.215-4.959.523-9.918.857-14.876.068-1.12.411-2.232.496-3.36.232-2.916.771-5.865-.248-8.55l-8.135-1.53c.308-2.36.685-4.42.856-6.498.617-9.908 1.216-19.817 1.713-29.735.402-8.233.617-16.466.976-24.699.094-2.12.565-4.215.617-6.335.102-3.95 0-7.9 0-12.277a43.089 43.089 0 0 0-4.359-.479c-5.558-.06-11.132 0-16.69-.068-1.096 0-2.192-.197-3.425-.325-.754-10.499-1.499-20.758-2.261-31.394h-34.374c-1.481-4.616-7.844-50.612-6.773-54.331l25.69-16.466c.151-.53.24-1.075.265-1.625-.539-4.642-1.13-9.276-1.712-13.91-.309-2.565-.48-5.13-.908-7.592a18.599 18.599 0 0 0-1.13-3.36h-19.14c-2.183-17.33-4.418-34.975-6.713-53.143l9.668-.787c-.925-7.514-1.859-15.004-2.792-22.553a13.79 13.79 0 0 0-2.826-.444c-2.971.162-5.934.59-8.914.658-15.414.342-30.769.085-46.157.76-18.506.856-37.045.727-55.568 1.035-.565 0-1.13.103-1.858.171L240.383 67.61c.651 3.779 8.743 19.441 11.603 22.536 2.569-1.034 3.211-4.625 6.363-5.13l16.784 35.754c-3.742 3.275-7.347 6.447-11.304 9.918 3.614 7.523 7.142 14.867 10.619 22.091l27.403-3.702 15.414 37.353-13.702 8.823-23.292 14.987c2.732 10.841 5.421 21.502 8.101 32.155-3.888 2.718-7.972 4.505-11.021 7.626l9.317 22.151-36.489-8.635c-.351-3.351-.693-6.574-1.036-9.814 1.713-2.275 3.425-4.497 5.07-6.84 6.414-9.336 8.691-20.006 9.248-31.026.411-8.053.856-16.244-1.653-23.75 1.448-2.822 2.878-5.412 4.162-8.002a74.453 74.453 0 0 0 1.43-3.001c2.192-4.916 4.35-9.815 4.976-15.321.625-5.506-1.508-9.738-5.652-12.875-10.448-7.909-22.556-11.303-35.461-11.781-4.188-.154-8.469.735-12.64 1.504-13.367 2.48-21.477 11.046-23.121 24.375-2.072-.359-4.17-1.155-6.191-.984-8.615.727-15.029 4.822-18.446 12.996-1.713 4.129-.694 7.386 2.98 10.02a31.22 31.22 0 0 1 1.995 1.59c.651.555 1.456 1.265 2.218 1.906a47.685 47.685 0 0 1-2.038 5.13 15.245 15.245 0 0 0-1.635 6.968c-.292 7.284 2.26 13.679 5.994 19.663 4.778 7.584 12.049 11.97 20.193 15.013a13.515 13.515 0 0 1 5.489 3.882c2.346 2.633 4.718 5.249 7.707 8.549-.052 3.642.317 8.267-.129 12.918-7.707 1.274-14.986 2.437-22.265 3.677-6.713 1.145-13.444 2.214-20.106 3.582-7.656 1.573-15.235 3.308-22.342 6.891a25.372 25.372 0 0 0-8.907 7.111 25.323 25.323 0 0 0-4.889 10.287 43.278 43.278 0 0 0-.951 8.421 152.08 152.08 0 0 0 2.724 38.575 171.539 171.539 0 0 0 10.182 32.984c2.303 5.343 4.744 10.627 7.321 16.372-.325 3.95 1.713 6.13 6.149 5.779.843-.105 1.673-.3 2.475-.581 2.688-.795 5.36-1.616 8.563-2.565.16 1.342.191 2.696.094 4.044a92.369 92.369 0 0 1-2.055 9.55c-3.023 10.507-6.183 20.971-9.308 31.445-.437 1.47-.925 2.923-1.396 4.428l3.374 2.257C158.243 471.923 152.024 504.155 148 529c.856.453 2.092.513 3 1 4.213-25.084 10.214-57.182 14.462-82.548a124.99 124.99 0 0 0 35.486 6.335c12.212.504 24.355-1.188 35.29-3.625 3.52 1.205 6.209 1.992 8.795 3.044 4.324 1.761 8.803 3.283 11.774 7.301 3.212 4.334 6.543 8.549 10.122 13.234v29.915c0 4.984.06 10.182.094 15.688l43.948 4.275 3.862.41c4.821.419 9.617.795 14.404 1.257 4.084.402 8.16.932 12.254 1.334 3.956.384 7.921.675 11.886 1.017 5.926.504 11.851 1.282 17.794 1.462 4.668.154 9.352-.522 14.044-.65 12.846-.359 25.631-.564 38.442-.932 9.111-.256 18.205 0 27.334-.632 12.194-.898 24.483 0 36.728-.949 6.808-.539 13.702-.077 20.552-.214 4.385-.086 8.769-.428 13.282-.667a9.697 9.697 0 0 0 .548-1.881c0-45.169.015-90.333.043-135.491a19.295 19.295 0 0 0-.291-2.514Zm-30.092-34.522a50.31 50.31 0 0 1 5.995.897c-1.413 10.567-2.972 20.852-4.873 31.291-2.252 0-4.085.077-5.909 0-3.965-.196-7.921-.573-11.894-.709-10.799-.368-21.606-.616-32.413-.967-6.85-.222-13.701-.145-20.432-.923-.48-.06-.959-.102-1.439-.145a38.954 38.954 0 0 0-1.447-.111c-.479-.026-.711-.052-1.07-.06a4.112 4.112 0 0 0-.471 0l-2.21-.077h-6.816c-1.524 0-3.057 0-4.581-.069-.48 0-.96 0-1.448-.059-.488-.06-.856-.043-1.276-.077l-.625-.043-.813-.068-.857-.077c-7.707-.804-15.354-.419-23.018-.778a58.257 58.257 0 0 1-5.994-.924c-1.293-5.36-1.713-24.254-.711-29.487 1.319-.06 2.706-.196 4.093-.171l5.035.077h3.34c5.832.077 11.672.12 17.495.222l4.333.086 5.035.128h.317l4.71.171c1.191.043 2.381.094 3.563.154l3.562.188c10.679.624 21.408-.085 31.993.761 12.939.983 25.887.342 38.826.77Zm-27.257 50.86c-12.991 1.112-25.69-1.308-38.715-.547-.591-5.985-1.131-11.593-1.713-17.441 4.282-1.479 8.564.633 12.845.385 4.28-.203 8.568-.183 12.845.06 4.376.205 8.735.726 13.907 1.179-.308 5.583 1.67 10.756.831 16.364Zm-61.528-100.721h.762c13.102.077 25.922.146 38.749.24.623.064 1.239.181 1.842.35.856 3.471 1.027 14.756.368 19.664-1.062.162-2.13.271-3.203.325-5.558.051-11.132 0-16.681.102-3.965.094-7.922.505-11.886.693-.985.051-1.979.051-2.998.043-1.019-.009-2.312 0-3.536 0-2.15-6.686-2.672-13.329-3.991-19.801-.128-.598.446-1.291.574-1.616Zm55.405-92.06c3.657.06 7.313.633 11.133.975 0 1.094.059 2.043 0 2.975-.06.932-.377 1.667-.411 2.513-.334 7.943-.54 15.894-.977 23.836-.402 7.216-1.062 14.414-1.575 21.622-.086 1.282 0 2.564-.069 3.847-.351 7.07-.719 14.149-1.105 21.673-1.524.077-2.646.188-3.767.188-7.416 0-14.875.402-22.265-.222-11.398-.958-22.822 0-34.168-.855a150.353 150.353 0 0 0-8.058-.411c-7.862-.214-15.697 0-23.55-.308-3.374-.145-6.739-.649-10.473-1.017a8573.972 8573.972 0 0 1-10.087-57.281 4986.433 4986.433 0 0 1-3.143-18.151c1.627-.154 2.723-.35 3.819-.35 11.561 0 23.121-.342 34.673.162 23.336 1.001 46.688.453 70.023.804Zm-97.725-34.42c-8.641-.231-17.127.718-26.067-.855-5.301-13.312-10.799-27.119-16.374-41.106 6.851-7.215 15.329-11.388 24.62-15.013 7.305 18.57 11.587 37.909 17.821 56.974Zm-14.558-57.905a78.686 78.686 0 0 1 16.63-3.531c2.107-.24 4.213-.513 6.328-.676 2.698-.213 5.404-.393 8.024 1.103 5.215 19.903 10.276 39.9 13.171 60.342-3.289.855-20.244 1.069-27.198.445-.325-1.804-.505-3.583-.984-5.275-2.818-9.96-5.635-19.921-8.564-29.838-1.712-5.702-3.699-11.311-5.566-16.971-.659-1.744-1.207-3.496-1.884-5.599h.043Zm73.645 69.908c0 .445.06.855.094 1.343l-34.75 2.239-.051-.854c11.526-1.556 23.164-1.437 34.707-2.694v-.034Zm-12.331-12.148h-13.607c-2.278-10.217-3.828-20.519-6.149-30.684-2.321-10.166-4.907-20.049-7.476-30.471 7.656.428 14.19 3.266 20.475 6.344 2.278 18.339 4.505 36.369 6.757 54.811ZM310.645 24.99c2.253.077 4.505.47 6.757.633 7.647.572 15.294 1.094 22.933 1.65 3.828.282 7.638.624 11.466.855 5.241.342 10.499.547 15.74.957 5.24.41 10.721 1.009 16.082 1.522.573.051 1.139.077 1.712.12l13.162.855c1.627 7.591 2.175 15.175 3.075 22.707.899 7.532 2.089 15.107 3.219 23.083l-9.736.719c.497 4.804.95 9.13 1.447 13.875l-30.554 1.71c-.6-4.523-1.182-8.943-1.833-13.807l-17.803 1.154c-.283 0-.565.06-.856.068-6.389.3-12.777.65-19.174.855a48.243 48.243 0 0 1-5.386-.359l-4.282 4.275c-5.472-20.707-10.73-40.627-16.091-60.923 3.597.025 6.843-.06 10.122.051Zm-32.952 93.71a12161.59 12161.59 0 0 0-18.06-38.01l37.551-53.135c1.712 2.488 11.62 38.712 16.656 60.803a86440.244 86440.244 0 0 0-36.181 30.342h.034Zm27.917 27.769 10.054-12.371 16.835 42.482-12.057 7.695c-3.554-5.181-14.601-32.933-14.866-37.806h.034Zm2.963 63.189.257-.257c.356-.356.734-.69 1.13-1a.158.158 0 0 1 .06-.043l.172-.137a18.488 18.488 0 0 1 1.875-1.29l.642-.377.694-.393c1.156-.633 2.346-1.197 3.528-1.795.411-.197.856-.402 1.216-.607l.754-.402.745-.419c.351-.188.693-.402 1.027-.616l.719 1.069-13.35 6.84c.137-.206.308-.394.497-.573h.034Zm8.752 17.868c.856 5.463 1.713 10.465 2.62 15.962l-11.363 7.959c-1.285-5.48-2.475-10.601-3.725-15.944l12.468-7.977Zm-36.369 23.306 20.458-13.192a17.955 17.955 0 0 1 1.404 3.027c.951 3.847 1.713 7.737 2.681 11.593a31.385 31.385 0 0 0 1.164 3.248c3.623-.735 5.798-3.351 8.478-5.086 2.681-1.736 5.138-3.531 7.57-5.267 0-6.694-1.524-12.73-2.997-19.211l27.12-17.372c4.453 25.648 8.821 50.792 13.265 76.346l-51.38 30.719a85539.833 85539.833 0 0 0-27.797-64.805h.034Zm-72.9-9.507c-4.581-5.241-7.459-11.354-9.788-17.8-.276-.62-.6-1.217-.968-1.787-9.522 1.967-17.889-2.026-18.3-12.901.857-3.112.711-7.002 5.224-7.78 3.768.333 6.157 2.762 8.127 5.617 2.166 3.155 4.144 6.446 6.174 9.704a6.423 6.423 0 0 0 5.206 3.283c2.09-1.565 2.878-3.42 2.073-5.985-.6-1.889-1.071-3.822-1.61-5.737-1.379-4.847-.574-6.959 3.477-9.797 1.935-1.36 3.708-2.967 5.694-4.566-.659-2.565-1.19-4.736-1.798-6.899a7.67 7.67 0 0 1-.248-4.112c.385-1.479 1.438-2.676 3.262-3.805 5.464-3.42 11.458-4.172 17.684-3.232a43.51 43.51 0 0 1 16.827 6.327 51.31 51.31 0 0 1 5.994 4.403 10.866 10.866 0 0 1 3.22 4.856 55.278 55.278 0 0 1 2.038 24.34c-.659 4.762-.788 9.593-1.961 14.295a47.953 47.953 0 0 1-9.24 19.005c-6.5 7.977-14.729 10.2-25.69 5.079-6.106-2.847-10.978-7.43-15.431-12.508h.034Zm38.955 27.469c-4.916 7.472-16.99 8.55-22.924 6.036-4.83-2.026-7.099-5.548-7.228-10.516-.094-3.342.283-6.702.463-10.259 1.241.598 2.646 1.197 3.973 1.941 8.161 4.582 16.347 5.352 24.894 0 .111 4.488 1.781 8.66.788 12.798h.034Zm-79.186 105.158c-4.187 4.215-7.998 8.815-11.989 13.32a121.276 121.276 0 0 1-8.769-19.74 185.395 185.395 0 0 1-8.623-34.608 137.146 137.146 0 0 1-1.362-28.872c.343-5.899 1.499-11.764 5.627-16.646a25.251 25.251 0 0 1 8.135-5.984c6.251-3.189 12.991-4.899 19.893-6.096 12.434-2.154 24.833-4.454 37.259-6.634 1.944-.342 3.939-.359 6.166-.548 1.421 5.669 5.386 8.969 10.892 10.106 7.793 1.599 15.312.786 21.965-4.095 2.021-1.479 2.569-2.685 3.563-7.199 12.905 2.975 25.733 4.908 38.175 9.917 5.678 13.115 11.57 26.444 17.127 40.003l-4.333 3.42c2.455 11.764 4.904 23.531 7.348 35.301.077.359-.18.795-.369 1.504l-16.424 3.557c-1.816-4.412-3.597-8.721-5.344-13.047-1.91-4.744-3.716-9.524-5.703-14.234-.548-1.317-.762-3.129-2.775-3.335-1.473 1.026-1.027 2.232-.539 3.42a15248.29 15248.29 0 0 1 8.906 22.135c.676 1.71 1.267 3.419 2.021 5.454l-13.993 3.454c1.285 10.713 3.768 20.852 5.053 31.385l-12.674 2.924c-.369 8.635 0 16.988-.557 25.332a110.77 110.77 0 0 0-.856-3.582 12.566 12.566 0 0 0-2.646-1.488c-7.159-1.941-11.989-7.361-17.41-11.789-8.349-6.84-16.578-13.842-24.5-21.152-5.429-5.01-10.276-10.669-15.311-16.056a4.306 4.306 0 0 1-.539-1.308c2.517-4.095 6.14-7.805 6.062-13.576-10.678-9.986-18.839-22.34-28.19-33.608-2.073.932-2.167 2.095-1.242 3.283 4.35 5.608 8.709 11.208 13.171 16.723 2.235 2.753 4.718 5.309 7.039 7.993.728.855 1.301 1.796 2.14 2.976-10.678 1.667-18.839 7.694-26.966 13.525a74.178 74.178 0 0 0-9.462 7.848l.034.017Zm-4.753 69.165 11.698-41.131c4.427 4.873 8.795 10.131 13.65 14.893a120.243 120.243 0 0 0 23.412 17.638c6.988 4.103 14.121 7.976 21.178 11.969.343.251.658.538.942.855-22.899 5.668-52.066 3.761-70.914-4.241l.034.017Zm71.359.906c-1.79-1-4.076-2.342-6.431-3.573a187.081 187.081 0 0 1-34.031-22.417 83.667 83.667 0 0 1-19.156-22.664 60.53 60.53 0 0 1-2.818-6.515c2.809-7.763 17.444-18.706 27.592-20.826 5.138 5.548 10.053 11.285 15.465 16.466 6.448 6.181 13.291 11.969 20.056 17.774 5.48 4.719 11.132 9.268 16.621 13.936a29.39 29.39 0 0 1 2.364 2.462c-.471 3.42-2.415 5.206-5.592 6.275-5.815 1.958-8.666 7.139-7.476 13.141l-6.594 5.941Zm9.42-7.856c-.24-4.472 2.749-8.251 6.945-8.678 1.404-.145 2.826 0 4.83 0l4.453 4.693v6.985l-3.597 3.677c-1.995 0-3.691.051-5.378 0-4.47-.18-7.005-2.522-7.253-6.677Zm15.414 22.467a16.532 16.532 0 0 0-6.474-5.377c-1.421-.633-2.783-1.402-4.282-2.172a8.754 8.754 0 0 1 5.995-4.514c5.917-1.257 10.79-7.694 8.563-14.534.72-1.581 1.353-2.966 2.107-4.634l7.236 5.6c6.26-1.71 12.52-3.548 18.839-5.129 2.569-.642 5.258-1.556 7.887.59 1.773 6.839-4.281 7.737-8.126 10.019.119 2.104 1.815 2.446 2.877 3.164 2.946 1.983 6.088 3.667 9.103 5.548 2.672 1.667 5.189 3.523 6.328 6.84-.068 2.719-1.302 4.702-4.453 5.523-4.23-5.198-9.531-9.336-15.491-13.192-.437.992-.754 1.71-1.096 2.462 4.616 4.822 11.389 7.045 14.703 14.244l-1.027 5.403c-1.55.607-2.569 1.06-3.657 1.411a3.423 3.423 0 0 1-4.384-1.71 40.2 40.2 0 0 0-11.047-12.824 12.692 12.692 0 0 1-1.559-1.71l-2.569 1.915c5.224 4.633 10.448 8.857 12.845 15.295-2.295 3.214-4.607 3.984-7.484 2.103a27.906 27.906 0 0 1-4.581-4.275c-1.533-1.607-2.193-4.018-4.702-5.027l-1.344 1.855c1.387 1.898 2.783 3.659 4.024 5.532 1.242 1.872 2.398 3.65.24 5.753-4.102.189-6.508-2.453-8.7-5.249-3.331-4.24-6.517-8.592-9.771-12.91Zm107.042 66.754a19.723 19.723 0 0 1-3.236.291c-4.513-.419-9.026-.923-13.531-1.411-3.245-.35-6.482-.777-9.728-1.06-7.347-.641-14.712-1.171-22.059-1.829-8.897-.804-17.786-1.71-26.675-2.565-5.643-.547-11.286-1.086-16.921-1.71a36.133 36.133 0 0 1-4.282-1v-38.721c3.1 1.385 5.994 3.147 9.831 1.821l2.303-2.487c2.569 0 4.882.444 6.954-.12 2.072-.564 3.819-2.129 6.44-3.694 7.707-.376 11.312-3.582 10.755-9.712 1.961-1.889 4.111-3.231 5.198-5.172 2.09-3.702.72-7.874-3.125-10.824-1.902-1.462-4.025-2.65-6.046-3.95l-5.335-3.419c1.764-2.044 3.237-3.685 4.641-5.395 2.038-2.454 1.584-5.13.189-7.566a5.816 5.816 0 0 0-6.252-2.822c-3.776.616-7.51 1.479-11.218 2.42-3.708.94-7.356 2.103-10.901 3.138a4.785 4.785 0 0 1-3.631-4.891c-.06-6.403 0-12.824 0-19.227v-4.138l33.654-7.105c.234.938.392 1.893.471 2.856v17.098c0 1.368.214 2.736.394 4.908 9.112-1 17.435-2.197 26.119-3.548v-26.726c11.594-2.795 23.009-4.77 34.407-7.335 1.096 1.299.677 2.77.677 4.104.051 11.678-.36 23.374.137 35.052.068 1.591.128 3.172.18 4.754.077 2.129.145 4.275.197 6.395.042 1.522.085 3.043.111 4.565v.932c0 1.3.06 2.565.077 3.89v1.889c.385 25.974-.206 51.947.137 77.92.068 1.342.068 2.77.068 4.394Zm-58.864-110.475v-21.246c6.568-1.633 12.948-3.343 20.089-3.898 0 7.925.951 15.517-1.001 23.4-5.61.752-11.133 1.53-16.759 2.214a7.59 7.59 0 0 1-2.346-.47h.017ZM324.57 386.7c-13.822 2.778-27.557 5.984-41.73 8.549-1.456-10.259-3.605-19.262-4.718-28.675l87.329-18.347c.377 10.14.737 19.886 1.113 29.846-14.3 2.941-28.13 5.848-41.986 8.635l-.008-.008Zm194.097 133.926a5.485 5.485 0 0 1-.402 1.343 8.903 8.903 0 0 1-1.584.307c-15.414.325-30.769.274-46.123 1.061-10.533.538-21.083.102-31.564.855-8.264.615-16.502.436-24.749.658-13.084.35-26.178.598-39.271.855h-4.539a5.646 5.646 0 0 1-.625-1.496c-.283-8.233-.737-16.467-.762-24.691 0-6.184-.014-12.365-.043-18.544v-16.671c0-10.146-.014-20.294-.043-30.445v-52.485c5.575 0 10.67-.094 15.757 0 3.828.086 7.647.522 11.475.684 2.689.12 5.383.231 8.084.334l4.41.171 11.92.453c2.124 6.523.856 13.362 2.783 19.997.307.158.632.279.968.359l21.306.932c5.814.256 11.629.556 17.452.812 1.396.06 2.791 0 4.65 0 .959-6.959-1.156-13.431-.994-20.313 2.929 0 5.592-.086 8.255 0 2.407.102 4.796.53 7.194.607 11.946.41 23.883.752 35.743 1.12.189.179.3.265.394.376.094.111.214.213.231.333.111.699.18 1.404.206 2.112-.04 43.796-.083 87.555-.129 131.276Z" fill="#022F45"/><path d="M241.283 495.474c0 5.395.111 10.935 0 16.466-.155 5.668-.137 11.397-1.002 16.979-.643 4.155-.309 8.498-1.328 13.004-.967 0-1.935.051-2.903.06 0-.445 0-.855.077-1.325.48-5.207 1.002-10.414 1.508-15.62 0-.145.051-.282.06-.428l1.113-27.17-3.7-1.65c3.289-2.368 5.995-3.796 7.956-5.865 1.961-2.069 3.083-4.574 4.581-6.899l1.225.616c.599 5.599-3.648 8.463-7.587 11.832Z" fill="#022F45"/><path d="M423.306 403.097c.307.159.632.279.968.359l21.306.932c5.814.257 11.629.556 17.452.813 1.396.059 2.792 0 4.65 0 .959-6.96-1.156-13.432-.994-20.314 2.929 0 5.592-.085 8.256 0 2.406.103 4.795.53 7.193.607 11.946.41 23.883.752 35.743 1.12.189.18.3.265.394.376.095.111.214.214.232.334.11.699.179 1.404.205 2.111 0 43.716-.014 87.433-.043 131.149a5.535 5.535 0 0 1-.402 1.342 8.995 8.995 0 0 1-1.584.308c-15.415.325-30.769.273-46.123 1.06-10.533.538-21.083.102-31.565.855-8.263.615-16.501.436-24.748.658-13.085.351-26.178.599-39.272.855h-4.538a5.646 5.646 0 0 1-.625-1.496c-.283-8.233-.737-16.466-.762-24.691-.12-37.617-.177-75.209-.172-112.775v-5.37c5.575 0 10.67-.094 15.757 0 3.828.086 7.647.522 11.475.684 8.084.36 16.176.642 24.414.958 2.124 6.651.891 13.491 2.783 20.125ZM308.865 355.571a7599.702 7599.702 0 0 0-7.348-35.301l4.333-3.419c-5.591-13.56-11.483-26.888-17.126-40.003-12.443-5.01-25.271-6.942-38.176-9.918-.985 4.515-1.541 5.72-3.562 7.199-6.654 4.882-14.173 5.694-21.965 4.095-5.507-1.137-9.472-4.437-10.893-10.105-2.227.188-4.222.205-6.166.547-12.425 2.18-24.834 4.48-37.259 6.634-6.902 1.197-13.642 2.907-19.893 6.096a25.24 25.24 0 0 0-8.135 5.985c-4.128 4.881-5.284 10.746-5.626 16.645a137.143 137.143 0 0 0 1.361 28.872 185.398 185.398 0 0 0 8.624 34.608 121.286 121.286 0 0 0 8.734 19.749c4.025-4.505 7.836-9.105 11.989-13.32a74.34 74.34 0 0 1 9.523-7.848c8.152-5.865 16.27-11.858 26.966-13.525-.857-1.18-1.413-2.146-2.141-2.976-2.321-2.684-4.804-5.24-7.039-7.993-4.462-5.515-8.82-11.115-13.171-16.723-.925-1.188-.856-2.351 1.242-3.283 9.334 11.268 17.512 23.622 28.191 33.608.077 5.771-3.546 9.481-6.063 13.576.107.463.289.905.539 1.308 5.061 5.386 9.882 11.046 15.312 16.056 7.921 7.31 16.15 14.32 24.5 21.151 5.42 4.429 10.276 9.849 17.409 11.79.939.387 1.828.887 2.646 1.488.283 1.222.557 2.402.856 3.582.591-8.344.189-16.697.557-25.332l12.674-2.924c-1.285-10.533-3.768-20.672-5.053-31.385l13.933-3.471c-.754-2.052-1.344-3.77-2.021-5.454a9745.547 9745.547 0 0 0-8.906-22.135c-.488-1.197-.933-2.402.54-3.42 2.012.205 2.226 2.018 2.774 3.335 1.987 4.71 3.794 9.489 5.703 14.234 1.713 4.326 3.529 8.635 5.344 13.047l16.425-3.557c.188-.718.436-1.154.368-1.513Zm-61.503-65.386c-11.86 3.086-23.035 1.582-33.285-5.378-1.593-1.077-1.568-1.12-1.276-3.753 2.834 1.445 5.446 2.992 8.22 4.129a50.886 50.886 0 0 0 8.872 2.813c2.902.627 5.872.877 8.838.744a39.851 39.851 0 0 0 9.145-1.71 92.037 92.037 0 0 0 8.821-3.625l1.584 1.804a29.604 29.604 0 0 1-10.919 4.976Z" fill="#FEB703"/><path d="M304.206 419.093c9.112-1 17.435-2.197 26.118-3.548v-26.717c11.595-2.795 23.01-4.77 34.408-7.335 1.096 1.299.677 2.77.677 4.104.051 11.678-.36 23.374.137 35.052 1.413 33.446.299 66.9.745 100.345v4.412a19.734 19.734 0 0 1-3.237.29c-4.513-.419-9.026-.923-13.53-1.41-3.246-.351-6.483-.778-9.728-1.061-7.348-.641-14.712-1.171-22.06-1.829-8.897-.804-17.786-1.71-26.675-2.565-5.643-.547-11.286-1.086-16.921-1.71a36.133 36.133 0 0 1-4.282-1v-38.738c3.1 1.385 5.995 3.147 9.831 1.821l2.304-2.487c2.569 0 4.881.444 6.953-.12 2.072-.564 3.819-2.129 6.44-3.694 7.707-.376 11.312-3.582 10.755-9.712 1.961-1.889 4.111-3.231 5.198-5.172 2.09-3.702.72-7.874-3.125-10.824-1.901-1.462-4.025-2.65-6.046-3.95l-5.335-3.419c1.764-2.044 3.237-3.685 4.641-5.395 2.038-2.454 1.585-5.13.189-7.566a5.813 5.813 0 0 0-6.251-2.822c-3.777.616-7.511 1.479-11.219 2.42-3.707.94-7.355 2.103-10.901 3.138a4.79 4.79 0 0 1-3.631-4.891c-.06-6.403 0-12.824 0-19.227v-4.138l33.655-7.105c.234.938.391 1.893.471 2.856v17.099c.008 1.359.239 2.727.419 4.898Z" fill="#022F45"/><path d="M469.522 209.7c-3.828-.342-7.484-.914-11.132-.974-23.336-.351-46.679.196-70.015-.855-11.535-.505-23.121-.154-34.673-.163-1.096 0-2.192.197-3.819.351 1.045 6.07 2.092 12.12 3.143 18.15 3.314 19.185 6.645 38.225 10.087 57.281 3.734.368 7.099.855 10.473 1.018 7.853.325 15.688.094 23.55.308 2.68.068 5.369.196 8.058.41 11.346.915 22.77-.085 34.168.855 7.373.624 14.832.197 22.265.222 1.121 0 2.243-.111 3.767-.188.386-7.523.754-14.602 1.105-21.673.069-1.282 0-2.564.069-3.847.513-7.207 1.173-14.406 1.575-21.621.437-7.943.643-15.894.977-23.836 0-.855.342-1.667.411-2.514.068-.846-.009-1.829-.009-2.924Zm-8.649 27.179c-3.323.957-28.062 1.128-32.909.197-.377-5.737-.771-11.602-1.19-17.817 4.076-.915 7.749-.368 11.372-.445a224.16 224.16 0 0 1 11.509 0c3.639.12 7.339-.539 10.841.436 1.054 3.172 1.242 12.935.377 17.629Z" fill="#fff"/><path d="m360.099 284.885-51.38 30.718c-9.343-21.793-18.514-43.175-27.788-64.771l20.483-13.192a18.074 18.074 0 0 1 1.405 3.027c.95 3.847 1.712 7.737 2.68 11.593a31.26 31.26 0 0 0 1.165 3.249c3.622-.736 5.797-3.352 8.477-5.087 2.681-1.736 5.139-3.531 7.571-5.267 0-6.694-1.525-12.73-2.998-19.21l27.121-17.373c4.453 25.649 8.82 50.758 13.264 76.313ZM404.749 77.398c-1.13-7.994-2.32-15.534-3.219-23.083-.9-7.55-1.448-15.116-3.075-22.708l-13.162-.855c-.565 0-1.13-.068-1.712-.12-5.361-.512-10.713-1.102-16.082-1.521-5.37-.42-10.491-.624-15.748-.932-3.828-.248-7.639-.59-11.467-.855-7.638-.556-15.285-1.077-22.933-1.65-2.252-.162-4.504-.556-6.756-.633-3.246-.11-6.491 0-10.148 0 5.361 20.297 10.619 40.183 16.091 60.924l4.282-4.275c1.787.22 3.585.34 5.386.359 6.397-.222 12.785-.573 19.173-.855.292 0 .574 0 .857-.068l17.803-1.155c.651 4.865 1.233 9.285 1.833 13.808l30.554-1.71c-.497-4.745-.951-9.071-1.447-13.876l9.77-.795Zm-41.652-27.256c-6.851.855-13.847 1.026-21.134 1.53a101.285 101.285 0 0 1-6.791-17.098c4.11-.462 7.707-.983 11.329-1.257 8.058-.633 16.116-1.205 24.183-1.659 3.374-.196 6.765 0 10.448 0 1.164 5.523 2.868 10.568 3.194 16.398-7.219 1.308-14.284 1.274-21.229 2.086Zm32.327 40.26c-.896.377-1.811.708-2.74.991a8.131 8.131 0 0 1-1.713.052c-6.525.29-13.059.59-19.593.855-1.379.06-2.766 0-4.53 0-.531-4.335-1.011-8.2-1.542-12.534l27.617-1.539c2.27 3.677 1.139 8.011 2.501 12.175Z" fill="#FEB703"/><path d="M370.153 377.646c-1.293-5.361-1.713-24.255-.711-29.487 1.319-.06 2.706-.197 4.094-.171 15.799.29 31.624.162 47.389 1.077 10.679.624 21.409-.086 31.993.761 12.957 1.034 25.904.393 38.844.855 2.014.178 4.016.478 5.994.897-1.413 10.568-2.971 20.852-4.872 31.291-2.253 0-4.085.077-5.909 0-3.965-.196-7.921-.572-11.895-.709-10.798-.368-21.605-.616-32.412-.966-6.851-.223-13.702-.146-20.432-.924-7.707-.855-15.415-.068-23.01-.855-7.596-.786-15.354-.419-23.019-.778a57.89 57.89 0 0 1-6.054-.991ZM258.314 191.131a10.864 10.864 0 0 0-3.219-4.856 51.322 51.322 0 0 0-5.995-4.403 43.486 43.486 0 0 0-16.827-6.326c-6.226-.941-12.22-.146-17.683 3.231-1.824 1.129-2.878 2.326-3.263 3.805a7.69 7.69 0 0 0 .248 4.112c.608 2.163 1.139 4.343 1.799 6.899-1.987 1.599-3.76 3.206-5.695 4.566-4.05 2.838-4.855 4.95-3.477 9.797.54 1.916 1.011 3.848 1.61 5.737.805 2.522 0 4.403-2.072 5.985a6.44 6.44 0 0 1-5.207-3.283c-2.029-3.258-4.007-6.549-6.174-9.704-1.969-2.855-4.359-5.283-8.127-5.617-4.512.778-4.333 4.668-5.223 7.78.411 10.875 8.777 14.868 18.3 12.901.368.57.691 1.168.967 1.787 2.33 6.446 5.207 12.559 9.788 17.8 4.453 5.078 9.326 9.661 15.466 12.533 10.927 5.13 19.156 2.899 25.69-5.078a47.957 47.957 0 0 0 9.189-19.031c1.173-4.702 1.301-9.533 1.961-14.295a55.28 55.28 0 0 0-2.056-24.34Zm-69.569 25.99c-2.132.351-3.031-1.111-3.648-2.787-.736-2-.359-2.718 2.347-4.719 2.363 1.043.856 2.565.856 4.583l3.169 1.325c-1.568.94-2.124 1.47-2.724 1.598Zm32.07-17.201-1.199-1.052c1.636-3.018 4.282-2.958 6.56-3.949 2.175.966 5.361.256 6.448 3.599-2.218 1.633-4.016-.616-5.917-.145-1.764.41-3.52.897-5.892 1.521v.026Zm3.426 11.456a27.733 27.733 0 0 1 .154-5.129c.95-.855 2.141-1.992 3.245-3.035 4.282 2.932 4.436 5.847.925 11.285-.922-.08-1.83-.284-2.697-.607a2.67 2.67 0 0 1-1.204-1.019 2.652 2.652 0 0 1-.415-1.52l-.008.025Zm8.435 26.922c-2.107-.949-4.111-2.342-4.068-6.061l8.058 3.984c-.796 1.855-2.235 2.821-3.948 2.052l-.042.025Zm13.59-16.628a7.968 7.968 0 0 1-5.387 3.958c-.813.145-1.712-.35-3.494-.761l6.295-4.471c-.471-3.463-3.494-5.07-4.599-7.763-1.105-2.693-2.021-5.549-3.109-8.549l1.294-1.616c.942.555 1.464.675 1.609.983.327.765.593 1.553.797 2.36.993 3.274 2.115 6.446 4.693 8.917a6.9 6.9 0 0 1 1.909 6.916l-.008.026Zm8.657-5.6h-3.134c-.12-.188-.231-.368-.334-.547-2.783-4.685-1.892-8.259 2.432-10.26 3.34 2.565 3.682 4.523 1.327 10.183-.085.145-.179.367-.282.598l-.009.026Zm2.09-15.021c-3.057-2.463-6.243-2.48-9.137-.385-1.559-.855-1.55-1.71-.745-2.608 2.269-2.565 5.934-3.026 9.308-1.017a22.247 22.247 0 0 1 2.971 2.684l-2.397 1.326ZM199.587 367.985c5.138 5.548 10.054 11.285 15.466 16.466 6.448 6.181 13.29 11.969 20.055 17.774 5.481 4.72 11.133 9.268 16.622 13.936a29.218 29.218 0 0 1 2.363 2.462c-.471 3.42-2.415 5.207-5.592 6.275-5.814 1.958-8.666 7.139-7.475 13.141l-6.586 5.984c-1.789-1-4.076-2.342-6.431-3.573a187.056 187.056 0 0 1-34.039-22.417 83.688 83.688 0 0 1-19.157-22.664 60.723 60.723 0 0 1-2.817-6.515c2.809-7.806 17.444-18.749 27.591-20.869ZM282.849 395.283c-1.456-10.259-3.605-19.262-4.718-28.675l87.321-18.381c.377 10.14.736 19.886 1.113 29.846-14.275 2.941-28.105 5.848-41.961 8.635-13.855 2.787-27.582 6.01-41.755 8.575ZM297.15 27.555 259.6 80.689c6.045 12.714 11.988 25.221 18.06 38.011 12.34-10.353 24.286-20.373 36.146-30.342-5.035-22.091-14.9-58.315-16.656-60.803Zm-21.323 50.21-1.336-2.077 17.487-20.023 1.712 1.385c-4.752 7.892-10.944 14.39-17.863 20.716Z" fill="#fff"/><path d="M346.056 116.401a78.686 78.686 0 0 1 16.63-3.531c2.106-.24 4.213-.513 6.328-.676 2.698-.213 5.404-.393 8.024 1.103 5.215 19.903 10.276 39.9 13.171 60.342-3.289.855-20.244 1.069-27.198.445-.325-1.804-.505-3.583-.985-5.275-2.817-9.96-5.634-19.921-8.563-29.838-1.713-5.702-3.699-11.311-5.566-16.971-.617-1.744-1.165-3.496-1.841-5.599Z" fill="#FEB703"/><path d="M263.042 432.02c.719-1.582 1.353-2.967 2.106-4.634l7.237 5.6c6.259-1.71 12.519-3.548 18.839-5.13 2.569-.641 5.258-1.556 7.887.59 1.773 6.84-4.282 7.738-8.127 10.02.12 2.104 1.816 2.445 2.878 3.164 2.945 1.983 6.088 3.667 9.102 5.548 2.672 1.667 5.19 3.523 6.329 6.84-.069 2.718-1.302 4.702-4.453 5.523-4.231-5.198-9.531-9.336-15.491-13.192-.437.992-.754 1.71-1.097 2.462 4.616 4.822 11.39 7.045 14.704 14.243l-1.028 5.404c-1.55.607-2.569 1.06-3.656 1.41a3.427 3.427 0 0 1-4.385-1.709 40.201 40.201 0 0 0-11.047-12.825 12.63 12.63 0 0 1-1.558-1.71l-2.569 1.916c5.224 4.633 10.447 8.857 12.845 15.294-2.295 3.215-4.607 3.984-7.484 2.104a27.953 27.953 0 0 1-4.582-4.275c-1.533-1.607-2.192-4.018-4.701-5.027l-1.345 1.855c1.388 1.898 2.783 3.659 4.025 5.532 1.242 1.872 2.398 3.65.24 5.753-4.102.188-6.508-2.453-8.7-5.249-3.332-4.275-6.517-8.549-9.746-12.901a16.535 16.535 0 0 0-6.474-5.378c-1.421-.632-2.783-1.402-4.281-2.171a8.745 8.745 0 0 1 5.994-4.514c5.892-1.249 10.756-7.669 8.538-14.543Z" fill="#fff"/><path d="m163.038 443.1 11.698-41.131c4.427 4.873 8.794 10.131 13.65 14.893a120.168 120.168 0 0 0 23.412 17.637c6.988 4.104 14.121 7.977 21.177 11.97.343.251.659.537.942.855-22.864 5.685-52.031 3.778-70.879-4.224Z" fill="#FEB703"/><path d="M360.656 174.306c-8.64-.231-17.127.718-26.067-.855-5.301-13.312-10.798-27.119-16.373-41.106 6.851-7.215 15.328-11.388 24.62-15.013 7.304 18.57 11.586 37.909 17.82 56.974ZM407.412 174.161h-13.607c-2.278-10.217-3.828-20.519-6.149-30.684-2.32-10.166-4.906-20.049-7.475-30.471 7.655.428 14.189 3.266 20.475 6.344 2.278 18.339 4.504 36.369 6.756 54.811ZM463.699 385.144c-.334 5.582 1.644 10.755.805 16.363-12.991 1.112-25.69-1.308-38.715-.547-.591-5.985-1.131-11.593-1.713-17.441 4.282-1.479 8.564.633 12.845.385 4.28-.203 8.568-.183 12.845.06 4.402.205 8.761.726 13.933 1.18Z" fill="#fff"/><path d="M320.408 184.283c-3.52-5.19-14.558-32.941-14.832-37.814l10.054-12.371 16.835 42.482-12.057 7.703Z" fill="#FEB703"/><path d="M246.977 268.794c-4.915 7.472-16.99 8.55-22.924 6.036-4.83-2.026-7.099-5.548-7.228-10.516-.094-3.342.283-6.702.463-10.259 1.242.599 2.646 1.197 3.973 1.941 8.161 4.582 16.348 5.352 24.894 0 .146 4.488 1.816 8.66.822 12.798ZM307.426 414.913v-21.246c6.568-1.633 12.948-3.342 20.09-3.898 0 7.925.95 15.517-1.002 23.4-5.609.752-11.133 1.53-16.759 2.214a7.578 7.578 0 0 1-2.329-.47ZM317.291 227.526c.856 5.463 1.712 10.465 2.62 15.962l-11.364 7.96c-1.284-5.481-2.474-10.602-3.725-15.945l12.469-7.977ZM255.66 427.438l4.453 4.693v6.985l-3.596 3.676c-1.996 0-3.691.052-5.378 0-4.505-.145-7.039-2.488-7.253-6.643-.24-4.471 2.748-8.25 6.944-8.677 1.405-.129 2.826-.034 4.83-.034ZM444.329 301.376a10.99 10.99 0 0 0-1.841-.35c-12.846-.095-25.648-.163-38.75-.24h-.762c-.128.325-.694 1.018-.574 1.573 1.319 6.472 1.841 13.115 3.991 19.801h3.537c1.138 0 2.012 0 2.997-.043 3.965-.188 7.921-.598 11.886-.693 5.557-.136 11.132-.051 16.681-.102a31.816 31.816 0 0 0 3.203-.325c.659-4.865.471-16.15-.368-19.621Zm-.394 18.484c-6.722.256-12.802.581-18.891.701-5.952.111-11.912 0-18.112 0-1.164-6.352-2.278-12.397-3.425-18.629l2.372-.128c.582 0 1.165-.052 1.713-.069h10.156l2.166.06c2.098.06 4.197.145 6.295.239l3.759.18 1.91.085 3.776.171 1.91.077 3.81.12 1.919.043c-.043 5.89 1.695 11.396.642 17.15ZM419.838 187.652l-34.75 2.24-.052-.855c11.526-1.565 23.121-1.445 34.708-2.736l.094 1.351ZM321.358 203.391l-13.35 6.84c3.494-3.967 8.452-5.224 12.631-7.9l.719 1.06Z" fill="#fff"/><path d="m256.696 283.405 1.584 1.804a29.603 29.603 0 0 1-10.926 4.976c-11.861 3.086-23.036 1.582-33.286-5.378-1.593-1.077-1.568-1.12-1.276-3.753 2.834 1.445 5.446 2.992 8.221 4.129a50.849 50.849 0 0 0 8.871 2.813c2.902.627 5.872.877 8.838.744a39.851 39.851 0 0 0 9.145-1.71 92.074 92.074 0 0 0 8.829-3.625ZM460.505 219.276c-3.503-.975-7.202-.316-10.841-.436a178.11 178.11 0 0 0-11.51 0c-3.622.077-7.296-.47-11.372.444.42 6.216.814 12.081 1.191 17.817 4.846.932 29.586.761 32.909-.196.856-4.719.668-14.483-.377-17.629Zm-27.403 15.637a10.414 10.414 0 0 1-2.098-.419c-.343-4.095-.685-8.242-1.053-12.662 9.282-1.145 18.368.522 27.805.599.18 3.898.351 7.532.522 11.447-8.554.342-16.887.71-25.176 1.035ZM362.098 95.967c-.722-5.534-1.375-10.468-2.098-16.002L397.596 78c3.124 4.672 1.585 10.206 3.404 15.522-1.22.481-2.465.904-3.73 1.266-.773.099-1.554.12-2.332.066-8.883.37-17.778.753-26.673 1.091-1.877.11-3.765.022-6.167.022ZM381.131 31.599c-3.683 0-7.074-.163-10.448 0-8.066.453-16.125 1.026-24.183 1.658-3.613.274-7.219.795-11.329 1.257a101.281 101.281 0 0 0 6.791 17.099c7.287-.505 14.249-.718 21.134-1.53 6.885-.813 14.01-.778 21.229-2.112-.326-5.771-2.03-10.815-3.194-16.372Zm-3.965 14.371c-5.095.402-10.216.582-15.312 1-4.804.394-9.582 1.01-14.378 1.471-1.121.111-2.269 0-3.922 0-1.395-3.625-2.86-7.42-4.401-11.44l38.955-2.632c2.046 3.18 2.012 6.745 2.809 10.507a20.152 20.152 0 0 1-3.751 1.129v-.035ZM246.275 221.644a7.968 7.968 0 0 1-5.387 3.958c-.813.146-1.712-.35-3.494-.76l6.295-4.472c-.471-3.462-3.494-5.07-4.599-7.763-1.105-2.693-2.021-5.548-3.109-8.549l1.294-1.616c.942.556 1.464.675 1.609.983.327.765.593 1.554.797 2.36.993 3.274 2.115 6.446 4.693 8.917a6.915 6.915 0 0 1 1.901 6.942ZM228.437 215.412a6.946 6.946 0 0 1-3.425-2.565 6.782 6.782 0 0 1 0-7.695 6.165 6.165 0 0 1 2.637-1.975 7.211 7.211 0 0 1 3.357 3.685c1.062 2.804.052 6.224-2.569 8.55ZM253.553 216.959a6.74 6.74 0 0 1-3.066-2.77 6.552 6.552 0 0 1 .686-7.395 5.925 5.925 0 0 1 2.714-1.667 6.98 6.98 0 0 1 2.895 3.838c.77 2.787-.506 5.985-3.229 7.994ZM259.419 199.698l-2.398 1.325c-3.057-2.462-6.242-2.48-9.137-.385-1.558-.855-1.55-1.71-.745-2.607 2.27-2.565 5.935-3.027 9.309-1.018a22.248 22.248 0 0 1 2.971 2.685ZM232.625 198.492c-2.218 1.633-4.016-.615-5.917-.145-1.764.436-3.52.923-5.892 1.547l-1.199-1.051c1.636-3.018 4.282-2.958 6.56-3.95 2.175.966 5.36.256 6.448 3.599ZM187.444 209.589c2.364 1.043.856 2.565.856 4.583l3.169 1.325c-1.636.966-2.167 1.496-2.766 1.599-2.132.35-3.032-1.112-3.648-2.787-.694-2.001-.291-2.719 2.389-4.72ZM228.617 232.211l8.058 3.984c-.805 1.881-2.261 2.847-3.991 2.078-2.106-.949-4.11-2.343-4.067-6.062ZM291.977 55.631l1.713 1.385c-4.77 7.943-10.961 14.423-17.88 20.715l-1.336-2.077 17.503-20.023ZM443.935 319.86c-6.723.257-12.803.581-18.891.701-5.952.111-11.912 0-18.112 0-1.164-6.352-2.278-12.397-3.425-18.629 13.41-.855 26.392.504 39.803.744-.06 5.924 1.678 11.43.625 17.184Z" fill="#022F45"/><path d="M458.236 233.878c-8.512.351-16.844.71-25.176 1.035a10.414 10.414 0 0 1-2.098-.419c-.343-4.095-.686-8.242-1.054-12.662 9.283-1.145 18.369.522 27.806.599.222 3.898.351 7.515.522 11.447ZM380.917 44.927c-1.212.48-2.468.84-3.751 1.078-5.095.401-10.216.58-15.311 1-4.804.393-9.583 1.009-14.378 1.47-1.122.111-2.269 0-3.922 0-1.396-3.625-2.86-7.42-4.402-11.439l38.955-2.633c2.047 3.18 2.013 6.763 2.809 10.524ZM241.282 511.94c.146-5.531 0-11.114 0-16.466 3.905-3.368 8.153-6.233 7.553-11.832l-1.224-.616c-1.499 2.325-2.698 4.95-4.582 6.899-1.884 1.95-4.667 3.497-7.955 5.865l3.699 1.65-1.113 27.17c0 .146 0 .283-.06.428-.505 5.207-1.028 10.413-1.507 15.62-.043.436-.077.855-.077 1.325h-2.475C205.505 542.021 177.5 540.5 151 530c4.213-25.084 10.189-57.216 14.436-82.582a125.066 125.066 0 0 0 35.487 6.335c12.211.504 24.354-1.189 35.29-3.625 3.519 1.205 6.208 1.992 8.794 3.043 4.325 1.762 8.803 3.283 11.775 7.302 3.211 4.334 6.542 8.549 10.122 13.234v29.915c0 4.984.06 10.182.094 15.688l43.947 4.275c.052.324.095.641.146.957a180.094 180.094 0 0 1-72.172 17.338c1.019-4.505.685-8.848 1.327-13.003.899-5.54.882-11.268 1.036-16.937Z" fill="#fff"/></g><circle cx="540" cy="153" r="74.5" fill="#fff" stroke="#022F45"/><path d="M582.737 150.087v.036l.222.028 5.417.679-4.431-.584-1.208-.159ZM548.599 122.408v44.089h-59.914v-44.089h59.914Zm-.764.764h-58.387v42.561h58.387v-42.561Z" fill="#022F45"/><path d="M489.449 123.172v42.561h11.921a10.996 10.996 0 0 1 12.545 0h33.92v-42.561h-58.386Z" fill="#fff"/><path d="m582.874 134.231 6.266 16.518-.813-.077-4.376-.426-.967-.095-.62-.06-1.056-.106-.778-.073-15.906-1.542v-14.139h18.25Zm-17.771 13.685 14.941 1.446 1.123.11 6.984.675.246.025-4.614-12.15-1.254-3.305h-17.426v13.199Z" fill="#022F45"/><path d="m577.686 146.775.179.197 2.165 2.39.454.5.007.049 2.337 15.843.106.718.75-.109-.088-.606-2.327-15.772-.067-.461-.049-.053-2.267-2.499-.64-.707-.56.51ZM557.599 131.454v28.665h.757v-27.905h15.93l2.492 1.936.106.081.32.25.324.25.271.211.165-.211.194-.25.106-.138-.145-.112-2.368-1.841-1.204-.936h-16.948Z" fill="#022F45"/><path d="M576.675 134.48h2.711v12.492h-2.711V134.48Z" fill="#022F45"/><path d="M552.319 165.807v-36.954h28.764c.157.236.296.484.415.742a6049.47 6049.47 0 0 1 8.395 22.935c.205.596.309 1.222.309 1.852.038 4.038.068 8.076.092 12.115h.035l-.028 1.292c0 1.781.009 3.562.028 5.343a14.84 14.84 0 0 1-.183 1.629H488.684v-8.954h63.635Zm29.897-.06h7.071v-2.326l-1.58-.532c-.095-2.348-.064-4.706 0-7.092l1.566-.352c.423-1.658 0-3.066-.88-4.611l-.056-.159-.19-.524-4.365-12.129-.753-2.095-.616-1.71-.046-.127c-.369-.996-.721-1.964-1.094-2.935l-.352-.975-.208-.56H553.41c-.352 1.531-.429 28.31-.053 30.499h4.618l.38-.032.641-.049a19.018 19.018 0 0 1 13.445 5.709h9.775Z" fill="#022F45"/><path d="m581.269 149.989 2.327 15.769h5.692v-2.327l-1.581-.531c-.095-2.348-.063-4.706 0-7.093l1.566-.352c.423-1.657 0-3.065-.88-4.611l-5.416-.679-.62-.06-1.088-.116Z" fill="#fff"/><path d="m578.886 146.972 2.266 2.499 6.984.676-4.354-12.111-1.253-3.305h-3.143v12.241h-.5Z" fill="#9AACB5"/><path d="M565.089 134.731v13.185l14.941 1.446-2.164-2.39h-1.19v-12.241h-11.587Z" fill="#9AACB5"/><path d="M558.355 132.214v27.873l.641-.049a19.022 19.022 0 0 1 13.445 5.709h10.387l-2.337-15.839-15.906-1.541v-14.136h12.298l-.105-.081-2.492-1.936h-15.931Z" fill="#fff"/><path d="M553.351 160.119h4.248v-28.666h16.948l1.204.937 2.375 1.84h4.273l-.045-.123-1.44-3.924-.208-.56h-27.303c-.369 1.528-.429 28.306-.052 30.496ZM507.642 170.182a4.572 4.572 0 0 1 4.227 2.825 4.573 4.573 0 0 1-3.334 6.239 4.584 4.584 0 0 1-4.698-1.946 4.573 4.573 0 0 1 3.805-7.118Zm0 8.31a3.723 3.723 0 1 0-3.724-3.724c0 .49.096.975.282 1.427a3.742 3.742 0 0 0 2.016 2.019c.452.188.937.285 1.426.285v-.007Z" fill="#fff"/><path d="M507.642 164.198a10.56 10.56 0 1 1-4.041 20.315 10.56 10.56 0 0 1-6.519-9.755 10.583 10.583 0 0 1 10.56-10.56Zm0 20.707a10.144 10.144 0 0 0 10.137-10.137 10.119 10.119 0 0 0-4.284-8.264 9.65 9.65 0 0 0-1.26-.778 10.101 10.101 0 0 0-9.187 0 9.737 9.737 0 0 0-1.26.778 10.116 10.116 0 0 0-1.311 15.429 10.14 10.14 0 0 0 7.165 2.972Z" fill="#fff"/><path d="M500.391 166.497c.279-.243.571-.472.87-.704l.109-.074a10.997 10.997 0 0 1 12.545 0l.109.074a11.03 11.03 0 0 1 4.618 8.968 10.999 10.999 0 0 1-21.996 0 10.984 10.984 0 0 1 3.745-8.264Zm-2.886 8.271a10.136 10.136 0 1 0 19.139-4.654 10.116 10.116 0 0 0-3.148-3.61 9.737 9.737 0 0 0-1.26-.778 10.096 10.096 0 0 0-9.187 0 9.65 9.65 0 0 0-1.26.778 10.119 10.119 0 0 0-4.284 8.264Z" fill="#022F45"/><path d="M501.789 166.497a9.65 9.65 0 0 1 1.26-.778 10.101 10.101 0 0 1 9.187 0 9.737 9.737 0 0 1 1.26.778 10.116 10.116 0 0 1 4.283 8.264 10.136 10.136 0 1 1-19.139-4.654 10.128 10.128 0 0 1 3.149-3.61Zm5.853 12.854a4.572 4.572 0 0 0 4.228-2.825 4.573 4.573 0 0 0-.992-4.986 4.575 4.575 0 1 0-3.236 7.811Z" fill="#fff"/><path d="M507.642 170.182a4.572 4.572 0 0 1 4.227 2.825 4.573 4.573 0 0 1-3.334 6.239 4.584 4.584 0 0 1-4.698-1.946 4.573 4.573 0 0 1 3.805-7.118Zm0 8.31a3.723 3.723 0 1 0-3.724-3.724c0 .49.096.975.282 1.427a3.742 3.742 0 0 0 2.016 2.019c.452.188.937.285 1.426.285v-.007Z" fill="#022F45"/><path d="M503.962 175.376a3.724 3.724 0 1 1 7.352-1.194 3.724 3.724 0 0 1-7.352 1.194ZM561.657 170.182a4.575 4.575 0 1 1 0 9.15 4.575 4.575 0 0 1 0-9.15Zm0 8.31c.736 0 1.456-.218 2.069-.627a3.73 3.73 0 0 0 1.583-3.823 3.724 3.724 0 0 0-7.376.726 3.73 3.73 0 0 0 3.724 3.731v-.007Z" fill="#fff"/><path d="M561.656 164.198a10.564 10.564 0 0 1 9.756 6.519 10.564 10.564 0 0 1-2.289 11.507 10.554 10.554 0 0 1-11.507 2.289 10.55 10.55 0 0 1-4.739-3.889 10.552 10.552 0 0 1-1.78-5.866 10.578 10.578 0 0 1 10.559-10.56Zm0 20.707a10.142 10.142 0 0 0 9.372-6.258 10.142 10.142 0 0 0-7.391-13.828 10.14 10.14 0 1 0-1.981 20.086Z" fill="#fff"/><path d="M561.656 163.769a11.003 11.003 0 0 1 10.173 6.78 11.006 11.006 0 0 1-2.376 11.992 10.996 10.996 0 0 1-16.927-1.66 10.998 10.998 0 0 1 9.13-17.112Zm0 21.136a10.142 10.142 0 0 0 9.372-6.258 10.142 10.142 0 0 0-7.391-13.828 10.14 10.14 0 1 0-1.981 20.086Z" fill="#022F45"/><path d="M561.657 164.628a10.136 10.136 0 0 1 9.371 6.257 10.14 10.14 0 0 1-7.388 13.829 10.143 10.143 0 0 1-12.12-9.946 10.149 10.149 0 0 1 10.137-10.14Zm0 14.723a4.575 4.575 0 1 0 0-9.15 4.575 4.575 0 0 0 0 9.15Z" fill="#fff"/><path d="M561.657 170.182a4.575 4.575 0 1 1 0 9.15 4.575 4.575 0 0 1 0-9.15Zm0 8.31c.736 0 1.456-.218 2.069-.627a3.73 3.73 0 0 0 1.583-3.823 3.724 3.724 0 0 0-7.376.726 3.73 3.73 0 0 0 3.724 3.731v-.007Z" fill="#022F45"/><path d="M559.022 177.401a3.724 3.724 0 1 1 5.267-5.266 3.724 3.724 0 0 1-5.267 5.266Z" fill="#fff"/><path d="M515.134 342.731a650.65 650.65 0 0 1-1.266-2.317c16.943-17.501 36.517-31.499 57.083-44.156.599-.376 1.556-.176 2.558-.268a3.27 3.27 0 0 1-1.969 3.614c-15.644 9.089-30.052 19.892-43.795 31.658-2.913 2.494-5.623 5.23-8.443 7.824-1.164 1.125-2.471 2.187-4.168 3.645ZM524.369 257.713l2.55 1.099c-4.146 22.989-10.677 45.025-18.474 66.99l-2.173-.594a4.117 4.117 0 0 1-.114-1.394c1.648-5.259 3.285-10.55 5.041-15.767a348.156 348.156 0 0 0 10.765-40.215c.667-3.159 1.492-6.288 2.405-10.119ZM535.21 353.077c.801-.637 1.54-1.7 2.427-1.849 6.424-1.021 12.873-2.025 19.347-2.699a79.434 79.434 0 0 1 11.908-.216 82.33 82.33 0 0 1 19.094 3.231c-.34 1.001-.59 1.711-.917 2.697-8.642-2.458-17.251-2.969-25.938-3.038-8.686-.069-16.923 1.988-25.332 3.525a23.91 23.91 0 0 0-.589-1.651Z" fill="#022F45"/><defs><clipPath id="a"><path fill="#fff" transform="translate(134)" d="M0 0h393v539H0z"/></clipPath></defs></svg>