<svg width="340" height="56" fill="none" xmlns="http://www.w3.org/2000/svg"><g clip-path="url(#a)"><path d="m2.386.89-.043.04V.863l.043.026ZM3.358.33a.203.203 0 0 1 .065-.026L3.336.35 3.358.33Z" fill="#fff"/><path d="m17.218 46.051-.07 1.099v2.092l568.395-.151H592v1.111h-6.457l-568.61.177.285-4.328Z" fill="#022F45"/><path fill-rule="evenodd" clip-rule="evenodd" d="M591.9 30.923v.864h-5.302v-.864h5.302Zm-15.908 0v.864h-10.605v-.864h10.605Zm-21.206 0v.864H544.18v-.864h10.606Zm-21.211 0v.864h-10.601v-.864h10.601Zm-21.206 0v.864h-10.606v-.864h10.606Zm-21.211 0v.864h-10.601v-.864h10.601Zm-21.207 0v.864h-10.627v-.864h10.627Zm-21.206 0v.864h-10.597v-.864h10.597Zm-21.211 0v.864h-10.601v-.864h10.601Zm-21.206 0v.864h-10.606v-.864h10.606Zm-21.207 0v.864h-10.605v-.864h10.605Zm-21.21 0v.864h-10.606v-.864h10.606Zm-21.207 0v.864h-10.605v-.864h10.605Zm-21.211 0v.864h-10.605v-.864h10.605Zm-21.206 0v.864h-10.606v-.864h10.606Zm-21.211 0v.864h-10.601v-.864h10.601Zm-21.206 0v.864h-10.606v-.864h10.606Zm-21.207 0v.864h-10.605v-.864h10.605Zm-21.211 0v.864h-10.605v-.864h10.605Zm-21.206 0v.864h-10.605v-.864h10.605Zm-21.211 0v.864h-10.609v-.864h10.609Zm-21.206 0v.864h-10.606v-.864h10.606Zm-21.207 0v.864h-10.605v-.864h10.605Zm-21.211 0v.864H98.806v-.864h10.605Zm-21.206 0v.864H77.6v-.864h10.605Zm-21.21 0v.864H56.392v-.864h10.601Zm-21.207 0v.864H35.182v-.864h10.606Zm-21.207 0v.864H19.28v-.864h5.302Z" fill="#022F45"/><path d="M.596 4.782A4.697 4.697 0 0 1 4.693.026 4.976 4.976 0 0 1 9.672 2.62c.116.226.213.462.29.705l3.504 10.857 578.434-.156v1.063l-572.595.303-1.993 34.996H.026l.57-45.606ZM16.081 49.09l1.91-33.582h-5.467L8.725 3.753a2.735 2.735 0 0 0-.194-.489 3.683 3.683 0 0 0-3.67-1.941 3.405 3.405 0 0 0-2.968 3.459l-.58 44.291 14.768.018Z" fill="#022F45"/><path d="M1.314 49.09H16.08l1.91-33.581h-5.467L8.726 3.753a2.733 2.733 0 0 0-.195-.489 3.683 3.683 0 0 0-3.669-1.941 3.405 3.405 0 0 0-2.969 3.459l-.58 44.309Z" fill="#FEB703"/><path d="M319.735 32.22a23.786 23.786 0 0 1-14.673 21.97 23.761 23.761 0 0 1-25.904-5.155 23.784 23.784 0 0 1-5.152-25.916 23.76 23.76 0 0 1 38.767-7.715 23.788 23.788 0 0 1 6.962 16.816Z" fill="#fff"/><path fill-rule="evenodd" clip-rule="evenodd" d="M295.965 55.135a22.898 22.898 0 0 0 21.162-14.146 22.928 22.928 0 0 0-4.965-24.973 22.896 22.896 0 0 0-35.241 3.473 22.921 22.921 0 0 0 2.848 28.934 22.901 22.901 0 0 0 16.196 6.712Zm0 .865a23.761 23.761 0 0 0 21.96-14.68 23.792 23.792 0 0 0-5.152-25.916 23.768 23.768 0 0 0-25.904-5.154 23.786 23.786 0 0 0-7.711 38.785A23.765 23.765 0 0 0 295.965 56Z" fill="#022F45"/><path d="M309.51 31.299h.069l1.729.216-1.401-.186-.397-.03ZM298.688 22.521V36.5h-18.985V22.52h18.985Zm-.242.243h-18.501v13.494h18.501V22.764Z" fill="#022F45"/><path d="M279.945 22.764v13.494h3.777a3.488 3.488 0 0 1 3.976 0h10.748V22.764h-18.501Z" fill="#fff"/><path d="m309.553 26.27 1.97 5.236-.259-.026-1.387-.134-.307-.03h-.195l-.337-.034h-.246l-5.039-.489V26.27h5.8Zm-5.619 4.324 4.754.458.355.035 2.212.216h.078l-1.461-3.852-.397-1.05h-5.554l.013 4.193Z" fill="#022F45"/><path d="m307.91 30.265.056.06.683.758.147.16.743 5.024.031.224.237-.034-.026-.19-.739-5.003v-.147l-.717-.791-.203-.225-.212.164ZM301.545 25.388v9.08h.238V25.63h5.047l.804.614.035.026.099.078.104.078.086.069.052-.07.061-.077.034-.043-.047-.035-.748-.584-.385-.298h-5.38Z" fill="#022F45"/><path d="M307.591 26.348h.864v3.96h-.864v-3.96Z" fill="#022F45"/><path d="M299.855 36.28V24.562h9.118c.048.077.091.157.13.238.896 2.421 1.783 4.846 2.662 7.273.066.189.1.388.1.588l.025 3.84v2.126a4.046 4.046 0 0 1-.06.515h-32.153V36.28h20.178Zm9.477 0h2.239v-.757l-.48-.169c-.03-.743 0-1.491 0-2.248l.497-.112a1.885 1.885 0 0 0-.277-1.462v-.047l-.06-.169-1.383-3.844-.268-.666-.194-.54v-.043c-.117-.316-.23-.623-.346-.93l-.113-.307-.064-.177h-8.644c-.108.484-.134 8.976 0 9.668H302.028a6.018 6.018 0 0 1 4.262 1.811l3.042-.008Z" fill="#022F45"/><path d="m309.043 31.264.752 5.003h1.802v-.74l-.506-.168c-.03-.744 0-1.492 0-2.249l.497-.112a1.867 1.867 0 0 0-.276-1.461l-1.729-.217h-.199l-.341-.056Z" fill="#fff"/><path d="m308.291 30.308.717.792 2.213.216-1.379-3.84-.397-1.05h-.998v3.891l-.156-.009Z" fill="#9AACB5"/><path d="M303.917 26.426v4.18l4.754.459-.683-.757h-.376v-3.891l-3.695.009Z" fill="#9AACB5"/><path d="M301.782 25.63v8.838h.203a6.018 6.018 0 0 1 4.261 1.811h3.294l-.744-5.024-5.052-.505v-4.48h3.89v-.026l-.791-.614h-5.061Z" fill="#fff"/><path d="M300.196 34.476h1.349v-9.08h5.367l.385.299.769.575h1.353v-.039l-.488-1.245-.065-.177h-8.644c-.125.484-.147 8.976-.026 9.667ZM285.71 37.667c.288.002.569.087.808.247a1.452 1.452 0 0 1-1.361 2.547 1.45 1.45 0 0 1 .553-2.793Zm0 2.638c.234 0 .463-.07.657-.199.195-.13.345-.315.432-.532.093-.207.124-.437.091-.661a1.218 1.218 0 0 0-.324-.606 1.193 1.193 0 0 0-1.827.181c-.13.195-.2.424-.2.658.002.313.126.612.346.835a1.195 1.195 0 0 0 .812.346l.013-.022Z" fill="#fff"/><path d="M285.71 35.77c.662 0 1.309.197 1.858.566a3.353 3.353 0 0 1 1.302 3.927 3.347 3.347 0 0 1-.792 1.244 3.343 3.343 0 0 1-5.452-1.088 3.348 3.348 0 0 1 3.084-4.628v-.021Zm0 6.567a3.203 3.203 0 0 0 2.748-1.54 3.206 3.206 0 0 0-.894-4.292 2.355 2.355 0 0 0-.354-.225l-.044-.026a3.204 3.204 0 0 0-2.912 0l-.044.026c-.124.064-.243.14-.354.225a3.213 3.213 0 0 0 1.854 5.832Z" fill="#fff"/><path d="m283.433 36.5.276-.225.035-.021a3.486 3.486 0 0 1 3.976 0l.035.021a3.429 3.429 0 0 1 1.462 2.533 3.428 3.428 0 0 1-1.03 2.738 3.482 3.482 0 0 1-5.925-2.426 3.503 3.503 0 0 1 1.171-2.62Zm-.912 2.625a3.217 3.217 0 0 0 5.445 2.198 3.215 3.215 0 0 0 .981-2.198 3.218 3.218 0 0 0-1.361-2.624 2.73 2.73 0 0 0-.354-.221l-.044-.026a3.204 3.204 0 0 0-2.912 0l-.044.026a3.266 3.266 0 0 0-1.352 1.366 3.208 3.208 0 0 0-.381 1.479h.022Z" fill="#022F45"/><path d="M283.865 36.5a3.24 3.24 0 0 1 .354-.225l.043-.022a3.208 3.208 0 0 1 2.913 0l.043.022c.123.067.242.142.355.225a3.208 3.208 0 0 1 .416 4.891 3.21 3.21 0 1 1-4.124-4.891Zm1.854 4.077c.288-.001.569-.087.808-.246.239-.16.424-.387.532-.653a1.454 1.454 0 0 0-.314-1.584 1.442 1.442 0 0 0-1.584-.31 1.45 1.45 0 0 0-.724 2.025 1.456 1.456 0 0 0 1.278.768h.004Z" fill="#fff"/><path d="M285.71 37.667c.288.002.569.087.808.247a1.452 1.452 0 0 1-1.361 2.547 1.45 1.45 0 0 1 .553-2.793Zm0 2.638c.234 0 .463-.07.657-.199.195-.13.345-.315.432-.532.093-.207.124-.437.091-.661a1.218 1.218 0 0 0-.324-.606 1.193 1.193 0 0 0-1.827.181c-.13.195-.2.424-.2.658.002.313.126.612.346.835a1.195 1.195 0 0 0 .812.346l.013-.022Z" fill="#022F45"/><path d="M284.543 39.315a1.181 1.181 0 0 1 1.855-1.145 1.176 1.176 0 0 1 .459 1.227 1.18 1.18 0 0 1-2.314-.082ZM302.828 37.667a1.454 1.454 0 0 1 .286 2.875 1.454 1.454 0 0 1-1.491-.618 1.455 1.455 0 0 1 .461-2.05 1.45 1.45 0 0 1 .744-.206Zm0 2.638a1.187 1.187 0 0 0 1.094-.73c.086-.218.108-.455.065-.684a1.166 1.166 0 0 0-.93-.925 1.182 1.182 0 1 0-.246 2.34h.017Z" fill="#fff"/><path d="M302.828 35.77a3.358 3.358 0 0 1 2.972 4.94 3.36 3.36 0 0 1-5.756.285 3.357 3.357 0 0 1 .421-4.244 3.342 3.342 0 0 1 2.363-.981Zm0 6.567a3.225 3.225 0 0 0 3.155-3.857 3.215 3.215 0 0 0-6.366.632 3.214 3.214 0 0 0 3.211 3.212v.013Z" fill="#fff"/><path d="M302.828 35.635a3.478 3.478 0 0 1 2.697 1.272 3.497 3.497 0 0 1-.225 4.682 3.48 3.48 0 0 1-5.879-3.142 3.489 3.489 0 0 1 3.407-2.812Zm0 6.702a3.226 3.226 0 0 0 3.155-3.857 3.215 3.215 0 0 0-6.366.632 3.217 3.217 0 0 0 3.211 3.212v.013Z" fill="#022F45"/><path d="M302.829 35.908a3.215 3.215 0 0 1 2.568 5.138 3.22 3.22 0 0 1-2.426 1.292 3.214 3.214 0 0 1-1.387-.243 3.25 3.25 0 0 1-1.444-1.185 3.225 3.225 0 0 1 1.02-4.544 3.214 3.214 0 0 1 1.651-.458h.018Zm0 4.67a1.472 1.472 0 0 0 1.348-.9 1.45 1.45 0 0 0-1.267-2.002 1.447 1.447 0 0 0-1.279.644 1.46 1.46 0 0 0-.071 1.49 1.456 1.456 0 0 0 1.277.767h-.008Z" fill="#fff"/><path d="M302.828 37.667a1.454 1.454 0 0 1 .286 2.875 1.454 1.454 0 0 1-1.491-.618 1.455 1.455 0 0 1 .461-2.05 1.45 1.45 0 0 1 .744-.206Zm0 2.638a1.187 1.187 0 0 0 1.094-.73c.086-.218.108-.455.065-.684a1.166 1.166 0 0 0-.93-.925 1.182 1.182 0 1 0-.246 2.34h.017Z" fill="#022F45"/><path d="M302.016 39.96a1.177 1.177 0 0 1-.256-1.287 1.178 1.178 0 0 1 2.18 0 1.18 1.18 0 0 1-1.924 1.286ZM99.33 31.78a23.788 23.788 0 0 1-14.674 21.97 23.76 23.76 0 0 1-25.903-5.155A23.784 23.784 0 0 1 53.6 22.68a23.778 23.778 0 0 1 8.755-10.672 23.761 23.761 0 0 1 30.013 2.957 23.786 23.786 0 0 1 6.961 16.815Z" fill="#fff"/><path fill-rule="evenodd" clip-rule="evenodd" d="M75.56 54.696A22.898 22.898 0 0 0 96.722 40.55a22.925 22.925 0 0 0-4.966-24.973 22.901 22.901 0 0 0-24.961-4.968 22.907 22.907 0 0 0-10.28 8.44 22.923 22.923 0 0 0 2.849 28.935 22.9 22.9 0 0 0 16.196 6.712Zm0 .864a23.762 23.762 0 0 0 21.96-14.68 23.79 23.79 0 0 0-5.152-25.915A23.766 23.766 0 0 0 66.464 9.81a23.772 23.772 0 0 0-10.667 8.759 23.789 23.789 0 0 0 2.956 30.026A23.763 23.763 0 0 0 75.56 55.56Z" fill="#022F45"/><mask id="b" style="mask-type:luminance" maskUnits="userSpaceOnUse" x="59" y="14" width="34" height="35"><path d="M92.12 14.97H59.169v33.456h32.953V14.97Z" fill="#fff"/></mask><g mask="url(#b)"><path d="M87.108 36.895c0 2.08-.422 4.14-1.24 6.053a9.08 9.08 0 0 1-1.007 1.73 5.965 5.965 0 0 1-.757.864c-1.37 1.297-3.457 1.98-5.972 1.98-.604.001-1.207-.035-1.807-.108a19.874 19.874 0 0 1-8.574-3.173c-4.715-3.221-6.504-8.142-7.152-10.81-.497-1.984-1.379-7.306 1.824-11.928a13.942 13.942 0 0 1 2.364-2.655h.021a11.802 11.802 0 0 1 3.734-2.162 12.552 12.552 0 0 1 3.954-.692c5.122-.047 9.024 3.33 10.597 4.95l5.99-3.41a.532.532 0 0 1 .406-.048.549.549 0 0 1 .324.25.532.532 0 0 1 .048.407.513.513 0 0 1-.25.32l-5.757 3.273a10.581 10.581 0 0 1 2.55 8.453c1.227-.61 2.484-.7 3.427-.156a2.698 2.698 0 0 1 1.27 1.73c.398 1.733-1.28 3.89-3.993 5.132Z" fill="#fff"/><path d="M92.043 31.512a3.729 3.729 0 0 0-.61-1.37 3.68 3.68 0 0 0-1.11-1.004 4.03 4.03 0 0 0-2.857-.38 11.791 11.791 0 0 0-.432-3.13 11.473 11.473 0 0 0-1.759-3.68l4.793-2.728a1.489 1.489 0 0 0-1.46-2.595l-5.368 3.053c-1.833-1.73-5.692-4.722-10.649-4.722h-.108c-1.453.024-2.893.28-4.266.757a12.769 12.769 0 0 0-3.673 2.063l-.61.518a15.34 15.34 0 0 0-2.298 2.633c-2.905 4.195-2.68 8.881-2.213 11.523h-.043l.285 1.172c.683 2.788 2.563 7.955 7.545 11.35a20.83 20.83 0 0 0 9.003 3.324c.644.078 1.291.119 1.94.121 2.792 0 5.078-.774 6.625-2.24.32-.3.61-.632.864-.99a10.08 10.08 0 0 0 1.103-1.876 15.82 15.82 0 0 0 1.296-5.828c2.822-1.466 4.447-3.866 4.002-5.971Zm-5.329 4.518-.553.255v.605a14.46 14.46 0 0 1-1.154 5.621 8.453 8.453 0 0 1-.903 1.54c-.185.258-.395.499-.627.717-1.184 1.137-3.025 1.73-5.32 1.73-.569-.001-1.137-.034-1.702-.1a18.898 18.898 0 0 1-8.151-3.026c-4.145-2.82-5.904-7.065-6.625-9.677l-.143-.566c-.48-1.933-1.296-6.88 1.686-11.172a12.902 12.902 0 0 1 2.16-2.43l.078-.07a10.866 10.866 0 0 1 3.436-2.01 11.612 11.612 0 0 1 3.613-.592h.09c4.754 0 8.45 3.255 9.815 4.665l.493.523.216.242a9.562 9.562 0 0 1 2.079 3.83 9.719 9.719 0 0 1 .25 3.866l-.237 1.769 1.599-.796c.972-.484 1.893-.549 2.532-.186a1.752 1.752 0 0 1 .817 1.124c.294 1.332-1.206 3.105-3.457 4.142l.008-.004Z" fill="#fff"/><path d="M91.118 31.71a2.72 2.72 0 0 0-1.27-1.729c-.947-.544-2.196-.432-3.427.156a10.567 10.567 0 0 0-2.55-8.448l5.76-3.273a.536.536 0 0 0-.125-.982.556.556 0 0 0-.207 0 .568.568 0 0 0-.199.065l-5.985 3.407c-1.57-1.617-5.468-4.994-10.602-4.95a12.452 12.452 0 0 0-3.954.696 11.85 11.85 0 0 0-3.734 2.161c-.899.78-1.695 1.67-2.368 2.65-3.203 4.627-2.316 9.945-1.824 11.93.648 2.65 2.442 7.575 7.157 10.809a19.874 19.874 0 0 0 8.574 3.174c.598.07 1.2.106 1.802.108 2.52 0 4.603-.684 5.977-1.985.274-.264.523-.554.743-.865a9.515 9.515 0 0 0 1.012-1.73 15.415 15.415 0 0 0 1.236-6.026c2.688-1.224 4.365-3.381 3.984-5.167Zm-25.74-12.538a11.236 11.236 0 0 1 2.93-1.768 17.664 17.664 0 0 1 8.834 6.788l-10.51 5.924a18.041 18.041 0 0 1-1.245-10.957l-.009.013Zm7.135-2.594h.104c4.676 0 8.29 3.027 9.875 4.605l-4.771 2.685a18.304 18.304 0 0 0-8.458-6.801 11.857 11.857 0 0 1 3.272-.515l-.022.026Zm-9.56 5.258a13.719 13.719 0 0 1 1.656-1.98 18.854 18.854 0 0 0 .147 6.459c.285 1.418.73 2.799 1.327 4.116l-4.87 2.75c-.472-1.954-1.267-6.983 1.754-11.345h-.013Zm23.7 14.562-.19.086v.216a14.707 14.707 0 0 1-1.18 5.958 8.689 8.689 0 0 1-.945 1.605c-.2.277-.424.536-.67.773-3.337 3.161-10.874 1.816-15.558-1.366a15.332 15.332 0 0 1-2.65-2.283 3.538 3.538 0 0 0 2.443-4.238 3.54 3.54 0 0 0-.844-1.568 2.76 2.76 0 0 0 2.957-2.417 2.716 2.716 0 0 0-1.703-2.668l14.97-8.509a9.98 9.98 0 0 1 2.42 8.544 7.723 7.723 0 0 0-1.465 1.297l.484.432c1.513-1.73 3.535-2.464 4.802-1.73.24.145.45.336.617.563.164.228.282.487.346.76.329 1.54-1.296 3.46-3.833 4.562v-.017Z" fill="#022F45"/><path d="M78.196 40.086a7.125 7.125 0 0 1-3.621-1.842c.256-.277.57-.495.92-.636.41-.173.851-.264 1.297-.268a2.256 2.256 0 0 0-2.913 3.295 3.027 3.027 0 0 1 .557-2.236c.245.609.63 1.151 1.124 1.583a4.632 4.632 0 0 0 3.107 1.18 4.45 4.45 0 0 0 3.458-1.574 8.013 8.013 0 0 1-3.929.498ZM79.908 31.08c-1.163.138-2.204-.502-2.905-1.514-.073 1.513 1.53 2.789 3.026 2.55 1.525-.172 2.718-1.841 2.204-3.294-.355 1.172-1.167 2.093-2.325 2.257ZM78.508 27.4a3.804 3.804 0 0 1 2.934-.748c.363.073.718.181 1.059.324-.89-1.59-3.457-1.297-3.993.423Z" fill="#022F45"/></g></g><defs><clipPath id="a"><path fill="#fff" transform="matrix(-1 0 0 1 592 0)" d="M0 0h592v56H0z"/></clipPath></defs></svg>