<svg width="670" height="230" viewBox="0 0 670 230" fill="none" xmlns="http://www.w3.org/2000/svg">
<mask id="path-1-inside-1_118_18692" fill="white">
<path fill-rule="evenodd" clip-rule="evenodd" d="M496.535 22.7824C466.433 -0.00239115 432.345 -7.02182 406.675 7.79881C400.678 11.2612 395.483 15.7175 391.103 20.9921C385.976 17.2806 380.745 14.025 375.469 11.2546C373.783 10.0129 372.022 8.85927 370.185 7.79889C360.139 1.99902 348.804 -0.456156 336.924 0.069304C325.043 -0.456467 313.707 1.99866 303.661 7.79881C301.824 8.85934 300.062 10.0131 298.377 11.2551C292.269 14.4622 286.221 18.3195 280.326 22.7815C275.66 16.7208 269.987 11.6463 263.324 7.79889C237.654 -7.02154 203.566 -0.00251524 173.464 22.7815C168.799 16.7208 163.126 11.6463 156.462 7.79889C116.774 -15.1153 56.9628 14.1776 22.8709 73.2265C-11.2209 132.275 -6.68392 198.72 33.0047 221.634C58.6744 236.454 92.7618 229.435 122.864 206.651C127.529 212.712 133.202 217.786 139.866 221.634C165.536 236.454 199.623 229.435 229.725 206.651C234.391 212.712 240.063 217.786 246.727 221.634C272.493 236.509 306.739 229.383 336.923 206.396C367.107 229.382 401.353 236.509 427.118 221.634C433.116 218.171 438.31 213.715 442.69 208.44C472.188 229.794 505.147 236.059 530.132 221.634C536.796 217.786 542.469 212.711 547.135 206.65C577.237 229.435 611.325 236.454 636.995 221.634C676.684 198.719 681.221 132.275 647.129 73.2264C613.037 14.1776 553.227 -15.1154 513.538 7.79881C506.874 11.6464 501.201 16.7213 496.535 22.7824Z"/>
</mask>
<path fill-rule="evenodd" clip-rule="evenodd" d="M496.535 22.7824C466.433 -0.00239115 432.345 -7.02182 406.675 7.79881C400.678 11.2612 395.483 15.7175 391.103 20.9921C385.976 17.2806 380.745 14.025 375.469 11.2546C373.783 10.0129 372.022 8.85927 370.185 7.79889C360.139 1.99902 348.804 -0.456156 336.924 0.069304C325.043 -0.456467 313.707 1.99866 303.661 7.79881C301.824 8.85934 300.062 10.0131 298.377 11.2551C292.269 14.4622 286.221 18.3195 280.326 22.7815C275.66 16.7208 269.987 11.6463 263.324 7.79889C237.654 -7.02154 203.566 -0.00251524 173.464 22.7815C168.799 16.7208 163.126 11.6463 156.462 7.79889C116.774 -15.1153 56.9628 14.1776 22.8709 73.2265C-11.2209 132.275 -6.68392 198.72 33.0047 221.634C58.6744 236.454 92.7618 229.435 122.864 206.651C127.529 212.712 133.202 217.786 139.866 221.634C165.536 236.454 199.623 229.435 229.725 206.651C234.391 212.712 240.063 217.786 246.727 221.634C272.493 236.509 306.739 229.383 336.923 206.396C367.107 229.382 401.353 236.509 427.118 221.634C433.116 218.171 438.31 213.715 442.69 208.44C472.188 229.794 505.147 236.059 530.132 221.634C536.796 217.786 542.469 212.711 547.135 206.65C577.237 229.435 611.325 236.454 636.995 221.634C676.684 198.719 681.221 132.275 647.129 73.2264C613.037 14.1776 553.227 -15.1154 513.538 7.79881C506.874 11.6464 501.201 16.7213 496.535 22.7824Z" fill="#FEB703"/>
<path d="M406.675 7.79881L407.175 8.66483L406.675 7.79881ZM496.535 22.7824L495.931 23.5797L496.722 24.1784L497.327 23.3924L496.535 22.7824ZM391.103 20.9921L390.517 21.8021L391.275 22.3508L391.872 21.6309L391.103 20.9921ZM375.469 11.2546L374.876 12.0598L374.937 12.1047L375.004 12.14L375.469 11.2546ZM370.185 7.79889L369.685 8.66492V8.66492L370.185 7.79889ZM336.924 0.069304L336.88 1.06833L336.924 1.07028L336.968 1.06833L336.924 0.069304ZM303.661 7.79881L303.161 6.93278V6.93278L303.661 7.79881ZM298.377 11.2551L298.841 12.1404L298.909 12.1052L298.97 12.0602L298.377 11.2551ZM280.326 22.7815L279.533 23.3915L280.138 24.1775L280.929 23.5789L280.326 22.7815ZM263.324 7.79889L263.824 6.93287V6.93287L263.324 7.79889ZM173.464 22.7815L172.672 23.3915L173.277 24.1775L174.068 23.5789L173.464 22.7815ZM156.462 7.79889L156.962 6.93287V6.93287L156.462 7.79889ZM22.8709 73.2265L23.737 73.7265L22.8709 73.2265ZM33.0047 221.634L33.5047 220.768L33.0047 221.634ZM122.864 206.651L123.656 206.041L123.051 205.255L122.26 205.854L122.864 206.651ZM139.866 221.634L139.366 222.5L139.866 221.634ZM229.725 206.651L230.518 206.041L229.913 205.255L229.122 205.854L229.725 206.651ZM246.727 221.634L246.227 222.5L246.727 221.634ZM336.923 206.396L337.529 205.6L336.923 205.139L336.317 205.6L336.923 206.396ZM427.118 221.634L426.618 220.768L427.118 221.634ZM442.69 208.44L443.276 207.63L442.518 207.082L441.921 207.802L442.69 208.44ZM530.132 221.634L529.632 220.768L530.132 221.634ZM547.135 206.65L547.739 205.853L546.948 205.254L546.343 206.04L547.135 206.65ZM636.995 221.634L636.495 220.768L636.995 221.634ZM647.129 73.2264L646.263 73.7264L647.129 73.2264ZM513.538 7.79881L514.038 8.66483L513.538 7.79881ZM407.175 8.66483C432.353 -5.87189 465.993 0.91884 495.931 23.5797L497.139 21.985C466.873 -0.923622 432.336 -8.17175 406.175 6.93278L407.175 8.66483ZM391.872 21.6309C396.18 16.4435 401.284 12.0656 407.175 8.66483L406.175 6.93278C400.071 10.4569 394.786 14.9916 390.334 20.3532L391.872 21.6309ZM375.004 12.14C380.235 14.887 385.426 18.1171 390.517 21.8021L391.69 20.182C386.526 16.4441 381.254 13.163 375.934 10.3693L375.004 12.14ZM369.685 8.66492C371.489 9.70666 373.22 10.8399 374.876 12.0598L376.062 10.4495C374.346 9.18581 372.554 8.01188 370.685 6.93287L369.685 8.66492ZM336.968 1.06833C348.68 0.550331 359.822 2.97058 369.685 8.66492L370.685 6.93287C360.456 1.02746 348.929 -1.46264 336.88 -0.929719L336.968 1.06833ZM304.161 8.66483C314.024 2.97023 325.167 0.550024 336.88 1.06833L336.968 -0.929718C324.918 -1.46296 313.39 1.02709 303.161 6.93278L304.161 8.66483ZM298.97 12.0602C300.626 10.8402 302.356 9.70673 304.161 8.66483L303.161 6.93278C301.292 8.01195 299.499 9.18607 297.783 10.45L298.97 12.0602ZM280.929 23.5789C286.783 19.148 292.785 15.3206 298.841 12.1404L297.912 10.3697C291.753 13.6038 285.658 17.4911 279.722 21.9842L280.929 23.5789ZM262.824 8.66492C269.368 12.4435 274.943 17.429 279.533 23.3915L281.118 22.1715C276.377 16.0127 270.607 10.849 263.824 6.93287L262.824 8.66492ZM174.068 23.5789C204.006 0.918721 237.646 -5.87162 262.824 8.66492L263.824 6.93287C237.662 -8.17147 203.127 -0.923752 172.861 21.9842L174.068 23.5789ZM155.962 8.66492C162.507 12.4435 168.082 17.429 172.672 23.3915L174.257 22.1715C169.516 16.0127 163.745 10.849 156.962 6.93287L155.962 8.66492ZM23.737 73.7265C40.6971 44.3506 64.0338 22.416 88.0077 10.6746C111.988 -1.07014 136.494 -2.5749 155.962 8.66492L156.962 6.93287C136.742 -4.74152 111.498 -3.05693 87.128 8.87845C62.7513 20.8171 39.1366 43.0535 22.0049 72.7265L23.737 73.7265ZM33.5047 220.768C14.0367 209.528 3.08689 187.553 1.26781 160.912C-0.550759 134.28 6.7768 103.102 23.737 73.7265L22.0049 72.7265C4.87321 102.399 -2.57667 133.969 -0.727547 161.049C1.12106 188.121 12.284 210.825 32.5047 222.5L33.5047 220.768ZM122.26 205.854C92.3219 228.514 58.6827 235.304 33.5047 220.768L32.5047 222.5C58.6661 237.604 93.2016 230.356 123.467 207.448L122.26 205.854ZM140.366 220.768C133.821 216.989 128.246 212.004 123.656 206.041L122.071 207.261C126.812 213.42 132.583 218.584 139.366 222.5L140.366 220.768ZM229.122 205.854C199.183 228.514 165.544 235.304 140.366 220.768L139.366 222.5C165.527 237.604 200.063 230.356 230.329 207.448L229.122 205.854ZM247.227 220.768C240.683 216.989 235.107 212.004 230.518 206.041L228.933 207.261C233.674 213.42 239.444 218.584 246.227 222.5L247.227 220.768ZM336.317 205.6C306.296 228.463 272.499 235.358 247.227 220.768L246.227 222.5C272.486 237.66 307.182 230.302 337.529 207.191L336.317 205.6ZM426.618 220.768C401.347 235.358 367.55 228.463 337.529 205.6L336.317 207.191C366.664 230.302 401.359 237.66 427.618 222.5L426.618 220.768ZM441.921 207.802C437.613 212.989 432.509 217.367 426.618 220.768L427.618 222.5C433.722 218.976 439.007 214.441 443.459 209.079L441.921 207.802ZM529.632 220.768C505.125 234.917 472.606 228.862 443.276 207.63L442.104 209.25C471.769 230.726 505.169 237.201 530.632 222.5L529.632 220.768ZM546.343 206.04C541.753 212.003 536.177 216.989 529.632 220.768L530.632 222.5C537.416 218.583 543.186 213.419 547.927 207.26L546.343 206.04ZM546.532 207.447C576.798 230.356 611.334 237.604 637.495 222.5L636.495 220.768C611.317 235.304 577.677 228.514 547.739 205.853L546.532 207.447ZM637.495 222.5C657.716 210.825 668.879 188.121 670.728 161.049C672.577 133.969 665.127 102.399 647.995 72.7264L646.263 73.7264C663.223 103.102 670.551 134.28 668.732 160.912C666.913 187.553 655.963 209.528 636.495 220.768L637.495 222.5ZM647.995 72.7264C630.864 43.0534 607.249 20.8171 582.872 8.87839C558.502 -3.057 533.259 -4.7416 513.038 6.93278L514.038 8.66483C533.506 -2.57498 558.012 -1.07021 581.992 10.6745C605.966 22.416 629.303 44.3505 646.263 73.7264L647.995 72.7264ZM513.038 6.93278C506.255 10.8491 500.484 16.0131 495.743 22.1724L497.327 23.3924C501.917 17.4294 507.493 12.4436 514.038 8.66483L513.038 6.93278Z" fill="#022F45" mask="url(#path-1-inside-1_118_18692)"/>
</svg>
