<svg width="64" height="64" viewBox="0 0 64 64" fill="none" xmlns="http://www.w3.org/2000/svg">
<circle cx="32" cy="32" r="32" fill="#FEB703"/>
<g clip-path="url(#clip0_619_17245)">
<path d="M45.9183 38.8683C45.9183 39.8707 45.808 43.1936 44.4134 46.2566C44.0809 46.9989 43.6704 47.7029 43.1889 48.3566C42.9174 48.7373 42.6096 49.0901 42.2699 49.4101C40.6065 51.0042 38.0792 51.8396 35.0211 51.8396C34.2886 51.8379 33.5568 51.7938 32.8293 51.7073C29.1077 51.2448 25.5442 49.9124 22.4215 47.8159C16.696 43.8712 14.5226 37.838 13.7368 34.5894C13.1348 32.1576 12.0619 25.6371 15.9493 19.9706C16.7668 18.7694 17.7318 17.6778 18.8213 16.7219C18.8202 16.7127 18.8202 16.7033 18.8213 16.6941H18.8443C20.1795 15.5283 21.7162 14.6213 23.3773 14.0186C24.9223 13.4766 26.5436 13.1891 28.1791 13.167C34.3962 13.1136 39.1314 17.251 41.0453 19.235L48.3146 15.0582C48.4643 14.9727 48.6415 14.9506 48.8072 14.9967C48.973 15.0428 49.1139 15.1534 49.1992 15.3042C49.2838 15.4553 49.3057 15.6342 49.2601 15.8016C49.2144 15.969 49.1049 16.1114 48.9556 16.1975L41.9804 20.2026C43.2767 21.6855 44.2198 23.4485 44.7374 25.3563C45.1952 27.0499 45.3101 28.8193 45.0751 30.5588C46.5662 29.8116 48.0918 29.7002 49.2336 30.3685C49.6235 30.5982 49.9618 30.9072 50.2272 31.2758C50.4926 31.6445 50.6793 32.0649 50.7753 32.5103C51.2463 34.7031 49.2107 37.3461 45.9183 38.8683Z" fill="white"/>
<path d="M51.9085 32.2693C51.7787 31.6651 51.526 31.0946 51.1665 30.5941C50.807 30.0936 50.3485 29.674 49.82 29.3618C48.7599 28.7801 47.5243 28.6148 46.3507 28.8977C46.3597 27.6007 46.1926 26.3086 45.8544 25.0574C45.4163 23.437 44.6925 21.9097 43.7178 20.5488L49.5397 17.2073C49.9525 16.9676 50.2547 16.5728 50.3803 16.109C50.506 15.6452 50.445 15.15 50.2106 14.7314C49.9736 14.3147 49.5833 14.0095 49.1246 13.8822C48.6659 13.7548 48.1759 13.8157 47.7614 14.0515L41.2479 17.7897C39.0239 15.6526 34.3416 12.0049 28.3197 12.0049H28.1911C26.4269 12.0334 24.6786 12.3467 23.0124 12.933C21.3978 13.5195 19.8908 14.3727 18.5529 15.4577L17.8108 16.0935C16.7652 17.0542 15.8317 18.1325 15.0285 19.3073C11.5041 24.4471 11.7752 30.1902 12.3427 33.4296H12.2899L12.6368 34.8659C13.4616 38.2793 15.7476 44.6118 21.7924 48.7747C25.0708 50.976 28.8122 52.3752 32.7195 52.861C33.4913 52.9522 34.2676 52.9987 35.0446 53.0002C38.4289 53.0002 41.2089 52.0512 43.086 50.2528C43.4731 49.8842 43.8239 49.4785 44.1336 49.0416C44.6603 48.3256 45.1093 47.5547 45.4731 46.742C46.7069 44.0363 47.0055 41.1961 47.0675 39.5996C50.4748 37.7897 52.4507 34.8497 51.9085 32.2693ZM45.4409 37.8083L44.77 38.1192V38.8641C44.77 39.7621 44.669 42.9156 43.3686 45.7697C43.0705 46.4365 42.7023 47.069 42.2703 47.6562L42.2519 47.6818C42.0275 48 41.7728 48.2953 41.4914 48.5635C40.0509 49.9558 37.8154 50.6751 35.0331 50.6751C34.342 50.674 33.6516 50.6322 32.9653 50.5498C29.4274 50.1135 26.039 48.8494 23.0699 46.858C18.0406 43.4029 15.9062 38.1981 15.0285 35.0005L14.8562 34.3044C14.2703 31.9398 13.2984 25.8742 16.8987 20.6253C17.6432 19.5276 18.5191 18.5269 19.5064 17.6459L19.6029 17.5623C20.8314 16.4901 22.245 15.6555 23.7729 15.1004C25.1967 14.6006 26.6908 14.3358 28.198 14.316H28.3059C34.1049 14.316 38.5644 18.3072 40.2209 20.0313L40.839 20.6764L41.0986 20.9734C42.2876 22.3208 43.1525 23.9273 43.6259 25.6677C44.0411 27.2105 44.145 28.8218 43.9314 30.406L43.6397 32.5733L45.5811 31.6011C46.7643 31.007 47.8786 30.9258 48.6552 31.369C48.9053 31.5178 49.1224 31.7169 49.2932 31.9541C49.4639 32.1912 49.5846 32.4612 49.6477 32.7474C50.0015 34.3694 48.1865 36.5436 45.4409 37.8129V37.8083Z" fill="white"/>
<path d="M50.7844 32.5125C50.6881 32.0669 50.5014 31.6463 50.2361 31.2773C49.9707 30.9082 49.6325 30.5988 49.2428 30.3684C48.094 29.7024 46.5777 29.8138 45.0843 30.5587C45.3192 28.8192 45.2043 27.0498 44.7466 25.3562C44.2285 23.4492 43.2854 21.6872 41.9895 20.2048L48.9786 16.1928C49.1277 16.1071 49.2371 15.9651 49.2828 15.7981C49.3284 15.631 49.3067 15.4525 49.2221 15.3017C49.1801 15.2268 49.1239 15.161 49.0567 15.1081C48.9895 15.0552 48.9126 15.0162 48.8304 14.9934C48.7482 14.9705 48.6624 14.9643 48.5778 14.975C48.4933 14.9857 48.4116 15.0131 48.3376 15.0557L41.0682 19.2326C39.1636 17.2486 34.4307 13.1112 28.202 13.1646C26.5665 13.1857 24.945 13.4733 23.4002 14.0162C21.7391 14.6189 20.2024 15.5259 18.8672 16.6917H18.8442C18.8431 16.7009 18.8431 16.7103 18.8442 16.7195C17.7546 17.6753 16.7896 18.7669 15.9723 19.9681C12.0849 25.6393 13.1578 32.1598 13.7597 34.587C14.5455 37.8356 16.719 43.8687 22.4467 47.8135C25.5681 49.9105 29.1312 51.2422 32.8522 51.7026C33.5796 51.7909 34.3115 51.8358 35.0441 51.8372C38.1021 51.8372 40.6294 50.9995 42.2951 49.4077C42.6294 49.0865 42.9326 48.7337 43.2003 48.3542C43.6824 47.7 44.0929 46.9952 44.4249 46.2518C45.8195 43.1889 45.9298 39.8683 45.9298 38.8659C49.2106 37.346 51.2462 34.7007 50.7844 32.5125ZM19.538 17.1349C20.6065 16.2307 21.807 15.4988 23.0969 14.9652C25.8863 15.9467 28.4459 17.4972 30.6168 19.5203C31.8239 20.6473 32.8986 21.911 33.8195 23.2864L21.0613 30.5587C20.3759 29.0192 19.8657 27.4063 19.5403 25.7507C18.99 22.9054 18.9924 19.9793 19.5472 17.1349H19.538ZM28.1997 13.9419H28.3261C34.001 13.9419 38.3893 17.6338 40.3123 19.5853L34.4973 22.9012C33.5349 21.4589 32.4091 20.135 31.1428 18.9564C29.126 17.0746 26.7812 15.5868 24.2273 14.5684C25.519 14.1722 26.8591 13.9598 28.2089 13.9373L28.1997 13.9419ZM16.5972 20.4113C17.1901 19.5408 17.8632 18.7289 18.6076 17.9865C18.2117 20.6151 18.27 23.293 18.7799 25.9015C19.1229 27.6397 19.6625 29.3324 20.3881 30.9462L14.4789 34.3131C13.9045 31.9208 12.9396 25.7577 16.6064 20.4113H16.5972ZM45.3646 38.2556L45.1348 38.3623V38.6269C45.1463 39.0283 45.2015 42.6389 43.7035 45.9293C43.3912 46.624 43.0061 47.2829 42.5547 47.8947C42.3135 48.2359 42.0403 48.553 41.7391 48.8415C37.6908 52.7166 28.5421 51.0714 22.8603 47.1684C21.6867 46.3624 20.6076 45.4244 19.6437 44.3723C21.3508 43.7504 22.5547 42.2839 22.7155 40.5969C22.8901 38.7939 21.7965 37.4991 21.5828 37.2555C23.453 37.3854 25.0291 35.9792 25.1739 34.2969C25.2887 32.9046 24.4157 31.5797 23.1061 31.0274L41.2773 20.5993C42.5536 22.0169 43.4816 23.718 43.9861 25.565C44.4734 27.3587 44.5519 29.2405 44.2158 31.0692C43.5589 31.5173 42.9619 32.0492 42.4398 32.6517L43.0234 33.1692C44.8614 31.0436 47.3198 30.1526 48.8522 31.0459C49.1462 31.2225 49.4017 31.4575 49.6031 31.7367C49.8045 32.0159 49.9477 32.3335 50.024 32.6703C50.4238 34.5545 48.4663 36.9097 45.3738 38.2556H45.3646Z" fill="#022F45"/>
<path d="M35.0992 42.7762C33.4014 42.5094 31.9929 41.667 30.7017 40.5184C31.0125 40.1731 31.3945 39.9006 31.8206 39.7202C32.319 39.511 32.8524 39.3999 33.3921 39.393C32.3582 38.6481 30.7845 38.9939 29.9757 39.9685C29.1279 40.9082 28.9947 42.521 29.8562 43.4654C29.7186 42.4975 29.9619 41.5137 30.534 40.7249C30.8337 41.4647 31.2983 42.1246 31.8918 42.6532C32.9322 43.5859 34.2756 44.1004 35.6667 44.0989C37.2382 44.0989 38.8833 43.4213 39.8597 42.1682C38.3204 42.7112 36.7098 43.0431 35.0992 42.7762Z" fill="#022F45"/>
<path d="M37.1761 31.7425C35.7678 31.9119 34.4996 31.1276 33.6518 29.8862C33.5645 31.7425 35.5081 33.3065 37.3439 33.0141C39.1957 32.803 40.6431 30.7563 40.0182 28.9766C39.5702 30.4129 38.5799 31.5407 37.1761 31.7425Z" fill="#022F45"/>
<path d="M35.4761 27.2339C36.5605 26.4891 37.746 26.0505 39.0395 26.3173C39.4796 26.4063 39.9099 26.5392 40.3239 26.7142C39.2395 24.7627 36.1263 25.1223 35.4761 27.2339Z" fill="#022F45"/>
</g>
<defs>
<clipPath id="clip0_619_17245">
<rect width="40" height="41" fill="white" transform="translate(12 12)"/>
</clipPath>
</defs>
</svg>
