<svg width="420" height="239" viewBox="0 0 420 239" fill="none" xmlns="http://www.w3.org/2000/svg">
<path fill-rule="evenodd" clip-rule="evenodd" d="M34.3172 230.434C61.0063 245.843 96.4475 238.545 127.745 214.855C132.596 221.157 138.494 226.433 145.423 230.434C172.111 245.842 207.552 238.545 238.849 214.856C243.7 221.158 249.598 226.433 256.526 230.434C297.791 254.258 359.976 223.802 395.422 162.408C430.867 101.015 426.15 31.9325 384.886 8.10847C358.197 -7.30034 322.756 -0.00276307 291.459 23.6856C286.608 17.3845 280.71 12.1085 273.782 8.10847C247.093 -7.30054 211.652 -0.00257034 180.354 23.6866C175.504 17.385 169.605 12.1087 162.677 8.10847C121.412 -15.7155 59.2266 14.7404 23.7811 76.1338C-11.6644 137.527 -6.94723 206.61 34.3172 230.434Z" fill="#FEB703"/>
<mask id="path-2-inside-1_145_10632" fill="white">
<path fill-rule="evenodd" clip-rule="evenodd" d="M50.8875 220.181C75.115 234.169 107.287 227.544 135.698 206.041C140.101 211.761 145.455 216.55 151.745 220.181C175.972 234.169 208.145 227.544 236.555 206.041C240.959 211.761 246.313 216.55 252.602 220.181C290.061 241.808 346.511 214.161 378.688 158.43C410.864 102.699 406.582 39.9874 369.124 18.3606C344.896 4.37289 312.724 10.9976 284.313 32.5015C279.91 26.7813 274.556 21.9919 268.266 18.3606C244.039 4.37288 211.866 10.9976 183.456 32.5015C179.052 26.7813 173.698 21.9919 167.409 18.3606C129.95 -3.26615 73.4995 24.381 41.3231 80.1122C9.14664 135.843 13.4288 198.555 50.8875 220.181Z"/>
</mask>
<path d="M135.698 206.041L136.094 205.736L135.792 205.343L135.396 205.642L135.698 206.041ZM50.8875 220.181L50.6375 220.614L50.8875 220.181ZM151.745 220.181L151.995 219.748L151.745 220.181ZM236.555 206.041L236.952 205.736L236.649 205.343L236.254 205.642L236.555 206.041ZM252.602 220.181L252.852 219.748L252.602 220.181ZM378.688 158.43L378.255 158.18L378.688 158.43ZM369.124 18.3606L368.874 18.7937V18.7937L369.124 18.3606ZM284.313 32.5015L283.917 32.8065L284.219 33.1995L284.615 32.9002L284.313 32.5015ZM268.266 18.3606L268.016 18.7937V18.7937L268.266 18.3606ZM183.456 32.5015L183.059 32.8065L183.362 33.1995L183.757 32.9002L183.456 32.5015ZM167.409 18.3606L167.159 18.7937V18.7937L167.409 18.3606ZM41.3231 80.1122L40.8901 79.8622L41.3231 80.1122ZM135.396 205.642C132.323 207.968 129.207 210.118 126.062 212.087L126.592 212.934C129.763 210.95 132.904 208.782 136 206.439L135.396 205.642ZM105.772 222.094C98.3426 224.791 90.9339 226.42 83.7321 226.896L83.798 227.894C91.1042 227.411 98.6055 225.759 106.113 223.034L105.772 222.094ZM61.431 224.314C57.8713 223.166 54.4303 221.649 51.1375 219.748L50.6375 220.614C53.9925 222.551 57.4984 224.097 61.1242 225.265L61.431 224.314ZM51.1375 219.748C47.4113 217.597 44.0164 215.035 40.9557 212.111L40.2648 212.834C43.3821 215.812 46.8409 218.422 50.6375 220.614L51.1375 219.748ZM26.8183 191.058C23.6978 183.575 21.6754 175.22 20.7749 166.27L19.78 166.37C20.6891 175.405 22.7324 183.858 25.8954 191.443L26.8183 191.058ZM21.1088 140.68C22.0712 132.499 23.8303 124.085 26.3982 115.599L25.4411 115.309C22.8569 123.849 21.0852 132.322 20.1157 140.563L21.1088 140.68ZM35.7476 91.7112C37.5849 87.9064 39.5874 84.1185 41.7561 80.3622L40.8901 79.8622C38.7091 83.6398 36.6951 87.4494 34.8471 91.2763L35.7476 91.7112ZM41.7561 80.3622C43.9248 76.606 46.204 72.9778 48.5803 69.4842L47.7535 68.9218C45.3633 72.4357 43.071 76.0847 40.8901 79.8622L41.7561 80.3622ZM64.5928 49.4437C70.6579 42.9769 77.0659 37.246 83.6691 32.3223L83.0714 31.5207C76.4188 36.4811 69.967 42.2517 63.8634 48.7596L64.5928 49.4437ZM105.664 19.2381C113.865 15.5431 122.112 13.117 130.153 12.0779L130.024 11.0861C121.874 12.1394 113.532 14.5961 105.253 18.3264L105.664 19.2381ZM155.454 13.7947C159.517 14.9831 163.433 16.6424 167.159 18.7937L167.659 17.9276C163.862 15.7357 159.872 14.0453 155.734 12.8349L155.454 13.7947ZM167.159 18.7937C168.708 19.6882 170.2 20.6536 171.634 21.6865L172.219 20.8749C170.757 19.8226 169.237 18.8389 167.659 17.9276L167.159 18.7937ZM179.614 28.7356C180.821 30.0324 181.969 31.3905 183.059 32.8065L183.852 32.1965C182.743 30.7564 181.575 29.3745 180.346 28.0544L179.614 28.7356ZM183.757 32.9002C186.83 30.5743 189.947 28.4237 193.092 26.4553L192.561 25.6076C189.39 27.5921 186.25 29.7597 183.154 32.1028L183.757 32.9002ZM213.382 16.4475C220.811 13.7511 228.22 12.1216 235.422 11.6462L235.356 10.6483C228.049 11.1307 220.548 12.7827 213.041 15.5075L213.382 16.4475ZM257.723 14.2285C261.282 15.3757 264.723 16.8925 268.016 18.7937L268.516 17.9276C265.161 15.9906 261.655 14.4453 258.029 13.2767L257.723 14.2285ZM268.016 18.7937C269.565 19.6882 271.057 20.6536 272.492 21.6865L273.076 20.8749C271.615 19.8226 270.095 18.8389 268.516 17.9276L268.016 18.7937ZM280.472 28.7356C281.678 30.0324 282.827 31.3905 283.917 32.8065L284.709 32.1965C283.601 30.7564 282.432 29.3745 281.204 28.0544L280.472 28.7356ZM284.615 32.9002C287.688 30.5743 290.804 28.4237 293.949 26.4553L293.419 25.6076C290.248 27.5921 287.107 29.7597 284.011 32.1028L284.615 32.9002ZM314.239 16.4475C321.668 13.7511 329.077 12.1216 336.279 11.6462L336.213 10.6483C328.907 11.1307 321.405 12.7827 313.898 15.5075L314.239 16.4475ZM358.58 14.2285C362.14 15.3757 365.581 16.8925 368.874 18.7937L369.374 17.9276C366.019 15.9906 362.513 14.4453 358.887 13.2767L358.58 14.2285ZM368.874 18.7937C372.6 20.9449 375.995 23.5067 379.055 26.4311L379.746 25.7081C376.629 22.7296 373.17 20.1196 369.374 17.9276L368.874 18.7937ZM393.193 47.484C396.313 54.9672 398.336 63.3223 399.236 72.2721L400.231 72.172C399.322 63.1367 397.279 54.684 394.116 47.0991L393.193 47.484ZM398.902 97.8621C397.94 106.043 396.181 114.457 393.613 122.943L394.57 123.233C397.154 114.693 398.926 106.22 399.895 97.9789L398.902 97.8621ZM384.263 146.831C382.426 150.636 380.424 154.424 378.255 158.18L379.121 158.68C381.302 154.902 383.316 151.093 385.164 147.266L384.263 146.831ZM378.255 158.18C376.086 161.936 373.807 165.564 371.431 169.058L372.258 169.62C374.648 166.106 376.94 162.457 379.121 158.68L378.255 158.18ZM355.418 189.098C349.353 195.565 342.945 201.296 336.342 206.22L336.94 207.021C343.592 202.061 350.044 196.29 356.148 189.782L355.418 189.098ZM314.347 219.304C306.146 222.999 297.899 225.425 289.858 226.464L289.987 227.456C298.137 226.403 306.479 223.946 314.758 220.216L314.347 219.304ZM264.557 224.747C260.494 223.559 256.578 221.9 252.852 219.748L252.352 220.614C256.149 222.806 260.139 224.497 264.277 225.707L264.557 224.747ZM252.852 219.748C251.303 218.854 249.811 217.888 248.377 216.856L247.792 217.667C249.254 218.719 250.774 219.703 252.352 220.614L252.852 219.748ZM240.397 209.806C239.19 208.51 238.042 207.151 236.952 205.736L236.159 206.346C237.268 207.786 238.436 209.168 239.665 210.488L240.397 209.806ZM236.254 205.642C233.181 207.968 230.064 210.118 226.919 212.087L227.45 212.934C230.621 210.95 233.761 208.782 236.857 206.439L236.254 205.642ZM206.629 222.094C199.2 224.791 191.791 226.42 184.59 226.896L184.655 227.894C191.962 227.411 199.463 225.759 206.97 223.034L206.629 222.094ZM162.288 224.314C158.729 223.166 155.288 221.649 151.995 219.748L151.495 220.614C154.85 222.551 158.356 224.097 161.982 225.265L162.288 224.314ZM151.995 219.748C150.446 218.854 148.954 217.888 147.519 216.856L146.935 217.667C148.396 218.719 149.916 219.703 151.495 220.614L151.995 219.748ZM139.539 209.806C138.333 208.51 137.184 207.151 136.094 205.736L135.302 206.346C136.41 207.786 137.579 209.168 138.807 210.488L139.539 209.806ZM135.698 206.041L136.49 205.431L135.885 204.645L135.094 205.243L135.698 206.041ZM50.8875 220.181L50.3875 221.047L50.8875 220.181ZM151.745 220.181L152.245 219.315L151.745 220.181ZM236.555 206.041L237.348 205.431L236.743 204.645L235.952 205.243L236.555 206.041ZM252.602 220.181L253.102 219.315L252.602 220.181ZM378.688 158.43L377.822 157.93L378.688 158.43ZM369.124 18.3606L368.624 19.2267L369.124 18.3606ZM284.313 32.5015L283.521 33.1115L284.126 33.8974L284.917 33.2988L284.313 32.5015ZM268.266 18.3606L267.766 19.2267V19.2267L268.266 18.3606ZM183.456 32.5015L182.663 33.1115L183.268 33.8975L184.059 33.2988L183.456 32.5015ZM167.409 18.3606L166.909 19.2267V19.2267L167.409 18.3606ZM41.3231 80.1122L40.4571 79.6122L41.3231 80.1122ZM135.094 205.243C132.033 207.56 128.929 209.703 125.797 211.663L126.858 213.358C130.041 211.366 133.194 209.19 136.301 206.838L135.094 205.243ZM105.601 221.624C98.2111 224.307 90.8487 225.925 83.6991 226.397L83.8309 228.393C91.1893 227.907 98.737 226.244 106.284 223.504L105.601 221.624ZM61.5844 223.838C58.0578 222.701 54.6492 221.199 51.3875 219.315L50.3875 221.047C53.7735 223.002 57.3119 224.562 60.9709 225.741L61.5844 223.838ZM51.3875 219.315C47.6965 217.184 44.3335 214.647 41.3011 211.749L39.9194 213.195C43.065 216.201 46.5557 218.835 50.3875 221.047L51.3875 219.315ZM27.2798 190.866C24.1805 183.433 22.1686 175.127 21.2724 166.22L19.2825 166.42C20.1959 175.498 22.2498 184 25.4339 191.635L27.2798 190.866ZM21.6054 140.738C22.5642 132.588 24.3171 124.202 26.8768 115.743L24.9625 115.164C22.3702 123.731 20.5923 132.233 19.6191 140.505L21.6054 140.738ZM36.1978 91.9286C38.0298 88.1349 40.0266 84.3579 42.1891 80.6122L40.4571 79.6122C38.27 83.4004 36.2502 87.2209 34.3968 91.0589L36.1978 91.9286ZM42.1891 80.6122C44.3517 76.8666 46.6243 73.2488 48.9937 69.7654L47.34 68.6406C44.9429 72.1647 42.6442 75.8241 40.4571 79.6122L42.1891 80.6122ZM64.9575 49.7857C71.0033 43.3395 77.3894 37.6284 83.968 32.7232L82.7725 31.1198C76.0953 36.0986 69.6216 41.8891 63.4987 48.4175L64.9575 49.7857ZM105.869 19.694C114.031 16.0167 122.23 13.6058 130.217 12.5737L129.96 10.5902C121.756 11.6505 113.366 14.1225 105.048 17.8705L105.869 19.694ZM155.313 14.2746C159.339 15.4521 163.218 17.0957 166.909 19.2267L167.909 17.4946C164.077 15.2823 160.05 13.5764 155.875 12.355L155.313 14.2746ZM166.909 19.2267C168.443 20.1128 169.921 21.0691 171.342 22.0922L172.511 20.4692C171.036 19.4071 169.502 18.4143 167.909 17.4946L166.909 19.2267ZM179.248 29.0762C180.444 30.3614 181.583 31.7076 182.663 33.1115L184.248 31.8915C183.13 30.4393 181.952 29.0455 180.712 27.7138L179.248 29.0762ZM184.059 33.2988C187.121 30.9817 190.225 28.8394 193.357 26.8792L192.296 25.1838C189.112 27.1764 185.959 29.3524 182.852 31.7041L184.059 33.2988ZM213.552 16.9175C220.942 14.2353 228.305 12.6171 235.454 12.1451L235.323 10.1494C227.964 10.6352 220.417 12.2985 212.87 15.0375L213.552 16.9175ZM257.569 14.7044C261.096 15.8409 264.504 17.3435 267.766 19.2267L268.766 17.4946C265.38 15.5397 261.842 13.98 258.183 12.8008L257.569 14.7044ZM267.766 19.2267C269.301 20.1128 270.779 21.0691 272.2 22.0922L273.368 20.4692C271.893 19.4071 270.359 18.4143 268.766 17.4946L267.766 19.2267ZM280.106 29.0762C281.302 30.3614 282.44 31.7076 283.521 33.1115L285.105 31.8915C283.988 30.4393 282.809 29.0455 281.57 27.7138L280.106 29.0762ZM284.917 33.2988C287.978 30.9817 291.082 28.8394 294.214 26.8791L293.153 25.1838C289.97 27.1764 286.817 29.3524 283.71 31.7041L284.917 33.2988ZM314.41 16.9175C321.8 14.2353 329.162 12.6171 336.312 12.1451L336.18 10.1494C328.822 10.6352 321.274 12.2985 313.727 15.0375L314.41 16.9175ZM358.427 14.7044C361.953 15.8409 365.362 17.3435 368.624 19.2267L369.624 17.4946C366.237 15.5397 362.699 13.98 359.04 12.8008L358.427 14.7044ZM368.624 19.2267C372.314 21.3576 375.677 23.8952 378.71 26.7926L380.092 25.3466C376.946 22.3411 373.455 19.7069 369.624 17.4946L368.624 19.2267ZM392.731 47.6765C395.831 55.1088 397.842 63.4152 398.739 72.3221L400.729 72.1219C399.815 63.0438 397.761 54.5424 394.577 46.9067L392.731 47.6765ZM398.406 97.8037C397.447 105.954 395.694 114.34 393.134 122.799L395.048 123.378C397.641 114.811 399.419 106.309 400.392 98.0374L398.406 97.8037ZM383.813 146.613C381.981 150.407 379.984 154.184 377.822 157.93L379.554 158.93C381.741 155.142 383.761 151.321 385.614 147.483L383.813 146.613ZM377.822 157.93C375.659 161.675 373.387 165.293 371.017 168.777L372.671 169.901C375.068 166.377 377.367 162.718 379.554 158.93L377.822 157.93ZM355.053 188.756C349.008 195.203 342.622 200.914 336.043 205.819L337.239 207.422C343.916 202.443 350.389 196.653 356.512 190.124L355.053 188.756ZM314.142 218.848C305.98 222.525 297.781 224.936 289.794 225.968L290.051 227.952C298.255 226.891 306.645 224.419 314.963 220.671L314.142 218.848ZM264.698 224.267C260.672 223.09 256.793 221.446 253.102 219.315L252.102 221.047C255.934 223.26 259.961 224.966 264.136 226.187L264.698 224.267ZM253.102 219.315C251.568 218.429 250.09 217.473 248.669 216.45L247.5 218.073C248.975 219.135 250.509 220.128 252.102 221.047L253.102 219.315ZM240.763 209.466C239.567 208.181 238.428 206.834 237.348 205.431L235.763 206.651C236.881 208.103 238.059 209.497 239.299 210.828L240.763 209.466ZM235.952 205.243C232.89 207.56 229.786 209.703 226.654 211.663L227.715 213.358C230.899 211.366 234.052 209.19 237.159 206.838L235.952 205.243ZM206.459 221.624C199.069 224.307 191.706 225.925 184.557 226.397L184.688 228.393C192.047 227.907 199.594 226.244 207.141 223.504L206.459 221.624ZM162.442 223.838C158.915 222.701 155.507 221.199 152.245 219.315L151.245 221.047C154.631 223.002 158.169 224.562 161.828 225.741L162.442 223.838ZM152.245 219.315C150.71 218.429 149.232 217.473 147.811 216.45L146.643 218.073C148.118 219.135 149.652 220.128 151.245 221.047L152.245 219.315ZM139.905 209.466C138.71 208.181 137.571 206.834 136.49 205.431L134.906 206.651C136.023 208.103 137.202 209.497 138.441 210.828L139.905 209.466Z" fill="#022F45" mask="url(#path-2-inside-1_145_10632)"/>
</svg>
