<svg width="670" height="230" viewBox="0 0 670 230" fill="none" xmlns="http://www.w3.org/2000/svg">
<mask id="path-1-inside-1_118_18691" fill="white">
<path fill-rule="evenodd" clip-rule="evenodd" d="M496.535 22.7824C466.433 -0.00239115 432.345 -7.02182 406.675 7.79881C400.678 11.2612 395.483 15.7175 391.103 20.9921C385.976 17.2806 380.745 14.025 375.469 11.2546C373.783 10.0129 372.022 8.85927 370.185 7.79889C360.139 1.99902 348.804 -0.456156 336.924 0.069304C325.043 -0.456467 313.707 1.99866 303.661 7.79881C301.824 8.85934 300.062 10.0131 298.377 11.2551C292.269 14.4622 286.221 18.3195 280.326 22.7815C275.66 16.7208 269.987 11.6463 263.324 7.79889C237.654 -7.02154 203.566 -0.00251524 173.464 22.7815C168.799 16.7208 163.126 11.6463 156.462 7.79889C116.774 -15.1153 56.9628 14.1776 22.8709 73.2265C-11.2209 132.275 -6.68392 198.72 33.0047 221.634C58.6744 236.454 92.7618 229.435 122.864 206.651C127.529 212.712 133.202 217.786 139.866 221.634C165.536 236.454 199.623 229.435 229.725 206.651C234.391 212.712 240.063 217.786 246.727 221.634C272.493 236.509 306.739 229.383 336.923 206.396C367.107 229.382 401.353 236.509 427.118 221.634C433.116 218.171 438.31 213.715 442.69 208.44C472.188 229.794 505.147 236.059 530.132 221.634C536.796 217.786 542.469 212.711 547.135 206.65C577.237 229.435 611.325 236.454 636.995 221.634C676.684 198.719 681.221 132.275 647.129 73.2264C613.037 14.1776 553.227 -15.1154 513.538 7.79881C506.874 11.6464 501.201 16.7213 496.535 22.7824Z"/>
</mask>
<path fill-rule="evenodd" clip-rule="evenodd" d="M496.535 22.7824C466.433 -0.00239115 432.345 -7.02182 406.675 7.79881C400.678 11.2612 395.483 15.7175 391.103 20.9921C385.976 17.2806 380.745 14.025 375.469 11.2546C373.783 10.0129 372.022 8.85927 370.185 7.79889C360.139 1.99902 348.804 -0.456156 336.924 0.069304C325.043 -0.456467 313.707 1.99866 303.661 7.79881C301.824 8.85934 300.062 10.0131 298.377 11.2551C292.269 14.4622 286.221 18.3195 280.326 22.7815C275.66 16.7208 269.987 11.6463 263.324 7.79889C237.654 -7.02154 203.566 -0.00251524 173.464 22.7815C168.799 16.7208 163.126 11.6463 156.462 7.79889C116.774 -15.1153 56.9628 14.1776 22.8709 73.2265C-11.2209 132.275 -6.68392 198.72 33.0047 221.634C58.6744 236.454 92.7618 229.435 122.864 206.651C127.529 212.712 133.202 217.786 139.866 221.634C165.536 236.454 199.623 229.435 229.725 206.651C234.391 212.712 240.063 217.786 246.727 221.634C272.493 236.509 306.739 229.383 336.923 206.396C367.107 229.382 401.353 236.509 427.118 221.634C433.116 218.171 438.31 213.715 442.69 208.44C472.188 229.794 505.147 236.059 530.132 221.634C536.796 217.786 542.469 212.711 547.135 206.65C577.237 229.435 611.325 236.454 636.995 221.634C676.684 198.719 681.221 132.275 647.129 73.2264C613.037 14.1776 553.227 -15.1154 513.538 7.79881C506.874 11.6464 501.201 16.7213 496.535 22.7824Z" fill="#FEB703"/>
<path d="M406.675 7.79881L407.175 8.66483L406.675 7.79881ZM496.535 22.7824L495.931 23.5797L496.722 24.1784L497.327 23.3924L496.535 22.7824ZM391.103 20.9921L390.517 21.8021L391.275 22.3508L391.872 21.6309L391.103 20.9921ZM375.469 11.2546L374.876 12.0598L374.937 12.1047L375.004 12.14L375.469 11.2546ZM370.185 7.79889L369.685 8.66492V8.66492L370.185 7.79889ZM336.924 0.069304L336.88 1.06833L336.924 1.07028L336.968 1.06833L336.924 0.069304ZM303.661 7.79881L303.161 6.93278V6.93278L303.661 7.79881ZM298.377 11.2551L298.841 12.1404L298.909 12.1052L298.97 12.0602L298.377 11.2551ZM280.326 22.7815L279.533 23.3915L280.138 24.1775L280.929 23.5789L280.326 22.7815ZM263.324 7.79889L263.824 6.93287V6.93287L263.324 7.79889ZM173.464 22.7815L172.672 23.3915L173.277 24.1775L174.068 23.5789L173.464 22.7815ZM156.462 7.79889L156.962 6.93287V6.93287L156.462 7.79889ZM22.8709 73.2265L23.737 73.7265L22.8709 73.2265ZM33.0047 221.634L33.5047 220.768L33.0047 221.634ZM122.864 206.651L123.656 206.041L123.051 205.255L122.26 205.854L122.864 206.651ZM139.866 221.634L139.366 222.5L139.866 221.634ZM229.725 206.651L230.518 206.041L229.913 205.255L229.122 205.854L229.725 206.651ZM246.727 221.634L246.227 222.5L246.727 221.634ZM336.923 206.396L337.529 205.6L336.923 205.139L336.317 205.6L336.923 206.396ZM427.118 221.634L426.618 220.768L427.118 221.634ZM442.69 208.44L443.276 207.63L442.518 207.082L441.921 207.802L442.69 208.44ZM530.132 221.634L529.632 220.768L530.132 221.634ZM547.135 206.65L547.739 205.853L546.948 205.254L546.343 206.04L547.135 206.65ZM636.995 221.634L636.495 220.768L636.995 221.634ZM647.129 73.2264L646.263 73.7264L647.129 73.2264ZM513.538 7.79881L514.038 8.66483L513.538 7.79881ZM407.175 8.66483C432.353 -5.87189 465.993 0.91884 495.931 23.5797L497.139 21.985C466.873 -0.923622 432.336 -8.17175 406.175 6.93278L407.175 8.66483ZM391.872 21.6309C396.18 16.4435 401.284 12.0656 407.175 8.66483L406.175 6.93278C400.071 10.4569 394.786 14.9916 390.334 20.3532L391.872 21.6309ZM375.004 12.14C380.235 14.887 385.426 18.1171 390.517 21.8021L391.69 20.182C386.526 16.4441 381.254 13.163 375.934 10.3693L375.004 12.14ZM369.685 8.66492C371.489 9.70666 373.22 10.8399 374.876 12.0598L376.062 10.4495C374.346 9.18581 372.554 8.01188 370.685 6.93287L369.685 8.66492ZM336.968 1.06833C348.68 0.550331 359.822 2.97058 369.685 8.66492L370.685 6.93287C360.456 1.02746 348.929 -1.46264 336.88 -0.929719L336.968 1.06833ZM304.161 8.66483C314.024 2.97023 325.167 0.550024 336.88 1.06833L336.968 -0.929718C324.918 -1.46296 313.39 1.02709 303.161 6.93278L304.161 8.66483ZM298.97 12.0602C300.626 10.8402 302.356 9.70673 304.161 8.66483L303.161 6.93278C301.292 8.01195 299.499 9.18607 297.783 10.45L298.97 12.0602ZM280.929 23.5789C286.783 19.148 292.785 15.3206 298.841 12.1404L297.912 10.3697C291.753 13.6038 285.658 17.4911 279.722 21.9842L280.929 23.5789ZM262.824 8.66492C269.368 12.4435 274.943 17.429 279.533 23.3915L281.118 22.1715C276.377 16.0127 270.607 10.849 263.824 6.93287L262.824 8.66492ZM174.068 23.5789C204.006 0.918721 237.646 -5.87162 262.824 8.66492L263.824 6.93287C237.662 -8.17147 203.127 -0.923752 172.861 21.9842L174.068 23.5789ZM155.962 8.66492C162.507 12.4435 168.082 17.429 172.672 23.3915L174.257 22.1715C169.516 16.0127 163.745 10.849 156.962 6.93287L155.962 8.66492ZM23.737 73.7265C40.6971 44.3506 64.0338 22.416 88.0077 10.6746C111.988 -1.07014 136.494 -2.5749 155.962 8.66492L156.962 6.93287C136.742 -4.74152 111.498 -3.05693 87.128 8.87845C62.7513 20.8171 39.1366 43.0535 22.0049 72.7265L23.737 73.7265ZM33.5047 220.768C14.0367 209.528 3.08689 187.553 1.26781 160.912C-0.550759 134.28 6.7768 103.102 23.737 73.7265L22.0049 72.7265C4.87321 102.399 -2.57667 133.969 -0.727547 161.049C1.12106 188.121 12.284 210.825 32.5047 222.5L33.5047 220.768ZM122.26 205.854C92.3219 228.514 58.6827 235.304 33.5047 220.768L32.5047 222.5C58.6661 237.604 93.2016 230.356 123.467 207.448L122.26 205.854ZM140.366 220.768C133.821 216.989 128.246 212.004 123.656 206.041L122.071 207.261C126.812 213.42 132.583 218.584 139.366 222.5L140.366 220.768ZM229.122 205.854C199.183 228.514 165.544 235.304 140.366 220.768L139.366 222.5C165.527 237.604 200.063 230.356 230.329 207.448L229.122 205.854ZM247.227 220.768C240.683 216.989 235.107 212.004 230.518 206.041L228.933 207.261C233.674 213.42 239.444 218.584 246.227 222.5L247.227 220.768ZM336.317 205.6C306.296 228.463 272.499 235.358 247.227 220.768L246.227 222.5C272.486 237.66 307.182 230.302 337.529 207.191L336.317 205.6ZM426.618 220.768C401.347 235.358 367.55 228.463 337.529 205.6L336.317 207.191C366.664 230.302 401.359 237.66 427.618 222.5L426.618 220.768ZM441.921 207.802C437.613 212.989 432.509 217.367 426.618 220.768L427.618 222.5C433.722 218.976 439.007 214.441 443.459 209.079L441.921 207.802ZM529.632 220.768C505.125 234.917 472.606 228.862 443.276 207.63L442.104 209.25C471.769 230.726 505.169 237.201 530.632 222.5L529.632 220.768ZM546.343 206.04C541.753 212.003 536.177 216.989 529.632 220.768L530.632 222.5C537.416 218.583 543.186 213.419 547.927 207.26L546.343 206.04ZM546.532 207.447C576.798 230.356 611.334 237.604 637.495 222.5L636.495 220.768C611.317 235.304 577.677 228.514 547.739 205.853L546.532 207.447ZM637.495 222.5C657.716 210.825 668.879 188.121 670.728 161.049C672.577 133.969 665.127 102.399 647.995 72.7264L646.263 73.7264C663.223 103.102 670.551 134.28 668.732 160.912C666.913 187.553 655.963 209.528 636.495 220.768L637.495 222.5ZM647.995 72.7264C630.864 43.0534 607.249 20.8171 582.872 8.87839C558.502 -3.057 533.259 -4.7416 513.038 6.93278L514.038 8.66483C533.506 -2.57498 558.012 -1.07021 581.992 10.6745C605.966 22.416 629.303 44.3505 646.263 73.7264L647.995 72.7264ZM513.038 6.93278C506.255 10.8491 500.484 16.0131 495.743 22.1724L497.327 23.3924C501.917 17.4294 507.493 12.4436 514.038 8.66483L513.038 6.93278Z" fill="#022F45" mask="url(#path-1-inside-1_118_18691)"/>
<ellipse cx="335" cy="112" rx="231" ry="74" fill="white"/>
<path d="M179.536 144.779C163.759 137.659 144.286 129.569 141.319 116.428C136.56 95.3552 160.512 85.0821 183.35 75.5658C220.068 60.2664 257.267 51.9492 303.758 52.2996C360.281 52.7255 422.42 61.5866 477.977 73.4017C501.87 78.483 537.859 86.7915 538.646 105.933C539.944 137.482 469.966 150.891 433.144 156.999C359.232 169.259 282.459 168.609 204.315 167.357C178.061 166.936 144.852 162.594 120 166.978" stroke="#022F45" stroke-width="2" stroke-linecap="round"/>
<path d="M178.36 123.44C176.653 123.44 175.347 122.72 174.44 121.28C173.56 119.84 173.12 118.013 173.12 115.8C173.12 112.573 173.68 109.787 174.8 107.44C175.947 105.067 177.413 103.44 179.2 102.56C180.187 102.133 181.067 101.92 181.84 101.92C182.587 101.92 183.147 102 183.52 102.16C183.92 102.32 184.347 102.573 184.8 102.92C185.04 103.08 185.4 103.373 185.88 103.8C186.093 104.013 186.467 104.307 187 104.68C187.107 104.893 187.16 105.133 187.16 105.4C187.16 105.747 186.947 106 186.52 106.16C187.267 107.013 187.64 108.36 187.64 110.2C187.64 112.093 187.227 114.093 186.4 116.2C185.6 118.28 184.52 119.987 183.16 121.32C181.773 122.733 180.173 123.44 178.36 123.44ZM178.48 121.92C179.867 121.92 181.133 121.28 182.28 120C183.427 118.72 184.293 117.107 184.88 115.16C185.413 113.267 185.68 111.787 185.68 110.72C185.68 109.573 185.467 108.48 185.04 107.44C184.987 107.227 184.96 107.027 184.96 106.84C184.96 106.6 185.133 106.333 185.48 106.04C185.32 105.933 185.093 105.733 184.8 105.44C183.707 104.373 182.733 103.84 181.88 103.84C180.36 103.84 179.053 104.44 177.96 105.64C176.867 106.84 176.08 108.413 175.6 110.36C175.147 112.253 174.92 114 174.92 115.6C174.92 118.267 175.507 120.16 176.68 121.28C177.107 121.707 177.707 121.92 178.48 121.92ZM187.923 123.4C187.443 123.4 187.203 123.16 187.203 122.68C187.203 121.96 187.363 121.6 187.683 121.6C189.47 121.6 190.736 121.56 191.483 121.48C191.723 121.48 192.03 121.453 192.403 121.4L193.243 121.36C193.643 117.573 193.99 114.947 194.283 113.48C194.55 112.413 194.896 111.107 195.323 109.56C194.176 111.293 192.816 112.907 191.243 114.4C191.003 114.56 190.776 114.64 190.563 114.64C190.083 114.64 189.843 114.4 189.843 113.92C189.843 113.707 189.923 113.48 190.083 113.24C191.363 111.933 192.243 110.987 192.723 110.4C192.883 110.187 193.19 109.773 193.643 109.16C194.123 108.547 194.55 107.867 194.923 107.12C195.856 105.253 196.536 104.027 196.963 103.44C197.336 102.987 197.67 102.76 197.963 102.76C198.31 102.76 198.483 102.973 198.483 103.4V103.6L198.443 103.8L198.323 104.2H198.363L198.283 104.32C196.603 110.693 195.523 116.347 195.043 121.28C196.59 121.227 197.696 121.2 198.363 121.2H200.043L200.603 121.24L201.363 121.28C201.816 121.413 202.043 121.68 202.043 122.08C202.043 122.507 201.803 122.84 201.323 123.08C201.163 123.16 201.003 123.2 200.843 123.2L198.083 123L188.603 123.16C188.31 123.32 188.083 123.4 187.923 123.4ZM204.299 123.64C203.872 123.64 203.552 123.587 203.339 123.48H203.179C202.406 123.48 202.019 123.027 202.019 122.12C202.019 121.667 202.219 121.253 202.619 120.88C202.992 120.507 203.406 120.32 203.859 120.32C204.312 120.32 204.739 120.48 205.139 120.8C205.592 121.253 205.819 121.693 205.819 122.12C205.819 122.52 205.659 122.867 205.339 123.16C205.046 123.48 204.699 123.64 204.299 123.64ZM225.45 124.04C225.05 124.04 224.823 123.773 224.77 123.24C226.556 114.733 227.743 108.147 228.33 103.48C228.116 103.533 227.73 103.56 227.17 103.56C226.583 103.56 226.063 103.507 225.61 103.4C225.183 103.267 224.97 103.053 224.97 102.76C224.97 102.28 225.13 101.987 225.45 101.88C225.796 101.747 226.156 101.693 226.53 101.72C226.903 101.72 227.143 101.72 227.25 101.72L228.65 101.68L228.77 100.68C229.196 97.1067 229.81 93.44 230.61 89.68C228.716 90.1867 227.196 90.68 226.05 91.16C224.93 91.64 223.93 92.1333 223.05 92.64C222.516 92.9333 222.17 93.08 222.01 93.08C221.53 93.08 221.29 92.84 221.29 92.36C221.29 91.72 221.903 91.0933 223.13 90.48C224.383 89.84 225.423 89.4 226.25 89.16C227.076 88.92 228.69 88.4533 231.09 87.76C231.383 86.4533 231.61 85.5733 231.77 85.12C232.063 84.72 232.396 84.52 232.77 84.52C233.25 84.52 233.49 84.72 233.49 85.12C233.49 85.3333 233.423 85.5467 233.29 85.76L233.01 87.24C239.196 85.6933 246.343 84.8533 254.45 84.72C254.903 84.8533 255.13 85.08 255.13 85.4C255.13 85.64 255.023 85.88 254.81 86.12C254.623 86.3333 254.396 86.48 254.13 86.56C245.943 86.6933 238.77 87.56 232.61 89.16L231.93 92.52C231.583 94.2 231.316 95.5733 231.13 96.64C230.943 97.68 230.77 98.9333 230.61 100.4L230.49 101.48C233.396 101.213 235.703 101.04 237.41 100.96C239.143 100.853 240.89 100.8 242.65 100.8C242.836 100.8 242.97 100.867 243.05 101C243.156 101.133 243.21 101.28 243.21 101.44C243.21 101.707 243.103 101.96 242.89 102.2C242.703 102.413 242.463 102.547 242.17 102.6C241.183 102.68 240.143 102.733 239.05 102.76C235.21 102.893 232.276 103.067 230.25 103.28C229.85 106.267 229.29 109.627 228.57 113.36C227.85 117.067 227.17 120.36 226.53 123.24C226.29 123.773 225.93 124.04 225.45 124.04ZM248.156 123.36C246.769 123.36 245.729 122.813 245.036 121.72C244.369 120.627 244.036 119.32 244.036 117.8C244.036 115.373 244.436 113.027 245.236 110.76C246.063 108.467 247.183 106.573 248.596 105.08C249.956 103.56 251.489 102.8 253.196 102.8C255.649 102.8 256.876 104.667 256.876 108.4C256.876 110.267 256.569 112.173 255.956 114.12C255.343 116.067 254.543 117.8 253.556 119.32C252.596 120.84 251.596 121.933 250.556 122.6C249.756 123.107 248.956 123.36 248.156 123.36ZM248.476 121.56C249.303 121.56 250.223 120.84 251.236 119.4C252.276 117.96 253.143 116.173 253.836 114.04C254.556 111.907 254.916 110.093 254.916 108.6C254.916 107.053 254.823 106.093 254.636 105.72C254.476 105.32 254.276 105.04 254.036 104.88C253.796 104.72 253.423 104.64 252.916 104.64C252.356 104.64 251.769 104.853 251.156 105.28C249.929 106.053 248.863 107.387 247.956 109.28C246.543 112.107 245.836 114.853 245.836 117.52C245.836 119.333 246.356 120.587 247.396 121.28C247.769 121.467 248.129 121.56 248.476 121.56ZM260.23 123.64C259.857 123.64 259.67 123.4 259.67 122.92L260.59 118.16L262.27 109.72C263.017 105.987 263.39 104.12 263.39 104.12C263.497 103.533 263.644 103.107 263.83 102.84C264.017 102.573 264.257 102.44 264.55 102.44C264.817 102.44 265.017 102.507 265.15 102.64C265.31 102.773 265.39 103.013 265.39 103.36C265.39 103.973 265.204 104.907 264.83 106.16C264.644 106.773 264.51 107.293 264.43 107.72C264.324 108.093 264.204 108.52 264.07 109C263.937 109.453 263.79 109.987 263.63 110.6C264.35 108.973 265.03 107.68 265.67 106.72C266.31 105.733 267.11 104.8 268.07 103.92C268.977 103.147 269.884 102.76 270.79 102.76C271.457 102.76 272.017 102.907 272.47 103.2C272.924 103.467 273.15 103.787 273.15 104.16C273.15 104.453 273.044 104.693 272.83 104.88C272.617 105.04 272.35 105.12 272.03 105.12C271.79 105.12 271.564 105.067 271.35 104.96C271.19 104.827 270.977 104.76 270.71 104.76C270.364 104.76 269.857 105 269.19 105.48C267.937 106.387 266.87 107.587 265.99 109.08C265.137 110.547 264.457 112.04 263.95 113.56C263.47 115.053 262.95 116.867 262.39 119L262.03 120.48C261.63 122.587 261.03 123.64 260.23 123.64ZM274.08 139.44C273.12 139.44 272.04 139.253 270.84 138.88C269.613 138.507 268.573 138.04 267.72 137.48C266.866 136.947 266.44 136.44 266.44 135.96C266.44 135.693 266.56 135.48 266.8 135.32C267.04 135.16 267.386 135.093 267.84 135.12C269.28 136.16 270.386 136.813 271.16 137.08C271.933 137.373 272.96 137.52 274.24 137.52C276.586 137.52 278.493 136.8 279.96 135.36C281.426 133.947 282.586 132.013 283.44 129.56C284 127.96 284.573 125.387 285.16 121.84C285.746 118.267 286.413 113.893 287.16 108.72L287.76 104.76L284.04 104.84C283.506 104.787 283.24 104.547 283.24 104.12C283.24 103.747 283.36 103.493 283.6 103.36C283.866 103.2 284.293 103.107 284.88 103.08C285.493 103.027 286.586 103 288.16 103C288.986 99.6667 289.773 97.0267 290.52 95.08C291.293 93.1333 292.306 91.6133 293.56 90.52C294.813 89.4 296.44 88.84 298.44 88.84C300.653 88.84 301.76 89.24 301.76 90.04C301.76 90.44 301.493 90.8267 300.96 91.2C300.24 91.0667 299.173 91 297.76 91C295.893 91 294.28 92.12 292.92 94.36C291.586 96.5733 290.653 99.4533 290.12 103L295.2 103.04C295.946 103.04 296.32 103.293 296.32 103.8C296.32 104.44 295.68 104.787 294.4 104.84H293.16H289.72C289.373 106.76 288.68 111.187 287.64 118.12L286.52 125.36C285.586 131.067 283.733 135.053 280.96 137.32C279.28 138.733 276.986 139.44 274.08 139.44ZM308.559 123.08C307.946 123.08 307.373 122.76 306.839 122.12C306.333 121.453 306.079 120.747 306.079 120C306.079 118.347 306.519 115.547 307.399 111.6C306.733 113.04 305.866 114.52 304.799 116.04C303.759 117.533 302.733 118.853 301.719 120C300.706 121.147 299.959 121.893 299.479 122.24C298.813 122.747 298.079 123 297.279 123C295.759 123 294.999 122.04 294.999 120.12C294.999 118.253 295.706 115.933 297.119 113.16C298.533 110.36 300.213 107.933 302.159 105.88C304.106 103.853 305.679 102.84 306.879 102.84C308.106 102.84 308.799 103.373 308.959 104.44C309.039 104.76 309.079 105.107 309.079 105.48C309.213 105.4 309.359 105.36 309.519 105.36C310.133 105.36 310.439 105.653 310.439 106.24V106.4L309.959 108.16C309.586 109.493 309.199 111.467 308.799 114.08C308.399 116.693 308.199 118.867 308.199 120.6L308.599 120.84C309.239 121.24 309.559 121.64 309.559 122.04C309.559 122.307 309.466 122.547 309.279 122.76C309.093 122.973 308.853 123.08 308.559 123.08ZM297.599 120.92C297.893 120.92 298.133 120.827 298.319 120.64C301.039 118.32 303.453 115.107 305.559 111C306.466 109.293 307.026 108.173 307.239 107.64C307.479 107.107 307.599 106.587 307.599 106.08C307.599 105.813 307.533 105.573 307.399 105.36C307.266 105.147 307.093 105.04 306.879 105.04C306.613 105.04 306.266 105.16 305.839 105.4C304.773 105.96 303.506 107.147 302.039 108.96C300.599 110.773 299.413 112.693 298.479 114.72C297.493 116.773 296.999 118.6 296.999 120.2C296.999 120.68 297.199 120.92 297.599 120.92ZM314.888 123.56C314.621 123.56 314.395 123.507 314.208 123.4C314.021 123.293 313.928 123.16 313.928 123C314.168 122.253 314.355 121.48 314.488 120.68C314.675 119.693 314.888 118.867 315.128 118.2C316.168 114.093 317.075 109.413 317.848 104.16L317.968 103.48C317.968 103.293 318.155 102.987 318.528 102.56C318.768 102.453 318.968 102.4 319.128 102.4C319.475 102.4 319.715 102.627 319.848 103.08V103.4C319.821 105.16 319.528 107.227 318.968 109.6L317.968 113.8L318.928 111.72C320.315 108.467 321.648 106.12 322.928 104.68C324.128 103.32 325.461 102.64 326.928 102.64C327.701 102.64 328.341 102.96 328.848 103.6C329.381 104.24 329.648 105 329.648 105.88V106.2C329.621 106.28 329.608 106.387 329.608 106.52C331.048 104.76 332.555 103.56 334.128 102.92C334.635 102.707 335.128 102.6 335.608 102.6C336.115 102.6 336.581 102.84 337.008 103.32C337.435 103.8 337.648 104.413 337.648 105.16C337.648 106.627 337.355 108.373 336.768 110.4C336.395 111.627 336.101 112.547 335.888 113.16C334.608 116.947 333.901 119.507 333.768 120.84C333.741 121.08 333.701 121.387 333.648 121.76C333.595 122.107 333.555 122.32 333.528 122.4C333.315 123.04 332.955 123.36 332.448 123.36C331.835 123.36 331.528 122.707 331.528 121.4C331.528 120.6 331.675 119.72 331.968 118.76C332.208 118.04 332.461 117.227 332.728 116.32C332.808 116 333.061 115.227 333.488 114C334.101 112.267 334.581 110.8 334.928 109.6C335.275 108.4 335.515 107.08 335.648 105.64C335.648 105.133 335.581 104.827 335.448 104.72C335.341 104.587 335.101 104.52 334.728 104.52C334.328 104.52 333.768 104.76 333.048 105.24C332.355 105.72 331.661 106.36 330.968 107.16C329.368 108.973 328.141 111.32 327.288 114.2C327.021 115.187 326.795 115.893 326.608 116.32C325.728 118.987 325.181 120.72 324.968 121.52C324.755 122.373 324.581 122.88 324.448 123.04C324.288 123.253 324.048 123.36 323.728 123.36C323.115 123.36 322.781 123.027 322.728 122.36C322.995 120.493 323.368 118.84 323.848 117.4C324.328 115.96 324.928 114.347 325.648 112.56C326.101 111.387 326.488 110.213 326.808 109.04C327.155 107.84 327.328 106.827 327.328 106C327.328 105.093 327.048 104.64 326.488 104.64C325.555 104.64 324.488 105.52 323.288 107.28C322.088 109.013 320.981 110.947 319.968 113.08C318.955 115.187 318.301 116.68 318.008 117.56C317.821 118.067 317.675 118.48 317.568 118.8C317.461 119.093 317.381 119.333 317.328 119.52C316.475 122.213 315.661 123.56 314.888 123.56ZM342.467 123.4C341.561 123.4 341.107 122.667 341.107 121.2C341.107 120.827 341.174 120.493 341.307 120.2C341.441 119.747 341.561 119.227 341.667 118.64L342.267 115.96L343.067 112.44C343.334 111.133 343.654 109.667 344.027 108.04C344.081 107.88 344.134 107.613 344.187 107.24C344.454 106.093 344.587 105.427 344.587 105.24V104.84C344.587 104.627 344.494 104.187 344.307 103.52C344.307 103.2 344.414 102.907 344.627 102.64C344.867 102.373 345.147 102.24 345.467 102.24C345.761 102.24 346.014 102.44 346.227 102.84C346.441 103.24 346.547 103.68 346.547 104.16C346.547 104.693 345.934 107.573 344.707 112.8C343.481 118.027 342.867 120.8 342.867 121.12C342.867 121.413 343.001 121.56 343.267 121.56C343.401 121.56 343.641 121.387 343.987 121.04C344.307 120.72 344.574 120.56 344.787 120.56C345.214 120.56 345.427 120.827 345.427 121.36C345.427 121.68 345.241 122 344.867 122.32C344.494 122.64 344.067 122.893 343.587 123.08C343.107 123.293 342.734 123.4 342.467 123.4ZM346.507 99.24C346.081 99.24 345.761 99.1867 345.547 99.08H345.387C344.614 99.08 344.227 98.6267 344.227 97.72C344.227 97.2667 344.414 96.8533 344.787 96.48C345.187 96.1067 345.614 95.92 346.067 95.92C346.521 95.92 346.947 96.08 347.347 96.4C347.801 96.8533 348.027 97.2933 348.027 97.72C348.027 98.12 347.867 98.48 347.547 98.8C347.254 99.0933 346.907 99.24 346.507 99.24ZM353.142 123.32C352.182 123.32 351.449 123.067 350.942 122.56C350.462 122.053 350.222 121.387 350.222 120.56C350.222 119.84 350.262 119.187 350.342 118.6C350.422 117.987 350.569 117.04 350.782 115.76C351.209 113.28 351.755 110.453 352.422 107.28L353.462 102.24C355.755 91.28 356.982 85.5333 357.142 85C357.275 84.5733 357.569 84.36 358.022 84.36C358.582 84.36 358.862 84.6667 358.862 85.28L358.702 86.32C358.569 87.1733 358.422 87.9733 358.262 88.72C358.102 89.44 357.809 90.84 357.382 92.92C356.662 96.28 355.742 100.6 354.622 105.88C353.529 111.16 352.835 114.68 352.542 116.44C352.195 118.36 352.022 119.56 352.022 120.04C352.022 120.44 352.142 120.8 352.382 121.12C352.622 121.44 352.915 121.6 353.262 121.6C353.635 121.6 353.982 121.533 354.302 121.4C354.649 121.24 354.875 121.133 354.982 121.08L355.662 120.72C355.875 120.613 356.009 120.56 356.062 120.56C356.649 120.56 356.942 120.853 356.942 121.44C356.942 122.027 356.569 122.493 355.822 122.84C355.075 123.16 354.182 123.32 353.142 123.32ZM361.892 139.68C361.038 139.68 360.278 139.453 359.612 139C358.972 138.547 358.478 137.973 358.132 137.28C357.785 136.613 357.612 135.947 357.612 135.28C357.612 133.653 358.052 132.2 358.932 130.92C359.572 129.987 360.638 128.987 362.132 127.92C363.492 126.907 364.292 126.347 364.532 126.24L368.012 123.68C368.092 123.307 368.585 121.653 369.492 118.72L370.012 117.08C370.198 116.413 370.385 115.8 370.572 115.24C370.758 114.68 370.892 114.213 370.972 113.84C369.825 117.173 368.452 119.72 366.852 121.48C365.785 122.707 364.745 123.32 363.732 123.32C362.718 123.32 361.892 122.92 361.252 122.12C360.638 121.293 360.332 120.173 360.332 118.76C360.332 116.52 360.972 112.987 362.252 108.16C362.892 105.76 363.212 104.467 363.212 104.28C363.185 104.173 363.172 104.053 363.172 103.92C363.172 103.733 363.212 103.587 363.292 103.48C363.665 102.973 364.105 102.72 364.612 102.72C365.118 102.72 365.372 102.987 365.372 103.52C365.372 104.053 364.878 106.293 363.892 110.24C362.905 114.187 362.412 116.867 362.412 118.28C362.412 119.667 362.585 120.533 362.932 120.88C363.252 121.227 363.652 121.4 364.132 121.4C365.145 121.4 366.225 120.547 367.372 118.84C368.278 117.507 369.078 115.72 369.772 113.48C370.492 111.213 371.158 108.827 371.772 106.32L371.972 105.52C372.265 104.32 372.518 103.573 372.732 103.28C372.945 102.96 373.265 102.8 373.692 102.8C374.118 102.8 374.332 102.96 374.332 103.28C374.332 103.653 373.758 106.373 372.612 111.44C371.492 116.16 370.692 119.68 370.212 122C370.745 121.547 371.212 121.12 371.612 120.72C372.145 120.187 372.532 119.813 372.772 119.6C373.038 119.387 373.278 119.28 373.492 119.28C373.998 119.28 374.252 119.507 374.252 119.96C374.252 120.2 374.145 120.467 373.932 120.76C372.492 122.04 371.105 123.187 369.772 124.2C369.132 127.72 368.532 130.507 367.972 132.56C367.412 134.64 366.638 136.347 365.652 137.68C364.692 139.013 363.438 139.68 361.892 139.68ZM361.932 137.76C363.558 137.76 364.945 135.88 366.092 132.12L367.012 128.6L367.532 126C366.492 126.8 365.478 127.533 364.492 128.2C363.505 128.867 362.692 129.467 362.052 130C361.438 130.533 360.878 131.213 360.372 132.04C359.892 132.867 359.652 133.813 359.652 134.88C359.652 135.973 360.012 136.813 360.732 137.4C360.998 137.64 361.398 137.76 361.932 137.76ZM388.199 123.64C387.826 123.64 387.639 123.4 387.639 122.92L388.559 118.16L390.239 109.72C390.986 105.987 391.359 104.12 391.359 104.12C391.466 103.533 391.612 103.107 391.799 102.84C391.986 102.573 392.226 102.44 392.519 102.44C392.786 102.44 392.986 102.507 393.119 102.64C393.279 102.773 393.359 103.013 393.359 103.36C393.359 103.973 393.172 104.907 392.799 106.16C392.612 106.773 392.479 107.293 392.399 107.72C392.292 108.093 392.172 108.52 392.039 109C391.906 109.453 391.759 109.987 391.599 110.6C392.319 108.973 392.999 107.68 393.639 106.72C394.279 105.733 395.079 104.8 396.039 103.92C396.946 103.147 397.852 102.76 398.759 102.76C399.426 102.76 399.986 102.907 400.439 103.2C400.892 103.467 401.119 103.787 401.119 104.16C401.119 104.453 401.012 104.693 400.799 104.88C400.586 105.04 400.319 105.12 399.999 105.12C399.759 105.12 399.532 105.067 399.319 104.96C399.159 104.827 398.946 104.76 398.679 104.76C398.332 104.76 397.826 105 397.159 105.48C395.906 106.387 394.839 107.587 393.959 109.08C393.106 110.547 392.426 112.04 391.919 113.56C391.439 115.053 390.919 116.867 390.359 119L389.999 120.48C389.599 122.587 388.999 123.64 388.199 123.64ZM405.578 123.4C404.724 123.4 404.058 123.267 403.578 123C403.098 122.707 402.711 122.267 402.418 121.68C401.858 120.64 401.578 119.387 401.578 117.92C401.578 115.36 401.964 112.933 402.738 110.64C403.511 108.32 404.564 106.373 405.898 104.8C407.178 103.307 408.578 102.56 410.098 102.56C410.898 102.56 411.524 102.893 411.978 103.56C412.458 104.2 412.698 104.987 412.698 105.92C412.698 107.547 412.271 108.96 411.418 110.16C410.591 111.36 409.471 112.36 408.058 113.16C406.831 113.88 405.338 114.6 403.578 115.32L403.498 118.2C403.498 120.44 404.178 121.56 405.538 121.56C406.098 121.56 406.631 121.453 407.138 121.24C407.671 121.027 408.244 120.733 408.858 120.36C409.578 119.933 410.084 119.72 410.378 119.72C410.831 119.72 411.058 119.96 411.058 120.44C411.058 120.787 410.724 121.2 410.058 121.68C409.418 122.16 408.658 122.573 407.778 122.92C406.898 123.24 406.164 123.4 405.578 123.4ZM403.898 113.4C405.684 112.68 407.044 112.04 407.978 111.48C408.911 110.92 409.618 110.213 410.098 109.36C410.604 108.507 410.858 107.387 410.858 106C410.858 104.96 410.418 104.44 409.538 104.44C408.764 104.44 407.858 105.147 406.818 106.56C405.724 107.973 404.844 109.827 404.178 112.12C403.991 112.76 403.898 113.187 403.898 113.4ZM417.947 123.32C416.987 123.32 416.253 123.067 415.747 122.56C415.267 122.053 415.027 121.387 415.027 120.56C415.027 119.84 415.067 119.187 415.147 118.6C415.227 117.987 415.373 117.04 415.587 115.76C416.013 113.28 416.56 110.453 417.227 107.28L418.267 102.24C420.56 91.28 421.787 85.5333 421.947 85C422.08 84.5733 422.373 84.36 422.827 84.36C423.387 84.36 423.667 84.6667 423.667 85.28L423.507 86.32C423.373 87.1733 423.227 87.9733 423.067 88.72C422.907 89.44 422.613 90.84 422.187 92.92C421.467 96.28 420.547 100.6 419.427 105.88C418.333 111.16 417.64 114.68 417.347 116.44C417 118.36 416.827 119.56 416.827 120.04C416.827 120.44 416.947 120.8 417.187 121.12C417.427 121.44 417.72 121.6 418.067 121.6C418.44 121.6 418.787 121.533 419.107 121.4C419.453 121.24 419.68 121.133 419.787 121.08L420.467 120.72C420.68 120.613 420.813 120.56 420.867 120.56C421.453 120.56 421.747 120.853 421.747 121.44C421.747 122.027 421.373 122.493 420.627 122.84C419.88 123.16 418.987 123.32 417.947 123.32ZM428.976 123.36C427.59 123.36 426.55 122.813 425.856 121.72C425.19 120.627 424.856 119.32 424.856 117.8C424.856 115.373 425.256 113.027 426.056 110.76C426.883 108.467 428.003 106.573 429.416 105.08C430.776 103.56 432.31 102.8 434.016 102.8C436.47 102.8 437.696 104.667 437.696 108.4C437.696 110.267 437.39 112.173 436.776 114.12C436.163 116.067 435.363 117.8 434.376 119.32C433.416 120.84 432.416 121.933 431.376 122.6C430.576 123.107 429.776 123.36 428.976 123.36ZM429.296 121.56C430.123 121.56 431.043 120.84 432.056 119.4C433.096 117.96 433.963 116.173 434.656 114.04C435.376 111.907 435.736 110.093 435.736 108.6C435.736 107.053 435.643 106.093 435.456 105.72C435.296 105.32 435.096 105.04 434.856 104.88C434.616 104.72 434.243 104.64 433.736 104.64C433.176 104.64 432.59 104.853 431.976 105.28C430.75 106.053 429.683 107.387 428.776 109.28C427.363 112.107 426.656 114.853 426.656 117.52C426.656 119.333 427.176 120.587 428.216 121.28C428.59 121.467 428.95 121.56 429.296 121.56ZM444.051 123.48C442.771 123.48 441.757 123.013 441.011 122.08C440.291 121.12 439.931 119.973 439.931 118.64C439.931 116.293 440.357 113.867 441.211 111.36C442.091 108.853 443.237 106.76 444.651 105.08C446.037 103.4 447.531 102.56 449.131 102.56C450.277 102.56 451.024 102.973 451.371 103.8C451.451 103.933 451.517 104.08 451.571 104.24C451.624 104.373 451.677 104.507 451.731 104.64C451.864 105.013 451.997 105.227 452.131 105.28C452.237 105.547 452.291 105.747 452.291 105.88C452.291 106.12 452.171 106.347 451.931 106.56C451.717 106.773 451.477 106.88 451.211 106.88C450.651 106.88 450.291 106.467 450.131 105.64C449.971 104.813 449.531 104.4 448.811 104.4C447.851 104.4 446.837 105.147 445.771 106.64C444.704 108.107 443.784 109.973 443.011 112.24C442.264 114.373 441.891 116.28 441.891 117.96C441.891 120.333 442.757 121.52 444.491 121.52C445.371 121.52 446.184 121.107 446.931 120.28C447.011 120.173 447.157 120 447.371 119.76C447.584 119.493 447.784 119.307 447.971 119.2C448.157 119.067 448.331 119 448.491 119C448.997 119 449.251 119.227 449.251 119.68C449.251 120.213 448.997 120.787 448.491 121.4C447.984 121.987 447.331 122.48 446.531 122.88C445.731 123.28 444.904 123.48 444.051 123.48ZM466.489 123.08C465.876 123.08 465.302 122.76 464.769 122.12C464.262 121.453 464.009 120.747 464.009 120C464.009 118.347 464.449 115.547 465.329 111.6C464.662 113.04 463.796 114.52 462.729 116.04C461.689 117.533 460.662 118.853 459.649 120C458.636 121.147 457.889 121.893 457.409 122.24C456.742 122.747 456.009 123 455.209 123C453.689 123 452.929 122.04 452.929 120.12C452.929 118.253 453.636 115.933 455.049 113.16C456.462 110.36 458.142 107.933 460.089 105.88C462.036 103.853 463.609 102.84 464.809 102.84C466.036 102.84 466.729 103.373 466.889 104.44C466.969 104.76 467.009 105.107 467.009 105.48C467.142 105.4 467.289 105.36 467.449 105.36C468.062 105.36 468.369 105.653 468.369 106.24V106.4L467.889 108.16C467.516 109.493 467.129 111.467 466.729 114.08C466.329 116.693 466.129 118.867 466.129 120.6L466.529 120.84C467.169 121.24 467.489 121.64 467.489 122.04C467.489 122.307 467.396 122.547 467.209 122.76C467.022 122.973 466.782 123.08 466.489 123.08ZM455.529 120.92C455.822 120.92 456.062 120.827 456.249 120.64C458.969 118.32 461.382 115.107 463.489 111C464.396 109.293 464.956 108.173 465.169 107.64C465.409 107.107 465.529 106.587 465.529 106.08C465.529 105.813 465.462 105.573 465.329 105.36C465.196 105.147 465.022 105.04 464.809 105.04C464.542 105.04 464.196 105.16 463.769 105.4C462.702 105.96 461.436 107.147 459.969 108.96C458.529 110.773 457.342 112.693 456.409 114.72C455.422 116.773 454.929 118.6 454.929 120.2C454.929 120.68 455.129 120.92 455.529 120.92ZM475.418 123.16C474.484 123.16 473.778 122.92 473.298 122.44C472.844 121.96 472.618 121.093 472.618 119.84C472.618 119.147 472.698 118.347 472.858 117.44L473.218 115.16L473.658 113.28L473.898 112.2L474.418 110C474.471 109.653 474.591 109.093 474.778 108.32L474.978 107.52L475.338 105.8L475.578 104.6C474.538 104.6 473.578 104.667 472.698 104.8C472.164 104.72 471.898 104.493 471.898 104.12C471.898 103.853 472.004 103.6 472.218 103.36C472.431 103.12 472.684 102.987 472.978 102.96L475.858 103.04C475.858 103.04 475.924 102.707 476.058 102.04C476.111 101.507 476.218 100.893 476.378 100.2C476.538 99.5067 476.738 98.8933 476.978 98.36C477.218 97.7733 477.564 97.48 478.018 97.48C478.444 97.48 478.658 97.72 478.658 98.2V98.44C478.551 98.9733 478.458 99.36 478.378 99.6L477.698 103H480.578C481.591 103 482.218 103.08 482.458 103.24C482.671 103.4 482.778 103.6 482.778 103.84C482.778 104.267 482.578 104.547 482.178 104.68C481.804 104.787 481.151 104.84 480.218 104.84C479.364 104.84 478.418 104.8 477.378 104.72C477.218 105.6 476.671 108.04 475.738 112.04C474.884 115.667 474.458 117.96 474.458 118.92C474.458 119.96 474.578 120.64 474.818 120.96C474.951 121.173 475.231 121.28 475.658 121.28C476.031 121.28 476.351 121.187 476.618 121C476.911 120.787 477.204 120.507 477.498 120.16C477.791 119.787 478.044 119.507 478.258 119.32C478.471 119.133 478.698 119.04 478.938 119.04C479.471 119.04 479.738 119.307 479.738 119.84C479.738 120.107 479.471 120.547 478.938 121.16C478.404 121.773 477.898 122.267 477.418 122.64C476.991 122.987 476.324 123.16 475.418 123.16ZM485.514 123.4C484.607 123.4 484.154 122.667 484.154 121.2C484.154 120.827 484.221 120.493 484.354 120.2C484.487 119.747 484.607 119.227 484.714 118.64L485.314 115.96L486.114 112.44C486.381 111.133 486.701 109.667 487.074 108.04C487.127 107.88 487.181 107.613 487.234 107.24C487.501 106.093 487.634 105.427 487.634 105.24V104.84C487.634 104.627 487.541 104.187 487.354 103.52C487.354 103.2 487.461 102.907 487.674 102.64C487.914 102.373 488.194 102.24 488.514 102.24C488.807 102.24 489.061 102.44 489.274 102.84C489.487 103.24 489.594 103.68 489.594 104.16C489.594 104.693 488.981 107.573 487.754 112.8C486.527 118.027 485.914 120.8 485.914 121.12C485.914 121.413 486.047 121.56 486.314 121.56C486.447 121.56 486.687 121.387 487.034 121.04C487.354 120.72 487.621 120.56 487.834 120.56C488.261 120.56 488.474 120.827 488.474 121.36C488.474 121.68 488.287 122 487.914 122.32C487.541 122.64 487.114 122.893 486.634 123.08C486.154 123.293 485.781 123.4 485.514 123.4ZM489.554 99.24C489.127 99.24 488.807 99.1867 488.594 99.08H488.434C487.661 99.08 487.274 98.6267 487.274 97.72C487.274 97.2667 487.461 96.8533 487.834 96.48C488.234 96.1067 488.661 95.92 489.114 95.92C489.567 95.92 489.994 96.08 490.394 96.4C490.847 96.8533 491.074 97.2933 491.074 97.72C491.074 98.12 490.914 98.48 490.594 98.8C490.301 99.0933 489.954 99.24 489.554 99.24ZM496.789 123.36C495.402 123.36 494.362 122.813 493.669 121.72C493.002 120.627 492.669 119.32 492.669 117.8C492.669 115.373 493.069 113.027 493.869 110.76C494.695 108.467 495.815 106.573 497.229 105.08C498.589 103.56 500.122 102.8 501.829 102.8C504.282 102.8 505.509 104.667 505.509 108.4C505.509 110.267 505.202 112.173 504.589 114.12C503.975 116.067 503.175 117.8 502.189 119.32C501.229 120.84 500.229 121.933 499.189 122.6C498.389 123.107 497.589 123.36 496.789 123.36ZM497.109 121.56C497.935 121.56 498.855 120.84 499.869 119.4C500.909 117.96 501.775 116.173 502.469 114.04C503.189 111.907 503.549 110.093 503.549 108.6C503.549 107.053 503.455 106.093 503.269 105.72C503.109 105.32 502.909 105.04 502.669 104.88C502.429 104.72 502.055 104.64 501.549 104.64C500.989 104.64 500.402 104.853 499.789 105.28C498.562 106.053 497.495 107.387 496.589 109.28C495.175 112.107 494.469 114.853 494.469 117.52C494.469 119.333 494.989 120.587 496.029 121.28C496.402 121.467 496.762 121.56 497.109 121.56ZM519.143 123.24C518.716 123.24 518.41 123.16 518.223 123C518.036 122.84 517.97 122.56 518.023 122.16L519.983 110.48C520.223 109.04 520.343 107.933 520.343 107.16C520.343 105.88 519.983 105.24 519.263 105.24C518.383 105.24 517.17 106.773 515.623 109.84C514.103 112.88 512.53 116.32 510.903 120.16L510.343 121.44C509.863 122.48 509.383 123 508.903 123C508.636 123 508.463 122.947 508.383 122.84C508.33 122.707 508.303 122.44 508.303 122.04C508.303 121.64 508.823 118.56 509.863 112.8C510.93 107.04 511.543 104.013 511.703 103.72C511.863 103.4 511.996 103.2 512.103 103.12C512.236 103.04 512.476 103 512.823 103C513.143 103 513.396 103.12 513.583 103.36C513.796 103.6 513.903 103.84 513.903 104.08C513.903 104.24 513.77 104.76 513.503 105.64C512.703 108.36 512.076 111 511.623 113.56L511.223 115.92C511.676 114.96 512.01 114.213 512.223 113.68C512.97 111.947 513.65 110.427 514.263 109.12C514.903 107.813 515.61 106.6 516.383 105.48C517.556 103.8 518.65 102.96 519.663 102.96C521.45 102.96 522.343 104.4 522.343 107.28C522.343 107.893 522.263 108.68 522.103 109.64C521.943 110.6 521.77 111.587 521.583 112.6C521.21 114.547 520.97 115.88 520.863 116.6L520.583 118.44C520.343 120.093 520.13 121.307 519.943 122.08C519.756 122.853 519.49 123.24 519.143 123.24Z" fill="#022F45"/>
</svg>
